<svg xmlns="http://www.w3.org/2000/svg" viewBox="0 0 94.21 75.81"><defs><style>.cls-1{fill:#fff;}</style></defs><title>Asset 1</title><g id="Layer_2" data-name="Layer 2"><g id="Layer_1-2" data-name="Layer 1"><path class="cls-1" d="M30.23,27.22a21.91,21.91,0,0,1,5.24-4.69,12.39,12.39,0,0,1-.54-1.59,6.75,6.75,0,1,1,0-6.67,12.37,12.37,0,0,1,1.34-3.13,9.7,9.7,0,1,0-6,16.08Z"/><path class="cls-1" d="M21,27.28a12.56,12.56,0,0,1-2.05-2.2A18.79,18.79,0,0,0,10.3,40.85a18.25,18.25,0,0,0,.16,2.21,2.94,2.94,0,0,0,2.92,2.57H26.32a5.8,5.8,0,0,1-.75-2.21c0-.25-.06-.5-.08-.73H13.38a14.23,14.23,0,0,1-.13-1.84A15.79,15.79,0,0,1,21,27.28Z"/><path class="cls-1" d="M58.88,53a11.74,11.74,0,0,0,6.86-2.21H52A11.71,11.71,0,0,0,58.88,53Z"/><path class="cls-1" d="M70.55,42.69H68.72c0,.23,0,.48-.08.73a6,6,0,0,1-.75,2.21h1.89A11.49,11.49,0,0,0,70.55,42.69Z"/><path class="cls-1" d="M65.72,43.05a17.9,17.9,0,0,0,.08-3.66A18.92,18.92,0,0,0,62.39,30a12,12,0,0,0-3.51-.54c-.26,0-.53,0-.8,0a15.75,15.75,0,0,1,4.85,11.37,16.26,16.26,0,0,1-.13,1.84H47.21A11.91,11.91,0,0,0,48,45.63H62.8A3,3,0,0,0,65.72,43.05Z"/><path class="cls-1" d="M39,27.28a13,13,0,0,1-2.06-2.2,18.78,18.78,0,0,0-8.51,17.44l.06.53a3,3,0,0,0,2.92,2.58h7.35a20.82,20.82,0,0,1-.42-2.94H31.41a16.26,16.26,0,0,1-.13-1.84A15.77,15.77,0,0,1,39,27.28Z"/><path class="cls-1" d="M44.14,26.83a20.28,20.28,0,0,1,2.91-2.48,6.76,6.76,0,1,1,5.47-2.73,20.53,20.53,0,0,1,3.73-.83,9.69,9.69,0,1,0-12.33,6Z"/><path class="cls-1" d="M79.42,42.69A20.82,20.82,0,0,1,79,45.63h1.83a3,3,0,0,0,2.92-2.57,16.41,16.41,0,0,0,.15-2.21,18.75,18.75,0,0,0-8.6-15.77,12.53,12.53,0,0,1-1.62,1.79,21.42,21.42,0,0,1,1.58,1.85A15.75,15.75,0,0,1,81,40.85a14.23,14.23,0,0,1-.13,1.84Z"/><path class="cls-1" d="M88.32,0H5.89A5.89,5.89,0,0,0,0,5.89V54.46a5.89,5.89,0,0,0,5.89,5.89H37.54v5.89H33.86a1.47,1.47,0,1,0,0,2.94H60.35a1.47,1.47,0,0,0,0-2.94H56.67V61.7a19.71,19.71,0,0,1-2.94-.53v5.07H40.48V60.35H51.23a20.51,20.51,0,0,1-5.09-2.94H5.89a3,3,0,0,1-2.95-2.95v-.73H42.51a20.18,20.18,0,0,1-1.88-2.95H2.94V5.89A3,3,0,0,1,5.89,2.94H88.32a2.94,2.94,0,0,1,2.94,2.95V50.78H82.4l.18.16,2.92,2.79h5.76v.73a2.93,2.93,0,0,1-2.06,2.8l2.27,2.17a5.89,5.89,0,0,0,2.74-5V5.89A5.89,5.89,0,0,0,88.32,0Z"/><path class="cls-1" d="M65.14,7.92a9.65,9.65,0,0,0-7.2,3.22,12.37,12.37,0,0,1,1.34,3.13,6.75,6.75,0,1,1,9.62,8.94,20.16,20.16,0,0,1,2.58,1.7,9.67,9.67,0,0,0-6.34-17Z"/><path class="cls-1" d="M46.89,54.19a17.65,17.65,0,0,0,21.22,2.08l3,2.81a2.94,2.94,0,0,0,.42,3.74L84.32,75a2.91,2.91,0,0,0,2,.82h.12a3,3,0,0,0,2.08-1l4.91-5.49a2.94,2.94,0,0,0-.16-4.09L80.55,53.07a3,3,0,0,0-2-.81H78.4a3,3,0,0,0-1,.22l-3-2.8a17.67,17.67,0,0,0-15.5-26.13h0a17.67,17.67,0,0,0-12,30.64Zm31.62,1L91.26,67.38l-4.91,5.48L73.6,60.69Zm-3.29-.74-2.14,2.39-2.55-2.36a17.69,17.69,0,0,0,1.32-1.28c.31-.34.61-.69.89-1.05ZM48.07,31.22A14.72,14.72,0,1,1,48.89,52h0A14.67,14.67,0,0,1,48,31.28l0-.06Z"/></g></g></svg>