<svg width="27" height="27" viewBox="0 0 27 27" fill="none" xmlns="http://www.w3.org/2000/svg">
<path d="M26.54 13.28C26.54 20.63 20.59 26.57 13.26 26.55C5.89001 26.52 -0.00998731 20.61 1.2693e-05 13.25C0.0100127 5.91 5.92001 0 13.27 0C20.62 0 26.54 5.92 26.54 13.28Z" fill="#29AAE1"/>
<path d="M20.96 19.53C20.8 19.45 20.72 19.41 20.64 19.37C19.22 18.73 17.79 18.09 16.37 17.44C16.14 17.33 15.98 17.32 15.75 17.5C15.09 18.01 14.46 17.95 13.84 17.39C13.77 17.32 13.69 17.26 13.63 17.19C12.25 15.66 10.85 14.14 9.48999 12.59C8.85999 11.88 8.93999 10.98 9.57999 10.31C9.64999 10.23 9.68999 10.06 9.65999 9.95999C9.29999 8.60999 8.91999 7.26999 8.53999 5.93999C8.45999 5.63999 8.35999 5.34999 8.26999 5.04999C7.63999 5.23999 7.08999 5.50999 6.58999 5.88999C5.36999 6.79999 4.90999 8.02999 5.29999 9.49999C5.55999 10.45 5.83999 11.4 6.18999 12.33C6.85999 14.12 7.68999 15.85 9.05999 17.23C10.18 18.35 11.4 19.36 12.73 20.22C13.56 20.76 14.44 21.21 15.4 21.48C16.21 21.71 17.01 21.75 17.84 21.53C18.55 21.34 19.13 20.95 19.7 20.55C20.13 20.25 20.51 19.9 20.96 19.53Z" fill="white"/>
<path d="M16.23 16.86C17.95 17.64 19.61 18.4 21.28 19.16C21.3 19.08 21.31 19.05 21.31 19.02C21.33 18.73 21.35 18.44 21.37 18.15C21.4 17.67 21.27 17.46 20.83 17.26C20.02 16.89 19.2 16.53 18.38 16.18C18.14 16.08 17.89 15.99 17.64 15.94C17.5 15.91 17.3 15.92 17.2 16C16.88 16.26 16.58 16.55 16.23 16.86Z" fill="white"/>
<path d="M8.71997 4.94C8.73997 5.03 8.73997 5.09 8.75997 5.15C9.13997 6.55 9.50997 7.96 9.89997 9.36C9.95997 9.57 10.09 9.77 10.19 9.97C10.42 9.84 10.68 9.74 10.86 9.56C11.16 9.26 11.32 8.91 11.17 8.44C10.87 7.47 10.64 6.48 10.37 5.5C10.34 5.39 10.28 5.27 10.2 5.21C9.75997 4.89 9.27997 4.77 8.71997 4.94Z" fill="white"/>
</svg>
