<svg xmlns="http://www.w3.org/2000/svg" viewBox="0 0 85.02 74.83"><defs><style>.cls-1{fill:#fff;}</style></defs><title>Asset 3</title><g id="Layer_2" data-name="Layer 2"><g id="Layer_1-2" data-name="Layer 1"><path class="cls-1" d="M85,39.13A25.46,25.46,0,0,0,49.1,15.87,25.49,25.49,0,1,0,9.74,45.53a23.92,23.92,0,0,1-5.83,12.8,1.7,1.7,0,0,0,1.2,2.9h.21c.47-.06,11.23-1.53,17.6-10.34a22.36,22.36,0,0,0,2.59.15,25.25,25.25,0,0,0,10.41-2.25,25.54,25.54,0,0,0,23.6,15.85,22.49,22.49,0,0,0,2.59-.15c6.37,8.81,17.13,10.28,17.59,10.34h.22a1.7,1.7,0,0,0,1.2-2.9,23.85,23.85,0,0,1-5.83-12.79A25.58,25.58,0,0,0,85,39.13ZM72.46,57a1.7,1.7,0,0,0-.69,1.61,32.36,32.36,0,0,0,3.8,11.59,22.47,22.47,0,0,1-11.22-8.49A1.69,1.69,0,0,0,62.68,61,22.09,22.09,0,1,1,81.4,36,22.16,22.16,0,0,1,72.46,57ZM20.68,48.13A22.44,22.44,0,0,1,9.46,56.61,32.24,32.24,0,0,0,13.26,45a1.72,1.72,0,0,0-.69-1.61A22.09,22.09,0,1,1,46.08,17.49a25.28,25.28,0,0,0-11.22,28,21.33,21.33,0,0,1-12.51,1.85A1.68,1.68,0,0,0,20.68,48.13Z"/><path class="cls-1" d="M49.32,32.33h20.4a1.7,1.7,0,1,0,0-3.4H49.32a1.7,1.7,0,1,0,0,3.4Z"/><path class="cls-1" d="M73.12,37.43H45.91a1.7,1.7,0,0,0,0,3.4H73.12a1.7,1.7,0,1,0,0-3.4Z"/><path class="cls-1" d="M69.72,45.93H49.32a1.7,1.7,0,1,0,0,3.4h20.4a1.7,1.7,0,1,0,0-3.4Z"/><circle class="cls-1" cx="25.51" cy="37.43" r="1.7"/><path class="cls-1" d="M22.11,20.42A3.41,3.41,0,0,1,25.52,17a3.18,3.18,0,0,1,.62.06,3.4,3.4,0,0,1,1.36,6.1A8.45,8.45,0,0,0,23.81,30v2.34a1.7,1.7,0,1,0,3.4,0V30a5.07,5.07,0,0,1,2.28-4,6.8,6.8,0,1,0-10.78-5.52,1.7,1.7,0,1,0,3.4,0Z"/></g></g></svg>