<svg width="24" height="23" viewBox="0 0 24 23" fill="none" xmlns="http://www.w3.org/2000/svg">
<path d="M16.68 7.28C20.39 7.28 23.4 10.29 23.4 14V21.84H18.92V14C18.92 12.76 17.92 11.76 16.68 11.76C15.44 11.76 14.44 12.76 14.44 14V21.84H9.95996V14C9.95996 10.29 12.97 7.28 16.68 7.28Z" stroke="#231F20" stroke-width="1.1204" stroke-linecap="round" stroke-linejoin="round"/>
<path d="M5.46999 8.39999H0.98999V21.84H5.46999V8.39999Z" stroke="#231F20" stroke-width="1.1204" stroke-linecap="round" stroke-linejoin="round"/>
<path d="M3.24 5.04C4.47712 5.04 5.48 4.03712 5.48 2.8C5.48 1.56288 4.47712 0.559998 3.24 0.559998C2.00288 0.559998 1 1.56288 1 2.8C1 4.03712 2.00288 5.04 3.24 5.04Z" stroke="#231F20" stroke-width="1.1204" stroke-linecap="round" stroke-linejoin="round"/>
</svg>
