<svg xmlns="http://www.w3.org/2000/svg" viewBox="0 0 23.54 23.54"><defs><style>.cls-1{fill:none;stroke:#231f20;stroke-linecap:round;stroke-linejoin:round;stroke-width:1.12px;}</style></defs><title>Asset 10</title><g id="Layer_2" data-name="Layer 2"><g id="Layer_2-2" data-name="Layer 2"><path class="cls-1" d="M.56,23,2.49,17.2a11,11,0,1,1,4.35,4.13Z"/><path class="cls-1" d="M18.59,15a7.52,7.52,0,0,0-2.25-1.93c-.4-.23-.88-.26-1.11.15a10,10,0,0,1-.71.79,1.35,1.35,0,0,1-1.91-.19l-1.45-1.45L9.71,10.93A1.34,1.34,0,0,1,9.53,9a8.53,8.53,0,0,1,.78-.71c.41-.23.38-.71.15-1.11A7.52,7.52,0,0,0,8.53,5a1,1,0,0,0-1.17.18l-.64.64c-2,2-1,4.32,1,6.34L9.57,14l1.86,1.85c2,2,4.31,3,6.34,1l.64-.64A1,1,0,0,0,18.59,15Z"/></g></g></svg>