<svg xmlns="http://www.w3.org/2000/svg" viewBox="0 0 80.51 69.89"><defs><style>.cls-1{fill:#fff;}</style></defs><title>Asset 2</title><g id="Layer_2" data-name="Layer 2"><g id="Layer_1-2" data-name="Layer 1"><path class="cls-1" d="M80.43,33.14c-.88-6.1-12-23-13.49-25.25a7.14,7.14,0,0,0-2.82-3.41c-1-1.29-4.8-6.06-8.6-3.95a5.75,5.75,0,0,0-2.84,7,5.12,5.12,0,0,0-.56.15,1.53,1.53,0,0,0-.46.28c-1.53,1.34-1.82,4-2.15,7a37.74,37.74,0,0,1-.65,4.37,6.68,6.68,0,0,1-5.81,5.78c-5,.4-9.52,4.71-13.26,8.87-3.21,3.59-4.72,3.22-8,2.44l-.27-.06a1.34,1.34,0,0,0-.4,0v-4A1.38,1.38,0,0,0,19.7,31h0L1.38,31A1.37,1.37,0,0,0,0,32.4H0L.11,68.51a1.38,1.38,0,0,0,1.38,1.38h0l18.32-.06a1.38,1.38,0,0,0,1.38-1.38v-3.9c2.26.16,28,2,31.64,2a33.41,33.41,0,0,0,7.84,1.05,17.32,17.32,0,0,0,3.13-.25c5.18-.94,8.49-7.07,8.9-10.27C73.93,54.59,81.33,39.28,80.43,33.14ZM57,3.15c.68-.38,1.65.08,2.56.81a4.14,4.14,0,0,0-1.6,1.33,7.11,7.11,0,0,0-.65,4.18A5.29,5.29,0,0,0,55.9,8.1C55.14,5.44,55.05,4.21,57,3.15ZM59.41,35.3c-.3,1.29-.41,1.88-.5,2.36a24.24,24.24,0,0,1-.81,3.12,3.16,3.16,0,0,1-1.68,2,8,8,0,0,1-5.9.14.69.69,0,0,1-.34-.19c-.12-.34.06-1.23,1.55-3.52l.13-.2a12.05,12.05,0,0,1,1-1.28,44.52,44.52,0,0,0,2.95-3.88,23.14,23.14,0,0,0,3.41-7,32.85,32.85,0,0,1,.21,8.52ZM2.87,67.13,2.76,33.79l15.57,0,.11,33.35Zm60.39-2.7a27.27,27.27,0,0,1-9.85-.79,1.32,1.32,0,0,0-.39-.06.11.11,0,0,1-.08,0c-2.29,0-21.68-1.32-31.68-2h-.09l-.07-22.2c3.5.82,6.53,1.52,10.92-3.36,2-2.26,6.75-7.54,11.26-7.89A9.75,9.75,0,0,0,51.78,20a39.49,39.49,0,0,0,.7-4.72,15.35,15.35,0,0,1,1-4.92.93.93,0,0,1,.71.11c1.13.69,2.12,3.58,2.53,7.35a18.81,18.81,0,0,1-3.38,14.27,42.75,42.75,0,0,1-2.78,3.68,14.07,14.07,0,0,0-1.19,1.57l-.13.19A14.83,14.83,0,0,0,47.43,41a1.81,1.81,0,0,0-.29.33L43.26,47.9a1.49,1.49,0,0,0,.52,2h0a1.5,1.5,0,0,0,2-.52l2.56-4.34a3.68,3.68,0,0,0,1.2.65,10.79,10.79,0,0,0,8.22-.33A6.19,6.19,0,0,0,61,41.64a28.55,28.55,0,0,0,.87-3.42c.08-.46.19-1,.48-2.21.72-3-.11-9.52-1-16.38-.62-4.82-1.47-11.45-1-12.59a1.05,1.05,0,0,1,1.12-.46,3.92,3.92,0,0,1,2.75,2.51l.22.65a127.27,127.27,0,0,1,5.36,20,113.89,113.89,0,0,1,0,25.77c0,.48-.08.82-.09,1-.14,2-2.81,7.21-6.49,7.88ZM73.41,48.25a111.1,111.1,0,0,0-.64-18.86,74.53,74.53,0,0,0-2.23-10.14c3.3,5.56,6.54,11.58,6.94,14.31.42,2.91-1.79,9.24-4.06,14.7Z"/><circle class="cls-1" cx="10.56" cy="61.88" r="2.65"/></g></g></svg>