<svg xmlns="http://www.w3.org/2000/svg" viewBox="0 0 488.04 492.74"><defs><style>.cls-1{fill:#6ecee9;}.cls-2{fill:#fff;}.cls-3{fill:#231f20;}</style></defs><title>Asset 13</title><g id="Layer_2" data-name="Layer 2"><g id="Layer_2-2" data-name="Layer 2"><path class="cls-1" d="M166.6,47.5C176.31,38.86,187,31.09,199,26.16s24.73-6.83,37.48-8.26a500.15,500.15,0,0,1,92.21-1.75c21.88,1.6,44.11,4.79,63.72,14.62S428.84,58,433.16,79.54c6.22,31-13.94,60.76-34.42,84.89S355.15,214.34,353.92,246c-.27,6.93.61,14,3.71,20.25,8.79,17.54,31.39,22.29,46.33,35,19.57,16.63,23.93,45,23.77,70.65-.09,14.3-1.27,29-7.47,41.88-8.17,17-24.28,29-41.47,36.75-30,13.54-63.65,15.9-96.52,16.71q-41.7,1-83.4-.8c-38.81-1.7-78.34-5.48-113.92-21.06a182.66,182.66,0,0,1-69.83-53.94C8.26,382.69,2,373,.43,362c-2.72-18.51,8-36,18.27-51.67,5.46-8.32,11.29-17,20.08-21.65,17.51-9.28,40.73.2,58-9.54,16.9-9.54,22-34.3,40.21-40.95,4.27-1.55,8.9-1.93,13.13-3.59a23.33,23.33,0,0,0,14.41-20.91c.38-31.84-48.81-18-53.31-49.09-1.51-10.5,3.33-21.76,6.19-31.64,4.31-14.94,7.7-29.56,15.21-43.36A158,158,0,0,1,166.6,47.5Z"/><path class="cls-1" d="M403.54,207.77C397,211.7,392,218.51,391.44,226.1c-.8,10.68,7.4,20.45,17.26,24.63s21,3.87,31.66,2.8c4-.4,8.61-1.23,10.77-4.67a13.84,13.84,0,0,0,1.6-6.11c.93-9.19,1.65-19.28-3.68-26.83C439,201.59,417.85,199.11,403.54,207.77Z"/><path class="cls-1" d="M8.87,119.46C8.61,127,14.3,133.64,21,137s14.42,4,21.88,4.88c6.31.73,14,2.81,15.36,9,.6,2.7-.06,6,2,7.82,1.23,1.05,3,1.13,4.6,1.08,7.21-.24,14.24-2.14,21.21-4,6.36-1.73,13.27-3.83,17-9.29,3.45-5.1,3.18-11.78,2.46-17.89-.38-3.23-.92-6.61-2.92-9.17-3.16-4-9.25-5.1-12-9.44-3.7-5.88.85-14-1.71-20.44-2.7-6.8-11.46-8.34-18.76-8.86-13.84-1-28.23-.46-39.27,8.93C23.12,96.18,9.23,108.72,8.87,119.46Z"/><path class="cls-2" d="M236.51,109.59l-3.46-20.91c4.42-6.35,4.23-24.29,14.82-39.39,0,0,27.9,24.15,29.05,25.06s32.33,36.51,28.86,38.82-16.16,20.52-22.32,21.23S236.51,109.59,236.51,109.59Z"/><path class="cls-3" d="M283.22,134.74c-7,0-45.23-23.84-46.88-24.87l-.13-.08L232.7,88.61l.08-.11c1.7-2.44,2.74-6.8,3.95-11.84,2-8.17,4.4-18.33,10.87-27.56l.21-.3.27.24c.28.24,27.91,24.15,29,25.05.3.24,29.48,33,29.25,38.52a1,1,0,0,1-.41.83c-1.15.76-3.43,3.44-6.08,6.53-5.44,6.36-12.2,14.27-16.39,14.75Zm-46.4-25.35c2.47,1.54,39.75,24.69,46.35,24.69h.26c3.92-.45,10.88-8.58,16-14.52,2.79-3.26,5-5.84,6.21-6.66,0,0,.11-.07.12-.31.2-4.78-27.15-36.51-29-38-1.1-.87-25.72-22.18-28.79-24.84-6.25,9.06-8.64,19-10.56,27-1.26,5.24-2.25,9.39-4,11.94Z"/><path class="cls-2" d="M255.28,73.39l-3.18,1.83a26.42,26.42,0,0,1-21.36-3.71c-3.5-3.52-3-6.44-.72-9.09l4.47-7.5,20.79,4.62Z"/><path class="cls-3" d="M245.49,76.37a27.27,27.27,0,0,1-14.92-4.58c-3.32-3.32-3.56-6.44-.8-9.59l4.56-7.66,21.27,4.73V73.58l-3.42,2A27.74,27.74,0,0,1,245.49,76.37ZM234.65,55.29l-4.35,7.3c-2.56,2.92-2.33,5.67.67,8.69a26.22,26.22,0,0,0,21,3.63l3-1.71V59.8Z"/><path class="cls-2" d="M328.93,126.87l6.11,7a1.56,1.56,0,0,0,1.2.53c22-.65,43.13-6.52,64-7.07a1.42,1.42,0,0,0,.41-.08L439,114.49a1.4,1.4,0,0,1,.34-.08c7.5-.88,16.1,1.25,23.47-.23,4.25-1.3,3.69-3,1-4.81a12.66,12.66,0,0,0-6.76-2,1.52,1.52,0,0,1-.76-2.84c2.32-1.29,5.67-1.74,10-1.39a3,3,0,0,1,.41.09c5.35,1.88,10.39,3.33,14.23,3.2,3.41-.4,4.06-2.22,2.12-5.38l-3.08-1.93c7.42.74,9.38-1.43,6.54-6.16-9-6.34-19.23-8-29.87-8.22a1.41,1.41,0,0,0-.29,0c-10.42,1.38-23.08,7.16-36.08,13.63a1.43,1.43,0,0,1-.7.15c-19.82-.85-43.67,6.88-61,6.44l-.25,0-15,2.5a1.5,1.5,0,0,0-.93.55l-13.48,16.84A1.52,1.52,0,0,0,328.93,126.87Z"/><path class="cls-3" d="M336.19,134.72a1.85,1.85,0,0,1-1.4-.64l-6.1-7a1.82,1.82,0,0,1-.05-2.35l13.47-16.85a1.8,1.8,0,0,1,1.13-.66l15-2.5a1.08,1.08,0,0,1,.31,0c8.14.23,17.65-1.39,27.72-3.08,11.19-1.88,22.76-3.81,33.26-3.37a1.22,1.22,0,0,0,.55-.12c11.75-5.84,25.22-12.2,36.18-13.65a1.94,1.94,0,0,1,.34,0c9.42.24,20.35,1.42,30,8.29a.26.26,0,0,1,.09.09c1.35,2.25,1.64,3.91.9,5.08-.84,1.33-2.94,1.88-6.41,1.69l1.94,1.21a.27.27,0,0,1,.11.1c1.1,1.8,1.4,3.16.9,4.19s-1.54,1.49-3.26,1.7c-4.18.16-9.62-1.54-14.38-3.22a1.76,1.76,0,0,0-.33-.07c-4.27-.35-7.58.1-9.81,1.35a1.12,1.12,0,0,0-.57,1.31,1.2,1.2,0,0,0,1.18.91,13.16,13.16,0,0,1,6.92,2c1.69,1.14,2.41,2.1,2.27,3s-1.22,1.73-3.31,2.37c-4.09.83-8.57.55-12.9.29a60.93,60.93,0,0,0-10.63,0,1.4,1.4,0,0,0-.28.06l-38.3,12.77a2.18,2.18,0,0,1-.51.09c-10.35.27-20.53,1.81-31.31,3.46-10.62,1.61-21.59,3.28-32.71,3.6Zm22.32-29.37-.17,0-15,2.5a1.17,1.17,0,0,0-.73.43l-13.47,16.84a1.17,1.17,0,0,0,0,1.51h0l6.11,7a1.17,1.17,0,0,0,.94.42c11.08-.33,22-2,32.63-3.6,10.8-1.65,21-3.2,31.39-3.47a1.13,1.13,0,0,0,.32-.06l38.3-12.76a2,2,0,0,1,.42-.1,61.21,61.21,0,0,1,10.74,0c4.29.25,8.72.52,12.7-.27,1.74-.54,2.72-1.18,2.82-1.84s-.57-1.43-2-2.38a12.19,12.19,0,0,0-6.57-1.89,1.86,1.86,0,0,1-1.81-1.41,1.79,1.79,0,0,1,.89-2c2.35-1.31,5.77-1.78,10.18-1.43a2.5,2.5,0,0,1,.49.11c4.71,1.65,10.07,3.32,14.12,3.18,1.45-.17,2.38-.62,2.72-1.33s.1-2-.83-3.49l-3-1.88a.32.32,0,0,1-.14-.38.3.3,0,0,1,.34-.22c4,.38,6.35,0,7.13-1.28.59-.92.29-2.38-.86-4.33-9.55-6.73-20.34-7.88-29.64-8.12h-.23c-10.87,1.43-24.27,7.77-36,13.59a1.9,1.9,0,0,1-.87.19c-10.42-.46-22,1.48-33.13,3.36-10.09,1.69-19.65,3.29-27.84,3.08Z"/><path class="cls-2" d="M205.92,450.52c-.71,16.73,26.84,41.56,38.29,41.56,14-.21,18.26-4.87,16.74-12.12-2.48-9.22-14.73-21.43-27.71-33.86Z"/><path class="cls-3" d="M244.22,492.74c-5.95,0-16.29-6.45-25.14-15.69-9.09-9.48-14.13-19.17-13.82-26.56a.67.67,0,0,1,.56-.62l27.32-4.42a.68.68,0,0,1,.56.17c13.27,12.72,25.39,24.9,27.89,34.17.69,3.31.21,6-1.42,8C257.63,491,252.42,492.62,244.22,492.74Zm-37.65-41.66c0,7,4.84,16.06,13.46,25.07,8.49,8.85,18.66,15.28,24.18,15.28,7.66-.12,12.69-1.6,14.94-4.41,1.39-1.74,1.77-4,1.16-6.93-2.39-8.85-14.24-20.79-27.28-33.29Z"/><path class="cls-2" d="M220.16,453.41c.67,5.28,2.09,10.41,9.43,14.43,7.48,1.21,11.89-.25,14-3.66-2.48-5.36-7.45-8.91-12.89-12.12Z"/><path class="cls-3" d="M234.41,468.92a31.13,31.13,0,0,1-4.93-.43l-.21-.07c-7.81-4.28-9.13-9.95-9.76-14.93a.65.65,0,0,1,.57-.73l10.58-1.35a.69.69,0,0,1,.42.08c5.29,3.13,10.54,6.8,13.15,12.42a.67.67,0,0,1,0,.63C242.33,467.47,239.11,468.92,234.41,468.92Zm-4.6-1.71c6.6,1.05,10.88,0,13.07-3.08-2.48-5.05-7.34-8.46-12.28-11.39L220.9,454C221.55,458.63,223,463.42,229.81,467.21Z"/><path class="cls-2" d="M211.25,459.5c7.87,15.53,16.83,23.05,33.31,29.79"/><path class="cls-3" d="M244.55,490a.52.52,0,0,1-.24-.05c-17.14-7-25.94-14.88-33.65-30.1a.66.66,0,0,1,.29-.88.67.67,0,0,1,.89.28c7.54,14.9,16.16,22.61,33,29.48a.66.66,0,0,1,.36.86A.65.65,0,0,1,244.55,490Z"/><path class="cls-2" d="M304.25,448c-.09.27-4.82-4.37-6.57-2.24-.94,1.15.55,9.76.55,9.76,14.08,14.19,31.33,23.23,51.18,28.06,9.71-2.15,15.55-5.87,16-11.77-2.22-8-15-18-29-28.33Z"/><path class="cls-3" d="M349.41,484.18l-.15,0c-20.52-5-37.84-14.48-51.47-28.22a.62.62,0,0,1-.17-.33c-.47-2.68-1.43-9-.42-10.26,1.72-2.1,5.07.43,6.68,1.65l.45.34,32-4.5a.68.68,0,0,1,.46.12c13.52,9.94,26.92,20.33,29.24,28.66a.53.53,0,0,1,0,.22c-.46,5.94-5.86,10-16.5,12.32Zm-50.6-29c13.41,13.47,30.44,22.79,50.6,27.72,9.87-2.2,14.9-5.83,15.38-11.07-2.29-7.89-15.33-18-28.55-27.74l-31.81,4.47h0c-.37.1-.57,0-1.3-.59-1.09-.83-4-3-5-1.86C297.72,446.8,298.15,451.32,298.81,455.2Zm5.43-7.21h0Z"/><path class="cls-2" d="M306.71,459.08c10.46,10.52,23.36,14.9,36.74,20.23"/><path class="cls-3" d="M343.45,479.94a.64.64,0,0,1-.23-.05l-3.91-1.54c-12.09-4.76-23.51-9.25-33-18.83a.63.63,0,1,1,.89-.88c9.34,9.4,20.64,13.84,32.6,18.55l3.92,1.54a.63.63,0,0,1-.23,1.21Z"/><path class="cls-2" d="M325.32,454.41c6.78,3.21,11.16,2.63,14.24,0,2.05-3.7-2.66-8.67-6.16-14.5l-14.92,9.3Z"/><path class="cls-3" d="M333.48,457.23a20.14,20.14,0,0,1-8.42-2.26.39.39,0,0,1-.11-.06l-6.84-5.2a.63.63,0,0,1,0-1l14.92-9.3a.58.58,0,0,1,.48-.08.6.6,0,0,1,.38.28c.81,1.34,1.67,2.63,2.51,3.88,2.91,4.34,5.42,8.08,3.66,11.25a.47.47,0,0,1-.14.17A9.59,9.59,0,0,1,333.48,457.23Zm-7.83-3.36c5.83,2.75,10.22,2.8,13.41.14,1.29-2.5-1-5.91-3.65-9.85-.74-1.1-1.49-2.22-2.22-3.39l-13.61,8.49Z"/><path class="cls-2" d="M222.66,269.65l-20.2,13.28c-3.43,14-1.29,29.39,4,45.6.29,46.76-10.39,86.3-4,127.57,4.57,5.82,19.25,4.52,43.44-3.46-3.26-19.06-4.06-37.09,0-53.11,7-5.87,12.17-15.14,15.44-27.71,1.11-21.48,6.51-43.94,14.43-67l17.31,62.92-2.88,77.35c3.24,8.25,11.07,10.78,23.09,8.08l27.13-6.92c2.12-8.3,1.73-17.25,0-26.55-5.2-25.69,3.17-49.36,1.45-69,3.35-23.8-18.19-55.7-31.47-94.38l-39-8.65Z"/><path class="cls-3" d="M213.31,460.37c-5.58,0-9.35-1.29-11.37-3.86l-.11-.14,0-.17c-3.8-24.68-1.54-48.64.86-74,1.61-17.07,3.28-34.73,3.17-53.54-5.87-17.92-7.19-32.92-4-45.87l.06-.25,20.51-13.47,49-22,.21,0,39.32,8.74.12.35c4.59,13.36,10.07,25.69,15.36,37.62,9.85,22.16,18.36,41.31,16.14,57.07.72,8-.29,16.79-1.35,26.1-1.54,13.59-3.14,27.63-.11,42.65,1.95,10.46,1.94,19.24,0,26.85l-.1.38-.38.1-27.13,6.92c-12.53,2.8-20.55-.05-23.86-8.48l0-.12,2.88-77.39L275.7,307.1C267.48,331.43,263,352.63,262,371.86c-3.3,12.75-8.51,22.14-15.51,28-3.57,14.27-3.55,31.48.06,52.63l.1.55-.54.18C231.75,458,220.87,460.37,213.31,460.37Zm-10.23-4.54c4.41,5.29,18.56,4.07,42.07-3.64-3.57-21.17-3.53-38.46.11-52.82l.05-.21.17-.14c6.86-5.71,12-14.91,15.22-27.36,1-19.75,5.74-41.71,14.45-67l.69-2,17.91,65.07L290.86,445c3.12,7.74,10.4,10.22,22.28,7.55l26.74-6.82c1.8-7.34,1.76-15.81-.11-25.89-3.08-15.22-1.39-30,.1-43.05,1.05-9.25,2.05-18,1.34-26,2.17-15.53-6.26-34.52-16-56.5-5.26-11.85-10.7-24.09-15.28-37.37l-38.39-8.54L223,270.23,203,283.33c-3,12.67-1.69,27.39,4.09,45l0,.2c.12,18.93-1.55,36.65-3.17,53.79C201.6,407.53,199.34,431.37,203.08,455.83Z"/><path class="cls-2" d="M233.05,88.68c-15.2,15.69-38.1,27-45.6,45.74-1.08,41.8,3,92.87,9.81,148.8,41.91,3.2,79.67-5.62,113.14-26.85l4.33-5.19c-12.2-32.35-10.29-74.85-13.85-118.91,14.24.09,26.75,5,37.23,5.19-2.39-2,13.71-23.44,21.94-34.63-25-7.18-50.61-22.61-78.22-16.74l-32.9,6.35Z"/><path class="cls-3" d="M213.57,284.5q-8.08,0-16.36-.63l-.54,0-.06-.53c-7.58-62.37-10.79-111.07-9.82-148.9l.05-.23c5-12.35,16.73-21.68,28.11-30.71,6.08-4.82,12.37-9.81,17.63-15.23l.26-.27,16.1,3.81,32.76-6.33c20.41-4.33,39.72,2.86,58.38,9.82,6.63,2.47,13.49,5,20.15,6.93l.9.26L358.55,106c-6.35,8.62-21.21,28.79-20,31l1.42,1.2-1.87-.06c-4.8-.11-10-1.17-15.55-2.3-6.64-1.35-13.5-2.75-21-2.89.93,11.66,1.48,23.25,2,34.46,1.47,30.87,2.86,60,11.74,83.56l.13.36-4.73,5.62C281.86,275.26,249.22,284.5,213.57,284.5Zm-15.72-1.9c41.53,3.08,79.25-5.91,112.11-26.73l4-4.82c-8.82-23.65-10.21-52.77-11.69-83.59-.54-11.44-1.11-23.26-2.07-35.14l-.06-.72h.72c7.87,0,15.34,1.58,21.94,2.92a98.13,98.13,0,0,0,14.44,2.25c.09-3.59,7-13.63,20.23-31.59l1.47-2c-6.42-1.89-13-4.33-19.34-6.7-18.49-6.9-37.6-14-57.66-9.76l-33,6.38-.14,0-15.51-3.67a187,187,0,0,1-17.49,15.08C204,113.79,193,122.58,188.1,134.55,187.14,172.19,190.33,220.62,197.85,282.6Z"/><path class="cls-2" d="M233.24,387.79c4.71-.84,8.88-3.73,12.66-8.08"/><path class="cls-3" d="M233.42,388.76l-.35-1.94c4.26-.76,8.21-3.3,12.08-7.75l1.49,1.29C242.46,385.17,238.14,387.92,233.42,388.76Z"/><path class="cls-2" d="M320.79,359.41a14.36,14.36,0,0,0,11-4"/><path class="cls-3" d="M321.23,360.4h-.46l0-2c4.3,0,7.64-1.14,10.25-3.76l1.4,1.4A15.24,15.24,0,0,1,321.23,360.4Z"/><path class="cls-2" d="M281.24,172.66a21.85,21.85,0,0,1,11.28,8.28,4.69,4.69,0,0,0,2.91,1.91c14.83,3.13,40,16.93,63.7,24.37a5,5,0,0,0,1.88.2c14.89-1.28,28.94-1.42,41.33.71a5.25,5.25,0,0,1,1.55.52,23.42,23.42,0,0,1,10,9.43c-1,3-2.77,4.66-6,3.47-.49-.45-1-.86-1.47-1.24-4.78-3.72-10.59,3.42-6.11,7.5a60.47,60.47,0,0,0,14.38,10.07,5,5,0,0,1,2.75,4.22c.14,2.19-.31,3.91-1.73,4.86a4.83,4.83,0,0,0-2.28,3.34,6.15,6.15,0,0,1-4.68,5.7,4.9,4.9,0,0,1-3.14-.14c-16.63-6.42-33.33-11.06-44.46-23.87a5,5,0,0,0-3-1.66c-62.33-9.06-76.48-23.53-115.93-36.3"/><path class="cls-3" d="M407.46,256.52a5.41,5.41,0,0,1-1.9-.35c-2.5-1-5-1.9-7.47-2.81-14.2-5.24-27.6-10.2-37.12-21.15a4.57,4.57,0,0,0-2.8-1.55c-42.12-6.13-62-14.61-83.06-23.59-9.89-4.22-20.13-8.58-32.92-12.72a.33.33,0,1,1,.2-.63c12.83,4.15,23.07,8.52,33,12.75,21,9,40.86,17.42,82.9,23.53a5.25,5.25,0,0,1,3.19,1.78c9.41,10.82,22.74,15.75,36.85,21,2.45.9,5,1.84,7.49,2.81a4.6,4.6,0,0,0,2.93.12,5.85,5.85,0,0,0,4.45-5.42,5.11,5.11,0,0,1,2.42-3.58c1.21-.81,1.72-2.3,1.58-4.56a4.62,4.62,0,0,0-2.56-3.94,61.15,61.15,0,0,1-14.46-10.12,5,5,0,0,1-.39-7.21,4.86,4.86,0,0,1,6.92-.8c.48.38,1,.78,1.44,1.21a3.84,3.84,0,0,0,3.08.07,5.16,5.16,0,0,0,2.35-3.21,23.13,23.13,0,0,0-9.82-9.18,5.07,5.07,0,0,0-1.45-.49c-11.12-1.91-24.61-2.14-41.25-.7a5.41,5.41,0,0,1-2-.22c-11.35-3.56-23.26-8.68-33.77-13.2-11.42-4.9-22.2-9.53-29.9-11.16a5,5,0,0,1-3.11-2A21.37,21.37,0,0,0,281.13,173a.33.33,0,1,1,.22-.62,22.21,22.21,0,0,1,11.44,8.41,4.41,4.41,0,0,0,2.71,1.77c7.76,1.64,18.07,6.07,30,11.2,10.49,4.51,22.39,9.62,33.71,13.17a4.3,4.3,0,0,0,1.75.19c16.69-1.44,30.24-1.2,41.42.72a5.29,5.29,0,0,1,1.64.55,23.76,23.76,0,0,1,10.17,9.57.33.33,0,0,1,0,.26c-.66,1.95-1.55,3.17-2.73,3.73a4.62,4.62,0,0,1-3.66-.07.21.21,0,0,1-.1-.06c-.48-.43-1-.84-1.45-1.22a4.17,4.17,0,0,0-6,.7,4.4,4.4,0,0,0,.32,6.3,60.15,60.15,0,0,0,14.31,10,5.32,5.32,0,0,1,2.93,4.5c.16,2.51-.46,4.19-1.87,5.15a4.59,4.59,0,0,0-2.14,3.11,6.44,6.44,0,0,1-4.91,6A5.21,5.21,0,0,1,407.46,256.52Z"/><line class="cls-2" x1="393.72" y1="234.63" x2="413.54" y2="247.72"/><rect class="cls-3" x="403.3" y="229.3" width="0.66" height="23.75" transform="translate(-20.02 445.14) rotate(-56.57)"/><line class="cls-2" x1="392.37" y1="241.94" x2="412.28" y2="253.7"/><rect class="cls-3" x="402" y="236.26" width="0.66" height="23.12" transform="translate(-15.64 468.24) rotate(-59.44)"/><path class="cls-2" d="M380.63,241.17a3.51,3.51,0,0,1,2.89-3.65"/><path class="cls-3" d="M381,241.18l-.65,0a3.8,3.8,0,0,1,3.13-4l.16.64A3.18,3.18,0,0,0,381,241.18Z"/><path class="cls-2" d="M384.19,235.4a3.5,3.5,0,0,1,2.89-3.65"/><path class="cls-3" d="M384.52,235.41l-.66,0a3.81,3.81,0,0,1,3.14-4l.16.64A3.18,3.18,0,0,0,384.52,235.41Z"/><path class="cls-2" d="M471.93,101.28a3.51,3.51,0,0,1,2.89-3.66"/><path class="cls-3" d="M472.26,101.29l-.65,0a3.82,3.82,0,0,1,3.13-4l.16.64A3.18,3.18,0,0,0,472.26,101.29Z"/><path class="cls-2" d="M475.49,95.5a3.51,3.51,0,0,1,2.89-3.65"/><path class="cls-3" d="M475.82,95.51l-.65,0a3.8,3.8,0,0,1,3.13-4l.16.64A3.18,3.18,0,0,0,475.82,95.51Z"/><path class="cls-2" d="M453.83,98.26A3.49,3.49,0,0,1,455.75,94"/><path class="cls-3" d="M453.5,98.33a3.84,3.84,0,0,1,2.1-4.61l.3.59a3.17,3.17,0,0,0-1.75,3.88Z"/><path class="cls-2" d="M455.89,91.8a3.51,3.51,0,0,1,1.92-4.24"/><path class="cls-3" d="M455.57,91.87a3.83,3.83,0,0,1,2.09-4.61l.31.59a3.18,3.18,0,0,0-1.76,3.88Z"/><path class="cls-2" d="M233.05,88.68c11.37,18.94,25.31,31.81,43.29,35.12,13.47-8.86,12.11-22,3.21-37.27"/><path class="cls-3" d="M233.05,88.69c5.35,7.94,11.25,15.56,18.49,21.7a57.26,57.26,0,0,0,11.68,7.93,52.65,52.65,0,0,0,13.29,4.56l-.68.14A23.22,23.22,0,0,0,283,116a18.58,18.58,0,0,0,2.61-9.64,32.42,32.42,0,0,0-1.9-10.15,71.31,71.31,0,0,0-4.19-9.64,58.47,58.47,0,0,1,5,9.35A30.85,30.85,0,0,1,287,106.29a18.91,18.91,0,0,1-2.49,10.55,25.08,25.08,0,0,1-7.64,7.74l-.3.2-.38-.06A46.79,46.79,0,0,1,262.37,120a58.76,58.76,0,0,1-11.93-8.35A87.41,87.41,0,0,1,233.05,88.69Z"/><path class="cls-2" d="M273.66,14.89q1.54,5.3-3.09,10.59"/><path class="cls-3" d="M270.82,25.69l-.49-.43c3-3.42,4-6.88,3-10.27l.63-.19C275,18.43,274,22.09,270.82,25.69Z"/><path class="cls-2" d="M229.4,46.26c2,8.51,4.38,16.24,9.52,18.13,17.4-11,34.57-18.19,51.47-20.63a34.94,34.94,0,0,0,0-13.67L258.64,22Z"/><path class="cls-3" d="M239,64.75l-.16,0c-5.44-2-7.79-10.17-9.72-18.37l-.05-.2,29.53-24.48,32.11,8.18,0,.2a35.16,35.16,0,0,1,0,13.79l0,.23-.23,0c-16.18,2.34-33.45,9.26-51.35,20.58Zm-9.2-18.37c1.79,7.54,4.13,15.67,9.12,17.64C256.72,52.75,274,45.84,290.11,43.46a34.76,34.76,0,0,0,0-13.1l-31.39-8Z"/><path class="cls-2" d="M261,43.2c8-4,15.35-7.16,21.36-8.08"/><path class="cls-3" d="M261,43.2a42,42,0,0,1,10-5.72,27.89,27.89,0,0,1,11.33-2.36c-3.63,1.37-7.08,2.75-10.59,4.19A103.28,103.28,0,0,1,261,43.2Z"/><path class="cls-2" d="M272.79,89.26c7.5,0,12.76-2.78,17.6-7.21,5.18-4.9,6.67-13.08,5-24-.36-6.4-3.35-12.9-7.12-19.44L251,52.13l-10.68,6.35c5.67,5.84,11.35,11.67,11.83,16.74,3.32,5,6.64,10,12,11.85"/><path class="cls-3" d="M272.79,89.92a.66.66,0,1,1,0-1.32c6.64,0,11.77-2.1,17.16-7,4.84-4.58,6.46-12.48,4.79-23.47-.38-6.66-3.76-13.45-6.76-18.72L251.17,52.74l-9.85,5.87c5.42,5.59,10.83,11.31,11.42,16.37v0c3.18,4.77,6.47,9.71,11.54,11.45a.65.65,0,0,1,.41.83.64.64,0,0,1-.83.41c-5.5-1.88-8.91-7-12.22-12l-.1-.15a.67.67,0,0,1-.1-.3C251,70.45,245.31,64.61,239.82,59a.66.66,0,0,1-.19-.55.64.64,0,0,1,.3-.49l10.68-6.35,37.44-13.62a.66.66,0,0,1,.79.29c3.15,5.46,6.81,12.64,7.21,19.73,1.73,11.37,0,19.66-5.21,24.56C285.26,87.64,279.69,89.92,272.79,89.92Z"/><path class="cls-2" d="M189.18,53.57c-2.86,4.08-3.39,11.28-1.9,15.78,10.56-3.87,23.63-4.95,37.19-8.29l3.77-3.84C214.94,52.89,201.86,51,189.18,53.57Z"/><path class="cls-3" d="M187.07,69.77l-.1-.32c-1.44-4.34-1.11-11.72,1.94-16.07l.08-.11.13,0c11.55-2.38,24.39-1.17,39.22,3.66l.51.17-4.21,4.27-.09,0c-5.46,1.35-10.81,2.33-16,3.27-7.65,1.4-14.88,2.71-21.17,5Zm2.31-15.91c-2.79,4.09-3.15,10.87-1.89,15.06,6.27-2.25,13.4-3.55,20.95-4.93,5.14-.93,10.46-1.9,15.86-3.23l3.33-3.39C213.17,52.73,200.65,51.58,189.38,53.86Z"/><path class="cls-2" d="M200.58,76.05c3,5.89,7.92,10,13.71,13.21,2.31-9,8.79-17.75,17.75-26.41l-2.64-7.93A171,171,0,0,0,200.58,76.05Z"/><path class="cls-3" d="M214.5,89.75l-.37-.2c-6.56-3.65-11.09-8-13.84-13.35l-.12-.23.19-.17a173,173,0,0,1,28.87-21.17l.35-.2,2.84,8.51-.15.15c-9.77,9.43-15.54,18-17.66,26.25ZM201,76.12c2.65,5,6.94,9.16,13.09,12.65,2.22-8.19,8-16.7,17.58-26l-2.45-7.36A172,172,0,0,0,201,76.12Z"/><path class="cls-2" d="M198.56,56.36a80,80,0,0,1,19.19,0"/><path class="cls-3" d="M198.56,56.36a25.3,25.3,0,0,1,19.19,0,51.72,51.72,0,0,1-9.59.74A52.7,52.7,0,0,1,198.56,56.36Z"/><path class="cls-2" d="M191.92,64.57a203.35,203.35,0,0,1,25.55-6.12"/><path class="cls-3" d="M191.92,64.57a80.39,80.39,0,0,1,25.55-6.12c-4.23,1.25-8.48,2.25-12.72,3.29S196.25,63.77,191.92,64.57Z"/><path class="cls-2" d="M210.72,84.35a203.2,203.2,0,0,1,16-20.87"/><path class="cls-3" d="M210.72,84.35a75.31,75.31,0,0,1,7.13-11.09,74.52,74.52,0,0,1,8.84-9.78c-2.49,3.64-5.16,7.09-7.8,10.57S213.58,81,210.72,84.35Z"/><path class="cls-2" d="M209.31,75.13a35.43,35.43,0,0,1,14-10.72"/><path class="cls-3" d="M209.31,75.13a15.48,15.48,0,0,1,5.53-7.29,16.42,16.42,0,0,1,8.47-3.43c-2.3,2.14-4.61,3.77-6.89,5.53S211.92,73.4,209.31,75.13Z"/><path class="cls-2" d="M274.05,55.59a7.48,7.48,0,0,0,4.12,3.83,2.66,2.66,0,0,0,.79.12,10.55,10.55,0,0,0,7.36-2.68,2.14,2.14,0,0,0,.64-2c-.51-2.92-3.52-5.52-6.42-9.23"/><path class="cls-3" d="M279,59.87a2.62,2.62,0,0,1-.93-.14,7.73,7.73,0,0,1-4.31-4l.58-.32a7.1,7.1,0,0,0,3.94,3.67,2.09,2.09,0,0,0,.72.11,10.28,10.28,0,0,0,7.1-2.59,1.83,1.83,0,0,0,.54-1.66c-.35-2-2-4-4-6.2-.78-.91-1.58-1.84-2.39-2.88l.51-.4c.8,1,1.61,2,2.38,2.85,2,2.32,3.73,4.33,4.12,6.52a2.45,2.45,0,0,1-.75,2.25A10.9,10.9,0,0,1,279,59.87Z"/><path class="cls-2" d="M271.63,72.49c6.09-4.07,12.55-6,19.43-5.3"/><path class="cls-3" d="M271.63,73.48a1,1,0,0,1-.82-.44,1,1,0,0,1,.27-1.36c6.45-4.32,13.21-6.17,20.08-5.47a1,1,0,0,1,.89,1.08,1,1,0,0,1-1.08.88c-6.42-.66-12.74,1.09-18.79,5.14A.94.94,0,0,1,271.63,73.48Z"/><path class="cls-2" d="M278.17,76.75a8.85,8.85,0,0,0,8.87-2.4"/><path class="cls-3" d="M280.74,77.71A12.46,12.46,0,0,1,278,77.4a.66.66,0,0,1-.5-.79.66.66,0,0,1,.79-.5c3.37.75,6.07,0,8.25-2.22a.66.66,0,0,1,.93,0,.65.65,0,0,1,0,.93A9.11,9.11,0,0,1,280.74,77.71Z"/><path class="cls-2" d="M236.71,62.81c-11.7,10-20.59-13.47-17.32-31.18C226,8.12,241.53-2.2,266.15,1c12.27,3.89,20.53,13.33,24.24,29.05-5.29.88-12.26-1.32-19.82-4.61-8.88,11.93-19.16,21.27-31.94,26Z"/><path class="cls-3" d="M236.82,62.87a9.08,9.08,0,0,1-5.07,2.68,7.47,7.47,0,0,1-5.57-1.74c-3.07-2.56-4.81-6.16-6.12-9.72a43.41,43.41,0,0,1-2.3-11.21,45.43,45.43,0,0,1,.47-11.46v-.06l0-.05a53.75,53.75,0,0,1,6.41-14.43,36.21,36.21,0,0,1,11.18-11.1A38.4,38.4,0,0,1,250.59.57,63.44,63.44,0,0,1,266.23.4h0l.07,0a35.4,35.4,0,0,1,9.23,4.19,31.76,31.76,0,0,1,7.55,6.85c4.35,5.32,6.91,11.81,8.56,18.33l.35,1.39-1.42.22a24.81,24.81,0,0,1-10.76-1A79.54,79.54,0,0,1,270,26.71l1.62-.43a86,86,0,0,1-14.46,15.39A57.77,57.77,0,0,1,238.84,52l.38-.47Zm-.23-.13L238,51.35l0-.32.34-.14A61.09,61.09,0,0,0,255.76,40a100.91,100.91,0,0,0,13.73-15.3l.64-.85,1,.42a76.71,76.71,0,0,0,9.49,3.47c3.2.86,6.49,1.53,9.58,1.08L289.1,30.4a46.28,46.28,0,0,0-7.69-17.6A32.15,32.15,0,0,0,266,1.66l.11,0a53,53,0,0,0-15.35-.28,34,34,0,0,0-14.27,5.28A34.87,34.87,0,0,0,226.31,17.9,60.82,60.82,0,0,0,220.52,32l0-.1a47,47,0,0,0,1.24,21.66c1.06,3.46,2.58,6.94,5.19,9.35a6.41,6.41,0,0,0,4.7,1.9A9.23,9.23,0,0,0,236.59,62.74Z"/><path class="cls-2" d="M208.3,179.24c-3.61-3.32-5.13-7.06-6.42-12.05A189.25,189.25,0,0,0,242.29,194c12.56-10.69,27-17.66,42.42-22.51-12.86-7.5-22-16.33-28-26.27"/><path class="cls-3" d="M242.29,195a1,1,0,0,1-.44-.1,190.27,190.27,0,0,1-38.1-24.82,18.9,18.9,0,0,0,5.22,8.41,1,1,0,1,1-1.34,1.46c-3.78-3.49-5.37-7.38-6.7-12.53a1,1,0,0,1,1.6-1,186.85,186.85,0,0,0,39.62,26.41c11-9.28,24.22-16.36,40.19-21.61-11.65-7.12-20.55-15.68-26.47-25.48a1,1,0,1,1,1.69-1c6.07,10,15.37,18.76,27.65,25.92a1,1,0,0,1,.48,1,1,1,0,0,1-.68.83c-16.9,5.31-30.67,12.61-42.08,22.32A1,1,0,0,1,242.29,195Z"/></g></g></svg>