<svg xmlns="http://www.w3.org/2000/svg" viewBox="0 0 90.77 78.04"><defs><style>.cls-1{fill:#5fbe7d;}</style></defs><title>Asset 3</title><g id="Layer_2" data-name="Layer 2"><g id="Layer_2-2" data-name="Layer 2"><path class="cls-1" d="M58.67,54,52.76,20.51a.71.71,0,0,0-1.4.25l5.92,33.52a.7.7,0,0,0,.69.59h.13A.71.71,0,0,0,58.67,54Z"/><path class="cls-1" d="M62.2,57.74,54.82,15.83a.7.7,0,0,0-.82-.57l-2.8.49h0a.7.7,0,0,0-.28.12.73.73,0,0,0-.18.17.75.75,0,0,0-.12.39.71.71,0,0,0,0,.14h0c1.12,6.35-18,13.18-25.43,15.29L14.76,33.7h0a.71.71,0,0,0-.82-.58l-2.8.49a.71.71,0,0,0-.57.82h0l-.7.12h0l-.07,0-.08,0h0L.4,39.14A.7.7,0,0,0,0,39.9l2.46,14a.72.72,0,0,0,.63.58l10.27,1.07h.22l15.27-2.69c11,.26,28.51,2,29.16,5.67a.7.7,0,0,0,.69.58h.13l2.79-.49a.82.82,0,0,0,.37-.19l.09-.11a.67.67,0,0,0,.11-.52ZM1.5,40.18l8-3.87,2,11.58L12.58,54l-8.8-.92ZM28.82,51.39h-.14L14,54,10.81,35.83l14.67-2.59h.07a115.1,115.1,0,0,0,13.63-4.94c8.64-3.85,13-7.63,12.91-11.26l1.45-.26,7.14,40.51-1.51.27C56.44,52.3,33.55,51.5,28.82,51.39Z"/><path class="cls-1" d="M26.55,35.22a.71.71,0,1,0-1.4.24l2.47,14a.7.7,0,0,0,.69.59h.13a.71.71,0,0,0,.57-.82Z"/><path class="cls-1" d="M8.28,40.56a.71.71,0,1,0-.68-1.24L3.66,41.45A.71.71,0,0,0,4,42.78a.64.64,0,0,0,.33-.08Z"/><path class="cls-1" d="M10,50.41l-4.43-.66a.73.73,0,0,0-.81.6.71.71,0,0,0,.6.81l4.43.65h.11a.7.7,0,0,0,.7-.6A.71.71,0,0,0,10,50.41Z"/><path class="cls-1" d="M9.05,46.23a.72.72,0,0,0,.57-.83.71.71,0,0,0-.82-.57l-4.19.74A.71.71,0,0,0,4.73,47h.13Z"/><path class="cls-1" d="M35.66,74.66l-.85.15L27.89,59.29a.7.7,0,0,0-.93-.36.71.71,0,0,0-.36.94l6.77,15.19-6.94,1.23L19.51,60.77a.71.71,0,1,0-1.29.58L25,76.54l-.5.09a.7.7,0,0,0-.58.82.72.72,0,0,0,.7.59l.12,0,1.42-.25h0l8.37-1.47h0l1.37-.24a.71.71,0,0,0-.25-1.39Z"/><path class="cls-1" d="M29.94,56.93h0l.09-.07.08-.1h0a.82.82,0,0,0,.13-.35v-.07a.37.37,0,0,0,0-.11h0L30,54.82a.72.72,0,0,0-.83-.58.71.71,0,0,0-.57.82l.12.7L16.15,57.94,16,57.06a.71.71,0,0,0-1.4.25l.28,1.56h0v0a.36.36,0,0,0,0,.1l0,.07,0,0s0,.06.06.09h0a.67.67,0,0,0,.41.24h.25l14-2.41A.81.81,0,0,0,29.94,56.93Z"/><path class="cls-1" d="M64.53,10a.71.71,0,1,0,0-1.41h0a.71.71,0,1,0,0,1.41Z"/><path class="cls-1" d="M68.79,10a.71.71,0,1,0,0-1.41h0a.7.7,0,0,0-.7.71A.71.71,0,0,0,68.79,10Z"/><path class="cls-1" d="M75.84,51.09a9.22,9.22,0,1,0,9.22,9.22A9.22,9.22,0,0,0,75.84,51.09Zm0,17a7.8,7.8,0,1,1,7.8-7.8A7.8,7.8,0,0,1,75.84,68.11Z"/><path class="cls-1" d="M66.62,18.46a7.09,7.09,0,1,0-7.09-7.09A7.1,7.1,0,0,0,66.62,18.46Zm0-12.76a5.68,5.68,0,1,1-5.68,5.67A5.67,5.67,0,0,1,66.62,5.7Z"/><path class="cls-1" d="M78,21.3A12.77,12.77,0,1,0,90.77,34.07,12.79,12.79,0,0,0,78,21.3Zm0,24.11A11.35,11.35,0,1,1,89.36,34.07,11.36,11.36,0,0,1,78,45.41Z"/><path class="cls-1" d="M77.73,56.52a3,3,0,0,0-1.89.66,3.07,3.07,0,0,0-5,2.42c0,3.72,4.49,5.76,4.68,5.84a.59.59,0,0,0,.29.07.55.55,0,0,0,.28-.07c.2-.08,4.68-2.12,4.68-5.84A3.08,3.08,0,0,0,77.73,56.52ZM75.84,64c-.9-.47-3.55-2.06-3.55-4.41a1.65,1.65,0,0,1,3-1,.69.69,0,0,0,.57.28h0a.73.73,0,0,0,.57-.29,1.63,1.63,0,0,1,1.32-.67,1.65,1.65,0,0,1,1.65,1.66C79.38,61.94,76.73,63.54,75.84,64Z"/><path class="cls-1" d="M83,31.23h-.71V27.68a.71.71,0,0,0-.71-.71H80.14a.72.72,0,0,0-.66.45,12.39,12.39,0,0,1-2.64,4,6.34,6.34,0,0,1-1.67,1.05v-.51a.71.71,0,0,0-.71-.71H70.21a.71.71,0,0,0-.71.71V39a.71.71,0,0,0,.71.71h4.25a.71.71,0,0,0,.71-.71v-.71h.42l1.21,1.21a.71.71,0,0,0,.5.21H83a.71.71,0,0,0,.5-.21c1.71-1.7,1.71-6.39,0-8.09A.67.67,0,0,0,83,31.23Zm-9.22,7.09H70.92V32.65h2.83Z"/><path class="cls-1" d="M66.62,15.63c2.24,0,2.83-1.39,2.83-2.13a.7.7,0,0,0-.68-.7.78.78,0,0,0-.73.68c0,.12-.12.73-1.42.73s-1.41-.6-1.42-.73a.71.71,0,0,0-1.42,0C63.78,14.24,64.37,15.63,66.62,15.63Z"/><path class="cls-1" d="M83,6.38h1.42V7.8a.71.71,0,1,0,1.42,0V6.38h1.42a.71.71,0,1,0,0-1.42H85.81V3.55a.71.71,0,1,0-1.42,0V5H83a.71.71,0,0,0,0,1.42Z"/><path class="cls-1" d="M90.77,5.67a5.67,5.67,0,0,0-11.34,0h0V8.51h0a5.67,5.67,0,0,0,11.34,0h0V5.67ZM85.1,1.42a4.26,4.26,0,1,1-4.25,4.25A4.26,4.26,0,0,1,85.1,1.42Zm0,11.35A4.27,4.27,0,0,1,81,9.57a5.65,5.65,0,0,0,8.24,0A4.27,4.27,0,0,1,85.1,12.77Z"/><path class="cls-1" d="M82.65,38.32H77.59l-1.21-1.21a.71.71,0,0,0-.5-.21h-.71V34a7.07,7.07,0,0,0,2.59-1.47,12.59,12.59,0,0,0,2.84-4.09h.25v3.55a.7.7,0,0,0,.7.71h1.1A6.29,6.29,0,0,1,82.65,38.32Z"/><path class="cls-1" d="M75.84,64c-.9-.47-3.55-2.06-3.55-4.41a1.65,1.65,0,0,1,3-1,.69.69,0,0,0,.57.28h0a.73.73,0,0,0,.57-.29,1.63,1.63,0,0,1,1.32-.67,1.65,1.65,0,0,1,1.65,1.66C79.38,61.94,76.73,63.54,75.84,64Z"/></g></g></svg>