<svg xmlns="http://www.w3.org/2000/svg" viewBox="0 0 60.24 60.24"><defs><style>.cls-1{fill:#ee4978;}</style></defs><title>Asset 2</title><g id="Layer_2" data-name="Layer 2"><g id="Layer_2-2" data-name="Layer 2"><path class="cls-1" d="M44.13,16.7a1.16,1.16,0,1,0,.35.83A1.17,1.17,0,0,0,44.13,16.7Z"/><path class="cls-1" d="M17.65,33.18H8.24a1.18,1.18,0,0,0-1.18,1.18v9.41A1.18,1.18,0,0,0,8.24,45h9.41a1.18,1.18,0,0,0,1.18-1.18V34.36A1.18,1.18,0,0,0,17.65,33.18Zm-1.18,9.41H9.41V35.53h7.06Z"/><path class="cls-1" d="M59.52,24.68a1.19,1.19,0,0,0-1.29.26l-12,12h0l-14,14h0l-7.33,7.33a1.19,1.19,0,0,0-.26,1.29,1.17,1.17,0,0,0,1.09.72h33.3a1.17,1.17,0,0,0,1.17-1.17V25.77A1.17,1.17,0,0,0,59.52,24.68ZM57.89,57.89H28.61L33.1,53.4l1.12,1.12a1.18,1.18,0,0,0,1.67-1.66l-1.13-1.12,3-3,1.12,1.12a1.18,1.18,0,0,0,.83.35,1.18,1.18,0,0,0,.84-2l-1.13-1.12,3-3,1.12,1.12a1.17,1.17,0,1,0,1.66-1.66l-1.12-1.12,3-3,1.12,1.13a1.18,1.18,0,0,0,1.66,0,1.18,1.18,0,0,0,0-1.67l-1.12-1.12,3-3,1.12,1.13a1.18,1.18,0,0,0,1.66,0,1.18,1.18,0,0,0,0-1.67L53.4,33.1l4.49-4.49Z"/><path class="cls-1" d="M53.63,38.88a1.17,1.17,0,0,0-1.28.26L39.14,52.35a1.17,1.17,0,0,0-.26,1.28,1.2,1.2,0,0,0,1.09.73H53.18a1.18,1.18,0,0,0,1.18-1.18V40A1.2,1.2,0,0,0,53.63,38.88ZM52,52h-9.2l9.2-9.2Z"/><path class="cls-1" d="M54.48,17.56a1.17,1.17,0,0,0-1.23-.27l-8,2.94a1.17,1.17,0,0,0-.42.27l-2.26,2.26L27.78,8a1.2,1.2,0,0,0-1.67,0L8.36,25.77H4L26.94,2.84,39.53,15.42a1.17,1.17,0,0,0,1.66-1.66L27.78.34a1.2,1.2,0,0,0-1.67,0L.34,26.11a1.19,1.19,0,0,0-.25,1.28,1.18,1.18,0,0,0,1.09.73H2.35v31a1.17,1.17,0,0,0,1.18,1.17H22.24a1.18,1.18,0,0,0,0-2.35H4.71V28.12H8.84a1.18,1.18,0,0,0,.84-.34L26.94,10.51,40.86,24.43,23.41,41.88V31.3h8.24a1.18,1.18,0,1,0,0-2.35H22.24a1.17,1.17,0,0,0-1.18,1.17V43.77a1.23,1.23,0,0,0,.07.39l-1.05,1.06A4.77,4.77,0,1,0,26.83,52l9.92-9.92a1.18,1.18,0,0,0-1.66-1.67L27.57,47.9l-3.43-3.43L45.64,23l3.43,3.42-8.21,8.22a1.17,1.17,0,1,0,1.66,1.66l9-9a1.23,1.23,0,0,0,.28-.43l2.94-8A1.17,1.17,0,0,0,54.48,17.56Zm-28.57,32-.74.74a2.43,2.43,0,0,1-3.43-3.43l.74-.74ZM50.25,24.26l-2.46-2.47,3.89-1.42Z"/><path class="cls-1" d="M39.62,37.52a1.2,1.2,0,0,0-.84-.34,1.17,1.17,0,0,0-.83.34,1.2,1.2,0,0,0,0,1.67,1.17,1.17,0,0,0,.83.34,1.2,1.2,0,0,0,.84-.34,1.2,1.2,0,0,0,0-1.67Z"/><path class="cls-1" d="M26.94,17.77a4.47,4.47,0,1,0,4.48,4.47A4.47,4.47,0,0,0,26.94,17.77Zm0,6.59a2.12,2.12,0,1,1,2.12-2.12A2.12,2.12,0,0,1,26.94,24.36Z"/></g></g></svg>