<svg xmlns="http://www.w3.org/2000/svg" viewBox="0 0 70.65 54.31"><defs><style>.cls-1{fill:#ffc713;}</style></defs><title>Asset 4</title><g id="Layer_2" data-name="Layer 2"><g id="Layer_2-2" data-name="Layer 2"><path class="cls-1" d="M69.64,0H1A1,1,0,0,0,0,1V43.5a1,1,0,0,0,1,1h4.9a1,1,0,0,0,0-2H2V8.55H9.18a1,1,0,0,0,0-2H2V2H68.64V6.54H23.89a1,1,0,1,0,0,2H68.64V42.49h-48a1,1,0,1,0,0,2h5.14l-2.6,7.8h-14a1,1,0,1,0,0,2H61.47a1,1,0,1,0,0-2h-14l-2.6-7.8H69.64a1,1,0,0,0,1-1V1A1,1,0,0,0,69.64,0ZM45.37,52.3H25.28l2.6-7.8H42.77Z"/><path class="cls-1" d="M17.35,8.55a1,1,0,0,0,0-2H15.71a1,1,0,0,0,0,2Z"/><path class="cls-1" d="M55.78,15.09,37,33.9,29.5,26.44a1,1,0,0,0-.71-.29,1,1,0,0,0-.71.29L11.73,42.78a1,1,0,0,0,0,1.43h0a1,1,0,0,0,1.42,0L28.79,28.58,36.25,36a1,1,0,0,0,1.42,0L57.2,16.51v5.74a1,1,0,1,0,2,0V14.08a1,1,0,0,0-1-1H50a1,1,0,0,0,0,2Z"/></g></g></svg>