<svg xmlns="http://www.w3.org/2000/svg" xmlns:xlink="http://www.w3.org/1999/xlink" viewBox="0 0 663.46 553.02"><defs><style>.cls-1{fill:#ffc713;}.cls-2{fill:#43a1da;}.cls-3{fill:url(#linear-gradient);}.cls-4{fill:#4d4a82;}.cls-5{fill:#010101;opacity:0.1;isolation:isolate;}.cls-6{fill:#f9b7b9;}.cls-7{fill:#454154;}.cls-8{fill:#af6f7a;}.cls-9{fill:#fff;}.cls-10{fill:#ee4978;}.cls-11{fill:#f2f2f2;}</style><linearGradient id="linear-gradient" x1="558.8" y1="10471.05" x2="558.8" y2="10780.71" gradientTransform="matrix(1, 0, 0, -1, -98.04, 11020.89)" gradientUnits="userSpaceOnUse"><stop offset="0" stop-color="#818181" stop-opacity="0.25"/><stop offset="0.54" stop-color="#818181" stop-opacity="0.12"/><stop offset="1" stop-color="#818181" stop-opacity="0.1"/></linearGradient></defs><title>Asset 1</title><g id="Layer_2" data-name="Layer 2"><g id="Layer_2-2" data-name="Layer 2"><ellipse class="cls-1" cx="575.9" cy="524.33" rx="15.37" ry="2.6"/><ellipse class="cls-1" cx="158.16" cy="531.99" rx="47.66" ry="8.05"/><ellipse class="cls-1" cx="47.73" cy="474.34" rx="26.87" ry="4.55"/><ellipse class="cls-1" cx="471.55" cy="546.34" rx="67.78" ry="6.68"/><path class="cls-2" d="M290.48,8.09c29.85-11.1,66.2-1.55,97.23,12.36C485.19,64.18,556.2,147.18,612.62,231.74c20.43,30.62,39.83,62.59,47.51,96.77,15.64,69.57-25.14,141.6-94.5,166.84-23.59,8.59-49.51,12.11-75.46,14.08-46.15,3.49-93.93,2.1-139.71-10.84-32.65-9.26-63.53-24.14-93.16-40.58C174.58,412.06,99,352.4,44.63,279.51c-23.85-32-44-68-44.62-104.89S23.47,100.67,63,94.4c16.35-2.59,33.65.11,50.52,2.88,24.85,4.1,50,8.4,74.58,6.61,25.38-1.85,58.38-11.77,63-36C256,41.89,260.67,19.17,290.48,8.09Z"/><path class="cls-2" d="M155.15,529.59s-4.06-67.33,43.12-59.39c0,0,8.37-1.58,12.12,6,0,0-3.5.11-2.31,6.91a30.85,30.85,0,0,1,.36,7.31,15.26,15.26,0,0,1-3.7,8.94h0s-7.81,18.93-38.75,26.29c0,0-6.74,5.45-8.49,5.23l4.86-11.36s8.2,3.88,15,.82c0,0-14.7-.36-14.37-2.55.07-.43,2.79-5.9,2.79-5.9s14.27,6.68,24.65,1.65c0,0-17.59,1.91-23.62-3.73l4.68-8s14.74,7.82,26.77,2.51c0,0-18.46,1.4-25.64-4.18l5.58-7.26s14.53,7.34,24.52,2.86c0,0-21.5-.57-23.11-4.42,0,0,5.58-6.35,7.89-7.31,0,0,10.55,5,16.12,1.91,0,0-14.32-1.91-14.39-3.49,0,0,9.49-6.3,16-7,0,0-9.67.28-16.89,5.45,0,0,1-6.11,5-9.68,0,0-6.71,1-7.29,11.23,0,0-7.19,5.22-7.63,6.63,0,0-.85-10.2,1.89-16.38,0,0-6.33,5.44-3.46,18.25L171,498.09s-1.84-13.44.2-19.12c0,0-5.58,6.55-1.52,21L165,507.8s-2.47-11.44-1.58-18.27c0,0-3.88,7.2.32,20.55l-2.5,5.58s-1.64-8.37-1.91-10.84-.93-2.58-.93-2.58A29,29,0,0,0,160.18,518S156,529.8,155.15,529.59Z"/><path class="cls-2" d="M155,530s2.66-44-28.2-38.84c0,0-5.48-1-7.93,3.91,0,0,2.29.08,1.51,4.52a19.62,19.62,0,0,0-.23,4.78,10,10,0,0,0,2.41,5.85h0s5.11,12.38,25.35,17.19c0,0,4.41,3.57,5.55,3.42l-3.18-7.43s-5.36,2.54-9.81.54c0,0,9.61-.24,9.39-1.67,0-.28-1.82-3.86-1.82-3.86s-9.33,4.37-16.12,1.08c0,0,11.5,1.25,15.44-2.44l-3.05-5.23s-9.65,5.1-17.51,1.64c0,0,12.07.91,16.77-2.74L139.92,506s-9.51,4.79-16,1.87c0,0,14.06-.38,15.12-2.9,0,0-3.65-4.15-5.17-4.78,0,0-6.89,3.29-10.54,1.25,0,0,9.37-1.25,9.41-2.28,0,0-6.2-4.12-10.45-4.56,0,0,6.32.18,11,3.57a12.46,12.46,0,0,0-3.27-6.34s4.39.65,4.77,7.35c0,0,4.7,3.41,5,4.33,0,0,.56-6.67-1.24-10.71,0,0,4.14,3.56,2.26,11.94l3.82,4.68s1.2-8.79-.13-12.5c0,0,3.65,4.28,1,13.76l3.05,5.09s1.62-7.48,1-11.95c0,0,2.54,4.71-.21,13.44l1.64,3.65s1.07-5.47,1.25-7.09.61-1.68.61-1.68a19.08,19.08,0,0,1-1.14,10.3S154.47,530.17,155,530Z"/><path class="cls-2" d="M46,473s-2.29-38,24.32-33.48a6.46,6.46,0,0,1,6.84,3.36s-2,.07-1.3,3.89a16.74,16.74,0,0,1,.19,4.12,8.38,8.38,0,0,1-2.08,5.05h0s-4.42,10.66-21.86,14.84c0,0-3.81,3.07-4.78,3l2.79-6.42s4.63,2.2,8.47.48c0,0-8.31-.21-8.11-1.4,0-.25,1.6-3.33,1.6-3.33s8.05,3.77,14,.92c0,0-9.92,1.09-13.33-2.09l2.64-4.51s8.37,4.4,15.09,1.4c0,0-10.4.76-14.45-2.36l3.18-4.09s8.19,4.19,13.83,1.61c0,0-12.13-.33-13-2.5,0,0,3.15-3.57,4.45-4.12,0,0,5.94,2.79,9.08,1.08,0,0-8.06-1.08-8.11-2,0,0,5.35-3.56,9-3.92a19.57,19.57,0,0,0-9.53,3.07,10.61,10.61,0,0,1,2.79-5.46s-3.78.55-4.12,6.34c0,0-4.06,2.94-4.29,3.72,0,0-.49-5.75,1.06-9.23,0,0-3.58,3.07-2,10.29l-3.29,4s-1-7.57.11-10.78c0,0-3.15,3.7-.85,11.87l-2.64,4.38a39.87,39.87,0,0,1-.87-10.28s-2.2,4.05.18,11.58l-1.4,3.14s-.93-4.73-1.07-6.11S48,457.6,48,457.6a16.37,16.37,0,0,0,1,8.89S46.43,473.1,46,473Z"/><path class="cls-2" d="M45.89,473.3s1.36-22.47-14.39-19.82a3.82,3.82,0,0,0-4,2s1.16,0,.77,2.3a10,10,0,0,0-.12,2.44,5,5,0,0,0,1.23,3h0S32,469.51,42.28,472c0,0,2.25,1.82,2.83,1.75l-1.65-3.79s-2.74,1.29-5,.28c0,0,4.91-.13,4.79-.83,0-.15-1-2-1-2s-4.76,2.23-8.25.54c0,0,5.87.65,7.88-1.24l-1.56-2.66s-5,2.6-8.93.82c0,0,6.16.46,8.55-1.39l-1.88-2.42s-4.85,2.48-8.18.95c0,0,7.17-.19,7.71-1.48A15.24,15.24,0,0,0,35,458.1s-3.52,1.66-5.38.64c0,0,4.77-.64,4.8-1.16,0,0-3.16-2.11-5.34-2.32a11.54,11.54,0,0,1,5.64,1.81,6.3,6.3,0,0,0-1.65-3.23s2.24.33,2.44,3.75a14.31,14.31,0,0,1,2.54,2.21,13.78,13.78,0,0,0-.63-5.47s2.12,1.82,1.16,6.09l2,2.39s.61-4.48-.07-6.38c0,0,1.87,2.19.5,7l1.56,2.6a23.54,23.54,0,0,0,.53-6.09s1.29,2.4-.11,6.85l.82,1.86s.56-2.8.64-3.61.31-.87.31-.87a9.76,9.76,0,0,1-.58,5.26S45.62,473.36,45.89,473.3Z"/><path class="cls-2" d="M576.5,523.55s-1.32-21.71,13.88-19.16a3.72,3.72,0,0,1,3.91,1.93s-1.13,0-.74,2.22a9.81,9.81,0,0,1,.11,2.36,4.85,4.85,0,0,1-1.19,2.88h0s-2.52,6.11-12.5,8.48c0,0-2.17,1.76-2.73,1.69l1.56-3.66s2.64,1.25,4.85.26c0,0-4.75-.12-4.63-.82,0-.14.91-1.9.91-1.9s4.63,2.15,7.93.53c0,0-5.67.61-7.61-1.21l1.5-2.57s4.76,2.51,8.64.8c0,0-5.95.45-8.27-1.32l1.82-2.34s4.69,2.37,7.93.93c0,0-6.92-.2-7.45-1.44a14.18,14.18,0,0,1,2.54-2.35s3.41,1.62,5.2.61c0,0-4.62-.61-4.62-1.12,0,0,3.06-2,5.15-2.25a11.22,11.22,0,0,0-5.44,1.75,6.1,6.1,0,0,1,1.61-3.11s-2.16.31-2.35,3.62a14.13,14.13,0,0,0-2.46,2.13,13.32,13.32,0,0,1,.61-5.29s-2,1.76-1.11,5.89l-1.89,2.31s-.59-4.33.06-6.17c0,0-1.8,2.12-.49,6.79l-1.5,2.51a23.08,23.08,0,0,1-.51-5.89s-1.24,2.32.11,6.61l-.81,1.8s-.53-2.7-.61-3.5-.3-.83-.3-.83a9.29,9.29,0,0,0,.56,5.08S576.75,523.62,576.5,523.55Z"/><path class="cls-2" d="M576.46,523.72s.75-12.33-7.89-10.88a2.12,2.12,0,0,0-2.22,1.1s.64,0,.43,1.26a5.46,5.46,0,0,0-.07,1.34,2.79,2.79,0,0,0,.68,1.64h0s1.43,3.46,7.1,4.81c0,0,1.23,1,1.55,1l-.89-2.08a3.73,3.73,0,0,1-2.75.15s2.69-.07,2.63-.47c0-.08-.52-1.08-.52-1.08s-2.63,1.23-4.51.3c0,0,3.22.35,4.33-.68l-.85-1.46s-2.71,1.43-4.91.45c0,0,3.38.26,4.7-.75l-1-1.32s-2.66,1.34-4.5.52c0,0,3.93-.11,4.23-.81a8,8,0,0,0-1.45-1.34s-1.93.92-3,.35c0,0,2.63-.35,2.63-.64a8.77,8.77,0,0,0-2.93-1.27,6.17,6.17,0,0,1,3.09,1,3.43,3.43,0,0,0-.91-1.77s1.22.18,1.33,2.06a7.86,7.86,0,0,1,1.4,1.21,7.53,7.53,0,0,0-.35-3s1.16,1,.64,3.35l1.06,1.31a10.82,10.82,0,0,0,0-3.5s1,1.2.28,3.85l.85,1.43a13.1,13.1,0,0,0,.29-3.35,5.13,5.13,0,0,1-.06,3.76l.46,1s.3-1.54.35-2,.17-.47.17-.47a5.35,5.35,0,0,1-.32,2.88A11.86,11.86,0,0,0,576.46,523.72Z"/><path class="cls-3" d="M539.32,344.74a47.73,47.73,0,0,1-.72-7.05c0-2.83-3.85-5.34-3.85-5.34s-2.38-5.51-4-6.32-6.48-8-6.48-8a6.61,6.61,0,0,0-1.47-3.89,55.69,55.69,0,0,1-4-6.05h0c-.66-.81-.33-1.37-1.32-6.07a6.68,6.68,0,0,0-.18-.71.84.84,0,0,0-.11-.3,7.94,7.94,0,0,0,1.87-8.22,3.26,3.26,0,0,0-.94-1.45c-1.11-.92-2.9-.54-4-1.4l1.22-5.41c.3-1.32.45-3-.71-3.71a5.87,5.87,0,0,0-1.36-.45c-2-.67-3.13-2.76-3.65-4.78a16.51,16.51,0,0,1-.4-5.94c.23-1.92.79-3.78,1-5.71a15.72,15.72,0,0,0-2.43-10.14,7.82,7.82,0,0,0-3.2-3c-1.23-.55-2.65-.66-3.79-1.32-2.46-1.57-2.33-5.29-4.3-7.43s-5.44-2.12-8.3-1.39-5.71,2-8.64,1.67c-1.89-.21-3.66-1.07-5.56-1.27a6,6,0,0,0-1.63.08V241a3.52,3.52,0,0,0-3,2.36,3.86,3.86,0,0,0-.09,1c0,.77.19,1.58.2,2.32a2.22,2.22,0,0,1-.54,1.63c-.37.41-.93.62-1.32,1a1.67,1.67,0,0,0-.48,1.22c0,1.18,1.47,2.21,2.45,2.69h0c-.26.26-.53.54-.77.83a17.38,17.38,0,0,0-4.38,11.55,17.67,17.67,0,0,0,10.74,16.12l-.14.43a24.28,24.28,0,0,1-1,2.49,5,5,0,0,0-4.15.47c-1.89,1.32-5.58,1.21-6.56,1s-11.24-1.54-12.07-1.22-2.45-1.13-3.52.82-1.56,3-2.64,3.48-3,2-2.71,2.34-2.71,2.27-2.71,2.27-2.54,2.65-4,3a23.54,23.54,0,0,0-4.6,2.35L427.46,302s-2.7.41-1.89-1.46-1.48-4.21-1.48-4.21-4.59-9.31-4.59-11.23S415.73,275,415.73,275l-.47,0-.21-.6c-.69-1.95-1.59-4.35-2.28-5.75-1.32-2.67-2.13-2.95-2.13-2.95s-15.92-12-26.25-8.31,18.87,14.49,21.49,15.63c.92.4,1.58,1.68,2,3.18a13.59,13.59,0,0,0-5.65,5.08s6.32,14,6.48,17.49,4.35,13.22,4.35,13.22,1.56,7.21,10,6.8c0,0,11.65,2.14,14.2,0s4.83-3.82,6.07-4.07a4.74,4.74,0,0,0,2.29-1.62s-3.85,24.29-5.74,26.4-18.59,29.38-12.6,34.25a120.61,120.61,0,0,0,15,9.92c.51.25,2-2.3,4.22-4.1v1.41c0,9.7,1.32,24.45,3.09,27.76,2.64,4.85,1.56,14.24,1.56,14.24a11.19,11.19,0,0,0,4.44,1.07c.07.32.17.66.25,1,1.45,5.47,3.8,13.92,5,16.17,1.81,3.4,3.12,14.17,3.12,14.17s1.07,10.58.66,12.06c-.16.56.53,5,1.62,10.58h0c-.66,7.59-1.91,22.23-2.13,27.52h0v.39a.54.54,0,0,1,0,.18v.32h0a5.58,5.58,0,0,0,0,1,3.05,3.05,0,0,1-.11,1.5,26,26,0,0,1-1.78,4.25,21.15,21.15,0,0,0-.79,2,3.69,3.69,0,0,0-1.92,2.72c-.82,3.16-2,11.89-2,11.89s-.5,5.35-1.48,6.57-2,8.82,5,9.79,10-3.7,10-3.7l-.24-21.2v0a3.13,3.13,0,0,0,.36-.58v-.05c.05-.1.1-.2.15-.32l.05-.16.11-.26v-.09a14.07,14.07,0,0,0,.6-6.31v-.89a3.25,3.25,0,0,1,0-.44c0-.23,0-.05,0-.08l0-.26v-.11a.42.42,0,0,1,.06-.26.08.08,0,0,1,0-.07c.06-.3.14-.66.23-1v-.07l.1-.32h0c.1-.34.21-.66.33-1v-.07a1,1,0,0,1,.11-.31v0c.12-.32.25-.66.36-.93l0-.09.1-.26,0-.08.25-.59h0l1.93,6s1.07,4.45.5,5.5.66,5.43,1.47,5.51l-.76,5.5a85.21,85.21,0,0,0-.73,9.16c-.05.35-.11.66-.15.87-.52,2.82.74,7.2.74,7.2,6.48,7.66,14.2.59,14.2.59s.9-4,0-4.86-.5-3.72-.5-3.72.41-7.21.49-12.47-4.3-9.92-4.3-9.92l-.24.22c-.8-2.06-1.72-4.47-1.52-5.54.33-1.87-.91-21.54-.91-21.54a116.65,116.65,0,0,0,.29-15.86h0c.11-.9.21-1.78.31-2.65.49-4.23.89-7.84,1.05-9.74h0v-.22c0-.51.06-.88.06-1.05,0-.66,0-1.41.06-2.24.15-2.27.51-4.8.51-4.8L488,442s1.32-5.1,3.2-7.93l.23-.36h0l.22-.41,0-.06c.07-.14.15-.28.22-.44l0-.05c.26-.53.54-1.13.84-1.79,0-.05.05-.1.07-.15l.22-.5a.4.4,0,0,1,.09-.2l.21-.5.09-.21c.08-.2.17-.4.26-.61l.13-.31a4.32,4.32,0,0,1,.19-.45l.16-.41.12-.29.18-.46c0-.07.06-.14.09-.21l1.32-3.37h0c.12-.33.25-.66.36-.95,4.2.25,7.06.48,7.06.48s1.32-9.47.9-15.7a57.6,57.6,0,0,1,1-12.55c.05-.33.11-.62.16-.88l.11.09c2.06,1.62,3.53-3.73,3.53-3.73s-.55-5-1.32-11l-.08-.6a29.09,29.09,0,0,0,3.59.55s.66-.06,1.57-.17a43.45,43.45,0,0,0,7.89,3.57l4.37-8.06a32.54,32.54,0,0,1,2.87-4.78c1.32-1.62,6-6.8,5.91-7.78s1.56-6.56,3.2-9.07S539.4,345.14,539.32,344.74Zm-18.21,6.15c-1.73.73-3.37,4.78-3.45,6s-1.89,6.56-3.77,7.21-5.06,3.65-5.58,4.14c-.55,0-1.16.11-1.8.22-.72-5.11-1.44-9.34-1.89-10.19-1.32-2.43,1.45-10.21,1.45-10.21s.27-7.85,2-9.71,1.32-6.56,1.32-6.56.41-1.95.57-2.83,2.44,0,2.46,0h0s4.43,2.42,5.09,6.07,5.5,10,5.5,10-.74,2.19,0,3.31S522.83,350.16,521.11,350.89Z"/><path class="cls-4" d="M402.46,281.69a13.2,13.2,0,0,1,13.21-6.23v9.46h-5.74l-4.49-1.14Z"/><path class="cls-5" d="M402.46,281.69a13.2,13.2,0,0,1,13.21-6.23v9.46h-5.74l-4.49-1.14Z"/><path class="cls-6" d="M416.1,278l-7,4.93s-.06-1-.24-2.34c-.35-2.55-1.14-6.37-2.84-7.11-2.58-1.14-31.35-12-21.15-15.61s25.86,8.3,25.86,8.3.81.27,2.1,2.94c.66,1.4,1.57,3.78,2.25,5.73C415.67,276.57,416.1,278,416.1,278Z"/><polygon class="cls-4" points="472.33 285.56 473.13 285.18 475.38 287.75 473.54 291.67 470.41 290.41 471.14 287.28 472.33 285.56"/><path class="cls-7" d="M461.69,515.1s-2-.24-2.83,2.91-2,11.9-2,11.9-.49,5.33-1.46,6.55-1.94,8.81,4.93,9.77,9.86-3.69,9.86-3.69l-.24-21.2Z"/><path class="cls-7" d="M485.65,516.05s4.32,4.62,4.24,9.87-.49,12.45-.49,12.45-.39,2.91.49,3.72,0,4.85,0,4.85-7.6,7-14-.6c0,0-1.24-4.37-.73-7.18s2-15.47,2-15.47Z"/><path class="cls-8" d="M496.36,419.41s-4.37,12.2-6.23,15-3.14,7.93-3.14,7.93l-1.7,10.43a59.13,59.13,0,0,0-.57,7c.08,2.35-4.2,36.53-4.2,36.53L473.73,505s-3,6.06-2.51,8.59-.32,6.55-1.32,7.76c0,0-.16,7.93-.4,9.69s.89,6.8,0,7.68-12.77.49-13.09-1,1.45-8.48,1.45-8.48l1.05-6.79s2.1-3.72,1.62-4.93.89-4,1-4.28,2.27-4.21,1.87-5.74,2.54-34.14,2.54-34.14L474.22,415Z"/><path class="cls-6" d="M496.36,419.41s-.66,1.83-1.57,4.24c-1.44,3.81-3.52,9.05-4.66,10.78-1.86,2.83-3.15,7.93-3.15,7.93l-1.7,10.43a57.09,57.09,0,0,0-.56,7c0,.92-.62,6.82-1.42,13.62-1.22,10.4-2.78,22.9-2.78,22.9L473.73,505s-.35.67-.78,1.71c-.85,2-2.05,5.2-1.73,6.86.49,2.5-.32,6.54-1.32,7.76,0,0-.16,7.93-.4,9.69s.89,6.79,0,7.68-12.77.49-13.09-1,1.45-8.49,1.45-8.49l1.05-6.79s2.1-3.72,1.61-4.93.9-4,1-4.28,2.27-4.21,1.87-5.74c-.31-1.17,1.32-20.32,2.08-29.4.26-2.85.42-4.71.42-4.71L473,423.13l.58-4.05.58-4.11Z"/><path class="cls-6" d="M489.09,541c.07.89-11.4,2.19-13,1.22s0-13,0-13l.74-5.49c-.8-.08-2-4.45-1.45-5.5s-.48-5.49-.48-5.49L473,506.72l-1.16-3.64c-1.89-4.17-4.63-16.07-6.32-24.95-1.07-5.58-1.75-10-1.6-10.53.4-1.46-.66-12-.66-12s-1.33-10.76-3.07-14.15c-1.18-2.24-3.49-10.68-4.92-16.13l-1.23-4.8s12.22-1,19.63-1.39c3.4-.16,5.79-.18,5.51.1s-.35,1.75-.33,3.9c0,5.54.8,15.3,1.62,17.92,1.13,3.63,2.26,14.54,1.78,15.6s-.32,8.08-.32,8.08a36.18,36.18,0,0,1,1.42,8.77,118.88,118.88,0,0,1-.27,15.79s1.21,19.64.88,21.5,2.59,7.68,2.59,8.81.8,8.81.8,8.81S489,540.06,489.09,541Z"/><path class="cls-6" d="M495.46,304.88l-1.38,1.5-.91,1L487.88,313l-13.66,1.54L467,312.64l-1.79-.49s0-3.64.32-8c.46-5.61,1.57-12.42,4.2-14.28a10.53,10.53,0,0,0,3.08-3.89,22.58,22.58,0,0,0,1.32-3.27c.05-.14.09-.28.14-.43a37.14,37.14,0,0,0,1.28-6s1.74-1,4.17-2.09c6.32-2.95,17.25-7,13.45,2.09a34.27,34.27,0,0,0-1.43,4.1c-.06.2-.11.41-.16.6-1.27,5.08-.43,8.16.52,9.86h0a6.38,6.38,0,0,0,.55.84,4.22,4.22,0,0,0,.91.93l1.58,10,.13.83Z"/><path class="cls-5" d="M493.12,276.76c-.72,1.73.36-1.42,0,0-2.88,2.05-9.66,7.88-13.48,7.88-2.57,0-3.35-.47-5.56-1.47a36,36,0,0,0,1.43-6.41S498.38,264.15,493.12,276.76Z"/><path class="cls-6" d="M499,266.14a17.64,17.64,0,0,1-15.78,17.52c-.61.06-1.22.1-1.84.1A17.62,17.62,0,1,1,499,266.14Z"/><path class="cls-5" d="M501.45,344.24l-2.51,6.55s-2,.09-5.23.19c-10.75.34-34.44.78-35.5-2a7,7,0,0,1-.37-2.17c-.14-4.21,1.82-10.67,1.82-10.67s1.13-12.94,1.13-13.5-1-9.62-1-9.62l1.95-7.27,5.41-3.8s2.42,3.72,3.88,4a10,10,0,0,1,3.39,2.1s4.77,2.91,6.31,1.29,13.5-8.73,13.5-8.73l6.3,6.95Z"/><path class="cls-9" d="M501.45,345.25l-2.51,6.54s-2,.09-5.23.19h-.31c-1.37,0-2.95.09-4.62.13-8.55.19-20.32.25-26.47-.66-2.32-.34-3.83-.81-4.08-1.46a5.53,5.53,0,0,1-.29-1.2c0-.31-.07-.66-.08-1-.14-4.21,1.82-10.68,1.82-10.68s1.13-12.93,1.13-13.49-1-9.62-1-9.62l2-7.27,3.72-2.61L467.2,303a25.88,25.88,0,0,0,1.86,2.45,4.85,4.85,0,0,0,2,1.59,10,10,0,0,1,3.39,2.11s4.77,2.91,6.31,1.29c1.17-1.24,8.44-5.69,11.8-7.72l1.69-1,.85.93,5.46,6Z"/><path class="cls-5" d="M416.1,278l-7,4.93s-.06-1-.24-2.34a14.25,14.25,0,0,0,6.2-5.75C415.67,276.57,416.1,278,416.1,278Z"/><path class="cls-10" d="M440.83,294.7l-1.53-.41s-2.51,2.64-4,3a22.93,22.93,0,0,0-4.52,2.34l-3.57,2.83s-2.64.41-1.85-1.45-1.46-4.2-1.46-4.2-4.52-9.3-4.52-11.24-3.75-10.1-3.75-10.1-4.69,9.14-13.25,6.23c0,0,6.22,14,6.38,17.45s4.28,13.17,4.28,13.17,1.54,7.2,9.86,6.8c0,0,11.48,2.13,14,0s4.76-3.82,5.95-4.06a5,5,0,0,0,2.26-1.61v-9.61Z"/><path class="cls-5" d="M426.45,303.83s2,7.52.72,8.32Z"/><path class="cls-5" d="M493.71,352c-10.75.34-34.44.77-35.5-2a7,7,0,0,1-.37-2.17L493,349.64Z"/><path class="cls-5" d="M496.36,419.41s-.66,1.83-1.57,4.24c-4.46-.27-10.37-.55-16-.59-2,0-3.93,0-5.76.07a42.81,42.81,0,0,0-9.42,1,24.87,24.87,0,0,1-8.39,1.08c-.73-2.79-1.23-4.8-1.23-4.8s12.21-1,19.62-1.38l.58-4.11Z"/><path class="cls-7" d="M505.81,389.82l-1.37,2.91s-.19.87-.44,2.24a57.3,57.3,0,0,0-1,12.56c.4,6.22-.9,15.68-.9,15.68s-29.74-2.51-38.46,0-13,0-13,0,1.06-9.38-1.53-14.23c-1.77-3.3-3-18.05-3.05-27.75,0-4.48.22-7.87.79-8.56,1.77-2.18,9.37-24,9.37-24l1.73.09,4.63.25,26.3,1.38,4.13.22.44,1.32Z"/><path class="cls-4" d="M518.91,380.12l.24,2.59s-13-4.24-12.36-9.46,0-4.62,0-4.62l10.46.88Z"/><path class="cls-5" d="M518.91,380.12l.24,2.59s-13-4.24-12.36-9.46,0-4.62,0-4.62l10.46.88Z"/><path class="cls-5" d="M435.14,305.92a11.62,11.62,0,0,0,4.58,2.38,3,3,0,0,1-1.32-.66c-.93-.66-1.81-1.38-2.71-2.08a8.77,8.77,0,0,0-2.53-1.75A14.14,14.14,0,0,0,435.14,305.92Z"/><path class="cls-5" d="M435.34,309.32a5.85,5.85,0,0,1,1,1.59,9.67,9.67,0,0,1-.07,5l-2.09-5c-.36-.86-.73-1.72-1.16-2.54-.2-.35-1.4-1.81-1.26-2.11C432.13,305.37,435,308.84,435.34,309.32Z"/><path class="cls-5" d="M493.61,337.21a6.76,6.76,0,0,0,3.8-1.78c-2.15.27-4.19,1.12-6.3,1.56a9.33,9.33,0,0,1-5.87-.54A14.43,14.43,0,0,0,493.61,337.21Z"/><path class="cls-5" d="M487.53,322.41a1.48,1.48,0,0,1-1.09-.27c-1.61-.92-3.2-1.89-4.77-2.89A32,32,0,0,1,477,316C480.2,318.92,483.19,321.36,487.53,322.41Z"/><path class="cls-5" d="M492,339.56a10.22,10.22,0,0,0,2.53-.21,3.34,3.34,0,0,0,2.07-1.36,1.15,1.15,0,0,0-.87.14,14.86,14.86,0,0,1-8.12,1A11.8,11.8,0,0,0,492,339.56Z"/><path class="cls-5" d="M476.71,377.08a25.89,25.89,0,0,1-5.16,1,29.37,29.37,0,0,1-4.09-.08l-6.61-.41-3.3-.21c-.39,0-2,0-1.2-.79.4-.38,2.61-.14,3.17-.16,1.1,0,2.2-.05,3.31-.06,2.19,0,4.38,0,6.57.13C471.85,376.63,474.26,376.82,476.71,377.08Z"/><path class="cls-5" d="M469.05,380.35c-1.13,0-2.57.62-3.73.77a25.4,25.4,0,0,1-3.9.15,21.73,21.73,0,0,1-7.51-1.53C459,380,464,380.15,469.05,380.35Z"/><path class="cls-5" d="M454.89,383.82a10.21,10.21,0,0,1,1.44.39c2.79.8,5.76.09,8.59-.61a5,5,0,0,1-3.25,1.82,15.28,15.28,0,0,1-6.35.23c-.66-.14-2.32-.37-2.64-1.06C452.14,383.58,454.27,383.72,454.89,383.82Z"/><path class="cls-5" d="M470.53,389a20.9,20.9,0,0,1,2.47.66c3.14.78,6.4-.29,9.55-1a44.5,44.5,0,0,1,11.56-1.07,11.78,11.78,0,0,0-2.48.81c-.89.27-1.8.52-2.7.75a54.76,54.76,0,0,1-5.4,1.05,55.5,55.5,0,0,1-11.08.48c-1.7-.09-4.63.08-6.08-.77A6.72,6.72,0,0,1,470.53,389Z"/><path class="cls-5" d="M471.71,289.35s.16,7.45-1,10.84c-.38,1.06-1,3-1.62,5.2-.71,2.42-1.49,5.14-2.08,7.27s-1,3.55-1,3.55-2.73,22.24-3.44,32.83a2.5,2.5,0,0,1,0,.55c0,.6-.1,1.22-.2,1.86-1.58,10.52-10.65,26.75-13.7,28a9.23,9.23,0,0,0-2.56,1.77c0-4.48.22-7.87.79-8.55,1.77-2.18,9.37-24,9.37-24l1.73.09c0-.3-.07-.66-.08-1-.14-4.21,1.82-10.67,1.82-10.67s1.13-12.93,1.13-13.5-1-9.62-1-9.62l1.95-7.27,3.72-2.6c.46-5.61,1.56-12.43,4.2-14.28a10.54,10.54,0,0,0,3.07-3.9c.52.08-.43-.39-.43-.39Z"/><path class="cls-10" d="M473.13,285.18a4.83,4.83,0,0,0-4.09.47c-1.86,1.32-5.5,1.21-6.47,1s-11.07-1.54-11.89-1.22-2.43-1.13-3.48.81-1.53,3-2.58,3.47-2.92,2-2.65,2.35-2.64,2.26-2.64,2.26l5.89,19.17s-3.8,24.24-5.65,26.34S421.22,369.14,427.12,374a117.38,117.38,0,0,0,14.79,9.91c.66.33,3-4,6.22-5.41s13.26-19.56,13.88-29.91,3.48-33.37,3.48-33.37,3.47-12.61,4.68-16,1.05-10.84,1.05-10.84Z"/><path class="cls-5" d="M505.81,389.82l-1.37,2.91s-.19.87-.44,2.24a1.21,1.21,0,0,1-.66-.3c-2-1.61-13.88-13.82-14.46-24.65-.42-8-.22-14.87-.09-17.94,0-1,.08-1.55.08-1.67h0s9.21-11.16,8.16-15.11-3.48-25.11-3.48-25.11l-.35-2.78-.62-4.69-1.46-11.36,1.52.36a4.22,4.22,0,0,0,.91.93l1.58,10,5.46,6,.89,36.62L499,351.81s-2,.09-5.23.19h-.31Z"/><path class="cls-10" d="M510.9,329.38s-2.26-.89-2.42,0-.56,2.83-.56,2.83.4,4.69-1.33,6.55-2,9.69-2,9.69-2.72,7.76-1.43,10.19c.47.87,1.19,5.28,1.92,10.57.46,3.3.92,6.93,1.32,10.25.74,6,1.28,11,1.28,11s-1.46,5.33-3.48,3.71-13.88-13.82-14.46-24.65c-.4-7.61-.24-14.22-.1-17.47,0-1.39.1-2.16.1-2.16s9.21-11.16,8.16-15.12-3.47-25.11-3.47-25.11L494,306.4l-.45-3.51-.11-.77L492,290.88h0c.26.06,9.33,2.11,10.52,3.3s8.59,2.91,8.59,2.91a6.46,6.46,0,0,1,4.59,4.71,6.68,6.68,0,0,1,.18.71c1,4.69.66,5.25,1.32,6.06S510.9,329.38,510.9,329.38Z"/><path class="cls-5" d="M506.48,379.45c-3.31-.66-8.21-2.18-8.1-5.55.1-3.16,3.89-4.29,6.77-4.7C505.61,372.49,506.07,376.14,506.48,379.45Z"/><path class="cls-6" d="M516.73,377.78c-.14.28-.67.52-1.42.74a37.57,37.57,0,0,1-5.37.88s-11.24-.89-11.08-6c.12-3.65,5.2-4.62,8-4.84a17.35,17.35,0,0,1,1.9-.08S517.21,376.73,516.73,377.78Z"/><path class="cls-5" d="M516.73,377.78c-.14.28-.67.52-1.42.74-2.93-3.92-7-8.95-9-9.39l.6-.56a17.35,17.35,0,0,1,1.9-.08S517.21,376.73,516.73,377.78Z"/><path class="cls-10" d="M513.9,308l3.3.49a56.38,56.38,0,0,0,4,6.06,6.66,6.66,0,0,1,1.45,3.88s4.85,7.19,6.39,8,3.87,6.3,3.87,6.3,3.8,2.51,3.8,5.33a47.61,47.61,0,0,0,.73,7c.09.4-.56,5.42-2.18,7.93s-3.24,8.05-3.15,9-4.53,6.14-5.82,7.76a33.65,33.65,0,0,0-2.83,4.77l-4.28,8.08s-9-13.33-12.36-14.06c0,0,3.71-3.56,5.57-4.21s3.64-5.94,3.72-7.19,1.7-5.25,3.39-5.94,2.59-1.46,1.86-2.59,0-3.31,0-3.31-4.77-6.3-5.42-9.91-5-6.06-5-6.06l-2.5-6.15Z"/><path class="cls-5" d="M525.92,338.2a10.48,10.48,0,0,1,6.52-2.47,8,8,0,0,0-4.27,1.67,9.58,9.58,0,0,0-1.18,1.51c-.38.55-3.5,4.51-4,3.88C522.25,341.88,525.29,338.74,525.92,338.2Z"/><path class="cls-5" d="M518.6,334.37a2.77,2.77,0,0,0,2.3-1.63,8.91,8.91,0,0,0,.72-2.87,43.59,43.59,0,0,1,1-4.91,2.26,2.26,0,0,0-.14-2,7.12,7.12,0,0,0-.71-1.47c-.6.66-.77,2.2-1,3.09-.31,1.1-.58,2.2-.85,3.3C519.77,328.43,518.68,334.37,518.6,334.37Z"/><path class="cls-5" d="M515.73,301.75a7.1,7.1,0,0,1-1.11,1.15c-1.32,1.05-3.08,1.93-3.24,3.59a3.9,3.9,0,0,1-.2,1.59c-.42.73-1.46.66-2.29.53a4,4,0,0,1-1.93-.72c-.87-.74-.95-2.06-1.61-3a4,4,0,0,0-3.3-1.46c-1.24,0-2.47.24-3.7.29a10,10,0,0,1-2.38-.16,6.85,6.85,0,0,1-.76-.16,9.09,9.09,0,0,1-1.62-.55,5.56,5.56,0,0,1-.78-.37,10.31,10.31,0,0,1-2.28-1.58,5.68,5.68,0,0,1-2.12-4.29c.06-1,.52-1.95.66-2.94.5-2.86-1.4-5.56-3.45-7.6-.82-.81-1.69-1.6-2.51-2.42a12.1,12.1,0,0,1-3-4.22,12.63,12.63,0,0,1-.53-5.29,35.16,35.16,0,0,0,.15-5.43c-.6-6.42-6.09-11.35-11.57-14l-.25-.13a17.61,17.61,0,0,1,26.56,23.14,18,18,0,0,1-2.87,2.64c-.05.2-.11.41-.15.6-1.27,5.08-.43,8.16.51,9.86h0c.26.06,9.33,2.11,10.52,3.3s8.59,2.91,8.59,2.91A6.45,6.45,0,0,1,515.73,301.75Z"/><path class="cls-7" d="M466.79,249.91c.36-.41.91-.63,1.28-1,1.14-1.24,0-3.27.42-4.91.45-1.82,2.68-2.61,4.54-2.42s3.61,1,5.48,1.26c2.89.33,5.69-.93,8.51-1.66s6.24-.78,8.18,1.39,1.81,5.84,4.23,7.4c1.12.72,2.52.8,3.73,1.33a7.54,7.54,0,0,1,3.16,3,15.8,15.8,0,0,1,2.4,10.11c-.21,1.92-.76,3.79-1,5.7a16.56,16.56,0,0,0,.4,5.95c.51,2,1.61,4.12,3.59,4.76a6.23,6.23,0,0,1,1.32.45c1.14.72,1,2.4.7,3.71l-1.18,5.42c1.13.86,2.89.49,4,1.4a3.22,3.22,0,0,1,.92,1.45,7.91,7.91,0,0,1-2.37,8.68c-1.32,1.05-3.07,1.94-3.24,3.59a3.78,3.78,0,0,1-.2,1.6c-.41.72-1.46.66-2.28.52a4,4,0,0,1-1.93-.72c-.88-.74-.95-2.06-1.61-3a4.1,4.1,0,0,0-3.3-1.46c-1.25,0-2.47.24-3.71.3a11,11,0,0,1-7.79-2.82,5.65,5.65,0,0,1-2.12-4.29c.05-1,.51-1.95.66-2.95.49-2.84-1.4-5.55-3.46-7.59s-4.47-3.92-5.47-6.64c-1.26-3.37,0-7.12-.38-10.69-.61-6.43-6.09-11.35-11.58-14C467.45,253.12,465.37,251.53,466.79,249.91Z"/><path class="cls-5" d="M510,305.41c-.87-.74-.94-2.06-1.61-3a4.1,4.1,0,0,0-3.3-1.47c-1.24,0-2.47.24-3.71.3a11,11,0,0,1-7.82-2.82,5.7,5.7,0,0,1-2.11-4.29c.06-1,.52-1.95.66-2.94.5-2.86-1.4-5.56-3.46-7.6s-4.46-3.93-5.47-6.64c-1.25-3.36,0-7.12-.37-10.69-.61-6.43-6.09-11.35-11.58-14-1.28-.63-3.36-2.22-1.94-3.84.36-.42.91-.63,1.28-1,1.14-1.24,0-3.27.42-4.91a2.72,2.72,0,0,1,.41-.9,3.54,3.54,0,0,0-3,2.36c-.4,1.64.73,3.67-.41,4.91-.37.4-.92.61-1.28,1-1.43,1.62.66,3.22,1.94,3.84,5.49,2.69,11,7.61,11.58,14,.33,3.58-.88,7.33.37,10.7,1,2.71,3.42,4.62,5.48,6.64s4,4.74,3.45,7.59a24.94,24.94,0,0,0-.66,2.94,5.7,5.7,0,0,0,2.12,4.29,10.88,10.88,0,0,0,7.82,2.82c1.24-.06,2.46-.33,3.7-.29a4.12,4.12,0,0,1,3.31,1.46c.66.94.73,2.26,1.6,3a4,4,0,0,0,1.93.7c.83.16,1.87.21,2.29-.51a1.73,1.73,0,0,0,.18-.95A3.84,3.84,0,0,1,510,305.41Z"/><path class="cls-11" d="M413.8,266.14H368.09v-45h45.75Zm-.66-67.92H368.75c0-70,66.54-65.92,66.54-110.2a44.14,44.14,0,0,0-44.36-43.94c-24.39,0-44.35,21.07-44.35,44.63H302.22A88.55,88.55,0,0,1,390.63,0h.3c49,0,88.71,39.09,88.71,88,0,55.37-66.53,61.68-66.53,110.2Z"/><path class="cls-1" d="M185.8,252.72H174V241.08H185.8Zm-.18-17.51H174.19c0-18.05,17.15-17,17.15-28.42a11.39,11.39,0,0,0-11.43-11.34h0A11.68,11.68,0,0,0,168.5,207H157.07a22.87,22.87,0,0,1,45.74-.18c0,14.28-17.19,15.91-17.19,28.41Z"/><path class="cls-1" d="M275.08,333.62H263.29V322h11.79Zm-.18-17.51H263.47c0-18.05,17.15-17,17.15-28.42a11.37,11.37,0,0,0-11.42-11.32h0a11.68,11.68,0,0,0-11.47,11.51H246.29A22.87,22.87,0,0,1,292,287.7C292.05,302,274.9,303.61,274.9,316.11Z"/><path class="cls-1" d="M329.36,190.4h-8.54V182h8.54Zm-.12-12.69H321c0-13.07,12.43-12.31,12.43-20.59a8.25,8.25,0,0,0-8.29-8.21h0a8.47,8.47,0,0,0-8.29,8.34h-8.28a16.58,16.58,0,0,1,33.15-.13C341.65,167.46,329.24,168.65,329.24,177.71Z"/><path class="cls-1" d="M475.31,202.26h-4.83V197.5h4.83Zm-.07-7.17h-4.71c0-7.39,7-7,7-11.64a4.62,4.62,0,0,0-4.62-4.62h-.05a4.78,4.78,0,0,0-4.69,4.71H463.5a9.37,9.37,0,0,1,18.74-.08C482.27,189.27,475.24,190,475.24,195.09Z"/><path class="cls-1" d="M549.18,418.68h-4.84v-4.75h4.84Zm-.08-7.17h-4.68c0-7.39,7-7,7-11.63a4.66,4.66,0,0,0-4.69-4.63,4.77,4.77,0,0,0-4.68,4.71h-4.69a9.37,9.37,0,0,1,18.74-.07c0,5.83-7,6.5-7,11.62Z"/></g></g></svg>