<svg width="593" height="392" viewBox="0 0 593 392" fill="none" xmlns="http://www.w3.org/2000/svg">
<g clip-path="url(#clip0)">
<path d="M0 391.11H551.17C551.17 391.11 293.11 267.93 289.82 182.88C289.82 182.88 284.01 232.45 222.27 251.69C160.53 270.93 121.82 85.89 121.82 85.89C121.82 85.89 133.64 397.42 0 391.11Z" fill="#FFC709" stroke="#030303" stroke-width="0.7801" stroke-miterlimit="10"/>
<path d="M517.7 391.11H494.78L476.06 330.75H536.42L517.7 391.11Z" fill="white"/>
<path d="M224.1 177.49C227.99 176.4 231.44 176.1 233.95 176.06C235.6 174.6 237.12 173.34 238.47 172.31C238.47 172.31 238.52 172.38 238.61 172.51C239.8 170.55 241.37 167.67 242.76 164.1C235.34 166.75 228.9 171.44 224.1 177.49ZM298.7 254.04V235.82H288.64L291.02 273.99L290.67 274.04C293.08 277.29 295.9 281.22 298.7 285.38V272.5H296.02V254.05H298.7V254.04ZM270.62 166.19C267.77 169.22 267.81 173.75 268.54 177.47V177.48C267.99 178.15 266.87 179.23 264.83 180.11C261.76 181.43 256.59 182.29 248.1 180.65C248.09 181.14 248.02 181.74 247.88 182.42C247.76 183.06 247.58 183.78 247.37 184.57C246.96 185.99 246.39 187.63 245.66 189.42C245.66 189.43 245.65 189.44 245.64 189.46C245.54 189.71 245.43 189.97 245.32 190.23C244.06 193.21 242.37 196.55 240.28 199.95C240.1 200.24 239.92 200.54 239.73 200.84C238.94 202.09 238.1 203.34 237.2 204.58C236.98 204.89 236.76 205.19 236.53 205.5C236.29 205.83 236.03 206.16 235.78 206.49C235.56 206.77 235.35 207.04 235.12 207.31C234.64 207.91 234.16 208.5 233.64 209.09C233.46 209.3 233.28 209.51 233.1 209.72C232.89 209.95 232.68 210.19 232.46 210.42C232.15 210.77 231.83 211.1 231.51 211.44C231.18 211.78 230.85 212.12 230.51 212.45C230.29 212.67 230.07 212.89 229.85 213.1C228.37 214.52 226.81 215.85 225.17 217.06C222.08 219.34 218.7 221.2 215.05 222.4V225.42H284.15V171.77C283.14 170.9 282.08 170.08 281 169.31C275.48 169.83 270.62 166.19 270.62 166.19ZM220.49 235.82H215.05V254.04H217.47V272.49H215.05V289.36H224.59C224.54 286.94 224.83 284.64 225.23 282.68L224.62 282.76L220.49 235.82Z" fill="white" stroke="#030303" stroke-width="0.7801" stroke-miterlimit="10" stroke-linecap="round" stroke-linejoin="round"/>
<path d="M532.04 87.56C536.42 79.91 539.38 71.5 540.25 62.73C541.81 47.1 537.95 29.72 506.24 48.17C484.46 60.84 474.55 77.21 470.34 91.76C465.96 106.89 467.75 123.12 474.67 137.27C483.92 156.18 499.5 198.36 476.06 233.21C444.8 279.68 506.24 304.38 506.24 304.38C506.24 304.38 596.26 220.27 591.51 187.2C586.77 154.13 546.7 136.71 546.7 136.71C546.7 136.71 512.7 121.37 532.04 87.56Z" fill="#FFC709" stroke="#030303" stroke-width="0.7801" stroke-miterlimit="10"/>
<path d="M439.68 236.12L457.87 391.11H448.77L430.98 236.12H439.68Z" fill="white" stroke="#030303" stroke-width="0.7801" stroke-miterlimit="10" stroke-linecap="round" stroke-linejoin="round"/>
<path d="M126.12 236.12L107.93 391.11H117.02L134.82 236.12H126.12Z" fill="white" stroke="#030303" stroke-width="0.7801" stroke-miterlimit="10" stroke-linecap="round" stroke-linejoin="round"/>
<path d="M454.98 225.42H110.19V235.82H454.98V225.42Z" fill="white" stroke="#030303" stroke-width="0.7801" stroke-miterlimit="10" stroke-linecap="round" stroke-linejoin="round"/>
<path d="M390.12 169.43H376.94V225.42H390.12V169.43Z" stroke="#030303" stroke-width="0.7801" stroke-miterlimit="10" stroke-linecap="round" stroke-linejoin="round"/>
<path d="M403.3 169.43H390.12V225.42H403.3V169.43Z" stroke="#030303" stroke-width="0.7801" stroke-miterlimit="10" stroke-linecap="round" stroke-linejoin="round"/>
<path d="M416.48 169.43H403.3V225.42H416.48V169.43Z" stroke="#030303" stroke-width="0.7801" stroke-miterlimit="10" stroke-linecap="round" stroke-linejoin="round"/>
<path d="M429.66 169.43H416.48V225.42H429.66V169.43Z" stroke="#030303" stroke-width="0.7801" stroke-miterlimit="10" stroke-linecap="round" stroke-linejoin="round"/>
<path d="M425.48 187.21H420.67V207.64H425.48V187.21Z" fill="#FFC709" stroke="#030303" stroke-width="0.7801" stroke-miterlimit="10"/>
<path d="M412.3 187.21H407.49V207.64H412.3V187.21Z" stroke="#030303" stroke-width="0.7801" stroke-miterlimit="10" stroke-linecap="round" stroke-linejoin="round"/>
<path d="M399.12 187.21H394.31V207.64H399.12V187.21Z" stroke="#030303" stroke-width="0.7801" stroke-miterlimit="10" stroke-linecap="round" stroke-linejoin="round"/>
<path d="M385.94 187.21H381.13V207.64H385.94V187.21Z" stroke="#030303" stroke-width="0.7801" stroke-miterlimit="10" stroke-linecap="round" stroke-linejoin="round"/>
<path d="M284.15 169.42V225.41H361.12V169.42H284.15ZM322.19 202.9C318.07 202.9 314.74 199.57 314.74 195.45C314.74 191.33 318.07 188 322.19 188C326.3 188 329.64 191.33 329.64 195.45C329.64 199.57 326.3 202.9 322.19 202.9Z" fill="white" stroke="#030303" stroke-width="0.7801" stroke-miterlimit="10" stroke-linecap="round" stroke-linejoin="round"/>
<path d="M284.16 220.69H257.1V225.42H284.16V220.69Z" stroke="#030303" stroke-width="0.7801" stroke-miterlimit="10" stroke-linecap="round" stroke-linejoin="round"/>
<path d="M429.66 154.07H376.94V157.1H429.66V154.07Z" stroke="#030303" stroke-width="0.7801" stroke-miterlimit="10" stroke-linecap="round" stroke-linejoin="round"/>
<path d="M429.66 157.1H376.94V160.13H429.66V157.1Z" stroke="#030303" stroke-width="0.7801" stroke-miterlimit="10" stroke-linecap="round" stroke-linejoin="round"/>
<path d="M429.66 160.13H376.94V163.16H429.66V160.13Z" stroke="#030303" stroke-width="0.7801" stroke-miterlimit="10" stroke-linecap="round" stroke-linejoin="round"/>
<path d="M429.66 163.17H376.94V166.2H429.66V163.17Z" stroke="#030303" stroke-width="0.7801" stroke-miterlimit="10" stroke-linecap="round" stroke-linejoin="round"/>
<path d="M429.66 166.2H376.94V169.23H429.66V166.2Z" stroke="#030303" stroke-width="0.7801" stroke-miterlimit="10" stroke-linecap="round" stroke-linejoin="round"/>
<path d="M410.24 154.07C415.073 154.07 418.99 150.573 418.99 146.26C418.99 141.947 415.073 138.45 410.24 138.45C405.408 138.45 401.49 141.947 401.49 146.26C401.49 150.573 405.408 154.07 410.24 154.07Z" fill="#FFC709" stroke="#030303" stroke-width="0.7801" stroke-miterlimit="10"/>
<path d="M415.78 136.56C415.78 136.56 412.38 137.25 412.45 138.71L415.78 136.56Z" fill="#030303"/>
<path d="M415.78 136.56C415.78 136.56 412.38 137.25 412.45 138.71" stroke="#030303" stroke-width="0.7801" stroke-miterlimit="10"/>
<path d="M414.46 136.56C414.46 136.56 412 135.68 413.67 131.64C415.34 127.6 416.04 136.21 414.46 136.56Z" fill="#030303" stroke="#030303" stroke-width="0.7801" stroke-miterlimit="10"/>
<path d="M420.42 138.85C420.42 138.85 418.79 140.89 415.51 137.99C412.23 135.09 420.6 137.24 420.42 138.85Z" fill="#030303" stroke="#030303" stroke-width="0.7801" stroke-miterlimit="10"/>
<path d="M517.7 391.11H494.78L476.06 330.75H536.42L517.7 391.11Z" stroke="#030303" stroke-width="0.7801" stroke-miterlimit="10" stroke-linecap="round" stroke-linejoin="round"/>
<path d="M68.76 391.11H27.12L17.76 310.98H78.12L68.76 391.11Z" fill="white"/>
<path d="M168.51 208.63L163.39 225.12H157.14L152.03 208.63H168.51Z" fill="white" stroke="#030303" stroke-width="0.7801" stroke-miterlimit="10" stroke-linecap="round" stroke-linejoin="round"/>
<path d="M129.48 209.55L143.62 219.46L141.71 225.41L124.45 225.25L129.48 209.55Z" fill="white" stroke="#030303" stroke-width="0.7801" stroke-miterlimit="10" stroke-linecap="round" stroke-linejoin="round"/>
<path d="M168.51 202.9L166.73 208.63H153.8L152.03 202.9H168.51Z" fill="white" stroke="#030303" stroke-width="0.7801" stroke-miterlimit="10" stroke-linecap="round" stroke-linejoin="round"/>
<path d="M506.24 82.97V330.75" stroke="#030303" stroke-width="0.7801" stroke-miterlimit="10" stroke-linecap="round" stroke-linejoin="round"/>
<path d="M223.59 126.47C210.51 138.74 192.91 146.26 173.56 146.26C133.17 146.26 100.43 113.52 100.43 73.13C100.43 32.74 133.17 0 173.56 0C213.95 0 246.69 32.74 246.69 73.13C246.69 88.28 242.09 102.35 234.2 114.02L242.77 127.78L223.59 126.47Z" stroke="#030303" stroke-width="0.7801" stroke-miterlimit="10"/>
<path d="M157.8 62.93C170.249 62.93 180.34 52.8385 180.34 40.39C180.34 27.9415 170.249 17.85 157.8 17.85C145.352 17.85 135.26 27.9415 135.26 40.39C135.26 52.8385 145.352 62.93 157.8 62.93Z" fill="#FFC709" stroke="#030303" stroke-width="0.7801" stroke-miterlimit="10"/>
<path d="M121.82 75.98C126.382 75.98 130.08 72.2819 130.08 67.72C130.08 63.1581 126.382 59.46 121.82 59.46C117.258 59.46 113.56 63.1581 113.56 67.72C113.56 72.2819 117.258 75.98 121.82 75.98Z" fill="#FFC709" stroke="#030303" stroke-width="0.7801" stroke-miterlimit="10"/>
<path d="M223.59 85.89C229.372 85.89 234.06 81.2024 234.06 75.42C234.06 69.6376 229.372 64.95 223.59 64.95C217.808 64.95 213.12 69.6376 213.12 75.42C213.12 81.2024 217.808 85.89 223.59 85.89Z" fill="#FFC709" stroke="#030303" stroke-width="0.7801" stroke-miterlimit="10"/>
<path d="M146.73 133.57C151.435 133.57 155.25 129.755 155.25 125.05C155.25 120.345 151.435 116.53 146.73 116.53C142.025 116.53 138.21 120.345 138.21 125.05C138.21 129.755 142.025 133.57 146.73 133.57Z" stroke="#030303" stroke-width="0.7801" stroke-miterlimit="10" stroke-linecap="round" stroke-linejoin="round"/>
<path d="M134.82 79.54V112.75H180.33" stroke="#030303" stroke-width="0.7801" stroke-miterlimit="10"/>
<path d="M173.9 87.66C173.75 92.81 171.74 100.33 161.32 100.24C145.5 100.1 134.82 112.75 134.82 112.75" stroke="#030303" stroke-width="0.7801" stroke-linecap="round" stroke-linejoin="round"/>
<path d="M173.56 82.97C172.87 85.23 171.63 88.06 170.25 89.84L173.88 88.28L177.66 89.4C176.07 87.79 174.51 85.13 173.56 82.97Z" fill="#030303"/>
<path d="M193.22 57.13H234.05" stroke="#030303" stroke-width="0.7801" stroke-miterlimit="10" stroke-linecap="round" stroke-linejoin="round"/>
<path d="M200.86 31.83H195.59V57.14H200.86V31.83Z" fill="#FFC709" stroke="#030303" stroke-width="0.7801" stroke-miterlimit="10"/>
<path d="M216.27 38.66H211V57.13H216.27V38.66Z" fill="#FFC709" stroke="#030303" stroke-width="0.7801" stroke-miterlimit="10"/>
<path d="M221.54 33.89H216.27V57.13H221.54V33.89Z" stroke="#030303" stroke-width="0.7801" stroke-miterlimit="10" stroke-linecap="round" stroke-linejoin="round"/>
<path d="M206.13 47.9H200.86V57.14H206.13V47.9Z" stroke="#030303" stroke-width="0.7801" stroke-miterlimit="10" stroke-linecap="round" stroke-linejoin="round"/>
<path d="M294.7 384.79C294.7 388.13 291.98 390.85 288.63 390.85C285.28 390.85 282.57 388.14 282.57 384.79C282.57 383.95 282.74 383.15 283.05 382.43C283.97 380.25 286.11 378.72 288.63 378.72C291.99 378.72 294.7 381.44 294.7 384.79Z" fill="#030303" stroke="#030303" stroke-width="0.7801" stroke-miterlimit="10"/>
<path d="M236.74 384.79C236.74 388.13 234.02 390.85 230.67 390.85C227.33 390.85 224.61 388.14 224.61 384.79C224.61 383.4 225.09 382.1 225.88 381.08C225.89 381.07 225.9 381.05 225.91 381.04C225.91 381.03 225.92 381.03 225.92 381.03C226.04 380.9 226.36 380.57 226.87 380.08C226.88 380.07 226.89 380.06 226.9 380.05C227.93 379.22 229.25 378.72 230.67 378.72C233.96 378.72 236.62 381.32 236.73 384.58V384.64C236.73 384.68 236.74 384.73 236.74 384.79Z" fill="#030303" stroke="#030303" stroke-width="0.7801" stroke-miterlimit="10"/>
<path d="M226.88 380.08C226.37 380.58 226.06 380.9 225.93 381.03C226.2 380.68 226.52 380.35 226.88 380.08Z" stroke="#030303" stroke-width="0.7801" stroke-miterlimit="10" stroke-linecap="round" stroke-linejoin="round"/>
<path d="M288.64 378.72C286.12 378.72 283.98 380.25 283.06 382.43L282.58 382.41C282.58 382.41 274.67 368.44 255.16 370.55C237.16 372.51 236.7 382.98 236.74 384.58C236.64 381.32 233.97 378.72 230.68 378.72C229.26 378.72 227.94 379.22 226.91 380.05C230.31 376.69 241.62 366.12 252.27 363.69V363.83C255.34 366.29 258.42 366.29 261.49 363.83V363.77C274.28 366.63 288.64 378.72 288.64 378.72Z" fill="white" stroke="#030303" stroke-width="0.7801" stroke-miterlimit="10" stroke-linecap="round" stroke-linejoin="round"/>
<path d="M260.58 327.15C257.72 329.59 254.92 332.13 252.27 334.63V320.22C255.03 322.42 257.84 324.73 260.58 327.15Z" fill="white" stroke="#030303" stroke-width="0.7801" stroke-miterlimit="10" stroke-linecap="round" stroke-linejoin="round"/>
<path d="M261.49 350.45V363.83C258.42 366.29 255.34 366.29 252.27 363.83V355.46C254.87 354.07 258.01 352.37 261.49 350.45Z" fill="white" stroke="#030303" stroke-width="0.7801" stroke-miterlimit="10" stroke-linecap="round" stroke-linejoin="round"/>
<path d="M245.43 314.93H213.83C209.35 314.93 205.73 311.31 205.73 306.83V297.46C205.73 292.98 209.35 289.36 213.83 289.36H224.59C224.63 292.52 225.23 295.89 226.9 298.94C228.98 302.72 236.47 308.11 245.43 314.93Z" fill="white" stroke="#030303" stroke-width="0.7801" stroke-miterlimit="10" stroke-linecap="round" stroke-linejoin="round"/>
<path d="M308.02 297.46V300.87C306.19 297.24 303.87 293.33 301.42 289.5C305.18 290.2 308.02 293.5 308.02 297.46Z" fill="white" stroke="#030303" stroke-width="0.7801" stroke-miterlimit="10" stroke-linecap="round" stroke-linejoin="round"/>
<path d="M264.07 151.19C265.44 150.2 267 148.85 268.48 147.06C270.87 144.16 265.85 146.17 261.78 148.07C264.42 146.6 267.25 144.67 267.28 143.1C267.31 141.32 263.12 143.39 260.21 145.12C263.24 142.71 267.12 138.9 263.62 139.31C261.77 139.53 258.67 141.42 255.57 143.64C253.74 144.94 251.93 146.37 250.36 147.64C250.06 147.88 249.77 148.13 249.49 148.36L253.03 140.19C252.67 140.17 252.27 140.2 251.81 140.29C247.04 141.24 247.2 146.79 247.68 149.86C247.88 151.07 248.11 151.89 248.11 151.89L246.7 155.58L245.34 155.12C244.72 158.42 243.8 161.44 242.76 164.09C241.37 167.66 239.8 170.54 238.61 172.5C239.03 173.09 240.41 174.95 242.15 176.54C243.55 177.81 245.18 178.93 246.76 179.08C247.36 173.77 252.64 167.09 257.89 161.66C259.3 160.19 260.73 158.8 262.05 157.57C265.13 154.7 267.68 152.59 268.51 151.9L269.15 150.44V150.43C269.14 148.92 266.49 149.94 264.07 151.19Z" stroke="#030303" stroke-width="0.7801" stroke-miterlimit="10" stroke-linecap="round" stroke-linejoin="round"/>
<path d="M309.33 254.04H296.02V272.49H309.33V254.04Z" fill="white" stroke="#030303" stroke-width="0.7801" stroke-miterlimit="10" stroke-linecap="round" stroke-linejoin="round"/>
<path d="M217.46 254.04H204.15V272.49H217.46V254.04Z" fill="white" stroke="#030303" stroke-width="0.7801" stroke-miterlimit="10" stroke-linecap="round" stroke-linejoin="round"/>
<path d="M248.11 180.66C248.1 181.15 248.03 181.75 247.89 182.43C247.77 183.07 247.59 183.79 247.38 184.58C246.97 186 246.4 187.64 245.67 189.43C245.67 189.44 245.66 189.45 245.65 189.47C245.55 189.72 245.44 189.98 245.33 190.24C244.07 193.22 242.38 196.56 240.29 199.96C240.11 200.25 239.93 200.55 239.74 200.85C238.95 202.1 238.11 203.35 237.21 204.59C236.99 204.9 236.77 205.2 236.54 205.51C236.3 205.84 236.04 206.17 235.79 206.5C235.57 206.78 235.36 207.05 235.13 207.32C234.65 207.92 234.17 208.51 233.65 209.1C233.47 209.31 233.29 209.52 233.11 209.73C232.9 209.96 232.69 210.2 232.47 210.43C232.16 210.78 231.84 211.11 231.52 211.45C231.19 211.79 230.86 212.13 230.52 212.46C230.3 212.68 230.08 212.9 229.86 213.11C228.38 214.53 226.82 215.86 225.18 217.07C222.09 219.35 218.71 221.21 215.06 222.41C214.32 222.66 213.58 222.88 212.82 223.07C187.51 229.37 193.49 217.5 193.49 217.5C193.49 217.5 197.6 212.95 203.49 206.66C206.31 203.64 209.54 200.21 212.94 196.68C213.82 195.76 214.72 194.83 215.62 193.9C215.87 193.65 216.12 193.39 216.37 193.13C219.48 189.95 222.64 186.76 225.68 183.81C226.26 183.24 226.83 182.69 227.39 182.15C229.71 179.91 231.93 177.85 233.96 176.07C235.61 174.61 237.13 173.35 238.48 172.32C238.48 172.32 238.53 172.39 238.62 172.52C239.04 173.11 240.42 174.97 242.16 176.56C243.56 177.83 245.19 178.95 246.77 179.1C246.99 179.13 247.2 179.13 247.42 179.11C247.91 179.05 248.15 179.62 248.11 180.66Z" stroke="#030303" stroke-width="0.7801" stroke-miterlimit="10" stroke-linecap="round" stroke-linejoin="round"/>
<path d="M233.94 176.06C231.91 177.84 229.69 179.9 227.37 182.14C226.81 182.67 226.24 183.23 225.66 183.8C222.63 186.75 219.46 189.93 216.35 193.12C216.1 193.38 215.85 193.63 215.6 193.89C214.7 194.82 213.8 195.75 212.92 196.67C209.52 200.2 206.29 203.63 203.47 206.65C203.17 199.72 204.18 188.71 212.45 182.97C216.43 180.2 220.45 178.52 224.09 177.51V177.5C227.98 176.41 231.43 176.1 233.94 176.06Z" stroke="#030303" stroke-width="0.7801" stroke-miterlimit="10" stroke-linecap="round" stroke-linejoin="round"/>
<path d="M284.15 184.51V225.41H222.58L225.17 217.05C226.81 215.84 228.37 214.51 229.85 213.09C230.07 212.88 230.3 212.67 230.51 212.44C230.86 212.11 231.18 211.77 231.51 211.43C231.84 211.09 232.16 210.76 232.46 210.41C232.68 210.18 232.89 209.94 233.1 209.71C233.29 209.5 233.47 209.29 233.64 209.08C234.15 208.49 234.64 207.9 235.12 207.3C235.34 207.03 235.56 206.76 235.78 206.48C236.03 206.15 236.29 205.82 236.53 205.49C236.76 205.18 236.99 204.88 237.2 204.57C238.1 203.33 238.94 202.08 239.73 200.83C239.93 200.53 240.1 200.23 240.28 199.94C242.37 196.54 244.05 193.2 245.32 190.22C245.43 189.96 245.54 189.71 245.64 189.45C245.65 189.43 245.66 189.42 245.66 189.41C246.39 187.62 246.96 185.98 247.37 184.56C250.59 185.96 259.39 188.6 269.68 181.65C270.49 181.11 271.32 180.49 272.15 179.82L268.99 176.8L284.15 184.51Z" stroke="#030303" stroke-width="0.7801" stroke-miterlimit="10" stroke-linecap="round" stroke-linejoin="round"/>
<path d="M246.7 155.59L245.34 155.13C245.47 154.42 245.59 153.7 245.69 152.96C245.99 153.83 246.33 154.7 246.7 155.59Z" stroke="#030303" stroke-width="0.7801" stroke-miterlimit="10" stroke-linecap="round" stroke-linejoin="round"/>
<path d="M269.14 150.44C269.14 150.75 269.04 151.15 268.79 151.68C268.79 151.68 268.69 151.76 268.5 151.9L269.14 150.44Z" stroke="#030303" stroke-width="0.7801" stroke-miterlimit="10" stroke-linecap="round" stroke-linejoin="round"/>
<path d="M268.5 151.9L265.41 159.03L262.04 157.57C265.12 154.7 267.67 152.59 268.5 151.9Z" stroke="#030303" stroke-width="0.7801" stroke-miterlimit="10" stroke-linecap="round" stroke-linejoin="round"/>
<path d="M262.04 157.57L265.41 159.03L268.5 151.9C267.67 152.59 265.12 154.7 262.04 157.57ZM268.5 151.9C268.69 151.76 268.79 151.68 268.79 151.68C269.03 151.16 269.14 150.75 269.14 150.44L268.5 151.9Z" stroke="#030303" stroke-width="0.7801" stroke-miterlimit="10" stroke-linecap="round" stroke-linejoin="round"/>
<path d="M305.25 130.57C304.73 132.56 298.71 146.26 298.71 146.26L299.72 155.58C295.76 155.45 291.02 161.65 291.02 161.65C288.1 167.04 284.42 168.98 281 169.3C275.49 169.83 270.63 166.19 270.63 166.19C267.78 169.22 267.82 173.75 268.55 177.47V177.48C268 178.15 266.88 179.23 264.84 180.11C261.77 181.43 256.6 182.29 248.11 180.65C248.15 179.61 247.91 179.04 247.4 179.09C247.18 179.11 246.97 179.11 246.75 179.08C247.35 173.77 252.63 167.09 257.88 161.66C259.29 160.19 260.72 158.8 262.04 157.57L265.41 159.03L268.5 151.9C268.69 151.76 268.79 151.68 268.79 151.68C269.03 151.16 269.14 150.75 269.14 150.44V150.43L278.94 127.82L268.7 123.38C278.27 120.48 297.74 126.52 305.76 129.29C305.51 129.8 305.33 130.24 305.25 130.57Z" stroke="#030303" stroke-width="0.7801" stroke-miterlimit="10" stroke-linecap="round" stroke-linejoin="round"/>
<path d="M272.16 179.83C271.33 180.5 270.5 181.12 269.69 181.66C259.4 188.62 250.6 185.98 247.38 184.57C247.6 183.77 247.77 183.05 247.89 182.42C248.02 181.74 248.1 181.14 248.11 180.65C256.6 182.29 261.77 181.43 264.84 180.11C266.88 179.23 268 178.15 268.55 177.48V177.47C268.83 177.12 268.96 176.88 268.99 176.81L269 176.8L272.16 179.83Z" fill="#030303" stroke="#030303" stroke-width="0.7801" stroke-miterlimit="10"/>
<path d="M278.94 127.82L269.14 150.43C269.14 148.92 266.49 149.94 264.08 151.2C265.45 150.21 267.01 148.86 268.49 147.07C270.88 144.17 265.86 146.18 261.79 148.08C264.43 146.61 267.26 144.68 267.29 143.11C267.32 141.33 263.13 143.4 260.22 145.13C263.25 142.72 267.13 138.91 263.63 139.32C261.78 139.54 258.68 141.43 255.58 143.65C253.75 144.95 251.94 146.38 250.37 147.65C250.07 147.89 249.78 148.14 249.5 148.37L253.04 140.2L261.65 120.32L268.71 123.38L278.94 127.82Z" fill="#FFC709" stroke="#030303" stroke-width="0.7801" stroke-miterlimit="10"/>
<path d="M314.74 122.24C310.54 122.02 307.07 126.62 305.76 129.29C297.74 126.52 278.26 120.48 268.7 123.38L261.64 120.32L253.03 140.2C252.67 140.18 252.27 140.21 251.81 140.3C247.04 141.25 247.2 146.8 247.68 149.87C247.88 151.08 248.11 151.9 248.11 151.9L246.7 155.59C246.33 154.7 246 153.83 245.69 152.96C234.85 122.29 258.59 100.24 258.59 100.24C285.73 81.66 319.75 122.51 314.74 122.24Z" fill="#030303" stroke="#030303" stroke-width="0.7801" stroke-miterlimit="10"/>
<path d="M246.7 155.59L245.34 155.13C245.47 154.42 245.59 153.7 245.69 152.96C245.99 153.83 246.33 154.7 246.7 155.59Z" stroke="#030303" stroke-width="0.7801" stroke-miterlimit="10" stroke-linecap="round" stroke-linejoin="round"/>
<path d="M291.02 273.99L290.67 274.03L225.23 282.68L224.62 282.77L220.49 235.82H288.64L291.02 273.99Z" fill="white" stroke="#030303" stroke-width="0.7801" stroke-miterlimit="10" stroke-linecap="round" stroke-linejoin="round"/>
<path d="M311.92 314.93C310.98 318.73 303.25 324.92 293.34 331.48L275.35 342.59C270.51 345.42 265.76 348.09 261.49 350.44C258.02 352.36 254.87 354.06 252.27 355.45C247.69 357.9 244.8 359.38 244.8 359.38C244.8 359.38 239.53 361.5 236.75 360.92C233.97 360.35 233.56 354.81 233.95 353.76C234.17 353.19 242.1 344.2 252.27 334.62C254.92 332.12 257.73 329.58 260.58 327.14C257.84 324.72 255.03 322.4 252.27 320.21C249.94 318.36 247.65 316.59 245.44 314.91C236.48 308.09 228.99 302.7 226.91 298.92C225.23 295.88 224.64 292.51 224.6 289.34C224.55 286.92 224.84 284.62 225.24 282.66L290.68 274.01C293.09 277.26 295.91 281.19 298.71 285.35C299.63 286.71 300.54 288.09 301.42 289.48C303.87 293.31 306.19 297.21 308.02 300.85C310.96 306.66 312.7 311.79 311.92 314.93Z" fill="white" stroke="#030303" stroke-width="0.7801" stroke-miterlimit="10" stroke-linecap="round" stroke-linejoin="round"/>
<path d="M298.7 378.72C295.67 379.77 293.75 381.53 282.58 354.82C280.8 350.56 278.3 346.48 275.34 342.59L293.33 331.48C299.32 350.87 301.02 370.99 301.02 370.99C301.02 370.99 301.73 377.67 298.7 378.72Z" fill="#030303" stroke="#030303" stroke-width="0.7801" stroke-miterlimit="10"/>
<path d="M260.58 327.16C260.58 327.16 268.34 320.74 279.24 314.93C290.14 309.13 268.35 292.62 268.35 292.62C268.35 292.62 276.11 314.55 273.11 318.44" fill="#030303"/>
<path d="M260.58 327.16C260.58 327.16 268.34 320.74 279.24 314.93C290.14 309.13 268.35 292.62 268.35 292.62C268.35 292.62 276.11 314.55 273.11 318.44" stroke="#030303" stroke-width="0.7801" stroke-miterlimit="10"/>
<path d="M291.01 375.56C291.01 375.56 297.51 378.72 302.78 375.56C308.05 372.4 326.86 373.7 324.75 380.08L290.31 380.56L291.01 375.56Z" fill="#030303" stroke="#030303" stroke-width="0.7801" stroke-miterlimit="10"/>
<path d="M233.21 351.85C233.21 351.85 235.37 358.75 241.29 360.41C247.21 362.07 259.17 376.64 253.08 379.49L229.09 354.77L233.21 351.85Z" fill="#030303" stroke="#030303" stroke-width="0.7801" stroke-miterlimit="10"/>
<path d="M541.43 155.59L506.24 246.93C521.92 225.84 549.87 160.14 549.87 160.14" stroke="#030303" stroke-width="0.7801" stroke-miterlimit="10" stroke-linecap="round" stroke-linejoin="round"/>
<path d="M540.9 208.7L506.24 246.92" stroke="#030303" stroke-width="0.7801" stroke-miterlimit="10" stroke-linecap="round" stroke-linejoin="round"/>
<path d="M495.56 82.97C495.56 82.97 494.24 113.28 492.66 119.61" stroke="#030303" stroke-width="0.7801" stroke-miterlimit="10" stroke-linecap="round" stroke-linejoin="round"/>
<path d="M483.44 102.74C483.44 102.74 506.24 140.04 506.24 166.2" stroke="#030303" stroke-width="0.7801" stroke-miterlimit="10" stroke-linecap="round" stroke-linejoin="round"/>
<path d="M293.775 141.04C294.402 139.5 294.545 138.104 294.095 137.921C293.644 137.737 292.772 138.837 292.145 140.377C291.518 141.917 291.375 143.314 291.826 143.497C292.276 143.68 293.149 142.58 293.775 141.04Z" fill="#030303"/>
<path d="M70.95 368.98L71.3 369.33L71.99 363.47L71.55 363.91L70.95 368.98Z" fill="#030303"/>
<path d="M25.36 372.69L24.92 372.24L25.45 376.78L25.8 376.43L25.36 372.69Z" fill="#030303"/>
<path d="M26.6 311.37L26.99 310.98H20.98L21.37 311.37H26.6Z" fill="#030303"/>
<path d="M18.2 311.37H20.27L19.88 310.98H17.76L18.39 316.42L18.84 316.87L18.2 311.37Z" fill="#030303"/>
<path d="M51.43 390.72H44.74L44.62 390.84L44.89 391.11H51.28L51.55 390.84L51.43 390.72Z" fill="#030303"/>
<path d="M68.78 390.91L68.8 390.75L68.71 390.84L68.78 390.91Z" fill="#030303"/>
<path d="M34.63 311.37L35.02 310.98H29.01L29.4 311.37H34.63Z" fill="#030303"/>
<path d="M52.1 311.07L51.8 311.37H52.4L52.1 311.07Z" fill="#030303"/>
<path d="M25.91 377.41L25.56 377.77L25.83 380.09L26.28 380.53L25.91 377.41Z" fill="#030303"/>
<path d="M28 311.07L27.7 311.37H28.3L28 311.07Z" fill="#030303"/>
<path d="M43.39 390.72H36.7L36.58 390.84L36.85 391.11H43.24L43.51 390.84L43.39 390.72Z" fill="#030303"/>
<path d="M42.66 311.37L43.05 310.98H37.04L37.43 311.37H42.66Z" fill="#030303"/>
<path d="M73.47 347.41L73.82 347.76L74.11 345.28L73.67 345.72L73.47 347.41Z" fill="#030303"/>
<path d="M21.71 341.45L21.36 341.8L21.58 343.71L22.03 344.15L21.71 341.45Z" fill="#030303"/>
<path d="M21.11 336.31L20.67 335.86L21.24 340.82L21.6 340.47L21.11 336.31Z" fill="#030303"/>
<path d="M18.98 318.12L18.54 317.67L18.72 319.24L19.08 318.89L18.98 318.12Z" fill="#030303"/>
<path d="M22.55 348.65L22.2 349L22.64 352.8L23.09 353.25L22.55 348.65Z" fill="#030303"/>
<path d="M36.03 311.07L35.73 311.37H36.33L36.03 311.07Z" fill="#030303"/>
<path d="M71.79 361.79L72.14 362.14L72.87 355.94L72.52 355.58L71.79 361.79Z" fill="#030303"/>
<path d="M20.87 334.26L20.52 334.61V334.62L20.96 335.06L20.87 334.26Z" fill="#030303"/>
<path d="M72.98 354.95L73.05 354.37L72.73 354.69L72.98 354.95Z" fill="#030303"/>
<path d="M22.17 345.4L21.73 344.96L22.08 348.01L22.44 347.66L22.17 345.4Z" fill="#030303"/>
<path d="M73.82 344.47L74.26 344.03L74.55 341.55L74.2 341.2L73.82 344.47Z" fill="#030303"/>
<path d="M19.19 319.88L18.84 320.23L19.46 325.52L19.9 325.96L19.19 319.88Z" fill="#030303"/>
<path d="M35.36 390.72H28.67L28.55 390.84L28.82 391.11H35.21L35.48 390.84L35.36 390.72Z" fill="#030303"/>
<path d="M26.42 381.78L25.98 381.34L26.29 383.97L26.64 383.62L26.42 381.78Z" fill="#030303"/>
<path d="M26.75 384.61L26.4 384.96L26.89 389.19L27.34 389.63L26.75 384.61Z" fill="#030303"/>
<path d="M20.05 327.21L19.97 327.13L19.68 327.42L20.4 333.63L20.76 333.27L20.05 327.21Z" fill="#030303"/>
<path d="M27.04 390.43L27.12 391.11H27.18L27.45 390.84L27.04 390.43Z" fill="#030303"/>
<path d="M66.76 311.37L67.15 310.98H61.14L61.53 311.37H66.76Z" fill="#030303"/>
<path d="M75.8 327.53L75.15 333.02L75.51 333.37L76.23 327.17L76.2 327.13L75.8 327.53Z" fill="#030303"/>
<path d="M69.57 380.85L70.01 380.41L70.35 377.51L70 377.16L69.57 380.85Z" fill="#030303"/>
<path d="M74.79 311.37L75.18 310.98H68.92L69.31 311.37H74.79Z" fill="#030303"/>
<path d="M74.88 335.38L75.32 334.93L75.39 334.36L75.04 334.01L74.88 335.38Z" fill="#030303"/>
<path d="M70.11 376.18L70.46 376.53L70.93 372.56L70.48 373.01L70.11 376.18Z" fill="#030303"/>
<path d="M75.99 325.83L76.2 326.03L76.39 325.84L77.04 320.21L76.69 319.86L75.99 325.83Z" fill="#030303"/>
<path d="M72.75 353.57L73.2 353.13L73.71 348.74L73.36 348.39L72.75 353.57Z" fill="#030303"/>
<path d="M24.12 362.04L23.39 355.84L23.04 356.19L23.71 361.9L23.98 362.18L24.12 362.04Z" fill="#030303"/>
<path d="M69.27 383.37L69.62 383.72L69.86 381.66L69.42 382.1L69.27 383.37Z" fill="#030303"/>
<path d="M76.81 318.87L77.16 319.22L77.3 317.99L76.86 318.44L76.81 318.87Z" fill="#030303"/>
<path d="M67.49 390.72H60.8L60.68 390.84L60.95 391.11H67.34L67.61 390.84L67.49 390.72Z" fill="#030303"/>
<path d="M70.63 371.76L71.07 371.32L71.19 370.32L70.84 369.97L70.63 371.76Z" fill="#030303"/>
<path d="M25.07 370.22L24.72 370.57L24.77 371L25.21 371.44L25.07 370.22Z" fill="#030303"/>
<path d="M60.13 311.07L59.83 311.37H60.43L60.13 311.07Z" fill="#030303"/>
<path d="M77.68 311.37L77 317.19L77.45 316.74L78.12 310.98H76.28L75.89 311.37H77.68Z" fill="#030303"/>
<path d="M24.3 363.59L23.98 363.28L23.88 363.38L24.61 369.59L24.96 369.24L24.3 363.59Z" fill="#030303"/>
<path d="M68.5 389.95L68.95 389.51L69.51 384.71L69.16 384.35L68.5 389.95Z" fill="#030303"/>
<path d="M44.06 311.07L43.76 311.37H44.37L44.06 311.07Z" fill="#030303"/>
<path d="M59.46 390.72H52.77L52.65 390.84L52.92 391.11H59.31L59.58 390.84L59.46 390.72Z" fill="#030303"/>
<path d="M74.31 340.21L74.66 340.57L75.18 336.18L74.73 336.63L74.31 340.21Z" fill="#030303"/>
<path d="M58.73 311.37L59.12 310.98H53.11L53.5 311.37H58.73Z" fill="#030303"/>
<path d="M23.23 354.5L22.79 354.05L22.92 355.2L23.28 354.85L23.23 354.5Z" fill="#030303"/>
<path d="M50.7 311.37L51.08 310.98H45.08L45.47 311.37H50.7Z" fill="#030303"/>
<path d="M68.03 311.2L67.86 311.37H68.2L68.03 311.2Z" fill="#030303"/>
<path d="M19.97 319.1L19.42 318.55L19.08 318.89L18.72 319.24L18.84 320.23L19.19 319.88L19.97 319.1Z" fill="#030303"/>
<path d="M23.98 313.98L24.53 314.53L27.7 311.37L28 311.07L27.91 310.98H26.99L26.6 311.37L23.98 313.98Z" fill="#030303"/>
<path d="M23.4255 314.534L19.9607 317.999L20.5122 318.55L23.977 315.085L23.4255 314.534Z" fill="#030303"/>
<path d="M31.4633 314.528L27.9986 317.993L28.5501 318.545L32.0149 315.08L31.4633 314.528Z" fill="#030303"/>
<path d="M27.447 318.55L23.9823 322.015L24.5338 322.566L27.9986 319.101L27.447 318.55Z" fill="#030303"/>
<path d="M32.02 313.98L32.57 314.53L35.73 311.37L36.03 311.07L35.94 310.98H35.02L34.63 311.37L32.02 313.98Z" fill="#030303"/>
<path d="M23.4239 322.564L19.9591 326.029L20.5106 326.581L23.9754 323.116L23.4239 322.564Z" fill="#030303"/>
<path d="M19.6 326.77L19.68 327.42L19.97 327.13L19.6 326.77Z" fill="#030303"/>
<path d="M40.05 313.98L40.6 314.53L43.76 311.37L44.06 311.07L43.98 310.98H43.05L42.66 311.37L40.05 313.98Z" fill="#030303"/>
<path d="M27.4452 326.581L23.9804 330.046L24.5319 330.597L27.9967 327.132L27.4452 326.581Z" fill="#030303"/>
<path d="M31.4614 322.559L27.9966 326.024L28.5481 326.576L32.0129 323.111L31.4614 322.559Z" fill="#030303"/>
<path d="M23.98 331.15L23.43 330.6L20.76 333.27L20.4 333.63L20.52 334.61L20.87 334.26L23.98 331.15Z" fill="#030303"/>
<path d="M35.4777 318.552L32.0129 322.017L32.5644 322.568L36.0292 319.104L35.4777 318.552Z" fill="#030303"/>
<path d="M39.4941 314.531L36.0293 317.995L36.5808 318.547L40.0456 315.082L39.4941 314.531Z" fill="#030303"/>
<path d="M43.5155 318.547L40.0508 322.011L40.6023 322.563L44.0671 319.098L43.5155 318.547Z" fill="#030303"/>
<path d="M47.5247 314.532L44.0599 317.997L44.6114 318.549L48.0762 315.084L47.5247 314.532Z" fill="#030303"/>
<path d="M48.08 313.98L48.63 314.53L51.8 311.37L52.1 311.07L52.01 310.98H51.08L50.7 311.37L48.08 313.98Z" fill="#030303"/>
<path d="M27.4434 334.611L23.9786 338.076L24.5301 338.628L27.9949 335.163L27.4434 334.611Z" fill="#030303"/>
<path d="M23.98 339.18L23.43 338.63L21.6 340.47L21.24 340.82L21.36 341.8L21.71 341.45L23.98 339.18Z" fill="#030303"/>
<path d="M35.4758 326.582L32.011 330.047L32.5625 330.599L36.0273 327.134L35.4758 326.582Z" fill="#030303"/>
<path d="M39.4922 322.561L36.0274 326.026L36.5789 326.577L40.0437 323.113L39.4922 322.561Z" fill="#030303"/>
<path d="M31.4667 330.597L28.0019 334.062L28.5535 334.613L32.0183 331.149L31.4667 330.597Z" fill="#030303"/>
<path d="M55.5555 314.534L52.0907 317.999L52.6422 318.55L56.107 315.086L55.5555 314.534Z" fill="#030303"/>
<path d="M43.5139 326.577L40.0491 330.042L40.6006 330.594L44.0654 327.129L43.5139 326.577Z" fill="#030303"/>
<path d="M51.5462 318.548L48.0814 322.013L48.6329 322.565L52.0977 319.1L51.5462 318.548Z" fill="#030303"/>
<path d="M35.4742 334.613L32.0094 338.078L32.5609 338.629L36.0257 335.165L35.4742 334.613Z" fill="#030303"/>
<path d="M23.98 347.21L23.43 346.66L22.44 347.66L22.08 348.01L22.2 349L22.55 348.65L23.98 347.21Z" fill="#030303"/>
<path d="M27.4417 342.642L23.9769 346.107L24.5284 346.658L27.9932 343.194L27.4417 342.642Z" fill="#030303"/>
<path d="M39.4974 330.599L36.0327 334.063L36.5842 334.615L40.049 331.15L39.4974 330.599Z" fill="#030303"/>
<path d="M47.523 322.563L44.0582 326.028L44.6097 326.579L48.0745 323.114L47.523 322.563Z" fill="#030303"/>
<path d="M56.11 313.98L56.66 314.53L59.83 311.37L60.13 311.07L60.04 310.98H59.12L58.73 311.37L56.11 313.98Z" fill="#030303"/>
<path d="M31.4651 338.628L28.0003 342.092L28.5518 342.644L32.0166 339.179L31.4651 338.628Z" fill="#030303"/>
<path d="M47.5282 330.601L44.0634 334.065L44.6149 334.617L48.0797 331.152L47.5282 330.601Z" fill="#030303"/>
<path d="M63.5932 314.529L60.1284 317.994L60.6799 318.545L64.1447 315.081L63.5932 314.529Z" fill="#030303"/>
<path d="M31.4632 346.658L27.9984 350.123L28.5499 350.675L32.0147 347.21L31.4632 346.658Z" fill="#030303"/>
<path d="M59.5768 318.551L56.112 322.015L56.6635 322.567L60.1283 319.102L59.5768 318.551Z" fill="#030303"/>
<path d="M39.4957 338.63L36.0309 342.094L36.5824 342.646L40.0472 339.181L39.4957 338.63Z" fill="#030303"/>
<path d="M43.5119 334.608L40.0471 338.073L40.5986 338.624L44.0634 335.16L43.5119 334.608Z" fill="#030303"/>
<path d="M23.98 355.25L23.43 354.69L23.28 354.85L22.92 355.2L23.04 356.19L23.39 355.84L23.98 355.25Z" fill="#030303"/>
<path d="M35.4723 342.644L32.0075 346.109L32.559 346.66L36.0238 343.195L35.4723 342.644Z" fill="#030303"/>
<path d="M51.5635 326.593L48.0982 330.058L48.6498 330.61L52.1151 327.145L51.5635 326.593Z" fill="#030303"/>
<path d="M64.15 313.98L64.7 314.53L67.86 311.37L68.03 311.2L67.81 310.98H67.15L66.76 311.37L64.15 313.98Z" fill="#030303"/>
<path d="M27.4469 350.68L23.9821 354.145L24.5336 354.696L27.9984 351.231L27.4469 350.68Z" fill="#030303"/>
<path d="M55.5605 322.558L52.0957 326.023L52.6472 326.574L56.112 323.109L55.5605 322.558Z" fill="#030303"/>
<path d="M63.5913 322.56L60.1265 326.024L60.678 326.576L64.1428 323.111L63.5913 322.56Z" fill="#030303"/>
<path d="M47.5263 338.631L44.0615 342.096L44.613 342.648L48.0778 339.183L47.5263 338.631Z" fill="#030303"/>
<path d="M72.05 314.11L72.6 314.66L75.89 311.37L76.28 310.98H75.18L74.79 311.37L72.05 314.11Z" fill="#030303"/>
<path d="M39.4938 346.66L36.029 350.125L36.5805 350.677L40.0453 347.212L39.4938 346.66Z" fill="#030303"/>
<path d="M71.5024 314.659L68.1649 317.997L68.7164 318.549L72.054 315.211L71.5024 314.659Z" fill="#030303"/>
<path d="M35.4775 350.682L32.0127 354.147L32.5642 354.698L36.029 351.233L35.4775 350.682Z" fill="#030303"/>
<path d="M31.4613 354.689L27.9965 358.154L28.548 358.705L32.0128 355.241L31.4613 354.689Z" fill="#030303"/>
<path d="M55.5658 330.595L52.1011 334.06L52.6526 334.612L56.1174 331.147L55.5658 330.595Z" fill="#030303"/>
<path d="M43.51 342.639L40.0452 346.104L40.5967 346.655L44.0615 343.19L43.51 342.639Z" fill="#030303"/>
<path d="M67.6077 318.552L64.1429 322.017L64.6944 322.569L68.1592 319.104L67.6077 318.552Z" fill="#030303"/>
<path d="M59.575 326.581L56.1102 330.046L56.6617 330.597L60.1265 327.133L59.575 326.581Z" fill="#030303"/>
<path d="M51.5426 334.61L48.0778 338.075L48.6293 338.626L52.0941 335.162L51.5426 334.61Z" fill="#030303"/>
<path d="M23.85 363.15L23.88 363.38L23.98 363.28L23.85 363.15Z" fill="#030303"/>
<path d="M23.98 362.18L24.53 362.73L28 359.26L27.45 358.71L24.12 362.04L23.98 362.18Z" fill="#030303"/>
<path d="M47.5245 346.662L44.0597 350.127L44.6113 350.678L48.076 347.214L47.5245 346.662Z" fill="#030303"/>
<path d="M67.6058 326.583L64.141 330.048L64.6925 330.599L68.1573 327.134L67.6058 326.583Z" fill="#030303"/>
<path d="M59.5733 334.612L56.1085 338.076L56.66 338.628L60.1248 335.163L59.5733 334.612Z" fill="#030303"/>
<path d="M51.5407 342.64L48.0759 346.105L48.6274 346.657L52.0922 343.192L51.5407 342.64Z" fill="#030303"/>
<path d="M43.5154 350.676L40.0506 354.141L40.6021 354.693L44.0669 351.228L43.5154 350.676Z" fill="#030303"/>
<path d="M76.07 318.13L76.62 318.68L76.86 318.44L77.3 317.99L77.45 316.74L77 317.19L76.07 318.13Z" fill="#030303"/>
<path d="M71.6221 322.561L68.1573 326.026L68.7089 326.578L72.1736 323.113L71.6221 322.561Z" fill="#030303"/>
<path d="M35.4758 358.712L32.011 362.177L32.5625 362.729L36.0273 359.264L35.4758 358.712Z" fill="#030303"/>
<path d="M75.5098 318.676L72.1722 322.013L72.7238 322.565L76.0613 319.227L75.5098 318.676Z" fill="#030303"/>
<path d="M28 367.29L27.45 366.74L24.96 369.24L24.61 369.59L24.72 370.57L25.07 370.22L28 367.29Z" fill="#030303"/>
<path d="M55.5571 338.633L52.0923 342.098L52.6438 342.65L56.1086 339.185L55.5571 338.633Z" fill="#030303"/>
<path d="M31.4665 362.727L28.0017 366.192L28.5532 366.743L32.018 363.278L31.4665 362.727Z" fill="#030303"/>
<path d="M63.5965 330.597L60.1317 334.062L60.6832 334.614L64.148 331.149L63.5965 330.597Z" fill="#030303"/>
<path d="M39.492 354.691L36.0272 358.156L36.5788 358.707L40.0435 355.242L39.492 354.691Z" fill="#030303"/>
<path d="M43.5135 358.707L40.0487 362.172L40.6002 362.724L44.065 359.259L43.5135 358.707Z" fill="#030303"/>
<path d="M28 375.33L27.45 374.78L25.8 376.43L25.45 376.78L25.56 377.77L25.91 377.41L28 375.33Z" fill="#030303"/>
<path d="M51.546 350.678L48.0812 354.143L48.6327 354.695L52.0975 351.23L51.546 350.678Z" fill="#030303"/>
<path d="M71.6272 330.599L68.1624 334.064L68.7139 334.616L72.1787 331.151L71.6272 330.599Z" fill="#030303"/>
<path d="M39.4973 362.729L36.0325 366.194L36.584 366.745L40.0488 363.28L39.4973 362.729Z" fill="#030303"/>
<path d="M55.5551 346.664L52.0903 350.129L52.6419 350.68L56.1067 347.215L55.5551 346.664Z" fill="#030303"/>
<path d="M67.6037 334.614L64.1389 338.079L64.6905 338.63L68.1552 335.165L67.6037 334.614Z" fill="#030303"/>
<path d="M31.4647 370.758L27.9999 374.222L28.5514 374.774L32.0162 371.309L31.4647 370.758Z" fill="#030303"/>
<path d="M63.615 338.642L60.1498 342.107L60.7013 342.658L64.1666 339.194L63.615 338.642Z" fill="#030303"/>
<path d="M35.4738 366.743L32.009 370.208L32.5606 370.759L36.0253 367.295L35.4738 366.743Z" fill="#030303"/>
<path d="M59.5715 342.642L56.1067 346.107L56.6582 346.659L60.123 343.194L59.5715 342.642Z" fill="#030303"/>
<path d="M47.5226 354.693L44.0578 358.158L44.6094 358.709L48.0742 355.244L47.5226 354.693Z" fill="#030303"/>
<path d="M76.2 327.13L75.64 326.58L72.18 330.05L72.73 330.6L75.8 327.53L76.2 327.13Z" fill="#030303"/>
<path d="M76.35 326.18L76.39 325.84L76.2 326.03L76.35 326.18Z" fill="#030303"/>
<path d="M35.472 374.774L32.0072 378.238L32.5588 378.79L36.0236 375.325L35.472 374.774Z" fill="#030303"/>
<path d="M71.6255 338.629L68.1607 342.094L68.7122 342.646L72.177 339.181L71.6255 338.629Z" fill="#030303"/>
<path d="M63.593 346.659L60.1282 350.123L60.6797 350.675L64.1445 347.21L63.593 346.659Z" fill="#030303"/>
<path d="M55.5604 354.687L52.0956 358.152L52.6471 358.704L56.1119 355.239L55.5604 354.687Z" fill="#030303"/>
<path d="M67.6228 342.658L64.158 346.123L64.7096 346.674L68.1744 343.209L67.6228 342.658Z" fill="#030303"/>
<path d="M28 383.36L27.45 382.81L26.64 383.62L26.29 383.97L26.4 384.96L26.75 384.61L28 383.36Z" fill="#030303"/>
<path d="M43.5117 366.738L40.0469 370.203L40.5984 370.754L44.0632 367.289L43.5117 366.738Z" fill="#030303"/>
<path d="M47.528 362.73L44.0632 366.195L44.6147 366.747L48.0795 363.282L47.528 362.73Z" fill="#030303"/>
<path d="M59.5767 350.68L56.1119 354.145L56.6634 354.696L60.1282 351.232L59.5767 350.68Z" fill="#030303"/>
<path d="M31.4835 378.805L28.0187 382.271L28.5703 382.822L32.0351 379.357L31.4835 378.805Z" fill="#030303"/>
<path d="M39.4954 370.759L36.0306 374.224L36.5821 374.776L40.0469 371.311L39.4954 370.759Z" fill="#030303"/>
<path d="M51.5442 358.709L48.0794 362.174L48.6309 362.725L52.0957 359.26L51.5442 358.709Z" fill="#030303"/>
<path d="M72.18 338.08L72.73 338.63L74.73 336.63L75.18 336.18L75.32 334.93L74.88 335.38L72.18 338.08Z" fill="#030303"/>
<path d="M63.591 354.689L60.1262 358.154L60.6778 358.706L64.1425 355.241L63.591 354.689Z" fill="#030303"/>
<path d="M28.55 390.84L28.67 390.72L32.02 387.38L31.47 386.82L28 390.29L28.55 390.84Z" fill="#030303"/>
<path d="M55.5586 362.732L52.0938 366.197L52.6453 366.749L56.1101 363.284L55.5586 362.732Z" fill="#030303"/>
<path d="M59.5748 358.711L56.11 362.176L56.6616 362.727L60.1263 359.262L59.5748 358.711Z" fill="#030303"/>
<path d="M43.5097 374.768L40.0449 378.233L40.5965 378.785L44.0612 375.32L43.5097 374.768Z" fill="#030303"/>
<path d="M47.5261 370.761L44.0613 374.226L44.6128 374.778L48.0776 371.313L47.5261 370.761Z" fill="#030303"/>
<path d="M71.6236 346.661L68.1588 350.125L68.7104 350.677L72.1751 347.212L71.6236 346.661Z" fill="#030303"/>
<path d="M39.4935 378.79L36.0287 382.255L36.5802 382.806L40.045 379.341L39.4935 378.79Z" fill="#030303"/>
<path d="M51.5423 366.74L48.0775 370.204L48.6291 370.756L52.0938 367.291L51.5423 366.74Z" fill="#030303"/>
<path d="M35.4773 382.812L32.0125 386.276L32.5641 386.828L36.0288 383.363L35.4773 382.812Z" fill="#030303"/>
<path d="M67.6074 350.682L64.1426 354.147L64.6941 354.698L68.1589 351.234L67.6074 350.682Z" fill="#030303"/>
<path d="M72.18 346.11L72.73 346.66L73.67 345.72L74.11 345.28L74.26 344.03L73.82 344.47L72.18 346.11Z" fill="#030303"/>
<path d="M27.18 391.11H27.72L27.45 390.84L27.18 391.11Z" fill="#030303"/>
<path d="M72.18 354.14L72.73 354.69L73.05 354.37L73.2 353.13L72.75 353.57L72.18 354.14Z" fill="#030303"/>
<path d="M59.573 366.742L56.1082 370.206L56.6598 370.758L60.1246 367.293L59.573 366.742Z" fill="#030303"/>
<path d="M51.5405 374.77L48.0757 378.235L48.6273 378.787L52.092 375.322L51.5405 374.77Z" fill="#030303"/>
<path d="M55.5638 370.756L52.099 374.221L52.6505 374.772L56.1153 371.308L55.5638 370.756Z" fill="#030303"/>
<path d="M43.515 382.806L40.0502 386.271L40.6017 386.823L44.0665 383.358L43.515 382.806Z" fill="#030303"/>
<path d="M67.6054 358.713L64.1406 362.177L64.6922 362.729L68.157 359.264L67.6054 358.713Z" fill="#030303"/>
<path d="M36.58 390.84L36.7 390.72L40.05 387.38L39.5 386.82L36.03 390.29L36.58 390.84Z" fill="#030303"/>
<path d="M71.6218 354.691L68.157 358.156L68.7086 358.708L72.1734 355.243L71.6218 354.691Z" fill="#030303"/>
<path d="M47.5325 378.781L44.0677 382.246L44.6193 382.798L48.084 379.333L47.5325 378.781Z" fill="#030303"/>
<path d="M63.5963 362.727L60.1315 366.192L60.683 366.743L64.1478 363.279L63.5963 362.727Z" fill="#030303"/>
<path d="M35.21 391.11H35.75L35.48 390.84L35.21 391.11Z" fill="#030303"/>
<path d="M59.5712 374.772L56.1064 378.237L56.658 378.788L60.1228 375.324L59.5712 374.772Z" fill="#030303"/>
<path d="M67.6037 366.743L64.1389 370.208L64.6905 370.76L68.1553 367.295L67.6037 366.743Z" fill="#030303"/>
<path d="M44.62 390.84L44.74 390.72L48.08 387.38L47.53 386.82L44.06 390.29L44.62 390.84Z" fill="#030303"/>
<path d="M71.63 362.73L68.16 366.19L68.71 366.74L71.55 363.91L71.99 363.47L72.03 363.13L71.63 362.73Z" fill="#030303"/>
<path d="M51.5374 382.819L48.0726 386.284L48.6242 386.835L52.0889 383.37L51.5374 382.819Z" fill="#030303"/>
<path d="M55.555 378.794L52.0902 382.258L52.6418 382.81L56.1066 379.345L55.555 378.794Z" fill="#030303"/>
<path d="M63.5945 370.758L60.1297 374.223L60.6812 374.774L64.146 371.309L63.5945 370.758Z" fill="#030303"/>
<path d="M43.24 391.11H43.78L43.51 390.84L43.24 391.11Z" fill="#030303"/>
<path d="M52.65 390.84L52.77 390.72L56.11 387.38L55.56 386.82L52.1 390.29L52.65 390.84Z" fill="#030303"/>
<path d="M68.16 374.23L68.71 374.78L70.48 373.01L70.93 372.56L71.07 371.32L70.63 371.76L68.16 374.23Z" fill="#030303"/>
<path d="M59.5763 382.81L56.1115 386.275L56.6631 386.826L60.1279 383.361L59.5763 382.81Z" fill="#030303"/>
<path d="M67.6019 374.774L64.1371 378.239L64.6887 378.79L68.1535 375.326L67.6019 374.774Z" fill="#030303"/>
<path d="M63.5927 378.789L60.1279 382.253L60.6795 382.805L64.1442 379.34L63.5927 378.789Z" fill="#030303"/>
<path d="M51.28 391.11H51.82L51.55 390.84L51.28 391.11Z" fill="#030303"/>
<path d="M68.16 382.26L68.71 382.81L69.42 382.1L69.86 381.66L70.01 380.41L69.57 380.85L68.16 382.26Z" fill="#030303"/>
<path d="M67.6071 382.812L64.1423 386.277L64.6939 386.828L68.1587 383.363L67.6071 382.812Z" fill="#030303"/>
<path d="M60.68 390.84L60.8 390.72L64.15 387.38L63.6 386.82L60.13 390.29L60.68 390.84Z" fill="#030303"/>
<path d="M59.31 391.11H59.85L59.58 390.84L59.31 391.11Z" fill="#030303"/>
<path d="M68.16 390.29L68.71 390.84L68.8 390.75L68.95 389.51L68.5 389.95L68.16 390.29Z" fill="#030303"/>
<path d="M67.34 391.11H67.88L67.61 390.84L67.34 391.11Z" fill="#030303"/>
<path d="M60.43 311.37L63.6 314.53L64.15 315.08L67.61 318.55L68.16 319.1L71.63 322.56L72.18 323.12L75.64 326.58L76.2 327.13L76.23 327.17L76.35 326.18L76.2 326.03L75.99 325.83L72.73 322.56L72.18 322.01L68.71 318.55L68.16 318L64.7 314.53L64.15 313.98L61.53 311.37L61.14 310.98H60.04L60.13 311.07L60.43 311.37Z" fill="#030303"/>
<path d="M52.4 311.37L55.56 314.53L56.11 315.08L59.58 318.55L60.13 319.1L63.6 322.56L64.15 323.12L67.61 326.58L68.16 327.13L71.63 330.6L72.18 331.15L75.04 334.01L75.39 334.36L75.51 333.37L75.15 333.02L72.73 330.6L72.18 330.05L68.71 326.58L68.16 326.03L64.7 322.56L64.15 322.01L60.68 318.55L60.13 318L56.66 314.53L56.11 313.98L53.5 311.37L53.11 310.98H52.01L52.1 311.07L52.4 311.37Z" fill="#030303"/>
<path d="M44.37 311.37L47.53 314.53L48.08 315.08L51.55 318.55L52.1 319.1L55.56 322.57L56.11 323.12L59.58 326.58L60.13 327.13L63.6 330.6L64.15 331.15L67.61 334.61L68.16 335.16L71.63 338.63L72.18 339.18L74.2 341.2L74.55 341.55L74.66 340.57L74.31 340.21L72.73 338.63L72.18 338.08L68.71 334.61L68.16 334.06L64.7 330.6L64.15 330.05L60.68 326.58L60.13 326.03L56.66 322.57L56.11 322.01L52.65 318.55L52.1 318L48.63 314.53L48.08 313.98L45.47 311.37L45.08 310.98H43.98L44.06 311.07L44.37 311.37Z" fill="#030303"/>
<path d="M36.33 311.37L39.5 314.53L40.05 315.08L43.51 318.55L44.06 319.1L47.53 322.56L48.08 323.12L51.55 326.58L52.1 327.13L55.56 330.6L56.11 331.15L59.58 334.61L60.13 335.16L63.6 338.63L64.15 339.18L67.61 342.65L68.16 343.2L71.63 346.66L72.18 347.21L73.36 348.39L73.71 348.74L73.82 347.76L73.47 347.41L72.73 346.66L72.18 346.11L68.71 342.65L68.16 342.1L64.7 338.63L64.15 338.08L60.68 334.61L60.13 334.06L56.66 330.6L56.11 330.05L52.65 326.58L52.1 326.03L48.63 322.56L48.08 322.01L44.62 318.55L44.06 318L40.6 314.53L40.05 313.98L37.43 311.37L37.04 310.98H35.94L36.03 311.07L36.33 311.37Z" fill="#030303"/>
<path d="M28.3 311.37L31.47 314.53L32.02 315.08L35.48 318.55L36.03 319.1L39.5 322.56L40.05 323.12L43.51 326.58L44.06 327.13L47.53 330.6L48.08 331.15L51.55 334.61L52.1 335.16L55.56 338.63L56.11 339.18L59.58 342.65L60.13 343.2L63.6 346.66L64.15 347.21L67.61 350.68L68.16 351.23L71.63 354.69L72.18 355.25L72.52 355.58L72.87 355.94L72.98 354.95L72.73 354.69L72.18 354.14L68.71 350.68L68.16 350.13L64.7 346.66L64.15 346.11L60.68 342.65L60.13 342.1L56.66 338.63L56.11 338.08L52.65 334.61L52.1 334.06L48.63 330.6L48.08 330.05L44.62 326.58L44.06 326.03L40.6 322.56L40.05 322.01L36.58 318.55L36.03 318L32.57 314.53L32.02 313.98L29.4 311.37L29.01 310.98H27.91L28 311.07L28.3 311.37Z" fill="#030303"/>
<path d="M23.43 314.53L23.98 315.08L27.45 318.55L28 319.1L31.47 322.57L32.02 323.12L35.48 326.58L36.03 327.13L39.5 330.6L40.05 331.15L43.51 334.61L44.06 335.16L47.53 338.63L48.08 339.18L51.55 342.65L52.1 343.2L55.56 346.66L56.11 347.21L59.58 350.68L60.13 351.23L63.6 354.69L64.15 355.25L67.61 358.71L68.16 359.26L71.63 362.73L72.03 363.13L72.14 362.14L71.79 361.79L68.71 358.71L68.16 358.16L64.7 354.69L64.15 354.14L60.68 350.68L60.13 350.13L56.66 346.66L56.11 346.11L52.65 342.65L52.1 342.1L48.63 338.63L48.08 338.08L44.62 334.61L44.06 334.06L40.6 330.6L40.05 330.05L36.58 326.58L36.03 326.03L32.57 322.57L32.02 322.01L28.55 318.55L28 318L24.53 314.53L23.98 313.98L21.37 311.37L20.98 310.98H19.88L20.27 311.37L23.43 314.53Z" fill="#030303"/>
<path d="M19.42 318.55L19.97 319.1L23.43 322.56L23.98 323.12L27.45 326.58L28 327.13L31.47 330.6L32.02 331.15L35.48 334.61L36.03 335.16L39.5 338.63L40.05 339.18L43.51 342.65L44.06 343.2L47.53 346.66L48.08 347.21L51.55 350.68L52.1 351.23L55.56 354.69L56.11 355.25L59.58 358.71L60.13 359.26L63.6 362.73L64.15 363.28L67.61 366.74L68.16 367.29L70.84 369.97L71.19 370.32L71.3 369.33L70.95 368.98L68.71 366.74L68.16 366.19L64.7 362.73L64.15 362.18L60.68 358.71L60.13 358.16L56.66 354.69L56.11 354.14L52.65 350.68L52.1 350.13L48.63 346.66L48.08 346.11L44.62 342.65L44.06 342.1L40.6 338.63L40.05 338.08L36.58 334.61L36.03 334.06L32.57 330.6L32.02 330.05L28.55 326.58L28 326.03L24.53 322.56L23.98 322.01L20.52 318.55L19.97 318L18.84 316.87L18.39 316.42L18.54 317.67L18.98 318.12L19.42 318.55Z" fill="#030303"/>
<path d="M20.05 327.21L23.43 330.6L23.98 331.15L27.45 334.61L28 335.16L31.47 338.63L32.02 339.18L35.48 342.65L36.03 343.2L39.5 346.66L40.05 347.21L43.51 350.68L44.06 351.23L47.53 354.69L48.08 355.25L51.55 358.71L52.1 359.26L55.56 362.73L56.11 363.28L59.58 366.74L60.13 367.29L63.6 370.76L64.15 371.31L67.61 374.78L68.16 375.33L70 377.16L70.35 377.51L70.46 376.53L70.11 376.18L68.71 374.78L68.16 374.23L64.7 370.76L64.15 370.21L60.68 366.74L60.13 366.19L56.66 362.73L56.11 362.18L52.65 358.71L52.1 358.16L48.63 354.69L48.08 354.14L44.62 350.68L44.06 350.13L40.6 346.66L40.05 346.11L36.58 342.65L36.03 342.1L32.57 338.63L32.02 338.08L28.55 334.61L28 334.06L24.53 330.6L23.98 330.05L20.52 326.58L19.97 326.03L19.9 325.96L19.46 325.52L19.6 326.77L19.97 327.13L20.05 327.21Z" fill="#030303"/>
<path d="M23.43 338.63L23.98 339.18L27.45 342.65L28 343.2L31.47 346.66L32.02 347.21L35.48 350.68L36.03 351.23L39.5 354.69L40.05 355.25L43.51 358.71L44.06 359.26L47.53 362.73L48.08 363.28L51.55 366.74L52.1 367.29L55.56 370.76L56.11 371.31L59.58 374.78L60.13 375.33L63.6 378.79L64.15 379.34L67.61 382.81L68.16 383.36L69.16 384.35L69.51 384.71L69.62 383.72L69.27 383.37L68.71 382.81L68.16 382.26L64.7 378.79L64.15 378.24L60.68 374.78L60.13 374.23L56.66 370.76L56.11 370.21L52.65 366.74L52.1 366.19L48.63 362.73L48.08 362.18L44.62 358.71L44.06 358.16L40.6 354.69L40.05 354.14L36.58 350.68L36.03 350.13L32.57 346.66L32.02 346.11L28.55 342.65L28 342.1L24.53 338.63L23.98 338.08L20.96 335.06L20.52 334.62L20.67 335.86L21.11 336.31L23.43 338.63Z" fill="#030303"/>
<path d="M68.78 390.91L68.71 390.84L68.16 390.29L64.7 386.82L64.15 386.27L60.68 382.81L60.13 382.26L56.66 378.79L56.11 378.24L52.65 374.78L52.1 374.23L48.63 370.76L48.08 370.21L44.62 366.74L44.06 366.19L40.6 362.73L40.05 362.18L36.58 358.71L36.03 358.16L32.57 354.69L32.02 354.14L28.55 350.68L28 350.13L24.53 346.66L23.98 346.11L22.03 344.15L21.58 343.71L21.73 344.96L22.17 345.4L23.43 346.66L23.98 347.21L27.45 350.68L28 351.23L31.47 354.69L32.02 355.25L35.48 358.71L36.03 359.26L39.5 362.73L40.05 363.28L43.51 366.74L44.06 367.29L47.53 370.76L48.08 371.31L51.55 374.78L52.1 375.33L55.56 378.79L56.11 379.34L59.58 382.81L60.13 383.36L63.6 386.82L64.15 387.38L67.49 390.72L67.61 390.84L67.88 391.11H68.76L68.78 390.91Z" fill="#030303"/>
<path d="M60.13 390.29L56.66 386.82L56.11 386.27L52.65 382.81L52.1 382.26L48.63 378.79L48.08 378.24L44.62 374.78L44.06 374.23L40.6 370.76L40.05 370.21L36.58 366.74L36.03 366.19L32.57 362.73L32.02 362.18L28.55 358.71L28 358.16L24.53 354.69L23.98 354.14L23.09 353.25L22.64 352.8L22.79 354.05L23.23 354.5L23.43 354.69L23.98 355.25L27.45 358.71L28 359.26L31.47 362.73L32.02 363.28L35.48 366.74L36.03 367.29L39.5 370.76L40.05 371.31L43.51 374.78L44.06 375.33L47.53 378.79L48.08 379.34L51.55 382.81L52.1 383.36L55.56 386.82L56.11 387.38L59.46 390.72L59.58 390.84L59.85 391.11H60.95L60.68 390.84L60.13 390.29Z" fill="#030303"/>
<path d="M52.1 390.29L48.63 386.82L48.08 386.27L44.62 382.81L44.06 382.26L40.6 378.79L40.05 378.24L36.58 374.78L36.03 374.23L32.57 370.76L32.02 370.21L28.55 366.74L28 366.19L24.53 362.73L23.98 362.18L23.71 361.9L23.85 363.15L23.98 363.28L24.3 363.59L27.45 366.74L28 367.29L31.47 370.76L32.02 371.31L35.48 374.78L36.03 375.33L39.5 378.79L40.05 379.34L43.51 382.81L44.06 383.36L47.53 386.82L48.08 387.38L51.43 390.72L51.55 390.84L51.82 391.11H52.92L52.65 390.84L52.1 390.29Z" fill="#030303"/>
<path d="M44.06 390.29L40.6 386.82L40.05 386.27L36.58 382.81L36.03 382.26L32.57 378.79L32.02 378.24L28.55 374.78L28 374.23L25.21 371.44L24.77 371L24.92 372.24L25.36 372.69L27.45 374.78L28 375.33L31.47 378.79L32.02 379.34L35.48 382.81L36.03 383.36L39.5 386.82L40.05 387.38L43.39 390.72L43.51 390.84L43.78 391.11H44.89L44.62 390.84L44.06 390.29Z" fill="#030303"/>
<path d="M36.03 390.29L32.57 386.82L32.02 386.27L28.55 382.81L28 382.26L26.28 380.53L25.83 380.09L25.98 381.34L26.42 381.78L27.45 382.81L28 383.36L31.47 386.82L32.02 387.38L35.36 390.72L35.48 390.84L35.75 391.11H36.85L36.58 390.84L36.03 390.29Z" fill="#030303"/>
<path d="M28 390.29L27.34 389.63L26.89 389.19L27.04 390.43L27.45 390.84L27.72 391.11H28.82L28.55 390.84L28 390.29Z" fill="#030303"/>
<path d="M68.2 311.37L71.5 314.66L72.05 315.21L75.51 318.68L76.07 319.23L76.69 319.86L77.04 320.21L77.16 319.22L76.81 318.87L76.62 318.68L76.07 318.13L72.6 314.66L72.05 314.11L69.31 311.37L68.92 310.98H67.81L68.03 311.2L68.2 311.37Z" fill="#030303"/>
<path d="M477.99 336.97H534.49L531.99 345.02H480.48L483.69 355.34H528.79L526.24 363.57H485.92L488.41 370.58H524.06L521.39 379.21H491.09L493.48 386.91H519" stroke="#030303" stroke-width="0.7801" stroke-miterlimit="10" stroke-linecap="round" stroke-linejoin="round"/>
<path d="M157.8 17.86V40.39L138.28 29.13" fill="#FFC709"/>
<path d="M157.8 17.86V40.39L138.28 29.13" stroke="#030303" stroke-width="0.7801" stroke-miterlimit="10"/>
<path d="M157.8 62.93C162.22 62.93 166.34 61.65 169.82 59.45L157.8 40.39L146.73 59.45L146.5 59.89C149.82 61.82 153.68 62.93 157.8 62.93Z" fill="white" stroke="#030303" stroke-width="0.7801" stroke-miterlimit="10" stroke-linecap="round" stroke-linejoin="round"/>
<path d="M154.36 128.82L146.73 125.05V133.57C150.08 133.57 152.97 131.63 154.36 128.82Z" fill="#FFC709" stroke="#030303" stroke-width="0.7801" stroke-miterlimit="10"/>
<path d="M234.05 75.42C234.05 72.37 232.74 69.64 230.66 67.72L223.58 75.42V85.89C229.37 85.89 234.05 81.2 234.05 75.42Z" fill="white" stroke="#030303" stroke-width="0.7801" stroke-miterlimit="10" stroke-linecap="round" stroke-linejoin="round"/>
<path d="M268.14 152.74L265.41 159.03L262.04 157.57L268.14 152.74Z" fill="#FFC709" stroke="#030303" stroke-width="0.7801" stroke-miterlimit="10"/>
<path d="M327.455 200.719C330.364 197.81 330.364 193.093 327.455 190.183C324.546 187.274 319.829 187.274 316.919 190.183C314.01 193.093 314.01 197.81 316.919 200.719C319.829 203.629 324.546 203.629 327.455 200.719Z" fill="#FFC709" stroke="#030303" stroke-width="0.7801" stroke-miterlimit="10"/>
</g>
<defs>
<clipPath id="clip0">
<rect width="592.1" height="391.99" fill="white"/>
</clipPath>
</defs>
</svg>
