<svg xmlns="http://www.w3.org/2000/svg" viewBox="0 0 101.43 101.38"><defs><style>.cls-1{fill:#ffbc00;}</style></defs><title>bazar ehtiyaclari</title><g id="Layer_2" data-name="Layer 2"><g id="Layer_1-2" data-name="Layer 1"><path class="cls-1" d="M16.91,62.51H13.53c0-2.81,0-5.58,0-8.35,0-.25.42-.58.72-.71,2.28-1,4.59-2,6.86-3a3.23,3.23,0,0,0,1.21-1.17,7.06,7.06,0,0,0,.09-8,34.5,34.5,0,0,1-1.55-3.81,1.06,1.06,0,0,1,.24-1.38c2.22-2.17,4.4-4.36,6.57-6.58a1,1,0,0,1,1.3-.23c2.34,1,4.69,1.91,7.06,2.79a3.13,3.13,0,0,0,1.58,0,7.11,7.11,0,0,0,5.68-5.44,40.12,40.12,0,0,1,2.25-4.8,2.07,2.07,0,0,0,.06-.83q0-7.71,0-15.43c0-1.66-.56-2.23-2.2-2.23H5.73c-1.8,0-2.34.53-2.34,2.31V28.2c0,1.66.57,2.33,2.2,2.2a3.58,3.58,0,0,1,3.28,1.39c.79.94,1.73,1.76,2.61,2.62a2.19,2.19,0,0,0,.31.22V30.49h8.42V33.8h-5v9.08c-.37-.31-.6-.48-.8-.68C11.86,39.61,9.29,37,6.67,34.45a2.43,2.43,0,0,0-1.45-.61A5.12,5.12,0,0,1,0,28.51Q0,16.95,0,5.37A5.06,5.06,0,0,1,5.37,0H43.72A5,5,0,0,1,49,5.33c0,5.14,0,10.28,0,15.42v1.18h3.38V20.81c0-5.1,0-10.21,0-15.31C52.41,2.12,54.5,0,57.86,0H96a5.05,5.05,0,0,1,5.42,5.41q0,11.5,0,23a5.13,5.13,0,0,1-5.26,5.4,2.19,2.19,0,0,0-1.35.57C92,37.17,89.23,40,86.27,42.94v-9.1H81.2V30.51h8.38v4.35c1.18-1.2,2.18-2.12,3.06-3.14a3.07,3.07,0,0,1,3.1-1.29,1.48,1.48,0,0,0,.42,0A1.72,1.72,0,0,0,98,28.51c0-2.61,0-5.21,0-7.82v-15c0-1.75-.54-2.3-2.25-2.3H57.87c-1.49,0-2.08.61-2.08,2.14,0,4.71,0,9.43,0,14.15a6.13,6.13,0,0,0,.6,3.05c1.18,2.27,2.06,4.7,3.12,7a2.12,2.12,0,0,0,1,1c4,1.79,4,1.78,8.13.11,1.27-.52,2.56-1,3.82-1.54a1,1,0,0,1,1.29.24c2.17,2.21,4.36,4.41,6.57,6.57a1.07,1.07,0,0,1,.24,1.39c-1,2.31-1.89,4.63-2.75,7a3.19,3.19,0,0,0,0,1.68,6.91,6.91,0,0,0,5.39,5.58,26.31,26.31,0,0,1,4.07,1.73,1.16,1.16,0,0,1,.62.78c0,2.71,0,5.42,0,8.21H84.51c0-1.89,0-3.77,0-5.66a1.06,1.06,0,0,0-.77-1.18c-2-.85-4.09-1.7-6.09-2.64a2.59,2.59,0,0,1-1.18-1.18c-.86-1.88-1.65-3.81-2.39-5.74a2.24,2.24,0,0,1,0-1.47c.79-2.14,1.64-4.26,2.52-6.37A1,1,0,0,0,76.34,37C75.17,35.84,74,34.7,72.9,33.52a1,1,0,0,0-1.28-.23c-2.11.87-4.23,1.73-6.37,2.54a2,2,0,0,1-1.28,0c-2-.79-4-1.62-6-2.51a2.07,2.07,0,0,1-1-1c-.93-2-1.81-4.11-2.67-6.2a1.12,1.12,0,0,0-1.23-.84c-1.58.06-3.17.05-4.75,0a1,1,0,0,0-1.1.72c-.86,2.08-1.73,4.15-2.67,6.19a2.44,2.44,0,0,1-1.11,1.11c-1.92.87-3.88,1.68-5.84,2.44a2.14,2.14,0,0,1-1.37,0c-2.15-.79-4.27-1.63-6.38-2.51a1.06,1.06,0,0,0-1.37.29c-1.06,1.13-2.16,2.22-3.28,3.29a1.09,1.09,0,0,0-.31,1.45c.87,2.07,1.7,4.17,2.47,6.28a2.25,2.25,0,0,1,0,1.47c-.74,1.93-1.52,3.85-2.38,5.74A2.59,2.59,0,0,1,23.76,53c-2,.94-4.05,1.8-6.1,2.63a1.06,1.06,0,0,0-.76,1.18C16.94,58.67,16.91,60.53,16.91,62.51Z"/><path class="cls-1" d="M64.24,101.38H60.89c0-3.1-.09-6.16,0-9.2a3.06,3.06,0,0,1,2.53-2.79c.61-.16,1.24-.24,1.84-.44a6.46,6.46,0,0,0,4.64-5.48c.34-2.29.56-4.61.82-6.91a4.88,4.88,0,0,1,3.6-4.48,2.68,2.68,0,0,0,2.18-2.68c.1-1.58.45-3.14.63-4.71.16-1.42-.48-2.11-1.92-2.13s-2.74,0-4.24,0c.25-7.34-2.28-13.42-8.13-17.9a19.84,19.84,0,0,0-13.34-4.06,20.59,20.59,0,0,0-19.2,22H26.25c-1.54,0-2.17.72-2,2.27.21,1.75.47,3.48.7,5.23a2,2,0,0,0,1.53,1.8A5.34,5.34,0,0,1,30.74,77c.18,2.11.45,4.2.72,6.3a6.71,6.71,0,0,0,5.4,5.87c3,.64,3.71,1.52,3.71,4.62v7.57H37.19V94.53c0-1.77,0-1.77-1.69-2.22a10.11,10.11,0,0,1-7.41-8.57c-.25-2.24-.53-4.47-.76-6.71a1.88,1.88,0,0,0-1.48-1.82c-2.77-.76-4.08-2.65-4.32-5.45-.13-1.61-.46-3.2-.64-4.81a5,5,0,0,1,5.17-5.78c.31,0,.62,0,1,0A23.58,23.58,0,0,1,36.9,41.66a23,23,0,0,1,14.87-4.45,23.71,23.71,0,0,1,22.62,22c.39,0,.8,0,1.2,0a5,5,0,0,1,5,5.59c-.22,2-.54,4-.85,6.06a4.65,4.65,0,0,1-3.46,4.11c-1.68.46-2.18,1.47-2.3,3a48.61,48.61,0,0,1-.74,6.5,9.76,9.76,0,0,1-8,8c-.81.18-1,.48-1,1.24C64.27,96.23,64.24,98.76,64.24,101.38Z"/><path class="cls-1" d="M42.21,8.51v3.26H6.84V8.51Z"/><path class="cls-1" d="M94.62,8.53v3.25H59.22V8.53Z"/><path class="cls-1" d="M42.21,15.29v3.26H6.85V15.29Z"/><path class="cls-1" d="M59.21,18.53V15.27h35.4v3.26Z"/><path class="cls-1" d="M6.83,22H32V25.3H6.83Z"/><path class="cls-1" d="M62.59,25.29V22H81.06v3.26Z"/></g></g></svg>