<svg xmlns="http://www.w3.org/2000/svg" viewBox="0 0 103.81 103.81"><defs><style>.cls-1{fill:#ffbc00;}</style></defs><title>bazar arasdirmasi</title><g id="Layer_2" data-name="Layer 2"><g id="Layer_1-2" data-name="Layer 1"><path class="cls-1" d="M103.81,20.09V3.35H83.72v6.7H77V33.49H73.67V0H31.12L13.4,17.73V48.1A13.35,13.35,0,0,0,15,67.31,18.44,18.44,0,0,0,0,85.39v18.42H38.51V82.33a3,3,0,0,1,.9-2.16l9.84-9.85H73.67V36.84H77V60.28h6.7V67h20.09V50.23H83.72v6.7H80.37V36.84h3.35v6.69h20.09V26.79H83.72v6.7H80.37V13.4h3.35v6.69ZM87.07,6.7h13.39v10H87.07Zm-56.93-1v11h-11ZM13.4,56.93A10,10,0,1,1,23.44,67,10.05,10.05,0,0,1,13.4,56.93Zm15,12.43a5,5,0,0,1-9.9,0,13.24,13.24,0,0,0,9.9,0ZM37,77.8a6.37,6.37,0,0,0-1.88,4.53v18.13H11.72V80.37H8.37v20.09h-5V85.39a15.1,15.1,0,0,1,12-14.75,8.33,8.33,0,0,0,16.41-1.39,25.16,25.16,0,0,0,11.79-6.62l9.06-9.05,1-1,4.82-4.82a3,3,0,0,1,2.16-.9A3.08,3.08,0,0,1,63.63,50a3,3,0,0,1-.9,2.16ZM50.23,50.23H46.88V36.84h3.35Zm10.05-6.67V23.44h3.35V44.35a6.39,6.39,0,0,0-3.07-.82ZM70.32,67H52.6l12.5-12.5A6.37,6.37,0,0,0,67,50V20.09H56.93V44.67a6.32,6.32,0,0,0-.9.74l-2.45,2.45V33.49h-10V53.58h4.33l-6.68,6.69a21.82,21.82,0,0,1-7,4.69,13.36,13.36,0,0,0,2.7-8,13.67,13.67,0,0,0-.44-3.35h3.79V23.44h-10V45.35a13.24,13.24,0,0,0-13.4,0V20.09H33.49V3.35H70.32ZM33.49,48.1V26.79h3.35V50.23H35A13.36,13.36,0,0,0,33.49,48.1Zm53.58,5.48h13.39V63.63H87.07Zm0-23.44h13.39v10H87.07Z"/><path class="cls-1" d="M90.42,10.05h6.69V13.4H90.42Z"/><path class="cls-1" d="M90.42,33.49h6.69v3.35H90.42Z"/><path class="cls-1" d="M90.42,56.93h6.69v3.35H90.42Z"/><path class="cls-1" d="M63.63,6.7H67v3.35H63.63Z"/><path class="cls-1" d="M56.93,6.7h3.35v3.35H56.93Z"/><path class="cls-1" d="M36.84,6.7H53.58v3.35H36.84Z"/><path class="cls-1" d="M36.84,13.4H67v3.34H36.84Z"/><path class="cls-1" d="M20.09,23.44h3.35v3.35H20.09Z"/><path class="cls-1" d="M20.09,30.14h3.35v3.35H20.09Z"/><path class="cls-1" d="M20.09,36.84h3.35v3.35H20.09Z"/></g></g></svg>