<svg xmlns="http://www.w3.org/2000/svg" viewBox="0 0 516.13 372.68"><defs><style>.cls-1{fill:#403e56;}.cls-2{fill:#302e41;}.cls-3{fill:#f9bebf;}.cls-4{fill:#ffc709;}.cls-5{fill:#e4ac24;}.cls-6{fill:#585b8a;}.cls-7{fill:#44a2da;}.cls-8{fill:#010101;opacity:0.4;isolation:isolate;}.cls-9{fill:#f3f3f3;}.cls-10{fill:#e6e6e5;}</style></defs><title>Asset 12</title><g id="Layer_2" data-name="Layer 2"><g id="Layer_2-2" data-name="Layer 2"><rect class="cls-1" x="448.17" y="181.53" width="4.59" height="181.48"/><path class="cls-1" d="M495.16,204.66c.3,63.46-44.35,115.11-44.35,115.11s-45.12-51.24-45.41-114.7S449.75,90,449.75,90,494.87,141.2,495.16,204.66Z"/><rect class="cls-1" x="358.54" y="266.92" width="2.36" height="93.34"/><path class="cls-1" d="M382.71,278.81C382.86,311.45,359.9,338,359.9,338s-23.21-26.36-23.36-59,22.81-59.21,22.81-59.21S382.56,246.18,382.71,278.81Z"/><ellipse class="cls-1" cx="407.48" cy="362.87" rx="64.02" ry="9.81"/><path class="cls-2" d="M412.76,134.15c-5.43-9.16-16.16-9.59-16.16-9.59s-10.45-1.33-17.16,12.62c-6.26,13-14.88,25.58-1.39,28.62l2.44-7.58,1.5,8.15a53.09,53.09,0,0,0,5.78.09c14.45-.46,28.21.14,27.76-5C414.94,154.52,418,143,412.76,134.15Z"/><path class="cls-3" d="M393.22,151.41s7,9.82,2.81,17.76,9.81,16.36,9.81,16.36l10.28-22.43s-12.15-7.95-8.88-15.42Z"/><circle class="cls-3" cx="397.9" cy="143.47" r="12.15"/><path class="cls-3" d="M355.85,157.52,366,144.42s3.58-13.74,8.76-13-2.05,16.47-2.05,16.47l-10.09,14.5Z"/><polygon class="cls-3" points="407.24 331.8 410.51 349.08 417.52 350.95 415.65 330.39 407.24 331.8"/><polygon class="cls-3" points="477.81 313.1 490.42 330.39 495.56 332.73 499.77 325.72 487.15 309.36 477.81 313.1"/><path class="cls-4" d="M404.44,178.05l-7.8-10.26s-15.1,2.78-16.5,4.19,3.74,27.1,3.74,27.1.93,7,5.14,10.75l4.2,2.8,34.58-7,1.3-15.38a40.35,40.35,0,0,0-10.64-30.88h0l-6,.82Z"/><path class="cls-4" d="M382,172.91l-2.34-.93L368.92,171s-3.73-.93-2.8-2.8,1.87-2.34,0-2.81-2.34-.93-1.87-2.33,3.27-4.21,3.27-4.21l-7.94-6.54s-.43.3-1.13.87c-3.94,3.19-16.42,14.71-7.28,26.23,10.74,13.55,23.36,21.5,33.64,18.69Z"/><path class="cls-2" d="M392.29,210.29v6.55s-4.21,7.94-2.8,15.42,1.86,11.21,1.86,11.21a64,64,0,0,0,3.28,18.7c3.27,9.34-7.48,70.56,6.07,71.49s21,1.87,25.24-2.8-7-85.05-7-85.05,38.31,79.91,46.26,76.64,28-10.75,25.7-15-61.22-97.66-61.22-97.66l-1.87-4.21Z"/><path class="cls-2" d="M414.72,345.81s-7.48-.46-7.48,1.87S403.5,358,403.5,358s-2.8,9.35,4.68,8.42S420.33,357,420.33,357l-1.87-8.88Z"/><path class="cls-2" d="M492.76,329.46s-6.54-4.21-6.08-1.4.94,10.28,4.21,10.74S504,342.08,504.44,343s11.69,4.67,11.69-1.4-7-10.75-7-10.75l-7.95-6.08s-5.14-.46-6.07,2.81S492.76,329.46,492.76,329.46Z"/><circle class="cls-2" cx="397.92" cy="124.61" r="7.76"/><path class="cls-2" d="M389.34,122.57a7.76,7.76,0,0,1,6.94-7.72,7.38,7.38,0,0,0-.82,0,7.76,7.76,0,1,0,0,15.52h0a7.37,7.37,0,0,0,.82-.05A7.75,7.75,0,0,1,389.34,122.57Z"/><polygon class="cls-2" points="410.36 133.27 399.76 127.72 385.12 129.99 382.09 143.37 389.63 143.08 391.73 138.16 391.73 143 395.21 142.86 397.23 135.04 398.5 143.37 410.86 143.12 410.36 133.27"/><path class="cls-3" d="M409.72,211.38l-16.35.44s-13.95,2.71-13.16-2.92,14.39-3.66,14.39-3.66L409.5,203Z"/><path class="cls-4" d="M422.66,158.57a3.49,3.49,0,0,1,3.85,2.39c3.2,10.09,13.06,43.84,3.26,48.47-11.54,5.46-20,5.22-20,5.22l-4.51-11.1,4.11-3.85,4.38-28.17,2.1-11.94Z"/><polygon class="cls-5" points="419.63 177.35 417.76 196.04 401.4 203.05 419.63 198.85 419.63 177.35"/><path class="cls-1" d="M331.42,115.64h0a21.88,21.88,0,0,1,12.78,9.29l1.53,2.36.08.1,26.81,7.85a2,2,0,0,1,1.34,2.39l-2.08,7.63a2,2,0,0,1-2.4,1.37h0l-26.83-7.5h0l-2.69,1a24.08,24.08,0,0,1-15.48.53h0Z"/><ellipse class="cls-6" cx="356.71" cy="136.92" rx="1.64" ry="3.07" transform="translate(125.13 440.82) rotate(-73.69)"/><circle class="cls-1" cx="358.29" cy="137.45" r="1.13"/><ellipse class="cls-7" cx="328.02" cy="128.27" rx="13.13" ry="5.94" transform="translate(104.83 400.73) rotate(-72.03)"/><path class="cls-8" d="M332.83,129.86c2.15-6.65,1.57-12.84-1.27-14.19a2.78,2.78,0,0,1,.5.11c3.12,1,3.84,7.42,1.6,14.32s-6.57,11.67-9.69,10.66a2.52,2.52,0,0,1-.33-.14C326.7,141,330.71,136.39,332.83,129.86Z"/><path class="cls-7" d="M331.77,115.67,270.91,68.46A402.48,402.48,0,0,1,240,41.64c-17.35-16.54-40.9-29.76-68.32-36.8C105-12.26,52.25,18.06,28.25,62.59-8.43,130.63-36.54,241,126.1,182.27c35.57-12.85,71.57-14.22,98.87-21l98.86-20.38Z"/><circle class="cls-9" cx="149.06" cy="32.95" r="3.27"/><polygon class="cls-9" points="212.6 40.51 211.75 40.51 211.75 39.66 211.58 39.66 211.58 40.51 210.73 40.51 210.73 40.68 211.58 40.68 211.58 41.53 211.75 41.53 211.75 40.68 212.6 40.68 212.6 40.51"/><polygon class="cls-9" points="298.12 111.54 297.27 111.54 297.27 110.69 297.1 110.69 297.1 111.54 296.25 111.54 296.25 111.71 297.1 111.71 297.1 112.56 297.27 112.56 297.27 111.71 298.12 111.71 298.12 111.54"/><polygon class="cls-9" points="292.04 133.51 291.19 133.51 291.19 132.66 291.02 132.66 291.02 133.51 290.17 133.51 290.17 133.67 291.02 133.67 291.02 134.53 291.19 134.53 291.19 133.67 292.04 133.67 292.04 133.51"/><polygon class="cls-9" points="30.82 152.2 29.97 152.2 29.97 151.35 29.8 151.35 29.8 152.2 28.95 152.2 28.95 152.37 29.8 152.37 29.8 153.22 29.97 153.22 29.97 152.37 30.82 152.37 30.82 152.2"/><polygon class="cls-9" points="68.2 50.33 67.35 50.33 67.35 49.48 67.19 49.48 67.19 50.33 66.33 50.33 66.33 50.49 67.19 50.49 67.19 51.34 67.35 51.34 67.35 50.49 68.2 50.49 68.2 50.33"/><polygon class="cls-9" points="213.53 137.25 212.68 137.25 212.68 136.39 212.52 136.39 212.52 137.25 211.67 137.25 211.67 137.41 212.52 137.41 212.52 138.26 212.68 138.26 212.68 137.41 213.53 137.41 213.53 137.25"/><polygon class="cls-9" points="124.28 20.42 123.43 20.42 123.43 19.57 123.26 19.57 123.26 20.42 122.41 20.42 122.41 20.59 123.26 20.59 123.26 21.44 123.43 21.44 123.43 20.59 124.28 20.59 124.28 20.42"/><path class="cls-10" d="M124.61,87.7l-1.06.16c.33,2.13.59,4.29.78,6.44l1.07-.09C125.21,92,124.94,89.85,124.61,87.7Z"/><path class="cls-10" d="M121.7,74.92l-1,.32c.62,2.05,1.17,4.16,1.65,6.26l1-.24C122.9,79.14,122.33,77,121.7,74.92Z"/><path class="cls-10" d="M117.07,62.67l-1,.45c.89,2,1.74,4,2.5,6l1-.38C118.83,66.69,118,64.65,117.07,62.67Z"/><path class="cls-10" d="M110.81,51.19l-.9.57c1.15,1.81,2.26,3.69,3.29,5.58l.94-.52C113.1,54.91,112,53,110.81,51.19Z"/><path class="cls-10" d="M103,40.66l-.82.69c1.39,1.64,2.75,3.35,4,5.08l.86-.64C105.81,44,104.44,42.31,103,40.66Z"/><path class="cls-10" d="M93.88,31.28l-.72.8c1.61,1.44,3.18,3,4.68,4.48l.78-.75C97.1,34.25,95.5,32.73,93.88,31.28Z"/><path class="cls-10" d="M83.54,23.24l-.6.88c1.78,1.2,3.55,2.49,5.25,3.81l.66-.85C87.13,25.75,85.34,24.45,83.54,23.24Z"/><path class="cls-10" d="M74.13,17.65v1.21c1.12.59,2.23,1.2,3.31,1.82l.54-.93C76.72,19,75.44,18.32,74.13,17.65Z"/><path class="cls-10" d="M124.68,100.93l1.07,0c0,1.08,0,2.17,0,3.24l-1.08,0C124.7,103.08,124.7,102,124.68,100.93Z"/><path class="cls-10" d="M61.52,179.76l-1.06.16c.33,2.13.59,4.29.78,6.44l1.07-.09C62.12,184.09,61.86,181.91,61.52,179.76Z"/><path class="cls-10" d="M58.62,167l-1,.32c.62,2,1.18,4.16,1.65,6.26l1-.24C59.81,171.2,59.24,169.07,58.62,167Z"/><path class="cls-10" d="M54,154.73l-1,.45c.9,2,1.74,4,2.5,6l1-.38C55.74,158.75,54.9,156.71,54,154.73Z"/><path class="cls-10" d="M47.73,143.24l-.91.58c1.15,1.81,2.26,3.69,3.29,5.57l.94-.51C50,147,48.89,145.08,47.73,143.24Z"/><path class="cls-10" d="M39.94,132.72l-.82.69c1.4,1.64,2.75,3.35,4,5.08l.86-.64C42.72,136.1,41.35,134.37,39.94,132.72Z"/><path class="cls-10" d="M30.79,123.34l-.71.8c1.6,1.44,3.18,3,4.68,4.48l.77-.75C34,126.31,32.42,124.79,30.79,123.34Z"/><path class="cls-10" d="M20.45,115.3l-.6.88c1.79,1.2,3.55,2.48,5.25,3.81l.66-.85C24,117.8,22.26,116.51,20.45,115.3Z"/><path class="cls-10" d="M11.05,109.71v1.21c1.11.59,2.22,1.2,3.31,1.82l.53-.93Q13,110.72,11.05,109.71Z"/><path class="cls-10" d="M61.59,193l1.08,0c0,1.08,0,2.17,0,3.24l-1.07,0C61.61,195.14,61.61,194.06,61.59,193Z"/><path class="cls-10" d="M277.42,133.5l-1.06.16c.33,2.12.59,4.29.78,6.44l1.07-.1C278,137.83,277.75,135.64,277.42,133.5Z"/><path class="cls-10" d="M274.51,120.72l-1,.31c.62,2.06,1.17,4.17,1.65,6.27l1.05-.24C275.71,124.94,275.14,122.8,274.51,120.72Z"/><path class="cls-10" d="M269.88,108.47l-1,.45c.89,2,1.73,4,2.5,6l1-.38C271.64,112.48,270.79,110.44,269.88,108.47Z"/><path class="cls-10" d="M263.62,97l-.91.58c1.16,1.81,2.27,3.69,3.29,5.57l.95-.51C265.91,100.71,264.79,98.81,263.62,97Z"/><path class="cls-10" d="M255.84,86.45l-.82.7c1.39,1.63,2.75,3.35,4,5.07l.86-.64C258.62,89.84,257.25,88.11,255.84,86.45Z"/><path class="cls-10" d="M246.69,77.08l-.72.8c1.61,1.43,3.18,2.94,4.68,4.48l.77-.75C249.91,80.05,248.31,78.53,246.69,77.08Z"/><path class="cls-10" d="M236.35,69l-.6.89c1.78,1.2,3.55,2.48,5.24,3.8l.67-.84C239.94,71.54,238.15,70.25,236.35,69Z"/><path class="cls-10" d="M226.94,63.44v1.22c1.12.58,2.23,1.19,3.31,1.82l.54-.93C229.53,64.82,228.24,64.12,226.94,63.44Z"/><path class="cls-10" d="M277.49,146.72l1.07,0c0,1.09,0,2.18,0,3.25l-1.08,0C277.51,148.88,277.51,147.8,277.49,146.72Z"/><polygon class="cls-9" points="69.77 93.41 68.97 93.41 68.97 92.62 68.82 92.62 68.82 93.41 68.03 93.41 68.03 93.57 68.82 93.57 68.82 94.36 68.97 94.36 68.97 93.57 69.77 93.57 69.77 93.41"/><polygon class="cls-9" points="60.63 141.24 59.84 141.24 59.84 140.45 59.69 140.45 59.69 141.24 58.9 141.24 58.9 141.4 59.69 141.4 59.69 142.19 59.84 142.19 59.84 141.4 60.63 141.4 60.63 141.24"/><polygon class="cls-9" points="33.84 183.16 33.05 183.16 33.05 182.37 32.89 182.37 32.89 183.16 32.1 183.16 32.1 183.32 32.89 183.32 32.89 184.11 33.05 184.11 33.05 183.32 33.84 183.32 33.84 183.16"/><path class="cls-1" d="M108.38,130A57.38,57.38,0,1,1,135,151.38,18.56,18.56,0,1,1,108.38,130Z"/><path class="cls-7" d="M192.44,127.21l-20.92-20.92a23.67,23.67,0,1,0-4.37,4.75l20.73,20.73a3.22,3.22,0,1,0,4.56-4.56ZM152.09,110a17.23,17.23,0,1,1,17.23-17.22A17.24,17.24,0,0,1,152.09,110Z"/></g></g></svg>