<?xml version="1.0" encoding="utf-8"?>
<!-- Generator: Adobe Illustrator 23.0.4, SVG Export Plug-In . SVG Version: 6.00 Build 0)  -->
<svg version="1.1" id="outline" xmlns="http://www.w3.org/2000/svg" xmlns:xlink="http://www.w3.org/1999/xlink" x="0px" y="0px"
	 viewBox="0 0 512 512" style="enable-background:new 0 0 512 512;" xml:space="preserve">
<style type="text/css">
	.st0{fill:#FFC70A;}
</style>
<g>
	<path class="st0" d="M16,256c0,30.9,25.1,56,56,56h176c4.4,0,8-3.6,8-8c0-2.5-1.2-4.9-3.2-6.4L240,288c-10-7.6-16-19.4-16-32
		c0-30.9-25.1-56-56-56H72C41.1,200,16,225.1,16,256z M72,216h96c22.1,0,40,17.9,40,40c0,15,6.1,29.4,16.8,40H72
		c-22.1,0-40-17.9-40-40S49.9,216,72,216z"/>
	<path class="st0" d="M464,272c-0.1-44.2-35.8-79.9-80-80h-32c-44.2,0.1-79.9,35.8-80,80c0,30.9,25.1,56,56,56h80
		C438.9,328,464,302.9,464,272z M408,312h-80c-22.1,0-40-17.9-40-40c0-35.3,28.7-64,64-64h32c35.3,0,64,28.7,64,64
		C448,294.1,430.1,312,408,312z"/>
	<path class="st0" d="M400,232h-64c-17.7,0-32,14.3-32,32s14.3,32,32,32h64c17.7,0,32-14.3,32-32S417.7,232,400,232z M400,280h-64
		c-8.8,0-16-7.2-16-16c0-8.8,7.2-16,16-16h64c8.8,0,16,7.2,16,16C416,272.8,408.8,280,400,280z"/>
	<path class="st0" d="M404,344h-72c-22.1,0-40,17.9-40,40c0,1.6,0.1,3.1,0.3,4.7l10.1,86.1c1.4,12.1,11.7,21.2,23.8,21.2h83.5
		c12.2,0,22.4-9.1,23.8-21.2l10.1-86.1c2.6-21.9-13.1-41.8-35.1-44.4C407.1,344.1,405.6,344,404,344z M427.9,386.8l-10.1,86.1
		c-0.5,4-3.9,7.1-7.9,7.1h-83.5c-4.1,0-7.5-3-7.9-7.1l-10.1-86.1c-1.5-13.2,7.9-25.1,21-26.6c0.9-0.1,1.9-0.2,2.8-0.2h72
		c13.3,0,24,10.7,24,24C428,384.9,428,385.9,427.9,386.8L427.9,386.8z"/>
	<path class="st0" d="M240,384v30.5c0,6.9,0.8,13.9,2.4,20.6l11.7,48.4c0.1,0.2,0.1,0.4,0.2,0.7c3,9.1,12.8,14,21.9,10.9
		c7.1-2.4,11.8-9,11.8-16.4V384c0-13.3-10.7-24-24-24C250.7,360,240,370.7,240,384z M272,384v94.7c0,0.7-0.6,1.3-1.3,1.3
		c-0.5,0-0.9-0.3-1.2-0.7L258,431.4c-1.3-5.5-2-11.2-2-16.9V384c0-4.4,3.6-8,8-8S272,379.6,272,384z"/>
	<path class="st0" d="M472,360c-13.2,0-24,10.8-24,24v94.7c0,9.6,7.8,17.3,17.3,17.3c7.4,0,14-4.8,16.4-11.8
		c0.1-0.2,0.1-0.4,0.2-0.7l11.7-48.4c1.6-6.7,2.4-13.7,2.4-20.6V384C496,370.8,485.2,360,472,360z M480,414.5c0,5.7-0.7,11.3-2,16.9
		l-11.5,47.9c-0.3,0.6-1.1,0.9-1.7,0.6c-0.4-0.2-0.7-0.7-0.7-1.2V384c0-4.4,3.6-8,8-8s8,3.6,8,8V414.5z"/>
	<circle class="st0" cx="336" cy="264" r="8"/>
	<circle class="st0" cx="400" cy="264" r="8"/>
	<path class="st0" d="M96,16c-44.2,0-80,35.8-80,80s35.8,80,80,80s80-35.8,80-80C175.9,51.8,140.2,16.1,96,16z M72,155.3V136
		c0-13.3,10.7-24,24-24s24,10.7,24,24v19.3C104.6,161.6,87.4,161.6,72,155.3z M80,80c0-8.8,7.2-16,16-16s16,7.2,16,16s-7.2,16-16,16
		C87.2,96,80,88.8,80,80z M136,145.9V136c0-13.3-6.6-25.7-17.6-33.1c12.6-12.4,12.9-32.6,0.5-45.3s-32.6-12.9-45.3-0.5
		s-12.9,32.6-0.5,45.3c0.2,0.2,0.3,0.3,0.5,0.5C62.6,110.3,56,122.7,56,136v9.9c-27.6-22.1-32.1-62.4-10-90s62.4-32.1,90-10
		s32.1,62.4,10,90C143,139.6,139.7,143,136,145.9z"/>
	<path class="st0" d="M440,16H280c-30.9,0-56,25.1-56,56c0,12.6-6,24.4-16,32l-12.8,9.6c-3.5,2.7-4.3,7.7-1.6,11.2
		c1.5,2,3.9,3.2,6.4,3.2h240c30.9,0,56-25.1,56-56S470.9,16,440,16z M440,112H223.2c10.7-10.6,16.8-25,16.8-40c0-22.1,17.9-40,40-40
		h160c22.1,0,40,17.9,40,40S462.1,112,440,112z"/>
</g>
</svg>
