<svg xmlns="http://www.w3.org/2000/svg" viewBox="0 0 98 98"><defs><style>.cls-1{fill:#bf91c2;}.cls-2{fill:#250c44;}</style></defs><title>Asset 10</title><g id="Layer_2" data-name="Layer 2"><g id="Layer_2-2" data-name="Layer 2"><path class="cls-1" d="M84,98H14A14,14,0,0,1,0,84V14A14,14,0,0,1,14,0H84A14,14,0,0,1,98,14V84A14,14,0,0,1,84,98ZM14,8a6,6,0,0,0-6,6V84a6,6,0,0,0,6,6H84a6,6,0,0,0,6-6V14a6,6,0,0,0-6-6Z"/><rect class="cls-2" x="4" y="4" width="90" height="90" rx="10"/><path class="cls-1" d="M29.62,55.18,26.38,66.61H19.21L31.4,26.17h8.83L52.58,66.61H45.13L41.69,55.18ZM40.54,49.6l-3-10c-.73-2.5-1.36-5.25-1.93-7.6h-.13c-.55,2.37-1.13,5.17-1.8,7.58l-2.93,10Z"/><path class="cls-1" d="M60.64,54.05c.19,5.29,4,7.61,8.48,7.61a19.75,19.75,0,0,0,7.57-1.36l1,5.09a23.55,23.55,0,0,1-9.59,1.85C59.22,67.24,54,61.38,54,52.43c0-8.06,4.59-15.69,13.42-15.69S79.24,44.55,79.24,51a16.76,16.76,0,0,1-.24,3.1ZM72.71,48.9c0-2.7-1.08-7.12-5.72-7.12-4.28,0-6,4.13-6.36,7.12Z"/></g></g></svg>