<svg xmlns="http://www.w3.org/2000/svg" viewBox="0 0 59.27 45.45"><defs><style>.cls-1{fill:#ffc713;}.cls-2{fill:#fff;}.cls-3{fill:#43a1da;}</style></defs><title>Asset 13</title><g id="Layer_2" data-name="Layer 2"><g id="Layer_2-2" data-name="Layer 2"><circle class="cls-1" cx="29.63" cy="22.73" r="22.53"/><polygon class="cls-2" points="1.43 20.44 3.2 20.98 5.72 21.1 13.81 21.51 24.77 21.84 25.47 21.84 26 30.09 26.52 33.99 26.98 36.64 27.18 37.14 19.73 39.52 18.88 40.19 18.77 43.46 18.88 44.3 19.44 44.93 20.46 45.08 40.01 45.08 40.76 44.35 40.61 40.3 40.22 39.81 32.53 37.3 33.18 33.65 33.85 28.19 34.26 21.84 46.1 21.49 52.79 21.18 56.55 20.88 57.45 20.55 58.58 19.69 58.8 18.44 58.66 13.81 58.6 12.93 57.31 11.75 51.99 10.99 42.05 10.17 34.11 9.88 33.89 2.38 37.6 1.87 38.27 1.44 35.73 0.67 31.02 0.36 26.69 0.36 24.33 0.56 21.15 1.01 21.06 1.44 22.04 1.97 24.29 2.25 25.14 2.34 25.14 9.9 17.68 10.19 8.18 10.86 3.22 11.42 0.98 12.29 0.47 13.79 0.47 16.84 0.47 18.49 0.83 20.06 1.43 20.44"/><path class="cls-3" d="M29.51,2.88c-4.2,0-9.21-.25-9.21-1.44S25.31,0,29.51,0s9.22.25,9.22,1.44S33.72,2.88,29.51,2.88ZM21.77,1.44A42.37,42.37,0,0,0,29.51,2a42.51,42.51,0,0,0,7.75-.53A43.47,43.47,0,0,0,29.51.91,43.33,43.33,0,0,0,21.77,1.44Z"/><path class="cls-3" d="M29.76,7.44a26.72,26.72,0,0,1-4.64-.86l-.35-.09-.08-.38c0-.94,0-1.88,0-2.81l0-1.43h9.5l0,.43c0,.37,0,.69,0,1,0,.92.09,1.85.13,2.78v.37l-.35.09a26.46,26.46,0,0,1-4.32.89ZM25.6,5.76a26.32,26.32,0,0,0,4.18.77,23.41,23.41,0,0,0,3.74-.76c0-.81-.07-1.62-.11-2.42,0-.19,0-.38,0-.57l-7.74.05v.48C25.62,4.13,25.61,4.94,25.6,5.76Z"/><path class="cls-3" d="M32.8,37.82,30,36.88l-1.69.26-1.44.53-.1-.52c-.48-2.36-.88-5.14-1.2-8.26l-.07-.67.65.18a21,21,0,0,0,3.87.77h0a16.17,16.17,0,0,0,3.59-.9l.66-.21,0,.68a60.06,60.06,0,0,1-1.32,8.6ZM30.05,36l2.09.69a59.09,59.09,0,0,0,1.13-7.3,15.1,15.1,0,0,1-3.24.75,17.48,17.48,0,0,1-3.51-.64c.28,2.61.62,5,1,7l.52-.19Zm3.74-7.26.14.44Z"/><path class="cls-3" d="M39.49,45.45H20a1.65,1.65,0,0,1-1.65-1.66v-3a1.63,1.63,0,0,1,1.56-1.66l8.16-2.85,2-.31,9.52,3.16a1.64,1.64,0,0,1,1.57,1.66v3A1.65,1.65,0,0,1,39.49,45.45ZM20,40a.71.71,0,0,0-.74.75v3a.75.75,0,0,0,.74.75H39.49a.74.74,0,0,0,.73-.75v-3a.74.74,0,0,0-.45-.7.69.69,0,0,0-.28,0l-.14,0L30,36.88l-1.69.26-.94.35Z"/><path class="cls-3" d="M25.94,22.27h-.49c-5.19-.05-10.55-.22-15.93-.5L8.41,21.7Q6.69,21.61,5,21.49l-1.28-.08-.7,0H3a3,3,0,0,1-3-3v-4.3a3,3,0,0,1,3-3c2.84-.37,5.79-.69,8.71-.94,4.42-.38,8.94-.61,13.41-.7h.46v.46c0,4.25.12,8.27.32,11.94Zm-1.26-12c-4.3.09-8.63.33-12.88.69-2.9.25-5.84.57-8.73.94A2.13,2.13,0,0,0,.91,14.05v4.3A2.11,2.11,0,0,0,3,20.46l.73,0,1.17.08,3.55.21,1.1.06c5.2.27,10.38.44,15.41.5C24.79,17.92,24.7,14.21,24.68,10.31Z"/><path class="cls-3" d="M33.7,22.27l0-.47c.1-3.53.08-7.43,0-11.93l0-.48h.48c4.16.09,8.38.31,12.53.65,3.18.25,6.42.59,9.64,1h0a3,3,0,0,1,3,3v4.3A3,3,0,0,1,56.9,21.3v0l-.36,0h0l-.23,0h-.14q-3.06.21-6.12.38c-5.26.28-10.58.45-15.82.51Zm.89-11.95c.12,4.12.13,7.74,0,11,5.08-.06,10.22-.23,15.3-.5,2.05-.11,4.08-.24,6.11-.38h.29l.24-.09.05.06a2.11,2.11,0,0,0,1.72-2.07v-4.3a2.1,2.1,0,0,0-2.1-2.1c-3.27-.41-6.5-.74-9.66-1C42.61,10.63,38.58,10.42,34.59,10.32Z"/><path class="cls-3" d="M50.33,21.63A2.44,2.44,0,0,1,48,19.29V19a2.23,2.23,0,0,1,2.22-2.22h6A2.23,2.23,0,0,1,58.36,19v.28a2,2,0,0,1-2.26,1.93l-5.76.41Zm-.15-3.93A1.31,1.31,0,0,0,48.87,19v.28a1.53,1.53,0,0,0,1.43,1.43l5.79-.41c.22,0,1.36,0,1.36-1V19a1.31,1.31,0,0,0-1.31-1.31Z"/><path class="cls-3" d="M9.2,21.66l-5.8-.41a2,2,0,0,1-2.25-1.93V19a2.21,2.21,0,0,1,2.22-2.22h6A2.21,2.21,0,0,1,11.54,19v.28A2.42,2.42,0,0,1,9.2,21.66ZM3.37,17.73A1.31,1.31,0,0,0,2.06,19v.28c0,1,1.13,1,1.36,1h0l5.79.41a1.53,1.53,0,0,0,1.39-1.43V19a1.31,1.31,0,0,0-1.3-1.31Z"/><polygon class="cls-3" points="25.13 6.57 25.13 6.14 24.93 6.52 25.13 6.14 25.13 5.66 25.36 5.71 25.14 6.12 25.13 6.57"/><path class="cls-3" d="M29.76,4.63A30.65,30.65,0,0,1,25,3.73l.23-.88a29.88,29.88,0,0,0,4.51.87h0a26.68,26.68,0,0,0,4.09-.87l.24.88a27.36,27.36,0,0,1-4.32.9Z"/><path class="cls-3" d="M29.76,9.29A32.46,32.46,0,0,1,25,8.4l.23-.89a25.08,25.08,0,0,0,4.53.87,27.88,27.88,0,0,0,4.09-.86l.24.87a27.36,27.36,0,0,1-4.32.9Z"/><polygon class="cls-3" points="25.88 29.28 25.74 29.24 26 28.37 25.88 29.28"/><polygon class="cls-3" points="33.93 29.12 33.64 28.26 33.85 28.19 34.13 29.06 33.93 29.12"/><path class="cls-3" d="M34.58,9.84c0-1.25-.08-2.49-.13-3.75l0-.57-.55.15a25.27,25.27,0,0,1-4.09.86h0a25.68,25.68,0,0,1-4.51-.86l-.56-.13v4.3c0,4.27.12,8.3.32,12,.14,2.54.32,4.92.54,7.06l0,.31.3.08a23,23,0,0,0,4.12.81h0a18.4,18.4,0,0,0,3.9-1l.28-.09,0-.3c.19-2.07.31-4.32.39-6.9C34.73,18.28,34.71,14.36,34.58,9.84Zm-.89,12.94c-.08,2-.18,3.87-.33,5.57a15.71,15.71,0,0,1-3.34.82,15.8,15.8,0,0,1-3.6-.69c-.21-2-.38-4.29-.51-6.7-.2-3.67-.31-7.69-.32-11.94V6.7a24.65,24.65,0,0,0,4.19.74,22.16,22.16,0,0,0,3.77-.74c0,1.06.08,2.11.11,3.17,0,1.28.06,2.52.08,3.72Z"/><path class="cls-3" d="M30.09,23.08h-.66a3.06,3.06,0,0,1-3-2.52,3.19,3.19,0,0,1-.05-.54V14.64a3.06,3.06,0,0,1,3.06-3.05h.66a3.06,3.06,0,0,1,3.06,3.05V20a3.29,3.29,0,0,1,0,.54A3.06,3.06,0,0,1,30.09,23.08Zm-.66-10.72a2.28,2.28,0,0,0-2.28,2.28V20a2.69,2.69,0,0,0,0,.4,2.28,2.28,0,0,0,2.25,1.88h.66a2.27,2.27,0,0,0,2.24-1.88,1.87,1.87,0,0,0,0-.4V14.64a2.28,2.28,0,0,0-2.28-2.28Z"/><rect class="cls-3" x="26.76" y="16.61" width="6" height="0.77"/></g></g></svg>