<svg xmlns="http://www.w3.org/2000/svg" viewBox="0 0 98 98"><defs><style>.cls-1{fill:#35c6f4;}.cls-2{fill:#082027;}</style></defs><title>Asset 11</title><g id="Layer_2" data-name="Layer 2"><g id="Layer_2-2" data-name="Layer 2"><path class="cls-1" d="M84,98H14A14,14,0,0,1,0,84V14A14,14,0,0,1,14,0H84A14,14,0,0,1,98,14V84A14,14,0,0,1,84,98ZM14,8a6,6,0,0,0-6,6V84a6,6,0,0,0,6,6H84a6,6,0,0,0,6-6V14a6,6,0,0,0-6-6Z"/><rect class="cls-2" x="4" y="4" width="90" height="90" rx="10"/><path class="cls-1" d="M27.19,26.69a59.33,59.33,0,0,1,10.63-.83c5.06,0,8.76,1.13,11.18,3.31a11.67,11.67,0,0,1,3.72,8.95c0,3.83-1.12,7-3.23,9.16-2.8,2.94-7.09,4.35-12,4.35a16.1,16.1,0,0,1-3.39-.28V66.61H27.19Zm6.89,18.85a12.76,12.76,0,0,0,3.4.34c5.18,0,8.35-2.75,8.35-7.49,0-4.46-2.93-6.85-7.73-6.85a18.43,18.43,0,0,0-4,.35Z"/><path class="cls-1" d="M55.82,59.82a14.5,14.5,0,0,0,7,2.13c3.05,0,4.41-1.36,4.41-3.28s-1.13-3-4.5-4.26c-5.37-2-7.61-5.07-7.59-8.53,0-5.13,4-9.14,10.42-9.14a15.07,15.07,0,0,1,7.28,1.75l-1.38,5.18A12,12,0,0,0,65.66,42c-2.47,0-3.85,1.3-3.85,3.1s1.33,2.74,4.79,4.09c5,1.88,7.3,4.59,7.33,8.89,0,5.33-3.9,9.17-11.15,9.17a16.9,16.9,0,0,1-8.36-2Z"/></g></g></svg>