<svg xmlns="http://www.w3.org/2000/svg" viewBox="0 0 65.37 98.05"><defs><style>.cls-1{fill:#48ba7f;}.cls-2{fill:#8162aa;}.cls-3{fill:#f05023;}.cls-4{fill:#f37264;}.cls-5{fill:#47b8e9;}</style></defs><title>Asset 6</title><g id="Layer_2" data-name="Layer 2"><g id="Layer_2-2" data-name="Layer 2"><path id="path0_fill" data-name="path0 fill" class="cls-1" d="M16.34,98.05A16.35,16.35,0,0,0,32.68,81.71V65.37H16.34a16.34,16.34,0,0,0,0,32.68Z"/><path id="path1_fill" data-name="path1 fill" class="cls-2" d="M0,49A16.35,16.35,0,0,1,16.34,32.68H32.68V65.37H16.34A16.35,16.35,0,0,1,0,49Z"/><path id="path1_fill-2" data-name="path1 fill" class="cls-3" d="M0,16.34A16.35,16.35,0,0,1,16.34,0H32.68V32.68H16.34A16.35,16.35,0,0,1,0,16.34Z"/><path id="path2_fill" data-name="path2 fill" class="cls-4" d="M32.68,0H49a16.34,16.34,0,1,1,0,32.68H32.68Z"/><path id="path3_fill" data-name="path3 fill" class="cls-5" d="M65.37,49A16.35,16.35,0,1,1,49,32.68,16.36,16.36,0,0,1,65.37,49Z"/></g></g></svg>