<svg xmlns="http://www.w3.org/2000/svg" viewBox="0 0 335.24 256.73"><defs><style>.cls-1{fill:#e2f4fd;}.cls-15,.cls-2{fill:#6466af;}.cls-19,.cls-2,.cls-5{opacity:0.1;}.cls-10,.cls-2,.cls-23,.cls-5,.cls-8{isolation:isolate;}.cls-3{fill:#78c043;}.cls-11,.cls-4{fill:none;}.cls-4{stroke:#575a88;stroke-miterlimit:10;}.cls-10,.cls-20,.cls-5,.cls-8{fill:#010101;}.cls-6{fill:#ffd139;}.cls-7{fill:#a9a8a8;}.cls-8{opacity:0.2;}.cls-9{fill:#efb7b9;}.cls-10{opacity:0.05;}.cls-12{fill:#67627d;}.cls-13{fill:#dce0ed;}.cls-14{fill:#419cd6;}.cls-16{fill:#454154;}.cls-17{fill:#9965a8;}.cls-18{fill:#302e41;}.cls-21{fill:#dda3a7;}.cls-22{fill:#b67b7f;}.cls-23{fill:#fff;opacity:0.3;}</style></defs><title>Asset 2</title><g id="Layer_2" data-name="Layer 2"><g id="Layer_2-2" data-name="Layer 2"><path class="cls-1" d="M328.75,69.36a81.65,81.65,0,0,0-13.29-21.19L131,46.35,282.86,25A86.11,86.11,0,0,0,252,18.91a86.38,86.38,0,0,0-103.18-3.49,86,86,0,0,0-39.49-9.53c-41,0-75.15,28.4-82.81,66.05Z"/><path class="cls-1" d="M335.24,100.94a79.64,79.64,0,0,0-5.75-29.8L9.75,104.7a80,80,0,0,0-7.48,18.92l99,14.76L0,149.14c3.05,42.62,39.58,76.27,84.22,76.27a85.45,85.45,0,0,0,58-22.43,85.42,85.42,0,0,0,58.49,22.88c33.7,0,62.78-19.18,76.32-46.92,27.17-8.62,48.28-30.28,55.5-57.36L207.32,102.16H335.23C335.23,101.75,335.24,101.34,335.24,100.94Z"/><ellipse class="cls-2" cx="8.92" cy="234.48" rx="8.19" ry="1.13"/><ellipse class="cls-2" cx="40.31" cy="237.66" rx="8.19" ry="1.13"/><ellipse class="cls-2" cx="77.29" cy="233.35" rx="8.19" ry="1.13"/><ellipse class="cls-2" cx="27.75" cy="246.73" rx="5.83" ry="0.8"/><ellipse class="cls-2" cx="60.33" cy="245.93" rx="5.83" ry="0.8"/><path class="cls-3" d="M40.49,237.41S29,199.73,42.29,184.64c9.94-11.3,21.23-9.94,26.29-8.55a9.39,9.39,0,0,1,6,5c1.76,3.81,1.44,10-11,17.23C42.69,210.42,41.39,227,41.39,227Z"/><path class="cls-4" d="M66.78,181.44s-33.89,10.59-26.29,56"/><path class="cls-4" d="M47,185.24s4.66,3.14,3.17,7.86"/><path class="cls-4" d="M63.38,188s-2.86-2.9-6.32-1.3"/><path class="cls-4" d="M50,202.63s-5-2.54-6.3.63"/><path class="cls-4" d="M37.59,207.92s3.76-.3,3.83,1.5"/><path class="cls-3" d="M40,237.71s13.47-27.39,17.16-26.79c1.76.29,2.57,2,2.94,3.75a11,11,0,0,1-.74,6.68C57.49,225.72,52.34,234.05,40,237.71Z"/><path class="cls-4" d="M57.08,216.12S43,236.61,40.22,237.51"/><line class="cls-4" x1="58.38" y1="219.32" x2="55.09" y2="219.32"/><line class="cls-4" x1="54.43" y1="226.81" x2="49.27" y2="227.03"/><line class="cls-4" x1="51.29" y1="220.82" x2="51.85" y2="223.51"/><line class="cls-4" x1="45.79" y1="229.01" x2="45.89" y2="231.46"/><path class="cls-3" d="M40.42,237.71S27,210.32,23.26,210.92c-1.75.29-2.56,2-2.93,3.75a11,11,0,0,0,.74,6.66C23,225.72,28.11,234.05,40.42,237.71Z"/><path class="cls-4" d="M23.37,216.12s14.13,20.49,16.85,21.39"/><line class="cls-4" x1="22.07" y1="219.32" x2="25.36" y2="219.32"/><line class="cls-4" x1="26.02" y1="226.81" x2="31.19" y2="227.03"/><line class="cls-4" x1="29.16" y1="220.82" x2="28.6" y2="223.51"/><line class="cls-4" x1="34.66" y1="229.01" x2="34.56" y2="231.46"/><path class="cls-3" d="M63.54,244.1a2.33,2.33,0,0,0,.77-1.15,1,1,0,0,0-.54-1.18,1.47,1.47,0,0,0-1.41.5c-.4.34-.86.74-1.38.66a2.09,2.09,0,0,0,.63-2,.77.77,0,0,0-.18-.4c-.27-.29-.76-.16-1.09.06A4.1,4.1,0,0,0,59,244.05a7.38,7.38,0,0,1,0-1.41,1.42,1.42,0,0,0-.53-1.24,1.48,1.48,0,0,0-.8-.19,1.75,1.75,0,0,0-1.31.37,1.31,1.31,0,0,0,.06,1.61,5.06,5.06,0,0,0,1.35,1.08,3.09,3.09,0,0,1,1,.92,1.11,1.11,0,0,1,.07.16H61.7A8,8,0,0,0,63.54,244.1Z"/><path class="cls-3" d="M12.24,233.07a2.27,2.27,0,0,0,.77-1.15,1,1,0,0,0-.54-1.18c-.49-.19-1,.15-1.41.5a1.93,1.93,0,0,1-1.38.66,2.09,2.09,0,0,0,.63-2,.77.77,0,0,0-.18-.4c-.27-.29-.76-.17-1.09.07A4.08,4.08,0,0,0,7.7,233a7.38,7.38,0,0,1,0-1.41,1.44,1.44,0,0,0-.52-1.24,1.64,1.64,0,0,0-.81-.19,1.67,1.67,0,0,0-1.31.37,1.29,1.29,0,0,0,0,1.59,5.07,5.07,0,0,0,1.36,1.08,3.09,3.09,0,0,1,1,.92,1.22,1.22,0,0,1,.07.17H10.4A7.93,7.93,0,0,0,12.24,233.07Z"/><path class="cls-3" d="M29.34,244.1a2.33,2.33,0,0,0,.77-1.15,1,1,0,0,0-.54-1.18c-.49-.19-1,.15-1.42.5s-.85.74-1.37.66a2.09,2.09,0,0,0,.63-2,.77.77,0,0,0-.18-.4c-.27-.29-.76-.16-1.09.06a4.1,4.1,0,0,0-1.34,3.42,7.38,7.38,0,0,1,0-1.41,1.44,1.44,0,0,0-.52-1.24,1.54,1.54,0,0,0-.81-.19,1.75,1.75,0,0,0-1.31.37,1.32,1.32,0,0,0,.05,1.61,5.27,5.27,0,0,0,1.36,1.08,3.09,3.09,0,0,1,.95.92,1.11,1.11,0,0,1,.07.16H27.5A8,8,0,0,0,29.34,244.1Z"/><path class="cls-3" d="M77.82,221.81s1.1,1.44-.5,3.6-2.93,4-2.4,5.35c0,0,2.43-4,4.4-4.08S80,224.23,77.82,221.81Z"/><path class="cls-5" d="M77.82,221.81a1.6,1.6,0,0,1,.23.45c1.92,2.26,3,4.37,1.1,4.42s-3.79,3.13-4.28,3.91a1.09,1.09,0,0,0,0,.17s2.43-4,4.4-4.08S80,224.23,77.82,221.81Z"/><path class="cls-6" d="M79.87,223.64c0,.5-.06.91-.13.91s-.13-.41-.13-.91.07-.27.14-.27S79.87,223.13,79.87,223.64Z"/><path class="cls-6" d="M80.57,224.24c-.45.24-.83.39-.87.32s.3-.32.75-.55.26-.07.3,0S81,224,80.57,224.24Z"/><path class="cls-3" d="M72,221.81s-1.1,1.44.51,3.6,2.93,4,2.39,5.35c0,0-2.42-4-4.39-4.08S69.87,224.23,72,221.81Z"/><path class="cls-3" d="M72,221.81a1.88,1.88,0,0,0-.22.45c-1.92,2.26-3,4.37-1.1,4.42s3.79,3.13,4.28,3.91a1.15,1.15,0,0,1-.06.17s-2.42-4-4.39-4.08S69.87,224.23,72,221.81Z"/><path class="cls-6" d="M70,223.64c0,.5.06.91.13.91s.13-.41.13-.91-.07-.27-.14-.27S70,223.13,70,223.64Z"/><path class="cls-6" d="M69.28,224.24c.44.24.83.39.87.32s-.3-.32-.75-.55-.27-.07-.31,0S68.84,224,69.28,224.24Z"/><path class="cls-7" d="M70.33,230.57s3.07-.09,4-.75,4.72-1.45,5-.39,4.61,5.26,1.15,5.29-8.05-.54-9-1.11S70.33,230.57,70.33,230.57Z"/><path class="cls-8" d="M80.49,234.35c-3.47,0-8-.54-9-1.1-.7-.43-1-2-1.07-2.68h-.11s.2,2.48,1.12,3,5.51,1.13,9,1.1c1,0,1.34-.36,1.32-.89C81.61,234.14,81.23,234.34,80.49,234.35Z"/><ellipse class="cls-2" cx="194.36" cy="251.98" rx="104.55" ry="4.74"/><path class="cls-9" d="M183.71,110.22s6.66,12.61,7.18,14.41a2.46,2.46,0,0,0,2.25,1.8s6.64,1.58,8.22,1.8,15.35,1.37,15.35,1.37,3.49.11,3.91-1.16,7.13-7.27,11-1.94a3.89,3.89,0,0,1,.57,3.46c-.72,2.29-2.19,5.92-3.77,3.66-2.22-3.17-4.81-2.28-4.81-.59s-3.55,1.06-4.71,1.3c-.64.13-2.82.71-4.71,1.22a33.85,33.85,0,0,1-6.7,1.11c-3.75.25-9.28.45-11.23-.29-2.37-.9-6.49-1.1-8.26-1.15a2.68,2.68,0,0,1-1.6-.58,24.89,24.89,0,0,1-6.11-6.94c-2.76-4.77-8.42-14.62-8-17.48S183.71,110.22,183.71,110.22Z"/><path class="cls-10" d="M183.71,110.22s6.66,12.61,7.18,14.41a2.46,2.46,0,0,0,2.25,1.8s6.64,1.58,8.22,1.8,15.35,1.37,15.35,1.37,3.49.11,3.91-1.16,7.13-7.27,11-1.94a3.89,3.89,0,0,1,.57,3.46c-.72,2.29-2.19,5.92-3.77,3.66-2.22-3.17-4.81-2.28-4.81-.59s-3.55,1.06-4.71,1.3c-.64.13-2.82.71-4.71,1.22a33.85,33.85,0,0,1-6.7,1.11c-3.75.25-9.28.45-11.23-.29-2.37-.9-6.49-1.1-8.26-1.15a2.68,2.68,0,0,1-1.6-.58,24.89,24.89,0,0,1-6.11-6.94c-2.76-4.77-8.42-14.62-8-17.48S183.71,110.22,183.71,110.22Z"/><path class="cls-11" d="M260.17,205.48c-3,3.29-5.24,4.58-5.14,1.12.32-10.48-18.09-57.83-18.09-57.83l5.45-.41C254.26,168.82,258.68,189.87,260.17,205.48Z"/><path class="cls-12" d="M286.13,228.34a26.18,26.18,0,0,1-52.27,2.22c0-.43-.06-.85-.08-1.27v0c0-.32,0-.64,0-1a26.18,26.18,0,0,1,52.36,0Z"/><circle class="cls-13" cx="259.95" cy="228.32" r="14.28"/><circle class="cls-12" cx="259.95" cy="228.32" r="8.57"/><path class="cls-12" d="M191.19,178.6l-63.05,1.27v-9.3c.56-7.48,8.25-10.1,15.23-10.92a43.64,43.64,0,0,1,16.29,1.22c13.38,3.54,21.9,4.23,26.1,4.29a4,4,0,0,1,3.87,3.26c.2,1.06.4,2.22.58,3.36.14.9.27,1.78.39,2.6C191,176.75,191.19,178.6,191.19,178.6Z"/><path class="cls-14" d="M241.49,230h-131a5.15,5.15,0,0,1-4.78-3.09c-1-2.35.4-3.86,1.87-4.74a14.86,14.86,0,0,0,6.45-7.89c1.39-4.13,2.76-10.58,3.29-20.67.56-10.43,4.33-15.59,8.41-18.09h0a16.69,16.69,0,0,1,11.06-2l53.1.42a10.38,10.38,0,0,1,2.6,1.69c4.73,4.41-2.17,10.16-2.17,10.16-14.81,15.65-3.6,31.52-3.6,31.52h27.17A25,25,0,0,0,228.15,213c3.67-2.54,5.08-5,5.64-6.48.42-1.14.84-2.27,1.35-3.37,7.13-15.46-1.47-40.61-5.18-50-.92-2.34-1.54-3.71-1.54-3.71l8.53-.63,5.39-.41h0c11.88,20.48,16.3,41.53,17.78,57.13.14,1.47.25,2.89.34,4.26A19,19,0,0,1,242.74,230C242.32,230,241.9,230,241.49,230Z"/><path class="cls-5" d="M190.61,174.38H128.14v-2.6h62.07C190.35,172.66,190.49,173.54,190.61,174.38Z"/><path class="cls-5" d="M192.51,175.65H126.26a1.24,1.24,0,0,1-.5-.1,16.7,16.7,0,0,1,11-2l53.11.43A10.32,10.32,0,0,1,192.51,175.65Z"/><rect class="cls-13" x="101.78" y="172.4" width="92.58" height="2.6" rx="1.3"/><path class="cls-5" d="M260.17,205.48c-3,3.29-5.24,4.58-5.14,1.12.32-10.48-18.09-57.83-18.09-57.83l5.45-.41C254.26,168.82,258.68,189.87,260.17,205.48Z"/><path class="cls-5" d="M286,225.45c-3.12.75-7,1.51-11.74,2.22q-2.66.39-5.71.75c-4.87.58-10.49,1.08-17,1.47q-2.78.17-5.74.3-5.56.26-11.92.39l-.08-1.27v0c5.92-2.39,15.23-8.77,16.73-25.38A26.22,26.22,0,0,1,286,225.48Z"/><path class="cls-15" d="M228.85,230s30-3.26,19.7-49.06c0,0,14.85,13.62,24.09,21.19s25.71,18,25.71,18S288.52,229.32,228.85,230Z"/><path class="cls-14" d="M228.85,230s30-3.26,19.7-49.06c0,0,14.85,13.62,24.09,21.19s25.71,18,25.71,18S288.52,229.32,228.85,230Z"/><circle class="cls-12" cx="148.55" cy="228.32" r="26.18"/><circle class="cls-13" cx="148.55" cy="228.32" r="14.28"/><circle class="cls-12" cx="148.55" cy="228.32" r="8.57"/><path class="cls-5" d="M177.91,220.46c0-16.91-13.43-30.62-30-30.62s-30,13.71-30,30.62c0,.71,0,1.42.07,2.12h59.84C177.89,221.88,177.91,221.17,177.91,220.46Z"/><path class="cls-15" d="M176.8,219.93c0-16.28-12.93-29.48-28.88-29.48S119,203.65,119,219.93c0,.69,0,1.37.07,2h57.62C176.77,221.3,176.8,220.62,176.8,219.93Z"/><path class="cls-14" d="M176.8,219.93c0,.47,0,.95,0,1.41,0,.21,0,.42,0,.63H119.11c0-.21,0-.42,0-.63,0-.47,0-1,0-1.41,0-16.28,12.93-29.48,28.88-29.48S176.8,203.65,176.8,219.93Z"/><path class="cls-5" d="M176.76,221.35c0,.22,0,.43,0,.64H119.11c0-.21,0-.42,0-.64Z"/><path class="cls-5" d="M109.79,222.61h70.82A3.38,3.38,0,0,1,184,226v0a3.39,3.39,0,0,1-3.39,3.39H109.78A3.38,3.38,0,0,1,106.4,226v0A3.39,3.39,0,0,1,109.79,222.61Z"/><path class="cls-13" d="M109.79,222h70.82a3.38,3.38,0,0,1,3.38,3.38v0a3.39,3.39,0,0,1-3.39,3.39H109.78a3.38,3.38,0,0,1-3.38-3.38v0a3.39,3.39,0,0,1,3.39-3.39Z"/><ellipse class="cls-5" cx="251.06" cy="169.1" rx="3.8" ry="9.57" transform="translate(-47.37 118.45) rotate(-24.33)"/><ellipse class="cls-13" cx="251.38" cy="168.78" rx="3.8" ry="9.57" transform="translate(-47.21 118.55) rotate(-24.33)"/><path class="cls-5" d="M242.34,148.36v5h-9.68a16.18,16.18,0,0,1-2.69-.22c-.92-2.33-1.54-3.7-1.54-3.7l8.52-.63Z"/><path class="cls-14" d="M242.34,152.68h-9.68c-8.5,0-15.4-6.34-15.4-14.21v-1.31c0-7.85,6.9-14.21,15.4-14.21l9.68.88Z"/><path class="cls-15" d="M226.39,131.36s5.79,3.1,2.46,8.33c0,0-4.09,6.71-10.52,6.07L216,131.36S223.69,130.65,226.39,131.36Z"/><path class="cls-14" d="M224.16,131.08a6.17,6.17,0,0,1,4.71,2.48,5.07,5.07,0,0,1,0,6.13s-4.09,6.71-10.52,6.07L216,131.36A68.47,68.47,0,0,1,224.16,131.08Z"/><path class="cls-5" d="M242,123.83h1.87a5.92,5.92,0,0,1,5.91,5.91v17a5.92,5.92,0,0,1-5.91,5.91H242V123.83Z"/><path class="cls-13" d="M242.34,123.83h1.86a5.91,5.91,0,0,1,5.91,5.91v17a5.91,5.91,0,0,1-5.91,5.91h-1.86V123.83Z"/><path class="cls-9" d="M173.61,160.89s1.5.54,3.49,1.3a79.94,79.94,0,0,1,9.21,4c1.55,1,7.35,2.58,11.69,3.71a38.61,38.61,0,0,0,9.86,1.22c3.38,0,7.47-.07,8.6-.07a3.92,3.92,0,0,1,.59.05c1.19.19,1.14,1,1.11,1.18v0c-7,4.23-15.45,23.17-16,26.34-.4,2.39-3.89,9-5.61,12.14l-1,1.72,2.12,2.44,6.13,2.75,5.82,2.54s6.14.31,6.24,0,.11-3.6.11-3.6a16.66,16.66,0,0,1-2.12-1.61,34.35,34.35,0,0,1-3.91-4c-3.39-4,3.38-11.74,3.38-11.74l13-16.93s1.06-1.9,6.14-9.52,0-11.74,0-11.74l-8.94-3.71c-15.5-5.8-34.2-10.45-34.2-10.45l-.26,0-4-.49Z"/><path class="cls-16" d="M213.55,217.7s1.11,1.31.28,1.43a14.31,14.31,0,0,1-3-.36L197,211.47s-1.51-1.07-1.87,1-.59,1.91-.59,1.91-1.83,3.92,0,4.73,12.78,4,12.78,4,15.91,3.61,17.42-.55-2.7-3.45-2.7-3.45-5.23-1.27-7-3.81C215,215.36,212.4,216.07,213.55,217.7Z"/><path class="cls-10" d="M232.54,161.1l-8.94-3.71c-15.5-5.8-34.2-10.45-34.2-10.45l-.26,0-4-.49-11.56,14.48s1.5.54,3.49,1.3a79.94,79.94,0,0,1,9.21,4c1.55,1,7.35,2.58,11.69,3.71a38.61,38.61,0,0,0,9.86,1.22c3.38,0,7.47-.07,8.6-.07a3.92,3.92,0,0,1,.59.05c1.19.19,1.14,1,1.11,1.18v0c-7,4.23-15.45,23.17-16,26.34-.4,2.39-3.89,9-5.61,12.14l-.23.42c-.46-.07-1,.09-1.24,1.29-.36,2.1-.59,1.91-.59,1.91s-1.83,3.92,0,4.73,12.77,4,12.77,4,15.91,3.61,17.42-.55-2.7-3.45-2.7-3.45-5.23-1.27-7-3.81a2.54,2.54,0,0,0-.46.17l-.6-.5a34.35,34.35,0,0,1-3.91-4c-3.39-4,3.38-11.74,3.38-11.74l13-16.93s1.06-1.9,6.14-9.52S232.54,161.1,232.54,161.1Z"/><path class="cls-9" d="M163,90.11l.49.6.27.34,1.68,2.12s4,1.29,7.53,2.12c3.67.87,6.8,1.25,4.31-.82-1.54-1.29-1.64-3.44-1.08-5.75a23.64,23.64,0,0,1,2-5.11c.12-.24.25-.47.37-.7a43.68,43.68,0,0,1,2.61-4.23,72.66,72.66,0,0,0-7-4.3c-2.9-1.51-5.29-2.17-3.78.81a7,7,0,0,1-.25,6.09c-.07.16-.15.32-.23.49a22.24,22.24,0,0,1-3,4.41A35.66,35.66,0,0,1,163,90.11Z"/><polygon class="cls-16" points="183.06 138.45 185.21 140.42 187.29 148.41 183.82 148.41 179.99 143.43 183.06 138.45"/><polygon class="cls-5" points="179.99 143.43 182.31 146.44 183.82 148.41 187.29 148.41 186.93 147.05 185.42 141.22 185.21 140.42 183.06 138.45 180.12 143.22 179.99 143.43"/><polygon class="cls-5" points="179.99 143.43 182.31 146.44 183.82 148.41 187.29 148.41 186.93 147.05 185.42 141.22 185.21 140.42 183.06 138.45 180.12 143.22 179.99 143.43"/><path class="cls-9" d="M168.46,164.48s1.49.54,3.49,1.3a79.67,79.67,0,0,1,9.2,4c1.56,1,7.36,2.58,11.7,3.71a38.11,38.11,0,0,0,9.86,1.22l8.59-.06a2.88,2.88,0,0,1,.59,0c1.19.2,1.14,1,1.12,1.18v0c-7,4.23-15.45,23.16-16,26.34-.39,2.38-3.88,9-5.6,12.13-.58,1.06-1,1.73-1,1.73l2.12,2.43,6.13,2.75,5.82,2.54s6.14.31,6.24,0,.11-3.6.11-3.6a16.66,16.66,0,0,1-2.12-1.61,34.35,34.35,0,0,1-3.91-4c-3.38-4,3.38-11.74,3.38-11.74l13-16.93s1.05-1.9,6.13-9.52,0-11.74,0-11.74L219.25,160c-12.7-7.72-30.58-12.16-30.58-12.16l-.26,0-4-.49Z"/><path class="cls-5" d="M190.47,216.1l2.12,2.44,6.13,2.75,5.82,2.54s6.14.31,6.24,0,.11-3.6.11-3.6a16.66,16.66,0,0,1-2.12-1.61c-.66.35-1.4,1-.68,2,0,0,1.11,1.31.28,1.43a13.73,13.73,0,0,1-3-.35l-13.85-7.3-.08-.06Z"/><path class="cls-16" d="M208.39,221.29s1.11,1.3.28,1.43a13.66,13.66,0,0,1-3-.36l-13.84-7.3s-1.51-1.07-1.87,1-.59,1.9-.59,1.9-1.82,3.93,0,4.74,12.78,4,12.78,4,15.9,3.61,17.41-.56-2.7-3.45-2.7-3.45-5.23-1.27-7-3.81C209.83,218.94,207.24,219.66,208.39,221.29Z"/><path class="cls-5" d="M169.3,80.48c1.84,1.27,4.64,3.27,7,3.27a11.4,11.4,0,0,0,1.84-.14,42.48,42.48,0,0,1,3-4.93s-14-9.73-10.79-3.49C171.41,77.26,170.38,78.28,169.3,80.48Z"/><path class="cls-9" d="M164.9,71.69a11.42,11.42,0,0,0,5.21,9.59,11.11,11.11,0,0,0,1.12.63,11.42,11.42,0,1,0-6.33-10.22Z"/><path class="cls-5" d="M168.46,164.48s1.49.54,3.49,1.3a16.9,16.9,0,0,1,3.07-2.36c1.17-.43,5-2.65,4.87-3.28s1.59-3.07,3.07-3.49.63-2.65.63-2.65,2.86-1.05,3.57-2.54,2.89-3.38,2.15-3.27a2.37,2.37,0,0,1-.9-.36l-4-.49Z"/><path class="cls-16" d="M159.78,160.67s4.87,4,5.1,5.82,3.47,1.69,3.47,1.69,4.87-4.66,6-5.08,5-2.64,4.87-3.28,1.59-3.07,3.06-3.49.64-2.64.64-2.64,2.86-1.06,3.57-2.54,2.89-3.39,2.14-3.28a5.42,5.42,0,0,1-1.73-.82c-1-.64-2.36-1.5-3.44-2.23s-2-1.39-2-1.39l-1.35-.21c-4.61-.66-19.61-2.37-23.09,3.18a8.48,8.48,0,0,0-1,2.37C154.44,154.67,159.78,160.67,159.78,160.67Z"/><path class="cls-5" d="M164.87,147.84s-5,2.81-6.82,2.81S164.87,147.84,164.87,147.84Z"/><path class="cls-5" d="M168.19,150s-7.4,2.49-7.4,4.45S160.1,149.19,168.19,150Z"/><path class="cls-5" d="M185.91,138.78l-.1.14A.45.45,0,0,0,185.91,138.78Z"/><path class="cls-5" d="M163,90.11l.49.6.27.34,1.68,2.12s4,1.29,7.53,2.12c3.67.87,6.8,1.25,4.31-.82-1.54-1.29-1.64-3.44-1.08-5.75l-.11-.14s.11,2.14-1.16,2.18c-1.71,0-1.73-.52-3.3-1.18-2-.86-4.11-2.29-4.69-3.41A34.9,34.9,0,0,1,163,90.11Z"/><path class="cls-5" d="M156,148.76a3.66,3.66,0,0,0,2.72.06c3.28-1.06,8.47-3.61,10.9-2.49,1.95.89,9.8.87,12.69.11.73-.18,1.14-.42,1.07-.69a1.86,1.86,0,0,1,.12-.93,17,17,0,0,1,1.93-3.6l-.21-.8-2.15-2-2.94,4.76c-4.61-.66-19.61-2.37-23.09,3.18A8.23,8.23,0,0,0,156,148.76Z"/><path class="cls-17" d="M153.86,146.28a3.61,3.61,0,0,0,4.55,1.91c3.28-1.06,8.46-3.62,10.89-2.5s14.08.8,13.76-.57,2.85-5.72,2.85-5.72-1.73-.31-2.8-6c-.16-.83-.3-1.77-.42-2.83a35.4,35.4,0,0,1-.19-6.59c.43-6.12,2.58-8.62,2.58-8.62a7.13,7.13,0,0,0,.42-8c-1.33-2.44-6.7-9.21-6.77-12.22-.07-2.74-2.68-5.92-2.68-5.92s.11,2.14-1.16,2.18c-1.71.06-1.73-.52-3.3-1.18-2.32-1-4.69-2.7-4.85-3.85,0,0-9.7-.49-11.81,9.35s-1.38,15.23-1.06,16.4,3.06,16.19.84,22.53A21.87,21.87,0,0,0,153.86,146.28Z"/><path class="cls-5" d="M169.67,129a24.81,24.81,0,0,0,6.88,7.51,46.74,46.74,0,0,1,5.55.37,28.31,28.31,0,0,1-.42-2.83,36.17,36.17,0,0,1-.18-6.58,2.41,2.41,0,0,1-1.25-1.54c-.53-1.8-5.25-10.37-5.25-10.37s-11-2.85-11.42,0S166.92,124.24,169.67,129Z"/><path class="cls-9" d="M173.33,110.22s6.67,12.61,7.19,14.41a2.43,2.43,0,0,0,2.24,1.8s6.64,1.58,8.23,1.8,15.35,1.37,15.35,1.37,3.49.11,3.91-1.16,7.14-7.27,11-1.94a3.86,3.86,0,0,1,.56,3.46c-.71,2.29-2.19,5.92-3.77,3.66-2.22-3.17-4.8-2.28-4.8-.59s-3.56,1.06-4.72,1.3c-.63.13-2.82.71-4.7,1.22a34,34,0,0,1-6.72,1.11c-3.75.25-9.28.45-11.24-.29-2.36-.9-6.48-1.1-8.25-1.15a2.71,2.71,0,0,1-1.61-.58,25,25,0,0,1-6.1-6.94c-2.75-4.77-8.41-14.62-8-17.48S173.33,110.22,173.33,110.22Z"/><path class="cls-5" d="M171.11,92.75a85.9,85.9,0,0,1,5.23,10.15c1.65,4.24,3.66,11.64,3.66,11.64l-9.95-1.16-.84-1.38s-7.11,4.45-6.26,6.35-1.9-2.85-1.69-8.25-.76-15,0-17.35S168.77,91,171.11,92.75Z"/><path class="cls-17" d="M161.27,109.47c-.21,5.39,2.54,10.15,1.69,8.25s6.26-6.35,6.26-6.35l.83,1.37,9.95,1.17s-2-7.41-3.66-11.64a65.23,65.23,0,0,0-3.41-7c-1-1.85-1.82-3.18-1.82-3.18-1.37-1-4.27-1.67-6.59-1.53a9.47,9.47,0,0,0-1.07.13,3,3,0,0,0-2.06,1.12,1.75,1.75,0,0,0-.13.28C160.5,94.44,161.48,104.07,161.27,109.47Z"/><path class="cls-5" d="M156.83,124.24s4.2,5.79,5.47,6C162.29,130.2,156.9,129,156.83,124.24Z"/><path class="cls-5" d="M156.83,132.49s7.93,8,10.47,8.09S156.83,132.49,156.83,132.49Z"/><path class="cls-5" d="M156.83,135.83s5.08,5.95,5.39,5.95S156.74,139.72,156.83,135.83Z"/><path class="cls-5" d="M161.38,91.83a7,7,0,0,0,2.33-.78c.27-.14.54-.3.8-.47a18.83,18.83,0,0,0,2.9-2.38,12.29,12.29,0,0,0,3.52-4.91,10.8,10.8,0,0,0,.3-1.37c.36-2.44.05-5.14,1.8-6.8a4.43,4.43,0,0,1,1.11-.75c2.48-1.17,6.07-.41,7.91-2.54,1.18-1.34,1.15-3.21,2-4.67a9.8,9.8,0,0,1,1.76-1.77,11.42,11.42,0,1,0-15.75,15.87c-.07.16-.15.31-.23.48-2.18,4.45-6.93,8.34-6.93,8.34l.49.61A3.12,3.12,0,0,0,161.38,91.83Z"/><path class="cls-18" d="M181.42,71.52c-2.15,2.47-6.66,1-9,3.29-2.08,2-1.25,5.42-2.1,8.16a12.36,12.36,0,0,1-3.52,4.92c-2.12,2.07-4.84,4.17-7.75,3.57-1.72-.35-3.41-1.64-5.08-1a5.83,5.83,0,0,0-2,1.64,14,14,0,0,1-7.8,4,3.34,3.34,0,0,1-1.77-.09c-.88-.36-1.36-1.33-2.17-1.85-1.59-1-3.63,0-5.27.94a36.92,36.92,0,0,1-30.31,2.18L107.15,96c-.55-1.12-2-1.36-3-2.18-1.94-1.67-.8-5,1.25-6.57s4.7-2.08,6.82-3.52a1.75,1.75,0,0,0,.91-1.19,1.92,1.92,0,0,0-.35-1.06c-1.13-2-2.38-4.13-2.12-6.4.38-3.49,4.19-5.64,7.69-5.88s7,.8,10.48.87a7,7,0,0,0,3.69-.76c1.52-.92,2.28-2.66,3.21-4.17a16.94,16.94,0,0,1,6.82-6.29c3.17-1.61,6.77-2.17,10.07-3.5s6.43-3.49,10-4.35c5.12-1.27,10.6.39,15,3.26,2.13,1.38,8.93,5.81,8.89,8.65,0,1.68-2.22,2.59-3.05,3.91C182.57,68.31,182.59,70.18,181.42,71.52Z"/><g class="cls-19"><path class="cls-20" d="M112.51,79.9a1.92,1.92,0,0,1,.35,1.06,1.27,1.27,0,0,1-.11.38,13.14,13.14,0,0,1-2.06-5.22A20.52,20.52,0,0,0,112.51,79.9Z"/><path class="cls-20" d="M103.88,92.24c.93.82,2.41,1.06,3,2.18l-.91.45a10.44,10.44,0,0,1-1.73-1,3,3,0,0,1-1-2.46A2.71,2.71,0,0,0,103.88,92.24Z"/><path class="cls-20" d="M134.57,93.51c1.65-.91,3.69-2,5.28-.93.8.51,1.29,1.49,2.17,1.85a3.43,3.43,0,0,0,1.77.08,14.09,14.09,0,0,0,7.8-4,5.86,5.86,0,0,1,2-1.65c1.66-.59,3.35.69,5.08,1,2.91.59,5.62-1.51,7.75-3.58A12.33,12.33,0,0,0,170,81.39c.85-2.74,0-6.19,2.1-8.17,2.37-2.26,6.88-.82,9-3.28,1.17-1.35,1.14-3.22,2-4.68.76-1.24,2.73-2.11,3-3.6a2.69,2.69,0,0,1,.35,1.27c0,1.68-2.22,2.59-3.05,3.91s-.87,3.33-2,4.68c-2.16,2.46-6.67,1-9,3.28-2.08,2-1.25,5.43-2.1,8.17a12.36,12.36,0,0,1-3.52,4.91c-2.13,2.07-4.85,4.17-7.75,3.58-1.73-.35-3.42-1.64-5.08-1a5.88,5.88,0,0,0-2,1.65,14.06,14.06,0,0,1-7.8,4,3.23,3.23,0,0,1-1.77-.08c-.89-.36-1.37-1.33-2.18-1.85-1.58-1-3.62,0-5.27.93a36.87,36.87,0,0,1-30.3,2.18l1.77-.87A37,37,0,0,0,134.57,93.51Z"/></g><path class="cls-5" d="M213,175.86l2.66-1.29v-.51c0-.19-2.12.24-3.78.6C213.08,174.87,213,175.67,213,175.86Z"/><ellipse class="cls-14" cx="215.33" cy="138.85" rx="6.43" ry="7.82"/><polygon class="cls-21" points="153.44 128.67 143.1 138.86 109.12 138.27 118.46 128.67 153.44 128.67"/><polygon class="cls-22" points="153.44 163.54 153.44 128.67 143.1 138.86 143.1 172.99 153.44 163.54"/><polygon class="cls-21" points="109.12 138.27 109.12 172.99 143.1 172.99 143.1 138.86 109.12 138.27"/><polygon class="cls-23" points="109.12 138.27 109.12 172.99 143.1 172.99 143.1 138.86 109.12 138.27"/><polygon class="cls-13" points="140.34 148.42 115.07 144.08 111.77 160.67 137.79 165.45 140.34 148.42"/><polygon class="cls-15" points="135.35 152.29 118.36 149.63 117.93 151.84 134.92 154.72 135.35 152.29"/><polygon class="cls-15" points="130.67 157.03 121.01 155.63 120.58 158.09 130.67 159.51 130.67 157.03"/><polygon class="cls-12" points="149.26 146.97 148.8 133.24 146.14 135.87 146.6 149.63 149.26 146.97"/><polygon class="cls-12" points="115.04 132.18 147.7 132.62 148.8 133.24 146.14 135.87 145.22 135.32 112.88 134.41 115.04 132.18"/></g></g></svg>