<svg xmlns="http://www.w3.org/2000/svg" viewBox="0 0 98 98"><defs><style>.cls-1{fill:#dd549e;}.cls-2{fill:#2f1220;}.cls-3{fill:#bf91c2;}</style></defs><title>Asset 7</title><g id="Layer_2" data-name="Layer 2"><g id="Layer_2-2" data-name="Layer 2"><path class="cls-1" d="M84,98H14A14,14,0,0,1,0,84V14A14,14,0,0,1,14,0H84A14,14,0,0,1,98,14V84A14,14,0,0,1,84,98ZM14,8a6,6,0,0,0-6,6V84a6,6,0,0,0,6,6H84a6,6,0,0,0,6-6V14a6,6,0,0,0-6-6Z"/><rect class="cls-2" x="4" y="4" width="90" height="90" rx="10"/><path class="cls-3" d="M41.79,66.61l-4.08-8c-1.64-3.1-2.7-5.26-3.81-7.6h-.12c-.91,2.35-1.93,4.49-3.47,7.6l-3.78,8H18.6L29.87,46.13,19,26.17h8l4.1,8.32C32.34,37,33.27,39,34.24,41.27h.14c1-2.49,1.82-4.32,3-6.76l4.08-8.34h8L38.28,45.89,49.83,66.61Z"/><path class="cls-3" d="M77.94,24V58.42c0,3,.1,6.21.22,8.19H72L71.68,62h-.13a9.69,9.69,0,0,1-8.91,5.28c-6.55,0-11.74-5.95-11.74-14.93,0-9.78,5.7-15.6,12.3-15.6,3.76,0,6.46,1.65,7.69,3.81H71V24ZM71,49.57a10.53,10.53,0,0,0-.15-1.93,6.21,6.21,0,0,0-6-5.18c-4.47,0-6.95,4.19-6.95,9.61s2.5,9.29,6.87,9.29a6.26,6.26,0,0,0,6-5.26A9.18,9.18,0,0,0,71,54Z"/></g></g></svg>