<svg xmlns="http://www.w3.org/2000/svg" viewBox="0 0 98 98"><defs><style>.cls-1{fill:#b5d5e0;}.cls-2{fill:#3f4157;}</style></defs><title>Asset 8</title><g id="Layer_2" data-name="Layer 2"><g id="Layer_2-2" data-name="Layer 2"><path class="cls-1" d="M84,98H14A14,14,0,0,1,0,84V14A14,14,0,0,1,14,0H84A14,14,0,0,1,98,14V84A14,14,0,0,1,84,98ZM14,8a6,6,0,0,0-6,6V84a6,6,0,0,0,6,6H84a6,6,0,0,0,6-6V14a6,6,0,0,0-6-6Z"/><rect class="cls-2" x="4" y="4" width="90" height="90" rx="10"/><path class="cls-1" d="M30.09,26.17h7V60.41H52.66v6.2H30.09Z"/><path class="cls-1" d="M56.51,46.79c0-3.91-.08-6.79-.22-9.39h6L62.55,43h.2c1.35-4.11,4.55-6.21,7.51-6.21a6.35,6.35,0,0,1,1.63.16v7a8.53,8.53,0,0,0-2-.21c-3.3,0-5.6,2.24-6.22,5.59a13.67,13.67,0,0,0-.18,2.22V66.61H56.51Z"/></g></g></svg>