<svg xmlns="http://www.w3.org/2000/svg" viewBox="0 0 45.07 53.51"><defs><style>.cls-1{fill:#ffc713;}.cls-2{fill:#fff;}.cls-3{fill:#43a1da;}</style></defs><title>Asset 12</title><g id="Layer_2" data-name="Layer 2"><g id="Layer_2-2" data-name="Layer 2"><circle class="cls-1" cx="22.53" cy="27.98" r="22.53"/><path class="cls-2" d="M44.17,41.3l-18-38.92a3.58,3.58,0,0,0-6.5,0L1.64,41.3A3.59,3.59,0,0,0,4.9,46.39H17.32l3.11,5.38a2.86,2.86,0,0,0,4.95,0l3.11-5.38H40.91a3.59,3.59,0,0,0,3.26-5.09Z"/><path class="cls-3" d="M44.44,41.18l-18-38.93a3.89,3.89,0,0,0-7,0l-18,38.93A3.88,3.88,0,0,0,4.9,46.69H17.14l3,5.24a3.17,3.17,0,0,0,5.49,0l3-5.24H40.91a3.88,3.88,0,0,0,3.53-5.51ZM24.63,51.34a2,2,0,0,1-3.45,0L18.5,46.69H22L22.9,20l.87,26.73h3.54ZM43.2,44.27a2.71,2.71,0,0,1-2.29,1.25h-16L23.48,1.43H22.32L20.91,45.52H4.9a2.71,2.71,0,0,1-2.47-3.85l18-38.93a2.72,2.72,0,0,1,4.93,0l18,38.93A2.71,2.71,0,0,1,43.2,44.27Z"/><path class="cls-3" d="M6.39,42.06a2.59,2.59,0,0,1-.17-2.5l7.4-16.26-1.07-.49L5.15,39.07A3.78,3.78,0,0,0,8.6,44.44h7.63V43.27H8.6A2.6,2.6,0,0,1,6.39,42.06Z"/><polygon class="cls-3" points="16.05 16.87 14.95 16.45 13.04 21.46 14.14 21.88 16.05 16.87"/><rect class="cls-3" x="30.57" y="12.18" width="1.17" height="16.15" transform="translate(-5.47 13.94) rotate(-23.25)"/><rect class="cls-3" x="25.28" y="3.96" width="1.17" height="7.53" transform="translate(-0.93 10.95) rotate(-23.48)"/></g></g></svg>