<svg xmlns="http://www.w3.org/2000/svg" xmlns:xlink="http://www.w3.org/1999/xlink" viewBox="0 0 764.11 592.07"><defs><style>.cls-1,.cls-6{fill:#6467af;}.cls-1,.cls-4,.cls-8{opacity:0.1;}.cls-1,.cls-26,.cls-4,.cls-7{isolation:isolate;}.cls-2{fill:#edc5ce;}.cls-3{fill:#d3899a;}.cls-26,.cls-4,.cls-9{fill:#010101;}.cls-5,.cls-7{fill:#fff;}.cls-26,.cls-7{opacity:0.2;}.cls-10{fill:url(#linear-gradient);}.cls-11{fill:#585b8a;}.cls-12{fill:#fbd6e0;}.cls-13{fill:#3f2b3c;}.cls-14{fill:#c67586;}.cls-15{fill:#fac5a8;}.cls-16{fill:#d5dfea;}.cls-17{fill:#dbe4ef;}.cls-18{fill:#464b60;}.cls-19{fill:#929397;}.cls-20{fill:#4c4972;}.cls-21{fill:#e7e9ef;}.cls-22{fill:#f0cdc7;}.cls-23{fill:#43322e;}.cls-24{fill:#f5e1dd;}.cls-25{fill:#f0dada;}.cls-27{fill:#9b9ba0;}</style><linearGradient id="linear-gradient" x1="9966.34" y1="168.25" x2="9966.34" y2="532.12" gradientTransform="translate(10513.16 688.94) rotate(180)" gradientUnits="userSpaceOnUse"><stop offset="0" stop-color="#818181" stop-opacity="0.25"/><stop offset="0.54" stop-color="#818181" stop-opacity="0.12"/><stop offset="1" stop-color="#818181" stop-opacity="0.1"/></linearGradient></defs><title>Asset 4</title><g id="Layer_2" data-name="Layer 2"><g id="Layer_2-2" data-name="Layer 2"><ellipse class="cls-1" cx="401.39" cy="519.66" rx="95.15" ry="10.53"/><ellipse class="cls-1" cx="307.09" cy="573.25" rx="25.2" ry="2.79"/><ellipse class="cls-1" cx="551.92" cy="589.28" rx="25.2" ry="2.79"/><ellipse class="cls-1" cx="713.68" cy="528.08" rx="25.2" ry="2.79"/><ellipse class="cls-1" cx="104.12" cy="555.99" rx="95.15" ry="21.76"/><path class="cls-1" d="M43.78,223.26h67v91.32H48.67c-.16.94-.32,1.88-.49,2.82h62.58V391l-.3-.12c-1.78-.72-3.54-1.45-5.27-2.22l-1.13-.52c-1.78-.83-3.53-1.71-5.27-2.64-.61-.32-1.22-.66-1.83-1A109.63,109.63,0,0,1,70.61,364c-.23-.21-.44-.45-.65-.67-1.07-1.15-2.12-2.33-3.13-3.53l-1.13-1.35c-1.21-1.46-2.37-3-3.49-4.51l-.49-.68a97.67,97.67,0,0,1-11.36-20.52c-.09-.22-.18-.45-.26-.67-.92-2.31-1.73-4.66-2.45-7.05-.3-1-.6-2-.85-3-.09-.29-.17-.6-.25-.89-3.71-14.63-4.13-29.83-4.13-44.95v-5.28q0-9.17.17-18.4c0-1.58.07-3.17.1-4.77.1-4.05.22-8.11.4-12.16,0-1.12.09-2.25.15-3.37,0-.65.06-1.29.1-1.94C43.48,227.91,43.62,225.59,43.78,223.26Z"/><path class="cls-1" d="M110.76,121.59H74A277.07,277.07,0,0,1,93.57,94.68C99,88,104.77,81.43,110.76,75.14Z"/><path class="cls-1" d="M110.76,124.41v96H44a8.12,8.12,0,0,1,.07-.85c.06-.73.12-1.51.18-2.26s.16-1.77.24-2.67.17-1.92.28-2.88.19-1.92.3-2.91.21-1.92.33-2.87.22-1.91.35-2.86c.1-.8.2-1.58.31-2.38.15-1.11.31-2.23.48-3.34a2.74,2.74,0,0,1,.08-.5,227.64,227.64,0,0,1,4.91-24.1,178.29,178.29,0,0,1,8.29-24.43,182,182,0,0,1,12.46-24Z"/><path class="cls-1" d="M126.76,223.26v91.32H269.84V223.26Zm0,94.14v78.46c.82.17,1.63.34,2.44.48,1.09.21,2.18.4,3.28.56.22,0,.43.07.65.09l1.32.19c1.1.15,2.19.28,3.32.38l1.57.14,1.28.09h0c.69,0,1.37.1,2.06.12a10.87,10.87,0,0,1,1.27,0h4.68c.57,0,1.14,0,1.7,0h0a9.32,9.32,0,0,0,1.18-.05h.33a6.37,6.37,0,0,0,1-.05h.23l2.18-.17,2.19-.23,1.5-.18A131.81,131.81,0,0,0,177,393.38c13.35-3.73,26.38-8.94,39.75-12.75,17.35-5,36.41-7.36,53-1.39V317.4ZM269.84,121.59V0a183.87,183.87,0,0,0-46.48,5.45c-36.24,9.1-68.78,28.85-96.61,54.07v62.06h7.18v2.82h-7.18v96H269.84v-96H163.46v-2.82ZM453.68,80.52A59.22,59.22,0,0,1,427.74,73C412.33,64.6,400,51.65,386.25,40.73,357.68,18,322.23,4.24,285.87.83V121.59H490.12l.51-.54Zm18.61-3.33L492,98.85V71.52c-6.62.82-12.41,2.79-19.72,5.67ZM492,415.29V317.4H450q-.16-.63-.36-1.26c.13.42.24.84.35,1.26H285.87v70.8c1.56,1.15,3.1,2.37,4.62,3.6h0c1.65,1.34,3.28,2.71,4.91,4.08l1.64,1.36c.78.65,1.58,1.3,2.37,1.94,1.59,1.29,3.19,2.55,4.8,3.81l2.43,1.87a331.16,331.16,0,0,0,40.69,26.61q4.77,2.65,9.63,5.15,3.24,1.67,6.51,3.27,4.9,2.4,9.89,4.64h0a363.48,363.48,0,0,0,96.41,28.07q11.07,1.63,22.25,2.58V415.29h0ZM285.87,124.41v96H492v-96Zm0,98.85v91.32H492V223.26ZM508,71.39v30.55L533.22,74.3Q520.71,72.26,508,71.39Zm0,151.87v91.32H708.55V223.26ZM707.85,422.54l.73-105.14H508V476.25a360.33,360.33,0,0,0,38.75-.47H547q9.22-.58,18.4-1.69h.14a338.82,338.82,0,0,0,94.53-25.23m87.15-210.53c-.76-1.78-1.54-3.55-2.34-5.29-1.46-3.28-3.07-6.51-4.69-9.72H724.56v91.26h39.55c0-25.83-6.58-52.27-16.87-76.32Zm-22.67,79.14v90.38A129.67,129.67,0,0,0,751.89,371c8.15-16.83,11.87-35,12.19-53.59Zm0-120.76V220.5h14.17a256.76,256.76,0,0,0-14.17-23.85Zm-136-107.4-3.14-1.19a283.21,283.21,0,0,0-33.87-10.2L513,120.18h0l-.73.81.49.54H649.93A293.22,293.22,0,0,0,588.57,89.31ZM654,124.41H510.85L508,127v93.45H708.54V175.15A285.27,285.27,0,0,0,654,124.41Z"/><path class="cls-1" d="M110.76,172.85v47.59H44a8.12,8.12,0,0,1,.07-.85c.06-.73.12-1.51.18-2.26s.16-1.77.24-2.67.17-1.92.28-2.88.19-1.92.3-2.91.21-1.92.33-2.87.22-1.91.35-2.86c.1-.8.2-1.58.31-2.38.15-1.11.31-2.23.48-3.34a2.74,2.74,0,0,1,.08-.5,227.64,227.64,0,0,1,4.91-24.1Z"/><path class="cls-1" d="M43.78,223.26h67v91.32H48.67c-.16.94-.32,1.88-.49,2.82h62.58V391l-.3-.12c-1.78-.72-3.54-1.45-5.27-2.22l-1.13-.52c-1.78-.83-3.53-1.71-5.27-2.64-.61-.32-1.22-.66-1.83-1A109.63,109.63,0,0,1,70.61,364c-.23-.21-.44-.45-.65-.67-1.07-1.15-2.12-2.33-3.13-3.53l-1.13-1.35c-1.21-1.46-2.37-3-3.49-4.51l-.49-.68a97.67,97.67,0,0,1-11.36-20.52c-.09-.22-.18-.45-.26-.67-.92-2.31-1.73-4.66-2.45-7.05-.3-1-.6-2-.85-3-.09-.29-.17-.6-.25-.89-3.71-14.63-4.13-29.83-4.13-44.95v-5.28q0-9.17.17-18.4c0-1.58.07-3.17.1-4.77.1-4.05.22-8.11.4-12.16,0-1.12.09-2.25.15-3.37,0-.65.06-1.29.1-1.94C43.48,227.91,43.62,225.59,43.78,223.26Z"/><polygon class="cls-1" points="177.14 138.16 177.14 220.44 126.77 220.44 126.77 138.16 133.94 138.16 133.94 110.3 163.43 110.3 163.43 138.16 177.14 138.16"/><rect class="cls-1" x="126.77" y="223.26" width="50.37" height="91.32"/><path class="cls-1" d="M126.76,317.4h50.38v75.93A130.18,130.18,0,0,1,159,397.18l-1.5.19-2.18.23-2.19.17h-.23c-.31,0-.64,0-1,0h-.34c-.4,0-.79.05-1.18.06h0c-.56,0-1.13,0-1.7.05H144a11.67,11.67,0,0,1-1.27-.05c-.69,0-1.37-.07-2.07-.12h0l-1.26-.1-1.59-.13c-1.1-.11-2.18-.24-3.31-.38l-1.32-.19a4.29,4.29,0,0,1-.64-.09c-1.1-.17-2.19-.36-3.29-.57-.81-.14-1.62-.3-2.44-.47Z"/><rect class="cls-1" x="450.5" y="128.44" width="41.54" height="91.99"/><polygon class="cls-1" points="492.04 223.26 492.04 314.58 285.87 314.58 285.87 275.2 395.68 275.2 395.68 298.43 450.5 298.43 450.5 223.26 492.04 223.26"/><path class="cls-1" d="M492.7,415.32H492v59.9q-11.18-.95-22.25-2.57a364.07,364.07,0,0,1-96.43-28.11q-13.29-6-26-13.06a333.09,333.09,0,0,1-40.69-26.61q-4.86-3.72-9.6-7.62c-2.18-1.8-4.37-3.64-6.55-5.45-1.52-1.23-3.06-2.45-4.62-3.64V317.4H450c-.11-.42-.22-.84-.34-1.26.12.42.24.84.35,1.26H492v97.87Z"/><path class="cls-1" d="M600.36,121.59H573.31v-8.45h12.12v-25l3.14,1.19v23.83h11.79Z"/><path class="cls-1" d="M665.58,220.44H508v-92h7v68h31.92V156.2h26.37V124.41h27.05V156.2h26.37v40.24h38.85Z"/><path class="cls-1" d="M508,223.26v91.32H665.58V223.26ZM708.34,422.09l.21-72.28h-43V317.4H508V476.25a360.33,360.33,0,0,0,38.75-.47H547q9.22-.58,18.4-1.69h.14a338.82,338.82,0,0,0,94.53-25.23"/><path class="cls-1" d="M727.34,317.4h36.75c-.32,18.55-4,36.76-12.2,53.59a129.63,129.63,0,0,1-27.32,36.86V349.77h2.77Z"/><path class="cls-1" d="M764.11,314.58H727.34V238.26h19.9C757.53,262.31,764.08,288.75,764.11,314.58Z"/><rect class="cls-1" x="469.79" y="154.01" width="22.25" height="28.84"/><rect class="cls-1" x="469.79" y="213.8" width="22.25" height="6.64"/><rect class="cls-1" x="469.79" y="223.26" width="22.25" height="19.37"/><rect class="cls-1" x="469.79" y="273.58" width="22.25" height="28.84"/><rect class="cls-1" x="469.79" y="333.36" width="22.25" height="28.84"/><path class="cls-1" d="M492,415.27l.66.05H492V422H469.79V393.14H492Z"/><path class="cls-1" d="M492,452.92v22.27q-11.18-.94-22.25-2.57V452.94Z"/><rect class="cls-1" x="285.87" y="312.46" width="95.37" height="2.12"/><rect class="cls-1" x="285.87" y="317.4" width="95.37" height="8.12"/><rect class="cls-1" x="285.87" y="352.13" width="95.37" height="13.06"/><path class="cls-1" d="M381.23,391.81v13.06H306.64q-4.86-3.72-9.6-7.62c-2.18-1.8-4.37-3.65-6.55-5.44Z"/><path class="cls-1" d="M381.23,431.48v13.06h-7.87q-13.29-6-26-13.06Z"/><rect class="cls-1" x="546.79" y="232.11" width="18.77" height="18.77"/><rect class="cls-1" x="140.3" y="144.64" width="18.77" height="18.77"/><rect class="cls-1" x="140.3" y="188.24" width="18.77" height="18.77"/><rect class="cls-1" x="140.3" y="231.85" width="18.77" height="18.77"/><rect class="cls-1" x="140.3" y="275.46" width="18.77" height="18.77"/><rect class="cls-1" x="140.3" y="319.07" width="18.77" height="18.77"/><rect class="cls-1" x="140.3" y="362.68" width="18.77" height="18.77"/><rect class="cls-1" x="618.46" y="232.11" width="18.77" height="18.77"/><rect class="cls-1" x="546.79" y="278.42" width="18.77" height="18.77"/><rect class="cls-1" x="618.46" y="278.42" width="18.77" height="18.77"/><rect class="cls-1" x="546.79" y="324.72" width="18.77" height="18.77"/><rect class="cls-1" x="618.46" y="324.72" width="18.77" height="18.77"/><rect class="cls-1" x="546.79" y="371.03" width="18.77" height="18.77"/><rect class="cls-1" x="618.46" y="371.03" width="18.77" height="18.77"/><rect class="cls-1" x="546.79" y="417.34" width="18.77" height="18.77"/><rect class="cls-1" x="618.46" y="417.34" width="18.77" height="18.77"/><polygon class="cls-1" points="546.79 475.74 546.79 463.64 565.56 463.64 565.56 474.02 546.79 475.74"/><path class="cls-1" d="M46.52,196.94v10.74h64.24V196.94ZM52.92,207H47.65v-9.34h5.27Zm6.39,0H54v-9.34h5.27Zm6.39,0H60.43v-9.34H65.7Zm6.39,0H66.83v-9.34h5.26Zm6.39,0H73.22v-9.34h5.26Zm6.4,0H79.61v-9.34h5.27Zm6.4,0H86v-9.34h5.27Zm6.39,0H92.4v-9.34h5.27Zm6.39,0H98.79v-9.34h5.27Zm6.39,0h-5.28v-9.34h5.27Z"/><path class="cls-1" d="M46.52,228.22V239h64.24V228.22Zm6.4,10.06H47.65V228.9h5.27Zm6.39,0H54V228.9h5.27Zm6.39,0H60.43V228.9H65.7Zm6.39,0H66.83V228.9h5.26Zm6.39,0H73.22V228.9h5.26Zm6.4,0H79.61V228.9h5.27Zm6.4,0H86V228.9h5.27Zm6.39,0H92.4V228.9h5.27Zm6.39,0H98.79V228.9h5.27Zm6.39,0h-5.28V228.9h5.27Z"/><path class="cls-1" d="M46.52,259.49v10.73h64.24V259.49Zm6.4,10.05H47.65v-9.38h5.27Zm6.39,0H54v-9.38h5.27Zm6.39,0H60.43v-9.38H65.7Zm6.39,0H66.83v-9.38h5.26Zm6.39,0H73.22v-9.38h5.26Zm6.4,0H79.61v-9.38h5.27Zm6.4,0H86v-9.38h5.27Zm6.39,0H92.4v-9.38h5.27Zm6.39,0H98.79v-9.38h5.27Zm6.39,0h-5.28v-9.38h5.27Z"/><path class="cls-1" d="M46.52,290.75v10.73h64.24V290.75Zm6.4,10.06H47.65v-9.39h5.27Zm6.39,0H54v-9.39h5.27Zm6.39,0H60.43v-9.39H65.7Zm6.39,0H66.83v-9.39h5.26Zm6.39,0H73.22v-9.39h5.26Zm6.4,0H79.61v-9.39h5.27Zm6.4,0H86v-9.39h5.27Zm6.39,0H92.4v-9.39h5.27Zm6.39,0H98.79v-9.39h5.27Zm6.39,0h-5.28v-9.39h5.27Z"/><path class="cls-1" d="M46.79,322c.26,1,.55,2,.86,3v-2.34h5.27v9.39H50.1c.08.22.17.45.26.67h60.4V322Zm12.52,10.07H54v-9.39h5.27Zm6.39,0H60.43v-9.39H65.7Zm6.39,0H66.83v-9.39h5.26Zm6.39,0H73.22v-9.39h5.26Zm6.4,0H79.61v-9.39h5.27Zm6.4,0H86v-9.39h5.27Zm6.39,0H92.4v-9.39h5.27Zm6.39,0H98.79v-9.39h5.27Zm6.39,0h-5.28v-9.39h5.27Z"/><path class="cls-1" d="M61.71,353.27c.17.21.33.45.5.67H65.7v4.51l1.13,1.35V354h5.26v9.39H70c.21.22.41.46.65.67h40.15V353.27Zm16.76,10.06H73.2v-9.39h5.27Zm6.4,0H79.6v-9.39h5.27Zm6.39,0H86v-9.39h5.26Zm6.39,0H92.39v-9.39h5.26Zm6.39,0H98.78v-9.39H104Zm6.4,0h-5.27v-9.39h5.27Z"/><path class="cls-1" d="M97,384.53c.6.34,1.21.68,1.83,1v-.33h5.27v3l1.12.52V385.2h5.27v5.71a2,2,0,0,0,.31.12v-6.5Z"/><path class="cls-1" d="M492,415.27ZM449.6,316.18c.13.42.24.84.35,1.26h0c-.13-.46-.22-.88-.35-1.3ZM133.94,121.59v2.82h29.52v-2.82ZM492,415.24Zm-42.43-99.1c.13.42.24.84.35,1.26h0c-.13-.42-.22-.84-.35-1.26ZM492,415.27ZM449.6,316.18c.13.42.24.84.35,1.26h0c-.13-.46-.22-.88-.35-1.3Z"/><polygon class="cls-2" points="5.68 288.99 0.7 289.25 5.68 321.25 17.84 355.01 21.42 346.17 490.49 310.24 490.4 295.9 419.74 270.01 5.68 288.99"/><polygon class="cls-3" points="426.74 373.2 421.64 370.86 396.31 359.21 395.96 353.96 420.06 364.71 424.99 366.9 426.74 373.2"/><polygon class="cls-3" points="76.25 390.33 74.86 398.04 71.16 393.05 65.72 385.7 61.91 380.55 64 376.35 67.15 379.93 68.93 381.97 72.01 385.49 72.38 385.91 76.25 390.33"/><path class="cls-3" d="M412.57,456.34c-.58,3.42-2.31,3-3.88,1.71a9.52,9.52,0,0,1-3.32-6.13L391.79,351.54l-.49-3.65-.59-4.33-.49-3.59-1-7.29-.62-4.58,7-2.44.87,6.55,2.13,16,.48,3.58.51,3.81.09.73.5,3.64.14,1.13,12.26,92A11,11,0,0,1,412.57,456.34Z"/><polygon class="cls-4" points="426.74 373.2 421.64 370.86 420.34 365.77 420.06 364.71 424.99 366.9 426.74 373.2"/><path class="cls-3" d="M462,489.44c-.35,3-2,3.38-3.65,2.91a7,7,0,0,1-4.68-5L424,372l-1.6-6.18-8.9-34.69-1.14-4.38,5.95-7,2.83,10.9,40.57,155.77A8.38,8.38,0,0,1,462,489.44Z"/><polygon class="cls-4" points="400.18 359.93 397.58 357.35 396.38 356.13 391.79 351.54 391.3 347.9 390.71 343.57 396.51 349.24 399.08 351.77 399.59 355.58 399.68 356.3 400.18 359.93"/><polygon class="cls-3" points="415.54 364.81 408.19 364.81 407.95 364.57 399.68 356.3 398.48 355.09 391.3 347.9 376.89 333.49 373.93 330.52 378.81 328.78 383.19 333.07 390.22 339.97 398.61 348.19 411.6 360.93 415.54 364.81"/><path class="cls-3" d="M73.11,347l-1.62,6.64-6,24.47-1.36,5.52L38.92,486.79a9.91,9.91,0,0,1-2,4.1c-2.42,2.92-3.95,1.53-4.81-.23a7.62,7.62,0,0,1-.47-5.15L64,354.08,65.75,347Z"/><polygon class="cls-3" points="110.54 346.62 105.87 351.32 87.36 370 86.08 371.3 83.5 373.89 76.35 381.1 75.08 382.38 72.54 384.94 72.01 385.49 70.66 386.84 67.51 383.34 68.93 381.97 73.86 377.18 76.38 374.73 77.64 373.51 84.84 366.5 87.39 364.02 88.67 362.78 100.06 351.7 105.29 346.62 110.54 346.62"/><polygon class="cls-4" points="88.67 362.78 88.44 364.02 87.36 370 86.08 371.3 76.35 381.1 77.43 374.73 77.64 373.51 87.39 364.02 88.67 362.78"/><polygon class="cls-4" points="72.38 385.91 76.25 390.33 74.86 398.04 71.16 393.05 72.03 387.92 72.38 385.91"/><polygon class="cls-4" points="84.84 366.5 83.98 371.3 83.5 373.89 76.35 381.1 75.08 382.38 72.54 384.94 72.98 382.38 73.86 377.18 76.38 374.73 77.64 373.51 84.84 366.5"/><path class="cls-3" d="M90.94,344.52l-1.45,7.88L87.38,364l-1.32,7.29L57,531c-2.66,6.56-4.59,5.11-5.75,2.75a10.42,10.42,0,0,1-.83-6.27L72.86,395.37l1.26-7.44.94-5.54,1.3-7.65L80,353l.73-4.3Z"/><polygon class="cls-2" points="0.7 289.25 18.19 323.88 490.4 295.9 419.74 270.01 0.7 289.25"/><polygon class="cls-3" points="0.7 289.25 0 317.58 17.84 355.01 18.19 323.88 0.7 289.25"/><polygon class="cls-4" points="65.76 346.97 73.11 346.97 71.49 353.58 64 354.08 65.76 346.97"/><polygon class="cls-4" points="80.8 348.72 90.94 344.52 89.51 352.4 80.06 353.02 80.8 348.72"/><polygon class="cls-4" points="105.29 346.62 110.54 346.62 105.87 351.32 100.06 351.7 105.29 346.62"/><polygon class="cls-4" points="378.81 328.78 383.19 333.07 376.89 333.49 373.93 330.52 378.81 328.78"/><polygon class="cls-4" points="395.6 325.63 396.48 332.2 389.23 332.68 388.62 328.07 395.6 325.63"/><polygon class="cls-4" points="421.18 330.57 413.53 331.08 412.39 326.68 418.34 319.68 421.18 330.57"/><polygon class="cls-3" points="490.4 295.9 491.1 323.88 17.84 355.01 18.19 323.88 490.4 295.9"/><polygon class="cls-4" points="25.18 329.82 133.97 324.93 134.32 344.16 25.88 348.71 25.18 329.82"/><polygon class="cls-5" points="24.13 328.77 132.92 323.88 133.27 343.11 24.83 347.67 24.13 328.77"/><polygon class="cls-4" points="141.32 324.23 387.21 309.89 386.86 328.07 140.62 343.81 141.32 324.23"/><polygon class="cls-5" points="140.27 323.18 386.17 308.84 385.82 327.02 139.57 342.76 140.27 323.18"/><polygon class="cls-4" points="391.41 309.19 485.15 303.24 485.85 321.08 392.46 327.38 391.41 309.19"/><polygon class="cls-5" points="390.36 308.14 484.11 302.19 484.81 320.03 391.41 326.33 390.36 308.14"/><rect class="cls-4" x="73.1" y="337.17" width="13.3" height="1.05" transform="translate(-8.87 2.22) rotate(-1.51)"/><rect class="cls-3" x="73.1" y="336.12" width="13.3" height="1.05" transform="translate(-8.84 2.22) rotate(-1.51)"/><rect class="cls-4" x="330.54" y="322.13" width="13.3" height="1.05" transform="matrix(1, -0.03, 0.03, 1, -8.39, 9)"/><rect class="cls-3" x="330.54" y="321.08" width="13.3" height="1.05" transform="translate(-8.36 9) rotate(-1.51)"/><rect class="cls-4" x="186.08" y="330.52" width="13.3" height="1.05" transform="translate(-8.66 5.19) rotate(-1.51)"/><rect class="cls-3" x="186.08" y="329.48" width="13.3" height="1.05" transform="translate(-8.63 5.19) rotate(-1.51)"/><rect class="cls-4" x="433.73" y="315.14" width="13.3" height="1.05" transform="translate(-8.17 11.71) rotate(-1.51)"/><rect class="cls-3" x="433.73" y="314.09" width="13.3" height="1.05" transform="translate(-8.14 11.71) rotate(-1.51)"/><polygon class="cls-3" points="600.94 447.35 588.34 446.66 587.5 410.5 587.29 401.88 600.58 399.44 600.66 410.54 600.94 447.35"/><polygon class="cls-3" points="591.14 441.06 526.43 481.28 525.03 493.52 532.02 493.87 532.02 485.13 574.35 461.35 523.28 524.66 523.28 534.45 531.67 534.45 530.97 523.61 590.09 456.45 597.43 457.15 659.7 527.81 661.1 539.7 669.49 540.05 668.09 527.81 618.77 466.24 651.65 488.98 652.35 498.77 659 499.12 658.3 487.23 595.68 438.96 591.14 441.06"/><path class="cls-6" d="M509.84,372.25a115.51,115.51,0,0,0,15.3-24.83c4.46-9.85,9.34-21.23,9.71-24.59.73-6.3,18.54-18.89,38.12-19.59,12.78-.46,32.68-10.43,45-17.31a91.57,91.57,0,0,1,37.74-11.66c14.41-1.09,28,1.74,21.14,18.46l-91.65,110.9s-78.11,13.76-82.9-8.37a18.1,18.1,0,0,0-1.12-3.25C500.23,389.92,500,384.47,509.84,372.25Z"/><path class="cls-7" d="M516.72,374.45a119.27,119.27,0,0,0,15.4-25.07c4.16-9.21,8.56-19.53,8.91-22.66.67-6,17.73-18,36.48-18.71,12.21-.44,31.25-10,43-16.54a87.64,87.64,0,0,1,36.12-11.12c13.78-1,26.74,1.67,20.24,17.63L604.25,404.36s-89.62,12.72-94.36-8.32a21.27,21.27,0,0,0-1.12-3.26C507.94,390.72,507.82,385.61,516.72,374.45Z"/><path class="cls-4" d="M600.65,410.54c-4.21,0-8.65,0-13.17-.05l-.2-8.61,13.29-2.45Z"/><g class="cls-8"><polygon class="cls-9" points="651.65 486.88 618.77 464.14 622.54 468.85 651.65 488.98 652.35 498.77 659 499.12 658.87 497.01 652.35 496.67 651.65 486.88"/><polygon class="cls-9" points="532.02 483.03 532.02 485.13 571.25 463.09 574.35 459.25 532.02 483.03"/><polygon class="cls-9" points="523.28 532.35 523.28 534.45 531.67 534.45 531.54 532.35 523.28 532.35"/><polygon class="cls-9" points="532.02 491.77 525.27 491.44 525.03 493.52 532.02 493.87 532.02 491.77"/><polygon class="cls-9" points="661.1 537.6 659.7 525.71 597.43 455.05 590.09 454.35 530.97 521.51 531.1 523.46 590.09 456.45 597.43 457.15 659.7 527.81 661.1 539.7 669.49 540.05 669.25 537.93 661.1 537.6"/></g><path class="cls-10" d="M364.74,459.25c11.48,9.16,18.66.68,18.66.68s19.36-13.79,19.79-15.73a18,18,0,0,1,1.11-3.42s3.18.55,3.18-.95,3.32-2.05,5.25-3.28,14.1-11.88,14.1-11.88.42-2.32,6-4.1c3.93-1.25,12.28-9.05,16.9-13.57.29-1.83,1.23-7.4,2.26-9.11a2.5,2.5,0,0,1,1.82-.79l.46-1.69a115.91,115.91,0,0,0,3-15.68c1.24-10.93,10.5-14.34,12.85-14.34s21-7.92,21-7.92l30.27-12.29s18.66-5.87,18-9.84a3.62,3.62,0,0,1,0-1.27c.38-1.86,2-4,3.65-5.83a40.67,40.67,0,0,1,3.64-3.55l10.06-6.23.77-.48c-3.4-5.43-10.83-12.55-10.83-12.55s2.19-4.1,4.7-4.1c1.66,0,10.93-2.91,16.92-4.85-.62-6.63-1.84-26.84,5.76-30.93l9.1-4.92-.8,1.82,1.35-.73s-.16.35-.41.93c.27,0,.56-.07.85-.1.82-2.91,1.32-5.26,1.08-6-.61-1.9-.73-14.89,4.75-21.58l-4.38-12.7a2.51,2.51,0,0,1,1.57-3.16h0l11.32-3.8a2.37,2.37,0,0,1,1.09-.11,2.53,2.53,0,0,1,2.73,1.66l3.21,9.35a40.43,40.43,0,0,1,4.1-.73c1-1.71,2.11-3.38,1.93-5.29a9.31,9.31,0,0,0-1.15-3.13,35.64,35.64,0,0,1-3.08-9,4,4,0,0,1,0-1.92c.48-1.53,2.49-2.07,3.35-3.44a4.74,4.74,0,0,0,.14-3.84c-.56-2-1.4-4-1.86-6a8.76,8.76,0,0,1,.51-6.12,9.72,9.72,0,0,1,3.64-3.42c.39-1.8,1.69-3.51,1.28-5.3-.25-1.08-1.1-2-1.26-3.06-.28-2,1.69-3.48,3.43-4.5l15.35-9.07a48.37,48.37,0,0,1,4.26-2.31c2.77-1.46,5.7-2.49,8.74-2.11,3.9.49,7.12,3.27,9.52,6.34s4.3,6.56,7,9.37c4.93,5.16,12.11,7.65,17.49,12.39a12.08,12.08,0,0,1,3.48,4.58c2.24,5.95-3.29,12.09-3.25,18.45,0,5.57,4.3,10.2,8.74,13.63,1.89,1.46,4,3.07,4.37,5.41.29,1.81-.54,3.57-1.06,5.32a17.45,17.45,0,0,0,.53,11c3.49,2.31,6,3.86,6,3.86s14.38,12,22.4,14.76a1.52,1.52,0,0,1,.82.49c2.18,1.35,8.28,5.16,9.41,7.15,1.39,2.47,10.79,11.75,4.7,15a33.73,33.73,0,0,1-11.34,3.82s-14.1,4.38-19.63,7.11a60,60,0,0,1-10.44,3.64,21.16,21.16,0,0,0,4.2,10.64H698a17.44,17.44,0,0,0,2.33,2.53l-1.53.24.1.09c-4,.64-8.13,1.28-12.08.38s-7.73-3.75-8.46-7.69c-.77-4.25,1.88-9.34-1-12.57a6.31,6.31,0,0,0-3.64-1.86c-1.92,2.53-16,20.45-28.77,16.52,2.91,7.77,8.09,21.31,9.08,21.7,1.38.54-14.1,5.46-14.1,5.46s-3-.49-7.41-.91c0,.53.06,1.07.09,1.65.3,5.36.5,12.57-.43,14.57a10.57,10.57,0,0,0-.55,1.55,26.89,26.89,0,0,1-8.34,13.4l-1.35,1.13a18.21,18.21,0,0,0-4.37,5.74,22.41,22.41,0,0,1-13.11,11.34,29,29,0,0,1-13.64.81s-31.09,3-48.23,4.37-35.8,9.29-35.8,9.29a79.12,79.12,0,0,0-14.74,14c-.46.6-.9,1.2-1.33,1.8l2.66,4.7s-12.64,9.21-21.13,16.11v1.24c.41,9.15-11.75,22-11.75,22s-3.73,5.19-5.67,7.79,3.32,4.23,3.32,4.23-8.74,2.46-5.25,11.61,1,15.16,1,15.16l-5.1,24.45H438l2.08-16.94c-3.73-.27-13.69,15-13.69,15s-26-4-30.69-5.33-3.87-10.1,5.1-8.19A15.43,15.43,0,0,0,415.19,501s6.36-7.38,9.95-26.23a135.78,135.78,0,0,1,4.63-16.34c-4.93,7.49-7.67,18.47-8.74,19.07-1.53.82-20.6,22.4-20.6,22.4l-7.52-7.38,12.92-15s-11.76.13-16.6,3.41S378,482.57,378,482.57s-14.65-11.61-18.21-16S353.27,450.07,364.74,459.25Z"/><path class="cls-11" d="M579.63,264.41s6.26-1.91,6,1.36,3.27,6.26,3.27,6.26l-5.72,15-12.8-4.63,4-12.79Z"/><path class="cls-12" d="M579.63,264.41s6.26-1.91,6,1.36,3.27,6.26,3.27,6.26l-5.72,15-12.8-4.63,4-12.79Z"/><path class="cls-13" d="M612.47,184c-1.94,1.1-4,2.31-5,4.27a9,9,0,0,0-.51,6.11c.44,2,1.29,4,1.84,6a4.92,4.92,0,0,1-.14,3.83c-.85,1.37-2.83,1.9-3.3,3.43a4,4,0,0,0,0,1.91,36.31,36.31,0,0,0,3,9,9.16,9.16,0,0,1,1.14,3.12c.28,3.05-2.81,5.47-3.07,8.51a9.73,9.73,0,0,0,1.24,4.72,10,10,0,0,0,3.07,4.43c1.85,1.27,4.37,1.18,6.5.57s4.19-1.68,6.37-2.19c2-.5,4.17-.57,6-1.54,3.11-1.64,4.41-5.35,5.32-8.74.61-2.28,1.17-4.69.58-7a22.52,22.52,0,0,0-1.87-4.16,31,31,0,0,0-2.52-5.1c-1.12-1.53-2.62-2.68-3.07-4.43-.52-2,.6-4.07,1.53-5.94a41.17,41.17,0,0,0,2.11-5.1,9.11,9.11,0,0,0,.62-4.41c-.54-3.08-3.71-4.94-6.72-5.76-2.19-.6-4.55-.87-6.71-1.67a10.35,10.35,0,0,0-2.87-1.09A6.56,6.56,0,0,0,612.47,184Z"/><path class="cls-14" d="M453.26,400.85l25.25,3.4h.08s25.19-30.1,25.6-30.23L532.65,364l19.07-5.59L554.3,346,529,345l-8.31,1.22L490.85,358.5s-18.39,7.9-20.71,7.9-11.44,3.4-12.66,14.3a115.3,115.3,0,0,1-2.91,15.63C453.82,399.14,453.26,400.85,453.26,400.85Z"/><path class="cls-15" d="M453.26,401.12l25.25,3.39h.08s25.19-30.09,25.6-30.22l28.46-10.08,19.07-5.59,2.58-12.39-25.32-1-8.31,1.22-29.82,12.27s-18.39,7.89-20.71,7.89-11.44,3.41-12.66,14.3a115.3,115.3,0,0,1-2.91,15.63C453.82,399.4,453.26,401.12,453.26,401.12Z"/><path class="cls-4" d="M529.38,345.7l-1.23,2.07s8.75,4.69,8,6.5l12.65-5.1Z"/><path class="cls-4" d="M453.26,400.85l25.25,3.4c1.63-5.83,2.91-10.07,2.91-10.07l-17.43,3s-6-1.17-9.47-.85C453.82,399.14,453.26,400.85,453.26,400.85Z"/><path class="cls-16" d="M464,398.81s-10.49-2-11.71,0-2.32,9.67-2.32,9.67-20.57,48.2-24.1,67-9.8,26.15-9.8,26.15a15.13,15.13,0,0,1-14.17,4.23c-8.85-1.91-9.66,6.8-5,8.16s30.23,5.32,30.23,5.32,9.8-15.26,13.48-15l-2,16.89H449l5-24.38s2.45-6-1-15.11,5.18-11.58,5.18-11.58-5.18-1.63-3.27-4.22,5.58-7.76,5.58-7.76,12-12.77,11.58-21.92,9.26-40.44,9.26-40.44Z"/><path class="cls-4" d="M464,398.81s-10.49-2-11.71,0-2.32,9.67-2.32,9.67-20.57,48.2-24.1,67-9.8,26.15-9.8,26.15a15.13,15.13,0,0,1-14.17,4.23c-8.85-1.91-9.66,6.8-5,8.16s30.23,5.32,30.23,5.32,9.8-15.26,13.48-15l-2,16.89H449l5-24.38s2.45-6-1-15.11,5.18-11.58,5.18-11.58-5.18-1.63-3.27-4.22,5.58-7.76,5.58-7.76,12-12.77,11.58-21.92,9.26-40.44,9.26-40.44Z"/><path class="cls-4" d="M442.91,473.16s-3.64,24.65-8.44,26.42S442.91,473.16,442.91,473.16Z"/><path class="cls-4" d="M452.85,453.69c-.4.41-11.71,15.12-16.2,15.25S452.85,453.69,452.85,453.69Z"/><path class="cls-15" d="M470.69,394.72s12.39,32.28,18,22.34a40,40,0,0,1,3-4.58,78.39,78.39,0,0,1,14.52-13.94s18.39-7.9,35.27-9.26,47.5-4.35,47.5-4.35l4-3.41c.4-22-44.12-32.4-44.12-32.4s-34.05,14-46.85,18.11-15,10.2-15,10.2l-12.78,13.51Z"/><path class="cls-4" d="M470.69,394.72s12.39,32.28,18,22.34a40,40,0,0,1,3-4.58l-2-3.64a60.55,60.55,0,0,0-10.93-14.28,26.47,26.47,0,0,0-4.46-3.64Z"/><path class="cls-16" d="M485.26,405.07s-11.44-14-14.57-12.52-17.43,12.11-17.43,12.11-14.33,15-19.83,16.76-5.9,4.09-5.9,4.09-11.95,10.61-13.89,11.84-5.18,1.77-5.18,3.27-3.13.95-3.13.95a18.7,18.7,0,0,0-1.09,3.4c-.41,1.91-19.47,15.66-19.47,15.66s-7.09,8.45-18.39-.65-8.44,3-4.9,7.36,18,15.93,18,15.93,6.25,1.63,11-1.64,16.34-3.43,16.34-3.43l-12.71,15,7.4,7.35S420.3,479,421.81,478.2s6-21.13,15-25.19c0,0,25.6-9.81,33.91-16.76S493,419,493,419Z"/><path class="cls-4" d="M400.27,453.69c.82-.41,19,2.86,15.12,4.84S400.27,453.69,400.27,453.69Z"/><path class="cls-4" d="M419.9,445c.81.55,10.48,2.87,8,5.45S419.9,445,419.9,445Z"/><path class="cls-5" d="M520.67,346.25s6.56.14,27.64,4.49S589,384.93,589,384.93a28.42,28.42,0,0,0,13.43-.81,22.21,22.21,0,0,0,12.94-11.31,17.86,17.86,0,0,1,4.29-5.72L621,366a26.82,26.82,0,0,0,8.21-13.4,10.41,10.41,0,0,1,.54-1.54c.92-2,.73-9.17.42-14.51-.18-3.48-.42-6.18-.42-6.18l-70.26-13.21-4,2.49-9.91,6.21a40.21,40.21,0,0,0-3.6,3.55c-1.61,1.78-3.2,3.95-3.58,5.83a3.67,3.67,0,0,0,0,1.28C539.05,340.4,520.67,346.25,520.67,346.25Z"/><path class="cls-15" d="M626.2,213s6.81,9.54-1.63,27,35.7-10.08,35.7-10.08-16.61-25.06-14.16-29.68S626.2,213,626.2,213Z"/><circle class="cls-4" cx="632.47" cy="201.77" r="21.52"/><circle class="cls-15" cx="632.47" cy="200.14" r="21.52"/><path class="cls-4" d="M628.65,227.83s-7.08,11.25,14.57,5-17,42.75-17,42.75L611,259.78l6-27.78Z"/><path class="cls-17" d="M627.56,228.91s-6,11.26,15.66,5-17,42.76-17,42.76L611,260.87l6-27.78Z"/><path class="cls-4" d="M555.48,319.61a20.15,20.15,0,0,1,1.8,3.08c2.45,5.45,8.44,4.09,8.44,4.09,9.81,6,35.71,4.37,35.71,4.37s-5.72,9.53,5.17,6.26c6.7-2,16.76-1.55,23.56-.9-.18-3.47-.41-6.17-.41-6.17l-70.27-13.22Z"/><path class="cls-12" d="M545.59,306.62s9.25,9,11.71,14.44,8.44,4.08,8.44,4.08c9.8,6,35.7,4.37,35.7,4.37s-5.72,9.53,5.17,6.26,30.78,0,30.78,0,15.25-4.9,13.89-5.44-10.93-27-10.93-27a11.32,11.32,0,0,1-.73-4.53,9.29,9.29,0,0,1,2.19-5.74,13.4,13.4,0,0,1,5.1-3.64c10.62-4.63,29.41-16.34,29.41-16.34s47.94-7.08,40-9.81-22.07-14.7-22.07-14.7S672,234.44,667.6,228.45s-13.34-7.9-13.34-7.9l-12.47,9.27L619.13,250h0L618,237.74s-2.45-8.17-5.72-10.35-15.42,2.13-16.29,2.43h0S583.44,266,584,272.58c.14,1.72-.63,4.16-1.82,6.82-.77,1.71-1.73,3.5-2.73,5.25A135.72,135.72,0,0,1,572,296s-19.34,6.55-21.78,6.55S545.59,306.62,545.59,306.62Z"/><polygon class="cls-4" points="619.12 252.29 621.57 263.05 645.13 250.25 642.88 230.91 620.21 251.06 620.21 251.06 619.12 252.29"/><polygon class="cls-12" points="618.03 251.2 620.48 261.96 644.05 249.16 641.79 229.82 619.12 249.98 619.12 249.96 618.03 251.2"/><path class="cls-4" d="M579.44,285.75c8.92,1.85,48.82,10.2,60.16,14.17a9.34,9.34,0,0,1,2.19-5.75c-11.26-5.17-46-20-59.62-13.68C581.4,282.19,580.44,284,579.44,285.75Z"/><path class="cls-4" d="M579.44,283.57c8.92,1.85,48.82,10.2,60.16,14.17a9.34,9.34,0,0,1,2.19-5.75c-11.26-5.16-46-20-59.62-13.68C581.4,280,580.44,281.81,579.44,283.57Z"/><path class="cls-12" d="M579.44,284.65c8.92,1.86,48.82,10.24,60.16,14.18a9.34,9.34,0,0,1,2.19-5.75c-11.29-5.17-46-20-59.62-13.68C581.4,281.11,580.44,282.92,579.44,284.65Z"/><circle class="cls-5" cx="588.89" cy="289.74" r="2.79"/><circle class="cls-5" cx="579.44" cy="309.28" r="2.79"/><circle class="cls-5" cx="610.95" cy="295.32" r="2.79"/><circle class="cls-5" cx="599.65" cy="315.75" r="2.79"/><circle class="cls-5" cx="596.02" cy="268.22" r="2.79"/><path class="cls-4" d="M628.38,298.11s11.44,28.12,8.74,31.93S628.38,298.11,628.38,298.11Z"/><path class="cls-4" d="M618.71,298.11c1.61-.4-6.81,7.56-7.76,14.84s-6.81,13.42-6.81,13.42l5.83-14.3S616.81,298.59,618.71,298.11Z"/><path class="cls-4" d="M582.23,295.31c-.83,1.22-12.14,3.4-13.36,16.06Z"/><path class="cls-4" d="M658.22,275.17c-1.36,1.22-16.76,11.57-22.2,11.77S658.22,275.17,658.22,275.17Z"/><path class="cls-4" d="M633.83,280.89s-2.32,3.26-4.63,3.26S633.83,280.89,633.83,280.89Z"/><path class="cls-4" d="M538.4,335.17c9.85.33,42.89,1.3,47.7-.09.45-.13-29.21-1.5-36.15-2.86a27.22,27.22,0,0,1-8-2.85C540.38,331.15,538.78,333.32,538.4,335.17Z"/><path class="cls-4" d="M593.23,341.62s16.36,12,9.21,12.12S593.23,341.62,593.23,341.62Z"/><path class="cls-13" d="M628.74,225.51c-.66,1.7-.11,2-.5,3.5a11.54,11.54,0,0,0-.31,4.3c.19,2-1.09,4.47-.07,6.21a4.94,4.94,0,0,1,.41.79,2.34,2.34,0,0,1-1,2.39,6.05,6.05,0,0,0-1.93,1.77c-1,1.94.92,4.69,0,6.7a3.9,3.9,0,0,1-1.38,1.5,17.9,17.9,0,0,1-4.37,2.3c-1-1.61.12-4-.78-5.68a7.78,7.78,0,0,0-1.84-1.87,10.3,10.3,0,0,1-2.63-5.62c-.38-2.09-.43-4.24-.84-6.32-.68-3.43-2.29-6.63-2.65-10.1a1.43,1.43,0,0,1,.11-.93,1.17,1.17,0,0,1,.93-.41c3.17-.27,6.64.58,9.68,0C624.41,223.53,626.27,222.88,628.74,225.51Z"/><path class="cls-4" d="M595.47,230.89c.95,4.38,4.11,16.53,10.85,21.94,8.3,6.68,14.58,24,14.58,24L619,281.29a13.58,13.58,0,0,0,4.08-1.9c1.91-1.37-4.49-28.33-4.49-28.33l-1.09-12.25s-2.44-8.17-5.72-10.35S596.34,230.59,595.47,230.89Z"/><path class="cls-12" d="M596,229.8c1,4.37,4.1,16.53,10.84,21.94,8.31,6.67,14.58,24,14.58,24l-1.91,4.49a13.34,13.34,0,0,0,4.08-1.9c1.91-1.36-4.49-28.32-4.49-28.32L618,237.74s-2.45-8.17-5.72-10.35S596.89,229.5,596,229.8Z"/><rect class="cls-18" x="589.01" y="217.68" width="16.76" height="35.41" rx="1.24" transform="translate(-43.97 204.74) rotate(-18.77)"/><rect class="cls-16" x="588.4" y="217.68" width="16.76" height="35.41" rx="1.24" transform="translate(-44 204.54) rotate(-18.77)"/><circle class="cls-19" cx="594.15" cy="228.53" r="2.63"/><path class="cls-15" d="M576.64,281.56v1l10.21-5.24,1-5.14,1.82-9s20.7-30.36,6.93-30.76-13.84,22.86-13,25.45c.58,1.86-3.23,13.2-5.44,19.5C577.27,279.87,576.64,281.56,576.64,281.56Z"/><path class="cls-4" d="M567.65,300.9s-3.55-28,5.45-32.95l9-4.9s-7.35,16.47-4.37,17.09,11.71-7,11.71-7v17.7Z"/><path class="cls-4" d="M576.64,281.56v1l10.21-5.24,1-5.14c-2.78,2.18-7.57,5.69-9.63,5.28l-.12-.05C577.27,279.87,576.64,281.56,576.64,281.56Z"/><path class="cls-12" d="M567.14,299.81s-3.55-28.05,5.45-32.95l9-4.9s-7.35,16.48-4.37,17.09,11.71-7,11.71-7v17.71Z"/><circle class="cls-5" cx="618.03" cy="274.49" r="2.79"/><path class="cls-6" d="M524.5,407.13s27.11-2.1,37.25-21.69c0,0,20.64-40.93,37.43-45.47S647.1,325.28,660,309.54s18.37-27.81,18.37-27.81,3.32,12.77-7.17,27.81-14.35,38.12-21.69,62.61-10.15,34.25-23.44,35.71c-10,1.05-63,.52-88.32,0C529.52,407.66,524.5,407.13,524.5,407.13Z"/><path class="cls-7" d="M524.5,407.13s27.11-2.1,37.25-21.69c0,0,20.64-40.93,37.43-45.47S647.1,325.28,660,309.54s18.37-27.81,18.37-27.81,3.32,12.77-7.17,27.81-14.35,38.12-21.69,62.61-10.15,34.25-23.44,35.71c-10,1.05-63,.52-88.32,0C529.52,407.66,524.5,407.13,524.5,407.13Z"/><path class="cls-6" d="M531.32,407.17s25.91-2,35.61-21c0,0,19.73-39.62,35.77-44s45.81-14.23,58.18-29.46,17.55-26.93,17.55-26.93,3.18,12.39-6.86,26.93-13.7,36.91-20.73,60.59-9.69,33.19-22.39,34.55c-9.58,1-60.21.5-84.43,0C536.11,407.68,531.32,407.17,531.32,407.17Z"/><path class="cls-15" d="M681.76,280.2s-12.53.82-16.34,2.32c-2,.79-7.19,1.46-11.57,1.94a23.44,23.44,0,0,0-16,8.66c-3.57,4.53-5.37,10.11,1.7,14.33,14.17,8.45,31.33-15.52,31.33-15.52l15-2.18Z"/><path class="cls-12" d="M675.77,279.05c4.9-.34,10.35,22.4,10.35,22.4s9-1.91,14.43-4.63,19.34-7.08,19.34-7.08a33,33,0,0,0,11.16-3.82c6-3.26-3.27-12.52-4.62-15s-10.08-7.63-10.08-7.63L709.54,262l-30.77,5.45L698.64,272l-2.47.77-6.67,2Z"/><path class="cls-12" d="M689.5,274.84l5.88,15.72c11.85,9.25,10.93-3.65,10.93-3.65L696.2,272.77Z"/><path class="cls-4" d="M690.55,275.36l5.88,15.72c11.85,9.25,10.93-3.64,10.93-3.64l-10.11-14.15Z"/><circle class="cls-5" cx="702.53" cy="289.74" r="2.79"/><path class="cls-4" d="M614.05,189.4a3.84,3.84,0,0,1-3.16-3.71c0-2.13,1.83-4.08,1.35-6.16-.24-1.07-1.08-2-1.24-3.05-.28-2,1.68-3.46,3.38-4.48L629.5,163c3.61-2.18,7.57-4.37,11.73-3.86,3.84.49,7,3.26,9.38,6.32s4.22,6.56,6.88,9.34c4.85,5.14,11.92,7.63,17.2,12.34a12.13,12.13,0,0,1,3.42,4.57c2.19,5.93-3.23,12.06-3.2,18.4,0,5.55,4.24,10.16,8.6,13.59,1.86,1.46,3.94,3.06,4.31,5.39.29,1.8-.53,3.56-1,5.31-2.61,8.9,3.08,18.33,10.37,24,2.19,1.72,4.64,3.42,5.44,6.07,1.18,3.87-1.75,7.67-4.23,10.87-4.37,5.61-8,12-9.06,19s.84,14.76,6.14,19.51c-4,.63-8,1.26-11.91.36s-7.61-3.73-8.32-7.66c-.76-4.23,1.85-9.31-1-12.54-2.18-2.45-6-2-9.24-2.42a15.12,15.12,0,0,1-12.71-13.84c-.21-4.8,1.93-9.34,3.58-13.85s2.86-9.64.86-14c-3.22-7-13.7-10-14.16-17.7-.27-4.54,3.33-9.16,1.46-13.31-1.24-2.79-4.44-4-6.82-5.93-3.75-3-5.57-7.71-8-11.82a56.64,56.64,0,0,0-7.09-9.09c-.85-.91-2.47-3.32-3.75-3.64C616.83,188.12,615.67,189.65,614.05,189.4Z"/><path class="cls-13" d="M615.14,188.86a3.86,3.86,0,0,1-3.16-3.71c0-2.14,1.83-4.09,1.35-6.17-.25-1.07-1.08-2-1.24-3-.27-2,1.67-3.46,3.38-4.48l15.12-9c3.6-2.15,7.56-4.37,11.72-3.86,3.85.48,7,3.25,9.39,6.31s4.22,6.56,6.88,9.35c4.85,5.15,11.92,7.62,17.19,12.34a11.9,11.9,0,0,1,3.43,4.57c2.18,5.93-3.24,12.06-3.2,18.39,0,5.56,4.24,10.16,8.6,13.59,1.85,1.46,3.94,3.06,4.32,5.4.28,1.8-.54,3.55-1,5.3-2.61,8.91,3.08,18.33,10.37,24.05,2.18,1.71,4.64,3.41,5.44,6.06,1.17,3.88-1.74,7.67-4.23,10.88-4.37,5.61-8,12-9.07,19s.85,14.77,6.14,19.51c-3.94.63-8,1.27-11.9.37S677,310,676.3,306c-.73-4.24,1.85-9.32-1-12.54-2.18-2.45-6-2-9.24-2.42a15.1,15.1,0,0,1-12.7-13.85c-.21-4.8,1.91-9.34,3.58-13.84s2.84-9.61.85-14c-3.22-7-13.7-10-14.16-17.7-.26-4.53,3.34-9.16,1.46-13.31-1.25-2.79-4.44-4-6.83-5.93-3.75-3-5.57-7.71-8-11.82a55.52,55.52,0,0,0-7.08-9.08c-.85-.92-2.47-3.33-3.76-3.64C617.92,187.58,616.76,189.11,615.14,188.86Z"/><path class="cls-4" d="M613.65,179.2c-.25-1.08-1.09-2-1.24-3.06-.28-2,1.67-3.46,3.38-4.48l.35-.21a2.61,2.61,0,0,0-.19,1.46c.15,1.09,1,2,1.24,3.05.47,2.08-1.34,4-1.36,6.16a3.86,3.86,0,0,0,3.16,3.71c1.63.25,2.78-1.28,4.27-.94,1.29.29,2.91,2.69,3.76,3.64a56.15,56.15,0,0,1,7.08,9.09c2.48,4.11,4.28,8.83,8,11.81,2.39,1.91,5.59,3.15,6.83,5.94,1.86,4.14-1.74,8.74-1.46,13.31.46,7.72,10.93,10.66,14.16,17.7,2,4.37.8,9.47-.86,14s-3.79,9.05-3.57,13.84a15.09,15.09,0,0,0,12.7,13.85c3.24.43,7.08,0,9.24,2.42,2.85,3.23.24,8.3,1,12.54.73,3.93,4.44,6.75,8.33,7.66a20.28,20.28,0,0,0,6.07.38,16.61,16.61,0,0,0,2.3,2.44c-4,.64-8,1.28-11.9.37s-7.62-3.73-8.32-7.66c-.73-4.23,1.85-9.31-1-12.53-2.19-2.46-6-2-9.25-2.42a15.12,15.12,0,0,1-12.7-13.85c-.21-4.8,1.92-9.35,3.58-13.84s2.86-9.64.85-14c-3.21-7-13.7-10-14.15-17.7-.27-4.54,3.33-9.16,1.46-13.32-1.25-2.78-4.44-4-6.83-5.92-3.75-3-5.56-7.72-8-11.83a56.05,56.05,0,0,0-7.09-9.07c-.85-.92-2.47-3.33-3.75-3.65-1.46-.33-2.64,1.2-4.27.95a3.86,3.86,0,0,1-3.16-3.72C612.31,183.22,614.12,181.27,613.65,179.2Z"/><path class="cls-4" d="M510.34,397s14.16,5.42,22.21,2.45,28-11.71,28-11.71S527,389.81,510.34,397Z"/><path class="cls-6" d="M389.9,247.34s-3.35,15.57,11.54,17.42l.92-1.73S390.8,252.18,389.9,247.34Z"/><path class="cls-6" d="M407.09,262.91l-3.46.73-.35.07s-9.23-7.5-9.11-24.23a41.67,41.67,0,0,0,4.37,7C402.24,251.31,406.4,257.77,407.09,262.91Z"/><path class="cls-6" d="M408.29,264.51a2.18,2.18,0,0,1-1.86.25c-8.89-2.08-5.89-31-5.89-31,.5.23,1,3.91,3.08,8.67C407.17,250.75,411.12,262.42,408.29,264.51Z"/><path class="cls-6" d="M428,247.34s.58,15.57-14.31,17.42l-.92-1.73S427.05,252.18,428,247.34Z"/><path class="cls-6" d="M423.71,239.49c.11,16.76-11.89,24.23-11.89,24.23l-.35-.07-3.46-.73c.69-5.14,4.85-11.6,8.51-16.45A38,38,0,0,1,423.71,239.49Z"/><path class="cls-6" d="M411.42,263a5.35,5.35,0,0,1-2,1.51h0a3.7,3.7,0,0,1-.73.25c-2.18.51-2.95-1.07-2.82-3.74.21-4.78,3.2-13,5.9-19.24a23.78,23.78,0,0,1,5.58-8.06S417.23,256.27,411.42,263Z"/><path class="cls-6" d="M408.94,223.56s-9.93,35.2-1.39,40.51S411.13,226.68,408.94,223.56Z"/><path class="cls-4" d="M389.9,247.34s-3.35,15.57,11.54,17.42l.92-1.73S390.8,252.18,389.9,247.34Z"/><path class="cls-4" d="M407.09,262.91l-3.46.73-.35.07s-9.23-7.5-9.11-24.23a41.67,41.67,0,0,0,4.37,7C402.24,251.31,406.4,257.77,407.09,262.91Z"/><path class="cls-4" d="M408.29,264.51a2.18,2.18,0,0,1-1.86.25c-8.89-2.08-5.89-31-5.89-31,.5.23,1,3.91,3.08,8.67C407.17,250.75,411.12,262.42,408.29,264.51Z"/><path class="cls-4" d="M428,247.34s.58,15.57-14.31,17.42l-.92-1.73S427.05,252.18,428,247.34Z"/><path class="cls-4" d="M423.71,239.49c.11,16.76-11.89,24.23-11.89,24.23l-.35-.07-3.46-.73c.69-5.14,4.85-11.6,8.51-16.45A38,38,0,0,1,423.71,239.49Z"/><path class="cls-4" d="M411.42,263a5.35,5.35,0,0,1-2,1.51h0a3.7,3.7,0,0,1-.73.25c-2.18.51-2.95-1.07-2.82-3.74.21-4.78,3.2-13,5.9-19.24a23.78,23.78,0,0,1,5.58-8.06S417.23,256.27,411.42,263Z"/><path class="cls-4" d="M408.94,223.56s-9.93,35.2-1.39,40.51S411.13,226.68,408.94,223.56Z"/><path class="cls-6" d="M389.9,247.34s-2,15.57,12.92,17.42l.92-1.73S390.8,252.18,389.9,247.34Z"/><path class="cls-6" d="M408.48,262.91l-3.46.73-.35.07s-10.62-7.5-10.5-24.23c0,0,2.72,2.92,5.83,7C403.63,251.31,407.79,257.77,408.48,262.91Z"/><path class="cls-4" d="M408.48,262.91l-3.46.73c-3.29-2.92-4.59-10.4-5.06-17.18C403.63,251.31,407.79,257.77,408.48,262.91Z"/><path class="cls-6" d="M409.64,264.51a2.16,2.16,0,0,1-1.85.25c-8.89-2.08-7.29-31-7.29-31,.49.23,2.42,3.91,4.46,8.67C408.56,250.75,412.5,262.42,409.64,264.51Z"/><path class="cls-6" d="M428,247.34s2,15.57-12.92,17.42l-.92-1.73S427.05,252.18,428,247.34Z"/><path class="cls-6" d="M423.71,239.49c.11,16.76-10.5,24.23-10.5,24.23l-.35-.07-3.46-.73c.68-5.14,4.85-11.6,8.51-16.45C421,242.41,423.71,239.49,423.71,239.49Z"/><path class="cls-4" d="M417.91,246.49c-.45,6.32-1.61,13.28-4.41,16.53a6.55,6.55,0,0,1-.64.65l-3.46-.73C410.08,257.77,414.25,251.31,417.91,246.49Z"/><path class="cls-6" d="M412.81,263a5.46,5.46,0,0,1-2,1.51h0a3.61,3.61,0,0,1-.72.25c-2.19.51-3-1.07-2.82-3.74.2-4.78,3.19-13,5.89-19.24,1.94-4.46,3.72-7.83,4.2-8.06C417.36,233.72,418.61,256.27,412.81,263Z"/><path class="cls-4" d="M409.64,264.51a2.44,2.44,0,0,1-1.4-.44c-4.18-2.61-4.27-12.39-3.27-21.68C408.56,250.75,412.5,262.42,409.64,264.51Z"/><path class="cls-4" d="M412.81,263c-.48,1-1.13,1.59-2,1.51h0a2.65,2.65,0,0,1-1.18-.44,6.24,6.24,0,0,1-2.36-3.05c.2-4.78,3.19-13,5.89-19.24C414.12,250.37,414.45,259.48,412.81,263Z"/><path class="cls-6" d="M408.94,223.56s-8.54,35.2,0,40.51S411.13,226.68,408.94,223.56Z"/><polygon class="cls-20" points="425.32 262.33 389.78 262.33 389.78 268.22 395.21 268.22 395.34 268.92 397.51 280.34 418.17 280.34 420.35 268.92 420.48 268.22 425.32 268.22 425.32 262.33"/><polygon class="cls-4" points="425.32 262.33 389.78 262.33 389.78 268.22 395.21 268.22 395.34 268.92 397.51 280.34 418.17 280.34 420.35 268.92 420.48 268.22 425.32 268.22 425.32 262.33"/><polygon class="cls-20" points="422.32 265.8 421.73 268.92 419.55 280.34 398.9 280.34 396.73 268.92 396.13 265.8 422.32 265.8"/><polygon class="cls-4" points="422.32 265.8 421.73 268.92 396.73 268.92 396.13 265.8 422.32 265.8"/><rect class="cls-20" x="391.17" y="262.34" width="35.54" height="5.89"/><path class="cls-6" d="M120.61,482.68a12.37,12.37,0,0,0-1.66,3.13c-.11.27-.2.58-.3.88a4,4,0,0,0-.58-.21,8.13,8.13,0,0,0-2.6-.21c0-.35,0-.73,0-1.08.1-3.84-.35-9.18-4-6.92s-1,5.83,1.26,8.16l.58.58c-2.06,1.46-2.46,4.9-2.81,8.48s-3.38,7.48-5.37,9.72l-.57.61a7.45,7.45,0,0,0-5.83-1.51l-.27-1c-1.63-5.89-5-16.1-9.34-18.34.18-.22.37-.46.57-.73,1.83-2.4,3.9-6,.84-6.88s-3.32,3.1-3.15,6.1a7.37,7.37,0,0,0,.08,1.07,4.44,4.44,0,0,0-3.19,1.56l-.47-.57c-2.48-2.91-7-7.55-8.39-4.05-1.29,3.27,2.71,7.51,5.53,10l.17.16c-1.89,7.66,6.35,13.9,10.79,16.63l.57.35c-6.12,7.22-9.89,20.74-9.89,20.74l17.13,3.06s11.36-9.81,9.91-19h.12C121.13,511.1,123.72,499,122,491.8l.2-.08a12.91,12.91,0,0,0,5.26-4C130.54,483.3,123.87,478.35,120.61,482.68Z"/><path class="cls-4" d="M120.61,482.68a12.37,12.37,0,0,0-1.66,3.13c-.11.27-.2.58-.3.88a4,4,0,0,0-.58-.21,8.13,8.13,0,0,0-2.6-.21c0-.35,0-.73,0-1.08.1-3.84-.35-9.18-4-6.92s-1,5.83,1.26,8.16l.58.58c-2.06,1.46-2.46,4.9-2.81,8.48s-3.38,7.48-5.37,9.72l-.57.61a7.45,7.45,0,0,0-5.83-1.51l-.27-1c-1.63-5.89-5-16.1-9.34-18.34.18-.22.37-.46.57-.73,1.83-2.4,3.9-6,.84-6.88s-3.32,3.1-3.15,6.1a7.37,7.37,0,0,0,.08,1.07,4.44,4.44,0,0,0-3.19,1.56l-.47-.57c-2.48-2.91-7-7.55-8.39-4.05-1.29,3.27,2.71,7.51,5.53,10l.17.16c-1.89,7.66,6.35,13.9,10.79,16.63l.57.35c-6.12,7.22-9.89,20.74-9.89,20.74l17.13,3.06s11.36-9.81,9.91-19h.12C121.13,511.1,123.72,499,122,491.8l.2-.08a12.91,12.91,0,0,0,5.26-4C130.54,483.3,123.87,478.35,120.61,482.68Z"/><path class="cls-6" d="M86.49,487.62l-2,5.88s-1.11-.79-2.52-2c-2.81-2.46-6.81-6.7-5.53-10,1.37-3.51,5.92,1.12,8.4,4.05C85.84,486.72,86.49,487.62,86.49,487.62Z"/><path class="cls-6" d="M90.73,484.27a28.66,28.66,0,0,1-2,2.3,28.92,28.92,0,0,1-.35-3.09c-.17-3,.14-7,3.15-6.09S92.56,481.84,90.73,484.27Z"/><path class="cls-6" d="M116.57,485.19c-.06,1.94-.25,3.48-.25,3.48a24.21,24.21,0,0,1-2.5-2.24c-2.27-2.34-4.78-6-1.26-8.16S116.67,481.35,116.57,485.19Z"/><path class="cls-6" d="M128.4,487.72a12.82,12.82,0,0,1-5.25,4,13.7,13.7,0,0,1-1.76.64L119,489a23.92,23.92,0,0,1,1-3.22,12.34,12.34,0,0,1,1.65-3.13C124.92,478.35,131.59,483.3,128.4,487.72Z"/><path class="cls-4" d="M84.84,485.55c1,1.17,1.65,2.07,1.65,2.07l-2,5.88s-1.11-.79-2.52-2a11.47,11.47,0,0,1,2.26-5.16C84.43,486,84.64,485.79,84.84,485.55Z"/><path class="cls-4" d="M90.73,484.27a28.66,28.66,0,0,1-2,2.3,28.92,28.92,0,0,1-.35-3.09A4.12,4.12,0,0,1,90.73,484.27Z"/><path class="cls-6" d="M100.58,507.56l-5,2.18a27.7,27.7,0,0,1-2.65-1.5C87.7,505,77.16,496.91,84.2,487.35s12.94,7.59,15.3,16C100.2,505.84,100.58,507.56,100.58,507.56Z"/><path class="cls-4" d="M113.82,486.43a4.2,4.2,0,0,1,2.75-1.24c-.06,1.94-.25,3.48-.25,3.48A24.21,24.21,0,0,1,113.82,486.43Z"/><path class="cls-4" d="M123.15,491.7a13.7,13.7,0,0,1-1.76.64L119,489a23.92,23.92,0,0,1,1-3.22C121.53,486.7,122.65,488.91,123.15,491.7Z"/><path class="cls-6" d="M110.78,513.36l-.84.15c-16.71,2.54-5.51-6.48-5.51-6.48s.73-.73,1.77-1.82c2-2.23,5-6.12,5.39-9.72.53-5.41,1.14-10.49,7.53-9S126.59,510.2,110.78,513.36Z"/><rect class="cls-16" x="78.54" y="554.96" width="31.92" height="8.39"/><rect class="cls-16" x="73.47" y="527.68" width="41.71" height="29.29"/><rect class="cls-4" x="78.54" y="554.96" width="31.92" height="8.39"/><rect class="cls-4" x="73.47" y="527.68" width="41.71" height="29.29"/><rect class="cls-16" x="80.64" y="554.96" width="31.92" height="8.39"/><path class="cls-4" d="M99.5,503.33c.73,2.51,1.08,4.23,1.08,4.23l-5,2.18a27.7,27.7,0,0,1-2.65-1.5C94.89,505.77,97.09,503.91,99.5,503.33Z"/><path class="cls-4" d="M110.78,513.36l-.84.15c-16.71,2.54-5.51-6.48-5.51-6.48s.73-.73,1.77-1.82A11.05,11.05,0,0,1,110.78,513.36Z"/><path class="cls-6" d="M83.61,529.34s9.36-33.52,22.48-23.17-5.34,26.23-5.34,26.23Z"/><circle class="cls-4" cx="88.34" cy="492.61" r="1.05"/><circle class="cls-4" cx="88.25" cy="497.51" r="1.05"/><circle class="cls-4" cx="118.68" cy="493.57" r="1.05"/><circle class="cls-4" cx="94.19" cy="518.67" r="1.05"/><circle class="cls-4" cx="116.5" cy="501.71" r="1.05"/><circle class="cls-4" cx="105.65" cy="512.55" r="1.05"/><circle class="cls-4" cx="91.92" cy="494.71" r="1.05"/><circle class="cls-4" cx="115.8" cy="496.72" r="1.05"/><circle class="cls-4" cx="112.21" cy="504.85" r="1.05"/><circle class="cls-4" cx="101.19" cy="517.88" r="1.05"/><circle class="cls-4" cx="98.92" cy="512.72" r="1.05"/><circle class="cls-4" cx="93.49" cy="501.09" r="1.05"/><rect class="cls-4" x="80.64" y="554.96" width="31.92" height="3.07"/><rect class="cls-16" x="75.57" y="527.68" width="41.71" height="29.29"/><circle class="cls-4" cx="102.59" cy="522.6" r="1.05"/><circle class="cls-4" cx="96.29" cy="523.92" r="1.05"/><path class="cls-21" d="M459.89,289.08c0,3.16-6.8,6.88-15.19,6.88s-15.19-3.72-15.19-6.88,6.8-4.59,15.19-4.59S459.89,285.91,459.89,289.08Z"/><path class="cls-4" d="M459.89,289.08c0,3.16-6.8,6.88-15.19,6.88s-15.19-3.72-15.19-6.88,6.8-4.59,15.19-4.59S459.89,285.91,459.89,289.08Z"/><ellipse class="cls-21" cx="444.71" cy="289.08" rx="15.19" ry="5.73"/><ellipse class="cls-4" cx="444.71" cy="289.08" rx="8.59" ry="3.24"/><path class="cls-12" d="M457.15,282.19c-1.46,3.76-3.73,4.86-5.5,5.1A5.92,5.92,0,0,1,449,287l1.05-2.24a3.65,3.65,0,0,0,2,0,4.35,4.35,0,0,0,2.66-2.92c1.12-2.85-.28-3.27-1.25-3.25a4,4,0,0,0-.59.05l.83-1.77a6.13,6.13,0,0,1,.84-.14C456.14,276.59,459.21,276.89,457.15,282.19Z"/><path class="cls-22" d="M450.43,290c-5.91,3.08-11.72,0-11.72,0l.09-.85.06-.65,11.43-.21.09,1Z"/><path class="cls-4" d="M452.08,284.75a16.72,16.72,0,0,1-.43,2.53A5.92,5.92,0,0,1,449,287l1.05-2.25A3.56,3.56,0,0,0,452.08,284.75Z"/><path class="cls-4" d="M454.57,276.75a2.53,2.53,0,0,1-.33.63l-.08.13c-.24.35-.46.72-.67,1.1a4,4,0,0,0-.59.05l.83-1.77A6.13,6.13,0,0,1,454.57,276.75Z"/><path class="cls-4" d="M450.38,289.35c-2,1.08-9.63,1.4-11.58-.16l.06-.65,11.43-.21Z"/><path class="cls-12" d="M454,277.38l-.09.13a11.21,11.21,0,0,0-1.92,5.56c-.36,4.92-1.09,5.41-1.17,5.62-.59,1.49-10.79,2.08-12.32,0-1.27-1.72-2.5-5.44-1.93-7.53a4.2,4.2,0,0,0-1-3.28,2.53,2.53,0,0,1,.56-3.53l.11-.08c2.92-1.86,8-2,8-2,4.37-.33,7.17.51,8.87,1.46l.22.13a2.51,2.51,0,0,1,.63,3.5h0Z"/><ellipse class="cls-4" cx="444.55" cy="276.91" rx="7.75" ry="1.83"/><ellipse class="cls-23" cx="444.55" cy="277.13" rx="7.75" ry="1.83"/><path class="cls-7" d="M446.18,276s-5.57.18-5.41,2.18A14,14,0,0,1,446.18,276Z"/><path class="cls-7" d="M447.75,276.49s-3.32,0-2.8,1.65c0,0,.78-.12.67-.55s2.13-.87,2.13-.87Z"/><path class="cls-24" d="M435.93,276s-.22,3.41,8.46,3.22,8.65-2.45,8.75-3.22h-.48s-.11,2.78-8.11,2.71-8.23-2.71-8.23-2.71Z"/><path class="cls-4" d="M454.4,275.42l-5.24,2.8a.49.49,0,0,1-.62-.13l-.09-.11a.65.65,0,0,1,.11-.91l.05,0,4.79-3A2.52,2.52,0,0,1,454.4,275.42Z"/><path class="cls-21" d="M448.61,276.86l13.6-8.62a2,2,0,0,1,1-.32c.68,0,1.65.11,1.35,1.21a2.08,2.08,0,0,1-1,1.24l-14.37,7.68a.5.5,0,0,1-.62-.12l-.09-.11a.65.65,0,0,1,.09-.92Z"/><path class="cls-4" d="M448.61,276.86l13.6-8.62a2,2,0,0,1,1-.32c.68,0,1.65.11,1.35,1.21a2.08,2.08,0,0,1-1,1.24l-14.37,7.68a.5.5,0,0,1-.62-.12l-.09-.11a.65.65,0,0,1,.09-.92Z"/><path class="cls-21" d="M448.61,276.76l13.6-8.62a2,2,0,0,1,1-.33c.68,0,1.65.11,1.35,1.21a2,2,0,0,1-1,1.24l-14.37,7.68a.5.5,0,0,1-.62-.12l-.09-.11a.65.65,0,0,1,.09-.92Z"/><path class="cls-4" d="M447.85,277s1.46-.31,1.27.08.62.86.62.86-1.5.36-1.73.14S447.85,277,447.85,277Z"/><path class="cls-23" d="M447.75,277.09s1.45-.31,1.26.07.62.88.62.88-1.5.35-1.72.14S447.75,277.09,447.75,277.09Z"/><path class="cls-25" d="M445.45,262a5.49,5.49,0,0,0-1.3,2.42,8.19,8.19,0,0,0,.08,2.52,15.69,15.69,0,0,0,.29,1.69c.08.32.3.67.45.46,0-.79-.17-1.56-.13-2.35a5.31,5.31,0,0,1,.73-2.32,12.3,12.3,0,0,0,1-2c.11-.34.53-3.43-.05-2.92-.12.11-.26,1.13-.37,1.38A5.16,5.16,0,0,1,445.45,262Z"/><path class="cls-25" d="M445.7,267.05c0,.29.28.5.39.77a1.91,1.91,0,0,1,.1.53,4,4,0,0,1-.39,2.57,1.82,1.82,0,0,0,1-1.32,5.31,5.31,0,0,0,.13-.89c0-.28,0-.57,0-.85,0-.43.13-1.55-.4-1.76S445.7,266.64,445.7,267.05Z"/><path class="cls-4" d="M436.71,280.54a3.23,3.23,0,0,0,2.5,1.13,4.78,4.78,0,0,1-2.63-.31Z"/><polygon class="cls-18" points="285.38 248.53 285.38 283.66 248.98 284.7 248.98 249.58 285.38 248.53"/><polygon class="cls-4" points="285.19 279.26 285.38 284.7 248.98 284.7 248.92 281.36 285.19 279.26"/><path class="cls-18" d="M296.5,285.38l-56.62,2.09h0a5.54,5.54,0,0,1,5.55-5.54l45.54-2.1a5.54,5.54,0,0,1,5.55,5.55Z"/><path class="cls-18" d="M167.39,126.64l200.68-6.3a3.52,3.52,0,0,1,3.52,3.51h0V244.43a3.52,3.52,0,0,1-3.52,3.51h0l-200.68,6.3a3.52,3.52,0,0,1-3.52-3.51h0V130.19a3.51,3.51,0,0,1,3.47-3.55Z"/><polygon class="cls-6" points="168.68 135.13 367.21 128.83 367.21 233.04 168.68 239.35 168.68 135.13"/><ellipse class="cls-5" cx="267.16" cy="242.9" rx="1.75" ry="1.73"/><polygon class="cls-4" points="285.34 253.93 249.06 254.98 249.06 254.29 285.34 253.24 285.34 253.93"/><polygon class="cls-26" points="168.55 235.94 367.22 229.64 367.22 233.24 168.55 239.53 168.55 235.94"/><polygon class="cls-18" points="58.82 281.81 60.75 285.3 123.58 271.98 121.1 268.03 58.82 281.81"/><path class="cls-18" d="M51.28,285.2l-9.51-56.44a1.82,1.82,0,0,1,1.48-2.08h.11l72.13-7.7a1.81,1.81,0,0,1,2,1.55L124.21,270Z"/><path class="cls-4" d="M51.28,285.2l-9.51-56.44a1.82,1.82,0,0,1,1.48-2.08h.11l72.13-7.7a1.81,1.81,0,0,1,2,1.55L124.21,270Z"/><path class="cls-18" d="M52.39,285.2l-9.52-56.44a1.81,1.81,0,0,1,1.49-2.08h.1L116.6,219a1.8,1.8,0,0,1,2,1.55L125.32,270Z"/><polygon class="cls-6" points="47.89 231.28 55.7 279.23 120.91 265.82 114.85 223.2 47.89 231.28"/><path class="cls-27" d="M60.38,284.19l-.46-.91-8.64,1.92,22,33.61A2.84,2.84,0,0,0,76.45,320l77.24-22.45a2.84,2.84,0,0,0,.92-5l-29.93-22.67-6.24,1.46.27.64Z"/><path class="cls-4" d="M60.38,284.19l-.46-.91-8.64,1.92,22,33.61A2.84,2.84,0,0,0,76.45,320l77.24-22.45a2.84,2.84,0,0,0,.92-5l-29.93-22.67-6.24,1.46.27.64Z"/><path class="cls-27" d="M61.48,284.19l-.45-.91-8.64,1.92,22,33.61A2.86,2.86,0,0,0,77.56,320l77.24-22.45a2.84,2.84,0,0,0,.92-5l-29.93-22.67-6.25,1.46.28.64Z"/><path class="cls-4" d="M95.94,298l24.81-6.45a.49.49,0,0,1,.45.11l11,10a.48.48,0,0,1,0,.68.4.4,0,0,1-.22.14l-26.23,7.75a.49.49,0,0,1-.5-.15l-9.61-11.3a.49.49,0,0,1,.07-.69A.51.51,0,0,1,95.94,298Z"/><path class="cls-19" d="M96.48,297.41l24.83-6.48a.51.51,0,0,1,.44.11l11,10a.49.49,0,0,1,0,.68.52.52,0,0,1-.22.14l-26.24,7.75a.5.5,0,0,1-.5-.15l-9.61-11.24a.47.47,0,0,1,0-.67A.51.51,0,0,1,96.48,297.41Z"/><g class="cls-8"><path class="cls-9" d="M61.53,288.88l1.11,1.8a.23.23,0,0,0,.23.09l3.76-.83a.22.22,0,0,0,.16-.27.21.21,0,0,0,0-.07l-1.25-1.73a.21.21,0,0,0-.22-.09l-3.64.78a.21.21,0,0,0-.15.26Z"/><path class="cls-9" d="M66.44,287.85l1.11,1.8a.24.24,0,0,0,.24.09l3.76-.84a.22.22,0,0,0,.15-.27s0,0,0-.06l-1.25-1.74a.19.19,0,0,0-.21-.08l-3.65.77a.22.22,0,0,0-.14.28Z"/><path class="cls-9" d="M71.22,286.82l1.11,1.79a.23.23,0,0,0,.23.1l3.76-.84a.22.22,0,0,0,.16-.27.11.11,0,0,0,0-.07l-1.25-1.7a.21.21,0,0,0-.21-.08l-3.65.78a.22.22,0,0,0-.13.28Z"/><path class="cls-9" d="M75.91,285.83,77,287.6a.22.22,0,0,0,.24.11l3.73-.83a.23.23,0,0,0,.17-.29.11.11,0,0,0,0-.07l-1.22-1.71a.23.23,0,0,0-.24-.09l-3.6.77a.23.23,0,0,0-.17.28A.08.08,0,0,0,75.91,285.83Z"/><path class="cls-9" d="M75.53,288.54l1.12,1.79a.2.2,0,0,0,.23.09l3.76-.83a.23.23,0,0,0,.16-.26.25.25,0,0,0,0-.07l-1.24-1.74a.21.21,0,0,0-.22-.08l-3.64.78a.21.21,0,0,0-.15.27Z"/><path class="cls-9" d="M70.67,289.57l1.11,1.79a.21.21,0,0,0,.23.1l3.76-.84a.22.22,0,0,0,.16-.27l0-.06-1.25-1.74a.21.21,0,0,0-.22-.08l-3.64.78a.22.22,0,0,0-.15.26A.09.09,0,0,0,70.67,289.57Z"/><path class="cls-9" d="M73.83,291.77l1.12,1.8a.23.23,0,0,0,.23.1l3.76-.84a.22.22,0,0,0,.15-.27l0-.07-1.25-1.73a.21.21,0,0,0-.22-.09l-3.64.78a.2.2,0,0,0-.14.26A.14.14,0,0,0,73.83,291.77Z"/><path class="cls-9" d="M78.32,293.7l1.11,1.8a.25.25,0,0,0,.23.1l3.76-.84a.22.22,0,0,0,.16-.26l0-.07-1.25-1.74a.21.21,0,0,0-.22-.09l-3.64.78a.22.22,0,0,0-.15.26A.09.09,0,0,0,78.32,293.7Z"/><path class="cls-9" d="M79.09,296.82l1.8,2.26a.19.19,0,0,0,.22.07l3.79-1a.21.21,0,0,0,.16-.26.22.22,0,0,0,0-.08l-1.86-2.28a.21.21,0,0,0-.21-.07l-3.73,1a.2.2,0,0,0-.12.33Z"/><path class="cls-9" d="M84,295.58l1.84,2.33a.23.23,0,0,0,.23.07l4.94-1.37a.21.21,0,0,0,.15-.26.2.2,0,0,0,0-.08L89.3,294a.21.21,0,0,0-.23-.07l-4.92,1.32a.22.22,0,0,0-.15.27A.16.16,0,0,0,84,295.58Z"/><path class="cls-9" d="M74.24,298l1.8,2.26a.25.25,0,0,0,.23.07l3.79-1a.22.22,0,0,0,.15-.26.36.36,0,0,0,0-.09l-1.86-2.26a.2.2,0,0,0-.22-.06l-3.73,1a.23.23,0,0,0-.14.27Z"/><path class="cls-9" d="M69.13,299.35l1.8,2.25a.21.21,0,0,0,.22.08l3.79-1a.22.22,0,0,0,.15-.27.25.25,0,0,0,0-.07l-1.86-2.27A.22.22,0,0,0,73,298l-3.73,1a.2.2,0,0,0-.16.25A.19.19,0,0,0,69.13,299.35Z"/><path class="cls-9" d="M80.62,284.7l1.1,1.77a.23.23,0,0,0,.24.1l3.73-.83a.23.23,0,0,0,.17-.28s0,0,0-.08l-1.23-1.73a.23.23,0,0,0-.23-.09l-3.64.77a.24.24,0,0,0-.16.28A.41.41,0,0,0,80.62,284.7Z"/><path class="cls-9" d="M80.32,287.45l1.1,1.77a.23.23,0,0,0,.24.1l3.73-.83a.22.22,0,0,0,.17-.28.11.11,0,0,0,0-.07l-1.22-1.72a.24.24,0,0,0-.24-.08l-3.64.77a.23.23,0,0,0-.14.29Z"/><path class="cls-9" d="M85.19,283.65l1.1,1.77a.24.24,0,0,0,.25.1l3.73-.83a.24.24,0,0,0,.16-.29l0-.07-1.23-1.71a.23.23,0,0,0-.23-.09l-3.61.78a.21.21,0,0,0-.17.26A.13.13,0,0,0,85.19,283.65Z"/><path class="cls-9" d="M98.55,280.73l1.55,1.65a.17.17,0,0,0,.18.05l3.33-.77a.18.18,0,0,0,.14-.21.23.23,0,0,0,0-.1L102,279.7a.18.18,0,0,0-.17,0l-3.13.77a.18.18,0,0,0-.14.23A.16.16,0,0,0,98.55,280.73Z"/><path class="cls-9" d="M102.83,279.76l1.54,1.64a.2.2,0,0,0,.18.06l3.33-.77a.18.18,0,0,0,.14-.21.23.23,0,0,0,0-.1l-1.75-1.66a.21.21,0,0,0-.17,0l-3.13.77a.18.18,0,0,0-.14.22A.2.2,0,0,0,102.83,279.76Z"/><path class="cls-9" d="M98.65,283.41l1.55,1.64a.15.15,0,0,0,.17.06l3.34-.73a.19.19,0,0,0,.14-.22.21.21,0,0,0-.06-.1l-1.74-1.64a.17.17,0,0,0-.18-.05l-3.13.78a.18.18,0,0,0-.11.23Z"/><path class="cls-9" d="M94.24,284.43,95.69,286a.23.23,0,0,0,.22.07l3.22-.73a.24.24,0,0,0,.18-.28.26.26,0,0,0-.07-.11l-1.67-1.58a.22.22,0,0,0-.21-.05l-3,.73a.22.22,0,0,0-.13.3A.22.22,0,0,0,94.24,284.43Z"/><path class="cls-9" d="M97.6,289.39,99.05,291a.23.23,0,0,0,.22.07l3.22-.73a.22.22,0,0,0,.18-.27.25.25,0,0,0-.07-.12l-1.67-1.57a.25.25,0,0,0-.21-.06l-3,.73a.23.23,0,0,0-.13.3A.14.14,0,0,0,97.6,289.39Z"/><path class="cls-9" d="M93,290.42,94.48,292a.23.23,0,0,0,.22.06l3.22-.72a.23.23,0,0,0,.18-.27A.19.19,0,0,0,98,291l-1.61-1.6a.22.22,0,0,0-.21-.05l-3,.72a.24.24,0,0,0-.23.23A.2.2,0,0,0,93,290.42Z"/><path class="cls-9" d="M88.41,291.57l1.46,1.57a.21.21,0,0,0,.21.07l3.23-.73a.24.24,0,0,0,.17-.29.23.23,0,0,0-.07-.1l-1.66-1.58a.25.25,0,0,0-.22-.05l-3,.73a.22.22,0,0,0-.15.28A.21.21,0,0,0,88.41,291.57Z"/><path class="cls-9" d="M83.48,292.55l1.5,1.59a.26.26,0,0,0,.21.06l3.25-.73a.21.21,0,0,0,.17-.25.26.26,0,0,0-.07-.11l-1.69-1.6a.21.21,0,0,0-.2-.05l-3.07.73a.22.22,0,0,0-.16.25A.24.24,0,0,0,83.48,292.55Z"/><path class="cls-9" d="M93,287.55l1.45,1.58a.25.25,0,0,0,.22.06l3.22-.73a.22.22,0,0,0,.17-.27.24.24,0,0,0-.06-.11l-1.67-1.58a.22.22,0,0,0-.21-.05l-3,.72a.24.24,0,0,0-.13.31Z"/><path class="cls-9" d="M88.52,288.59,90,290.16a.23.23,0,0,0,.22.07l3.22-.73a.24.24,0,0,0,.18-.27.37.37,0,0,0-.07-.12l-1.67-1.57a.2.2,0,0,0-.21-.06l-3,.73a.22.22,0,0,0-.13.3A.2.2,0,0,0,88.52,288.59Z"/><path class="cls-9" d="M83.75,289.59l1.46,1.58a.2.2,0,0,0,.21.06l3.23-.73a.22.22,0,0,0,.16-.28.24.24,0,0,0-.06-.11l-1.66-1.57a.23.23,0,0,0-.21-.05l-3,.73a.21.21,0,0,0-.16.26A.26.26,0,0,0,83.75,289.59Z"/><path class="cls-9" d="M78.86,290.73l1.5,1.6a.23.23,0,0,0,.21.05l3.25-.72a.22.22,0,0,0,.17-.25.23.23,0,0,0-.06-.12l-1.69-1.59a.23.23,0,0,0-.21-.05l-3.07.72a.23.23,0,0,0-.15.27A.19.19,0,0,0,78.86,290.73Z"/><path class="cls-9" d="M97.57,286.48,99,288.05a.23.23,0,0,0,.22.06l3.22-.72a.23.23,0,0,0,.11-.39l-1.67-1.57a.2.2,0,0,0-.21-.06l-3,.73a.23.23,0,0,0-.15.28Z"/><path class="cls-9" d="M89.79,285.58l1.45,1.57a.26.26,0,0,0,.22.07l3.23-.73a.23.23,0,0,0,.17-.27.24.24,0,0,0-.07-.12l-1.67-1.57a.2.2,0,0,0-.21-.06l-3,.73a.22.22,0,0,0-.15.28A.21.21,0,0,0,89.79,285.58Z"/><path class="cls-9" d="M107,278.72l1.62,1.71a.13.13,0,0,0,.13.05l3.45-.8a.14.14,0,0,0,.09-.17.15.15,0,0,0,0-.07l-1.83-1.72a.12.12,0,0,0-.13,0l-3.23.8a.13.13,0,0,0-.11.15A.2.2,0,0,0,107,278.72Z"/><path class="cls-9" d="M111.11,277.82l1.62,1.72a.12.12,0,0,0,.13,0l3.44-.8a.13.13,0,0,0,.1-.17.09.09,0,0,0,0-.06l-1.83-1.73a.15.15,0,0,0-.13,0l-3.24.8a.14.14,0,0,0-.08.17Z"/><path class="cls-9" d="M115.37,276.81l1.46,1.6a.11.11,0,0,0,.13,0l3.21-.87a.15.15,0,0,0,.09-.19.1.1,0,0,0,0-.05L118.56,276a.13.13,0,0,0-.12,0l-3,.67a.14.14,0,0,0,0,.19Z"/><path class="cls-9" d="M119.86,278.3l1.45,1.6a.16.16,0,0,0,.14.05l3.21-.88a.14.14,0,0,0,.1-.17.18.18,0,0,0-.05-.07l-1.65-1.39a.13.13,0,0,0-.12,0l-3,.67a.13.13,0,0,0-.06.18Z"/><path class="cls-9" d="M119.32,281.21l1.4,1.52a.19.19,0,0,0,.19,0l3.09-.84a.18.18,0,0,0,.12-.23.26.26,0,0,0-.05-.09l-1.58-1.32a.13.13,0,0,0-.15,0l-2.91.65a.18.18,0,0,0-.16.2A.12.12,0,0,0,119.32,281.21Z"/><path class="cls-9" d="M115.67,284.91l1.4,1.52a.19.19,0,0,0,.19.05l3.09-.84a.19.19,0,0,0,.12-.23.2.2,0,0,0,0-.09L118.84,284a.17.17,0,0,0-.15,0l-2.91.64a.2.2,0,0,0-.16.21A.16.16,0,0,0,115.67,284.91Z"/><path class="cls-9" d="M111.28,286.06l1.41,1.52a.17.17,0,0,0,.18.05l3.09-.84a.19.19,0,0,0,.12-.24.14.14,0,0,0,0-.08l-1.57-1.32a.16.16,0,0,0-.16,0l-2.91.64a.2.2,0,0,0-.16.21A.19.19,0,0,0,111.28,286.06Z"/><path class="cls-9" d="M119.8,283.83l1.4,1.52a.19.19,0,0,0,.19,0l3.09-.84a.18.18,0,0,0,.13-.22.17.17,0,0,0-.06-.1L123,282.92a.18.18,0,0,0-.16,0l-2.91.64a.2.2,0,0,0-.15.23A.2.2,0,0,0,119.8,283.83Z"/><path class="cls-9" d="M119.08,287.11,121.2,289a.19.19,0,0,0,.18,0l3.07-.86a.2.2,0,0,0,.13-.23.24.24,0,0,0-.06-.09l-2.29-2a.2.2,0,0,0-.18,0l-2.91,1a.17.17,0,0,0-.12.22A.2.2,0,0,0,119.08,287.11Z"/><path class="cls-9" d="M111.66,280.37l1.46,1.6a.14.14,0,0,0,.14,0l3.2-.88a.12.12,0,0,0,.1-.15.1.1,0,0,0,0-.08l-1.65-1.4h-.12l-3,.67a.13.13,0,0,0-.06.18Z"/><path class="cls-9" d="M107.51,281.4l1.41,1.51a.19.19,0,0,0,.18.06l3.09-.84a.2.2,0,0,0,.13-.24.24.24,0,0,0-.06-.09l-1.56-1.31a.2.2,0,0,0-.16-.05l-2.92.65a.19.19,0,0,0-.15.22A.36.36,0,0,0,107.51,281.4Z"/><path class="cls-9" d="M106.66,284.33l1.42,1.5a.17.17,0,0,0,.18.06l3.1-.85a.18.18,0,0,0,.12-.23.22.22,0,0,0,0-.08l-1.57-1.33a.18.18,0,0,0-.16,0l-2.92.65a.19.19,0,0,0-.18.19A.16.16,0,0,0,106.66,284.33Z"/><path class="cls-9" d="M102.3,285.39l1.4,1.52a.19.19,0,0,0,.19,0l3.09-.84a.18.18,0,0,0,.12-.23.22.22,0,0,0,0-.08l-1.57-1.33a.18.18,0,0,0-.16,0l-2.91.64a.19.19,0,0,0-.15.23A.12.12,0,0,0,102.3,285.39Z"/><path class="cls-9" d="M103.08,282.38l1.41,1.52a.14.14,0,0,0,.18.05l3.09-.84a.18.18,0,0,0,.13-.22.15.15,0,0,0-.06-.09l-1.57-1.34a.16.16,0,0,0-.15,0l-2.92.64a.19.19,0,0,0-.17.19A.27.27,0,0,0,103.08,282.38Z"/><path class="cls-9" d="M106.73,287l1.41,1.53a.18.18,0,0,0,.18.05l3.09-.85a.17.17,0,0,0,.13-.22.15.15,0,0,0-.06-.09l-1.57-1.33a.16.16,0,0,0-.15,0l-2.92.64a.17.17,0,0,0-.15.2A.15.15,0,0,0,106.73,287Z"/><path class="cls-9" d="M102.44,288.2l1.34,1.46a.23.23,0,0,0,.23.07l3-.81a.25.25,0,0,0,.16-.29.21.21,0,0,0-.07-.11l-1.46-1.26a.24.24,0,0,0-.2,0l-2.83.62a.24.24,0,0,0-.19.27A.36.36,0,0,0,102.44,288.2Z"/><path class="cls-9" d="M115.89,279.31l1.45,1.61a.14.14,0,0,0,.14,0l3.21-.87a.14.14,0,0,0,.1-.16.22.22,0,0,0-.05-.08l-1.66-1.39a.11.11,0,0,0-.11,0l-3,.67a.13.13,0,0,0-.05.19Z"/><path class="cls-9" d="M115.3,282.19l1.4,1.52a.18.18,0,0,0,.18.05l3.1-.84a.18.18,0,0,0,.12-.23.22.22,0,0,0,0-.08l-1.57-1.33a.18.18,0,0,0-.16,0l-2.92.64a.2.2,0,0,0-.14.23A.12.12,0,0,0,115.3,282.19Z"/><path class="cls-9" d="M111.1,283.35l1.4,1.52a.22.22,0,0,0,.19.05l3.09-.84a.19.19,0,0,0,.12-.24.22.22,0,0,0-.05-.08l-1.57-1.32a.25.25,0,0,0-.16-.05l-2.92.65a.18.18,0,0,0-.15.21A.19.19,0,0,0,111.1,283.35Z"/><path class="cls-9" d="M94.19,281.69l1.55,1.64a.18.18,0,0,0,.17.06l3.33-.78a.18.18,0,0,0,.15-.21.21.21,0,0,0-.06-.1l-1.75-1.65a.17.17,0,0,0-.17,0l-3.13.77a.18.18,0,0,0-.13.22A.18.18,0,0,0,94.19,281.69Z"/><path class="cls-9" d="M89.74,282.77l1.46,1.58a.22.22,0,0,0,.22.06l3.22-.73a.23.23,0,0,0,.17-.28.24.24,0,0,0-.06-.11l-1.67-1.57a.23.23,0,0,0-.21-.05l-3,.72a.23.23,0,0,0-.15.29A.18.18,0,0,0,89.74,282.77Z"/><path class="cls-9" d="M85,286.47l1.1,1.76a.21.21,0,0,0,.24.1l3.73-.83a.21.21,0,0,0,.18-.26.13.13,0,0,0,0-.09L89,285.44a.23.23,0,0,0-.23-.09l-3.6.77a.24.24,0,0,0-.18.28Z"/><path class="cls-9" d="M60.57,287.12l3.68-.85a.24.24,0,0,1,.21.08l.65.85a.21.21,0,0,1,0,.3l-.08,0-3.81.89a.23.23,0,0,1-.24-.1l-.51-.89a.21.21,0,0,1,.07-.29Z"/><path class="cls-9" d="M65.63,286l3.64-.85a.2.2,0,0,1,.22.08l.65.85a.21.21,0,0,1,0,.3l-.07,0-3.81.89a.22.22,0,0,1-.24-.1l-.51-.89a.21.21,0,0,1,.08-.29A.32.32,0,0,1,65.63,286Z"/><path class="cls-9" d="M70.52,285l3.68-.85a.22.22,0,0,1,.22.07l.65.86a.21.21,0,0,1,0,.29.18.18,0,0,1-.09,0l-3.81.89a.2.2,0,0,1-.23-.09l-.52-.89a.22.22,0,0,1,.08-.3Z"/><path class="cls-9" d="M75.29,283.89,79,283a.19.19,0,0,1,.22.08l.64.84a.23.23,0,0,1,0,.31s0,0-.08,0l-3.82.89a.21.21,0,0,1-.23-.1l-.52-.89a.22.22,0,0,1,.1-.29Z"/><path class="cls-9" d="M80.13,282.81l3.64-.84a.24.24,0,0,1,.24.08l.62.83a.22.22,0,0,1,0,.32.2.2,0,0,1-.08,0l-3.78.88a.23.23,0,0,1-.25-.11l-.5-.86a.23.23,0,0,1,.09-.31A.11.11,0,0,1,80.13,282.81Z"/><path class="cls-9" d="M84.83,281.83l3.64-.84a.24.24,0,0,1,.24.08l.62.83a.23.23,0,0,1,0,.32l-.09,0-3.78.88a.24.24,0,0,1-.25-.11l-.5-.86a.23.23,0,0,1,.1-.31Z"/><path class="cls-9" d="M89.44,280.87l3.37-.81a.23.23,0,0,1,.22.06l.65.69a.23.23,0,0,1,0,.33.19.19,0,0,1-.09.05l-3.33.83a.22.22,0,0,1-.22,0l-.73-.73a.24.24,0,0,1,0-.33Z"/><path class="cls-9" d="M93.9,279.84l3.48-.84a.18.18,0,0,1,.18.05l.73.77a.17.17,0,0,1,0,.24.14.14,0,0,1-.1.05l-3.43.87a.18.18,0,0,1-.18-.05l-.77-.78a.19.19,0,0,1,0-.26Z"/><path class="cls-9" d="M98.37,278.8l3.47-.85a.17.17,0,0,1,.18.05l.73.73a.19.19,0,0,1,0,.26l-.09.05-3.43.86a.18.18,0,0,1-.18,0l-.72-.78a.18.18,0,0,1,0-.25Z"/><path class="cls-9" d="M102.83,277.88l3.47-.85a.23.23,0,0,1,.18.05l.73.77a.17.17,0,0,1-.1.3l-3.4.86a.2.2,0,0,1-.18,0l-.76-.78a.19.19,0,0,1,0-.27Z"/><path class="cls-9" d="M107.05,276.86l3.58-.86a.12.12,0,0,1,.13,0l.8.84a.13.13,0,0,1,0,.19l-.07,0L108,278a.15.15,0,0,1-.14,0l-.84-.86a.14.14,0,0,1,0-.2Z"/><path class="cls-9" d="M111.32,276l3.59-.87a.13.13,0,0,1,.12,0l.8.84a.13.13,0,0,1,0,.19l-.07,0-3.53.9a.13.13,0,0,1-.14,0l-.84-.86a.13.13,0,0,1,0-.19A.18.18,0,0,1,111.32,276Z"/><path class="cls-9" d="M115.58,275l3.32-.73a.13.13,0,0,1,.13.05l.64.79a.13.13,0,0,1,0,.18l-.06,0-3.11.82a.11.11,0,0,1-.13,0l-.85-.85a.14.14,0,0,1,0-.19A.14.14,0,0,1,115.58,275Z"/><path class="cls-9" d="M119.65,274l3.31-.72a.12.12,0,0,1,.14,0l.63.79a.13.13,0,0,1,0,.19l0,0-3.11.82a.18.18,0,0,1-.14,0l-.84-.86a.14.14,0,0,1,0-.19A.21.21,0,0,1,119.65,274Z"/><path class="cls-9" d="M63.15,291.51l1.22,1.74a.21.21,0,0,0,.22.09L71,291.85a.22.22,0,0,0,.17-.25.25.25,0,0,0,0-.09l-1.36-1.78a.21.21,0,0,0-.22-.08l-6.24,1.53a.21.21,0,0,0-.16.26A.16.16,0,0,0,63.15,291.51Z"/><path class="cls-9" d="M65.09,293.85l1.22,1.94a.21.21,0,0,0,.23.09l7.7-1.83a.2.2,0,0,0,.16-.25.18.18,0,0,0,0-.09l-1.52-1.89a.23.23,0,0,0-.22-.07l-7.4,1.78a.22.22,0,0,0-.16.25Z"/><path class="cls-9" d="M66.82,296.41l1.46,2.11a.2.2,0,0,0,.22.09l10.2-2.52a.23.23,0,0,0,.16-.27.3.3,0,0,0,0-.08l-1.64-2.1a.21.21,0,0,0-.22-.08l-10.08,2.53a.2.2,0,0,0-.09.28Z"/><path class="cls-9" d="M90.17,294.11,92,296.36a.21.21,0,0,0,.22.08l22.45-5.61a.21.21,0,0,0,.16-.27.24.24,0,0,0-.06-.11l-2.28-2.28a.29.29,0,0,0-.22-.06l-22,5.64a.21.21,0,0,0-.16.27A.13.13,0,0,0,90.17,294.11Z"/><path class="cls-9" d="M113.34,288.3l2.19,2.19a.18.18,0,0,0,.18.05l4.6-1.23a.19.19,0,0,0,.13-.22.41.41,0,0,0,0-.09l-2.28-2.23a.2.2,0,0,0-.18,0l-4.51,1.3a.2.2,0,0,0-.1.25Z"/><path class="cls-9" d="M124.45,286.92l1,1.06a.13.13,0,0,0,.13,0l3.41-.92a.13.13,0,0,0,.1-.15.16.16,0,0,0,0-.07l-1.21-1.15a.17.17,0,0,0-.14,0l-3.19,1a.15.15,0,0,0-.07.19Z"/><path class="cls-9" d="M127.35,284.65l1.19,1.25a.17.17,0,0,0,.15,0l3.12-1.09a.13.13,0,0,0,.1-.16.43.43,0,0,0,0-.07l-1.2-1.05a.13.13,0,0,0-.12,0l-3.16.88a.14.14,0,0,0,0,.19Z"/><path class="cls-9" d="M129.66,286.82l-.86-.73a.13.13,0,0,1,0-.19l0,0,3.12-1.08a.11.11,0,0,1,.13,0l1,.94a.12.12,0,0,1,0,.19l-.06,0-3.23.84A.13.13,0,0,1,129.66,286.82Z"/><path class="cls-9" d="M132.86,284.89c.27.26.72.78.91.95a.18.18,0,0,0,.14,0l3.25-.88a.14.14,0,0,0,.09-.17.16.16,0,0,0,0-.07l-1.15-1a.12.12,0,0,0-.14,0l-3,1a.13.13,0,0,0-.07.17Z"/><path class="cls-9" d="M123.75,282.84l1.73,1.68a.13.13,0,0,0,.13,0l8.37-2.18a.14.14,0,0,0,.09-.17.15.15,0,0,0,0-.07l-2-1.68a.13.13,0,0,0-.12,0l-8.07,2.19a.12.12,0,0,0-.08.16A.05.05,0,0,0,123.75,282.84Z"/><path class="cls-9" d="M123.18,280.26l1.79,1.6h.13l6.29-1.46a.14.14,0,0,0,.1-.17.18.18,0,0,0-.05-.07l-2.06-1.73a.13.13,0,0,0-.12,0l-6,1.57a.14.14,0,0,0-.12.16A.11.11,0,0,0,123.18,280.26Z"/><path class="cls-9" d="M123.76,277.51l1.69,1.52a.15.15,0,0,0,.13,0l3.22-.73a.14.14,0,0,0,.11-.17.12.12,0,0,0,0-.07l-2-1.7a.13.13,0,0,0-.12,0l-2.92.93a.15.15,0,0,0-.08.18Z"/><path class="cls-9" d="M119.33,276l1.64,1.5a.15.15,0,0,0,.13,0l5.1-1.22a.13.13,0,0,0,.1-.15.16.16,0,0,0,0-.08l-2-1.64a.13.13,0,0,0-.12,0l-4.82,1.36a.16.16,0,0,0-.06.19S119.32,276,119.33,276Z"/></g><path class="cls-18" d="M61.53,288.33l1.11,1.8a.23.23,0,0,0,.23.09l3.76-.84a.21.21,0,0,0,.16-.26.15.15,0,0,0,0-.07l-1.25-1.76a.25.25,0,0,0-.22-.09l-3.64.78a.21.21,0,0,0-.16.26A.13.13,0,0,0,61.53,288.33Z"/><path class="cls-18" d="M66.44,287.29l1.11,1.79a.23.23,0,0,0,.24.1l3.76-.84a.22.22,0,0,0,.12-.28l0,0-1.25-1.73a.2.2,0,0,0-.22-.08l-3.64.78a.21.21,0,0,0-.11.28Z"/><path class="cls-18" d="M71.22,286.26l1.11,1.8a.23.23,0,0,0,.23.09l3.76-.84a.2.2,0,0,0,.16-.25.11.11,0,0,0,0-.07l-1.25-1.75a.21.21,0,0,0-.21-.08l-3.65.78a.22.22,0,0,0-.15.26Z"/><path class="cls-18" d="M75.91,285.25,77,287a.22.22,0,0,0,.24.11l3.73-.83a.23.23,0,0,0,.18-.27.18.18,0,0,0,0-.09l-1.22-1.71a.25.25,0,0,0-.24-.09l-3.6.77a.24.24,0,0,0-.18.28Z"/><path class="cls-18" d="M75.53,288l1.12,1.8a.23.23,0,0,0,.23.09l3.76-.83a.22.22,0,0,0,.16-.27.25.25,0,0,0,0-.07L79.52,287a.22.22,0,0,0-.22-.09l-3.64.78a.22.22,0,0,0-.15.27S75.52,288,75.53,288Z"/><path class="cls-18" d="M70.67,289l1.11,1.79a.21.21,0,0,0,.23.1l3.76-.83a.23.23,0,0,0,.16-.27l0-.07L74.65,288a.21.21,0,0,0-.22-.09l-3.64.78a.21.21,0,0,0-.14.27Z"/><path class="cls-18" d="M73.83,291.23,75,293a.2.2,0,0,0,.23.09l3.76-.83a.23.23,0,0,0,.16-.27l0-.07-1.25-1.73a.21.21,0,0,0-.22-.08l-3.64.78a.2.2,0,0,0-.15.25A.14.14,0,0,0,73.83,291.23Z"/><path class="cls-18" d="M78.32,293.12l1.11,1.8a.21.21,0,0,0,.23.1l3.76-.84a.23.23,0,0,0,.16-.27l0-.07-1.25-1.73a.21.21,0,0,0-.22-.09l-3.64.78a.21.21,0,0,0-.15.26A.09.09,0,0,0,78.32,293.12Z"/><path class="cls-18" d="M79.09,296.28l1.8,2.25a.22.22,0,0,0,.22.07l3.79-1a.21.21,0,0,0,.16-.26.41.41,0,0,0,0-.09L83.15,295a.21.21,0,0,0-.21-.07l-3.73,1a.23.23,0,0,0-.16.27A.3.3,0,0,0,79.09,296.28Z"/><path class="cls-18" d="M84,295l1.84,2.32a.22.22,0,0,0,.23.08l4.94-1.37a.21.21,0,0,0,.15-.26.36.36,0,0,0,0-.09l-1.86-2.27a.23.23,0,0,0-.23-.07l-4.92,1.32A.21.21,0,0,0,84,295,.2.2,0,0,0,84,295Z"/><path class="cls-18" d="M74.24,297.49l1.8,2.25a.23.23,0,0,0,.23.08l3.79-1a.2.2,0,0,0,.15-.25.36.36,0,0,0,0-.09l-1.86-2.27a.21.21,0,0,0-.22-.08l-3.73,1a.21.21,0,0,0-.15.27A.15.15,0,0,0,74.24,297.49Z"/><path class="cls-18" d="M69.13,298.8l1.8,2.26a.22.22,0,0,0,.22.07l3.79-1a.23.23,0,0,0,.15-.27.2.2,0,0,0,0-.08l-1.86-2.27a.21.21,0,0,0-.22-.07l-3.73,1a.21.21,0,0,0-.15.26Z"/><path class="cls-18" d="M80.62,284.14l1.1,1.77A.22.22,0,0,0,82,286l3.73-.83a.24.24,0,0,0,.17-.29.21.21,0,0,0,0-.07l-1.23-1.71a.21.21,0,0,0-.23-.09l-3.64.77a.23.23,0,0,0-.13.3A.05.05,0,0,0,80.62,284.14Z"/><path class="cls-18" d="M80.32,286.9l1.1,1.77a.23.23,0,0,0,.24.1l3.73-.83a.23.23,0,0,0,.18-.26.3.3,0,0,0,0-.1l-1.22-1.7a.26.26,0,0,0-.24-.1l-3.64.78a.22.22,0,0,0-.13.3Z"/><path class="cls-18" d="M85.19,283.11l1.1,1.77a.24.24,0,0,0,.25.1l3.73-.83a.24.24,0,0,0,.16-.29l0-.07-1.23-1.7a.23.23,0,0,0-.23-.1l-3.61.78a.23.23,0,0,0-.17.28Z"/><path class="cls-18" d="M98.55,280.19l1.55,1.65a.17.17,0,0,0,.18.05l3.33-.77a.17.17,0,0,0,.13-.22.18.18,0,0,0,0-.09L102,279.16a.18.18,0,0,0-.17,0l-3.13.77a.18.18,0,0,0-.14.23A.16.16,0,0,0,98.55,280.19Z"/><path class="cls-18" d="M102.83,279.21l1.54,1.64a.2.2,0,0,0,.18.06l3.33-.77a.18.18,0,0,0,.14-.22.31.31,0,0,0,0-.1l-1.75-1.64a.18.18,0,0,0-.17-.05l-3.13.77a.19.19,0,0,0-.14.22A.13.13,0,0,0,102.83,279.21Z"/><path class="cls-18" d="M98.65,282.86l1.55,1.65a.21.21,0,0,0,.17.05l3.33-.77a.19.19,0,0,0,.14-.22.21.21,0,0,0-.06-.1L102,281.83a.18.18,0,0,0-.17-.05l-3.14.78a.18.18,0,0,0-.12.23A.1.1,0,0,0,98.65,282.86Z"/><path class="cls-18" d="M94.24,283.88l1.45,1.57a.21.21,0,0,0,.22.06l3.22-.73a.22.22,0,0,0,.18-.26.19.19,0,0,0-.07-.12l-1.67-1.58a.22.22,0,0,0-.21-.05l-3,.73a.23.23,0,0,0-.14.29A.15.15,0,0,0,94.24,283.88Z"/><path class="cls-18" d="M97.6,288.84l1.45,1.57a.23.23,0,0,0,.22.07l3.22-.73a.24.24,0,0,0,.18-.28.24.24,0,0,0-.07-.12l-1.67-1.57a.22.22,0,0,0-.21,0l-3,.73a.22.22,0,0,0-.14.28A.21.21,0,0,0,97.6,288.84Z"/><path class="cls-18" d="M93,289.87l1.45,1.57a.21.21,0,0,0,.22.07l3.22-.73a.23.23,0,0,0,.18-.28.19.19,0,0,0-.07-.11l-1.61-1.59a.22.22,0,0,0-.21-.05l-3,.73a.22.22,0,0,0-.22.23A.21.21,0,0,0,93,289.87Z"/><path class="cls-18" d="M88.41,291l1.46,1.58a.22.22,0,0,0,.21.06l3.23-.73a.23.23,0,0,0,.17-.27.19.19,0,0,0-.07-.11L91.75,290a.29.29,0,0,0-.22-.06l-3,.73a.23.23,0,0,0-.14.3A.22.22,0,0,0,88.41,291Z"/><path class="cls-18" d="M83.48,292l1.5,1.6a.26.26,0,0,0,.21.06l3.25-.73a.22.22,0,0,0,.17-.26.26.26,0,0,0-.07-.11l-1.69-1.62a.21.21,0,0,0-.2-.05l-3.07.73a.2.2,0,0,0-.19.22A.19.19,0,0,0,83.48,292Z"/><path class="cls-18" d="M93,287l1.45,1.57a.23.23,0,0,0,.22.07l3.22-.73a.23.23,0,0,0,.17-.28.2.2,0,0,0-.06-.11l-1.67-1.58a.22.22,0,0,0-.21-.05l-3,.73a.23.23,0,0,0-.13.3A.22.22,0,0,0,93,287Z"/><path class="cls-18" d="M88.52,288,90,289.59a.23.23,0,0,0,.22.07l3.22-.73a.23.23,0,0,0,.18-.27.37.37,0,0,0-.07-.12L91.86,287a.26.26,0,0,0-.21-.06l-3,.73a.23.23,0,0,0-.13.3A.2.2,0,0,0,88.52,288Z"/><path class="cls-18" d="M83.75,289.05l1.46,1.57a.23.23,0,0,0,.21.07l3.23-.73a.23.23,0,0,0,.17-.27.24.24,0,0,0-.07-.12L87.09,288a.21.21,0,0,0-.21-.06l-3,.73a.22.22,0,0,0-.15.28A.21.21,0,0,0,83.75,289.05Z"/><path class="cls-18" d="M78.86,290.21l1.5,1.59a.2.2,0,0,0,.21.06l3.25-.73a.21.21,0,0,0,.17-.25.24.24,0,0,0-.06-.11l-1.69-1.6a.26.26,0,0,0-.21-.06l-3.07.73a.22.22,0,0,0-.15.27Z"/><path class="cls-18" d="M97.57,285.92,99,287.5a.25.25,0,0,0,.22.06l3.22-.73a.23.23,0,0,0,.18-.26.24.24,0,0,0-.07-.12l-1.67-1.58a.26.26,0,0,0-.21-.06l-3,.73a.24.24,0,0,0-.15.29Z"/><path class="cls-18" d="M89.79,285l1.45,1.57a.23.23,0,0,0,.22.06l3.23-.72a.23.23,0,0,0,.16-.29.24.24,0,0,0-.06-.11L93.12,284a.22.22,0,0,0-.21-.05l-3,.73a.22.22,0,0,0-.14.29A.2.2,0,0,0,89.79,285Z"/><path class="cls-18" d="M107,278.16l1.62,1.73a.12.12,0,0,0,.13,0l3.45-.79a.14.14,0,0,0,.09-.17.11.11,0,0,0,0-.06l-1.83-1.73a.2.2,0,0,0-.13,0l-3.23.81a.13.13,0,0,0-.1.17Z"/><path class="cls-18" d="M111.11,277.24l1.62,1.73a.15.15,0,0,0,.13,0l3.44-.8a.13.13,0,0,0,.1-.16.09.09,0,0,0,0-.07l-1.83-1.73a.14.14,0,0,0-.13,0l-3.24.8a.12.12,0,0,0-.1.15A.08.08,0,0,0,111.11,277.24Z"/><path class="cls-18" d="M115.37,276.26l1.46,1.6a.12.12,0,0,0,.13,0l3.21-.88a.14.14,0,0,0,.09-.17l0-.06-1.66-1.4a.13.13,0,0,0-.12,0l-3,.67a.15.15,0,0,0,0,.19Z"/><path class="cls-18" d="M119.86,277.75l1.45,1.61a.14.14,0,0,0,.14,0l3.21-.87a.14.14,0,0,0,.1-.16s0-.06-.05-.07l-1.65-1.4a.13.13,0,0,0-.12,0l-3,.67a.13.13,0,0,0-.06.18Z"/><path class="cls-18" d="M119.32,280.66l1.4,1.52a.19.19,0,0,0,.19.05l3.09-.84a.18.18,0,0,0,.12-.22.11.11,0,0,0-.05-.09l-1.58-1.33a.19.19,0,0,0-.15,0l-2.91.64a.2.2,0,0,0-.13.24Z"/><path class="cls-18" d="M115.67,284.38l1.4,1.52a.19.19,0,0,0,.19.05l3.09-.84a.18.18,0,0,0,.12-.23.26.26,0,0,0,0-.09l-1.58-1.32a.17.17,0,0,0-.15,0l-2.91.65a.17.17,0,0,0-.16.19A.16.16,0,0,0,115.67,284.38Z"/><path class="cls-18" d="M111.28,285.51l1.41,1.52a.2.2,0,0,0,.18.05l3.09-.85a.18.18,0,0,0,.12-.23.2.2,0,0,0,0-.09l-1.57-1.31a.18.18,0,0,0-.16,0l-2.91.64a.19.19,0,0,0-.15.22A.36.36,0,0,0,111.28,285.51Z"/><path class="cls-18" d="M119.8,283.28l1.4,1.52a.19.19,0,0,0,.19.05l3.09-.84a.2.2,0,0,0,.13-.23.24.24,0,0,0-.06-.09L123,282.37a.18.18,0,0,0-.16,0l-2.91.65a.18.18,0,0,0-.15.21A.18.18,0,0,0,119.8,283.28Z"/><path class="cls-18" d="M119.08,286.56l2.12,1.9a.17.17,0,0,0,.18,0l3.07-.87a.19.19,0,0,0,.13-.22.18.18,0,0,0-.06-.09l-2.29-2a.17.17,0,0,0-.18,0l-2.91,1a.17.17,0,0,0-.11.23A.22.22,0,0,0,119.08,286.56Z"/><path class="cls-18" d="M111.66,279.82l1.46,1.6a.14.14,0,0,0,.14,0l3.2-.87a.14.14,0,0,0,.1-.17.18.18,0,0,0,0-.07L114.86,279a.13.13,0,0,0-.12,0l-3,.67a.13.13,0,0,0-.06.17Z"/><path class="cls-18" d="M107.51,280.84l1.41,1.53a.18.18,0,0,0,.18.05l3.09-.85a.17.17,0,0,0,.13-.22.15.15,0,0,0-.06-.09l-1.56-1.33a.22.22,0,0,0-.16,0l-2.92.64a.19.19,0,0,0-.12.24Z"/><path class="cls-18" d="M106.66,283.79l1.41,1.51a.17.17,0,0,0,.18.05l3.1-.83a.18.18,0,0,0,.11-.24.16.16,0,0,0,0-.09l-1.56-1.31a.18.18,0,0,0-.17-.05l-2.91.65a.18.18,0,0,0-.16.2A.22.22,0,0,0,106.66,283.79Z"/><path class="cls-18" d="M102.3,284.84l1.4,1.52a.19.19,0,0,0,.19.05l3.09-.84a.19.19,0,0,0,.12-.24.22.22,0,0,0,0-.08l-1.57-1.32a.16.16,0,0,0-.16,0l-2.91.65a.18.18,0,0,0-.15.22A.12.12,0,0,0,102.3,284.84Z"/><path class="cls-18" d="M103.08,281.83l1.41,1.52a.2.2,0,0,0,.18.06l3.09-.85a.19.19,0,0,0,.13-.23.15.15,0,0,0-.06-.09l-1.57-1.32a.2.2,0,0,0-.15,0l-2.92.65a.18.18,0,0,0-.16.2A.23.23,0,0,0,103.08,281.83Z"/><path class="cls-18" d="M106.73,286.49l1.41,1.52a.14.14,0,0,0,.18.05l3.09-.83a.2.2,0,0,0,.13-.24.16.16,0,0,0-.06-.08l-1.57-1.33a.14.14,0,0,0-.15,0l-2.92.65a.18.18,0,0,0-.13.21Z"/><path class="cls-18" d="M102.44,287.66l1.34,1.45a.23.23,0,0,0,.23.07l3-.82a.22.22,0,0,0,.16-.27.24.24,0,0,0-.07-.12l-1.46-1.25a.24.24,0,0,0-.2-.06l-2.83.63a.24.24,0,0,0-.19.27A.42.42,0,0,0,102.44,287.66Z"/><path class="cls-18" d="M115.89,278.77l1.45,1.59a.16.16,0,0,0,.14.05l3.21-.88a.14.14,0,0,0,.09-.17.1.1,0,0,0,0-.07l-1.66-1.39a.11.11,0,0,0-.11,0l-3,.67a.13.13,0,0,0-.06.18Z"/><path class="cls-18" d="M115.3,281.64l1.4,1.53a.18.18,0,0,0,.18.05l3.1-.84a.19.19,0,0,0,.12-.24.22.22,0,0,0,0-.08l-1.57-1.33a.18.18,0,0,0-.16,0l-2.92.65a.19.19,0,0,0-.15.2A.13.13,0,0,0,115.3,281.64Z"/><path class="cls-18" d="M111.1,282.8l1.4,1.52a.19.19,0,0,0,.19.05l3.09-.85a.19.19,0,0,0,.13-.22.18.18,0,0,0-.06-.09l-1.57-1.33a.19.19,0,0,0-.16,0l-2.92.64a.18.18,0,0,0-.15.21A.19.19,0,0,0,111.1,282.8Z"/><path class="cls-18" d="M94.19,281.13l1.55,1.65a.18.18,0,0,0,.17.06l3.33-.77a.19.19,0,0,0,.15-.22.21.21,0,0,0-.06-.1l-1.75-1.64a.15.15,0,0,0-.17-.05l-3.13.78a.17.17,0,0,0-.14.2A.19.19,0,0,0,94.19,281.13Z"/><path class="cls-18" d="M89.74,282.23l1.46,1.56a.23.23,0,0,0,.22.08l3.22-.73a.23.23,0,0,0,.17-.27.27.27,0,0,0-.06-.12l-1.67-1.57a.21.21,0,0,0-.21-.06l-3,.73a.24.24,0,0,0-.14.3A.35.35,0,0,0,89.74,282.23Z"/><path class="cls-18" d="M85,285.91l1.1,1.78a.23.23,0,0,0,.24.1l3.73-.83a.24.24,0,0,0,.18-.29.25.25,0,0,0,0-.07L89,284.89a.21.21,0,0,0-.23-.09l-3.6.77a.24.24,0,0,0-.18.27Z"/><path class="cls-18" d="M60.57,286.56l3.68-.85a.21.21,0,0,1,.21.08l.65.85a.21.21,0,0,1,0,.3L65,287l-3.81.89a.23.23,0,0,1-.24-.1l-.51-.89a.21.21,0,0,1,.08-.29Z"/><path class="cls-18" d="M65.63,285.47l3.64-.85a.2.2,0,0,1,.22.08l.65.85a.22.22,0,0,1,0,.3l-.08,0-3.81.88a.21.21,0,0,1-.24-.1l-.51-.89a.2.2,0,0,1,.08-.28Z"/><path class="cls-18" d="M70.52,284.42l3.68-.85a.21.21,0,0,1,.22.08l.65.84a.22.22,0,0,1,0,.31l-.08,0-3.81.88a.19.19,0,0,1-.23-.1l-.52-.89a.21.21,0,0,1,.08-.29Z"/><path class="cls-18" d="M75.29,283.33l3.65-.85a.24.24,0,0,1,.21.08l.65.86a.21.21,0,0,1,0,.29l-.08,0-3.82.89a.21.21,0,0,1-.23-.1l-.52-.89a.22.22,0,0,1,.1-.29Z"/><path class="cls-18" d="M80.13,282.26l3.64-.84a.24.24,0,0,1,.24.08l.62.83a.23.23,0,0,1,0,.32l-.09,0-3.78.88a.23.23,0,0,1-.25-.11l-.5-.86a.24.24,0,0,1,.08-.31Z"/><path class="cls-18" d="M84.83,281.28l3.64-.85a.25.25,0,0,1,.24.09l.62.83a.21.21,0,0,1,0,.31.18.18,0,0,1-.09,0l-3.78.88a.24.24,0,0,1-.25-.1l-.5-.86a.24.24,0,0,1,.1-.32Z"/><path class="cls-18" d="M89.44,280.33l3.37-.83a.26.26,0,0,1,.22.07l.65.73a.23.23,0,0,1,0,.33.19.19,0,0,1-.09.05l-3.33.78a.2.2,0,0,1-.22-.06l-.73-.72a.24.24,0,0,1,.06-.32A.12.12,0,0,1,89.44,280.33Z"/><path class="cls-18" d="M93.9,279.28l3.48-.85a.24.24,0,0,1,.18.05l.73.77a.18.18,0,0,1,0,.25.14.14,0,0,1-.09.05l-3.43.86a.18.18,0,0,1-.18-.05l-.77-.78a.19.19,0,0,1,0-.26A.12.12,0,0,1,93.9,279.28Z"/><path class="cls-18" d="M98.37,278.24l3.47-.84a.17.17,0,0,1,.18.05l.73.76a.19.19,0,0,1,0,.26l-.09,0-3.43.86a.18.18,0,0,1-.18-.05l-.72-.78a.19.19,0,0,1,0-.26A.18.18,0,0,1,98.37,278.24Z"/><path class="cls-18" d="M102.83,277.33l3.47-.84a.17.17,0,0,1,.18.05l.73.76a.19.19,0,0,1,0,.26l-.08,0-3.4.87a.24.24,0,0,1-.18-.05l-.76-.78a.19.19,0,0,1,0-.26A.18.18,0,0,1,102.83,277.33Z"/><path class="cls-18" d="M107.05,276.32l3.58-.88a.12.12,0,0,1,.13,0l.8.85a.12.12,0,0,1,0,.19.09.09,0,0,1,0,0l-3.53.89a.18.18,0,0,1-.14,0l-.84-.86a.13.13,0,0,1,0-.19A.05.05,0,0,1,107.05,276.32Z"/><path class="cls-18" d="M111.32,275.4l3.59-.87a.11.11,0,0,1,.12,0l.8.84a.13.13,0,0,1,0,.19l-.07,0-3.53.88a.14.14,0,0,1-.14,0l-.84-.86a.12.12,0,0,1,0-.19Z"/><path class="cls-18" d="M115.58,274.42l3.32-.73a.13.13,0,0,1,.13.05l.64.79a.13.13,0,0,1,0,.19l-.05,0-3.11.83a.16.16,0,0,1-.13,0l-.85-.86a.13.13,0,0,1,0-.19A.15.15,0,0,1,115.58,274.42Z"/><path class="cls-18" d="M119.65,273.49l3.31-.73a.16.16,0,0,1,.14.05l.63.78a.14.14,0,0,1,0,.19l-.06,0-3.11.82a.12.12,0,0,1-.14,0l-.84-.85a.16.16,0,0,1,0-.2A.14.14,0,0,1,119.65,273.49Z"/><path class="cls-18" d="M63.15,290.93l1.22,1.75a.2.2,0,0,0,.22.08L71,291.27a.21.21,0,0,0,.17-.25.36.36,0,0,0,0-.09l-1.36-1.77a.2.2,0,0,0-.22-.08l-6.24,1.53a.22.22,0,0,0-.16.25A.16.16,0,0,0,63.15,290.93Z"/><path class="cls-18" d="M65.09,293.3l1.22,1.94a.23.23,0,0,0,.23.1l7.7-1.84a.2.2,0,0,0,.16-.25.13.13,0,0,0,0-.09l-1.52-1.89a.23.23,0,0,0-.22-.07L65.22,293a.21.21,0,0,0-.16.25Z"/><path class="cls-18" d="M66.82,295.87l1.46,2.1a.19.19,0,0,0,.22.08l10.2-2.52a.2.2,0,0,0,.16-.25.2.2,0,0,0,0-.08l-1.64-2.12A.22.22,0,0,0,77,293l-10.08,2.52a.22.22,0,0,0-.09.3Z"/><path class="cls-18" d="M90.17,293.57,92,295.81a.21.21,0,0,0,.22.07l22.45-5.59a.23.23,0,0,0,.16-.29.21.21,0,0,0-.06-.1l-2.28-2.27a.23.23,0,0,0-.22-.06l-22,5.62a.23.23,0,0,0-.16.29A.36.36,0,0,0,90.17,293.57Z"/><path class="cls-18" d="M113.34,287.76l2.19,2.18a.18.18,0,0,0,.18.05l4.6-1.23a.19.19,0,0,0,.13-.23.22.22,0,0,0,0-.08l-2.28-2.23a.17.17,0,0,0-.18-.05l-4.52,1.25a.2.2,0,0,0-.14.23A.21.21,0,0,0,113.34,287.76Z"/><path class="cls-18" d="M124.45,286.37l1,1.05a.14.14,0,0,0,.13,0l3.41-.91a.14.14,0,0,0,.09-.17.09.09,0,0,0,0-.06l-1.21-1.14a.15.15,0,0,0-.14,0l-3.19,1a.12.12,0,0,0-.09.17A.09.09,0,0,0,124.45,286.37Z"/><path class="cls-18" d="M127.35,284.1l1.19,1.25a.14.14,0,0,0,.15,0l3.12-1.08a.12.12,0,0,0,.09-.17s0,0,0-.06l-1.2-1a.13.13,0,0,0-.12,0l-3.16.88a.15.15,0,0,0,0,.19Z"/><path class="cls-18" d="M129.66,286.26l-.86-.69a.13.13,0,0,1-.05-.19.12.12,0,0,1,.05-.05l3.12-1.08a.15.15,0,0,1,.13,0l1,.95a.14.14,0,0,1,0,.2l-.05,0-3.23.83Z"/><path class="cls-18" d="M132.86,284.38c.27.26.72.77.91.94a.13.13,0,0,0,.14,0l3.25-.87a.14.14,0,0,0,.09-.17.16.16,0,0,0,0-.07l-1.15-1a.17.17,0,0,0-.14,0l-3,1a.14.14,0,0,0-.06.18Z"/><path class="cls-18" d="M123.75,282.29l1.73,1.68a.15.15,0,0,0,.13,0l8.37-2.19a.13.13,0,0,0,.1-.16.12.12,0,0,0,0-.08l-2-1.67a.13.13,0,0,0-.12,0l-8.07,2.18a.15.15,0,0,0-.11.17A.18.18,0,0,0,123.75,282.29Z"/><path class="cls-18" d="M123.18,279.71,125,281.3a.15.15,0,0,0,.13,0l6.29-1.46a.12.12,0,0,0,.1-.15.1.1,0,0,0-.05-.08l-2.06-1.73a.13.13,0,0,0-.12,0l-6,1.62a.15.15,0,0,0-.07.19Z"/><path class="cls-18" d="M123.76,277l1.69,1.52a.15.15,0,0,0,.13,0l3.22-.73a.13.13,0,0,0,.11-.15.1.1,0,0,0,0-.08l-2-1.73a.09.09,0,0,0-.12,0l-2.92.94a.12.12,0,0,0-.1.15A.1.1,0,0,0,123.76,277Z"/><path class="cls-18" d="M119.33,275.45l1.64,1.49a.11.11,0,0,0,.13,0l5.1-1.2a.15.15,0,0,0,.09-.18.13.13,0,0,0,0-.07l-2-1.63a.09.09,0,0,0-.12,0l-4.82,1.35a.14.14,0,0,0-.07.18A.1.1,0,0,0,119.33,275.45Z"/></g></g></svg>