<svg xmlns="http://www.w3.org/2000/svg" viewBox="0 0 98 98"><defs><style>.cls-1{fill:#edac29;}.cls-2{fill:#6a4027;}</style></defs><title>Asset 5</title><g id="Layer_2" data-name="Layer 2"><g id="Layer_2-2" data-name="Layer 2"><path class="cls-1" d="M84,98H14A14,14,0,0,1,0,84V14A14,14,0,0,1,14,0H84A14,14,0,0,1,98,14V84A14,14,0,0,1,84,98ZM14,8a6,6,0,0,0-6,6V84a6,6,0,0,0,6,6H84a6,6,0,0,0,6-6V14a6,6,0,0,0-6-6Z"/><rect class="cls-2" x="4" y="4" width="90" height="90" rx="10"/><path class="cls-1" d="M36.72,55.18,33.48,66.61H26.31L38.5,26.17h8.84L59.68,66.61H52.23L48.79,55.18ZM47.65,49.6l-3-10c-.73-2.5-1.36-5.25-1.93-7.6H42.6c-.56,2.37-1.14,5.17-1.81,7.58l-2.93,10Z"/><path class="cls-1" d="M70.66,29.23a3.88,3.88,0,1,1-7.76,0,3.88,3.88,0,1,1,7.76,0ZM63.31,66.61V37.4h6.94V66.61Z"/></g></g></svg>