<svg xmlns="http://www.w3.org/2000/svg" xmlns:xlink="http://www.w3.org/1999/xlink" viewBox="0 0 375.57 261.7"><defs><style>.cls-1{fill:#e2f4fd;}.cls-2{fill:#ffc713;}.cls-3{fill:#29aae1;}.cls-4,.cls-5{fill:none;stroke:#545562;stroke-miterlimit:10;}.cls-5{stroke-width:2px;}.cls-6{fill:#6466af;}.cls-7{fill:#e99323;}.cls-8{fill:#419cd6;}.cls-9{fill:url(#linear-gradient);}.cls-10{fill:#f8d5c6;}.cls-11{fill:#203f77;}.cls-12,.cls-15{fill:#010101;isolation:isolate;}.cls-12{opacity:0.1;}.cls-13{fill:#9965a8;}.cls-14{fill:#302e41;}.cls-15{opacity:0.05;}</style><linearGradient id="linear-gradient" x1="560.84" y1="616.81" x2="560.84" y2="447.4" gradientTransform="translate(-380.75 -384.03)" gradientUnits="userSpaceOnUse"><stop offset="0" stop-color="#818181" stop-opacity="0.25"/><stop offset="0.54" stop-color="#818181" stop-opacity="0.12"/><stop offset="1" stop-color="#818181" stop-opacity="0.1"/></linearGradient></defs><title>Asset 3</title><g id="Layer_2" data-name="Layer 2"><g id="Layer_2-2" data-name="Layer 2"><path class="cls-1" d="M351.62,69.36a81.68,81.68,0,0,0-13.3-21.19L153.83,46.35,305.73,25a86.11,86.11,0,0,0-30.82-6.11,86.39,86.39,0,0,0-103.19-3.49,85.94,85.94,0,0,0-39.49-9.53c-41,0-75.15,28.4-82.81,66.05Z"/><path class="cls-1" d="M358.11,100.94a79.64,79.64,0,0,0-5.75-29.8L32.61,104.7a80.39,80.39,0,0,0-7.48,18.92l99,14.76L22.87,149.14c3,42.62,39.58,76.27,84.21,76.27a85.42,85.42,0,0,0,58-22.43,85.47,85.47,0,0,0,58.5,22.88c33.7,0,62.78-19.18,76.32-46.92,27.17-8.62,48.28-30.28,55.5-57.36L230.19,102.16h127.9C358.1,101.75,358.11,101.34,358.11,100.94Z"/><path class="cls-2" d="M105,203.61c5.33-.4,10.64.58,15.73,1.65,30.53,6.31,61.76,15.33,93.54,12,16.86-1.78,32.71-7,49.8-7.3,28.95-.49,55.33,13.2,84.15,11.38,5.88-.37,13.08-1.08,16.64,1.81,4.13,3.38-.36,9.22,4.93,11.92,1.58.81,3.81,1.15,5,2.17,1.82,1.58.07,3.82-2.29,5.11-14.35,7.76-38.45-3.76-55.6,1.47-3.8,1.15-6.88,3.07-10.54,4.37-5.2,1.85-11.34,2.39-17.3,2.9l-91.24,7.84c-21.85,1.88-44,3.76-65.9,2.26s-44-6.76-58.33-17c-3.08-2.2-5.84-4.71-6.64-7.57C63.21,223.09,82.35,205.33,105,203.61Z"/><path class="cls-3" d="M10.51,184.46s-38.81,23.41,32.71,59.46c0,0,15.76-29.27-1.66-53.12a23.5,23.5,0,0,0-30.46-6.7Z"/><path class="cls-4" d="M11,184s33.21,25.39,32.28,60"/><path class="cls-5" d="M41.1,243.78s-12.16-41.32,2.3-71.68a65.16,65.16,0,0,0,5.27-40.91A109,109,0,0,0,42.88,112"/><path class="cls-6" d="M51.85,92.77c0,5.06-9.18,19.73-9.18,19.73s-9.18-14.67-9.18-19.73a9.18,9.18,0,0,1,18.32-1.22,8.28,8.28,0,0,1,0,1.22Z"/><path class="cls-6" d="M67,120.8c-2.75,4.24-18.42,11.58-18.42,11.58s.29-17.29,3-21.54a9.18,9.18,0,1,1,16,9,7.56,7.56,0,0,1-.65,1Z"/><path class="cls-6" d="M66.34,168.7c-4.52,2.29-21.75.7-21.75.7s9-14.78,13.5-17.06a9.18,9.18,0,0,1,8.25,16.36Z"/><path class="cls-6" d="M57.66,204.82c-4.07,3-21.31,4.37-21.31,4.37s6.34-16.07,10.41-19.1a9.18,9.18,0,1,1,11.83,14,8.83,8.83,0,0,1-.92.69Z"/><path class="cls-2" d="M29.34,133.36c3.63,3.52,20.54,7.18,20.54,7.18s-4.14-16.8-7.77-20.32a9.18,9.18,0,0,0-13.65,12.29A10.07,10.07,0,0,0,29.34,133.36Z"/><path class="cls-6" d="M19.75,175.74c4.52,2.3,21.74.71,21.74.71s-9-14.79-13.49-17.07a9.18,9.18,0,0,0-9.33,15.82,7.77,7.77,0,0,0,1.08.54Z"/><path class="cls-6" d="M16.08,218.22c4.07,3,21.31,4.36,21.31,4.36S31,206.52,27,203.48a9.18,9.18,0,0,0-11.84,14,10.16,10.16,0,0,0,.93.69Z"/><path class="cls-2" d="M51.85,92.77c0,5.06-9.18,19.73-9.18,19.73s-9.18-14.67-9.18-19.73a9.18,9.18,0,0,1,18.32-1.22,8.28,8.28,0,0,1,0,1.22Z"/><path class="cls-3" d="M67,120.8c-2.75,4.24-18.42,11.58-18.42,11.58s.29-17.29,3-21.54a9.18,9.18,0,1,1,16,9,7.56,7.56,0,0,1-.65,1Z"/><path class="cls-2" d="M66.34,168.7c-4.52,2.29-21.75.7-21.75.7s9-14.78,13.5-17.06a9.18,9.18,0,0,1,8.25,16.36Z"/><path class="cls-2" d="M57.66,204.82c-4.07,3-21.31,4.37-21.31,4.37s6.34-16.07,10.41-19.1a9.18,9.18,0,1,1,11.83,14,8.83,8.83,0,0,1-.92.69Z"/><path class="cls-3" d="M29.34,133.36c3.63,3.52,20.54,7.18,20.54,7.18s-4.14-16.8-7.77-20.32a9.18,9.18,0,0,0-13.65,12.29A10.07,10.07,0,0,0,29.34,133.36Z"/><path class="cls-2" d="M19.75,175.74c4.52,2.3,21.74.71,21.74.71s-9-14.79-13.49-17.07a9.18,9.18,0,0,0-9.33,15.82,7.77,7.77,0,0,0,1.08.54Z"/><path class="cls-2" d="M16.08,218.22c4.07,3,21.31,4.36,21.31,4.36S31,206.52,27,203.48a9.18,9.18,0,0,0-11.84,14,10.16,10.16,0,0,0,.93.69Z"/><path class="cls-5" d="M76.13,257.75S64,216.44,78.43,186.07a65.15,65.15,0,0,0,5.27-40.91A109.74,109.74,0,0,0,77.91,126"/><path class="cls-2" d="M86.88,106.75c0,5.06-9.18,19.74-9.18,19.74s-9.14-14.7-9.14-19.74a9.19,9.19,0,0,1,18.33,0Z"/><path class="cls-2" d="M102,134.78c-2.75,4.25-18.42,11.59-18.42,11.59s.29-17.3,3-21.54a9.18,9.18,0,1,1,16,9,11.61,11.61,0,0,1-.65,1Z"/><path class="cls-2" d="M101.37,182.68c-4.52,2.3-21.75.71-21.75.71s9-14.78,13.49-17.08a9.18,9.18,0,1,1,9.33,15.82,11.91,11.91,0,0,1-1.07.54Z"/><path class="cls-2" d="M88.29,205.25c-3.24,2.39-17,3.48-17,3.48s5.05-12.79,8.29-15.21a7.31,7.31,0,0,1,8.68,11.73Z"/><path class="cls-3" d="M64.37,147.37c3.63,3.53,20.54,7.18,20.54,7.18s-4.15-16.79-7.77-20.32a9.18,9.18,0,0,0-12.77,13.14Z"/><path class="cls-3" d="M54.79,189.73c4.52,2.3,21.74.71,21.74.71s-9-14.79-13.49-17.07a9.18,9.18,0,1,0-9.36,15.8A9.61,9.61,0,0,0,54.79,189.73Z"/><path class="cls-3" d="M51.1,232.2c4.07,3,21.31,4.37,21.31,4.37S66.07,220.5,62,217.46a9.18,9.18,0,0,0-11.83,14,8,8,0,0,0,.93.69Z"/><circle class="cls-7" cx="29.08" cy="38.19" r="25.14"/><path class="cls-8" d="M108.9,200.21c1-1.37,2.17-2.66,3.12-4.09a43.73,43.73,0,0,1,22.64-17.2,25.68,25.68,0,0,0,8.92-5.33c1-41.54,40.52-22.59,52.38-14,.67.48,1.34.94,2,1.39a18.32,18.32,0,0,0,13.54,3,48.48,48.48,0,0,1,29.39,4.21,91.6,91.6,0,0,0,8.72,3.89,26.15,26.15,0,0,0,32.3-12.89,152.47,152.47,0,0,0,6.56-16.1c2.57-7.13,4.48-14.45,9.07-20.79,2.33-3.22,3.54-7.27,5.17-11,.58-1.34.83-2.82,1.35-4.19,1.06-2.78,2-3,4.15-.84,1.09,1.09,2,2.37,3.06,3.5A4.77,4.77,0,0,0,313,111c2.17.87,4.5,1.4,6.57,2.46a15.3,15.3,0,0,0,9.27,1.52c1.86-.24,3.73-.43,5.59-.68a13,13,0,0,1,13.08,5.47c.63.85,1.21,1.75,1.85,2.59,2.54,3.34,3.21,6.52.22,10.17-2.1,2.58-3.4,3.3-6.39,1.74-1.08-.57-2.06-1.32-3.12-1.94-.48-.27-1.1-.7-1.53-.58-4.05,1.1-8.46,1.07-11.91,4.05-2.53,2.19-5.31,4.09-7.83,6.3a12.45,12.45,0,0,0-3,3.78q-5,10.37-9.75,20.86c-1.94,4.32-3.65,8.75-5.41,13.15-3.21,8.07-7,15.84-14.43,20.87-5.24,3.55-11,6.4-16.55,9.44-1.94,1.06-4.91,1.19-4.59,4.22s3.12,3.07,5.35,3.28c7.48.73,15,1.33,22.46,1.93,3.58.29,7.33.94,8.19,4.91a35.26,35.26,0,0,1,.24,10.86c-.24,2.31-2.37,3.68-4.68,4.15a24.81,24.81,0,0,1-4.86.49c-12.26,0-24.53,0-36.79,0-4.33,0-8.67.26-13,.14-4.73-.14-6.6-1.62-8-6.16-.86-2.89-1.35-5.89-2-8.83-.11-.5-.32-1-.56-1.7-.58.51-1,.81-1.29,1.14-9.51,9.15-20.92,13.68-34,14.14-11.48.4-22.41-2.05-33-6.17-2.64-1-5.24-2.16-8.16-3.38.17,1.13.3,1.91.41,2.69.71,5.09-1.71,11.82-8.5,12a211.12,211.12,0,0,1-21.79-.19c-4.07-.3-8-2.25-12-3-5.61-1.05-11.33-1.54-17-2.53-5.8-1-7.17-5.37-3.25-9.8,2.48-2.81,5.7-4.28,9.66-5.09C100.09,214.24,103.81,207,108.9,200.21Zm-1.45,22.64c.06.3.74.62,1.16.66,1.92.18,3.84.27,6.41.44L107.92,212l-.66.19A23,23,0,0,0,107.45,222.85Z"/><path class="cls-8" d="M191.53,159.54l14.8-11.48A44.38,44.38,0,0,1,215.7,142c3.05-1.33,6.56-1.94,9.7-.86,2.91,1,5.15,3.34,7,5.79a45.13,45.13,0,0,1,9,31.12,9,9,0,0,1-1,3.93c-1.32,2.19-4.05,3-6.58,3.42A34.51,34.51,0,0,1,196.13,163"/><path class="cls-9" d="M227.87,181.3c11-11.4,6.08-13.24,3.41-17.28-1.82-2.76-20.62-7.23-32.38-9.79-.07-1-.2-2.56-.31-4.49,0,0-.3-3.62-.27-6.1v-.06l.75.1V143l14.71,2c12.55,1.83,14.07-2.94,14.07-2.94,1.9-8.46-13.68-2.94-13.68-2.94-3.06.84-10.24-1.59-15.81-3.8a31.23,31.23,0,0,1,.42-3.74,28,28,0,0,0,.69-5.7,9.24,9.24,0,0,0-1-4.76,75.86,75.86,0,0,0-12.16-16.18A25.91,25.91,0,0,1,189,95.48a11.82,11.82,0,0,0,8.46-11.22,11.31,11.31,0,0,0-.53-3.42c3.26-3,3.16-9.11.16-13A8.41,8.41,0,0,0,196,66.63a11.64,11.64,0,0,0-7.63-3.24,21.3,21.3,0,0,0-9.31,1.91c-3.46,1.45-6.93,3.48-10.7,3.18-2.71-.21-5.3-1.63-8-1.3-3.5.44-5.84,3.64-7.5,6.65s-3.37,6.39-6.59,7.78c-2.8,1.2-6,.56-9.1.73-4.28.23-8.62,2.32-10.66,6A8.57,8.57,0,0,0,128,98.56a6.62,6.62,0,0,0,1.41,1.12,15.36,15.36,0,0,1,1.62,1,1.54,1.54,0,0,1,.42,1.12,3.28,3.28,0,0,1-.56,1.38,7.87,7.87,0,0,0-.64,6.24,4.1,4.1,0,0,0,1.21,1.93,2.59,2.59,0,0,0,.56.48c1.95,1.34,5-.26,6.93,1.08l.14.11c.78.91,1,2.25,1.56,3.33a6.11,6.11,0,0,0,1.45,1.86,9.1,9.1,0,0,0,6,2.54,22.59,22.59,0,0,0,8.42-1.66c3.57-1.23,7.56-3.07,8.49-6.63.57-2.16-.17-4.53.51-6.66a6.17,6.17,0,0,1,1.77-2.64,22.63,22.63,0,0,0-1.45,5.54,29.85,29.85,0,0,0-.31,4.63,33,33,0,0,0,2.07,11.84,49.1,49.1,0,0,1,3.28,15.46,19.83,19.83,0,0,1-1.17,6.79c-2.39,6.31-2.8,9.12-2.7,10.39-.09,1.64.42,1.75.42,1.75l.14-.06a8.35,8.35,0,0,0,1.73,6.32c15.21,9.92,50.55,6.62,50.55,6.62-7.22,1.12-15.58,18.74-15.58,18.74a26.41,26.41,0,0,1-7,10.18v-.07c-3.61-1.23-8.62,2-12.32,3.82l-.3.14a2.72,2.72,0,0,0-1.4,3.59,3.59,3.59,0,0,0,.17.34l10.24,16.56c6.44,6.67,10.66,7.82,12.13,6.55,1-.82.77-2.69-.73-4.72-3.64-4.93-.48-18.11-.21-19.22C208,204.34,218.6,190.87,227.87,181.3Z"/><path class="cls-10" d="M190.85,91.74s-5.5,8.07-4.4,16.15L173.6,97.61s4.77-.37,5.87-11.38Z"/><path class="cls-11" d="M189.39,151.93s37.79,7.71,40.37,11.75,7.34,5.87-3.31,17.25-23.12,28.25-23.12,28.25L194.52,203a26.05,26.05,0,0,0,9.18-12.11s8.08-17.62,15.05-18.72c0,0-34.13,3.3-48.81-6.61,0,0-3.68-4-.37-10.64S189.39,151.93,189.39,151.93Z"/><path class="cls-12" d="M177.64,98.71s-9-4.12-11.08,10.51a33.24,33.24,0,0,0,1.72,15.72c2.09,5.83,4.71,15.67,2,22.95-4,11-2.2,11.38-2.2,11.38l5.39-2a42.68,42.68,0,0,1,22.82-2l2.25.42s-1.47-17.18-.19-24.41c.61-3.44,1.28-6.6-.29-9.7C193.24,112,182.16,99.56,177.64,98.71Z"/><path class="cls-13" d="M177.64,98s-9-4.12-11.08,10.51a33.23,33.23,0,0,0,1.72,15.72c2.09,5.83,4.71,15.67,2,23-4,11-2.2,11.38-2.2,11.38l5.39-2a42.78,42.78,0,0,1,22.82-2.05l2.25.42s-1.47-17.18-.19-24.41c.61-3.44,1.28-6.6-.29-9.7C193.24,111.22,182.16,98.83,177.64,98Z"/><path class="cls-12" d="M171.92,109a6.93,6.93,0,0,1,11.73-.41,17.29,17.29,0,0,1,2.43,5.93c2.57,11,4.77,18,4.77,18a55.83,55.83,0,0,1,8.13,3.58c-.24,3.57-.34,7.29-.34,7.29l-12.19-1.73L173.6,118.87S169.27,113.71,171.92,109Z"/><path class="cls-10" d="M171.92,108.23a6.94,6.94,0,0,1,11.73-.4,17.29,17.29,0,0,1,2.43,5.93c2.57,11,4.77,18,4.77,18s17.25,8.44,22.38,7c0,0,15.05-5.5,13.2,2.94,0,0-1.47,4.77-13.58,2.94l-26.4-3.67L173.6,118.16S169.27,113,171.92,108.23Z"/><path class="cls-12" d="M177.45,90.82c.69-1.63,1.35-.82,1.66-3.86l11.38,5.51a27.36,27.36,0,0,0-1.93,3.47c-1.14.37-2.51,0-3.76,0C182,96,179.48,92.48,177.45,90.82Z"/><circle class="cls-10" cx="185.35" cy="84.03" r="11.75"/><path class="cls-12" d="M190.57,82.26c-2.06-.27-4.18-1.34-6.13-.6-2.23.85-3,3.63-3,6s.47,4.89-.51,7.07c-1.3,2.86-4.59,4.13-7.54,5.22s-6.21,2.63-7.15,5.63c-.66,2.13.05,4.48-.49,6.65-.9,3.56-4.75,5.39-8.21,6.62a21.11,21.11,0,0,1-8.11,1.65c-2.77-.15-5.64-1.52-6.84-4-.62-1.32-.83-3-2-3.8-1.87-1.35-4.81.26-6.69-1.08a3.86,3.86,0,0,1-1.32-2,8,8,0,0,1,.62-6.22,3.35,3.35,0,0,0,.57-1.38c.06-1.21-1.31-1.87-2.33-2.51-3.52-2.19-4.4-7.37-2.44-11s6.16-5.74,10.29-6c3-.17,6.08.46,8.79-.74,3.11-1.38,4.75-4.74,6.35-7.75s3.87-6.21,7.25-6.64c2.61-.34,5.11,1.09,7.73,1.3,3.63.29,7-1.72,10.33-3.19a20,20,0,0,1,9-1.9,10.81,10.81,0,0,1,8,4C200.9,73.24,199.3,83.43,190.57,82.26Z"/><path class="cls-14" d="M190.19,81.9c-2.06-.28-4.17-1.35-6.12-.61-2.23.85-3,3.63-3,6s.47,4.89-.52,7.07c-1.29,2.87-4.59,4.14-7.54,5.23s-6.2,2.62-7.14,5.62c-.67,2.13.05,4.49-.49,6.65-.9,3.56-4.76,5.39-8.21,6.62a21.38,21.38,0,0,1-8.11,1.66c-2.77-.15-5.65-1.53-6.84-4-.62-1.32-.83-3-2-3.8-1.87-1.35-4.81.26-6.69-1.08a3.86,3.86,0,0,1-1.32-2.05,8,8,0,0,1,.6-6.22,3.39,3.39,0,0,0,.57-1.39c.06-1.2-1.31-1.87-2.33-2.5-3.52-2.19-4.4-7.37-2.44-11s6.16-5.74,10.29-6c3-.17,6.08.46,8.79-.74,3.11-1.38,4.75-4.74,6.35-7.76s3.87-6.2,7.25-6.64c2.61-.33,5.11,1.09,7.73,1.31,3.63.29,7-1.73,10.33-3.19a19.76,19.76,0,0,1,9-1.9,10.79,10.79,0,0,1,8,4C200.52,72.88,198.93,83.06,190.19,81.9Z"/><path class="cls-12" d="M188.1,111.74s-15-1.83-15.78,8.81-2.94-12.84-2.94-12.84l7-5.17,8.11,2.6Z"/><path class="cls-13" d="M187.73,111.38s-15-1.84-15.78,8.8S169,107.34,169,107.34l7-5.16,8.07,2.57Z"/><path class="cls-8" d="M183.55,208.78l9.87,16.55c6.21,6.66,10.29,7.81,11.71,6.54.94-.82.75-2.68-.7-4.71-3.68-5.16-.19-19.27-.19-19.27-6.6-1.47-7.34-7-7.34-7-3.44-1.23-8.3,2-11.88,3.8l-.29.14a2.76,2.76,0,0,0-1.29,3.7h0Z"/><path class="cls-12" d="M204.25,207.9s-7.34-.37-7.34-7A9.14,9.14,0,0,0,204.25,207.9Z"/><path class="cls-12" d="M183.55,208.78l9.87,16.55c6.21,6.66,10.29,7.81,11.71,6.54-3.41-1.8-12.78-8.24-20.08-27.15l-.3.14a2.77,2.77,0,0,0-1.32,3.69h0Z"/><path class="cls-15" d="M139.13,191.86s10.33,13.3,14.3,24.15,1.48,13.8,1.48,13.8"/><path class="cls-15" d="M247.23,186.43s-10.33,13.31-14.3,24.15-1.48,13.8-1.48,13.8"/></g></g></svg>