<svg xmlns="http://www.w3.org/2000/svg" viewBox="0 0 98 98"><defs><style>.cls-1{fill:#e668a7;}.cls-2{fill:#5e3145;}</style></defs><title>Asset 9</title><g id="Layer_2" data-name="Layer 2"><g id="Layer_2-2" data-name="Layer 2"><path class="cls-1" d="M84,98H14A14,14,0,0,1,0,84V14A14,14,0,0,1,14,0H84A14,14,0,0,1,98,14V84A14,14,0,0,1,84,98ZM14,8a6,6,0,0,0-6,6V84a6,6,0,0,0,6,6H84a6,6,0,0,0,6-6V14a6,6,0,0,0-6-6Z"/><rect class="cls-2" x="4" y="4" width="90" height="90" rx="10"/><path class="cls-1" d="M37.29,26.17V66.61H30.35V26.17Z"/><path class="cls-1" d="M69,24V58.42c0,3,.1,6.21.23,8.19H63.08L62.77,62h-.13a9.68,9.68,0,0,1-8.91,5.28C47.18,67.27,42,61.32,42,52.34c0-9.78,5.7-15.6,12.3-15.6,3.76,0,6.47,1.65,7.69,3.81h.12V24ZM62.1,49.57a10.55,10.55,0,0,0-.16-1.93,6.2,6.2,0,0,0-6-5.18c-4.48,0-6.95,4.19-6.95,9.61s2.5,9.29,6.87,9.29a6.26,6.26,0,0,0,6-5.26A9.74,9.74,0,0,0,62.1,54Z"/></g></g></svg>