<svg xmlns="http://www.w3.org/2000/svg" viewBox="0 0 45.07 53.81"><defs><style>.cls-1{fill:#ffc713;}.cls-2{fill:#fff;}.cls-3{fill:#43a1da;}.cls-4{fill:none;stroke:#43a1da;stroke-linecap:round;stroke-linejoin:round;}</style></defs><title>Asset 14</title><g id="Layer_2" data-name="Layer 2"><g id="Layer_2-2" data-name="Layer 2"><circle class="cls-1" cx="22.53" cy="28.32" r="22.53"/><path class="cls-2" d="M39,41.1l-7.4-7.78-.06-5.2h0v-1h0l-.09-8.69h0V17h0v-.65c0-2.45-1-4.44-2.24-4.44-.71,0-1.34.64-1.75,1.64V8.65c0-4.53-2.17-8.21-4.84-8.21s-4.84,3.68-4.84,8.21v5.52c-.38-1.35-1.12-2.26-2-2.26-1.24,0-2.24,2-2.24,4.44v.87h0v1.17h0l0,3.86h0v1h0l0,4.19v.69h0l0,4.77L6,41.12a2.77,2.77,0,0,0-.18,3.64,2.74,2.74,0,0,0,2.14,1,37.5,37.5,0,0,1,5.74.57l0,7h4.79l0-3.59a2.33,2.33,0,0,0,1.24.36H22.2l0,2.3h1l-.05-2.3h2.51A2.16,2.16,0,0,0,27,49.59l0,3.77h4.79l-.08-7.22a23.33,23.33,0,0,1,5.34-.38,2.74,2.74,0,0,0,2-.82A2.78,2.78,0,0,0,39,41.1Z"/><path class="cls-3" d="M24.62,19.21a.54.54,0,0,1-.21-.05,3.58,3.58,0,0,0-3.58,0,.46.46,0,0,1-.21.05.89.89,0,0,1-.81-.52.91.91,0,0,1,.14-1l1.93-2.2a.9.9,0,0,1,.65-.31,1,1,0,0,1,.67.29l2.07,2.2a.86.86,0,0,1,.17,1A.88.88,0,0,1,24.62,19.21Zm-2.07-3.1-1.86,2.13a4.41,4.41,0,0,1,3.85,0Z"/><path class="cls-3" d="M22.69,34.53h-.25a.48.48,0,0,1-.32-.13.43.43,0,0,1-.12-.32l.09-6.24a.44.44,0,0,1,.44-.44h0a.45.45,0,0,1,.45.44l.15,6.24a.44.44,0,0,1-.44.45Z"/><path class="cls-4" d="M39,41.1l-7.4-7.78-.42-.44a10.76,10.76,0,0,1-2.8-5.57l-1-5.5-.5-2.87-2-11.44a2.78,2.78,0,0,0-4.81,0L18.07,18.57l-.33,1.74-1.33,7.17a10.79,10.79,0,0,1-2.68,5.32l-.08.09L6,41.12a2.77,2.77,0,0,0-.18,3.64,2.74,2.74,0,0,0,2.14,1,37.5,37.5,0,0,1,5.74.57c1.93.42,3.39,1.16,4,2.55a2,2,0,0,0,.78.89,2.33,2.33,0,0,0,1.24.36H22.2l.05-3,.19-13.06.09-6.24.16,6.24L23,47.16l.07,3h2.51A2.16,2.16,0,0,0,27,49.59a2.4,2.4,0,0,0,.57-.73,5.73,5.73,0,0,1,4.16-2.72,23.33,23.33,0,0,1,5.34-.38,2.74,2.74,0,0,0,2-.82A2.78,2.78,0,0,0,39,41.1ZM24.62,18.77a4,4,0,0,0-4,0,.44.44,0,0,1-.33-.74l1.92-2.21a.45.45,0,0,1,.66,0L25,18A.45.45,0,0,1,24.62,18.77Z"/><path class="cls-3" d="M27.44,46.71a.44.44,0,0,1-.44-.38,12.06,12.06,0,0,1,.84-4.88c1-3.05,0-9.24,0-9.3a.44.44,0,0,1,.37-.51.45.45,0,0,1,.51.37c0,.26,1,6.46,0,9.71a11.78,11.78,0,0,0-.8,4.48.44.44,0,0,1-.38.5Z"/><path class="cls-3" d="M17.72,46.71h-.06a.45.45,0,0,1-.37-.51,11.65,11.65,0,0,0-.81-4.47c-1.06-3.26-.05-9.46,0-9.72a.44.44,0,0,1,.51-.37.45.45,0,0,1,.37.51c0,.06-1,6.25,0,9.3a11.9,11.9,0,0,1,.83,4.88A.44.44,0,0,1,17.72,46.71Z"/><path class="cls-3" d="M22.53,26.66a.45.45,0,0,1-.44-.45V20.27a.45.45,0,0,1,.89,0v5.94A.45.45,0,0,1,22.53,26.66Z"/><path class="cls-3" d="M23.13,52.88h-1a.43.43,0,0,1-.32-.14.46.46,0,0,1-.13-.31L22,34.08a.44.44,0,0,1,.44-.44h.25a.45.45,0,0,1,.44.44l.45,18.34a.46.46,0,0,1-.13.32A.43.43,0,0,1,23.13,52.88Z"/><path class="cls-3" d="M22.69,34.53h-.25a.48.48,0,0,1-.32-.13.43.43,0,0,1-.12-.32l.09-6.24a.44.44,0,0,1,.44-.44h0a.45.45,0,0,1,.45.44l.15,6.24a.44.44,0,0,1-.44.45Z"/><path class="cls-3" d="M24.62,19.21a.54.54,0,0,1-.21-.05,3.58,3.58,0,0,0-3.58,0,.46.46,0,0,1-.21.05.89.89,0,0,1-.81-.52.91.91,0,0,1,.14-1l1.93-2.2a.9.9,0,0,1,.65-.31,1,1,0,0,1,.67.29l2.07,2.2a.86.86,0,0,1,.17,1A.88.88,0,0,1,24.62,19.21Zm-2.07-3.1-1.86,2.13a4.41,4.41,0,0,1,3.85,0Z"/><path class="cls-3" d="M27.42,40.58a.35.35,0,0,1-.2,0,7,7,0,0,0-3-.21.45.45,0,0,1-.5-.39.45.45,0,0,1,.39-.49,7.71,7.71,0,0,1,3.54.3.45.45,0,0,1,.2.6A.44.44,0,0,1,27.42,40.58Z"/><path class="cls-3" d="M17.74,40.58a.43.43,0,0,1-.39-.24.45.45,0,0,1,.19-.6,7.75,7.75,0,0,1,3.55-.3.44.44,0,0,1-.12.88,6.92,6.92,0,0,0-3,.21A.41.41,0,0,1,17.74,40.58Z"/><path class="cls-3" d="M8.21,42a.44.44,0,0,1-.33-.12.43.43,0,0,1,0-.62l5.19-5.62a.43.43,0,0,1,.62,0,.44.44,0,0,1,0,.62L8.51,41.88A.41.41,0,0,1,8.21,42Z"/><path class="cls-3" d="M15.59,45.61a.44.44,0,0,1-.32-.12c-.92-.83-5.08-1-7.49-.89a.44.44,0,0,1-.46-.42.45.45,0,0,1,.42-.47h0c.67,0,6.62-.23,8.12,1.12a.45.45,0,0,1,0,.63A.48.48,0,0,1,15.59,45.61Z"/><path class="cls-3" d="M33.81,43.41a2,2,0,0,1,0-4.09.45.45,0,1,1,0,.89A1.16,1.16,0,1,0,35,41.37a.45.45,0,1,1,.89,0A2,2,0,0,1,33.81,43.41Z"/><path class="cls-3" d="M17.3,30.64a.39.39,0,0,1-.29-.16.43.43,0,0,1,.06-.62A12.85,12.85,0,0,0,18,26.37a.45.45,0,0,1,.51-.37.44.44,0,0,1,.36.51c-.17,1-.65,3.54-1.25,4A.41.41,0,0,1,17.3,30.64Z"/><path class="cls-3" d="M20.05,8.43h0a.45.45,0,0,1-.43-.37,2.95,2.95,0,1,1,5.85-.51,1.88,1.88,0,0,1,0,.34.45.45,0,0,1-.43.4.45.45,0,0,1-.45-.37l0-.26a2.33,2.33,0,0,0-4,0l-.08.4A.45.45,0,0,1,20.05,8.43Zm2.46-2.94a2,2,0,0,0-1.3.46,3.34,3.34,0,0,1,2.54,0A2,2,0,0,0,22.51,5.49Z"/><path class="cls-3" d="M22.69,34.53h-.25a.48.48,0,0,1-.32-.13.43.43,0,0,1-.12-.32l.09-6.24a.44.44,0,0,1,.44-.44h0a.45.45,0,0,1,.45.44l.15,6.24a.44.44,0,0,1-.44.45Z"/><path class="cls-3" d="M24.62,19.21a.54.54,0,0,1-.21-.05,3.58,3.58,0,0,0-3.58,0,.46.46,0,0,1-.21.05.89.89,0,0,1-.81-.52.91.91,0,0,1,.14-1l1.93-2.2a.9.9,0,0,1,.65-.31,1,1,0,0,1,.67.29l2.07,2.2a.86.86,0,0,1,.17,1A.88.88,0,0,1,24.62,19.21Zm-2.07-3.1-1.86,2.13a4.41,4.41,0,0,1,3.85,0Z"/><path class="cls-3" d="M26.92,19.38a.43.43,0,0,1-.43-.37l-2-11.35a2.32,2.32,0,0,0-2-1.1h0a2.29,2.29,0,0,0-2,1.1l-2.06,11a.44.44,0,0,1-.88-.08l0-2.21a7.62,7.62,0,0,0-.27-2.07.23.23,0,0,1,0-.12V8.65C17.3,3.8,19.62,0,22.58,0s5.29,3.8,5.29,8.65v4.9a.47.47,0,0,1,0,.17,7.17,7.17,0,0,0-.47,2.63v2.58a.46.46,0,0,1-.41.45Zm-8.73-5.27c0,.2.1.41.14.62L19.7,7.42a.39.39,0,0,1,.05-.14,3.18,3.18,0,0,1,2.79-1.61h0a3.2,3.2,0,0,1,2.79,1.61.88.88,0,0,1,.05.15l1.25,7.23a7,7,0,0,1,.35-1.2V8.65c0-4.28-2-7.76-4.4-7.76s-4.39,3.48-4.39,7.76Zm9.23-.56h0Z"/><path class="cls-3" d="M31.6,33.76a.42.42,0,0,1-.32-.13l-.42-.44a11.19,11.19,0,0,1-2.92-5.8L26.49,19l0-2.66a7.9,7.9,0,0,1,.54-3c.5-1.21,1.29-1.91,2.16-1.91,1.51,0,2.69,2.14,2.69,4.88l.18,17a.42.42,0,0,1-.27.42A.51.51,0,0,1,31.6,33.76Zm-2.43-21.4c-.49,0-1,.51-1.34,1.36a7.17,7.17,0,0,0-.47,2.63v2.58l1.44,8.3a10.28,10.28,0,0,0,2.33,4.95L31,16.36C31,14,30,12.36,29.17,12.36Z"/><path class="cls-3" d="M31.82,53.81H27a.45.45,0,0,1-.45-.45V49.59a.49.49,0,0,1,.15-.34,2,2,0,0,0,.47-.59c.77-1.49,2.22-2.46,4.45-2.95a.44.44,0,0,1,.54.43l.08,7.22a.4.4,0,0,1-.13.31A.41.41,0,0,1,31.82,53.81Zm-4.35-.89h3.9l-.07-6.21A4.93,4.93,0,0,0,28,49.07a3,3,0,0,1-.52.71Z"/><path class="cls-3" d="M13.65,33.33a.41.41,0,0,1-.16,0,.44.44,0,0,1-.29-.41l-.11-16.54c0-2.74,1.18-4.88,2.69-4.88,1,0,1.93,1,2.39,2.58a8.52,8.52,0,0,1,.31,2.3l0,2.21a.28.28,0,0,1,0,.09l-1.66,8.91a11.23,11.23,0,0,1-2.78,5.54l-.08.09A.47.47,0,0,1,13.65,33.33Zm2.13-21c-.85,0-1.8,1.64-1.8,4l.1,15.33A10.19,10.19,0,0,0,16,27.39l1.65-8.86,0-2.17a7.62,7.62,0,0,0-.27-2.07C17,13.12,16.38,12.36,15.78,12.36Z"/><path class="cls-3" d="M18.58,53.81H13.79a.45.45,0,0,1-.45-.45l-.05-7a.42.42,0,0,1,.17-.34.41.41,0,0,1,.37-.09c2.32.49,3.7,1.39,4.33,2.8a1.54,1.54,0,0,0,.6.69.44.44,0,0,1,.21.37l.05,3.6a.42.42,0,0,1-.13.31A.41.41,0,0,1,18.58,53.81Zm-4.35-.89h3.9l0-2.92a2.33,2.33,0,0,1-.74-.94c-.46-1-1.47-1.72-3.16-2.17Z"/><path class="cls-3" d="M26.92,48.31l-.15,0A13.25,13.25,0,0,0,23,47.6a.45.45,0,0,1-.43-.46.47.47,0,0,1,.46-.43,14.09,14.09,0,0,1,4,.73.45.45,0,0,1-.14.87Z"/><path class="cls-3" d="M18.07,48.42a.45.45,0,0,1-.41-.26.45.45,0,0,1,.22-.59,11.84,11.84,0,0,1,4.36-.86.45.45,0,0,1,0,.89,11,11,0,0,0-4,.78A.39.39,0,0,1,18.07,48.42Z"/></g></g></svg>