<svg xmlns="http://www.w3.org/2000/svg" viewBox="0 0 105.34 105.34"><defs><style>.cls-1{fill:#ffbc00;}</style></defs><title>Asset 3</title><g id="Layer_2" data-name="Layer 2"><g id="Layer_1-2" data-name="Layer 1"><path class="cls-1" d="M42.19,12.12a2.07,2.07,0,0,0-1.45-.6,2,2,0,0,0-2.06,2.06,2.07,2.07,0,0,0,2.06,2.06A2,2,0,0,0,42.19,15a2.07,2.07,0,0,0,.6-1.45A2.11,2.11,0,0,0,42.19,12.12Z"/><path class="cls-1" d="M33.13,11.52H24.87a2.06,2.06,0,0,0,0,4.12h8.26a2.06,2.06,0,0,0,0-4.12Z"/><path class="cls-1" d="M34.78,23H24.87a2.06,2.06,0,0,0,0,4.12h9.91a2.06,2.06,0,0,0,0-4.12Z"/><path class="cls-1" d="M104.55,42.82h0L91,32.24l0,0V30a2.06,2.06,0,0,0-4.12,0V58s0,0,0,0l-17,17-2-1.79A22.5,22.5,0,0,0,57,67.78l5.34-5.34a2,2,0,0,0,0-2.91L55.4,52.61,85.52,39.77a2.06,2.06,0,0,0,.65-3.34l-9.84-9.84A8.61,8.61,0,0,0,77.61,22a8.74,8.74,0,0,0-13.3-7.47L54.48,4.73a2.08,2.08,0,0,0-1.85-.56,2.05,2.05,0,0,0-1.5,1.21L37.26,38,29.8,45.41a11.1,11.1,0,0,0,15.7,15.7l.79-.78,7,7h-.66a22.49,22.49,0,0,0-15.16,5.86l-2,1.79-17-17s0,0,0,0V4.11h23a2.06,2.06,0,0,0,0-4.11H16.46A2.06,2.06,0,0,0,14.4,2.06V31.89l-.05,0L.77,42.84h0A2,2,0,0,0,0,44.44V94.85a10.51,10.51,0,0,0,10.49,10.49H94.85a10.51,10.51,0,0,0,10.49-10.49V44.44A2.06,2.06,0,0,0,104.55,42.82ZM90.94,37.43l9.24,7.2-9.24,9.25Zm-22.07-20A4.63,4.63,0,0,1,73.5,22a4.54,4.54,0,0,1-.25,1.47l-5.86-5.86A4.59,4.59,0,0,1,68.87,17.41ZM53.72,9.8l9,9h0l9.45,9.46h0l9,9-4.37,1.87L51.86,14.17Zm-3.6,8.45L72.66,40.79,52.27,49.48,41.44,38.65Zm-7.53,40a7,7,0,1,1-9.88-9.88L39,42l9.88,9.88Zm6.61-.78,2.59-2.6L58,61l-2.6,2.6ZM14.4,37.17V53.88L5.13,44.61ZM7.68,100.32a1.29,1.29,0,0,0-.16.17,6.4,6.4,0,0,1-3.41-5.64V49.41L32.49,77.78Zm5.12.91,6.8-6.18H34.7a2.06,2.06,0,1,0,0-4.11H24.13L40.28,76.27a18.35,18.35,0,0,1,24.78,0l27.48,25Zm88.43-6.38a6.4,6.4,0,0,1-3.41,5.64,1.29,1.29,0,0,0-.16-.17L72.85,77.78l28.38-28.37Z"/><path class="cls-1" d="M90.42.68a2.06,2.06,0,0,0-2.91,0L79.2,9a2,2,0,0,0,0,2.9,2,2,0,0,0,1.45.61,2,2,0,0,0,1.46-.61l8.31-8.31A2.06,2.06,0,0,0,90.42.68Z"/><path class="cls-1" d="M72.92,0a2.06,2.06,0,0,0-2.06,2.06V6.19a2.06,2.06,0,0,0,4.12,0V2.06A2.06,2.06,0,0,0,72.92,0Z"/><path class="cls-1" d="M89,16H84.75a2.06,2.06,0,1,0,0,4.11H89A2.06,2.06,0,1,0,89,16Z"/><path class="cls-1" d="M44.59,91.54a2.06,2.06,0,1,0,.6,1.46A2.07,2.07,0,0,0,44.59,91.54Z"/></g></g></svg>