<svg xmlns="http://www.w3.org/2000/svg" viewBox="0 0 776.92 494.45"><defs><style>.cls-1{fill:#403d56;}.cls-2{fill:#27a8e0;opacity:0.17;}.cls-3{opacity:0.1;isolation:isolate;}.cls-4{fill:#d0cce1;}.cls-5{fill:#42a0d9;stroke:#020202;stroke-miterlimit:10;stroke-width:0.21px;}.cls-6{fill:#f2f2f2;}.cls-7{fill:#f06483;}.cls-8{fill:#ffc609;}.cls-9{fill:#f8b5b7;}.cls-10{fill:#66617d;}.cls-11{fill:#2f2e41;}</style></defs><title>header_svg</title><g id="Layer_2" data-name="Layer 2"><g id="Layer_1-2" data-name="Layer 1"><rect class="cls-1" x="33.73" y="370.22" width="588.44" height="2.09"/><rect class="cls-2" width="674.15" height="328.06"/><path class="cls-3" d="M674.15,25.24v-9H653.42V0h-9V16.22H29.74V0h-9V16.22H0v9H20.73V302.83H0v9H20.73v16.22h9V311.84H644.41v16.22h9V311.84h20.73v-9H653.42V25.24ZM644.41,302.83H29.74V25.24H644.41Z"/><rect class="cls-4" x="297.97" y="43.26" width="106.3" height="101.11"/><rect class="cls-5" x="310.05" y="55.34" width="82.14" height="62.81"/><rect class="cls-6" x="328.13" y="65.66" width="28.8" height="28.8"/><path class="cls-1" d="M339.15,72.86v35h35v-35Zm33.45,33.45H340.67V74.38H372.6Z"/><rect class="cls-6" x="309.97" y="124.39" width="44.68" height="2.35"/><circle class="cls-1" cx="351.12" cy="49.14" r="4.7"/><rect class="cls-4" x="338.06" y="189.1" width="106.3" height="101.11"/><rect class="cls-5" x="350.14" y="201.18" width="82.14" height="62.81"/><rect class="cls-6" x="350.06" y="271.4" width="44.68" height="2.35"/><rect class="cls-6" x="350.06" y="278.45" width="44.68" height="2.35"/><circle class="cls-1" cx="364.76" cy="232.6" r="9.41"/><circle class="cls-6" cx="391.21" cy="232.6" r="9.41"/><circle class="cls-7" cx="417.67" cy="232.6" r="9.41"/><circle class="cls-1" cx="391.21" cy="194.98" r="4.7"/><rect class="cls-4" x="175.38" y="157.5" width="106.3" height="101.11"/><rect class="cls-5" x="187.46" y="169.58" width="82.14" height="62.81"/><circle class="cls-6" cx="223.06" cy="208.33" r="19.94"/><path class="cls-1" d="M228.94,223.71a25,25,0,1,1,25-25A25,25,0,0,1,228.94,223.71Zm0-49.09A24.09,24.09,0,1,0,253,198.71h0A24.11,24.11,0,0,0,228.94,174.62Z"/><rect class="cls-6" x="187.38" y="245.68" width="44.68" height="2.35"/><rect class="cls-6" x="187.38" y="238.63" width="62.31" height="2.35"/><circle class="cls-1" cx="228.53" cy="163.38" r="4.7"/><rect class="cls-4" x="58.55" y="41.46" width="106.3" height="101.11"/><rect class="cls-5" x="70.63" y="53.54" width="82.14" height="62.81"/><rect class="cls-1" x="102.86" y="102.71" width="17.67" height="5.24"/><rect class="cls-1" x="81.5" y="61.94" width="60.4" height="2.24"/><rect class="cls-1" x="81.5" y="69.05" width="60.4" height="2.24"/><rect class="cls-1" x="81.5" y="76.15" width="60.4" height="2.24"/><rect class="cls-1" x="81.5" y="83.26" width="60.4" height="2.24"/><rect class="cls-1" x="81.5" y="90.37" width="60.4" height="2.24"/><rect class="cls-6" x="70.55" y="122.58" width="44.68" height="2.35"/><rect class="cls-6" x="70.55" y="128.46" width="62.31" height="2.35"/><circle class="cls-1" cx="111.7" cy="47.34" r="4.7"/><path class="cls-4" d="M490.55,107.51l77,5.66,21.77,1.6L588,113.42,592,172.56l2,29.57c.09,1.19.17,2.39.25,3.58.07,1,.34,1.95-.84,2.2-2.34.48-4.77.69-7.14,1-4.82.6-9.65,1.12-14.49,1.53a367.3,367.3,0,0,1-58.21.37q-7.27-.54-14.51-1.36c-1.79-.2-4-.28-4.68-2.29a39.58,39.58,0,0,1-1.09-6.59q-2-14.38-2.79-28.93a332.24,332.24,0,0,1,2.05-57.88c.29-2.35.61-4.69.95-7,.25-1.7-2.36-2.43-2.61-.72a335.71,335.71,0,0,0-3.34,59.94q.53,15,2.41,30c.32,2.52.66,5,1,7.54.29,2,.37,4.36,1.55,6.07s3.08,2.19,5,2.44c2.41.32,4.83.55,7.25.79a366,366,0,0,0,60.41.89q7.59-.51,15.17-1.34,3.74-.41,7.45-.9c1.21-.15,2.43-.32,3.64-.49a16.67,16.67,0,0,0,3.35-.58c2.28-.82,2.28-3,2.13-5.07l-.52-7.61-1.06-15.24L591.18,121l-.53-7.61a1.38,1.38,0,0,0-1.35-1.35l-77-5.66-21.77-1.6c-1.74-.13-1.73,2.58,0,2.7Z"/><path class="cls-8" d="M523.54,139.43c.39-1-.59,1.19-.1.21.13-.26.25-.52.39-.78a15.31,15.31,0,0,1,.92-1.49c.33-.47.83-.66-.15.17q.3-.31.57-.66a19.57,19.57,0,0,1,1.46-1.42c.37-.31,1.07-.59-.18.12.25-.14.48-.35.71-.51.49-.33,1-.63,1.51-.91q.39-.21.78-.39c.45-.22,1.2-.29-.21.07.6-.16,1.19-.44,1.8-.62s1-.27,1.57-.37,1.32,0-.29,0c.29,0,.59-.06.87-.08a17.08,17.08,0,0,1,1.75,0l.87.06c1,.06-1.46-.27,0,0a13.94,13.94,0,0,1,1.69.43,8.15,8.15,0,0,0,.83.29l-.75-.33.55.25a14,14,0,0,1,1.55.88l.74.5c.77.52-1-.89.06.07.37.33.72.67,1.06,1s.41.44.6.66c.32.38.57,1.07-.1-.17.62,1.14,1.39,2.16,2,3.33.5,1-.45-1.24-.07-.19.1.28.21.56.3.85a17.9,17.9,0,0,1,.5,1.73c.14.59.21,1.19.34,1.77-.35-1.61-.1-.68-.06-.24s.05.8.06,1.2,0,1,0,1.5c0,.3-.08.61-.08.9,0-1.52.11-.76,0-.25a17.8,17.8,0,0,1-.42,1.75c-.09.28-.18.57-.28.85s-.19.5-.29.75c.29-.68.31-.74.07-.19-1.49,3-3.35,5.77-4.82,8.77a40,40,0,0,0-3.51,24.09,5.42,5.42,0,0,0,2.49,3.23,5.5,5.5,0,0,0,4.16.55c3-1,4.25-3.65,3.78-6.66-.16-1,.09,1,0-.12,0-.45-.09-.91-.13-1.37-.06-.91-.09-1.83-.07-2.75s0-1.57.11-2.36a7,7,0,0,1,.14-1.37s-.17,1.09-.06.46c0-.25.09-.52.13-.77a32.39,32.39,0,0,1,1.35-5.14c.13-.37.27-.74.41-1.11.36-1-.38.79.06-.16s.79-1.67,1.23-2.48c1.86-3.42,4-6.63,5.32-10.31a21.39,21.39,0,0,0,1.2-9c-.5-6.3-3.17-12.7-8.16-16.79a21.26,21.26,0,0,0-18.8-4.28,22.47,22.47,0,0,0-15.76,14c-1,2.65,1.11,6,3.78,6.65a5.56,5.56,0,0,0,6.65-3.78Z"/><path class="cls-8" d="M542.43,203.86a4.5,4.5,0,1,0-4.49-4.49A4.5,4.5,0,0,0,542.43,203.86Z"/><rect class="cls-5" x="29.81" y="361.09" width="25.24" height="25.24"/><path class="cls-1" d="M70.37,371.91H39.72V341.26H70.37Zm-29.31-1.34H69v-28h-28Z"/><path class="cls-9" d="M616.92,224.87l-3.6,10.81s-22.54,26.14-6.31,29.75,18-27.94,18-27.94l4.51-9Z"/><path class="cls-5" d="M642.16,94.18s-5.41-.9-7.21,20.73-2.71,59.49-2.71,59.49l-20.73,53.17,26.14,8.11,12.62-60.38Z"/><polygon class="cls-9" points="630.44 415.94 627.74 433.06 652.07 433.06 651.17 415.94 630.44 415.94"/><polygon class="cls-9" points="708.85 434.87 707.05 458.3 723.27 460.1 723.27 433.06 708.85 434.87"/><path class="cls-10" d="M640.35,192.42l-20.72,119L625,419.54H653V321.3l27-50.47,21.63,63.09,5.41,105.45L737.69,434l-7.21-102.74s-5.41-137-10.81-138.8S640.35,192.42,640.35,192.42Z"/><path class="cls-11" d="M633.14,427.65s0-9-7.21-3.6-16.22,15.32-16.22,15.32S575.46,458.3,599.8,461a51.08,51.08,0,0,0,39.65-12.62l2.71,2.71s14.42-2.71,14.42-6.31a71.6,71.6,0,0,0-.9-9s-1.9-15.29-4.11-12.15S636.75,433.06,633.14,427.65Z"/><path class="cls-11" d="M724.17,452.89s-16.22-8.11-19.82-.9S698,473.62,698,473.62s-11.72,22.53,9,20.73,19.83-13.52,19.83-16.22-.9-9,0-11.72S724.17,452.89,724.17,452.89Z"/><circle class="cls-9" cx="688.57" cy="33.35" r="25.24"/><polygon class="cls-9" points="671.9 45.51 671 77.96 703.44 75.26 703.44 45.51 671.9 45.51"/><path class="cls-4" d="M705.25,59S689.92,69,685.42,70.75,671,63.54,671,63.54s-2.71,1.8-2.71,3.6-1.8,9-1.8,9l-21.63,71.2,1.8,50.47s65.8,6.31,73-1.8-3.61-124.38-3.61-124.38Z"/><path class="cls-3" d="M700.74,78s-24.33,9-32.45.9C668.29,78.86,680,81.57,700.74,78Z"/><path class="cls-5" d="M764.73,273.54c-9.91,6.31-42.36,14.42-42.36,14.42s-3.54-76.3-16.22-88.33S673,101.3,691.47,86.29a2.75,2.75,0,0,1,.26-.22l11.71-27s1.81-2.7,5.41.9A97.45,97.45,0,0,1,717,69.85l.52.21,24.72,9.7-9.92,44.17S774.64,267.23,764.73,273.54Z"/><path class="cls-3" d="M717.48,70.06l-6.83,25-19.18-8.79a2.75,2.75,0,0,1,.26-.22l11.71-27s1.81-2.7,5.41.9A97.45,97.45,0,0,1,717,69.85Z"/><path class="cls-5" d="M670.55,63.09l-2.71,30.64-.14,1.4-20.59,196s-18-6.31-24.33-13.52,14.42-87.42,14.42-87.42L639,89.23S655,78,661.53,71.79c1.53-1.45,2.54-2.61,2.71-3.29C665.14,64.89,670.55,63.09,670.55,63.09Z"/><path class="cls-3" d="M670.55,63.09l-2.71,30.64-.14,1.4-12.92-1.85,6.75-21.49c1.53-1.45,2.54-2.61,2.71-3.29C665.14,64.89,670.55,63.09,670.55,63.09Z"/><path class="cls-9" d="M718.77,215l-9.92,9s4.51,18.92,9.92,19.82c0,0,3.6-5.4,4.5-9.91s9-9,9-9Z"/><path class="cls-5" d="M730.48,78l11.72,1.8S781,145.56,776.45,169s-40.56,64-40.56,64l-22.53-18,33.35-45.06-17.13-54.08Z"/><path class="cls-11" d="M663.28,36.18s0-22.25,5.41-27.31h6.49s7.57-11.13,17.3-7.08,26,11.12,24.88,22.25a61,61,0,0,1-4.45,18.32s-1.81,0-5.82-6c-5.37-8.08,7-5.56-9.2-8.6s-26-7.08-28.12-3S663.28,36.18,663.28,36.18Z"/><path class="cls-11" d="M675.07,10.38s.87-6.51,4.42-7.91Z"/><path class="cls-11" d="M675.06,11.72s-1.81-6.31.89-9Z"/></g></g></svg>