<svg width="112" height="112" viewBox="0 0 112 112" fill="none" xmlns="http://www.w3.org/2000/svg">
<g clip-path="url(#clip0)">
<path d="M81.6898 104.18C73.9898 108.31 65.1798 110.65 55.8298 110.65C25.5598 110.65 1.00977 86.1 1.00977 55.83C1.00977 25.56 25.5598 1 55.8398 1C86.1198 1 110.67 25.55 110.67 55.83C110.67 62.24 109.57 68.4 107.54 74.12" stroke="url(#paint0_linear)" stroke-width="2" stroke-miterlimit="10"/>
<path d="M97.6598 102.72C104.839 102.72 110.66 96.8997 110.66 89.72C110.66 82.5403 104.839 76.72 97.6598 76.72C90.4801 76.72 84.6598 82.5403 84.6598 89.72C84.6598 96.8997 90.4801 102.72 97.6598 102.72Z" stroke="url(#paint1_linear)" stroke-width="2" stroke-miterlimit="10"/>
<path d="M105.81 89.72L99.4398 93.39L93.0698 97.07V89.72V82.36L99.4398 86.04L105.81 89.72Z" fill="#39B54A"/>
<path d="M84.8498 32.87H26.8198C26.3498 32.87 25.9698 33.25 25.9698 33.72V69.64C25.9698 70.11 26.3498 70.49 26.8198 70.49H30.9698C31.4398 70.49 31.8198 70.11 31.8198 69.64C31.8198 69.17 31.4398 68.79 30.9698 68.79H27.6798V40.1H33.7398C34.2098 40.1 34.5898 39.72 34.5898 39.25C34.5898 38.78 34.2098 38.4 33.7398 38.4H27.6798V34.57H84.0098V38.4H46.1598C45.6898 38.4 45.3098 38.78 45.3098 39.25C45.3098 39.72 45.6898 40.1 46.1598 40.1H83.9898V68.79H43.3898C42.9198 68.79 42.5398 69.17 42.5398 69.64C42.5398 70.11 42.9198 70.49 43.3898 70.49H47.7398L45.5398 77.08H33.7298C33.2598 77.08 32.8798 77.46 32.8798 77.93C32.8798 78.4 33.2598 78.78 33.7298 78.78H77.9398C78.4098 78.78 78.7898 78.4 78.7898 77.93C78.7898 77.46 78.4098 77.08 77.9398 77.08H66.1198L63.9198 70.49H84.8498C85.3198 70.49 85.6998 70.11 85.6998 69.64V33.72C85.6998 33.25 85.3198 32.87 84.8498 32.87ZM64.3298 77.08H47.3398L49.5398 70.49H62.1298L64.3298 77.08Z" fill="url(#paint2_linear)"/>
<path d="M40.6398 40.1C41.1098 40.1 41.4898 39.72 41.4898 39.25C41.4898 38.78 41.1098 38.4 40.6398 38.4H39.2598C38.7898 38.4 38.4098 38.78 38.4098 39.25C38.4098 39.72 38.7898 40.1 39.2598 40.1H40.6398Z" fill="#FFC709"/>
<path d="M73.1198 45.62L57.2198 61.53L50.9098 55.22C50.7398 55.05 50.5298 54.97 50.3098 54.97C50.0898 54.97 49.8698 55.05 49.7098 55.22L35.8898 69.04C35.5598 69.37 35.5598 69.91 35.8898 70.24C36.2098 70.56 36.7698 70.56 37.0898 70.24L50.3098 57.03L56.6198 63.34C56.9498 63.67 57.4898 63.67 57.8198 63.34L74.3298 46.83V51.69C74.3298 52.16 74.7098 52.54 75.1798 52.54C75.6498 52.54 76.0298 52.16 76.0298 51.69V44.78C76.0298 44.31 75.6498 43.93 75.1798 43.93H68.2698C67.7998 43.93 67.4198 44.31 67.4198 44.78C67.4198 45.25 67.7998 45.63 68.2698 45.63H73.1198V45.62Z" fill="#FFC709"/>
</g>
<defs>
<linearGradient id="paint0_linear" x1="0.00976562" y1="55.8253" x2="111.66" y2="55.8253" gradientUnits="userSpaceOnUse">
<stop stop-color="#29ABE2"/>
<stop offset="0.1045" stop-color="#37A7DE"/>
<stop offset="0.2753" stop-color="#4F9BD4"/>
<stop offset="0.4909" stop-color="#6786C4"/>
<stop offset="0.743" stop-color="#7C6AAF"/>
<stop offset="1" stop-color="#8D4098"/>
</linearGradient>
<linearGradient id="paint1_linear" x1="83.6665" y1="89.7163" x2="111.66" y2="89.7163" gradientUnits="userSpaceOnUse">
<stop stop-color="#29ABE2"/>
<stop offset="0.1045" stop-color="#37A7DE"/>
<stop offset="0.2753" stop-color="#4F9BD4"/>
<stop offset="0.4909" stop-color="#6786C4"/>
<stop offset="0.743" stop-color="#7C6AAF"/>
<stop offset="1" stop-color="#8D4098"/>
</linearGradient>
<linearGradient id="paint2_linear" x1="25.9702" y1="55.8253" x2="85.7001" y2="55.8253" gradientUnits="userSpaceOnUse">
<stop stop-color="#29ABE2"/>
<stop offset="0.1045" stop-color="#37A7DE"/>
<stop offset="0.2753" stop-color="#4F9BD4"/>
<stop offset="0.4909" stop-color="#6786C4"/>
<stop offset="0.743" stop-color="#7C6AAF"/>
<stop offset="1" stop-color="#8D4098"/>
</linearGradient>
<clipPath id="clip0">
<rect width="111.65" height="111.65" fill="white" transform="translate(0.00976562)"/>
</clipPath>
</defs>
</svg>
