<svg width="112" height="112" viewBox="0 0 112 112" fill="none" xmlns="http://www.w3.org/2000/svg">
<g clip-path="url(#clip0)">
<g clip-path="url(#clip1)">
<path d="M81.7098 104.2C74.0098 108.3 65.2098 110.7 55.8098 110.7C25.5098 110.7 1.00977 86.1 1.00977 55.8C1.00977 25.5 25.5098 1 55.8098 1C86.1098 1 110.61 25.5 110.61 55.8C110.61 62.2 109.51 68.4 107.51 74.1" stroke="url(#paint0_linear)" stroke-width="2" stroke-miterlimit="10"/>
<path d="M97.7098 102.7C104.889 102.7 110.71 96.8797 110.71 89.7C110.71 82.5203 104.889 76.7 97.7098 76.7C90.5301 76.7 84.7098 82.5203 84.7098 89.7C84.7098 96.8797 90.5301 102.7 97.7098 102.7Z" stroke="url(#paint1_linear)" stroke-width="2" stroke-miterlimit="10"/>
<path d="M105.81 89.7L99.4098 93.4L93.1098 97.1V89.7V82.4L99.4098 86L105.81 89.7Z" fill="#39B54A"/>
<path d="M64.0098 64L59.0098 35.7C58.9098 35.4 58.6098 35.2 58.3098 35.2C58.0098 35.3 57.8098 35.6 57.8098 35.9L62.8098 64.2C62.9098 64.5 63.1098 64.7 63.4098 64.7H63.5098C63.9098 64.6 64.1098 64.3 64.0098 64Z" fill="url(#paint2_linear)"/>
<path d="M67.0098 67.1L60.8098 31.7C60.7098 31.4 60.4098 31.2 60.1098 31.2L57.7098 31.6C57.6098 31.6 57.5098 31.7 57.5098 31.7C57.4098 31.7 57.4098 31.8 57.4098 31.8C57.3098 31.9 57.3098 32 57.3098 32.1V32.2C58.2098 37.6 42.1098 43.3 35.8098 45.1L27.0098 46.7C26.9098 46.4 26.6098 46.2 26.3098 46.2L23.9098 46.6C23.6098 46.7 23.4098 47 23.4098 47.3L22.8098 47.4C22.8098 47.4 22.8098 47.4 22.7098 47.4C22.7098 47.4 22.7098 47.4 22.6098 47.4L14.8098 51.2C14.6098 51.3 14.4098 51.6 14.5098 51.8L16.6098 63.6C16.6098 63.9 16.9098 64.1 17.1098 64.1L25.8098 65C25.8098 65 25.8098 65 25.9098 65H26.0098L38.8098 63C48.1098 63.2 62.9098 64.7 63.5098 67.8C63.6098 68.1 63.8098 68.3 64.1098 68.3H64.2098L66.6098 67.9C66.7098 67.9 66.8098 67.8 66.9098 67.7L67.0098 67.6C67.0098 67.5 67.1098 67.3 67.0098 67.1ZM15.7098 52.3L22.4098 49L24.1098 58.8L25.0098 64L17.6098 63.2L15.7098 52.3ZM38.8098 61.8H38.7098L26.3098 64L23.6098 48.6L36.0098 46.4C36.1098 46.4 41.9098 44.7 47.5098 42.2C54.8098 38.9 58.5098 35.7 58.4098 32.7L59.6098 32.5L65.6098 66.7L64.5098 67C62.2098 62.5 42.8098 61.9 38.8098 61.8Z" fill="url(#paint3_linear)"/>
<path d="M36.9098 48.1C36.8098 47.8 36.5098 47.6 36.2098 47.6C35.9098 47.7 35.7098 48 35.7098 48.3L37.8098 60.1C37.9098 60.4 38.1098 60.6 38.4098 60.6H38.5098C38.8098 60.5 39.0098 60.2 39.0098 59.9L36.9098 48.1Z" fill="url(#paint4_linear)"/>
<path d="M21.4098 52.6C21.7098 52.4 21.8098 52.1 21.6098 51.8C21.4098 51.5 21.1098 51.4 20.8098 51.6L17.5098 53.4C17.2098 53.6 17.1098 53.9 17.3098 54.2C17.4098 54.4 17.6098 54.5 17.8098 54.5C17.9098 54.5 18.0098 54.5 18.1098 54.4L21.4098 52.6Z" fill="#FFC709"/>
<path d="M22.9098 60.9L19.1098 60.3C18.8098 60.3 18.5098 60.5 18.4098 60.8C18.4098 61.1 18.6098 61.4 18.9098 61.5L22.7098 62.1H22.8098C23.1098 62.1 23.3098 61.9 23.4098 61.6C23.5098 61.3 23.2098 61 22.9098 60.9Z" fill="#FFC709"/>
<path d="M22.1098 57.4C22.4098 57.3 22.6098 57 22.6098 56.7C22.5098 56.4 22.2098 56.2 21.9098 56.2L18.4098 56.8C18.1098 56.9 17.9098 57.2 17.9098 57.5C18.0098 57.8 18.2098 58 18.5098 58H18.6098L22.1098 57.4Z" fill="#FFC709"/>
<path d="M44.6098 81.4L43.9098 81.5L38.0098 68.4C37.9098 68.1 37.5098 68 37.2098 68.1C36.9098 68.2 36.8098 68.6 36.9098 68.9L42.6098 81.7L36.7098 82.7L30.8098 69.6C30.7098 69.3 30.3098 69.2 30.0098 69.3C29.7098 69.4 29.6098 69.8 29.7098 70.1L35.6098 83L35.2098 83.1C34.9098 83.2 34.7098 83.5 34.7098 83.8C34.8098 84.1 35.0098 84.3 35.3098 84.3H35.4098L36.6098 84.1L43.7098 82.9L44.9098 82.7C45.2098 82.6 45.4098 82.3 45.4098 82C45.2098 81.6 44.9098 81.4 44.6098 81.4Z" fill="url(#paint5_linear)"/>
<path d="M39.8098 66.5C39.8098 66.5 39.8098 66.4 39.8098 66.5C39.8098 66.4 39.8098 66.4 39.8098 66.5C39.9098 66.4 39.9098 66.4 40.0098 66.3C40.0098 66.2 40.0098 66.1 40.0098 66V65.9L39.8098 64.7C39.7098 64.4 39.4098 64.2 39.1098 64.2C38.8098 64.3 38.6098 64.6 38.6098 64.9L38.7098 65.5L28.1098 67.3L28.0098 66.6C27.9098 66.3 27.6098 66 27.3098 66.1C27.0098 66.2 26.8098 66.5 26.8098 66.8L27.0098 68.1V68.2C27.0098 68.2 27.0098 68.2 27.0098 68.3C27.0098 68.3 27.0098 68.4 27.1098 68.4C27.2098 68.5 27.3098 68.6 27.4098 68.6H27.5098H27.6098L39.4098 66.6C39.6098 66.5 39.7098 66.5 39.8098 66.5Z" fill="url(#paint6_linear)"/>
<path d="M69.0098 26.7C69.3098 26.7 69.6098 26.4 69.6098 26.1C69.6098 25.8 69.3098 25.5 69.0098 25.5C68.7098 25.5 68.4098 25.8 68.4098 26.1C68.4098 26.5 68.7098 26.7 69.0098 26.7Z" fill="url(#paint7_linear)"/>
<path d="M72.6098 26.7C72.9098 26.7 73.2098 26.4 73.2098 26.1C73.2098 25.8 72.9098 25.5 72.6098 25.5C72.3098 25.5 72.0098 25.8 72.0098 26.1C72.0098 26.5 72.3098 26.7 72.6098 26.7Z" fill="url(#paint8_linear)"/>
<path d="M78.6098 61.5C74.3098 61.5 70.8098 65 70.8098 69.3C70.8098 73.6 74.3098 77.1 78.6098 77.1C82.9098 77.1 86.4098 73.6 86.4098 69.3C86.4098 65 82.9098 61.5 78.6098 61.5ZM78.6098 75.9C75.0098 75.9 72.0098 72.9 72.0098 69.3C72.0098 65.7 75.0098 62.7 78.6098 62.7C82.2098 62.7 85.2098 65.7 85.2098 69.3C85.2098 72.9 82.2098 75.9 78.6098 75.9Z" fill="url(#paint9_linear)"/>
<path d="M70.8098 33.9C74.1098 33.9 76.8098 31.2 76.8098 27.9C76.8098 24.6 74.1098 21.9 70.8098 21.9C67.5098 21.9 64.8098 24.6 64.8098 27.9C64.8098 31.2 67.5098 33.9 70.8098 33.9ZM70.8098 23.1C73.4098 23.1 75.6098 25.3 75.6098 27.9C75.6098 30.5 73.4098 32.7 70.8098 32.7C68.2098 32.7 66.0098 30.5 66.0098 27.9C66.0098 25.3 68.1098 23.1 70.8098 23.1Z" fill="url(#paint10_linear)"/>
<path d="M80.4098 36.3C74.4098 36.3 69.6098 41.1 69.6098 47.1C69.6098 53.1 74.4098 57.9 80.4098 57.9C86.3098 57.9 91.2098 53.1 91.2098 47.1C91.2098 41.2 86.3098 36.3 80.4098 36.3ZM80.4098 56.7C75.1098 56.7 70.8098 52.4 70.8098 47.1C70.8098 41.8 75.1098 37.5 80.4098 37.5C85.7098 37.5 90.0098 41.8 90.0098 47.1C90.0098 52.4 85.7098 56.7 80.4098 56.7Z" fill="url(#paint11_linear)"/>
<path d="M80.2098 66.1C79.6098 66.1 79.1098 66.3 78.6098 66.7C78.1098 66.3 77.6098 66.1 77.0098 66.1C75.6098 66.1 74.4098 67.3 74.4098 68.7C74.4098 71.9 78.2098 73.6 78.4098 73.6C78.5098 73.6 78.6098 73.7 78.6098 73.7C78.7098 73.7 78.8098 73.7 78.8098 73.6C79.0098 73.5 82.8098 71.8 82.8098 68.7C82.8098 67.3 81.6098 66.1 80.2098 66.1ZM78.6098 72.4C77.8098 72 75.6098 70.7 75.6098 68.7C75.6098 67.9 76.2098 67.3 77.0098 67.3C77.4098 67.3 77.8098 67.5 78.1098 67.9C78.2098 68.1 78.4098 68.1 78.6098 68.1C78.8098 68.1 79.0098 68 79.1098 67.9C79.4098 67.5 79.8098 67.3 80.2098 67.3C81.0098 67.3 81.6098 67.9 81.6098 68.7C81.6098 70.7 79.3098 72 78.6098 72.4Z" fill="url(#paint12_linear)"/>
<path d="M84.6098 44.7H84.0098V41.7C84.0098 41.4 83.7098 41.1 83.4098 41.1H82.2098C82.0098 41.1 81.7098 41.2 81.6098 41.5C81.6098 41.5 80.7098 43.8 79.4098 44.9C78.8098 45.4 78.3098 45.6 78.0098 45.8V45.4C78.0098 45.1 77.7098 44.8 77.4098 44.8H73.8098C73.5098 44.8 73.2098 45.1 73.2098 45.4V51.4C73.2098 51.7 73.5098 52 73.8098 52H77.4098C77.7098 52 78.0098 51.7 78.0098 51.4V50.8H78.4098L79.4098 51.8C79.5098 51.9 79.7098 52 79.8098 52H84.6098C84.8098 52 84.9098 51.9 85.0098 51.8C86.4098 50.4 86.4098 46.4 85.0098 45C84.9098 44.8 84.8098 44.7 84.6098 44.7ZM76.8098 50.7H74.4098V45.9H76.8098V50.7Z" fill="url(#paint13_linear)"/>
<path d="M70.8098 31.5C72.7098 31.5 73.2098 30.3 73.2098 29.7C73.2098 29.4 72.9098 29.1 72.6098 29.1C72.3098 29.1 72.0098 29.3 72.0098 29.7C72.0098 29.8 71.9098 30.3 70.8098 30.3C69.7098 30.3 69.6098 29.8 69.6098 29.7C69.6098 29.4 69.3098 29.1 69.0098 29.1C68.7098 29.1 68.4098 29.4 68.4098 29.7C68.4098 30.4 68.9098 31.5 70.8098 31.5Z" fill="#FFC709"/>
<path d="M84.6098 23.7H85.8098V24.9C85.8098 25.2 86.1098 25.5 86.4098 25.5C86.7098 25.5 87.0098 25.2 87.0098 24.9V23.7H88.2098C88.5098 23.7 88.8098 23.4 88.8098 23.1C88.8098 22.8 88.5098 22.5 88.2098 22.5H87.0098V21.3C87.0098 21 86.7098 20.7 86.4098 20.7C86.1098 20.7 85.8098 21 85.8098 21.3V22.5H84.6098C84.3098 22.5 84.0098 22.8 84.0098 23.1C84.0098 23.4 84.3098 23.7 84.6098 23.7Z" fill="#FFC709"/>
<path d="M91.2098 23.1C91.2098 20.5 89.0098 18.3 86.4098 18.3C83.8098 18.3 81.6098 20.5 81.6098 23.1V25.5C81.6098 28.1 83.8098 30.3 86.4098 30.3C89.0098 30.3 91.2098 28.1 91.2098 25.5V23.1ZM86.4098 19.5C88.4098 19.5 90.0098 21.1 90.0098 23.1C90.0098 25.1 88.4098 26.7 86.4098 26.7C84.4098 26.7 82.8098 25.1 82.8098 23.1C82.8098 21.1 84.4098 19.5 86.4098 19.5ZM86.4098 29.1C84.7098 29.1 83.3098 27.9 82.9098 26.4C83.8098 27.3 85.0098 27.9 86.4098 27.9C87.8098 27.9 89.0098 27.3 89.9098 26.4C89.5098 28 88.1098 29.1 86.4098 29.1Z" fill="url(#paint14_linear)"/>
<path d="M84.3098 50.7H80.0098L79.0098 49.7C78.9098 49.6 78.7098 49.5 78.6098 49.5H78.0098V47C78.5098 46.9 79.3098 46.5 80.2098 45.8C81.4098 44.8 82.3098 43.1 82.6098 42.3H82.8098V45.3C82.8098 45.6 83.1098 45.9 83.4098 45.9H84.3098C85.1098 47 85.1098 49.7 84.3098 50.7Z" fill="#FFC709"/>
<path d="M78.6098 72.4C77.8098 72 75.6098 70.7 75.6098 68.7C75.6098 67.9 76.2098 67.3 77.0098 67.3C77.4098 67.3 77.8098 67.5 78.1098 67.9C78.2098 68.1 78.4098 68.1 78.6098 68.1C78.8098 68.1 79.0098 68 79.1098 67.9C79.4098 67.5 79.8098 67.3 80.2098 67.3C81.0098 67.3 81.6098 67.9 81.6098 68.7C81.6098 70.7 79.3098 72 78.6098 72.4Z" fill="#FFC709"/>
</g>
</g>
<defs>
<linearGradient id="paint0_linear" x1="0.00976566" y1="55.8253" x2="111.66" y2="55.8253" gradientUnits="userSpaceOnUse">
<stop stop-color="#29ABE2"/>
<stop offset="0.1045" stop-color="#37A7DE"/>
<stop offset="0.2753" stop-color="#4F9BD4"/>
<stop offset="0.4909" stop-color="#6786C4"/>
<stop offset="0.743" stop-color="#7C6AAF"/>
<stop offset="1" stop-color="#8D4098"/>
</linearGradient>
<linearGradient id="paint1_linear" x1="83.6665" y1="89.7163" x2="111.66" y2="89.7163" gradientUnits="userSpaceOnUse">
<stop stop-color="#29ABE2"/>
<stop offset="0.1045" stop-color="#37A7DE"/>
<stop offset="0.2753" stop-color="#4F9BD4"/>
<stop offset="0.4909" stop-color="#6786C4"/>
<stop offset="0.743" stop-color="#7C6AAF"/>
<stop offset="1" stop-color="#8D4098"/>
</linearGradient>
<linearGradient id="paint2_linear" x1="57.8689" y1="49.9398" x2="64.0659" y2="49.9398" gradientUnits="userSpaceOnUse">
<stop stop-color="#29ABE2"/>
<stop offset="0.1045" stop-color="#37A7DE"/>
<stop offset="0.2753" stop-color="#4F9BD4"/>
<stop offset="0.4909" stop-color="#6786C4"/>
<stop offset="0.743" stop-color="#7C6AAF"/>
<stop offset="1" stop-color="#8D4098"/>
</linearGradient>
<linearGradient id="paint3_linear" x1="14.4531" y1="49.7317" x2="67.052" y2="49.7317" gradientUnits="userSpaceOnUse">
<stop stop-color="#29ABE2"/>
<stop offset="0.1045" stop-color="#37A7DE"/>
<stop offset="0.2753" stop-color="#4F9BD4"/>
<stop offset="0.4909" stop-color="#6786C4"/>
<stop offset="0.743" stop-color="#7C6AAF"/>
<stop offset="1" stop-color="#8D4098"/>
</linearGradient>
<linearGradient id="paint4_linear" x1="35.7091" y1="54.1046" x2="38.9903" y2="54.1046" gradientUnits="userSpaceOnUse">
<stop stop-color="#29ABE2"/>
<stop offset="0.1045" stop-color="#37A7DE"/>
<stop offset="0.2753" stop-color="#4F9BD4"/>
<stop offset="0.4909" stop-color="#6786C4"/>
<stop offset="0.743" stop-color="#7C6AAF"/>
<stop offset="1" stop-color="#8D4098"/>
</linearGradient>
<linearGradient id="paint5_linear" x1="29.8011" y1="76.194" x2="45.3076" y2="76.194" gradientUnits="userSpaceOnUse">
<stop stop-color="#29ABE2"/>
<stop offset="0.1045" stop-color="#37A7DE"/>
<stop offset="0.2753" stop-color="#4F9BD4"/>
<stop offset="0.4909" stop-color="#6786C4"/>
<stop offset="0.743" stop-color="#7C6AAF"/>
<stop offset="1" stop-color="#8D4098"/>
</linearGradient>
<linearGradient id="paint6_linear" x1="26.7895" y1="66.3831" x2="40.0379" y2="66.3831" gradientUnits="userSpaceOnUse">
<stop stop-color="#29ABE2"/>
<stop offset="0.1045" stop-color="#37A7DE"/>
<stop offset="0.2753" stop-color="#4F9BD4"/>
<stop offset="0.4909" stop-color="#6786C4"/>
<stop offset="0.743" stop-color="#7C6AAF"/>
<stop offset="1" stop-color="#8D4098"/>
</linearGradient>
<linearGradient id="paint7_linear" x1="68.4047" y1="26.1388" x2="69.6098" y2="26.1388" gradientUnits="userSpaceOnUse">
<stop stop-color="#29ABE2"/>
<stop offset="0.1045" stop-color="#37A7DE"/>
<stop offset="0.2753" stop-color="#4F9BD4"/>
<stop offset="0.4909" stop-color="#6786C4"/>
<stop offset="0.743" stop-color="#7C6AAF"/>
<stop offset="1" stop-color="#8D4098"/>
</linearGradient>
<linearGradient id="paint8_linear" x1="72.002" y1="26.1388" x2="73.2069" y2="26.1388" gradientUnits="userSpaceOnUse">
<stop stop-color="#29ABE2"/>
<stop offset="0.1045" stop-color="#37A7DE"/>
<stop offset="0.2753" stop-color="#4F9BD4"/>
<stop offset="0.4909" stop-color="#6786C4"/>
<stop offset="0.743" stop-color="#7C6AAF"/>
<stop offset="1" stop-color="#8D4098"/>
</linearGradient>
<linearGradient id="paint9_linear" x1="70.7736" y1="69.3073" x2="86.362" y2="69.3073" gradientUnits="userSpaceOnUse">
<stop stop-color="#29ABE2"/>
<stop offset="0.1045" stop-color="#37A7DE"/>
<stop offset="0.2753" stop-color="#4F9BD4"/>
<stop offset="0.4909" stop-color="#6786C4"/>
<stop offset="0.743" stop-color="#7C6AAF"/>
<stop offset="1" stop-color="#8D4098"/>
</linearGradient>
<linearGradient id="paint10_linear" x1="64.7782" y1="27.9376" x2="76.769" y2="27.9376" gradientUnits="userSpaceOnUse">
<stop stop-color="#29ABE2"/>
<stop offset="0.1045" stop-color="#37A7DE"/>
<stop offset="0.2753" stop-color="#4F9BD4"/>
<stop offset="0.4909" stop-color="#6786C4"/>
<stop offset="0.743" stop-color="#7C6AAF"/>
<stop offset="1" stop-color="#8D4098"/>
</linearGradient>
<linearGradient id="paint11_linear" x1="69.612" y1="47.1237" x2="91.1959" y2="47.1237" gradientUnits="userSpaceOnUse">
<stop stop-color="#29ABE2"/>
<stop offset="0.1045" stop-color="#37A7DE"/>
<stop offset="0.2753" stop-color="#4F9BD4"/>
<stop offset="0.4909" stop-color="#6786C4"/>
<stop offset="0.743" stop-color="#7C6AAF"/>
<stop offset="1" stop-color="#8D4098"/>
</linearGradient>
<linearGradient id="paint12_linear" x1="74.3711" y1="69.9057" x2="82.7646" y2="69.9057" gradientUnits="userSpaceOnUse">
<stop stop-color="#29ABE2"/>
<stop offset="0.1045" stop-color="#37A7DE"/>
<stop offset="0.2753" stop-color="#4F9BD4"/>
<stop offset="0.4909" stop-color="#6786C4"/>
<stop offset="0.743" stop-color="#7C6AAF"/>
<stop offset="1" stop-color="#8D4098"/>
</linearGradient>
<linearGradient id="paint13_linear" x1="73.2093" y1="46.5237" x2="86.1041" y2="46.5237" gradientUnits="userSpaceOnUse">
<stop stop-color="#29ABE2"/>
<stop offset="0.1045" stop-color="#37A7DE"/>
<stop offset="0.2753" stop-color="#4F9BD4"/>
<stop offset="0.4909" stop-color="#6786C4"/>
<stop offset="0.743" stop-color="#7C6AAF"/>
<stop offset="1" stop-color="#8D4098"/>
</linearGradient>
<linearGradient id="paint14_linear" x1="81.603" y1="24.3181" x2="91.1959" y2="24.3181" gradientUnits="userSpaceOnUse">
<stop stop-color="#29ABE2"/>
<stop offset="0.1045" stop-color="#37A7DE"/>
<stop offset="0.2753" stop-color="#4F9BD4"/>
<stop offset="0.4909" stop-color="#6786C4"/>
<stop offset="0.743" stop-color="#7C6AAF"/>
<stop offset="1" stop-color="#8D4098"/>
</linearGradient>
<clipPath id="clip0">
<rect width="111.65" height="111.65" fill="white" transform="translate(0.00976562)"/>
</clipPath>
<clipPath id="clip1">
<rect width="111.7" height="111.7" fill="white" transform="translate(0.00976562)"/>
</clipPath>
</defs>
</svg>
