<svg width="112" height="112" viewBox="0 0 112 112" fill="none" xmlns="http://www.w3.org/2000/svg">
<g clip-path="url(#clip0)">
<path d="M81.7098 104.2C74.0098 108.3 65.2098 110.7 55.8098 110.7C25.5098 110.7 1.00977 86.1 1.00977 55.8C1.00977 25.5 25.5098 1 55.8098 1C86.1098 1 110.61 25.5 110.61 55.8C110.61 62.2 109.51 68.4 107.51 74.1" stroke="url(#paint0_linear)" stroke-width="2" stroke-miterlimit="10"/>
<path d="M97.7098 102.7C104.889 102.7 110.71 96.8797 110.71 89.7C110.71 82.5203 104.889 76.7 97.7098 76.7C90.5301 76.7 84.7098 82.5203 84.7098 89.7C84.7098 96.8797 90.5301 102.7 97.7098 102.7Z" stroke="url(#paint1_linear)" stroke-width="2" stroke-miterlimit="10"/>
<path d="M105.81 89.7L99.4098 93.4L93.1098 97.1V89.7V82.4L99.4098 86L105.81 89.7Z" fill="#39B54A"/>
<path d="M80.0098 33.3H67.9098V29.7C67.9098 29.4 67.6098 29.1 67.3098 29.1C67.0098 29.1 66.7098 29.4 66.7098 29.7V33.3H44.9098V29.7C44.9098 29.4 44.6098 29.1 44.3098 29.1C44.0098 29.1 43.7098 29.4 43.7098 29.7V33.3H31.6098C31.3098 33.3 31.0098 33.6 31.0098 33.9V67.6C31.0098 67.6 31.0098 67.6 31.0098 67.7C31.0098 67.7 31.0098 67.7 31.0098 67.6V67.7V78.2C31.0098 78.5 31.3098 78.8 31.6098 78.8H80.0098C80.3098 78.8 80.6098 78.5 80.6098 78.2V67.7C80.6098 67.7 80.6098 67.7 80.6098 67.6C80.6098 67.6 80.6098 67.6 80.6098 67.7V67.6V33.9C80.6098 33.5 80.3098 33.3 80.0098 33.3ZM67.3098 40.5C67.6098 40.5 67.9098 40.2 67.9098 39.9V37.6C68.9098 37.9 69.7098 38.8 69.7098 39.9C69.7098 41.2 68.7098 42.2 67.4098 42.2C66.1098 42.2 65.1098 41.1 65.1098 39.9C65.1098 38.8 65.8098 37.9 66.9098 37.6V39.9C66.7098 40.2 67.0098 40.5 67.3098 40.5ZM44.3098 40.5C44.6098 40.5 44.9098 40.2 44.9098 39.9V37.6C45.9098 37.9 46.7098 38.8 46.7098 39.9C46.7098 41.2 45.6098 42.2 44.4098 42.2C43.1098 42.2 42.1098 41.1 42.1098 39.9C42.1098 38.8 42.8098 37.9 43.9098 37.6V39.9C43.8098 40.2 44.0098 40.5 44.3098 40.5ZM32.2098 34.4H43.7098V36.4C42.0098 36.7 40.8098 38.1 40.8098 39.9C40.8098 41.8 42.4098 43.4 44.3098 43.4C46.2098 43.4 47.8098 41.8 47.8098 39.9C47.8098 38.2 46.5098 36.7 44.9098 36.4V34.4H66.7098V36.4C65.0098 36.7 63.8098 38.1 63.8098 39.9C63.8098 41.8 65.4098 43.4 67.3098 43.4C69.2098 43.4 70.8098 41.8 70.8098 39.9C70.8098 38.2 69.5098 36.7 67.9098 36.4V34.4H79.4098V45.7H32.2098V34.4ZM79.4098 56.4H68.5098V46.9H79.4098V56.4ZM68.5098 67V57.6H79.4098V67H68.5098ZM43.1098 77.6H32.2098V68.2H43.1098V77.6ZM43.1098 67H32.2098V57.6H43.1098V67ZM43.1098 56.4H32.2098V46.9H43.1098V56.4ZM55.2098 77.6H44.3098V68.2H55.2098C55.2098 68.5 55.2098 77.6 55.2098 77.6ZM55.2098 67H44.3098V57.6H55.2098C55.2098 57.6 55.2098 66.7 55.2098 67ZM55.2098 56.4H44.3098V46.9H55.2098V56.4ZM67.3098 77.6H56.4098V68.2H67.3098V77.6ZM67.3098 67H56.4098V57.6H67.3098V67ZM67.3098 56.4H56.4098V46.9H67.3098V56.4ZM68.5098 77.6V68.2H79.4098V77.6H68.5098Z" fill="url(#paint2_linear)"/>
<path d="M35.2098 62.3C36.1098 62.3 36.9098 61.5 36.9098 60.6C36.9098 59.7 36.1098 58.9 35.2098 58.9C34.3098 58.9 33.5098 59.7 33.5098 60.6C33.5098 61.5 34.2098 62.3 35.2098 62.3ZM35.2098 60C35.5098 60 35.7098 60.2 35.7098 60.5C35.7098 60.8 35.5098 61 35.2098 61C34.9098 61 34.7098 60.8 34.7098 60.5C34.6098 60.3 34.9098 60 35.2098 60Z" fill="url(#paint3_linear)"/>
<path d="M38.3098 61.2H41.0098C41.3098 61.2 41.6098 60.9 41.6098 60.6C41.6098 60.3 41.3098 60 41.0098 60H38.3098C38.0098 60 37.7098 60.3 37.7098 60.6C37.7098 60.9 38.0098 61.2 38.3098 61.2Z" fill="#FFC709"/>
<path d="M47.3098 51.5C48.2098 51.5 49.0098 50.7 49.0098 49.8C49.0098 48.9 48.2098 48.1 47.3098 48.1C46.4098 48.1 45.6098 48.9 45.6098 49.8C45.6098 50.7 46.3098 51.5 47.3098 51.5ZM47.3098 49.3C47.6098 49.3 47.8098 49.5 47.8098 49.8C47.8098 50.1 47.6098 50.3 47.3098 50.3C47.0098 50.3 46.8098 50.1 46.8098 49.8C46.8098 49.5 47.0098 49.3 47.3098 49.3Z" fill="url(#paint4_linear)"/>
<path d="M50.4098 50.4H53.1098C53.4098 50.4 53.7098 50.0999 53.7098 49.7999C53.7098 49.4999 53.4098 49.2 53.1098 49.2H50.4098C50.1098 49.2 49.8098 49.4999 49.8098 49.7999C49.9098 50.1999 50.1098 50.4 50.4098 50.4Z" fill="#FFC709"/>
<path d="M59.5098 73.1C60.4098 73.1 61.2098 72.3 61.2098 71.4C61.2098 70.5 60.4098 69.7 59.5098 69.7C58.6098 69.7 57.8098 70.5 57.8098 71.4C57.8098 72.3 58.6098 73.1 59.5098 73.1ZM59.5098 70.9C59.8098 70.9 60.0098 71.1 60.0098 71.4C60.0098 71.7 59.8098 71.9 59.5098 71.9C59.2098 71.9 59.0098 71.7 59.0098 71.4C59.0098 71.1 59.2098 70.9 59.5098 70.9Z" fill="url(#paint5_linear)"/>
<path d="M62.7098 72H65.4098C65.7098 72 66.0098 71.7 66.0098 71.4C66.0098 71.1 65.7098 70.8 65.4098 70.8H62.7098C62.4098 70.8 62.1098 71.1 62.1098 71.4C62.1098 71.7 62.3098 72 62.7098 72Z" fill="#FFC709"/>
<path d="M71.6098 58.9C70.7098 58.9 69.9098 59.7 69.9098 60.6C69.9098 61.5 70.7098 62.3 71.6098 62.3C72.5098 62.3 73.3098 61.5 73.3098 60.6C73.3098 59.6 72.5098 58.9 71.6098 58.9ZM71.6098 61.1C71.3098 61.1 71.1098 60.9 71.1098 60.6C71.1098 60.3 71.3098 60.1 71.6098 60.1C71.9098 60.1 72.1098 60.3 72.1098 60.6C72.1098 60.9 71.9098 61.1 71.6098 61.1Z" fill="url(#paint6_linear)"/>
<path d="M77.5098 60H74.8098C74.5098 60 74.2098 60.3 74.2098 60.6C74.2098 60.9 74.5098 61.2 74.8098 61.2H77.5098C77.8098 61.2 78.1098 60.9 78.1098 60.6C78.1098 60.2 77.8098 60 77.5098 60Z" fill="url(#paint7_linear)"/>
<path d="M59.5098 62.3C60.4098 62.3 61.2098 61.5 61.2098 60.6C61.2098 59.7 60.4098 58.9 59.5098 58.9C58.6098 58.9 57.8098 59.7 57.8098 60.6C57.8098 61.5 58.6098 62.3 59.5098 62.3ZM59.5098 60C59.8098 60 60.0098 60.2 60.0098 60.5C60.0098 60.8 59.8098 61 59.5098 61C59.2098 61 59.0098 60.9 59.0098 60.6C59.0098 60.3 59.2098 60 59.5098 60Z" fill="url(#paint8_linear)"/>
<path d="M62.7098 61.2H65.4098C65.7098 61.2 66.0098 60.9 66.0098 60.6C66.0098 60.3 65.7098 60 65.4098 60H62.7098C62.4098 60 62.1098 60.3 62.1098 60.6C62.1098 60.9 62.3098 61.2 62.7098 61.2Z" fill="url(#paint9_linear)"/>
<path d="M67.3098 40.5C67.6098 40.5 67.9098 40.2 67.9098 39.9V37.6C68.9098 37.9 69.7098 38.8 69.7098 39.9C69.7098 41.2 68.7098 42.2 67.4098 42.2C66.1098 42.2 65.1098 41.1 65.1098 39.9C65.1098 38.8 65.8098 37.9 66.9098 37.6V39.9C66.7098 40.2 67.0098 40.5 67.3098 40.5Z" fill="#FFC709"/>
<path d="M44.3098 40.5C44.6098 40.5 44.9098 40.2 44.9098 39.9V37.6C45.9098 37.9 46.7098 38.8 46.7098 39.9C46.7098 41.2 45.6098 42.2 44.4098 42.2C43.1098 42.2 42.1098 41.1 42.1098 39.9C42.1098 38.8 42.8098 37.9 43.9098 37.6V39.9C43.8098 40.2 44.0098 40.5 44.3098 40.5Z" fill="#FFC709"/>
</g>
<defs>
<linearGradient id="paint0_linear" x1="0.00976566" y1="55.8253" x2="111.66" y2="55.8253" gradientUnits="userSpaceOnUse">
<stop stop-color="#29ABE2"/>
<stop offset="0.1045" stop-color="#37A7DE"/>
<stop offset="0.2753" stop-color="#4F9BD4"/>
<stop offset="0.4909" stop-color="#6786C4"/>
<stop offset="0.743" stop-color="#7C6AAF"/>
<stop offset="1" stop-color="#8D4098"/>
</linearGradient>
<linearGradient id="paint1_linear" x1="83.6665" y1="89.7163" x2="111.66" y2="89.7163" gradientUnits="userSpaceOnUse">
<stop stop-color="#29ABE2"/>
<stop offset="0.1045" stop-color="#37A7DE"/>
<stop offset="0.2753" stop-color="#4F9BD4"/>
<stop offset="0.4909" stop-color="#6786C4"/>
<stop offset="0.743" stop-color="#7C6AAF"/>
<stop offset="1" stop-color="#8D4098"/>
</linearGradient>
<linearGradient id="paint2_linear" x1="31.0616" y1="53.9442" x2="80.6086" y2="53.9442" gradientUnits="userSpaceOnUse">
<stop stop-color="#29ABE2"/>
<stop offset="0.1045" stop-color="#37A7DE"/>
<stop offset="0.2753" stop-color="#4F9BD4"/>
<stop offset="0.4909" stop-color="#6786C4"/>
<stop offset="0.743" stop-color="#7C6AAF"/>
<stop offset="1" stop-color="#8D4098"/>
</linearGradient>
<linearGradient id="paint3_linear" x1="33.4721" y1="60.5691" x2="36.8656" y2="60.5691" gradientUnits="userSpaceOnUse">
<stop stop-color="#29ABE2"/>
<stop offset="0.1045" stop-color="#37A7DE"/>
<stop offset="0.2753" stop-color="#4F9BD4"/>
<stop offset="0.4909" stop-color="#6786C4"/>
<stop offset="0.743" stop-color="#7C6AAF"/>
<stop offset="1" stop-color="#8D4098"/>
</linearGradient>
<linearGradient id="paint4_linear" x1="45.5919" y1="49.8363" x2="48.9854" y2="49.8363" gradientUnits="userSpaceOnUse">
<stop stop-color="#29ABE2"/>
<stop offset="0.1045" stop-color="#37A7DE"/>
<stop offset="0.2753" stop-color="#4F9BD4"/>
<stop offset="0.4909" stop-color="#6786C4"/>
<stop offset="0.743" stop-color="#7C6AAF"/>
<stop offset="1" stop-color="#8D4098"/>
</linearGradient>
<linearGradient id="paint5_linear" x1="57.8173" y1="71.3787" x2="61.2106" y2="71.3787" gradientUnits="userSpaceOnUse">
<stop stop-color="#29ABE2"/>
<stop offset="0.1045" stop-color="#37A7DE"/>
<stop offset="0.2753" stop-color="#4F9BD4"/>
<stop offset="0.4909" stop-color="#6786C4"/>
<stop offset="0.743" stop-color="#7C6AAF"/>
<stop offset="1" stop-color="#8D4098"/>
</linearGradient>
<linearGradient id="paint6_linear" x1="69.8859" y1="60.5691" x2="73.2792" y2="60.5691" gradientUnits="userSpaceOnUse">
<stop stop-color="#29ABE2"/>
<stop offset="0.1045" stop-color="#37A7DE"/>
<stop offset="0.2753" stop-color="#4F9BD4"/>
<stop offset="0.4909" stop-color="#6786C4"/>
<stop offset="0.743" stop-color="#7C6AAF"/>
<stop offset="1" stop-color="#8D4098"/>
</linearGradient>
<linearGradient id="paint7_linear" x1="74.1618" y1="60.5694" x2="78.0668" y2="60.5694" gradientUnits="userSpaceOnUse">
<stop stop-color="#29ABE2"/>
<stop offset="0.1045" stop-color="#37A7DE"/>
<stop offset="0.2753" stop-color="#4F9BD4"/>
<stop offset="0.4909" stop-color="#6786C4"/>
<stop offset="0.743" stop-color="#7C6AAF"/>
<stop offset="1" stop-color="#8D4098"/>
</linearGradient>
<linearGradient id="paint8_linear" x1="57.8173" y1="60.5691" x2="61.2106" y2="60.5691" gradientUnits="userSpaceOnUse">
<stop stop-color="#29ABE2"/>
<stop offset="0.1045" stop-color="#37A7DE"/>
<stop offset="0.2753" stop-color="#4F9BD4"/>
<stop offset="0.4909" stop-color="#6786C4"/>
<stop offset="0.743" stop-color="#7C6AAF"/>
<stop offset="1" stop-color="#8D4098"/>
</linearGradient>
<linearGradient id="paint9_linear" x1="62.0932" y1="60.5694" x2="65.9983" y2="60.5694" gradientUnits="userSpaceOnUse">
<stop stop-color="#29ABE2"/>
<stop offset="0.1045" stop-color="#37A7DE"/>
<stop offset="0.2753" stop-color="#4F9BD4"/>
<stop offset="0.4909" stop-color="#6786C4"/>
<stop offset="0.743" stop-color="#7C6AAF"/>
<stop offset="1" stop-color="#8D4098"/>
</linearGradient>
<clipPath id="clip0">
<rect width="111.7" height="111.7" fill="white" transform="translate(0.00976562)"/>
</clipPath>
</defs>
</svg>
