<svg xmlns="http://www.w3.org/2000/svg" viewBox="0 0 94.26 86.48"><defs><style>.cls-1{fill:#ffbc00;}</style></defs><title>Asset 2</title><g id="Layer_2" data-name="Layer 2"><g id="Layer_1-2" data-name="Layer 1"><path class="cls-1" d="M92.05,61.1C87.74,53.5,83.29,45.79,79,38.34l-5.71-9.89c-1.25-2.19-2.51-4.36-3.77-6.53-2.47-4.27-5-8.68-7.45-13.08a17.09,17.09,0,0,0-26.87-4,18.06,18.06,0,0,0-4.25,6.63c-.08.11-.16.23-.23.35-7.16,12.34-14.4,24.92-21.4,37.09l-.21.36Q7.8,51.54,6.5,53.8T3.9,58.32l-.45.78h0l-.28.44c-.27.4-.53.81-.74,1.18a16.49,16.49,0,0,0-2.27,11A16.92,16.92,0,0,0,15.8,86.44c.44,0,.88,0,1.31,0,6.27,0,11.36-3,14.76-8.57.25-.41.48-.83.7-1.24.11-.21.21-.42.33-.62l.07-.16.17-.29Q36.52,69.83,39.87,64l2.46-4.27C44,57,45.57,54.2,47.18,51.43l3.51,6.09q5.81,10.07,11.6,20.15A17.08,17.08,0,0,0,77.2,86.48a18.5,18.5,0,0,0,2.65-.2A17,17,0,0,0,92.05,61.1ZM28.46,75.81c-2.91,4.82-7,7-12.39,6.64A12.93,12.93,0,0,1,4.13,71.16a12.69,12.69,0,0,1,1.76-8.43c.19-.34.4-.65.61-1,.11-.16.22-.32.32-.49A5.6,5.6,0,0,0,8.41,60a5.94,5.94,0,0,1,.46-.44A12.78,12.78,0,0,1,19,56.72a11.9,11.9,0,0,1,7.34,3.76,12.62,12.62,0,0,1,3,12.61l0,.13a3.7,3.7,0,0,0-.16,1.26c-.06.11-.12.21-.17.32C28.85,75.13,28.68,75.47,28.46,75.81ZM38.88,57.74,36.41,62l-2.55,4.4a.09.09,0,0,0,0,0A16.75,16.75,0,0,0,23.19,53.52a16.92,16.92,0,0,0-11.83-.16l1.21-2.09.2-.36c5.7-9.9,11.56-20.08,17.4-30.17A17,17,0,0,0,32,25.59q1.19,2.09,2.4,4.15c.79,1.36,1.59,2.73,2.37,4.11L40,39.44c1.39,2.39,2.78,4.79,4.16,7.23.08.12.15.26.22.39s.21.39.34.6C42.8,51,40.86,54.36,38.88,57.74ZM89,75.14a12.74,12.74,0,0,1-9.7,7.18,13.12,13.12,0,0,1-13.49-6.65Q60,65.59,54.15,55.52l-4.66-8.08,0,0-.64-1c-.18-.28-.33-.58-.5-.88s-.31-.59-.47-.87c-3.68-6.41-7.59-13.18-12-20.69A13.53,13.53,0,0,1,34,16.49a17.92,17.92,0,0,1,.6-3.48c.06-.16.13-.3.2-.46l1.35-2.64A12.62,12.62,0,0,1,38,7.71a13.09,13.09,0,0,1,20.59,3.06c2.44,4.43,5,8.87,7.49,13.15,1.26,2.17,2.52,4.34,3.76,6.52l5.71,9.9c4.3,7.44,8.75,15.14,13,22.74A12.76,12.76,0,0,1,89,75.14Z"/></g></g></svg>