<svg xmlns="http://www.w3.org/2000/svg" viewBox="0 0 755.14 639.79"><defs><style>.cls-1,.cls-4{fill:#03c9f7;}.cls-1{fill-opacity:0.25;}.cls-2{fill:none;stroke:#000;stroke-miterlimit:10;}.cls-3{fill:#2f2e41;}.cls-5{fill:#f9c7d1;}</style></defs><title>Hekayemiz</title><g id="Layer_2" data-name="Layer 2"><g id="Layer_1-2" data-name="Layer 1"><path class="cls-1" d="M351.64,639.79S222,635.87,188.47,509.17,35.22,469.38,28,382.47s-54.06-214,13.52-260.11C117,70.82,236.33-85.64,393.64,61.49c167,156.16,158.05,169.23,244.2,264.53S769.61,375.71,751,494s-137.9,145.28-137.9,145.28Z"/><path class="cls-2" d="M35.05,254.61c-1-3.27-2.8-7.76-3.88-12.4-2-8.63,1-15.53,7.9-21,2.67-2.12,5-4.69,7.73-6.7,5.25-3.84,10.28-8.28,16.1-10.94,15.1-6.9,30.6-12.92,45.89-19.43a31.52,31.52,0,0,0,5.77-3.88c12.09-8.88,20.9-7.84,30.47,4.15.72.89,1.55,2.61,1.17,3.32-1.77,3.31-.23,5.74,1.34,8.46a22.2,22.2,0,0,1,2.69,6.86c.38,2-.22,4.21-.39,6.41-7.3,8.2-13.86,1-21.56-2.75.44,3.15.84,5.21,1,7.28.24,3.4,1,6.95.31,10.21-1.69,8.34.14,16.29,1.1,24.5,1.75,15.09,2.21,30.33,3.18,45.52.14,2.17-.13,4.39.22,6.51.71,4.29-1.43,5.72-5.21,5.64a16.58,16.58,0,0,1-4.61-.67,11.85,11.85,0,0,1-2.83-1.91,22.93,22.93,0,0,0,2-2.66c.68-1.25,1.6-2.6,1.66-3.94a106.27,106.27,0,0,0-.06-12.87,25.07,25.07,0,0,0-1.92-7.13c-3.08-7.76-7.54-15.11-6.8-24a5.05,5.05,0,0,0-.63-2.23c-.3-.67-.79-1.27-2-3.15-1.71,4.58-3.52,8.12-4.35,11.88-2.07,9.42-3.41,19-5.65,28.36-1.06,4.44-3.55,8.52-5.32,12.79-.64,1.54-1.59,3.23-1.46,4.76.39,4.29-1.19,6.3-5.51,6.89-4.84.65-6.32-2-7.22-6.53l3.66,1.3c.24-2.08-.16-4.55.82-6.19,4.74-7.9,3.37-16.17,2.27-24.52-1.09-8.18-2.29-16.36-2.85-24.58-.23-3.35,1.08-6.8,1.62-9.86-8.38,1.07-16.63,2.07-24.87,3.2-2.74.38-5.42,4.88-4.76,8.51,2.35,13,.83,25.93-1.15,38.82-.84,5.46.91,7.33,7.2,8.22a80.63,80.63,0,0,1,8.57,2.13v2.06c-3.11.81-6.19,2.1-9.34,2.31-5.25.36-10.55-.1-15.82,0-5.91.14-7.23-2-6-7.71.92-4.26.59-8.85.42-13.28-.16-4.26-.8-8.49-1.27-12.73a23.14,23.14,0,0,0-.6-2.62l-20,13c1.52,2.86,2.68,6.53,5.06,9.07,2.22,2.36,5.73,3.52,9,5.41-7.8,4.69-14.52,3.2-19.31-3.19a32.56,32.56,0,0,0-7-6.62c-4.61-3.33-4.28-7,.42-10,3.43-2.22,6.16-5.55,9.12-8.47C24.37,265.32,29.32,260.33,35.05,254.61Z"/><path class="cls-2" d="M374,308.82c-1.52.79-3,2.19-4.58,2.28-8.84.51-17.69.77-26.54,1-3.38.08-4.8-2-4.41-5.17.27-2.15,1.34-4.21,1.48-6.35.54-8.32.62-16.69,1.33-25A41.73,41.73,0,0,1,343.94,264c1.8-4.6,1.85-7.09-1.64-13.33-.76,4.78-1.31,9.36-2.28,13.84-.39,1.84-1.25,4-2.64,5.13-8.78,6.91-17.8,13.5-26.63,20.34-1.38,1.07-3,2.82-3.1,4.33a65.13,65.13,0,0,0,.66,13.31c.21,1.35,2.51,2.36,3.82,3.56.91.84,1.77,1.72,2.65,2.59a14.84,14.84,0,0,1-3.37,1.75,15.75,15.75,0,0,1-4.18.13c-9.27-.32-9.44-.71-10-9.89-.14-2.6-1.46-5.3-2.79-7.65-3.7-6.5-2.87-7.36,2.93-11.63a40.45,40.45,0,0,0,11.69-13.6,24.62,24.62,0,0,1,11.66-11.46c3-1.45,3.69-3.08,2.93-6.16-1.6-6.47-3.13-13-4.25-19.54A179.57,179.57,0,0,1,317.08,216a55.89,55.89,0,0,1,.78-14.68c1.18-5.59,3.78-10.87,5.3-16.42,1.17-4.27,1.63-8.73,2.46-13.38-8.58,1.09-10.7,3-12.12,10a40.65,40.65,0,0,1-1.76,5.79c-3,8.15-6.55,16.15-9,24.48-2,7-7.14,10.78-12.39,14.52-1.42,1-5.25.88-6.26-.26-1.65-1.84-1.89-5-2.21-8.09,4.39,2.52,5.83-.1,8.08-2.5,7.12-7.59,6.6-17.22,8.36-26.44,1.5-7.82,4.43-15.47,7.68-22.78,1.54-3.47,5.21-6,8-8.87,7.89-7.9,16-15.59,23.71-23.68a47.8,47.8,0,0,0,6.85-10.2c2.14-3.94,3.51-8.31,5.67-12.24,2.94-5.37,8.08-6.75,13.66-5.77s11,2.33,12.92,8.82c.33,1.09,1.66,1.85,2.17,2.93.63,1.33,1.68,3.32,1.16,4.18-2.71,4.49-.62,9-.78,13.53A12.39,12.39,0,0,1,378,140.1c-2.31,4.38-5.94,4.21-9.78,2.29-3.14-1.58-5.54-1.25-8.32,1.26s-1.86,5-.87,7.18c3.91,8.7,2.73,17-.32,25.71-3.26,9.37-2.66,9.49,5.44,15,6.31,4.33,12.47,7.71,20.83,5.22,2.19-.65,6.4,2.78,8.39,5.35.87,1.12-.74,5.62-2.49,7.09-5.56,4.66-9.22,10.42-12.35,16.8-1.16,2.35-3.37,4.19-5.1,6.26l-1.77-.78c.92-3.34,1.64-6.76,2.81-10a76.27,76.27,0,0,1,4.19-9.32c1.48-2.86.26-4.82-2.22-5.47-7.48-2-15.06-3.49-22.53-5.17-2.95,6.61-3.57,12.17-1.17,18.86,3.12,8.67,4.2,18.07,6.18,27.15,2.71,12.41-1.28,24.09-3.95,35.91a3.88,3.88,0,0,1-.14.45c-4.44,13.87.85,21.64,15.63,23a26.15,26.15,0,0,1,3,.59Z"/><path class="cls-2" d="M580.26,169.05A21.06,21.06,0,0,0,572,181.7c-3.1,12.17-7.1,24.13-11.39,36-1,2.77-4.33,5.09-7.12,6.71s-5.53-1.33-6.68-5.52c5-7.13,12.13-12.18,10.75-22.48-1.3-9.7,3.42-18.43,7.59-27,.68-1.39,1.49-2.72,2.06-4.16,3-7.59,5.78-15.31,9.12-22.77a25.14,25.14,0,0,1,6.06-8.16c4.93-4.42,6.24-9.81,5.71-16-.3-3.57-.86-7.13-.89-10.69,0-5.75,2.49-9.78,6.63-11.29,4.81-1.76,15.29-.34,17,3.32,1.51,3.23,1,7.41,1.29,11.18.08,1-.61,2.27-.24,3.1,2.71,6-3,9.14-4.68,13.62-.25.67-2.79.48-5.64.89.88,2.78,1.47,5.43,2.53,7.87,2.35,5.39,5.7,10.47,7.19,16.06,1.3,4.89.42,10.34.92,15.5a14,14,0,0,0,2.42,5.72c2.9,4.56,6,9,9.07,13.45s6.28,8.84,9.24,13.38c1.22,1.85,2.53,4,2.76,6.08.88,8.18-1.67,9.76-9.62,6.05,3.82-6.8-2.54-10.79-5-15.51s-7.35-8.23-11.72-12.85c-.16,9.42-3,17.79,2.53,26.77,5,8,7.43,17.73,10.39,26.89,4.37,13.49,8.08,27.2,12.33,40.74A88.34,88.34,0,0,0,640,291.41c1.68,3.39,4.48,5.61,8.6,5.15,6.07-.68,12.12-1.46,18.56-2.24-.17-.33.3.17.19.45-1.83,4.48-8.87,13.17-13.88,13.75a27.23,27.23,0,0,0-9.38,3.45c-5.09,2.75-7.86,2.11-9.6-3.35-3.41-10.67-8.84-20.22-15.29-29.26-4.55-6.38-7.4-13.29-6.73-21.33.41-4.83-1.52-8.5-5-12-4.44-4.46-8.23-9.58-12.5-14.65-2.61,6.81-5,13.63-7.83,20.23-2,4.68-5.06,8.91-7.08,13.59-3,7-5.59,14.17-8.25,21.31a30.06,30.06,0,0,0-1.72,6.27c-1.42,9.9,1.88,15,11.58,18a12,12,0,0,1,3.09,1c.91.63,2.06,1.73,2.06,2.62,0,.72-1.56,2.06-2.42,2.05a77.77,77.77,0,0,1-10.56-.75c-4.53-.63-9-2.07-13.55-2.25-7.23-.29-7.8-2.06-5.51-8.82a161.43,161.43,0,0,0,6.66-28.42c1.28-8.74,2.17-17.22,8.64-24.07,1.4-1.48,1.84-4.29,1.93-6.52.45-11.11,2-22,5.91-32.46.76-2.06.49-4.58.32-6.87-.42-5.68,0-11.07,2.79-16.29C584.11,184.35,583.65,178,580.26,169.05Z"/><path class="cls-2" d="M525.21,97.15c.31-1.45-.53-3.14-.84-4.72-.93,1.36-2.38,2.61-2.73,4.11-3.27,14.09-6.33,28.24-9.51,42.35-2.83,12.56-5.74,25.1-8.68,38-6.12-1-10.36-4.38-14.27-8.11a6.81,6.81,0,0,1-1.54-5.2c1.29-9.08,1.87-18-4-25.87-3-4-2.68-8-.15-12.59,5.76,2.32,8.13-1.81,10.31-6.09,1-2,1.79-4.25,2.83-6.78-1.76-4.34-4.32-8.77-5.25-13.53-.69-3.54-2.37-5.31-5.17-6.38-6.46-2.46-13-2.36-18.75,1.64-5.33,3.69-4.74,9.36-3.84,14.89.17,1.07.76,2.18.61,3.18-.65,4.23-.24,9.36-2.53,12.42-4.56,6-9.59,11.66-12.89,18.63-4,8.53-8.46,16.89-12.7,25.33a2.64,2.64,0,0,0-.27,1.35q.82,11.1,1.7,22.19c.45,5.64,1,11.27,1.32,16.92.22,3.64-1.1,8.22,3,10,5.73,2.5,5.29,7,5.19,11.67-.06,3-.21,5.92-.14,8.87.15,5.4-2.2,8.72-7.48,10.34-4.87,1.5-9.24,4.1-11.11,9.22-4,10.85-9.77,19.91-20.48,25.54-5.51,2.89-5,7.7-.09,11.58,2.63,2.07,5.65,4.33,7,7.2,3.21,6.81,8.12,9.53,15.32,8.36,1.44-.24,2.75-1.28,4.12-1.94-1.23-.86-2.41-2.37-3.7-2.47-3.52-.26-4.89-2.13-5.26-5.31a19.46,19.46,0,0,0-.93-5c-1.64-4-.51-7.31,2.35-10.18,5.26-5.3,10.45-10.67,15.91-15.75,4.07-3.79,8.56-7.12,12.76-10.77a16.5,16.5,0,0,0,3.5-4.14c3.61-6.34,7.05-12.77,10.63-19.31,2.9,3.85,6.11,7.35,8.34,11.39,1.18,2.13,1.77,5.83.7,7.73-4.31,7.65-4,15.65-2.63,23.65,1.62,9.23,1.63,18.16-1.25,27.17-1.76,5.51,0,7.34,5.8,7.48,8.84.21,17.68.69,26.51.65a10,10,0,0,0,6.08-2.59c1.72-1.57,1.17-3.85-1.54-3.74-6,.25-10.64-2.73-15.46-5.66-6.59-4-7.35-5.19-5.92-12.84,1.17-6.27,2.69-12.47,3.72-18.76.79-4.89.36-10.06,1.76-14.72a19.21,19.21,0,0,0-.09-11.72c-.94-3.17-1.65-6.83-1-10,2.63-12.47,5.8-24.83,8.88-37.21a5.42,5.42,0,0,1,2.07-3.15c3-1.78,6.69-11.25,4.35-13.58-2.68-2.66-1.55-5-1-7.55C514.27,147.93,519.82,122.56,525.21,97.15Zm-76.3,97.34c0-2.42-.06-4.52,0-6.6.13-3.86.74-7.74.41-11.55-.3-3.5.31-6.08,3.86-7.84C458.06,178.19,453.27,186.1,448.91,194.49Zm49.58,4.24c-2.07,8.6-3.95,17.25-6.08,26.67-3.11-8.52-7-16-8.4-24-1.11-6.32.87-13.18,1.65-21.64,3.1,2.19,5.59,3.92,8,5.69.36.26.53.92.9,1C501.8,188.72,499.67,193.78,498.49,198.73Z"/><path class="cls-2" d="M275,146.39c-2.06-3.69-5.27-7.42-2.19-12.2a2.22,2.22,0,0,0-.67-2c-5-3.11-9.81-6.67-15.16-9s-12.79.52-14.44,6.12c-1.9,6.46-6.6,8.23-11.72,9.86-14.73,4.68-24.6,14.79-31.71,28-6.33,11.75-12.46,23.61-18.61,35.46-2.31,4.45-3.45,9.32-1.18,14,5.13,10.41,10.47,20.74,16.13,30.87,3.28,5.87,3.7,5.73-1.15,10.33-5.6,5.3-10.06,11-9.2,19.43.85,8.24-.32,16-5,23.28-1.18,1.84-1.38,5.7-.2,7.25s4.6,1.52,7.07,1.63c4.88.21,9.78,0,14.67.05,3.24.07,6.49.62,9.73.55,1.12,0,2.22-1.25,3.32-1.93-.88-.86-1.66-2.27-2.68-2.47-5-1-9-3.63-13-6.71-2.53-1.95-3.19-3.56-2.28-6.61,3.61-12.08,9.76-22.83,16.63-33.26a79.62,79.62,0,0,0,4.08-8.11c2.33.88,3.45,3,2.55,6.25a44.09,44.09,0,0,1-1.67,5.82c-3,6.83-3,13.42.39,20.22,3.69,7.29,3.29,15.14,1.66,22.86-1.42,6.78-.33,8.41,6.74,8.19,4.64-.14,9.28-.67,13.92-.76,4-.08,8,.44,12,.26,1.39-.06,2.72-1.4,5-2.67-5.67-2.33-10.17-4.26-14.73-6-7.74-3-9.78-6.17-9.41-14.5.33-7.46.26-14.94.82-22.38.5-6.7.53-13.78,2.87-19.88a23.05,23.05,0,0,0,1.58-11c-.71-7.42-1.54-14.83-2.58-22.21-.75-5.33-2-10.59-2.87-15.9-.43-2.59-1.42-5.56-.58-7.76,2-5.16,5-9.91,7.37-14.9,1.38-2.86,3-5.77,3.58-8.83,1.43-7.35,6.52-12.54,13.54-12.38,2.71.06,5.35,1.67,8.08,1.93s6.34.71,8-.73C276.56,154.05,277.18,150.28,275,146.39ZM229.37,235.9q-2-6.39-4-12.78l2-.69,4.67,12.62Z"/><rect class="cls-3" y="333.38" width="676.68" height="1.4"/><path class="cls-4" d="M574.32,601.83c-9.65,12.66,1.41,37.31,1.41,37.31s26.71,4.13,36.35-8.53-1.41-37.31-1.41-37.31S584,589.17,574.32,601.83Z"/><path class="cls-5" d="M449.08,281.18s-14.79,0-16.43,9-4.11,107.62-2.47,120,1.65,9.86,1.65,9.86-3.28,23.41,4.11,24.44,7.39-26.91,7.39-26.91l5.75-100.23Z"/><path class="cls-5" d="M513.16,281.18s14.79,0,16.43,9,4.11,107.62,2.47,120-1.65,9.86-1.65,9.86,3.28,23.41-4.11,24.44-7.39-26.91-7.39-26.91l-5.75-100.23Z"/><path class="cls-3" d="M446.62,624.58H440a14.79,14.79,0,0,0-14.78,14.79h40.25v-18.9H446.62Z"/><path class="cls-3" d="M509.87,624.58h6.58a14.79,14.79,0,0,1,14.78,14.79H491v-18.9h18.89Z"/><circle class="cls-5" cx="474.55" cy="240.92" r="21.36"/><path class="cls-5" d="M469.62,252.42s-2.47,27.11-5.75,29.58,34.5-1.65,34.5-1.65-13.14-19.71-10.68-26.29S469.62,252.42,469.62,252.42Z"/><path class="cls-3" d="M518.09,281.18s-45.19-18.9-74.76,0c0,0-7.39,18.89-1.64,29.57s14.78,36.15,5.75,53.4.82,9.86.82,9.86-11.5,46-13.15,82.15,4.93,166,9.86,166.78,20.54,2.46,22.18,0S480.3,448.77,480.3,448.77s4.93,175.81,9.86,175.81,18.07,0,20.54-4.11,23-162.66,15.61-195.52S514,375.65,514,375.65s9-5.75,6.57-9-14.78-38.62-9-44.37S518.09,281.18,518.09,281.18Z"/><circle class="cls-3" cx="488.1" cy="228.05" r="34.5"/><circle class="cls-3" cx="511.05" cy="198.38" r="16.89"/><rect class="cls-3" x="310.06" y="637.85" width="303.07" height="1.4"/></g></g></svg>