<svg xmlns="http://www.w3.org/2000/svg" viewBox="0 0 57.16 57.16"><defs><style>.cls-1{fill:#ffc713;}</style></defs><title>icon_syllabus</title><g id="Layer_2" data-name="Layer 2"><g id="Layer_2-2" data-name="Layer 2"><path class="cls-1" d="M46.4,0H10.76A10.76,10.76,0,0,0,0,10.76V46.4A10.76,10.76,0,0,0,10.76,57.16H46.4A10.76,10.76,0,0,0,57.16,46.4V10.76A10.76,10.76,0,0,0,46.4,0ZM45,44.79a1.09,1.09,0,0,1-1.09,1.09H33a1.08,1.08,0,0,1-1.09-1V34.21a3.28,3.28,0,0,0-6.56,0V44.88a1.1,1.1,0,0,1-1.09,1H13.29a1.09,1.09,0,0,1-1.1-1.09V26.31a1.1,1.1,0,0,1,2.19,0V43.7h8.74V34.21a5.46,5.46,0,1,1,10.92,0V43.7h8.74V26.31a1.09,1.09,0,0,1,2.18,0Zm4.43-20a1.11,1.11,0,0,1-.89.44,1,1,0,0,1-.64-.21L28.58,10.86,9.3,25A1.09,1.09,0,1,1,8,23.21L27.93,8.62a1.1,1.1,0,0,1,1.29,0L49.15,23.21A1.1,1.1,0,0,1,49.39,24.74Z"/></g></g></svg>