<svg width="170" height="31" viewBox="0 0 170 31" fill="none" xmlns="http://www.w3.org/2000/svg">
<g clip-path="url(#clip0)">
<path d="M5.32 4.73001L12.13 22.82L18.92 4.73001H24.22V28.34H20.13V20.56L20.54 10.15L13.57 28.34H10.64L3.68 10.16L4.09 20.55V28.33H0V4.73001H5.32Z" fill="#414042"/>
<path d="M64.33 22.26C64.33 21.22 63.97 20.42 63.24 19.86C62.51 19.3 61.19 18.73 59.29 18.16C57.39 17.59 55.87 16.95 54.75 16.25C52.6 14.9 51.52 13.14 51.52 10.96C51.52 9.06 52.3 7.49 53.85 6.26C55.4 5.03 57.41 4.41 59.89 4.41C61.53 4.41 63 4.71 64.28 5.32C65.57 5.93 66.58 6.79 67.31 7.91C68.05 9.03 68.41 10.27 68.41 11.63H64.32C64.32 10.41 63.93 9.45 63.16 8.76C62.39 8.07 61.28 7.72 59.84 7.72C58.5 7.72 57.46 8.01 56.72 8.58C55.98 9.15 55.61 9.95 55.61 10.97C55.61 11.83 56.01 12.55 56.81 13.13C57.61 13.71 58.93 14.26 60.77 14.81C62.61 15.35 64.08 15.97 65.2 16.67C66.31 17.37 67.13 18.17 67.65 19.07C68.17 19.97 68.43 21.03 68.43 22.24C68.43 24.21 67.68 25.77 66.17 26.93C64.66 28.09 62.62 28.67 60.03 28.67C58.32 28.67 56.75 28.35 55.32 27.72C53.89 27.09 52.77 26.21 51.98 25.1C51.19 23.99 50.79 22.69 50.79 21.21H54.89C54.89 22.55 55.33 23.59 56.22 24.32C57.11 25.06 58.38 25.42 60.03 25.42C61.46 25.42 62.53 25.13 63.25 24.55C63.98 23.97 64.33 23.21 64.33 22.26Z" fill="#414042"/>
<path d="M85.83 17.8H76.13V25.03H87.46V28.34H72.04V4.73001H87.36V8.04001H76.14V14.56H85.84V17.8H85.83Z" fill="#414042"/>
<path d="M103.15 22.26C103.15 21.22 102.79 20.42 102.06 19.86C101.33 19.3 100.01 18.73 98.11 18.16C96.21 17.59 94.69 16.95 93.57 16.25C91.42 14.9 90.34 13.14 90.34 10.96C90.34 9.06 91.12 7.49 92.67 6.26C94.22 5.03 96.23 4.41 98.71 4.41C100.35 4.41 101.82 4.71 103.1 5.32C104.39 5.93 105.4 6.79 106.13 7.91C106.87 9.03 107.23 10.27 107.23 11.63H103.14C103.14 10.41 102.75 9.45 101.98 8.76C101.21 8.07 100.1 7.72 98.66 7.72C97.32 7.72 96.28 8.01 95.54 8.58C94.8 9.15 94.43 9.95 94.43 10.97C94.43 11.83 94.83 12.55 95.63 13.13C96.43 13.71 97.75 14.26 99.59 14.81C101.43 15.35 102.9 15.97 104.02 16.67C105.13 17.37 105.95 18.17 106.47 19.07C106.99 19.97 107.25 21.03 107.25 22.24C107.25 24.21 106.5 25.77 104.99 26.93C103.48 28.09 101.44 28.67 98.85 28.67C97.14 28.67 95.57 28.35 94.14 27.72C92.71 27.09 91.59 26.21 90.8 25.1C90.01 23.99 89.61 22.69 89.61 21.21H93.71C93.71 22.55 94.15 23.59 95.04 24.32C95.93 25.05 97.2 25.42 98.85 25.42C100.28 25.42 101.35 25.13 102.07 24.55C102.79 23.97 103.15 23.21 103.15 22.26Z" fill="#414042"/>
<path d="M33.13 11.54C33.36 10.93 33.62 10.37 33.96 9.88999C34.96 8.49999 36.35 7.80999 38.12 7.80999C39.94 7.80999 41.34 8.50999 42.33 9.89999C42.66 10.37 42.92 10.93 43.14 11.54H47.26C47.08 10.94 46.94 10.32 46.69 9.77999C45.88 8.04999 44.73 6.71999 43.24 5.78999C41.75 4.85999 40.05 4.39999 38.12 4.39999C36.19 4.39999 34.49 4.86999 33 5.80999C31.51 6.74999 30.36 8.08999 29.55 9.85999C29.31 10.38 29.18 10.98 29 11.55H33.13V11.54Z" fill="#29ABE2"/>
<path d="M43.58 13.27C43.72 14.08 43.81 14.94 43.81 15.92V17.15C43.81 19.81 43.32 21.83 42.34 23.21C41.36 24.59 39.96 25.29 38.15 25.29C36.36 25.29 34.95 24.58 33.94 23.17C32.93 21.75 32.42 19.75 32.42 17.15V15.79C32.43 14.87 32.52 14.05 32.66 13.27H28.57C28.43 14.13 28.32 15 28.32 15.95V17.28C28.33 19.54 28.74 21.53 29.56 23.26C30.38 24.99 31.53 26.32 33.03 27.26C34.53 28.19 36.23 28.66 38.15 28.66C40.08 28.66 41.8 28.19 43.28 27.26C44.77 26.33 45.91 24.98 46.71 23.24C47.51 21.49 47.91 19.46 47.91 17.15V15.84C47.91 14.93 47.79 14.1 47.66 13.28H43.58V13.27Z" fill="#414042"/>
<path d="M107.25 4.4C108.465 4.4 109.45 3.41503 109.45 2.2C109.45 0.984974 108.465 0 107.25 0C106.035 0 105.05 0.984974 105.05 2.2C105.05 3.41503 106.035 4.4 107.25 4.4Z" fill="#29ABE2"/>
<path d="M126.48 22.24H133.53V24.42H123.78V8.89001H126.48V22.24Z" fill="#414042"/>
<path d="M144.49 20.8H138.48L137.22 24.42H134.42L140.28 8.89001H142.7L148.58 24.42H145.76L144.49 20.8ZM139.24 18.63H143.74L141.49 12.19L139.24 18.63Z" fill="#414042"/>
<path d="M150.34 24.42V8.89001H155.66C157.42 8.89001 158.75 9.24001 159.67 9.95001C160.59 10.65 161.05 11.7 161.05 13.1C161.05 13.81 160.86 14.45 160.47 15.02C160.09 15.59 159.52 16.03 158.79 16.34C159.63 16.57 160.28 17 160.74 17.62C161.2 18.25 161.43 19.01 161.43 19.89C161.43 21.35 160.96 22.47 160.03 23.25C159.09 24.03 157.76 24.42 156.01 24.42H150.34ZM153.04 15.43H155.69C156.53 15.43 157.18 15.24 157.66 14.86C158.13 14.48 158.37 13.94 158.37 13.24C158.37 12.47 158.15 11.92 157.71 11.58C157.27 11.24 156.59 11.07 155.67 11.07H153.05V15.43H153.04ZM153.04 17.41V22.24H156.04C156.89 22.24 157.55 22.03 158.02 21.61C158.5 21.19 158.73 20.61 158.73 19.87C158.73 18.26 157.91 17.44 156.26 17.41H153.04Z" fill="#414042"/>
<path d="M167.3 30.76H116.74C115.25 30.76 114.04 29.55 114.04 28.06V4.99999C114.04 3.50999 115.25 2.29999 116.74 2.29999H167.3C168.79 2.29999 170 3.50999 170 4.99999V28.06C170 29.55 168.79 30.76 167.3 30.76ZM116.74 3.48999C115.91 3.48999 115.23 4.16999 115.23 4.99999V28.06C115.23 28.89 115.91 29.57 116.74 29.57H167.3C168.13 29.57 168.81 28.89 168.81 28.06V4.99999C168.81 4.16999 168.13 3.48999 167.3 3.48999H116.74Z" fill="#29ABE2"/>
</g>
<defs>
<clipPath id="clip0">
<rect width="170" height="30.76" fill="white"/>
</clipPath>
</defs>
</svg>
