<svg xmlns="http://www.w3.org/2000/svg" xmlns:xlink="http://www.w3.org/1999/xlink" viewBox="0 0 554.95 410.13"><defs><style>.cls-1,.cls-34{fill:#020202;}.cls-2,.cls-3,.cls-33{fill:none;}.cls-10,.cls-11,.cls-3,.cls-32,.cls-34{stroke:#010101;}.cls-10,.cls-11,.cls-3,.cls-34{stroke-linecap:round;stroke-linejoin:round;}.cls-11,.cls-4,.cls-7{fill:#fff;}.cls-12,.cls-5,.cls-9{fill:#7053a2;}.cls-12,.cls-5,.cls-7{stroke:#030303;}.cls-12,.cls-32,.cls-33,.cls-5,.cls-7,.cls-9{stroke-miterlimit:10;}.cls-5{stroke-width:0.21px;}.cls-10,.cls-32,.cls-6{fill:#010101;}.cls-8{fill:#030303;}.cls-33,.cls-9{stroke:#fff;}.cls-9{stroke-width:0.5px;}.cls-13{clip-path:url(#clip-path);}.cls-14{clip-path:url(#clip-path-2);}.cls-15{clip-path:url(#clip-path-3);}.cls-16{isolation:isolate;}.cls-17{clip-path:url(#clip-path-4);}.cls-18{fill:#008850;}.cls-19{clip-path:url(#clip-path-5);}.cls-20{clip-path:url(#clip-path-6);}.cls-21{clip-path:url(#clip-path-7);}.cls-22{clip-path:url(#clip-path-8);}.cls-23{clip-path:url(#clip-path-9);}.cls-24{clip-path:url(#clip-path-10);}.cls-25{clip-path:url(#clip-path-11);}.cls-26{clip-path:url(#clip-path-12);}.cls-27{clip-path:url(#clip-path-13);}.cls-28{clip-path:url(#clip-path-14);}.cls-29{clip-path:url(#clip-path-15);}.cls-30{clip-path:url(#clip-path-16);}.cls-31{clip-path:url(#clip-path-17);}</style><clipPath id="clip-path"><path class="cls-1" d="M229.54,77.49v-2C235.34,70,238,67.06,238,63.67v2C238,69.1,235.34,72,229.54,77.49Z"/></clipPath><clipPath id="clip-path-2"><path class="cls-1" d="M234.12,58.77v-2c4.89,0,7,3.33,7,6.55v2C241.08,62.1,239,58.77,234.12,58.77Z"/></clipPath><clipPath id="clip-path-3"><path class="cls-1" d="M227.68,61.06V59a10,10,0,0,1,6.44-2.29v2A10.1,10.1,0,0,0,227.68,61.06Z"/></clipPath><clipPath id="clip-path-4"><path class="cls-1" d="M247.82,70.52v-2c0,5.86,1.82,9.18,4.61,9.18v2C249.64,79.7,247.82,76.38,247.82,70.52Z"/></clipPath><clipPath id="clip-path-5"><path class="cls-1" d="M252.43,79.7v-2c3.15,0,4.66-3.64,4.66-9.39v2C257.09,76.07,255.58,79.7,252.43,79.7Z"/></clipPath><clipPath id="clip-path-6"><path class="cls-2" d="M252.65,58.77v-2c4.79,0,7.51,4.23,7.51,11.4v2.05C260.16,63,257.44,58.77,252.65,58.77Z"/></clipPath><clipPath id="clip-path-7"><path class="cls-2" d="M244.75,70.49v-2c0-7.55,3.28-11.71,7.9-11.71v2C248,58.77,244.75,62.94,244.75,70.49Z"/></clipPath><clipPath id="clip-path-8"><path class="cls-1" d="M265.33,77.73v-2a2.05,2.05,0,0,1,2.07,2.18v2A2.05,2.05,0,0,0,265.33,77.73Z"/></clipPath><clipPath id="clip-path-9"><path class="cls-1" d="M263.24,79.91v-2a2.05,2.05,0,0,1,2.09-2.18v2A2.05,2.05,0,0,0,263.24,79.91Z"/></clipPath><clipPath id="clip-path-10"><path class="cls-1" d="M263.24,67.68v-2a2.08,2.08,0,1,1,4.16,0v2a2.08,2.08,0,1,0-4.16,0Z"/></clipPath><clipPath id="clip-path-11"><path class="cls-1" d="M289.94,79.53v-2a5.54,5.54,0,0,0,.59,0c.53,0,1.14-.06,1.9-.14v2.05c-.76.07-1.37.13-1.9.13A5.54,5.54,0,0,1,289.94,79.53Z"/></clipPath><clipPath id="clip-path-12"><path class="cls-1" d="M292.43,79.43V77.38a8.57,8.57,0,0,0,4.75-2.17v2A8.59,8.59,0,0,1,292.43,79.43Z"/></clipPath><clipPath id="clip-path-13"><path class="cls-1" d="M297.18,77.25v-2a9.88,9.88,0,0,0,3-6v2A9.85,9.85,0,0,1,297.18,77.25Z"/></clipPath><clipPath id="clip-path-14"><path class="cls-1" d="M299.9,69V67a2,2,0,0,0,.28-1.12v2A2,2,0,0,1,299.9,69Z"/></clipPath><clipPath id="clip-path-15"><path class="cls-1" d="M291.06,66.57v-2c0,2.81,1.72,4.79,4.37,4.79A5.08,5.08,0,0,0,299.9,67v2a5.08,5.08,0,0,1-4.47,2.36C292.78,71.36,291.06,69.38,291.06,66.57Z"/></clipPath><clipPath id="clip-path-16"><path class="cls-1" d="M288,66.78v-2a7.76,7.76,0,0,1,7.76-8v2A7.76,7.76,0,0,0,288,66.78Z"/></clipPath><clipPath id="clip-path-17"><path class="cls-1" d="M295.78,58.77v-2c4.65,0,7.51,3.75,7.51,9.49v2C303.29,62.52,300.43,58.77,295.78,58.77Z"/></clipPath></defs><title>Asset 16</title><g id="Layer_2" data-name="Layer 2"><g id="Layer_2-2" data-name="Layer 2"><polygon class="cls-3" points="47.01 228.99 48.49 246.5 47.01 251.68 53.37 251.68 60.4 260.5 70.94 256.86 71.75 261.12 74.69 268.43 86.77 265.67 79.62 246.5 84.73 232.21 60.57 221.48 47.01 228.99"/><rect class="cls-4" x="140.32" y="13.85" width="246.99" height="377.76"/><path class="cls-5" d="M6.61,396.1s208.14-66.79,280.84-152.55S372.37,18.33,457,9.17c129-14,117.8,353.54,39.24,386.85Z"/><path class="cls-3" d="M195.32,63.67c-.5,5.24-1.73,10.06-4.31,14.13L193.16,83l-4.42.8a27.13,27.13,0,0,1-5,10.43L174,93.32v10.34l-7.38,7.68-7.24-5.28,3-13.21-3.74-9.19,3.63-13.83Z"/><path class="cls-6" d="M247,116s22.48-10.23,29.34-8.26-1.2,13.09-1.2,13.09l-17.44,6.33-7.58-4.22S249.65,116.62,247,116Z"/><rect class="cls-5" x="147.41" y="234.92" width="28.21" height="33.5"/><rect class="cls-5" x="147.41" y="190.46" width="28.21" height="33.35"/><rect class="cls-5" x="147.41" y="145.95" width="28.21" height="33.55"/><polygon class="cls-3" points="325.01 241.59 319.13 252.94 318.78 252.99 325.01 241.59"/><path class="cls-3" d="M147.41,146v33.5H325a20.79,20.79,0,0,1,1.07-2.84A15.28,15.28,0,0,1,338.53,168c6.69-.65,20.22-1,25,6.33,1.62,2.48,1,4.12-.85,5.19h4V146ZM336.8,212.25a3.56,3.56,0,0,1-.95-.05c-4.94-.88-8.15,1.74-11.35-19.15-.14-.89-.24-1.76-.32-2.59H147.41V224H333.75s0-.1,0-.15c1.12-4.23,1.14-10.24,2.06-11.61C335.66,211.92,337,212.54,336.8,212.25Z"/><path class="cls-7" d="M439.45,205a99.08,99.08,0,0,1,0,25.8l.08,9.93,17.69-1.59-.56-10.09a28.23,28.23,0,0,1,.56-12.59h10.67c2-4.55,2.53-9.81,2.58-15.35h3.84l-3.84-4.76c.41-5.86.45-10.95-.54-15.5,0,0-17.22-3.64-18.14-3s-12.34,7.94-12.34,7.94Z"/><path class="cls-3" d="M372.38,242.9c2,1.66,5-.44,8.23-4.13V18.33H133.78V396.09H316.57a12.62,12.62,0,0,0-.51-5.35s.9-.17,2.16-.34a23.64,23.64,0,0,1,5.89-.24,2.26,2.26,0,0,1,1.34.58c.55.63.63,2.91.56,5.35h54.6V253a18.22,18.22,0,0,1-6.93,4.13,13.94,13.94,0,0,1-7,.75,7,7,0,0,1-5.25-4.64c-1.51,1.19-2.61,1.8-2.79,1.2-.65-2.18-.43-10.91-.43-10.91-1.16,1.65-3.69,12.29-6.4,24.88-4.43,20.63-9.31,46.48-9.31,46.48l-.16-.15-1.07,4.48-3.7,15.31-5.7,23.57H316.31c-.14-7.93-.21-16.24-.24-23.57,0-7.53,0-14,0-18a30.15,30.15,0,0,1-4.63-3,79.4,79.4,0,0,0-46.65,35.88,6.15,6.15,0,0,1-7.53,1.05,6.25,6.25,0,0,1-.21-1.78c0-1.93,2.1-7.78,4.63-14.22,3.2-8.12,7.1-17.17,8.42-20.41,3.2-7.86,27.62-23.36,27.62-23.36l.33.17,12.31-22.52L318.78,253l-6.49,3.73c-.69-.4-9.19-5.3-11.93-8-.2-.2-.36-.38-.5-.55l-.17-.24a1.4,1.4,0,0,1-.09-.17,1.15,1.15,0,0,1-.06-.17c.25-.35.4-.57.43-.62h0a158.16,158.16,0,0,0,12.39-12.05c2-2.1,3.8-4.16,5.23-5.92,3.54-4.37,9.12-4.12,11.79-3.68h0a12,12,0,0,1,1.53.33c.67.68,1.31,1.31,1.93,1.87.24-1,.54-2.24.89-3.56H147.41v-33.5H324.18a29.5,29.5,0,0,1,.8-11H147.41V146H366.66v33.5h-4a8.4,8.4,0,0,1-1.44.65c.28,1.7.6,3.84.88,6.24.15,1.29.28,2.65.39,4.07,1,12.3.1,28-10.77,28-1.37,0-2.61,0-3.74-.16V228c.1-.21.2-.42.27-.61a2.77,2.77,0,0,1,2.55-1.71h12l.21,0h.12l.15,0a2,2,0,0,1,.5.19l.24.13.25.16,0,0a5.28,5.28,0,0,1,.69.59l.24.25c.17.17.32.37.49.57l.24.31.23.32.24.35.23.36c.2.31.4.64.59,1,.09.17.19.33.28.51.19.34.38.7.56,1.07l.27.55.05.11.21.45c.48,1,.93,2.09,1.33,3.11l.32.78.43,1.15c.08.24.18.48.25.71.3.82.56,1.57.76,2.21.07.17.11.33.16.48.32,1,.5,1.6.5,1.6l-.11.12Z"/><rect class="cls-3" x="178.34" y="329.03" width="6.25" height="3.93"/><rect class="cls-3" x="187.07" y="329.03" width="5.97" height="1.96"/><path class="cls-3" d="M198.28,339.79a6.82,6.82,0,1,1-2.44-5.24A6.84,6.84,0,0,1,198.28,339.79Z"/><path class="cls-3" d="M147.41,28V358.12h168.9c-.14-7.93-.21-16.24-.24-23.57,0-7.53,0-14,0-18a30.15,30.15,0,0,1-4.63-3,79.4,79.4,0,0,0-46.65,35.88,6.15,6.15,0,0,1-7.53,1.05,6.25,6.25,0,0,1-.21-1.78c0-1.93,2.1-7.78,4.63-14.22,3.2-8.12,7.1-17.17,8.42-20.41,3.2-7.86,27.62-23.36,27.62-23.36l.33.17,12.31-22.52L318.78,253l-6.49,3.73c-.69-.4-9.19-5.3-11.93-8-.2-.2-.36-.38-.5-.55l-.17-.24a1.4,1.4,0,0,1-.09-.17,1.15,1.15,0,0,1-.06-.17c.25-.35.4-.57.43-.62h0a158.16,158.16,0,0,0,12.39-12.05c2-2.1,3.8-4.16,5.23-5.92,3.54-4.37,9.12-4.12,11.79-3.68h0a12,12,0,0,1,1.53.33c.67.68,1.31,1.31,1.93,1.87.24-1,.54-2.24.89-3.56,0,0,0-.1,0-.15,1.12-4.23,1.43-10.43,2.35-11.8,1.69,2.45,5.47,5.7,11.83,6.28V228c.1-.21.2-.42.27-.61a2.77,2.77,0,0,1,2.55-1.71h12l.21,0h.12l.15,0a2,2,0,0,1,.5.19l.24.13.25.16,0,0a5.28,5.28,0,0,1,.69.59l.24.25c.17.17.32.37.49.57l.24.31.23.32.24.35.23.36V28ZM208.9,349.54H175v-22.7h33.9Z"/><path class="cls-3" d="M366.66,257.9V358.12H331.85l5.7-23.57,3.7-15.31,1.07-4.48.16.15s4.88-25.85,9.31-46.48c2.71-12.59,5.24-23.23,6.4-24.88,0,0-.22,8.73.43,10.91.18.6,1.28,0,2.79-1.2A7,7,0,0,0,366.66,257.9Z"/><circle class="cls-6" cx="257.2" cy="377.11" r="14.4"/><polygon class="cls-6" points="364.95 0 149.13 0 133.62 18.33 380.45 18.33 364.95 0"/><rect class="cls-5" x="147.41" y="27.98" width="219.24" height="13.27"/><path class="cls-8" d="M355.87,37.87v-1.7h1V33.05h-1V31.36a.9.9,0,0,0-.9-.9H342.22a.9.9,0,0,0-.9.9v6.51a.9.9,0,0,0,.9.9H355A.9.9,0,0,0,355.87,37.87Zm.52-4.3v2.08h-.52V33.57Zm-14.17,4.68a.38.38,0,0,1-.38-.38V31.36a.39.39,0,0,1,.38-.39H355a.39.39,0,0,1,.38.39v6.51a.38.38,0,0,1-.38.38Z"/><path class="cls-8" d="M352.46,35.65a.25.25,0,0,0,.26-.16l.09-.2-.16-.13-4.58-2.83v1.5h-3.34a.32.32,0,0,0-.27.15l-.09.21.17.13,4.83,2.54V35.65Zm-3.61.35-3.14-1.65h2.88V33.26l3,1.87h-2.76Z"/><path class="cls-8" d="M320.25,34.33a.49.49,0,0,0,.7.7,3.37,3.37,0,0,1,4.79,0,.51.51,0,0,0,.7,0,.5.5,0,0,0,0-.7A4.38,4.38,0,0,0,320.25,34.33Z"/><path class="cls-8" d="M321.58,35.66a.49.49,0,1,0,.69.69,1.53,1.53,0,0,1,2.15,0,.46.46,0,0,0,.34.15.5.5,0,0,0,.35-.84A2.49,2.49,0,0,0,321.58,35.66Z"/><circle class="cls-8" cx="323.34" cy="37.42" r="0.65"/><path class="cls-8" d="M327.78,33a6.3,6.3,0,0,0-8.88,0,.49.49,0,0,0,.7.7,5.29,5.29,0,0,1,7.49,0,.52.52,0,0,0,.35.14.49.49,0,0,0,.34-.14A.48.48,0,0,0,327.78,33Z"/><path class="cls-9" d="M157.31,164.3l-2.45,2a7.49,7.49,0,0,1-.91-3.58,7.59,7.59,0,0,1,.85-3.49l2.46,2a4.72,4.72,0,0,0-.24,1.47A4.33,4.33,0,0,0,157.31,164.3Z"/><path class="cls-9" d="M169.08,162.73a8.2,8.2,0,0,1-.16,1.57,7.62,7.62,0,0,1-2.66,4.33h0l-2.47-2a4.5,4.5,0,0,0,1.94-2.31h-4v-3H169A7.35,7.35,0,0,1,169.08,162.73Z"/><path class="cls-9" d="M166.26,168.62h0a7.58,7.58,0,0,1-11.4-2.32l2.45-2a4.5,4.5,0,0,0,6.48,2.31Z"/><path class="cls-9" d="M166.35,156.9l-2.45,2a4.51,4.51,0,0,0-6.64,2.35l-2.46-2a7.62,7.62,0,0,1,2.74-3,7.57,7.57,0,0,1,8.81.61Z"/><path class="cls-9" d="M161.52,199.9a7.1,7.1,0,0,0-7.24,6.94,6.81,6.81,0,0,0,2.41,5.16v2.07a.31.31,0,0,0,.3.31.28.28,0,0,0,.16,0l1.68-1.05a7.49,7.49,0,0,0,2.69.49,6.94,6.94,0,1,0,0-13.87Z"/><path class="cls-9" d="M167.28,204.36a.36.36,0,0,0-.46-.1l-3.8,2.07-2.36-2a.37.37,0,0,0-.5,0l-4.38,4.38a.37.37,0,0,0,.44.58l3.79-2.07,2.37,2a.37.37,0,0,0,.49,0l4.38-4.38A.37.37,0,0,0,167.28,204.36Z"/><path class="cls-9" d="M165.8,246.49h-8.56a3.06,3.06,0,0,0-3.05,3v4.28a3,3,0,0,0,3.05,3h8.56a3,3,0,0,0,3-3v-4.28A3,3,0,0,0,165.8,246.49Zm-2.06,5.39-4,1.92a.16.16,0,0,1-.23-.15v-3.94a.15.15,0,0,1,.23-.14l4,2A.15.15,0,0,1,163.74,251.88Z"/><path class="cls-5" d="M175,326.84v22.7h33.9v-22.7ZM187.07,329h6v2h-6Zm-8.73,0h6.26V333h-6.26Zm13.1,17.6a6.84,6.84,0,1,1,6.84-6.84A6.84,6.84,0,0,1,191.44,346.63Z"/><rect class="cls-3" x="178.34" y="329.03" width="6.25" height="3.93"/><rect class="cls-3" x="187.07" y="329.03" width="5.97" height="1.96"/><path class="cls-6" d="M195.84,334.55a6.84,6.84,0,1,0,2.44,5.24A6.87,6.87,0,0,0,195.84,334.55Zm-4.4,9.17a3.86,3.86,0,1,1,3.85-3.86A3.85,3.85,0,0,1,191.44,343.72Z"/><rect class="cls-6" x="178.34" y="329.03" width="6.25" height="3.93"/><rect class="cls-6" x="187.07" y="329.03" width="5.97" height="1.96"/><rect class="cls-6" x="198.28" y="320.3" width="7.12" height="3.34"/><path class="cls-6" d="M198.19,320.33a3.66,3.66,0,0,1,7.31,0Z"/><rect class="cls-3" x="197.09" y="323.64" width="9.43" height="3.2"/><polygon class="cls-10" points="198.28 323.1 198.28 323.64 197.09 323.64 197.09 326.84 175 326.84 175.79 325.89 178.1 323.1 198.28 323.1"/><polygon class="cls-3" points="206.25 323.64 205.4 323.64 205.4 323.1 205.8 323.1 206.25 323.64"/><polygon class="cls-6" points="208.9 326.84 206.53 326.84 206.53 323.98 208.9 326.84"/><ellipse class="cls-3" cx="183.28" cy="75.92" rx="3.58" ry="0.22" transform="translate(58.57 230.2) rotate(-73.55)"/><path class="cls-11" d="M314.88,141V141a8.42,8.42,0,0,1-7-.54c-.26-.26-.51-.53-.78-.81-7.29-7.76-18.6-25.52-21.34-25.52l-.21,0c-2.17.26-2.07,4.74-7.55,11.49a55.59,55.59,0,0,1-12.09,10.75c-9.58,6.53-16.24,7-20.45,6a4.18,4.18,0,0,0,.8-.29,3,3,0,0,0,.87-.65,3.77,3.77,0,0,0,.44-.52c.1-.14.19-.3.28-.45s.15-.25.22-.39.14-.28.2-.43.13-.29.19-.45a17.45,17.45,0,0,0,.79-2.66c.08-.37.15-.74.22-1.12a.25.25,0,0,1,0-.08.9.9,0,0,0,0-.18c.07-.31.11-.64.16-1,.12-.84.21-1.7.28-2.57.05-.6.09-1.21.12-1.81s.07-1.41.09-2.11c0-.42,0-.83,0-1.24,0-1.27,0-2.48,0-3.54a62.23,62.23,0,0,0,6.43-4.55l1.84.46,4.81-5.81c4.81-4,10-8.24,14.56-11.55s8.28-5.54,10.58-5.67c8.3-.47,23.13,35.38,23.13,35.38l2.4,6.12A8.7,8.7,0,0,1,314.88,141Z"/><path class="cls-8" d="M289.88,141.89l.05-1.37c-3.4-3.38-7.87-9.42-12-14.87,5.48-6.75,5.38-11.23,7.55-11.49,4.52,8.61,8,17,8,17l5.13,10.78Z"/><path class="cls-12" d="M276.35,97.15,263.21,113l-4.81,5.81-1.84-.46L247,116l-2.64-.66,1-.9.51-.48,12.2,3,15.37-18.53-20.79-3.28-10.65,13c-.44.07,0,1.54,0,1.54l-2.3-.68-.28-.26,12.65-15.49Z"/><polygon class="cls-3" points="239.69 109.07 238.88 109.46 239.41 108.81 239.69 109.07"/><path class="cls-11" d="M273.43,98.44,258.06,117l-12.2-3c20.42-7.22,11.68-19-3.87-4.46l-.69-.33,11.34-14Z"/><path class="cls-11" d="M331.56,144.17c-1.65-.09-10.62-.07-17,0h-1.67c-1.07,0-2.87,0-5,0v-3.63a8.42,8.42,0,0,0,7,.54l.09,0a9.91,9.91,0,0,0,1.32-.51s9.82-1.82,15.27,0S334.18,144.3,331.56,144.17Z"/><path class="cls-6" d="M431.35,396c-1.65-.09-10.63-.07-17.05,0h-1.67c-1.07,0-2.87,0-5,0l.68-4.08a1.22,1.22,0,0,0,1.05,1.18,9.2,9.2,0,0,0,5.31-.19l.08,0c.29-.08.2-.42.5-.55.14-.06.67.11.82,0s9.82-1.82,15.28,0S434,396.15,431.35,396Z"/><path class="cls-6" d="M480.76,396c-1.65-.09-10.62-.07-17,0H462c-1.07,0-2.86,0-5,0v-3.63a6.44,6.44,0,0,0,2,.8,9,9,0,0,0,2.39.22,10.42,10.42,0,0,0,2.63-.48.32.32,0,0,0,.09,0,9.8,9.8,0,0,0,1.31-.51h0l1.34-.21h0c2.9-.42,9.69-1.18,13.9.22C486.22,394.14,483.38,396.15,480.76,396Z"/><path class="cls-3" d="M312.85,144.14l-5,0v-.07C310,144.11,311.78,144.12,312.85,144.14Z"/><path class="cls-3" d="M313,144.14h1.57a6.27,6.27,0,0,1-.87,0Z"/><path class="cls-8" d="M307.07,139.66c.27.28.52.55.78.81v3.63c-7.11,0-17.92.07-17.92.07v-3.7a8.47,8.47,0,0,0,7,.56c.46-.14-1.27-1.13-.76-1.37C296.16,139.66,302.62,139.69,307.07,139.66Z"/><path class="cls-3" d="M315,141l-.09,0V141Z"/><rect class="cls-1" x="231.43" y="77.11" width="10.21" height="2.04"/><polygon class="cls-1" points="227.13 79.81 227.13 77.77 229.54 75.45 229.54 77.49 227.13 79.81"/><path class="cls-1" d="M229.54,77.49v-2C235.34,70,238,67.06,238,63.67v2C238,69.1,235.34,72,229.54,77.49Z"/><g class="cls-13"><path class="cls-1" d="M229.54,77.49v-2C235.34,70,238,67.06,238,63.67v2c0,3.39-2.66,6.31-8.46,11.78"/></g><path class="cls-5" d="M234.12,58.77c4.89,0,7,3.33,7,6.55,0,4.16-3,7.53-7.84,12.1l-1.81,1.66v.07h10.21v2.53H227.13V79.81l2.41-2.32C235.34,72,238,69.1,238,65.71c0-2.29-1.12-4.41-4.51-4.41a7.78,7.78,0,0,0-4.82,1.91l-1-2.15A10.1,10.1,0,0,1,234.12,58.77Z"/><path class="cls-1" d="M234.12,58.77v-2c4.89,0,7,3.33,7,6.55v2C241.08,62.1,239,58.77,234.12,58.77Z"/><g class="cls-14"><path class="cls-1" d="M234.12,58.77v-2h.12v2h-.12"/><path class="cls-1" d="M234.24,58.77v-2a8.23,8.23,0,0,1,1.13.08v2a10.18,10.18,0,0,0-1.13-.08"/><path class="cls-1" d="M235.37,58.85v-2a6.71,6.71,0,0,1,1,.2v2a10.44,10.44,0,0,0-1-.2"/><path class="cls-1" d="M236.4,59.05V57a6.52,6.52,0,0,1,1.08.38v2a6.52,6.52,0,0,0-1.08-.38"/><path class="cls-1" d="M237.48,59.43v-2a5.86,5.86,0,0,1,2.63,2.31v2a5.92,5.92,0,0,0-2.63-2.31"/><path class="cls-1" d="M240.11,61.74v-2a6.23,6.23,0,0,1,.47.93v2a6.76,6.76,0,0,0-.47-.93"/><path class="cls-1" d="M240.58,62.67v-2a6.82,6.82,0,0,1,.27.84v2.05a6.45,6.45,0,0,0-.27-.85"/><path class="cls-1" d="M240.85,63.52V61.47a6.21,6.21,0,0,1,.16.84v2a5.79,5.79,0,0,0-.16-.83"/><path class="cls-1" d="M241,64.35v-2a8.12,8.12,0,0,1,.07.85v2a8.31,8.31,0,0,0-.07-.86"/><path class="cls-1" d="M241.08,65.21v0"/></g><path class="cls-1" d="M227.68,61.06V59a10,10,0,0,1,6.44-2.29v2A10.1,10.1,0,0,0,227.68,61.06Z"/><g class="cls-15"><path class="cls-1" d="M227.68,61.06V59A9.51,9.51,0,0,1,229.26,58v2a10.16,10.16,0,0,0-1.58,1.07"/><path class="cls-1" d="M229.26,60V58a9.29,9.29,0,0,1,1.4-.62v2a11.86,11.86,0,0,0-1.4.62"/><path class="cls-1" d="M230.66,59.37v-2a11,11,0,0,1,1.23-.36V59a9.24,9.24,0,0,0-1.23.35"/><path class="cls-1" d="M231.89,59V57c.37-.08.76-.14,1.17-.19v2a8.41,8.41,0,0,0-1.17.19"/><path class="cls-1" d="M233.06,58.83v-2c.34,0,.7-.05,1.06-.05v2a9.16,9.16,0,0,0-1.06.06"/></g><g class="cls-16"><path class="cls-1" d="M247.82,70.52v-2c0,5.86,1.82,9.18,4.61,9.18v2C249.64,79.7,247.82,76.38,247.82,70.52Z"/><g class="cls-17"><g class="cls-16"><path class="cls-18" d="M247.82,70.52v-2c0,.14,0,.28,0,.42v2c0-.14,0-.28,0-.42"/><path class="cls-1" d="M247.83,70.94v-2a22.13,22.13,0,0,0,.17,2.56v2.05a22.47,22.47,0,0,1-.17-2.57"/><path class="cls-1" d="M248,73.51V71.46a16.32,16.32,0,0,0,.34,1.79v2a16.78,16.78,0,0,1-.34-1.79"/><path class="cls-1" d="M248.34,75.3v-2a12.45,12.45,0,0,0,.43,1.34v2a13.21,13.21,0,0,1-.43-1.34"/><path class="cls-1" d="M248.77,76.64v-2a7.52,7.52,0,0,0,.55,1.1v2a8.68,8.68,0,0,1-.55-1.1"/><path class="cls-1" d="M249.32,77.74v-2a4.1,4.1,0,0,0,1.77,1.68v2a4.16,4.16,0,0,1-1.77-1.68"/><path class="cls-1" d="M251.09,79.42v-2a2.3,2.3,0,0,0,.5.18v2a4.24,4.24,0,0,1-.5-.18"/><path class="cls-1" d="M251.59,79.6v-2a2,2,0,0,0,.41.08v2.05l-.41-.08"/><path class="cls-1" d="M252,79.68V77.63a2.6,2.6,0,0,0,.4,0v2l-.4,0"/><path class="cls-1" d="M252.4,79.7v-2h0v2h0"/></g></g></g><g class="cls-16"><path class="cls-1" d="M252.43,79.7v-2c3.15,0,4.66-3.64,4.66-9.39v2C257.09,76.07,255.58,79.7,252.43,79.7Z"/><g class="cls-19"><g class="cls-16"><path class="cls-1" d="M252.43,79.7v-2l.4,0v2h-.4"/><path class="cls-1" d="M252.83,79.69v-2a2.57,2.57,0,0,0,.4-.06v2l-.4.07"/><path class="cls-1" d="M253.23,79.62v-2a2.77,2.77,0,0,0,.41-.12v2a2.77,2.77,0,0,1-.41.12"/><path class="cls-1" d="M253.64,79.5v-2a4.68,4.68,0,0,0,.45-.2v2a2.28,2.28,0,0,1-.45.2"/><path class="cls-1" d="M254.09,79.3v-2c2-1.1,3-4.36,3-9v2c0,4.63-1,7.89-3,9"/></g></g></g><path class="cls-5" d="M252.65,58.77c4.79,0,7.51,4.24,7.51,11.41,0,7.66-2.86,11.88-7.9,11.88-4.44,0-7.44-4.12-7.51-11.57S248,58.77,252.65,58.77Zm-.22,20.93c3.15,0,4.66-3.63,4.66-9.39,0-5.54-1.44-9.18-4.62-9.18-2.69,0-4.65,3.26-4.65,9.39,0,5.86,1.82,9.18,4.61,9.18"/><g class="cls-16"><g class="cls-20"><g class="cls-16"><path class="cls-1" d="M252.65,58.77v-2h.09v2h-.09"/><path class="cls-1" d="M252.74,58.77v-2a6.4,6.4,0,0,1,.88.06v2c-.29,0-.58,0-.88-.06"/><path class="cls-1" d="M253.62,58.83v-2a5.81,5.81,0,0,1,.85.17v2a7.52,7.52,0,0,0-.85-.17"/><path class="cls-1" d="M254.47,59V57a6.18,6.18,0,0,1,1,.34v2a7.4,7.4,0,0,0-1-.34"/><path class="cls-1" d="M255.44,59.34v-2a6.6,6.6,0,0,1,2.9,2.66v2a6.72,6.72,0,0,0-2.9-2.66"/><path class="cls-1" d="M258.34,62V60a10.07,10.07,0,0,1,.73,1.47v2a10.07,10.07,0,0,0-.73-1.47"/><path class="cls-1" d="M259.07,63.47v-2a11.84,11.84,0,0,1,.52,1.62v2a12.8,12.8,0,0,0-.52-1.62"/><path class="cls-1" d="M259.59,65.09v-2a16.15,16.15,0,0,1,.38,2v2a16.51,16.51,0,0,0-.38-2"/><path class="cls-1" d="M260,67.09v-2a22,22,0,0,1,.19,2.66v2.05a22.36,22.36,0,0,0-.19-2.67"/><path class="cls-18" d="M260.16,69.76v0"/></g></g></g><g class="cls-16"><g class="cls-21"><g class="cls-16"><path class="cls-1" d="M244.75,70.49v-2c0-5.62,1.82-9.37,4.66-10.91v2c-2.84,1.54-4.66,5.29-4.66,10.92"/><path class="cls-1" d="M249.41,59.57v-2a6,6,0,0,1,.9-.4v2a6,6,0,0,0-.9.4"/><path class="cls-1" d="M250.31,59.17v-2a5.26,5.26,0,0,1,.8-.23v2a6.73,6.73,0,0,0-.8.23"/><path class="cls-1" d="M251.11,58.94v-2a6.51,6.51,0,0,1,.79-.13v2a6.51,6.51,0,0,0-.79.13"/><path class="cls-1" d="M251.9,58.81v-2a6.17,6.17,0,0,1,.75,0v2c-.25,0-.51,0-.75,0"/></g></g></g><path class="cls-5" d="M265.33,77.73a2.05,2.05,0,0,1,2.07,2.18,2.08,2.08,0,1,1-4.16,0A2.05,2.05,0,0,1,265.33,77.73Z"/><g class="cls-16"><path class="cls-1" d="M265.33,77.73v-2a2.05,2.05,0,0,1,2.07,2.18v2A2.05,2.05,0,0,0,265.33,77.73Z"/><g class="cls-22"><g class="cls-16"><path class="cls-1" d="M265.33,77.73v-2h0v2h0"/><path class="cls-1" d="M265.36,77.73v-2l.28,0v2l-.28,0"/><path class="cls-1" d="M265.64,77.75v-2l.27.05v2l-.27-.06"/><path class="cls-1" d="M265.91,77.81v-2l.31.11v2a1.63,1.63,0,0,0-.31-.11"/><path class="cls-1" d="M266.22,77.92v-2a1.92,1.92,0,0,1,.83.74v2a1.8,1.8,0,0,0-.83-.74"/><path class="cls-1" d="M267.05,78.66v-2a2,2,0,0,1,.16.33v2a1.91,1.91,0,0,0-.16-.32"/><path class="cls-1" d="M267.21,79v-2a1.76,1.76,0,0,1,.1.3v2.05a1.6,1.6,0,0,0-.1-.31"/><path class="cls-1" d="M267.31,79.29V77.24a1.8,1.8,0,0,1,.06.32v2a1.55,1.55,0,0,0-.06-.31"/><path class="cls-1" d="M267.37,79.6v-2a3,3,0,0,1,0,.31v2c0-.1,0-.21,0-.31"/></g></g></g><g class="cls-16"><path class="cls-1" d="M263.24,79.91v-2a2.05,2.05,0,0,1,2.09-2.18v2A2.05,2.05,0,0,0,263.24,79.91Z"/><g class="cls-23"><g class="cls-16"><path class="cls-1" d="M263.24,79.91v-2a2.12,2.12,0,0,1,1.06-1.93v2a2.1,2.1,0,0,0-1.06,1.92"/><path class="cls-1" d="M264.3,78v-2a1.39,1.39,0,0,1,.28-.12v2l-.28.13"/><path class="cls-1" d="M264.58,77.86v-2l.25-.08v2.05l-.25.07"/><path class="cls-1" d="M264.83,77.79V75.74l.26,0v2l-.26,0"/><path class="cls-1" d="M265.09,77.75v-2h.24v2l-.24,0"/></g></g></g><path class="cls-5" d="M265.3,69.83a2.17,2.17,0,1,1,2.1-2.15A2,2,0,0,1,265.3,69.83Z"/><g class="cls-16"><path class="cls-1" d="M263.24,67.68v-2a2.08,2.08,0,1,1,4.16,0v2a2.08,2.08,0,1,0-4.16,0Z"/><g class="cls-24"><g class="cls-16"><path class="cls-1" d="M263.24,67.68v-2a2.11,2.11,0,0,1,1.06-1.93v2a2.12,2.12,0,0,0-1.06,1.93"/><path class="cls-1" d="M264.3,65.75v-2a1.39,1.39,0,0,1,.28-.12v2a2.36,2.36,0,0,0-.28.12"/><path class="cls-1" d="M264.58,65.63v-2l.25-.08v2.05a1,1,0,0,0-.25.07"/><path class="cls-1" d="M264.83,65.56V63.51l.26,0v2l-.26,0"/><path class="cls-1" d="M265.09,65.51v-2h.27v2h-.27"/><path class="cls-1" d="M265.36,65.5v-2l.28,0v2l-.28,0"/><path class="cls-1" d="M265.64,65.52v-2l.27.05v2l-.27,0"/><path class="cls-1" d="M265.91,65.57v-2l.31.11v2l-.31-.11"/><path class="cls-1" d="M266.22,65.68v-2a1.86,1.86,0,0,1,.83.74v2.05a1.88,1.88,0,0,0-.83-.75"/><path class="cls-1" d="M267.05,66.43V64.38a1.68,1.68,0,0,1,.16.33v2a1.91,1.91,0,0,0-.16-.32"/><path class="cls-1" d="M267.21,66.75v-2a1.51,1.51,0,0,1,.1.3v2a1.76,1.76,0,0,0-.1-.3"/><path class="cls-1" d="M267.31,67.05V65a1.65,1.65,0,0,1,.06.32v2a1.8,1.8,0,0,0-.06-.32"/><path class="cls-1" d="M267.37,67.37v-2a3,3,0,0,1,0,.31v2a3,3,0,0,0,0-.31"/></g></g></g><polygon class="cls-5" points="279.88 59.15 279.88 81.68 276.9 81.68 276.9 62 276.83 62 272.89 64.11 272.29 61.79 277.25 59.15 279.88 59.15"/><polygon class="cls-1" points="272.29 61.79 272.29 59.74 277.25 57.11 277.25 59.15 272.29 61.79"/><rect class="cls-1" x="277.25" y="57.11" width="2.62" height="2.04"/><path class="cls-1" d="M289.94,79.53v-2a5.54,5.54,0,0,0,.59,0c.53,0,1.14-.06,1.9-.14v2.05c-.76.07-1.37.13-1.9.13A5.54,5.54,0,0,1,289.94,79.53Z"/><g class="cls-25"><path class="cls-1" d="M289.94,79.53v-2c.16,0,.33,0,.51,0v2a4.12,4.12,0,0,1-.51,0"/><path class="cls-1" d="M290.45,79.56v-2h.08c.53,0,1.14-.06,1.9-.14v2.05c-.76.07-1.37.13-1.9.13h-.08"/></g><path class="cls-1" d="M292.43,79.43V77.38a8.57,8.57,0,0,0,4.75-2.17v2A8.59,8.59,0,0,1,292.43,79.43Z"/><g class="cls-26"><path class="cls-1" d="M292.43,79.43V77.38a7.09,7.09,0,0,0,.78-.14v2.05c-.26.06-.52.1-.78.14"/><path class="cls-1" d="M293.21,79.29V77.24a8.45,8.45,0,0,0,1.12-.32v2a10.3,10.3,0,0,1-1.12.32"/><path class="cls-1" d="M294.33,79v-2a10.07,10.07,0,0,0,1.21-.53v2a8.75,8.75,0,0,1-1.21.54"/><path class="cls-1" d="M295.54,78.43v-2a8.64,8.64,0,0,0,1.64-1.18v2a8.22,8.22,0,0,1-1.64,1.18"/></g><path class="cls-1" d="M297.18,77.25v-2a9.88,9.88,0,0,0,3-6v2A9.85,9.85,0,0,1,297.18,77.25Z"/><g class="cls-27"><path class="cls-1" d="M297.18,77.25v-2a9.88,9.88,0,0,0,3-6v2a9.85,9.85,0,0,1-3,6"/></g><path class="cls-1" d="M299.9,69V67a2,2,0,0,0,.28-1.12v2A2,2,0,0,1,299.9,69Z"/><g class="cls-28"><path class="cls-1" d="M299.9,69V67a2,2,0,0,0,.28-1.12v2A2,2,0,0,1,299.9,69"/></g><path class="cls-1" d="M291.06,66.57v-2c0,2.81,1.72,4.79,4.37,4.79A5.08,5.08,0,0,0,299.9,67v2a5.08,5.08,0,0,1-4.47,2.36C292.78,71.36,291.06,69.38,291.06,66.57Z"/><g class="cls-29"><path class="cls-1" d="M291.06,66.57v0"/><path class="cls-1" d="M291.06,66.68V64.63a5.87,5.87,0,0,0,.05.74v2a5.71,5.71,0,0,1-.05-.73"/><path class="cls-1" d="M291.11,67.41v-2c0,.23.08.45.13.67v2a6.63,6.63,0,0,1-.13-.67"/><path class="cls-1" d="M291.24,68.08V66c.06.22.13.43.21.64v2a6,6,0,0,1-.21-.64"/><path class="cls-1" d="M291.45,68.72v-2a4.79,4.79,0,0,0,.34.68v2a4.79,4.79,0,0,1-.34-.68"/><path class="cls-1" d="M291.79,69.4v-2a4,4,0,0,0,1.77,1.57v2a4,4,0,0,1-1.77-1.57"/><path class="cls-1" d="M293.56,71v-2a4.14,4.14,0,0,0,.65.23v2a3.33,3.33,0,0,1-.65-.23"/><path class="cls-1" d="M294.21,71.2v-2a3.5,3.5,0,0,0,.58.11v2a5,5,0,0,1-.58-.12"/><path class="cls-1" d="M294.79,71.32v-2a3.69,3.69,0,0,0,.58,0v2a5.46,5.46,0,0,1-.58,0"/><path class="cls-1" d="M295.37,71.36v-2h.06a6.26,6.26,0,0,0,.63,0v2q-.3,0-.63,0h-.06"/><path class="cls-1" d="M296.06,71.33v-2a6.53,6.53,0,0,0,.66-.1v2a6.49,6.49,0,0,1-.66.11"/><path class="cls-1" d="M296.72,71.22v-2a6.36,6.36,0,0,0,.66-.19v2a4.58,4.58,0,0,1-.66.19"/><path class="cls-1" d="M297.38,71V69a4.69,4.69,0,0,0,.72-.33v2a5.83,5.83,0,0,1-.72.32"/><path class="cls-1" d="M298.1,70.71v-2a4.62,4.62,0,0,0,1.8-1.7v2a4.57,4.57,0,0,1-1.8,1.71"/></g><path class="cls-1" d="M288,66.78v-2a7.76,7.76,0,0,1,7.76-8v2A7.76,7.76,0,0,0,288,66.78Z"/><g class="cls-30"><path class="cls-1" d="M288,66.78v-2a8,8,0,0,1,4.05-7.1v2A8,8,0,0,0,288,66.78"/><path class="cls-1" d="M292.07,59.69v-2a7.29,7.29,0,0,1,1-.45v2a7.34,7.34,0,0,0-1,.46"/><path class="cls-1" d="M293.1,59.23v-2a6.55,6.55,0,0,1,.92-.27v2a6.55,6.55,0,0,0-.92.27"/><path class="cls-1" d="M294,59v-2a8.23,8.23,0,0,1,.91-.15v2A8.26,8.26,0,0,0,294,59"/><path class="cls-1" d="M294.93,58.82v-2a7.81,7.81,0,0,1,.85,0v2a7.77,7.77,0,0,0-.85,0"/></g><path class="cls-1" d="M295.78,58.77v-2c4.65,0,7.51,3.75,7.51,9.49v2C303.29,62.52,300.43,58.77,295.78,58.77Z"/><g class="cls-31"><path class="cls-1" d="M295.78,58.77v-2h.1v2h-.1"/><path class="cls-1" d="M295.88,58.77v-2a7.3,7.3,0,0,1,.94.07v2c-.31,0-.62-.06-.94-.07"/><path class="cls-1" d="M296.82,58.84v-2a8.81,8.81,0,0,1,.92.17V59a6.8,6.8,0,0,0-.92-.18"/><path class="cls-1" d="M297.74,59V57a7.27,7.27,0,0,1,1.05.38v2a6.22,6.22,0,0,0-1.05-.37"/><path class="cls-1" d="M298.79,59.39v-2a6.78,6.78,0,0,1,3,2.7V62.1a6.8,6.8,0,0,0-3-2.71"/><path class="cls-1" d="M301.79,62.1V60.05a8.67,8.67,0,0,1,.66,1.33v2a9,9,0,0,0-.66-1.32"/><path class="cls-1" d="M302.45,63.42v-2a10.35,10.35,0,0,1,.43,1.33v2.05a10.51,10.51,0,0,0-.43-1.34"/><path class="cls-1" d="M302.88,64.76V62.71a14,14,0,0,1,.29,1.49v2a13.11,13.11,0,0,0-.29-1.49"/><path class="cls-1" d="M303.17,66.25v-2a16.59,16.59,0,0,1,.12,1.77v2a16.4,16.4,0,0,0-.12-1.76"/><path class="cls-1" d="M303.29,68v0"/></g><path class="cls-5" d="M295.78,58.77c4.65,0,7.51,3.75,7.51,9.5,0,5-1.67,8.42-3.91,10.57a11.39,11.39,0,0,1-6.6,3,15.84,15.84,0,0,1-2.31.18h-.53v-2.5a5.54,5.54,0,0,0,.59,0c.53,0,1.14-.06,1.9-.13a8.59,8.59,0,0,0,4.75-2.18,9.85,9.85,0,0,0,3-6h-.1a6.68,6.68,0,0,1-5.34,2.43,6.55,6.55,0,0,1-6.72-6.9A7.76,7.76,0,0,1,295.78,58.77ZM299.9,69a2,2,0,0,0,.28-1.11c0-3.85-1.43-6.79-4.64-6.79-2.63,0-4.48,2.29-4.48,5.47,0,2.81,1.72,4.79,4.37,4.79A5.08,5.08,0,0,0,299.9,69"/><path class="cls-3" d="M366.66,146v33.5h-4c1.84-1.07,2.47-2.71.85-5.19-4.75-7.29-18.28-7-25-6.33a15.28,15.28,0,0,0-12.48,8.68A20.79,20.79,0,0,0,325,179.5H147.41V146Z"/><path class="cls-3" d="M336.14,212c-.92,1.37-1.23,7.57-2.35,11.8,0,.05,0,.11,0,.15H147.41v-33.5H324.18c.08.83.18,1.7.32,2.59,3.2,20.89,6.41,18.27,11.35,19.15a3.56,3.56,0,0,0,.95.05C337,212.54,336,211.73,336.14,212Z"/><path class="cls-3" d="M318.78,253l-8.43,15.44H147.41V234.92h165A158.16,158.16,0,0,1,300,247h0c0,.05-.18.27-.43.62a1.15,1.15,0,0,0,.06.17,1.4,1.4,0,0,0,.09.17l.17.24c.14.17.3.35.5.55,2.74,2.69,11.24,7.59,11.93,8Z"/><polygon class="cls-3" points="325.01 241.59 319.13 252.94 318.78 252.99 325.01 241.59"/><path class="cls-3" d="M366.66,248.5h0l-.68.66C366.21,248.94,366.44,248.73,366.66,248.5Z"/><path class="cls-3" d="M366.66,257.9v10.53H351.79c2.71-12.59,5.24-23.23,6.4-24.88,0,0-.22,8.73.43,10.91.18.6,1.28,0,2.79-1.2A7,7,0,0,0,366.66,257.9Z"/><polygon class="cls-6" points="147.41 190.46 159.7 179.5 185.95 179.5 175.62 190.46 147.41 190.46"/><polygon class="cls-6" points="147.41 234.92 159.7 223.97 185.95 223.97 175.62 234.92 147.41 234.92"/><path class="cls-3" d="M356.27,225.65h-5.48a2.77,2.77,0,0,0-2.55,1.71c-.07.19-.17.4-.27.61v-4h6.4Z"/><path class="cls-3" d="M316.31,358.12H147.41L175,329.62v19.92h33.9v-15h52.77c-2.53,6.44-4.61,12.29-4.63,14.22a6.25,6.25,0,0,0,.21,1.78,6.15,6.15,0,0,0,7.53-1.05,77.62,77.62,0,0,1,11.47-14.95h39.82C316.1,341.88,316.17,350.19,316.31,358.12Z"/><polygon class="cls-3" points="366.66 358.12 331.85 358.12 337.55 334.55 341.25 334.55 366.66 358.12"/><path class="cls-3" d="M347.84,190.46h-1c.06-1.73.25-3,.48-3S347.77,188.73,347.84,190.46Z"/><path class="cls-3" d="M359.72,190.46h-1c.07-1.73.26-3,.49-3S359.65,188.73,359.72,190.46Z"/><polyline class="cls-3" points="338.45 146 366.66 146 346.06 125.05 308.8 125.05"/><path class="cls-6" d="M181.29,139.93l-5.67,6H147.41l20.07-17.89h0c2.24,2.63,4.82,5.3,7.6,8.34A15.18,15.18,0,0,0,181.29,139.93Z"/><polygon class="cls-3" points="175.79 325.89 175.79 326.84 175 326.84 175 329.62 147.41 358.12 147.41 268.43 175.62 268.43 175.79 325.89"/><path class="cls-3" d="M366.66,268.43v89.69l-25.41-23.57V319.24l1.07-4.48.16.15s4.88-25.85,9.31-46.48Z"/><path class="cls-8" d="M362.65,179.5a8.4,8.4,0,0,1-1.44.65,22.57,22.57,0,0,1-5,1,85.33,85.33,0,0,1-14.93-.35v7.57l-1.42.33-.44.12c-.42.11-.83.25-1.2.38l-.37.13-.35.13a11.83,11.83,0,0,0-2.05,1h0l-.33.22a5.33,5.33,0,0,0-.58.46l-.25.23-.21.23c-.07.09-.15.17-.21.26l-.19.24c-.07.11-.14.22-.2.33a2.67,2.67,0,0,0-.2.42l-.09.22a.48.48,0,0,0,0,.15l-.09.32,0,.18c-.54,3.39,3.43,6.82,3.43,6.82-.54,4.31,3.68,11.37.38,11.7a3.56,3.56,0,0,1-.95-.05c-4.94-.88-8.15,1.74-11.35-19.15-.14-.89-.24-1.76-.32-2.59a29.5,29.5,0,0,1,.8-11,20.79,20.79,0,0,1,1.07-2.84A15.28,15.28,0,0,1,338.53,168c6.69-.65,20.22-1,25,6.33C365.12,176.79,364.49,178.43,362.65,179.5Z"/><path class="cls-11" d="M362.48,190.46c-.11-1.42-.24-2.78-.39-4.07-.28-2.4-.6-4.54-.88-6.24a22.57,22.57,0,0,1-5,1,85.33,85.33,0,0,1-14.93-.35v7.57l-1.42.33-.44.12c-.42.11-.83.25-1.2.38l-.37.13-.35.13a11.83,11.83,0,0,0-2.05,1h0l-.33.22a5.33,5.33,0,0,0-.58.46l-.25.23-.21.23c-.07.09-.15.17-.21.26l-.19.24c-.07.11-.14.22-.2.33a2.67,2.67,0,0,0-.2.42l-.09.22a.48.48,0,0,0,0,.15l-.09.32,0,.18c-.54,3.39,3.43,6.82,3.43,6.82-.54,4.31,3.68,11.37.38,11.7.17.29.35.58.55.86,1.69,2.46,4.26,4.6,10.62,5.18,1.13.11,2.37.16,3.74.16C362.58,218.45,363.47,202.76,362.48,190.46Zm-15.13,5.59c-.28,0-.51-1.92-.51-4.29,0-.45,0-.89,0-1.3.06-1.73.25-3,.48-3s.42,1.27.49,3c0,.41,0,.85,0,1.3C347.86,194.13,347.63,196.05,347.35,196.05Zm11.88,0c-.28,0-.51-1.92-.51-4.29,0-.45,0-.89,0-1.3.07-1.73.26-3,.49-3s.42,1.27.49,3c0,.41,0,.85,0,1.3C359.74,194.13,359.51,196.05,359.23,196.05Z"/><path class="cls-3" d="M347.86,191.76c0,2.37-.23,4.29-.51,4.29s-.51-1.92-.51-4.29c0-.45,0-.89,0-1.3.06-1.73.25-3,.48-3s.42,1.27.49,3C347.86,190.87,347.86,191.31,347.86,191.76Z"/><path class="cls-3" d="M359.74,191.76c0,2.37-.23,4.29-.51,4.29s-.51-1.92-.51-4.29c0-.45,0-.89,0-1.3.07-1.73.26-3,.49-3s.42,1.27.49,3C359.73,190.87,359.74,191.31,359.74,191.76Z"/><path class="cls-6" d="M347.86,191.76c0,2.37-.23,4.29-.51,4.29s-.51-1.92-.51-4.29c0-.45,0-.89,0-1.3.06-1.73.25-3,.48-3s.42,1.27.49,3C347.86,190.87,347.86,191.31,347.86,191.76Z"/><path class="cls-6" d="M359.74,191.76c0,2.37-.23,4.29-.51,4.29s-.51-1.92-.51-4.29c0-.45,0-.89,0-1.3.07-1.73.26-3,.49-3s.42,1.27.49,3C359.73,190.87,359.74,191.31,359.74,191.76Z"/><path class="cls-3" d="M348,218.29V228a9.06,9.06,0,0,1-2.07,2.9c-2.21,2-5.89,2.66-11.89-2.34-.38-.31-.76-.65-1.15-1,.24-1,.54-2.24.89-3.56,0,0,0-.1,0-.15,1.12-4.23,1.43-10.43,2.35-11.8C337.83,214.46,341.61,217.71,348,218.29Z"/><path class="cls-3" d="M300.36,248.73a5.8,5.8,0,0,1-.5-.55C300,248.35,300.16,248.53,300.36,248.73Z"/><polygon class="cls-3" points="325.01 241.59 319.13 252.94 318.78 252.99 325.01 241.59"/><path class="cls-3" d="M319,317.93a18.35,18.35,0,0,1-2.73-1.14"/><path class="cls-11" d="M342.32,314.76l-1.07,4.48-3.7,15.31-5.7,23.57H316.31c-.14-7.93-.21-16.24-.24-23.57,0-7.53,0-14,0-18a30.15,30.15,0,0,1-4.63-3,79.4,79.4,0,0,0-46.65,35.88,6.15,6.15,0,0,1-7.53,1.05,6.25,6.25,0,0,1-.21-1.78c0-1.93,2.1-7.78,4.63-14.22,3.2-8.12,7.1-17.17,8.42-20.41,3.2-7.86,27.62-23.36,27.62-23.36l.33.17-.33.61s36.13,17.78,43.54,22.45l.24.16A9.2,9.2,0,0,1,342.32,314.76Z"/><path class="cls-5" d="M114.25,300.25c-.66,2.73-3.12,2.09-6,2.09-2.75,0-5.07.56-5.9-1.61l-.32,3v2.18c0,3.43,2.79,3.55,6.22,3.55s6.22-.12,6.22-3.55Z"/><path class="cls-11" d="M331.85,358.12l-7.74,32a23.64,23.64,0,0,0-5.89.24l0,0c-1.07-2.1-1.62-16.43-1.89-32.25Z"/><path class="cls-6" d="M265.14,349.88V358c-2.53,0-4.65,0-5.91.09h-.14c-.58,0-1.21,0-1.84,0-7.59-.07-18.2-.12-20.15.07-3.1.29-7.22-5.79,0-8.22s18.06,0,18.06,0a9,9,0,0,0,1.55,1.13.26.26,0,0,0,.1.07l.44.25a6.15,6.15,0,0,0,7.53-1.05A4.21,4.21,0,0,0,265.14,349.88Z"/><path class="cls-6" d="M326,396.09c-.12,3.39-.56,7.09-.56,7.09s-9.93,8.94-16.21,6.54.28-7.85,3.33-8.51c2-.43,3.62-2.25,4-5.12a12.62,12.62,0,0,0-.51-5.35s.9-.17,2.16-.34a23.64,23.64,0,0,1,5.89-.24,2.26,2.26,0,0,1,1.34.58C326,391.37,326.08,393.65,326,396.09Z"/><path class="cls-11" d="M312.29,256.72c-2.21,3-9.57,6.69-15.81,9.69a26.73,26.73,0,0,1-8.8,2,99.64,99.64,0,0,1-14.56,0c-4.33-.26-7.86-.65-9.24-.73a31.63,31.63,0,0,0-6.34.73c-2.76.46-5.33.84-6.21,0C249.72,266.9,255,261,263,263.62c2,.67,19.86-4.79,23.79-6.2,3.35-1.21,11.07-7.47,12.71-9.82a1.15,1.15,0,0,0,.06.17,1.4,1.4,0,0,0,.09.17l.17.24c.14.17.3.35.5.55C303.1,251.42,311.6,256.32,312.29,256.72Z"/><path class="cls-11" d="M372.37,242.68l-.11.12-.1.11a.94.94,0,0,1-.1.1c-.3.32-.8.85-1.44,1.51l-.67.68c-.23.25-.48.5-.73.76l-.4.4-.42.42-.41.42-.65.64-.68.66c-.22.23-.45.44-.68.67-1.61,1.54-3.23,3-4.57,4.09-1.51,1.19-2.61,1.8-2.79,1.2-.65-2.18-.43-10.91-.43-10.91-1.16,1.65-3.69,12.29-6.4,24.88-4.43,20.63-9.31,46.48-9.31,46.48l-.16-.15a9.2,9.2,0,0,0-.83-.59l-.24-.16c-7.41-4.67-43.54-22.45-43.54-22.45L298,291l12.31-22.52L318.78,253l.34-.06,5.9-11.34L318.78,253l-6.49,3.73c-.69-.4-9.19-5.3-11.93-8-.2-.2-.36-.38-.5-.55l-.17-.24a1.4,1.4,0,0,1-.09-.17,1.15,1.15,0,0,1-.06-.17c.25-.35.4-.57.43-.62h0a158.16,158.16,0,0,0,12.39-12.05c2-2.1,3.8-4.16,5.23-5.92,3.54-4.37,9.12-4.12,11.79-3.68h0a12,12,0,0,1,1.53.33c.67.68,1.31,1.31,1.93,1.87.39.36.77.7,1.15,1,6,5,9.68,4.3,11.89,2.34A9.06,9.06,0,0,0,348,228c.1-.21.2-.42.27-.61a2.77,2.77,0,0,1,2.55-1.71h12l.21,0h.12l.15,0a2,2,0,0,1,.5.19l.24.13.25.16,0,0a5.28,5.28,0,0,1,.69.59l.24.25c.17.17.32.37.49.57l.24.31.23.32.24.35.23.36c.2.31.4.64.59,1,.09.17.19.33.28.51.19.34.38.7.56,1.07l.27.55.05.11.21.45c.48,1,.93,2.09,1.33,3.11.11.26.21.53.32.78l.43,1.15c.08.24.18.48.25.71.3.82.56,1.57.76,2.21l.16.48C372.19,242.07,372.37,242.68,372.37,242.68Z"/><polygon class="cls-3" points="318.78 252.99 325.01 241.59 319.13 252.94 318.78 252.99"/><path class="cls-11" d="M348,218.29V228a9.06,9.06,0,0,1-2.07,2.9c-2.21,2-5.89,2.66-11.89-2.34-.38-.31-.76-.65-1.15-1,.24-1,.54-2.24.89-3.56,0,0,0-.1,0-.15,1.12-4.23,1.43-10.43,2.35-11.8C337.83,214.46,341.61,217.71,348,218.29Z"/><path class="cls-3" d="M366.66,248.5l.68-.66-.68.67-.68.66C366.21,248.94,366.44,248.73,366.66,248.5Z"/><path class="cls-11" d="M400.89,194.74l-.64,23a4.32,4.32,0,0,1-1,2.56c-7.4,8.66-9.9,24.54-18.62,32.67a18.22,18.22,0,0,1-6.93,4.13,13.94,13.94,0,0,1-7,.75,7,7,0,0,1-5.25-4.64c1.34-1,3-2.55,4.57-4.09l.68-.66L368,247.2l.41-.42.42-.42.4-.4,1.4-1.44c.64-.66,1.14-1.19,1.44-1.51a.94.94,0,0,0,.1-.1l.1-.11.12.1c2,1.66,5-.44,8.23-4.13,7.27-8.3,15.62-24.68,15.62-24.68s.51-2.26,2-13.17S400.89,194.74,400.89,194.74Z"/><rect class="cls-3" x="6.61" y="340.59" width="127.18" height="55.51"/><polyline class="cls-3" points="114.42 305.89 114.42 303.13 133.78 303.13 133.78 332.95 0.5 332.95 31.93 303.13 101.98 303.13 101.98 305.89"/><rect class="cls-3" x="0.5" y="332.95" width="133.29" height="7.64"/><polygon class="cls-8" points="42.26 326.76 19.27 326.76 38.18 307.96 58.84 307.96 42.26 326.76"/><path class="cls-3" d="M102,305.89v-4.18a6.39,6.39,0,0,1,.17-1.45c.67,2.72,3.12,2.08,6,2.08s5.39.64,6-2.09a6.41,6.41,0,0,1,.17,1.46v4.18"/><path class="cls-3" d="M102.15,300.26A6.21,6.21,0,0,1,106,295.9a6.25,6.25,0,0,1,6.62,1.41,6.19,6.19,0,0,1,1.65,2.94c-.66,2.73-3.12,2.09-6,2.09S102.82,303,102.15,300.26Z"/><path class="cls-3" d="M114.42,305.89v5.25c0,3.44-2.75,4.21-6.18,4.21s-6.26-.77-6.26-4.21v-5.25"/><path class="cls-3" d="M102.15,300.26A6.21,6.21,0,0,1,106,295.9v-1.43a2.25,2.25,0,0,1,2.26-2.25,2.2,2.2,0,0,1,1.59.66,2.22,2.22,0,0,1,.66,1.59v1.46a6.08,6.08,0,0,1,2.11,1.38,6.19,6.19,0,0,1,1.65,2.94"/><path class="cls-3" d="M114.25,300.25c-.66,2.73-3.12,2.09-6,2.09s-5.38.64-6-2.08A6.21,6.21,0,0,1,106,295.9v-1.43a2.25,2.25,0,0,1,2.26-2.25,2.2,2.2,0,0,1,1.59.66,2.22,2.22,0,0,1,.66,1.59v1.46a6.08,6.08,0,0,1,2.11,1.38A6.19,6.19,0,0,1,114.25,300.25Z"/><path class="cls-32" d="M110.49,294.47v1.46a6.2,6.2,0,0,0-4.51,0v-1.43a2.25,2.25,0,0,1,2.26-2.25,2.2,2.2,0,0,1,1.59.66A2.22,2.22,0,0,1,110.49,294.47Z"/><path class="cls-8" d="M100.89,251.68c-2,2.23-9.17,0-9.17,0,2.84-25.27-5.89-25.37-5.89-25.37,8.13,10.59-2.25,23.8-5.67,25.47-.52.26-.89.24-1-.1l-2.5-8.35c7-11.13-2.84-7.2-2.84-7.2-7.86.44-4.59-5-4.59-5-7.77-10.43-19.35-4-22.23-2.13-.44.28-.68.46-.68.46,3.4-22,24-16.53,31.3-13.89a5.1,5.1,0,0,0,4.64-.56C87,211.8,98,206.38,97.84,225.3,97.62,249.4,102.85,249.44,100.89,251.68Z"/><path class="cls-11" d="M100.23,286l-.22.14c-1.23.76-7.32,4.38-11.72,4.44a4.74,4.74,0,0,1-3-.82c-.21-1.08-.42-2.14-.65-3.15-.38-3.51-1.25-9.24-3-10.75.08.24,1.69,4.88,3,10.75.17,1.63.24,2.78.24,2.78a3.51,3.51,0,0,0,.41.37c.36,1.85.66,3.78.85,5.67-3.43,3.49-10,3-15.77,4.21a15,15,0,0,0-4.29,1.59,9.43,9.43,0,0,0-1.45,1l0-4.92,0-3.71.08-12.51a14,14,0,0,0-1-4.77c3.68-12.17,4.8-15.91,6.61-15.82a2.27,2.27,0,0,1,1.48.62S73.28,268,89,264.05c.53-.12,1.08-.27,1.64-.43C90.64,263.62,108.86,279.34,100.23,286Z"/><line class="cls-3" x1="81.58" y1="275.85" x2="81.57" y2="275.85"/><line class="cls-3" x1="70.34" y1="267.89" x2="64.66" y2="281.09"/><path class="cls-3" d="M100.46,300.84c-.53,1.14-4.26,1.82-9.17,2.29H64.61v-.9a9.43,9.43,0,0,1,1.45-1,15,15,0,0,1,4.29-1.59c5.76-1.23,12.34-.72,15.77-4.21a8.25,8.25,0,0,0,2.18-4.85c4.4-.06,10.49-3.68,11.72-4.44C100.67,290.6,101.6,298.33,100.46,300.84Z"/><path class="cls-3" d="M64.6,302.23v.9h-1A10.25,10.25,0,0,1,64.6,302.23Z"/><polygon class="cls-8" points="49.2 274.11 45.95 276.32 35.65 261.16 32.98 257.23 36.23 255.02 40.93 261.93 49.2 274.11"/><path class="cls-3" d="M64.61,303.13H58.44C52.12,296.32,46,280.37,45.9,279.88s-10.27-5.13-11.47-10.14a14,14,0,0,1,1.22-8.58L46,276.32l3.25-2.21-8.27-12.18a2.93,2.93,0,0,0,.82-.27c.74-.39,7.09-.87,7.53,9.28.36,8.46,11.58,19.29,15.3,22.66l0,3.71,0,4.92Z"/><path class="cls-11" d="M463.48,243.63c-1.12,6.65-.24,16.58,1.49,27.05.17,1,.34,2,.52,3.06,1.43,8,3.28,16.21,5.06,23.35,3.07,12.35,5.89,21.61,5.89,21.61a67.74,67.74,0,0,0-8.3-1.26c-14-1.35-30.35.5-39.68,1.88-4.67.7-7.59,1.27-7.59,1.27,6.4-4.51,7.85-63.47,7.85-63.47l0,0c-.48.17-6.35,5.13-11.57,4.52-.16-.8-.33-1.83-.52-3a97.75,97.75,0,0,1-1.33-14.11v-.22a12,12,0,0,1,.67-4.52,1.54,1.54,0,0,1,.23-.37c4.15,2,6.92-2.27,7.28-2.85l0-.07c4.8-7.86,15.13-6.48,15.13-6.48.28.29.56.56.83.81,7.14,6.56,13.64,1.78,16.13-.61a12,12,0,0,0,1.08-1.14s3.35-.73,9.89,1.89,13.53,22.84,13.53,22.84c-1.5-.15-3.19,1.39-4.9,3.31-3.08,3.44-6.28,8.12-8.79,6.64a3.11,3.11,0,0,1-.86-.79C461.84,258.19,463.29,245.22,463.48,243.63Z"/><path class="cls-11" d="M416.6,258.64c-3.43-.53-6.48-2.28-7.36-6.57-.46-1.78-.91-3.56-1.37-5.34-1.24-12.58-7.62-31.26-7.62-31.26l.64-23.05s3.05-4.07,2.91,1.74,5.13,39.71,10.85,44.3a8.24,8.24,0,0,0,1.52,1,1.54,1.54,0,0,0-.23.37,10.38,10.38,0,0,0-.67,4.52v.22A97.75,97.75,0,0,0,416.6,258.64Z"/><path class="cls-11" d="M465.68,388.07a26.7,26.7,0,0,1-1.63,4.24h0a9.91,9.91,0,0,1-1.32.51l-.08,0a10.5,10.5,0,0,1-2.63.48,9,9,0,0,1-2.39-.22c-1.68-5.91,1.61-27.25,3.29-37.32,1.52-9.13-7.25-26.12-9.52-30.32-.24,0-.49.11-.73.18-.87,4.9-4.28,24.15-5.1,30.79-.72,5.73-20.44,28.51-30.82,36.06a7.28,7.28,0,0,1-.88.32l-.09,0a9.2,9.2,0,0,1-5.31.19c-.39-8.88,14.6-31.73,19.28-37.27,3.51-4.17,1.88-25.39.75-36.46,9.33-1.38,25.65-3.23,39.68-1.88,1.9,8.56,8.55,22.5,9.32,31.06C478.33,358.16,465.68,388.07,465.68,388.07Z"/><path class="cls-11" d="M450.63,325.66c-2.53.7-5,1.86-5.8,3.81"/><path class="cls-11" d="M451.36,325.48a33.82,33.82,0,0,1,5.68-.82"/><path class="cls-8" d="M469.93,180.88c-5.25-.39-18.7-1.17-19.43.88-1,2.73.45,14.29-1.84,15.05s-3.67-8.8-5.58-7.42c-5.68,4.1-.94,11.24,3.11,12.27,2.33.58-4.45,10.44-6.74,11.42,0,0-18-40.17,6.94-45.84S479.2,175.79,469.93,180.88Z"/><path class="cls-8" d="M485.2,270.68v3.06H465.49c-.18-1-.35-2-.52-3.06Z"/><path class="cls-11" d="M487.6,273.74v23.35h-5.26c.34-3.55-.69-9.39-2.26-8-1.26,1.1-.75,4.51-.52,6.2-.43-2.44-1.5-7.88-2.05-5.65a17.18,17.18,0,0,0,0,6.23c-.3-1.43-.92-9.85-2.39-5.36-1.05,3.17-.85,5.29-.43,6.59h-4.1c-1.78-7.14-3.63-15.33-5.06-23.35Z"/><path class="cls-11" d="M479.31,270.68H467.73c-.46-2.34-.94-4.79-1.34-6.92,2.51,1.48,5.71-3.2,8.79-6.64A117.38,117.38,0,0,1,479.31,270.68Z"/><path class="cls-11" d="M482.34,297.09c0,.14,0,.27,0,.39a1.49,1.49,0,0,1-1.47,1.31h-4.05a2.13,2.13,0,0,1-2-1.31l-.14-.39c-.42-1.3-.62-3.42.43-6.59,1.47-4.49,2.09,3.93,2.39,5.36a17.18,17.18,0,0,1,0-6.23c.55-2.23,1.62,3.21,2.05,5.65-.23-1.69-.74-5.1.52-6.2C481.65,287.7,482.68,293.54,482.34,297.09Z"/><ellipse class="cls-3" cx="53.37" cy="239.69" rx="0.32" ry="2.81" transform="translate(-100.4 48.23) rotate(-26.22)"/><circle class="cls-4" cx="257.2" cy="377.11" r="7.69"/><line class="cls-11" x1="362.48" y1="190.46" x2="366.66" y2="190.46"/><path class="cls-1" d="M328.68,307.16c-13.17-6.84-31-15.6-31-15.6L298,291l-.33-.17s-24.42,15.5-27.62,23.36c-1.32,3.24-5.22,12.29-8.42,20.41-2.53,6.44-4.61,12.29-4.63,14.22a6.25,6.25,0,0,0,.21,1.78,6.15,6.15,0,0,0,7.53-1.05,79.43,79.43,0,0,1,44.94-35.38,26.84,26.84,0,0,1,8.42-3.18C323.24,310.2,326.55,308.77,328.68,307.16Z"/><path class="cls-33" d="M303.58,306.33a50,50,0,0,0,7.58,7.33"/><ellipse class="cls-6" cx="462.61" cy="190.5" rx="3.23" ry="0.55" transform="translate(188.1 608.76) rotate(-79.1)"/><polyline class="cls-3" points="353.98 189.58 356.44 200.99 351.34 200.99"/><path class="cls-34" d="M197.93,54.85c1.86,4,.81,7.55-2.82,10.65l-15.46,1.09c-6,2.44-7.51,5.92-7.36,9.81C167,62.5,161.74,79.91,170,79.91l-3.51,6.93-4.09,6c-7.75-6.7-12.32-17-10-26.07C153.53,49.12,174.57,43.13,197.93,54.85Z"/><path class="cls-11" d="M250.14,126.44c0,.41,0,.82,0,1.24,0,.7-.05,1.4-.09,2.11s-.07,1.21-.12,1.81c-.07.87-.16,1.73-.28,2.57,0,.33-.09.66-.16,1a.9.9,0,0,1,0,.18.25.25,0,0,0,0,.08c-.07.38-.14.75-.22,1.12a17.45,17.45,0,0,1-.79,2.66c-.06.16-.12.3-.19.45s-.13.29-.2.43-.14.26-.22.39-.18.31-.28.45a5.73,5.73,0,0,1-.44.52,3,3,0,0,1-.87.65,4.18,4.18,0,0,1-.8.29c-7.41,2.11-47.3,3.48-64.14-2.43a15.18,15.18,0,0,1-6.2-3.53c-2.78-3-5.36-5.71-7.6-8.34h0c-5.33-6.23-8.71-12.17-8.1-22,0,0,3.63-3.42,14.62-2.4,0,0,8.29,7.42,64.81,4.58l.6.57.28.26-.81.39-32.37,15.3-5.9-2.85c-.82,3-1.94,7.21-2.8,10.89,4.63,1.79,11.43,4.2,15,4.47,4.62.35,24.3-15.41,31.6-22L247,116l.06.06a9.67,9.67,0,0,1,3.05,6.8v.08C250.15,124,250.16,125.17,250.14,126.44Z"/><path class="cls-11" d="M201.73,117.92s-.47,1.61-1.12,4c-.82,3-1.94,7.21-2.8,10.89s-1.41,6.74-1.19,7.67c0,0-18.05-8.51-19.36-20.28a7,7,0,0,1,8.14-7.55C188.89,113.2,194.09,114.66,201.73,117.92Z"/></g></g></svg>