<svg xmlns="http://www.w3.org/2000/svg" viewBox="0 0 500.52 393.86"><defs><style>.cls-1,.cls-6,.cls-7{fill:#fff;}.cls-2{fill:#42a2db;stroke-width:0.21px;}.cls-2,.cls-6{stroke:#030303;}.cls-2,.cls-3,.cls-4,.cls-6,.cls-7{stroke-miterlimit:10;}.cls-3,.cls-5{fill:#010101;}.cls-3,.cls-4,.cls-7{stroke:#010101;}.cls-4{fill:none;}</style></defs><title>Asset 15</title><g id="Layer_2" data-name="Layer 2"><g id="Layer_2-2" data-name="Layer 2"><path class="cls-1" d="M398.19,90.29v235a19.36,19.36,0,0,1-19.35,19.35H231.28a19.36,19.36,0,0,1-19.35-19.35v-235a19.35,19.35,0,0,1,19.35-19.36H378.84A19.35,19.35,0,0,1,398.19,90.29Z"/><path class="cls-2" d="M499.26,393.36H5.32s-23.17-33.23,28.17-42.47,64.94-19.65,90.06-55.49,36.32-60.28,62.35-57.84,17.3,41.14,80.39,27S393.26,238.71,415,268s7.12,41.05,36.58,56.69,45.09,26.79,47.7,42.07S499.26,393.36,499.26,393.36Z"/><path class="cls-1" d="M395.62,51H218A19.36,19.36,0,0,0,198.69,70.4V374A19.35,19.35,0,0,0,218,393.36H395.62A19.35,19.35,0,0,0,415,374V70.4A19.36,19.36,0,0,0,395.62,51Zm2.57,274.25a19.36,19.36,0,0,1-19.35,19.35H231.28a19.36,19.36,0,0,1-19.35-19.35v-235a19.35,19.35,0,0,1,19.35-19.36H378.84a19.35,19.35,0,0,1,19.35,19.36Z"/><path class="cls-3" d="M156.64,16.37A29.7,29.7,0,0,1,149,19.72a6,6,0,0,1-4.49-.31c-3.62-2.31-13.9-5.35-20.27.87s-10.72,10.86-10.72,10.86,0-8.69-6.66-5.79,1.73,14.33,1.73,14.33S105.74,41.49,106,47a18.6,18.6,0,0,0,.27,2.39c.45,2.54-.26,4.2-1.45,5.17a4.71,4.71,0,0,1-1.65.88c-2.18.68-4.77,0-5.44-1.42-1.3-2.75-16.8-40.54-6.52-45.61s31.14-11.59,53.73-5.36S156.64,16.37,156.64,16.37Z"/><path class="cls-4" d="M146.29,39.4c1.09,6.51,2.1,8.68,2.1,8.68H140s-4.12,15.43-7.39,15.64c-1.29.09-6.06-.85-11.38-2.34-6.37-1.78-13.53-4.34-16.42-6.82,1.19-1,1.9-2.63,1.45-5.17A18.6,18.6,0,0,1,106,47c-.24-5.51,2.58-7.32,2.58-7.32s-8.39-11.44-1.73-14.33,6.66,5.79,6.66,5.79,4.35-4.63,10.72-10.86,16.65-3.18,20.27-.87a6,6,0,0,0,4.49.31C147.48,26.08,145.61,35.32,146.29,39.4Z"/><path class="cls-4" d="M121.22,61.38a108.55,108.55,0,0,1-3.49,11.34c-.82,2.25-1.52,4-1.85,4.81-5.2-1.35-11.28-2.75-17.27-3.68,1.92-4.26,3.52-12.28,4.54-18.41a4.71,4.71,0,0,0,1.65-.88C107.69,57,114.85,59.6,121.22,61.38Z"/><path class="cls-4" d="M130.14,81.73c-50.32-12.54-46.84,23.7-46.84,23.7C56.12,73,76.77,70.43,98.61,73.85c6,.93,12.07,2.33,17.27,3.68C123.61,79.55,129.42,81.48,130.14,81.73Z"/><line class="cls-4" x1="83.3" y1="105.43" x2="81.12" y2="116.37"/><path class="cls-4" d="M70.1,171.5,67,186.93a6.38,6.38,0,0,0,3.88,7.16c1.56.63,3.45,1.37,5.57,2.14"/><path class="cls-4" d="M135,173.84c.54,9.17-1.26,20-10,26.29a14.72,14.72,0,0,1-2.21,1.33"/><path class="cls-5" d="M127.61,80.91l-11.73-3.38,1.85-4.81s7.78-1.9,12.49,9A16.16,16.16,0,0,0,128.84,93c1.06,4.84.11,33.74.86,51.47"/><path class="cls-4" d="M98.72,146.55c1.71,10.86,8.42,20,11.85,24.08-2.34,5.42-6.6,13.65-12.26,18l-.15,0a38,38,0,0,1-16.75-7.08,86.15,86.15,0,0,1-11.31-10C61.22,162,54.68,149.22,65.42,137a165.38,165.38,0,0,0,15.7-20.62c6.64-10.56,7.76-16.16,7.76-16.16S98.14,79.94,108.56,97,96.41,131.78,98.72,146.55Z"/><path class="cls-3" d="M110,183.47a15.3,15.3,0,0,1-5.13,5.61c-6.16,4-13.63,2.36-13.63,2.36a12.6,12.6,0,0,0,7.12-2.85c5.66-4.31,9.92-12.54,12.26-18,1.34-3.09,2.05-5.25,2.05-5.25C113.32,173.76,112.11,179.52,110,183.47Z"/><path class="cls-4" d="M120.68,202.36c-1.42,23.9-6.07,81.11-18.67,95.95-1.31,1.54-2.73,3.43-4.25,5.6-17.16,24.58-46.17,85.63-46.17,85.63s-11.08,5.21-12.39-3.91,19.55-73,35.84-95.14c13.21-18,5-73.79,1.42-94.26,11.85,4.32,31.07,10,43.21,6.45C120,202.58,120.35,202.48,120.68,202.36Z"/><path class="cls-3" d="M120.68,296.57c-5,23.46-7.66,78.19-7.86,82.11s-3.68,9.55-8.88,6.08-5.22-7.82-4.79-19.55c.3-8.12,0-40.8-1.39-61.3,1.52-2.17,2.94-4.06,4.25-5.6,12.6-14.84,17.25-72.05,18.67-95.95a18.44,18.44,0,0,0,2.18-.9C123.48,221.66,124.77,277.49,120.68,296.57Z"/><path class="cls-3" d="M173.11,134.66a12.43,12.43,0,0,0-1,4.73c.37,3.68-24.59,29.41-37.11,34.45-.46-7.63-2.52-14.13-3.58-16-.95-1.66-1.47-6.75-1.75-13.4,5.39,0,13.26-.9,19.27-5.06,10.13-7,24.47-15.29,27.08-15.29C177.93,124.1,174.82,129.86,173.11,134.66Z"/><path class="cls-4" d="M189.08,119.76c-1.09,1.74,5,.22,1.31,4.34,0,0,4.34,0,1.51,1.75,0,0,3.48.86-1.08,2.16s2.58,4-13.7,6c-1.45.18-2.78.38-4,.61,1.71-4.8,4.82-10.56,2.94-10.56,0,0,20.2-16.72,22.37-13.2C200.45,114.18,190.17,118,189.08,119.76Z"/><path class="cls-5" d="M84.8,393.35c-3.39-.18-21.8-.13-35-.07-1.11,0-2.19,0-3.21,0H46.4c-2.2-.05-5.89-.06-10.26-.08v-7.46a12.49,12.49,0,0,0,3.55,1.5,19,19,0,0,0,10.89-.38l.17-.07a15,15,0,0,0,1.82-.67c.28-.11.58-.23.89-.38,0,0,20.14-3.73,31.34,0S90.17,393.62,84.8,393.35Z"/><path class="cls-5" d="M146.41,388.72c-3.38-.18-21.8-.13-35-.07-1.12,0-2.2,0-3.21,0H108c-2.19-.05-5.88-.06-10.25-.08v-7.46a12.5,12.5,0,0,0,3.54,1.5,19,19,0,0,0,10.89-.38l.18-.07a14.79,14.79,0,0,0,1.81-.66c.29-.12.59-.24.89-.39,0,0,20.15-3.73,31.34,0S151.79,389,146.41,388.72Z"/><ellipse class="cls-5" cx="138.58" cy="32.03" rx="4.94" ry="0.87" transform="translate(66.38 154.57) rotate(-72.51)"/><path class="cls-4" d="M395.62,51H218A19.36,19.36,0,0,0,198.69,70.4V374A19.35,19.35,0,0,0,218,393.36H395.62A19.35,19.35,0,0,0,415,374V70.4A19.36,19.36,0,0,0,395.62,51Zm2.57,274.25a19.36,19.36,0,0,1-19.35,19.35H231.28a19.36,19.36,0,0,1-19.35-19.35v-235a19.35,19.35,0,0,1,19.35-19.36H378.84a19.35,19.35,0,0,1,19.35,19.36Z"/><path class="cls-4" d="M398.19,90.29v235a19.36,19.36,0,0,1-19.35,19.35H231.28a19.36,19.36,0,0,1-19.35-19.35v-235a19.35,19.35,0,0,1,19.35-19.36H378.84A19.35,19.35,0,0,1,398.19,90.29Z"/><path class="cls-4" d="M398.19,90.29v235a19.36,19.36,0,0,1-19.35,19.35H231.28a19.36,19.36,0,0,1-19.35-19.35v-235a19.35,19.35,0,0,1,19.35-19.36H378.84A19.35,19.35,0,0,1,398.19,90.29Z"/><circle class="cls-4" cx="306.83" cy="367.06" r="17.36"/><polyline class="cls-4" points="211.93 286.93 262.06 310.38 299.44 269.33 338.96 289.86 366.32 253.69 398.19 273.24"/><circle class="cls-5" cx="366.16" cy="254.83" r="6.68"/><circle class="cls-5" cx="339.87" cy="288.72" r="6.68"/><circle class="cls-5" cx="298.38" cy="268.19" r="6.68"/><circle class="cls-5" cx="261.65" cy="310.38" r="6.68"/><rect class="cls-5" x="227.53" y="198.96" width="77.53" height="4.56"/><rect class="cls-5" x="227.53" y="222.41" width="107.58" height="4.56"/><rect class="cls-5" x="227.53" y="245.87" width="101.86" height="4.56"/><rect class="cls-5" x="239.91" y="86.66" width="132.93" height="6.08"/><rect class="cls-5" x="269.89" y="97.72" width="72.96" height="6.08"/><circle class="cls-6" cx="362.11" cy="311.39" r="25.49"/><path class="cls-4" d="M387.6,148.42a64.25,64.25,0,0,1,10.59-4.85v121A64.15,64.15,0,0,1,387.6,148.42Z"/><path class="cls-4" d="M483.61,204.07a64.11,64.11,0,0,1-64.12,64.12c-1.52,0-3-.05-4.51-.16V140.11c1.49-.11,3-.16,4.51-.16A64.13,64.13,0,0,1,483,195,63.36,63.36,0,0,1,483.61,204.07Z"/><polyline class="cls-4" points="362.11 285.9 362.99 311.39 387.25 315.63"/><polyline class="cls-4" points="384.77 299.72 362.99 311.39 353.8 335.49"/><line class="cls-4" x1="398.19" y1="226.97" x2="374.68" y2="248.16"/><polyline class="cls-4" points="414.98 211.85 419.49 207.79 414.98 199.39"/><line class="cls-4" x1="398.19" y1="168.14" x2="387.6" y2="148.42"/><path class="cls-2" d="M483.61,204.07a63.85,63.85,0,0,1-14,40l-50.11-36.29L483,195A63.36,63.36,0,0,1,483.61,204.07Z"/><circle class="cls-2" cx="305.59" cy="147.48" r="36.06"/><path class="cls-1" d="M316.17,149a13.8,13.8,0,1,0-20.8.4,29.2,29.2,0,0,0-17.6,21,36.06,36.06,0,0,0,56.71-1.36A29.24,29.24,0,0,0,316.17,149Z"/><circle class="cls-4" cx="305.59" cy="147.48" r="36.06"/><path class="cls-7" d="M334.48,169.06s-2.19-13.86-18.31-20l-20.8.4s-13.81,4-17.6,21"/><ellipse class="cls-7" cx="305.64" cy="140.29" rx="13.74" ry="13.89"/><path class="cls-1" d="M297.31,150.23l-.79,1c-.77,1,.46,2.32,1.42,1.41a14.93,14.93,0,0,0,2.61-2.78,1,1,0,0,0-1.13-1.47c-1.12.37-2.22.78-3.36,1.11l1.13,1.47.28-.47-1.41-1.41-.8.62,1.37,1.36q.22,0,.36-.27l-1.36-1.37a2.8,2.8,0,0,1-.58.75,1,1,0,0,0-.16,1.21c.93,1.72,3.71.63,5.27.82l-.86-1.5a5.64,5.64,0,0,1-1.31,1.36c-1,.85.43,2.23,1.41,1.41.71-.59,1.54-1,2.28-1.58a1,1,0,0,0-1-1.72,45.41,45.41,0,0,1-4.37,1.85l1.13,1.47a16.06,16.06,0,0,1,1.91-2.05,1,1,0,0,0-1.41-1.42,8.15,8.15,0,0,0-1.81,2,1,1,0,0,0,1.13,1.47c1.37-.45,2.56-1.16,3.92-1.65L300,150.43c-.65,1.14-1.47,2.13-2.14,3.25a1,1,0,0,0,.86,1.5c1.88,0,4.46-2.23,6.11-3.06l-1.21-1.57c-.9,1.11-2.05,2-3,3a1,1,0,0,0,1.21,1.57c1-.62,2-1.29,3.06-2L303.44,152a5.86,5.86,0,0,0-.36,1.07,1,1,0,0,0,.7,1.23c2.18.45,5.39-1.89,7.35-2.54,1.08-.36,2.73-1,3.37-.87.46.1.92.74,1.48.86s1.35-.28,1.26-1c-.13-1.09-.69-1.08-1.42-1.76a1,1,0,0,0-1.7.7c-.05.93.55,1.22,1.22,1.74s1.76-.35,1.47-1.12-.7-.91-1.38-1.36c-1.1-.73-2,1-1,1.73a3.34,3.34,0,0,0,1.2.65c.91.34,1.75-1.06,1-1.67-.15-.13-.33-.42-.47-.56l-1.21,1.57.82.58c.93.65,2.08-.83,1.22-1.57-.51-.44-.9-.89-1.44-1.29a1,1,0,0,0-1.47.6c-.43,1.5-2,1.88-2.88,3a1.08,1.08,0,0,0-.16,1.21l.06-.25,1.37,1.37a9.64,9.64,0,0,1,1.06-1.81,1,1,0,0,0-.86-1.51c-2.87,0-6.58,2.16-9.31,3.11l.77,1.83c.91-.59,1.82-1.12,2.76-1.65s.31-2.25-.77-1.83c-1.74.68-3.5,1.23-5.29,1.77l.77,1.83c1.95-1.09,4-1.9,6-3,1-.56.3-2-.77-1.82a31,31,0,0,0-4.57,1.18c-.83.3-1.08,1.76,0,1.93,4.62.71,9.31-.08,13.95.26l-.27-2c-1.57.6-5.64,1.46-7.3.6v1.73a12.18,12.18,0,0,1,4.5-1.48l-.71-1.71a7.71,7.71,0,0,1-3.15,1.53l1,1.67a3.07,3.07,0,0,1,1-.67L310,152.85c-.56.54-1.27,1.06-1.88,1.54s-.11,1.74.7,1.71c.5,0,1,0,1.5-.1,1.27-.11,1.28-2.11,0-2-.5.06-1,.09-1.5.1l.71,1.71a21.89,21.89,0,0,0,1.88-1.55c.85-.8-.22-2.09-1.21-1.57a4.12,4.12,0,0,0-1.37,1c-.58.72-.07,2,1,1.67a9.71,9.71,0,0,0,4-2c.6-.55.17-1.8-.7-1.7a14.94,14.94,0,0,0-5.51,1.75,1,1,0,0,0,0,1.73c2.37,1.23,6.37.54,8.84-.4a1,1,0,0,0-.26-2c-4.45-.32-9,.49-13.42-.19v1.93a31,31,0,0,1,4.57-1.18l-.77-1.83c-2,1.06-4,1.87-6,3a1,1,0,0,0,.77,1.83c1.79-.54,3.55-1.09,5.29-1.77l-.77-1.83c-.94.53-1.85,1.07-2.76,1.65s-.35,2.22.77,1.83c2.5-.87,6.18-3.09,8.78-3l-.86-1.5a9.68,9.68,0,0,0-1.07,1.81c-.44.85.47,1.93,1.37,1.37,1.06-.67.39-1.5.84-2.07.24-.31,1.88-.65,2.37-1.33a5.48,5.48,0,0,0,.69-1.76l-1.47.6c.33.24.71.69,1,1l1.21-1.57-.82-.58c-.95-.66-2,.78-1.21,1.58.18.18.26.39.47.55l1-1.67-.72-.45-1,1.73c.51.48.67.54.46.16l1.47-1.13-.23,0-1.71.71c.34.32.91,1,.83.35l1.27-1c-.6-.13-.69-.86-1.23-1-.84-.31-1.41.12-2.28.37-1.59.47-3.15.93-4.69,1.55-.85.34-3,1.88-4,1.68l.7,1.23a5.18,5.18,0,0,1,.36-1.07c.33-.81-.77-1.58-1.47-1.13-1,.67-2,1.34-3.06,2l1.21,1.57c1-1.05,2.12-1.89,3-3a1,1,0,0,0-1.21-1.57c-1.23.62-4.1,2.8-5.1,2.79l.86,1.51c.68-1.12,1.5-2.11,2.15-3.25.4-.71-.28-1.77-1.13-1.46-1.34.48-2.58,1.2-3.92,1.64l1.13,1.47a6.75,6.75,0,0,1,1.49-1.62l-1.41-1.42a17.89,17.89,0,0,0-2.23,2.46,1,1,0,0,0,1.13,1.47,49.33,49.33,0,0,0,4.85-2.06l-1-1.72c-.88.66-1.83,1.18-2.68,1.89l1.41,1.41a5.81,5.81,0,0,0,1.63-1.76,1,1,0,0,0-.87-1.51,14,14,0,0,0-3.77.05c.95-.19.21,1.47,1,.18.47-.8-.53-2-1.37-1.37a4.89,4.89,0,0,0-1.08,1c-.64.9.56,1.72,1.37,1.36a2.2,2.2,0,0,0,1.2-.93c.82-1-.56-2.39-1.41-1.41a2.68,2.68,0,0,0-.59.87,1,1,0,0,0,1.13,1.47c1.13-.33,2.23-.74,3.36-1.11l-1.13-1.47a13.33,13.33,0,0,1-2.31,2.38l1.42,1.41.79-1c.78-1-.63-2.43-1.42-1.41Z"/></g></g></svg>