<svg xmlns="http://www.w3.org/2000/svg" viewBox="0 0 652.53 368.18"><defs><style>.cls-1,.cls-12,.cls-3{fill:#fff;}.cls-2{fill:#ee4978;}.cls-11,.cls-3,.cls-4,.cls-6,.cls-8,.cls-9{stroke:#010101;}.cls-10,.cls-11,.cls-12,.cls-3,.cls-4,.cls-6,.cls-8,.cls-9{stroke-miterlimit:10;}.cls-4{fill:#fdfeff;}.cls-5,.cls-7,.cls-9{fill:#010101;}.cls-5{opacity:0.61;}.cls-6,.cls-8{fill:none;}.cls-11,.cls-8{stroke-linecap:round;}.cls-10{fill:#42a2db;}.cls-10,.cls-12{stroke:#030303;}.cls-11{fill:#92c83e;}</style></defs><title>Asset 17</title><g id="Layer_2" data-name="Layer 2"><g id="Layer_2-2" data-name="Layer 2"><path class="cls-1" d="M204.67,100.59v15.73c-21.19-16.87-39.64-8.63-53-3.8-5.84,2.12-7.84,8.51-8.25,15a65.17,65.17,0,0,0,1.58,17l-8.24,8.63,5.49,3.28s7.85,3,4.71,12,19.58,5.09,19.58,5.09,2.79,2,5.15,13.34-10.6,25.43-10.6,25.43H111.25V100.59Z"/><path class="cls-2" d="M649.51,368.18h-634S-12.3,306.73,53.59,291.8,136.94,260,169.19,202s46.61-97.53,80-93.58S271.42,175,352.4,152.12s163-41.84,190.84,5.6,9.15,66.43,47,91.73,57.88,43.34,61.23,68.06S649.51,368.18,649.51,368.18Z"/><path class="cls-3" d="M351.79,163.43s3.87-27.75,14.87-31.18,27.63-12.19,27.63-12.19l87.41,2.21-13,49.3-34.46,2.61-41.68,8.07Z"/><rect class="cls-4" x="111.47" y="99.96" width="93.31" height="111.84"/><rect class="cls-4" x="204.72" y="142.59" width="63.4" height="69.81"/><path class="cls-3" d="M458,302.46c0,6-3.8,10.79-8.49,10.79a7,7,0,0,1-4.22-1.43V293.1a7,7,0,0,1,4.22-1.43C454.17,291.67,458,296.5,458,302.46Z"/><path class="cls-5" d="M391.68,100.81c-.94,1.74,3.55,5.69,2.27,7.35,0,0-7.36-9.3-20.9-2.24,0,0-10-3.53.59-14.13s.59-19.43-3.53-17.66-9.42,12.36-8.83,20c0,0-8.83-24.73-16.49-30.33-7.3-5.34-32.85,15.45-35.15,17.34l-.17.14s-23.55-14.82,0-33.66,61.82-18.26,61.82-18.26V21.73l7.06,10,10-10-4.71,15.9S406.53,73.52,391.68,100.81Z"/><rect class="cls-6" x="204.67" y="142.68" width="63.46" height="69.72"/><ellipse class="cls-7" cx="149.98" cy="147.39" rx="0.98" ry="4.72"/><ellipse class="cls-7" cx="228.68" cy="160.6" rx="0.98" ry="4.72"/><ellipse class="cls-7" cx="64.05" cy="167.36" rx="0.49" ry="2.36"/><ellipse class="cls-7" cx="75.66" cy="167.36" rx="0.49" ry="2.36"/><path class="cls-7" d="M262.37,142.68s-4.71,11.72-3.93,16.43,7.21-3.54,9.69,0V142.68Z"/><rect class="cls-8" x="111.32" y="100.59" width="25.52" height="111.81"/><polygon class="cls-8" points="111.25 162.09 124.14 162.09 124.21 100.59 111.39 100.59 111.25 162.09"/><polygon class="cls-8" points="124.14 162.09 136.9 162.09 136.88 100.59 124.05 100.59 124.14 162.09"/><line class="cls-8" x1="136.83" y1="116.19" x2="111.32" y2="116.19"/><line class="cls-8" x1="111.32" y1="128.23" x2="136.83" y2="128.23"/><line class="cls-8" x1="136.83" y1="138.96" x2="111.32" y2="138.96"/><line class="cls-8" x1="111.32" y1="152.11" x2="136.83" y2="152.11"/><rect class="cls-8" x="17.82" y="144.59" width="23.84" height="67.81"/><rect class="cls-8" x="17.82" y="144.59" width="11.98" height="46.47"/><rect class="cls-8" x="29.8" y="144.59" width="11.98" height="46.47"/><line class="cls-8" x1="41.66" y1="156.38" x2="17.82" y2="156.38"/><line class="cls-8" x1="17.82" y1="165.47" x2="41.66" y2="165.47"/><line class="cls-8" x1="41.66" y1="173.58" x2="17.82" y2="173.58"/><line class="cls-8" x1="17.82" y1="183.51" x2="41.66" y2="183.51"/><rect class="cls-8" x="204.67" y="142.68" width="9.57" height="23.27"/><rect class="cls-8" x="204.67" y="142.79" width="4.81" height="12.69"/><rect class="cls-8" x="209.48" y="142.79" width="4.81" height="12.69"/><line class="cls-8" x1="214.24" y1="145.93" x2="204.67" y2="145.93"/><line class="cls-8" x1="214.24" y1="151.23" x2="204.67" y2="151.23"/><polygon class="cls-7" points="468.72 171.57 481.68 122.6 487.37 122.6 471.42 174.75 468.72 171.57"/><polygon class="cls-7" points="398.42 117.44 482.2 121.88 487.23 122.74 400.63 120.59 398.42 117.44"/><path class="cls-8" d="M362.85,135.55c-6.68,3.66-11.06,26.54-11.06,26.54"/><path class="cls-9" d="M445.26,284.55c0,3-8.08,5.45-18,5.45s-18-2.44-18-5.45,8.07-5.44,18-5.44S445.26,281.54,445.26,284.55Z"/><path class="cls-3" d="M445.26,284.55V316.4c0,3-8.08,5.44-18,5.44s-18-2.44-18-5.44V284.55c0,3,8.07,5.45,18,5.45S445.26,287.56,445.26,284.55Z"/><ellipse class="cls-10" cx="449.82" cy="302.46" rx="4.36" ry="5.54"/><polyline class="cls-6" points="286.26 247.03 274.04 247.03 152.88 247.03 0.24 331.86"/><line class="cls-6" x1="606.19" y1="247.03" x2="462.44" y2="247.03"/><rect class="cls-2" x="193.12" y="62.95" width="16.37" height="16.37"/><line class="cls-11" x1="193.12" y1="79.31" x2="219.21" y2="105.41"/><line class="cls-11" x1="209.48" y1="79.31" x2="224.06" y2="93.89"/><line class="cls-11" x1="209.48" y1="62.95" x2="224.2" y2="77.67"/><rect class="cls-2" x="24.17" y="239.11" width="16.37" height="16.37"/><line class="cls-11" x1="24.17" y1="255.48" x2="50.26" y2="281.58"/><line class="cls-11" x1="40.53" y1="255.48" x2="55.11" y2="270.06"/><line class="cls-11" x1="40.53" y1="239.11" x2="55.25" y2="253.83"/><rect class="cls-8" x="124.21" y="35.21" width="16.37" height="16.37"/><line class="cls-8" x1="124.21" y1="51.57" x2="150.31" y2="77.67"/><line class="cls-8" x1="140.58" y1="51.57" x2="155.16" y2="66.15"/><line class="cls-8" x1="140.58" y1="35.21" x2="155.3" y2="49.93"/><rect class="cls-8" x="66.66" y="67.5" width="16.37" height="16.37"/><line class="cls-8" x1="66.66" y1="83.86" x2="92.75" y2="109.96"/><line class="cls-8" x1="83.02" y1="83.86" x2="97.6" y2="98.44"/><line class="cls-8" x1="83.02" y1="67.5" x2="97.74" y2="82.22"/><rect class="cls-2" x="21.43" y="80.85" width="16.37" height="16.37"/><line class="cls-11" x1="21.43" y1="97.22" x2="47.53" y2="123.32"/><line class="cls-11" x1="37.8" y1="97.22" x2="52.37" y2="111.8"/><line class="cls-11" x1="37.8" y1="80.85" x2="52.52" y2="95.57"/><rect class="cls-8" x="60.12" y="0.5" width="16.37" height="16.37"/><line class="cls-8" x1="60.12" y1="16.87" x2="86.22" y2="42.96"/><line class="cls-8" x1="76.49" y1="16.87" x2="76.49" y2="16.87"/><line class="cls-8" x1="76.49" y1="0.5" x2="91.21" y2="15.22"/><rect class="cls-2" x="76.49" y="16.87" width="9.66" height="9.66"/><line class="cls-11" x1="76.49" y1="26.52" x2="91.88" y2="41.92"/><line class="cls-11" x1="86.14" y1="26.52" x2="94.74" y2="35.12"/><line class="cls-11" x1="86.14" y1="16.87" x2="94.83" y2="25.55"/><path class="cls-7" d="M204.7,184.63s-25.83,17.69-33.36,10L158,212.4h46.71Z"/><polygon class="cls-3" points="402.22 275.01 402.22 280.86 324.5 352.47 227.7 326.6 227.7 321.85 305.28 258.02 402.22 275.01"/><path class="cls-6" d="M170.61,198l.85-12-15.91,3.15c-6.39-4-9.06-23.77-9.06-23.77L139,160.6l4.46-4.71c-.62-2.3-.09-23.63,0-28.33,0-.06,23.39,1.65,23.39,1.65L175.24,144l7.12,2v15.43l6.35-14c10.29-3.78,10.79,11.12,2.8,17.27l13.16,6V142.79h0l.11-30.87c-13.05-3.66-26.85-3.54-44.36-2.53-9.9,3.69-15,10-16.95,18.17"/><path class="cls-6" d="M59.86,154.79s-5.11,22.61,7.31,27.5c3.84.18,8.45-2.31,13.42-6.13.8-.61,1.61-1.26,2.43-1.94l1.15-5.68c6.29,0,5-16.43,0-5.34A14.1,14.1,0,0,1,78.32,155C73.62,153.87,67,154.16,59.86,154.79Z"/><path class="cls-6" d="M81.39,175.55c-.25.89.2,3.43.39,4.48l9.87,6.39c2,6.87-10.34,10.1-15.5,12.44-.29-.38-6.24,9.71-6.24,9.71L65,199c-5.26-2.28-9.82-5.13-9.72-11.84,1.7-1.74,5.17-3.58,10-5.5"/><line class="cls-9" x1="111.25" y1="144.59" x2="41.78" y2="144.59"/><line class="cls-9" x1="41.66" y1="212.4" x2="111.32" y2="212.4"/><path class="cls-6" d="M65.07,182.3c.75,2.41,2.91,4.43,5.79,6.25,3.89-1.45,7.79-4.33,11.69-8"/><path class="cls-9" d="M317.27,42.35c12.71-8.36,32.42-11.17,53.41-13l.61-7.65,6.5,10.91,9.3-6.63-5.87,9.17c11.19,15.59,16.67,32.9,14.89,52.39L394,108.16l-15.78,15.2L308.81,80.85c-3.83-4.63-8.4-5.27-9.81-11.49C300.77,56.24,303.2,52,317.27,42.35Z"/><path class="cls-6" d="M59.86,154.79c-.07-6.34,4-9.72,12.2-10.2,14.49-.51,18.17,11.79,12.09,18.61"/><polygon class="cls-3" points="305.28 258.02 402.21 275.01 324.49 346.91 227.7 321.84 305.28 258.02"/><path class="cls-3" d="M308.81,80.85s6,21.27,7,24.33l-3.5,14h10.21s13.42,22.3,19.92,24.43l21.37-9.18,6.77,17.23,13.95,11.87s28.59,2.28,29.73,0,8.25-18.93,8.25-18.93l-15.36-9-12.43-25.79-.77-1.6-13.49,4.36-11.69-12.16c14.74-10.54,3.43-37.41-6.83-12.77l-4.62,1.59-7.48-16.52a83,83,0,0,1-20.2-5.43Z"/><ellipse class="cls-7" cx="325.61" cy="97.55" rx="0.98" ry="4.72" transform="translate(-13.97 112.53) rotate(-19.2)"/><path class="cls-7" d="M428.78,147.37c-2.19,8.93-9.12,20.83-30.48,21.16-22.08.33-32-6.93-36.26-12.14l8.54-4.74c1.19,1,2.37,1.86,3.52,2.67,24.43,17.32,40.39,1.36,46.08-6.23a33.21,33.21,0,0,0,2.33-3.5S425,145.61,428.78,147.37Z"/><path class="cls-3" d="M297.61,263.65V275.4l14.13,7.25,8.72-6s6.62-8-.87-13.52S310.45,249.42,297.61,263.65Z"/><line class="cls-6" x1="324.49" y1="346.91" x2="324.49" y2="352.47"/><path class="cls-3" d="M320.46,179.51s-39.54,27.14-37.93,69.15l15.15,16.73s12.24-11.51,21.91-2.3c0,0,5.7-5.43-.26-14.43,0,0,29.31-16.95,29.31-17.78s-3.5-30.49-3.5-30.49Z"/><path class="cls-3" d="M435.2,204.64c-.26,14.91,9.42,11,.26,17S389.93,247,389.93,247l-64.37.78h-4.71a.42.42,0,0,1,0-.07s0-.1,0-.18a1.27,1.27,0,0,0,0-.2,1.23,1.23,0,0,0,0-.2c1-10.18,13.12-12.79,17.48-29.44,4.45-17-17.92-38.21-17.92-38.21L362,156.39l8.54-4.74c1.19,1,2.36,1.86,3.51,2.67,24.44,17.32,40.4,1.35,46.09-6.24a32.6,32.6,0,0,0,2.33-3.49s2.44,1,6.27,2.78c10.41,4.78,31.07,15,40.83,25.08C469.61,172.45,435.46,189.72,435.2,204.64Z"/><path class="cls-12" d="M373.05,267.15s-19,5-21.53,9.88c-3.77,6-6.14,11.88-6,17.57,6.68.28,15.15-1.86,24.27-4.87L385.87,274S381.68,263.47,373.05,267.15Z"/><path class="cls-3" d="M470.21,241.4a7.08,7.08,0,0,1-.6,1,16.31,16.31,0,0,1-4.63,3.14c-14.64,7.79-58,23.23-69.48,27.27l-2.82,1c-.58.05-1.15.08-1.71.1h-.88a35.72,35.72,0,0,1-17.84-4.59,28,28,0,0,1-3.85-2.59c-.3-.24-.45-.38-.45-.38.78-9.43,22-20.81,22-20.81s36.37-19.36,45.53-25.38-.52-2.1-.26-17S469.61,171,469.61,171C482.4,184.14,475,231.92,470.21,241.4Z"/><path class="cls-3" d="M320.87,247.56s-3.33-16.9-20.37-14.79"/><path class="cls-3" d="M313.91,273.32l-.09.63-.13.77-1.48,9.2-2.87-7.65-.66-1.77-.11-1.32-.4-4.87-.41-5-1.27-15.43-.07-.83-1.14-13.88s2.22-5.88,4.32,0a14.14,14.14,0,0,1,.49,1.9c0,.12.05.23.07.35a.43.43,0,0,1,0,.11c0,.16.07.33.1.5.13.69.25,1.45.38,2.27,0,.17,0,.32.07.48q.18,1.26.36,2.67c.05.35.09.7.13,1.06s.09.72.14,1.09c.08.69.16,1.4.23,2.11l.15,1.34c0,.22.05.44.07.67.56,5.43,1.06,11.37,1.43,16.16.14,1.91.27,3.64.37,5.07C313.81,271.63,313.91,273.32,313.91,273.32Z"/><path class="cls-3" d="M319.33,248.66s-2.53-5.72-4.37-6"/><line class="cls-8" x1="287.93" y1="328.47" x2="268.13" y2="212.4"/><line class="cls-8" x1="204.67" y1="212.4" x2="287.93" y2="328.47"/><line class="cls-8" x1="111.25" y1="212.4" x2="287.93" y2="328.47"/><line class="cls-8" x1="17.84" y1="212.4" x2="287.93" y2="328.47"/><ellipse class="cls-6" cx="287.93" cy="328.47" rx="3.88" ry="1.86"/><path class="cls-8" d="M449.59,205.68s-9.15,6.91-10.2,12.09c0,0,9.15-6,14.39-5.37"/><path class="cls-6" d="M224.93,142.49,218.45,171s-7.6,3.32-6.56,4.57,9.23,5,9.23,5c.37,14.45-1.39,32.2,8.54,31.87"/></g></g></svg>