<svg xmlns="http://www.w3.org/2000/svg" viewBox="0 0 100.11 100.11"><defs><style>.cls-1{fill:#ffbc00;}</style></defs><title>marketinq tehlili</title><g id="Layer_2" data-name="Layer 2"><g id="Layer_1-2" data-name="Layer 1"><path class="cls-1" d="M100.11,30A30,30,0,1,0,41,37.4l-3,2a4.91,4.91,0,0,0-3-1,5,5,0,0,0-3,1l-7.19-4.8a5,5,0,1,0-9.68,0L8,39.39a4.91,4.91,0,0,0-3-1,5.09,5.09,0,1,0,4.83,3.78l7.2-4.8a4.92,4.92,0,0,0,3,1,5,5,0,0,0,3-1l7.19,4.8a5,5,0,1,0,9.68,0L42,40.72a30.09,30.09,0,0,0,23,18.89v7.13H63.4a1.67,1.67,0,0,0-1.67,1.67V91.77a8.35,8.35,0,0,0,16.69,0V68.41a1.67,1.67,0,0,0-1.67-1.67H75.08V59.61a30.06,30.06,0,0,0,25-29.58ZM5,45.05a1.67,1.67,0,1,1,1.66-1.67A1.67,1.67,0,0,1,5,45.05ZM20,35a1.67,1.67,0,1,1,1.67-1.67A1.67,1.67,0,0,1,20,35Zm15,10a1.67,1.67,0,1,1,1.67-1.67A1.67,1.67,0,0,1,35,45.05Zm9.86-6.24,2.17-1.45a4.88,4.88,0,0,0,6,0l7.19,4.8a5,5,0,1,0,9.85,1.22,4.82,4.82,0,0,0-.51-2.14L83.42,27.39V35h3.34V23.36a1.67,1.67,0,0,0-1.67-1.67H73.41V25h7.65L67.21,38.88a4.81,4.81,0,0,0-2.14-.5,5,5,0,0,0-3,1l-7.19-4.8a5,5,0,1,0-9.67,0l-1.29.85a27.08,27.08,0,1,1,1,3.37Zm3.49-5.44A1.67,1.67,0,1,1,50.05,35,1.66,1.66,0,0,1,48.39,33.37Zm18.35,10a1.67,1.67,0,1,1-1.67-1.67A1.67,1.67,0,0,1,66.74,43.38Zm8.34,48.39a5,5,0,0,1-10,0V70.08h10Zm-3.34-25H68.41V60c.55,0,1.1.09,1.67.09S71.19,60,71.74,60Z"/><path class="cls-1" d="M52.31,39.27l-3,1.54a23.45,23.45,0,0,0,8.27,9L59.4,47A20.14,20.14,0,0,1,52.31,39.27Z"/><path class="cls-1" d="M93.43,30a23.36,23.36,0,0,0-46.09-5.39l3.25.77A20,20,0,1,1,67,49.82l-.51,3.3a24,24,0,0,0,3.6.27A23.38,23.38,0,0,0,93.43,30Z"/><path class="cls-1" d="M0,0H10V3.34H0Z"/><path class="cls-1" d="M13.35,0H36.71V3.34H13.35Z"/><path class="cls-1" d="M0,6.67H21.69V10H0Z"/><path class="cls-1" d="M25,6.67H36.71V10H25Z"/><path class="cls-1" d="M0,13.35H3.34v3.33H0Z"/><path class="cls-1" d="M6.67,13.35h10v3.33h-10Z"/><path class="cls-1" d="M20,13.35H36.71v3.33H20Z"/><path class="cls-1" d="M0,20H11.68v3.34H0Z"/><path class="cls-1" d="M15,20H36.71v3.34H15Z"/><path class="cls-1" d="M56.73,80.09a1.67,1.67,0,0,0-1.67-1.67H46.72V71.74a1.66,1.66,0,0,0-1.67-1.66H36.71V63.4A1.67,1.67,0,0,0,35,61.73H26.7V55.06A1.67,1.67,0,0,0,25,53.39H15a1.67,1.67,0,0,0-1.67,1.67v15H5a1.66,1.66,0,0,0-1.67,1.66v25H0v3.34H60.07V96.77H56.73ZM6.67,73.41h6.68V96.77H6.67Zm10-1.67v-15h6.68v40H16.68Zm10-6.67h6.67v31.7H26.7Zm10,8.34h6.67V96.77H36.71Zm10,23.36v-15h6.67v15Z"/></g></g></svg>