<svg xmlns="http://www.w3.org/2000/svg" viewBox="0 0 753.71 523.6"><defs><style>.cls-1,.cls-8{fill:#03c9f7;}.cls-1{fill-opacity:0.25;}.cls-2{fill:#6c63ff;}.cls-2,.cls-9{opacity:0.1;isolation:isolate;}.cls-3{fill:#3f3d56;}.cls-4{fill:#fff;}.cls-5{fill:#192534;}.cls-6{fill:#fbbebe;}.cls-7{fill:#f2f2f2;}</style></defs><title>niye biz</title><g id="Layer_2" data-name="Layer 2"><g id="Layer_1-2" data-name="Layer 1"><rect class="cls-1" x="106.79" y="209.8" width="90.07" height="27.23" rx="5.12"/><rect class="cls-2" x="201.04" y="237.03" width="90.07" height="27.23" rx="5.12"/><rect class="cls-1" x="295.31" y="264.26" width="90.07" height="27.23" rx="5.12"/><rect class="cls-1" x="106.79" y="168.96" width="90.07" height="27.23" rx="5.12"/><rect class="cls-2" x="201.04" y="196.19" width="90.07" height="27.23" rx="5.12"/><rect class="cls-1" x="295.31" y="223.42" width="90.07" height="27.23" rx="5.12"/><rect class="cls-1" x="400.03" y="209.8" width="90.07" height="27.23" rx="5.12"/><rect class="cls-1" x="494.29" y="237.03" width="90.07" height="27.23" rx="5.12"/><rect class="cls-1" x="588.55" y="264.26" width="90.07" height="27.23" rx="5.12"/><rect class="cls-1" x="400.03" y="168.96" width="90.07" height="27.23" rx="5.12"/><rect class="cls-1" x="494.29" y="196.19" width="90.07" height="27.23" rx="5.12"/><rect class="cls-1" x="588.55" y="223.42" width="90.07" height="27.23" rx="5.12"/><rect class="cls-1" x="106.79" y="114.5" width="90.07" height="27.23" rx="5.12"/><rect class="cls-2" x="201.04" y="141.72" width="90.07" height="27.23" rx="5.12"/><rect class="cls-1" x="295.31" y="168.96" width="90.07" height="27.23" rx="5.12"/><rect class="cls-1" x="106.79" y="73.65" width="90.07" height="27.23" rx="5.12"/><rect class="cls-2" x="201.04" y="100.88" width="90.07" height="27.23" rx="5.12"/><rect class="cls-1" x="295.31" y="128.11" width="90.07" height="27.23" rx="5.12"/><rect class="cls-1" x="400.03" y="114.5" width="90.07" height="27.23" rx="5.12"/><rect class="cls-1" x="494.29" y="141.72" width="90.07" height="27.23" rx="5.12"/><rect class="cls-1" x="588.55" y="168.96" width="90.07" height="27.23" rx="5.12"/><rect class="cls-1" x="400.03" y="73.65" width="90.07" height="27.23" rx="5.12"/><rect class="cls-1" x="494.29" y="100.88" width="90.07" height="27.23" rx="5.12"/><rect class="cls-1" x="588.55" y="128.11" width="90.07" height="27.23" rx="5.12"/><ellipse class="cls-1" cx="376.86" cy="455.05" rx="376.86" ry="68.55"/><polygon class="cls-3" points="165.35 221.15 133.66 415.44 276.96 400.28 270.76 383.75 158.8 393.05 184.98 220.81 165.35 221.15"/><polygon class="cls-3" points="128.15 0.69 321.05 0 376.86 422.33 183.26 448.51 128.15 0.69"/><polygon class="cls-4" points="149.16 16.88 304.86 16.88 359.29 409.58 198.76 431.63 149.16 16.88"/><path class="cls-3" d="M296,391.92a38.4,38.4,0,0,0,3,5.59c3.72,5,10.78,5.75,16.08,9a1.52,1.52,0,0,1,.62.61c.24.57-.29,1.17-.81,1.53-4,2.82-9.29,2.88-14.2,2.84a18.85,18.85,0,0,1-4.91-.46c-2.6-.69-4.83-2.51-7.39-3.24a19.19,19.19,0,0,0-4.06-.57l-5.38-.37a12.49,12.49,0,0,1-4.19-.78,4.25,4.25,0,0,1-2.65-3.13,9,9,0,0,1,.63-3.37c.69-2.65.47-5.84,2.53-7.65a7.91,7.91,0,0,1,2.86-1.38,90.65,90.65,0,0,1,11.45-3C292.76,386.86,294.59,389.2,296,391.92Z"/><path class="cls-3" d="M235.14,406.82c.14,1.47.18,3.15-.88,4.18a4.8,4.8,0,0,1-2.31,1c-5.09,1.18-10.77,1.27-15.2-1.5a4.4,4.4,0,0,1-1.2-1,3.67,3.67,0,0,1-.6-1.89,16.34,16.34,0,0,1,1-5.76,100.42,100.42,0,0,0,2.93-13.6c0-.38,13,2.06,13.86,3.34,1.08,1.59,1.09,5.39,1.38,7.28C234.54,401.51,234.88,404.16,235.14,406.82Z"/><path class="cls-5" d="M283.33,227.54l3.44,32c.69,6.55,1.41,13.12.94,19.69-.55,7.58-2.68,15.16-1.78,22.67.35,2.92,1.15,5.78,1.27,8.73a47.66,47.66,0,0,1-.3,5.85c-1.56,19.44,3.37,38.72,6.13,58a25.33,25.33,0,0,1,.29,7.22c-.36,2.44-1.08,5.66,1.1,6.81L274,396c-2.61-3.28-.88-8.37-1.38-12.52-.45-3.74-2.51-7.08-3.6-10.68a50.35,50.35,0,0,1-1.52-10c-1.79-18.31-7.27-36.14-8.55-54.48a24.47,24.47,0,0,0-.69-5.26c-.69-2.28-2.06-4.27-3.07-6.41a45.23,45.23,0,0,1-3-10.24l-4.38-20.49c-4.42,6.58-4.24,15.15-5.12,23.05-1.22,11-4,21.86-6.2,32.75a63.09,63.09,0,0,0-1.16,7.09c-.58,6.39.57,12.84,0,19.22-.69,7.39-3.8,14.6-3.05,22,.41,4.09,2,8,3.05,11.93s1.58,8.32,0,12.1a37.2,37.2,0,0,0-17.71-1.95c-6.57-6.72-7.73-16.09-8.18-25.49s.63-18.83-.54-28.14c-.34-2.76-.88-5.44-1-8.19-.29-8.82,3.95-17.06,6.06-25.63a54.26,54.26,0,0,0,.53-23.52c-1-5.15-2.81-10.14-3.45-15.36-.86-7.31.6-14.67,2.07-21.9,1-4.87,2-9.74,3.08-14.58,1.2-5.2,2.62-10.51,5.83-14.77,5.12-6.82,14.23-9.84,22.73-9.18s16.46,4.54,23.48,9.36A88.63,88.63,0,0,1,283.33,227.54Z"/><path class="cls-6" d="M260.47,104.89a5.94,5.94,0,0,0-.8,2c-.17,1.41.69,2.71,1.38,3.94a21.52,21.52,0,0,1,2,5,8.27,8.27,0,0,1,.3,3.35,8.13,8.13,0,0,1-.9,2.42,12.29,12.29,0,0,1-6,6,10.6,10.6,0,0,1-6.47.26,19.65,19.65,0,0,1-5.92-2.81,18.16,18.16,0,0,1-4-3.52,24.63,24.63,0,0,1-2.8-4.82c-1.43-3-2.88-6.2-2.62-9.49a2.92,2.92,0,0,1,.17-.87,4.57,4.57,0,0,1,.92-1.38,18,18,0,0,0,4.21-12.5l10,2.28c2.21.5,4.43,1,6.61,1.63,1.79.52,4.55,1.23,5.71,2.83S261.26,103.43,260.47,104.89Z"/><circle class="cls-6" cx="255.09" cy="84.94" r="18.24"/><path class="cls-7" d="M252.16,121.74c.77-1.68,2.44-2.75,4-3.81s3.06-2.42,3.36-4.26a3.12,3.12,0,0,1,.3-1.2c.59-.88,2-.44,2.81.21a21.54,21.54,0,0,1,4.75,6,51.52,51.52,0,0,1,4.45,8.4c1.93,5.1,2.17,10.68,2.38,16.13.19,5,.38,10-.83,14.8-.76,3.05-2.06,6-2.14,9.14-.23,11.39-4.18,22.27-4.46,33.66a87.87,87.87,0,0,0,.5,9.86l.65,7.39q-15-.85-30-2.64a57.2,57.2,0,0,0-2.15-10,216.76,216.76,0,0,1-7-41.16c-.53-7.39-1.07-14.75-1.89-22.1-.74-6.69-2.19-13.43-1.32-20.1a27.85,27.85,0,0,1,2.83-8.7,5.65,5.65,0,0,1,2.2-2.63,6.07,6.07,0,0,1,1.56-.51,30.07,30.07,0,0,1,4.74-.56,3.41,3.41,0,0,1,1.15.11,3.6,3.6,0,0,1,1.58,1.53A28.58,28.58,0,0,0,252.16,121.74Z"/><path class="cls-8" d="M243.7,120.28c1.28,1.84,4,2.27,5.18,4.14a10.66,10.66,0,0,1,.9,2.46c.72,2.31,2.18,4.31,3.07,6.56,1.28,3.24,1.32,6.82,1.33,10.3a33.76,33.76,0,0,1-.63,8.27c-.41,1.7-1.09,3.32-1.59,5a24.57,24.57,0,0,0-.92,8.82,3.6,3.6,0,0,0,.5,1.83,4,4,0,0,0,1.76,1.2c2,.88,4.13,1.79,6.34,1.59a2.37,2.37,0,0,0,1.26-.42,2.73,2.73,0,0,0,.62-.82l1.38-2.33c1.24-2.13,2.55-4.51,2.06-6.95a13.77,13.77,0,0,0-1.56-3.56,42.54,42.54,0,0,1-2.25-5.56c-2.19-6.32-4.42-12.72-4.91-19.39a17,17,0,0,1,.82-7.53,21.37,21.37,0,0,1,2.43-4.19,1.82,1.82,0,0,0-1.94-.66,12.09,12.09,0,0,0-2,.84,9.58,9.58,0,0,1-6.32,0c-.8-.24-2.07-1-2.89-1C246.05,118.89,243.74,120.37,243.7,120.28Z"/><path class="cls-7" d="M259.82,120.21c-.41-.33-1.05-.64-1.41-.25a1.53,1.53,0,0,0-.27.56,3.69,3.69,0,0,1-2.37,1.81c-1,.37-2,.58-2.57-.13a1.58,1.58,0,0,1,.09-1.84,5.74,5.74,0,0,1,1.51-1.27,14.75,14.75,0,0,0,6-9.46,4.52,4.52,0,0,1,1.65,2.85c.22,1.09.25,2.22.48,3.32a45.37,45.37,0,0,1,1.26,4.63,24.1,24.1,0,0,1,0,2.55,15.58,15.58,0,0,0,.29,2.46C262.88,123.74,261.74,121.73,259.82,120.21Z"/><path class="cls-7" d="M245.88,115.53c-.69-.65-1.38-1.27-2.07-1.94A26.89,26.89,0,0,1,237.15,103a4,4,0,0,0-1.87,2.76,4.19,4.19,0,0,0,.91,2.24,35,35,0,0,1,5.05,13.51,4,4,0,0,1,3.48-1.86c1.08,0,6,2.9,6.32,2.17C251.56,120.68,246.71,116.31,245.88,115.53Z"/><path class="cls-3" d="M261.26,110.05a57.25,57.25,0,0,0,23.14,14,5.22,5.22,0,0,1,2.34,1.19,4.82,4.82,0,0,1,1,2.13c1.68,6.58,2.24,13.38,2.8,20.13a11.2,11.2,0,0,1-.07,3.37,10.59,10.59,0,0,1-2.95,4.62c-3.95,4.24-8.46,8.67-9.13,14.43a22.86,22.86,0,0,1-.39,3.3c-.35,1.28-1.11,2.41-1.58,3.66-2.3,6.14,2.9,13.57-.27,19.29a34.92,34.92,0,0,1,3.48,10.52,13.82,13.82,0,0,0,.95,4.05c.94,2,2.89,3.22,4.41,4.82,4.67,4.78,5.24,12.1,5.52,18.77.17,3.77.11,8.09-2.76,10.55-1.66,1.44-3.93,1.91-6.1,2.27-2.88.48-6,.82-8.58-.6a13.83,13.83,0,0,1-4.27-4.53c-2.26-3.28-4.53-6.56-6.67-9.93-3.39-5.31-6.59-11.38-5.61-17.61a40.91,40.91,0,0,1-4.75,18.34c-3.12,5.56-8.16,10.19-14.27,12s-13.26.53-17.81-3.93a24.13,24.13,0,0,1-3.8-5.12,50.18,50.18,0,0,1-5.61-14.27,5.61,5.61,0,0,1,.14-3.92c.31-.55.79-1,1.11-1.53,1.09-1.85,0-4.19-1-6.07-1.61.15-2.76-1.74-2.61-3.35s1.11-3,1.79-4.48c2-4.33,1.56-9.36.59-14s-2.4-9.3-2.29-14.06c.11-5-3.51-9.57-6.27-13.78-1.55-2.37-3.34-4.57-4.69-7.06a22.76,22.76,0,0,1-1.8-17.06,44.75,44.75,0,0,1,3.77-8.42l2.28-4.26a7.06,7.06,0,0,1,4.82-4.14l15.73-6.2a23.74,23.74,0,0,0,5.68-2.83c1.92-1.45,3.35-3.45,5.18-5a2.9,2.9,0,0,1,2.07-.9c1.47.13,2,2,2.15,3.44.34,3.25,2.76,6,3.58,9.17,4.43,17.47,13.82,33.57,16.4,51.4A187.92,187.92,0,0,1,266.36,148a16.41,16.41,0,0,0,1.47-3,12.58,12.58,0,0,0,.49-4.61,60.54,60.54,0,0,0-2.56-13.2C264.23,121.32,262.86,115.89,261.26,110.05Z"/><path class="cls-3" d="M291.24,163.41c.3,2.94.6,5.88,1.14,8.78.64,3.36,1.6,6.63,2.56,9.91a25.93,25.93,0,0,0,2,5.33,6.91,6.91,0,0,1,.74,1.58c.33,1.38-.44,2.75-.77,4.13-1,4.13,2,8.73.11,12.54-.56,1.16-1.55,2.12-1.92,3.36-.43,1.42,0,2.94.23,4.42.58,4.13-.83,8.33-2.22,12.31l-2.37,6.71c-2.17-4-4.35-8.09-7.34-11.54-1.07-1.24-2.23-2.39-3.22-3.7a25.82,25.82,0,0,1-3.44-6.71,58,58,0,0,1-3.56-17.72,12.26,12.26,0,0,1,.58-5.1,27.21,27.21,0,0,1,1.53-2.75c1.85-3.33,2.23-7.27,2.19-11.08s-.44-7.61,0-11.4a26.08,26.08,0,0,1,2.76-9,12.79,12.79,0,0,1,3.74-4.67,6.74,6.74,0,0,1,4.13-1.34c2.26.13,1.74,2.07,1.93,3.93Z"/><path class="cls-3" d="M189.9,154q-2.1,6.19-3.8,12.51t-3,12.47a27.22,27.22,0,0,0-.74,5.61,25.45,25.45,0,0,0,1.12,6.48c4.44,16,12.53,30.74,21.64,44.61a40.08,40.08,0,0,1,9.16-8.37,2,2,0,0,0,.69-.68,1.89,1.89,0,0,0-.22-1.62c-2.52-5.15-6.5-9.69-7.75-15.29-.53-2.33-.55-4.76-1.14-7.07-.76-3-2.47-5.74-2.87-8.81-.42-3.35.69-7-.88-10,3.21-1.25,5.06-4.55,6.42-7.71a42.34,42.34,0,0,0,3.08-10.13,30.46,30.46,0,0,0-3.72-19.4,31.08,31.08,0,0,0-6.24-7.83c-.82-.73-2.75-2.85-3.95-2.83-1.59,0-2.1,2.61-2.55,3.77C193.35,144.51,191.53,149.24,189.9,154Z"/><path class="cls-6" d="M218.44,231.15c.21.15.44.36.39.61s-.26.31-.44.41a5.29,5.29,0,0,0-2,2.69,72.54,72.54,0,0,0-3,7.91,34.92,34.92,0,0,0-5.4-6.3c-1.58-1.45-3.33-2.82-4.17-4.77,0-.06,3.61-2.73,3.94-3,1-.9,2.29-3.4,3.33-4,1.19-.62,2.32,1.81,3.22,2.79A27.74,27.74,0,0,0,218.44,231.15Z"/><path class="cls-5" d="M274.47,82.09a3.41,3.41,0,0,0-.86-2.49,3.23,3.23,0,0,0-2.07-.57c-4-.13-8.17.54-12-.81-2.49-.88-4.62-2.59-7-3.65S247,73.22,245,75c-1.49,1.37-1.9,3.49-2.41,5.44a31.82,31.82,0,0,1-6,11.79,7.29,7.29,0,0,1-4.06-4c-2.93-6-1.49-13.09.59-19.42.69-2.12,1.45-4.22,2.22-6.31l1.68-4.63A9,9,0,0,0,242.85,55l.72,1.76A9.21,9.21,0,0,0,248.74,55,2.8,2.8,0,0,0,252,56c1.21-.35,2.25-1,3.45-1.38,3.2-1,6.62.56,10,.74a37.82,37.82,0,0,1,4.26.12c4,.64,6.78,4.38,8,8.21.81,2.55,1.47,5.68,4,6.58.05,1-1.65,1.15-1.8,2.07a1.56,1.56,0,0,0,.21.87l2.31,5a5.76,5.76,0,0,1-3.34-.17C278,80.43,274.57,84,274.47,82.09Z"/><path class="cls-6" d="M391.42,92.87a91.21,91.21,0,0,1,2.76,11.53c.49,2.92.78,6.16-.89,8.6,6.38-9.59,13-19.48,22.73-25.68a20.74,20.74,0,0,1-5.4-16c.05-.58-8,2.45-8.57,2.79-2.82,1.57-5.39,3.51-8.13,5.18-1.42.87-7.33,2.91-7.39,4.14,0,.79,2.35,3.22,2.79,4A30.81,30.81,0,0,1,391.42,92.87Z"/><path class="cls-4" d="M421.07,454.83a10.69,10.69,0,0,0-10.92-.82c-3.12,1.61-5.22,4.66-8.06,6.73-4.87,3.54-11.32,3.82-17,5.74-1.51.51-3.12,1.26-3.77,2.75a4.89,4.89,0,0,0,.29,3.84,9.89,9.89,0,0,0,4.72,4.87c2.57,1.23,5.51,1.28,8.35,1.32l24.67.29a202.92,202.92,0,0,1,22.73,1.12c1.76.22,3.66.46,5.21-.4,2.52-1.38,2.81-4.86,2.62-7.74a71.06,71.06,0,0,0-4.82-21.22c-.3-.75-.69-1.6-1.53-1.74a2.49,2.49,0,0,0-1.64.52c-6.95,4.14-15.77,6.47-23.16,3.17"/><path class="cls-3" d="M433.41,297.48c-2.75,16-1,32.45,2.15,48.38a84.52,84.52,0,0,0,2.25,9.4c1.11,3.51,2.6,6.89,3.64,10.42,2.65,9,2.28,18.54,1.88,27.88l-1.8,42.55c-.15,3.57-.29,7.22.78,10.62.44,1.38,1,3.1-.13,4a3,3,0,0,1-1.45.56,22.53,22.53,0,0,1-14.47-2.17l-.49-43c-.15-13.25-.31-26.55-2.35-39.63-1.62-10.41-4.43-20.67-4.61-31.2-.2-11,2.51-21.9,5.26-32.59.59-2.28,2.76-4,4.53-5.51a5.58,5.58,0,0,1,2.21-1.33C431.64,295.68,432.9,296.78,433.41,297.48Z"/><path class="cls-9" d="M433.41,297.48c-2.75,16-1,32.45,2.15,48.38a84.52,84.52,0,0,0,2.25,9.4c1.11,3.51,2.6,6.89,3.64,10.42,2.65,9,2.28,18.54,1.88,27.88l-1.8,42.55c-.15,3.57-.29,7.22.78,10.62.44,1.38,1,3.1-.13,4a3,3,0,0,1-1.45.56,22.53,22.53,0,0,1-14.47-2.17l-.49-43c-.15-13.25-.31-26.55-2.35-39.63-1.62-10.41-4.43-20.67-4.61-31.2-.2-11,2.51-21.9,5.26-32.59.59-2.28,2.76-4,4.53-5.51a5.58,5.58,0,0,1,2.21-1.33C431.64,295.68,432.9,296.78,433.41,297.48Z"/><path class="cls-3" d="M381.68,247.46c-1,4.19,1.14,8.54.9,12.85-.14,2.62-1.16,5.22-.69,7.78s2.31,4.49,3.29,6.84a18.82,18.82,0,0,1,1.12,6.12c.28,5.15.05,10.34-.14,15.47-.33,8.61-.57,17.27.57,25.81a81,81,0,0,0,6,21.46,37.11,37.11,0,0,1,2.23,5.78,42.26,42.26,0,0,1,.76,5.61,56.83,56.83,0,0,0,4.87,17.71c1.75,3.84,4.82,6.89,5.79,11,.92,3.9.3,8,1,12,.49,2.93,1.68,5.7,2.35,8.59.86,3.74.84,7.62,1.27,11.44,1.24,11,6.25,22,3.26,32.74-.6,2.15-1.53,4.33-1.11,6.52.21,1.08.73,2.14.5,3.21a16,16,0,0,1-1.26,2.47,4.53,4.53,0,0,0,1.27,4.77,13.56,13.56,0,0,0,4.48,2.65c5.08,2.17,10.33,4.37,15.84,4.33a4.34,4.34,0,0,0,1.95-.36,4.79,4.79,0,0,0,1.9-2.68l2.83-7a3,3,0,0,0,.21-2.63,4.94,4.94,0,0,0-1.18-1.1c-2.28-1.92-1.77-5.51-1.16-8.4A121.79,121.79,0,0,0,441,427.85c.31-15.1-2.18-30.11-4.66-45a93.38,93.38,0,0,0-3.45-15.35c-1.71-5-4.24-9.73-3.83-14.88.44-5.57-1-11.41,0-16.9s2.6-10.86,3.63-16.35c1.33-7.11,1.66-14.37,2.06-21.59.18-2.95.4-6,1.78-8.61.8-1.53,2-2.84,2.88-4.32,2.32-3.85,2.7-8.62,4.92-12.54,1.06-1.85,2.51-3.48,3.28-5.47a15.18,15.18,0,0,0,.84-4.86,57.57,57.57,0,0,0-.69-12.44,80.93,80.93,0,0,0-37.89-8.79,44.65,44.65,0,0,0-14.85,2.34C390.54,244.75,386.43,247.1,381.68,247.46Z"/><path class="cls-4" d="M409.93,465.73c-2,2.52-1.89,6.13-3.19,9.1-1.57,3.6-5.07,5.91-8.39,8l-20.67,13.09a5.75,5.75,0,0,0-2.75,2.82,4.51,4.51,0,0,0,.1,2.47,10.72,10.72,0,0,0,7.22,7.33,21,21,0,0,0,5.59.57l9.29.13a54.59,54.59,0,0,0,8.48-.33c2.58-.38,5.09-1.11,7.65-1.58,4.67-.85,9.46-.77,14.13-1.59a74.49,74.49,0,0,0,8.46-2.19c3.38-1,6.82-2.06,9.71-4.07a5,5,0,0,0,1.87-2,5.89,5.89,0,0,0-.06-3.64l-4.43-19.5a11.84,11.84,0,0,0-1.74-4.56,4,4,0,0,0-4.29-1.62,8.79,8.79,0,0,0-1.79,1.08,11,11,0,0,1-7.87,1.27c-1.74-.31-4-.78-5.43-1.93-1.06-.88-1.38-2.23-2.28-3.23a6.47,6.47,0,0,0-9.15-.12C410.23,465.39,410.07,465.56,409.93,465.73Z"/><circle class="cls-6" cx="396.53" cy="65.29" r="24.89"/><path class="cls-5" d="M377.33,66.75c2.38-1.33,2.38-5.19,4.82-6.47s5.21.95,6.77,3.19a29.35,29.35,0,0,1,4.65,10.94,5.51,5.51,0,0,0,1.27,3.11,4.87,4.87,0,0,0,3,1q4.71.46,9.45.85c3.51.28,7.22.51,10.41-1a7.59,7.59,0,0,0,3.13-2.59,11.62,11.62,0,0,0,1.33-3.5c1.65-6.26,3.31-12.6,3.45-19.08a15.42,15.42,0,0,0-1.47-7.78c-.75-1.38-1.85-2.58-2.16-4.09s.69-3.45,2.26-3.28a9.22,9.22,0,0,1-4.14-.79,3.19,3.19,0,0,1-1.73-3.52c-3.5.45-6-3-8.77-5.25a2.4,2.4,0,0,0-1.67-.69,6.25,6.25,0,0,0-1.38.53c-1.38.49-2.82-.43-4.23-.83-3.79-1.06-8.6,1.5-11.41-1.25.26,1.75-1.89,2.93-3.67,2.9s-3.61-.69-5.29-.1a3.44,3.44,0,0,1-1.37,4.67,2.66,2.66,0,0,1-.6.26l.83,1.82a4.7,4.7,0,0,0-3.61,3.39c-.92,3.62-.69,8.76-.47,12.48C376.86,53.29,378.45,66.14,377.33,66.75Z"/><path class="cls-8" d="M398.57,97.38c-12.51,14.06-15.69,33.85-18.36,52.49l-3.92,27.51c-1,7.14-2.07,14.28-3,21.44-.62,4.9-1.2,9.87-.52,14.76a80.9,80.9,0,0,0,2.89,11.29,106.19,106.19,0,0,1,4.13,30c.84-2.46,3.72-3.45,6.26-4a101.23,101.23,0,0,1,63.29,6.76c3.48-9.75,2.82-20.41,3.79-30.72,1.38-14.7,6.13-28.94,7.53-43.6.52-5.47.58-11,.64-16.45a55.18,55.18,0,0,0-.76-12.05,50.88,50.88,0,0,0-5-12.4,324.26,324.26,0,0,0-18.82-32Q431.6,102.63,426,95.17q-2.86-3.8-5.84-7.49c-1.92-2.39-2.75-4.46-5.8-3C408.55,87.35,402.76,92.66,398.57,97.38Z"/><path class="cls-6" d="M405.73,214.42a68,68,0,0,1-9.14-.29,19.87,19.87,0,0,0-6.75,0,7,7,0,0,0-2.63,1.29,2,2,0,0,0,1.13,3.44l2.35.21a6.66,6.66,0,0,1,4.22,1.37,2.63,2.63,0,0,1,.85,1.66c.15,1.61-1.24,2.48-2.49,3.15a20.36,20.36,0,0,0-4.87,3.24,6.73,6.73,0,0,0-2,4.14.78.78,0,0,0,.76.82.75.75,0,0,0,.41-.09c2.75-1.38,4.55-5.46,7.58-4.78a12.24,12.24,0,0,0-6.66,5.12,3.09,3.09,0,0,0,4.13,4.36,13.91,13.91,0,0,0,1.3-.86,31.92,31.92,0,0,0,5.46-5.68c-2.2,4.65-4.43,10.1-1.9,14.72a1.46,1.46,0,0,0,1.38.81c.8-.08,1-.83,1.16-1.49.42-2.13.52-4.38,1.57-6.27,2.42-4.4,8.4-4.83,13-7,5.46-2.53,9.2-8,10.71-13.82a10.62,10.62,0,0,0,.27-5.25c-1-3.92-5.85-4.82-9-2.93C412.75,212.74,410.54,214.26,405.73,214.42Z"/><path class="cls-9" d="M400.9,137.3c4.82,7.45,13.19,11.64,20.37,16.87a17,17,0,0,1,4.5,4.29c1.82,2.8,2.07,6.35,1.7,9.64a61.51,61.51,0,0,1-3.25,12.68l-3,9c-1.91,5.71-3.88,11.53-7.51,16.32-.93,1.22-2,2.53-2,4a5.18,5.18,0,0,0,.88,2.47,16.57,16.57,0,0,0,10.53,7.52,7.81,7.81,0,0,0,4,0c1.86-.55,3.26-2.06,4.56-3.5,6.2-6.84,12.4-13.77,16.88-21.8,4.37-7.83,7-16.54,9.4-25.15a53.29,53.29,0,0,0,2.07-9.74,35.56,35.56,0,0,0-3.78-18,89.55,89.55,0,0,0-10.08-15.6,108.87,108.87,0,0,0-11.82-13.56c-7.5-7-16.67-11.12-26.7-7.15-7.08,2.81-9.73,8.67-10.37,16.18A24.61,24.61,0,0,0,400.9,137.3Z"/><path class="cls-8" d="M403.4,135.41c4.83,7.45,13.2,11.65,20.38,16.88a17.16,17.16,0,0,1,4.48,4.31c1.81,2.8,2.07,6.34,1.7,9.64a61.54,61.54,0,0,1-3.26,12.68l-3,9c-1.91,5.7-3.88,11.52-7.51,16.32-.93,1.22-2,2.51-2,4.05a5.19,5.19,0,0,0,.88,2.46,16.62,16.62,0,0,0,10.53,7.53,8.08,8.08,0,0,0,4,0c1.86-.54,3.25-2.07,4.55-3.49,6.2-6.85,12.41-13.78,16.88-21.81,4.38-7.83,7-16.53,9.41-25.16a52.17,52.17,0,0,0,2.06-9.73,35.71,35.71,0,0,0-3.76-18,88.58,88.58,0,0,0-10.09-15.59A108.49,108.49,0,0,0,436.8,111c-7.49-7-16.66-11.12-26.69-7.14-7.09,2.81-9.74,8.67-10.38,16.18A24.72,24.72,0,0,0,403.4,135.41Z"/><path class="cls-5" d="M555.74,382.53a25.31,25.31,0,0,1-.55,5.35c-.07.33-.14.69-.22,1-2,7.85-7.47,13.59-14.06,13.95h-.69c-7,0-12.85-6-14.8-14.28,0-.22-.1-.44-.15-.69a26,26,0,0,1-.55-5.34c0-11.21,6.94-20.29,15.5-20.29S555.74,371.35,555.74,382.53Z"/><path class="cls-9" d="M555.74,382.53a25.31,25.31,0,0,1-.55,5.35c-.07.33-.14.69-.22,1h-.69a31.06,31.06,0,0,1-5.07-.69,30.51,30.51,0,0,1-4.52,1,34.75,34.75,0,0,1-3.54.33H540a31.68,31.68,0,0,1-4.24-.29,30.47,30.47,0,0,1-6.66-1.65,31.85,31.85,0,0,1-3.6,1q-.08-.33-.15-.69a25.31,25.31,0,0,1-.55-5.35c0-11.21,6.94-20.29,15.5-20.29S555.74,371.35,555.74,382.53Z"/><path class="cls-8" d="M588.81,344.74a31.41,31.41,0,0,0-3.37-14.2l-18.23,5.67,16-9.41a31.49,31.49,0,0,0-23.67-13.49,31.14,31.14,0,0,0-2.46-3.25l-26.18,8.15,21.48-12.63a31.51,31.51,0,0,0-49.61,16.8L525.2,348.2l-24.33-17.6a31.51,31.51,0,0,0,28.2,55.6,31.66,31.66,0,0,0,20.17.56,31.54,31.54,0,0,0,37.58-24,31.14,31.14,0,0,0,.74-6.74,20.45,20.45,0,0,0-.07-2.07A31.36,31.36,0,0,0,588.81,344.74Z"/><path class="cls-9" d="M588.27,350.58a84.07,84.07,0,0,0-29.17-.37c-11,1.81-22.14,5.79-32.84,2.89-6.29-1.71-11.72-5.67-17.85-7.87a34,34,0,0,0-18.43-1.1,31.52,31.52,0,0,0,39,42.07,31.69,31.69,0,0,0,20.18.56A31.56,31.56,0,0,0,587.53,356a20.45,20.45,0,0,0-.07-2.07A31.85,31.85,0,0,0,588.27,350.58Z"/></g></g></svg>