<svg xmlns="http://www.w3.org/2000/svg" viewBox="0 0 96.85 96.85"><defs><style>.cls-1{fill:#ffbc00;}</style></defs><title>Asset 5</title><g id="Layer_2" data-name="Layer 2"><g id="Layer_1-2" data-name="Layer 1"><path class="cls-1" d="M60.34,96.85c-.23-.08-.47-.16-.71-.22a8.16,8.16,0,0,1-5.36-4.42c-3.56-7-7.16-14-10.74-21-.14-.28-.3-.55-.49-.91-.3.14-.58.25-.84.39-2.09,1.09-4.26,2.06-6.26,3.32-4.39,2.75-8.77-.57-8.56-5.32.5-11.14.67-22.3,1-33.46a11.79,11.79,0,0,1,.1-1.88,5.09,5.09,0,0,1,8-3.34c4.39,2.89,8.74,5.86,13.11,8.79L65.21,49.33a5.33,5.33,0,0,1-.37,9.45c-2.27,1.17-4.52,2.36-6.78,3.55l-.94.52,5.94,11.64c1.76,3.45,3.47,6.92,5.3,10.34a8,8,0,0,1-5.51,11.88c-.08,0-.16.09-.24.14Zm-29.19-45c-.16,5.76-.33,11.52-.48,17.29-.06,2.28,1.38,3.18,3.37,2.14,2.82-1.47,5.63-3,8.44-4.43,1.5-.79,2.18-.57,3,.94l6,11.77c1.95,3.81,3.87,7.64,5.85,11.43a4.61,4.61,0,0,0,7.21,1.46,4.84,4.84,0,0,0,1-6.1Q59.68,74.92,53.82,63.5c-.83-1.64-.64-2.27,1-3.1Q59,58.21,63.13,56c2-1,2.09-2.78.26-4L35,32.91a2.15,2.15,0,0,0-2.36-.4,2.25,2.25,0,0,0-1.07,2.25C31.45,40.46,31.29,46.16,31.15,51.87Z"/><path class="cls-1" d="M96.85,24.59c-.27,1.32-.45,2.67-.81,4A22.6,22.6,0,1,1,71.62.16,3.53,3.53,0,0,0,72.26,0h4a3.64,3.64,0,0,0,.63.16A22.52,22.52,0,0,1,96,16.39c.4,1.38.6,2.82.9,4.23ZM74.3,3.22A19.38,19.38,0,1,0,93.62,22.74,19.42,19.42,0,0,0,74.3,3.22Z"/><path class="cls-1" d="M24.59,0c1.71.38,3.47.63,5.14,1.17a22.52,22.52,0,0,1,15.44,21,2.58,2.58,0,0,1-.62,1.66,2,2,0,0,1-1.54.26c-.71-.15-1-.79-1-1.52a37.4,37.4,0,0,0-.78-5.3A19.36,19.36,0,1,0,22.16,42c1.2,0,1.84.45,2,1.31.22,1.06-.61,1.94-1.87,1.92A22,22,0,0,1,9,40.6,22.15,22.15,0,0,1,.17,25.31,6.25,6.25,0,0,0,0,24.59v-4c.06-.27.14-.54.18-.81,1.41-9.06,6.38-15.28,15-18.5A45.54,45.54,0,0,1,20.62,0Z"/><path class="cls-1" d="M8.09,22.62A14.5,14.5,0,0,1,36.9,20.2a15.31,15.31,0,0,1,.19,2.35,1.55,1.55,0,0,1-1.56,1.65,1.68,1.68,0,0,1-1.65-1.61,21.77,21.77,0,0,0-.72-3.88,11.27,11.27,0,1,0-12.65,15,18.25,18.25,0,0,0,2,.2,1.68,1.68,0,0,1,1.72,1.73,1.62,1.62,0,0,1-1.83,1.49A14.46,14.46,0,0,1,8.09,22.62Z"/><path class="cls-1" d="M16.13,22.73a6.54,6.54,0,0,1,6.37-6.6A6.47,6.47,0,0,1,29,22.29a1.66,1.66,0,0,1-1.42,1.91c-.93.11-1.62-.52-1.79-1.64-.34-2.26-1.9-3.5-3.88-3.11a3.2,3.2,0,0,0,0,6.28c.31.07.62.08.93.15a1.57,1.57,0,0,1,1.34,1.67A1.48,1.48,0,0,1,22.64,29a9.76,9.76,0,0,1-3.23-.85A6.12,6.12,0,0,1,16.13,22.73Z"/><path class="cls-1" d="M75.89,11.7v9.41l.85.26A8,8,0,0,1,82.31,29a8,8,0,0,1-5.58,7.71c-.49.16-.87.29-1,.92a1.56,1.56,0,0,1-3,0,1.18,1.18,0,0,0-1-.93,8.06,8.06,0,0,1-5.6-7.32c0-1.18.6-1.93,1.58-2s1.57.68,1.65,1.8a4.62,4.62,0,0,0,3.14,4.25v-9.4l-1.15-.41a8.05,8.05,0,0,1,.36-15.21c.49-.16.86-.29,1-.92a1.39,1.39,0,0,1,1.48-1.09,1.46,1.46,0,0,1,1.53,1.17c.11.54.39.67.84.81A8,8,0,0,1,82.3,15.7c0,1.24-.56,2-1.56,2.06s-1.58-.69-1.67-1.89A4.63,4.63,0,0,0,75.89,11.7Zm0,21.78a4.62,4.62,0,0,0,3.18-4.6,4.53,4.53,0,0,0-3.18-4.23ZM72.6,11.7a4.68,4.68,0,0,0-3.18,4.73,4.52,4.52,0,0,0,3.18,4.11Z"/></g></g></svg>