<svg xmlns="http://www.w3.org/2000/svg" xmlns:xlink="http://www.w3.org/1999/xlink" viewBox="0 0 307.02 166.06"><defs><style>.cls-1{fill:#6466ad;}.cls-1,.cls-10,.cls-6,.cls-9{opacity:0.1;}.cls-1,.cls-10,.cls-6{isolation:isolate;}.cls-2{fill:url(#linear-gradient);}.cls-3{fill:#bd6f73;}.cls-4{fill:#403d56;}.cls-5{fill:#66617d;}.cls-7{fill:#ffc609;}.cls-8{fill:#e2e6f3;}.cls-10{fill:#fff;}.cls-11{fill:#2c90c3;}.cls-12{fill:#42a0d9;}.cls-13{fill:#1e8ac1;}.cls-14{fill:url(#linear-gradient-2);}.cls-15{fill:#f16d70;}.cls-16{fill:#f8bdbd;}.cls-17{fill:#454053;}.cls-18{fill:#e7e7ee;}</style><linearGradient id="linear-gradient" x1="244.99" y1="-2668.3" x2="244.99" y2="-2560.32" gradientTransform="matrix(1, 0, 0, -1, -28, -2541.85)" gradientUnits="userSpaceOnUse"><stop offset="0" stop-color="gray" stop-opacity="0.25"/><stop offset="0.54" stop-color="gray" stop-opacity="0.12"/><stop offset="1" stop-color="gray" stop-opacity="0.1"/></linearGradient><linearGradient id="linear-gradient-2" x1="68.42" y1="-2643.27" x2="128.07" y2="-2643.27" xlink:href="#linear-gradient"/></defs><title>result_svg</title><g id="Layer_2" data-name="Layer 2"><g id="Layer_1-2" data-name="Layer 1"><path class="cls-1" d="M184.57,117.17c5.93-.34,13.29-4.36,19-6.14q10.15-3.15,20.4-6.06,35.64-10.14,72-17.28c2.26-.45,4.53-.88,6.8-1.31a48.19,48.19,0,0,0-15.9-19.1q.26-2.5.27-5c0-26.6-21.27-48.17-47.51-48.17a46.68,46.68,0,0,0-23.05,6.05C198.07,7.9,173.83.51,147.31.51,109.63.51,76.54,15.44,57.8,37.92L145.9,52.8l54,9.13c-61.6,1.84-123.39,3.66-184.81-.65a48.69,48.69,0,0,0-7,61.46h0c0,1,0,1.92.12,2.86,1.56.45,3.07.89,4.43,1.17q32.63,6.9,65.69,11.54c-16.24,10-36,11.43-54.75,15.67a54.88,54.88,0,0,0,35,12.08H260.68c21.88,0,39.62-15.24,39.62-34h0a48,48,0,0,0,6.44-17.68C266.25,118.25,225.25,114.86,184.57,117.17Z"/><path class="cls-1" d="M307,106.34a48.32,48.32,0,0,0-20.4-39.57,47,47,0,0,0,.27-5c0-26.61-21.27-48.17-47.5-48.17a46.66,46.66,0,0,0-23,6.05C197.76,7.4,173.52,0,147,0,103.86,0,66.73,19.58,50.27,47.65c-.92,0-1.84-.08-2.77-.08C21.27,47.57,0,69.14,0,95.74a48.41,48.41,0,0,0,7.82,26.48h0c0,23.94,22.59,43.35,50.45,43.35H260.39c21.88,0,39.62-15.24,39.62-34h0A48.41,48.41,0,0,0,307,106.34Z"/><path class="cls-2" d="M250.74,76.82a3.07,3.07,0,0,0-1.31-.57c-.5-.12-1-.19-1.53-.27l-6.6-1a7.68,7.68,0,0,0-2-.11,2.54,2.54,0,0,0-1.76.91,1.4,1.4,0,0,0-.3.86,2.19,2.19,0,0,0,.3.89,3.2,3.2,0,0,1,.16.39,6.61,6.61,0,0,0,.24.9.54.54,0,0,0,.11.18v0c-.07.37.16.75.06,1.11s-.39.49-.58.75a1.1,1.1,0,0,0,0,1.23c.2.31.57.53.67.88s-.23.93-.56,1.29a19.07,19.07,0,0,0-1.68,2.12,1.32,1.32,0,0,0-.27.63c0,.46.42.88.34,1.34s-.42.59-.72.8a4.52,4.52,0,0,0-2.15,3.33,11.65,11.65,0,0,0-2.6-5.9,4.35,4.35,0,0,1-1-1.52c-.06-.23-.07-.48-.15-.7-.27-.72-1.13-1-1.5-1.68-.27-.46-.27-1-.6-1.46s-.86-.49-1.14-.88a5.54,5.54,0,0,1-.37-.83,1.9,1.9,0,0,0-.49-.6l-.13-.09a.41.41,0,0,0,.14-.31c0-.32-.31-.52-.58-.68s-.69-.41-1-.63a2.37,2.37,0,0,0,.91-.75,2.4,2.4,0,0,0,.35-1.61,1.91,1.91,0,0,0-.48-1.23c-.17-.18-.38-.31-.55-.48a3.9,3.9,0,0,1-.81-1.73,3.49,3.49,0,0,0-1.38-2.07c-.36-.21-.77-.31-1.12-.52a1,1,0,0,1-.51-1c.08-.26.33-.45.5-.68a1.36,1.36,0,0,0-.34-1.88c-.2-.12-.45-.23-.49-.46a.88.88,0,0,1-.62-.66,2.58,2.58,0,0,1,0-1l.21-1.49a1,1,0,0,0,.74,0,7,7,0,0,0,.81,1,10.63,10.63,0,0,1,1.88,3.26,2,2,0,0,0,.7,1.14c.14.08.3.12.43.2a1.56,1.56,0,0,1,.42.43l1,1.28,0,.06a.36.36,0,0,0,0,.11.35.35,0,0,0,.23.12,3.89,3.89,0,0,0,3-.1c.78-.49,1.12-1.44,1.77-2.08.46-.45,1.12-.81,1.25-1.45a4.19,4.19,0,0,1-.46-.16l.45-.47a4.24,4.24,0,0,0,1.25-2l1.56-4.43c.25-.7.49-1.4.81-2.08s.7-1.44,1-2.16a28.59,28.59,0,0,0,2.09-5.88,1.71,1.71,0,0,0-.68-2,5.71,5.71,0,0,0-1.14-.94,1.87,1.87,0,0,0-1.44-.23A2.05,2.05,0,0,0,233.79,47a17,17,0,0,0-.17,2.14c-.1,1-.45,2-.54,3.07,0,.6,0,1.21-.07,1.8a6.57,6.57,0,0,1-.81,2.23,14.18,14.18,0,0,1-3.47,4.27c-.16.14-.33.27-.49.42a2.21,2.21,0,0,1,0-.35,2.06,2.06,0,0,0-.35.12.91.91,0,0,0,0-.4c-.21-.64-1.17-.81-1.34-1.46a2.63,2.63,0,0,1,0-.49,14.11,14.11,0,0,0-.58-1.61,7.09,7.09,0,0,0-.27-1.54,4.21,4.21,0,0,0-.71-.81,3.06,3.06,0,0,1-.68-1.28c0-.13-.07-.27-.11-.4a1.76,1.76,0,0,0-.1-.88c-.24-.61-.87-1-1.1-1.61s-.1-1.08-.43-1.45a1.61,1.61,0,0,0-.64-.38,14.06,14.06,0,0,0-3.83-.9,3.28,3.28,0,0,1-2.07-.63c-.62-.6-.64-1.68-1.36-2.14a1.61,1.61,0,0,0-2,.47,1.71,1.71,0,0,0-.21.26,2.72,2.72,0,0,1-.05-1.1,2.45,2.45,0,0,1,0-.27,5.38,5.38,0,0,0,2.91-2.29h0l0,.09c.08.19.2.38.39.4h0a.5.5,0,0,0,.33-.12,2.74,2.74,0,0,0,.45-.39l.19-.23A3.65,3.65,0,0,0,217,41a3,3,0,0,0,.26-.89c.05-.32.06-.64.11-.95a6.29,6.29,0,0,1,.2-.71c0-.08.05-.15.07-.23l.09-.27a6.1,6.1,0,0,0,.27-1.7v-.29a2.86,2.86,0,0,0-.9-2c-.46-.38-1.08-.54-1.41-1a5,5,0,0,1-.4-1.19,2.7,2.7,0,0,0-2.11-1.9,2.37,2.37,0,0,0-1.67.46h0l0,0h0a2.9,2.9,0,0,0-.66.74,2.18,2.18,0,0,1-1-.53c-.27-.25-.47-.57-.74-.81a1.91,1.91,0,0,0-1.91-.4,2.28,2.28,0,0,0-1.37,1.56,5.41,5.41,0,0,1-.43,1.65c-.24.36-.63.54-.9.87a1.62,1.62,0,0,0-.34.71h0a1.73,1.73,0,0,0,0,.45h0a.65.65,0,0,0,0,.2v0a1.43,1.43,0,0,0,0,.22h0a2.13,2.13,0,0,0,.4.74,1.75,1.75,0,0,0,.65.46,1.86,1.86,0,0,0,.31.1l.32.08.11,0a5.38,5.38,0,0,0-.15,4.73c0,.07,0,.15,0,.22a17.68,17.68,0,0,0,.14,3.17,1.76,1.76,0,0,1-.2,1.2,2.57,2.57,0,0,1-.39.35l.44-.56a1.9,1.9,0,0,0-1.51-.39,7,7,0,0,0-3,.9,3.29,3.29,0,0,1-1.91.73,3.32,3.32,0,0,0-1.2-.17,2.37,2.37,0,0,0-.61.37.85.85,0,0,1-.51.15,12.24,12.24,0,0,0-1.57-1.29A11.88,11.88,0,0,1,194,44.1c-.87-1.05-1.74-2.1-2.59-3.16a6.1,6.1,0,0,1-1.59-3c0-.11,0-.22,0-.34A8.77,8.77,0,0,1,190,36a.86.86,0,0,0,0-.39c-.08-.26-.39-.36-.66-.42h0c0-.21.06-.42.08-.62a46.87,46.87,0,0,1,.47-6.92A4.81,4.81,0,0,1,191,25.26c1-1,2.62-1.22,3.37-2.4a2.74,2.74,0,0,0-.41-3.22,4.06,4.06,0,0,0-3.16-1.17,1.68,1.68,0,0,0-.92.25,2,2,0,0,0-.56.85l-1.15,2.8a17.74,17.74,0,0,0-.84,2.24c-.32,1.18-.39,2.42-.65,3.61a9.44,9.44,0,0,1-.91,2.89c-.36.94-.75,1.88-1.07,2.84-.08.24-.36,1-.54,1.61a.62.62,0,0,0-.18.14,4.24,4.24,0,0,0-.38.56c-.25.32-.64.5-.91.81s-.33.88,0,1l.23,0,.14,0c.41.11.56.62.51,1s-.27.8-.31,1.22a3.34,3.34,0,0,0,.78,2.06,19.35,19.35,0,0,0,1.44,1.93c.37.42.8.8,1.18,1.21,1.45,1.49,2.61,3.24,3.91,4.86a11.43,11.43,0,0,0,1.59,1.67,12.24,12.24,0,0,0,1.21.82l2.24,1.43a2.76,2.76,0,0,0,.85.4h.3c0,.06,0,.13,0,.2a11.11,11.11,0,0,1,.6,2c.05.72,0,1.45,0,2.18s.2,1.34.24,2a13,13,0,0,1-.54,3.75,22.43,22.43,0,0,1-1.61,5.32,3.06,3.06,0,0,0-.54,1.43.65.65,0,0,0,0,.19h0l-.4.22-.35.21A2.86,2.86,0,0,0,193,73.64c-.17.47-.09,1-.3,1.45l0,.06c-.21.42-.64.73-.74,1.19h0c-.07.35.07.72,0,1.07h0a3.58,3.58,0,0,0-.14.54,1.09,1.09,0,0,0,0,.18,1.11,1.11,0,0,0,.33.52,1.89,1.89,0,0,0,.31.25,2.5,2.5,0,0,0,.35.21l.07,0,.31.15.07,0,.37.15.09,0,.29.09.07,0h.06l.27.06.1,0,.36.05h.87l.38,0h0l.33-.06.09,0,.31-.08.06,0a2.78,2.78,0,0,0,.38-.12,10.24,10.24,0,0,0,1.24-.62l.8-.43a6.65,6.65,0,0,1,.61-.27,3.43,3.43,0,0,1,1.61-.27,5.84,5.84,0,0,1,.81.17v.08c.22,1.29.43,2.58.64,3.87a8.5,8.5,0,0,1,1.12-.67,2.51,2.51,0,0,0-.15.6,3.84,3.84,0,0,0,0,.48,1,1,0,0,1-.07.74c-.1.13-.27.2-.32.33a1.11,1.11,0,0,0,0,.44.69.69,0,0,1-.64.65,1,1,0,0,1-.4,1.2,1.27,1.27,0,0,0-.31.2.8.8,0,0,0-.18.41,7.22,7.22,0,0,1-2.1,3.45,6.27,6.27,0,0,0-1,1,4.7,4.7,0,0,0-.47.92c-.72,1.75-1.44,3.5-2.18,5.25a11.7,11.7,0,0,0-.94,3c-.32,2.9-2.89,5.35-2.41,8.22a4,4,0,0,0,.84,2,4.87,4.87,0,0,0,2.14,1.32,38.26,38.26,0,0,0,6.43,1.69l3.41.7a15.46,15.46,0,0,0,2,.32,13.57,13.57,0,0,1,2.47.19,7,7,0,0,0,1.48.39c.44,0,1-.07,1.24.29s.06.84.31,1.16c.4.51,1.37,0,1.8.48a2.11,2.11,0,0,1,.27.59,1,1,0,0,0,.27.34,3.44,3.44,0,0,1,0,.46,8.3,8.3,0,0,1-.39,1.83l-1,3.27a7.77,7.77,0,0,0-.27,1.18,2.81,2.81,0,0,0,0,.58,1.61,1.61,0,0,0,1,1.4,1.76,1.76,0,0,0,1.31-.16,5.9,5.9,0,0,0,1.07-.72,7.35,7.35,0,0,0,1.55-1.6c1.34-2,.91-4.72,1.85-6.94.62-1.48,1.84-2.68,2.25-4.25a1.75,1.75,0,0,0,0-.91,1.89,1.89,0,0,0-1.28-1h0a10.71,10.71,0,0,0-1.34-.38l-.35-.07a2.15,2.15,0,0,1-.59-.77,1.83,1.83,0,0,0-.12-.46.52.52,0,0,0-.39-.22c-.27,0-.63.07-.92,0-.6,0-1-.63-1.53-.9a3,3,0,0,0-1.69-.16,1.84,1.84,0,0,1-.62,0,2.18,2.18,0,0,1-.64-.45,2.72,2.72,0,0,0-2.37-.47,2.39,2.39,0,0,1-.8.18c-.52,0-.89-.49-1.28-.85-1.06-1-2.56-1.22-3.85-1.86a.86.86,0,0,1-.46-.4c-.15-.36.19-.73.49-1l2.2-1.84c2.42-2,5.44-3.52,6.56-6.46a3.64,3.64,0,0,1,.54-1.1,1,1,0,0,1,.3-.27,2.22,2.22,0,0,1,1.65-.32,5.59,5.59,0,0,1,1.94.84c1,.59,1.89,1.21,2.8,1.88a26,26,0,0,1,2.57,2.11c1.4,1.34,2.58,2.93,3.89,4.38a12.65,12.65,0,0,0,4.63,3.49,6,6,0,0,0,5.59-.5c1.81-1.35,2.39-3.74,2.85-5.95,1-1,1.31-2.45,1.8-3.75.31-.83.7-1.61,1-2.44s.71-2,1-3a13.7,13.7,0,0,0,.72-3.1c.13-1.67-.32-3.45.15-5,.62-.14,1.18-.49,1.79-.69a9,9,0,0,1,2.84-.25h.06a1.45,1.45,0,0,0,1-.22,1.53,1.53,0,0,0,.39-1.14A3.53,3.53,0,0,0,250.74,76.82ZM211.85,31a1.94,1.94,0,0,1-.68.05Z"/><path class="cls-3" d="M212.91,48a2.75,2.75,0,0,1-1.12.59l-1.9.68a7,7,0,0,1-3.2.61c-.61-.07-3.22-.46-3.61-.93-.61-.74,1.5-1.82,2.22-2.44a3.31,3.31,0,0,0,.45-.39,1.65,1.65,0,0,0,.2-1.2,17.61,17.61,0,0,1-.14-3.16,6.42,6.42,0,0,1,.1-.75c.27-1.24,1.42-.79,2.33-.46a18,18,0,0,1,3.15,1.37,2.26,2.26,0,0,1,.78.66,3.37,3.37,0,0,1,.18,2.15,2,2,0,0,0,.31,1.57,6.51,6.51,0,0,1,.51.54A1,1,0,0,1,212.91,48Z"/><path class="cls-3" d="M186.63,28.68c.27-1.19.32-2.42.65-3.6a16.82,16.82,0,0,1,.84-2.24l1.18-2.76a1.92,1.92,0,0,1,.56-.84,1.68,1.68,0,0,1,.92-.25,4.11,4.11,0,0,1,3.16,1.17,2.7,2.7,0,0,1,.41,3.2c-.75,1.17-2.39,1.41-3.37,2.4a4.66,4.66,0,0,0-1.11,2.37,46.47,46.47,0,0,0-.48,6.89,2.26,2.26,0,0,1-.8,1.91,2.37,2.37,0,0,1-1.2.23l-1.76,0c-.3,0-1.37.19-1.57,0-.34-.39.44-2.33.59-2.76.31-1,.7-1.9,1.07-2.84A9.38,9.38,0,0,0,186.63,28.68Z"/><path class="cls-4" d="M223,113c-.41,1.55-1.63,2.76-2.25,4.24-.94,2.21-.52,4.92-1.85,6.92a7.13,7.13,0,0,1-1.55,1.6,5.9,5.9,0,0,1-1.07.72,1.76,1.76,0,0,1-1.31.16,1.61,1.61,0,0,1-1-1.4,2.81,2.81,0,0,1,0-.58,8.06,8.06,0,0,1,.27-1.18l1-3.26a8.09,8.09,0,0,0,.39-1.82c0-.68-.4-1.56-.21-2.19.08-.29.39-.54.53-.78a4,4,0,0,0,.46-1.09,6.86,6.86,0,0,1,.84-2.18,4.83,4.83,0,0,1,1-1,2.61,2.61,0,0,1,1-.56,2.32,2.32,0,0,1,1.08,0,9.24,9.24,0,0,1,1.34.38h0a1.88,1.88,0,0,1,1.28,1A1.69,1.69,0,0,1,223,113Z"/><path class="cls-4" d="M251.53,80a1.44,1.44,0,0,1-.39,1.14,1.48,1.48,0,0,1-.94.22h-.07a9.26,9.26,0,0,0-2.84.24,10.46,10.46,0,0,1-2,.73,4.9,4.9,0,0,1-2.79-.9c-.83-.44-1.68-.85-2.55-1.21-.56-.23-1.73-.38-2-1q-.14-.45-.24-.9a2.66,2.66,0,0,0-.16-.39,2.41,2.41,0,0,1-.3-.89,1.4,1.4,0,0,1,.3-.86,2.59,2.59,0,0,1,1.76-.9,7.67,7.67,0,0,1,2,.1l6.6,1c.51.07,1,.15,1.53.27a3,3,0,0,1,1.31.58A3.38,3.38,0,0,1,251.53,80Z"/><path class="cls-5" d="M245.72,81.71c-.8,1.7-.22,3.71-.37,5.59a14.23,14.23,0,0,1-.71,3.1c-.31,1-.62,2-1,3-.33.8-.73,1.61-1,2.43-.49,1.31-.8,2.78-1.8,3.75-.45,2.2-1,4.6-2.84,5.93a6,6,0,0,1-5.59.5,12.46,12.46,0,0,1-4.63-3.49c-1.32-1.45-2.49-3-3.9-4.37a22.62,22.62,0,0,0-2.57-2.1c-.9-.66-1.84-1.28-2.8-1.86a5.8,5.8,0,0,0-1.94-.85,2.28,2.28,0,0,0-1.65.32,1.93,1.93,0,0,0-.3.27A3.88,3.88,0,0,0,214,95c-1.12,2.94-4.15,4.45-6.56,6.45l-2.21,1.83c-.3.25-.63.61-.49,1a.88.88,0,0,0,.47.4c1.28.63,2.78.89,3.84,1.86.39.35.76.82,1.28.84a2.27,2.27,0,0,0,.81-.18,2.71,2.71,0,0,1,2.36.48,2.52,2.52,0,0,0,.64.44,1.84,1.84,0,0,0,.62,0,3.22,3.22,0,0,1,1.69.16c.51.25.93.86,1.53.9.29,0,.64-.08.92,0a.51.51,0,0,1,.39.22,1.73,1.73,0,0,1,.12.46c.11.38.48.61.72.92a2.53,2.53,0,0,1,.39,1.73,7.34,7.34,0,0,1-2.35,4.94,3,3,0,0,1-1.45.81,1.34,1.34,0,0,1-1.43-.64A2.11,2.11,0,0,0,215,117c-.43-.47-1.4,0-1.8-.48-.24-.31-.07-.82-.3-1.15s-.81-.27-1.24-.29a7.11,7.11,0,0,1-1.49-.39,13.57,13.57,0,0,0-2.47-.19,15.58,15.58,0,0,1-2-.32l-3.42-.7a40.41,40.41,0,0,1-6.42-1.68,5.15,5.15,0,0,1-2.15-1.32,4,4,0,0,1-.84-2c-.48-2.87,2.09-5.32,2.42-8.2a11.13,11.13,0,0,1,.93-3l2.18-5.24a4.47,4.47,0,0,1,.46-.93,5.85,5.85,0,0,1,1-1,7.27,7.27,0,0,0,2.1-3.45.89.89,0,0,1,.18-.41,2.36,2.36,0,0,1,.31-.2,1,1,0,0,0,.4-1.19.7.7,0,0,0,.64-.65,1,1,0,0,1,0-.43c.06-.14.22-.21.32-.34a1,1,0,0,0,.07-.73,3.84,3.84,0,0,1,0-.48,2.5,2.5,0,0,1,.72-1.5c.64-.63,1.56-.47,2.44-.62a14.35,14.35,0,0,0,2.58-.82A25.32,25.32,0,0,1,217,77.61a16.06,16.06,0,0,1,7.35,1.17,4.24,4.24,0,0,1,1,.54,1.77,1.77,0,0,1,.5.59,6.12,6.12,0,0,0,.36.83c.29.39.83.51,1.14.88s.35,1,.61,1.46c.37.65,1.23,1,1.49,1.67.08.22.09.47.15.7a4.09,4.09,0,0,0,1,1.51,11.6,11.6,0,0,1,2.6,5.91,4.5,4.5,0,0,1,2.15-3.32c.31-.2.66-.42.73-.79s-.37-.87-.34-1.34a1.3,1.3,0,0,1,.26-.63,21.59,21.59,0,0,1,1.68-2.11c.33-.36.7-.81.57-1.28s-.47-.57-.67-.88a1.14,1.14,0,0,1,0-1.24c.19-.25.49-.44.58-.74s-.13-.74-.06-1.11a1.42,1.42,0,0,1,.56-.72,3.37,3.37,0,0,1,3.45-.85c1.25.17,2.66.44,3.37,1.49A2.55,2.55,0,0,1,245.72,81.71Z"/><path class="cls-6" d="M251.53,80a1.44,1.44,0,0,1-.39,1.14,1.48,1.48,0,0,1-.94.22h-.07c.11-.56.79-.88.9-1.44a1.28,1.28,0,0,0-.29-1,5,5,0,0,0-2.42-1.52,16,16,0,0,0-8.06-.6,8.14,8.14,0,0,0-2.12.65,5.87,5.87,0,0,0-.65.46,2.41,2.41,0,0,1-.3-.89,1.35,1.35,0,0,1,.31-.86,2.54,2.54,0,0,1,1.75-.9,7.67,7.67,0,0,1,2,.1l6.61,1c.51.07,1,.15,1.52.27a2.88,2.88,0,0,1,1.31.58A3.35,3.35,0,0,1,251.53,80Z"/><path class="cls-6" d="M223,113c-.41,1.55-1.63,2.76-2.25,4.24-.94,2.21-.52,4.92-1.85,6.92a7.13,7.13,0,0,1-1.55,1.6,5.9,5.9,0,0,1-1.07.72,1.76,1.76,0,0,1-1.31.16,1.61,1.61,0,0,1-1-1.4,2.81,2.81,0,0,1,0-.58l0,0c.23.56.61,1.15,1.21,1.25a1.65,1.65,0,0,0,1.24-.44,7.59,7.59,0,0,0,1.89-2.79,11.52,11.52,0,0,0,.91-2.32c.11-.45.16-.92.27-1.38.51-2.21,2.25-4,2.63-6.27a1.47,1.47,0,0,0,0-.47,2.42,2.42,0,0,0-.23-.58,3,3,0,0,1-.2-.65,1.88,1.88,0,0,1,1.27,1A1.66,1.66,0,0,1,223,113Z"/><path class="cls-6" d="M218.93,109.14a3.9,3.9,0,0,1-1.21,1.65,5.87,5.87,0,0,1-2.61,1.13,2.54,2.54,0,0,1-1.34,0c-.6-.2-1-.76-1.64-.92a11.9,11.9,0,0,0-1.34-.08,4.64,4.64,0,0,1-2-1.2c-2-1.47-4.53-1.94-6.48-3.41a.63.63,0,0,1-.21-.22.52.52,0,0,1,0-.3,6.08,6.08,0,0,1,.58-2.58,9.57,9.57,0,0,1,1.11-1.58,47.86,47.86,0,0,1,5.61-6.12,8.44,8.44,0,0,1,3-1.81,4.46,4.46,0,0,1,2.59-.05,1.93,1.93,0,0,0-.3.27A3.5,3.5,0,0,0,214,95c-1.13,2.94-4.16,4.45-6.57,6.45l-2.21,1.83c-.3.25-.63.61-.49,1a.88.88,0,0,0,.47.4c1.28.63,2.78.89,3.84,1.86.39.35.76.82,1.28.84a2.27,2.27,0,0,0,.81-.18,2.71,2.71,0,0,1,2.36.48,2.52,2.52,0,0,0,.64.44,1.84,1.84,0,0,0,.62,0,3.22,3.22,0,0,1,1.69.16c.51.25.93.86,1.53.9C218.3,109.21,218.65,109.11,218.93,109.14Z"/><path class="cls-4" d="M194.24,72.72A2.84,2.84,0,0,0,193,74c-.17.47-.09,1-.3,1.45s-.67.77-.77,1.25.07.72,0,1.07a5.12,5.12,0,0,0-.15.56,1.21,1.21,0,0,0,.66,1,5.42,5.42,0,0,0,4.87.53,19.71,19.71,0,0,0,2.05-1,4,4,0,0,1,2.21-.54c.44.05.87.21,1.31.27a1.4,1.4,0,0,0,1.23-.37,1.61,1.61,0,0,0,.27-.63,9.61,9.61,0,0,0-.15-4.52c-.36-1.48-.9-2.91-1.27-4.38a20.43,20.43,0,0,0-.93-3.25A4.25,4.25,0,0,0,199.76,63a.43.43,0,0,0-.27,0,.46.46,0,0,0-.18.13,8.27,8.27,0,0,0-1.84,3.1c-.42,1.28-.53,2.65-.92,3.94a4,4,0,0,1-.81,1.66A9.2,9.2,0,0,1,194.24,72.72Z"/><path class="cls-7" d="M204.36,77.47a1.44,1.44,0,0,1-.28.63,1.35,1.35,0,0,1-1.22.37c-.44-.06-.87-.22-1.31-.27a4.07,4.07,0,0,0-2.21.53c-.69.35-1.34.77-2.05,1A5.42,5.42,0,0,1,194,80a5.53,5.53,0,0,1-1.61-.71,1.15,1.15,0,0,1-.65-1c0-.19.09-.37.15-.56.07-.35-.07-.72,0-1.07s.57-.8.77-1.25.13-1,.29-1.44a2.89,2.89,0,0,1,1.27-1.27,9.22,9.22,0,0,0,1.52-1c.06-.07.1-.13.15-.2a4.83,4.83,0,0,0,.63-1.48c.4-1.3.51-2.66.92-3.94a8.17,8.17,0,0,1,1.85-3.1.37.37,0,0,1,.17-.13.5.5,0,0,1,.27,0,4.33,4.33,0,0,1,2.26,2.4,20.74,20.74,0,0,1,.92,3.24c.37,1.47.91,2.9,1.27,4.38A9.52,9.52,0,0,1,204.36,77.47Z"/><path class="cls-6" d="M212.35,44.74a5.37,5.37,0,0,1-6.54-3,5.9,5.9,0,0,1,.1-.75c.27-1.24,1.42-.79,2.33-.46A17.26,17.26,0,0,1,211.39,42a2.15,2.15,0,0,1,.78.66A3.31,3.31,0,0,1,212.35,44.74Z"/><circle class="cls-3" cx="210.72" cy="39.35" r="5.37"/><path class="cls-6" d="M225.29,79.46c0,.45-.61.59-1,.57a32.34,32.34,0,0,0-4.78-.4c-2,.18-3.87,1.29-5.89,1.39a18.24,18.24,0,0,0-2.34.07,30,30,0,0,1-2.89.88c-.88.07-1.74-.26-2.62-.22a4.14,4.14,0,0,0-1.75.49,2.5,2.5,0,0,1,.72-1.5c.64-.63,1.55-.46,2.44-.61a13.76,13.76,0,0,0,2.57-.83A25.62,25.62,0,0,1,217,77.62a15.9,15.9,0,0,1,7.34,1.16,4.24,4.24,0,0,1,1,.54A.78.78,0,0,1,225.29,79.46Z"/><path class="cls-8" d="M208.24,49.15l-2.17-.8-.92-.34A4.3,4.3,0,0,0,204,47.7a3,3,0,0,0-2.6,1.51,8.25,8.25,0,0,0-1,3c-.24,1.42-.45,2.85-.62,4.28a28.32,28.32,0,0,0-.29,3.9,46.91,46.91,0,0,0,1.54,9.83,34.09,34.09,0,0,1,.86,4.37c.06.6.09,1.21.16,1.82s.18,1.36.29,2l.65,3.86a5,5,0,0,1,2.71-1.11c.88,0,1.75.3,2.62.22a27.35,27.35,0,0,0,2.89-.87,18.24,18.24,0,0,1,2.34-.07c2-.1,3.87-1.21,5.89-1.39a30.93,30.93,0,0,1,4.78.4c.44,0,1-.12,1-.57s-.31-.52-.58-.67a28.31,28.31,0,0,1-3.64-2.6,12,12,0,0,1-2.86-2.83c-1.75-2.72-1.15-6.4-2.64-9.28-1.22-2.33,0-5.39,0-8a16.48,16.48,0,0,0-.31-3.91,19.09,19.09,0,0,0-.72-2.09l-1-2.65a.47.47,0,0,0-.12-.2.4.4,0,0,0-.24-.07,2.51,2.51,0,0,0-1.73.55c-.49.4-.81,1-1.29,1.39A1.94,1.94,0,0,1,208.24,49.15Z"/><path class="cls-7" d="M211.75,47.63a4.7,4.7,0,0,1,.85-2.07,1.62,1.62,0,0,1,2-.47c.72.47.75,1.54,1.36,2.15a3.36,3.36,0,0,0,2.07.62,13.89,13.89,0,0,1,3.83.9,1.61,1.61,0,0,1,.64.38c.33.38.27,1,.43,1.44s.86,1,1.11,1.61a3.18,3.18,0,0,1-.23,2.13c-.4,1.25-.66,2.54-1.05,3.8a8.54,8.54,0,0,1-1.88,3.43c-.41.42-1,.81-1.55.56l-.21,1.49a2.53,2.53,0,0,0,0,.95.85.85,0,0,0,.62.66c0,.23.29.34.49.47a1.34,1.34,0,0,1,.35,1.86h0c-.17.23-.42.41-.5.68a1,1,0,0,0,.51,1c.35.22.76.32,1.12.52a3.49,3.49,0,0,1,1.38,2.07,3.85,3.85,0,0,0,.8,1.72c.18.17.39.3.56.48a2,2,0,0,1,.48,1.23,2.4,2.4,0,0,1-.35,1.61,4.74,4.74,0,0,1-2.41,1.34,20.65,20.65,0,0,0-3.86,2.52,4,4,0,0,1-1.75.83,15.35,15.35,0,0,1-2.6-.3,6.3,6.3,0,0,0-1.56.2l-1.61.35c.09-1.25-.6-2.5-1-3.69a18.43,18.43,0,0,1-.69-7,55,55,0,0,1,1.12-7,43.42,43.42,0,0,1,.81-4.85,33.22,33.22,0,0,0,1.4-4.52C212.87,52.28,211.17,50.13,211.75,47.63Z"/><path class="cls-7" d="M224,52.59a3.12,3.12,0,0,1,.31.87,3,3,0,0,0,.68,1.28,4.58,4.58,0,0,1,.71.81,6,6,0,0,1,.27,1.54,14.11,14.11,0,0,1,.58,1.61,2.63,2.63,0,0,0,0,.49c.18.65,1.13.81,1.34,1.46.15.42-.1.88,0,1.32a1.19,1.19,0,0,1,0,.42.89.89,0,0,1-.3.39,6.14,6.14,0,0,0-1.77,3.14,17.78,17.78,0,0,0-.4,3.63l-1-1.38a1.72,1.72,0,0,0-.42-.43c-.14-.08-.29-.12-.43-.2a2,2,0,0,1-.71-1.14,10.44,10.44,0,0,0-1.87-3.25,3.5,3.5,0,0,1-1-1.66,3,3,0,0,1,.05-.89,15.23,15.23,0,0,1,1.41-5.12c.4-.73.92-1.39,1.3-2.13C222.91,52.86,223.27,51.58,224,52.59Z"/><path class="cls-7" d="M197.48,54.28a1.17,1.17,0,0,1-.16.64.83.83,0,0,1-.85.27,2.36,2.36,0,0,1-.85-.39l-2.24-1.42a14.38,14.38,0,0,1-1.21-.83,10.92,10.92,0,0,1-1.59-1.67c-1.3-1.61-2.46-3.35-3.91-4.83-.39-.4-.8-.79-1.19-1.21a17.71,17.71,0,0,1-1.43-1.92,3.3,3.3,0,0,1-.78-2.05c0-.42.24-.81.3-1.22a.91.91,0,0,0-.5-1l-.14,0-.24-.05c-.37-.16-.31-.74-.05-1s.67-.47.91-.81c.12-.19.25-.38.39-.56a1.47,1.47,0,0,1,.62-.32,9.84,9.84,0,0,1,4.76-.18c.27.06.58.17.66.43a.86.86,0,0,1,0,.39,8,8,0,0,0-.2,1.61,2,2,0,0,0,0,.34,6.15,6.15,0,0,0,1.59,3c.85,1,1.72,2.1,2.59,3.15a11.88,11.88,0,0,0,1.57,1.68,9,9,0,0,1,1.65,1.37,3,3,0,0,1,.27,1.65A36.86,36.86,0,0,1,197.48,54.28Z"/><path class="cls-3" d="M231.57,65.48a5.82,5.82,0,0,0,.71-.85,5.38,5.38,0,0,0,.54-1.2L234.37,59c.25-.7.5-1.4.81-2.08s.7-1.44,1-2.15A28.16,28.16,0,0,0,238.32,49a1.71,1.71,0,0,0-.68-2A5.71,5.71,0,0,0,236.5,46a1.87,1.87,0,0,0-1.44-.23,2.05,2.05,0,0,0-1.27,1.61,17,17,0,0,0-.17,2.14c-.1,1-.45,2-.54,3.06,0,.6,0,1.21-.07,1.8a6.52,6.52,0,0,1-.81,2.22,14.46,14.46,0,0,1-3.47,4.27,6.14,6.14,0,0,0-1,1,3.32,3.32,0,0,0-.5,1.25,2.86,2.86,0,0,0,.22,2,3,3,0,0,0,2.08,1.24C230.57,66.62,230.82,66.25,231.57,65.48Z"/><path class="cls-4" d="M210.76,31.58a2.5,2.5,0,0,1,2.43-1.32,2.7,2.7,0,0,1,2.11,1.89,4.62,4.62,0,0,0,.39,1.19c.34.52.95.67,1.42,1a2.86,2.86,0,0,1,.9,2,6.23,6.23,0,0,1-.36,2.26,7.75,7.75,0,0,0-.27.94c0,.31-.06.63-.11.94a3,3,0,0,1-1.23,2,.5.5,0,0,1-.33.12c-.21,0-.34-.26-.42-.48-.42-1.24-.32-2.74-1.11-3.72a4,4,0,0,0-1.27-.95,1.72,1.72,0,0,0-.65-.25,1.69,1.69,0,0,0-.94.35,5.69,5.69,0,0,1-1.85.82,2.27,2.27,0,0,1-1.92-.41c-.37-.31-.64-.77-1.06-1a8.84,8.84,0,0,0-1.24-.39,1.85,1.85,0,0,1-1-2.42,1.9,1.9,0,0,1,.23-.39c.27-.32.67-.5.91-.86a5.49,5.49,0,0,0,.43-1.65,2.25,2.25,0,0,1,1.36-1.56,1.93,1.93,0,0,1,1.91.4c.27.24.49.55.75.81a2.17,2.17,0,0,0,2,.53"/><path class="cls-6" d="M215.17,71.08a1.05,1.05,0,0,0-.29,1.14,26.32,26.32,0,0,0,3.12-.45c.73-.11,2-.06,2.51-.72.87-1.19-1.84-.92-2.34-.88A5.11,5.11,0,0,0,215.17,71.08Z"/><path class="cls-4" d="M190,36.46a9.71,9.71,0,0,0-.2,1.61,4.84,4.84,0,0,1-2.42-.37l-2.21-.76a.63.63,0,0,0-.85.16c-.36.37-.85,1.07-1.34,1.49l-.24-.05c-.37-.16-.32-.74-.05-1s.67-.47.91-.81c.12-.19.24-.38.38-.56a1.51,1.51,0,0,1,.63-.32,9.84,9.84,0,0,1,4.76-.18c.27.06.58.17.66.43A.78.78,0,0,1,190,36.46Z"/><path class="cls-7" d="M190,36.46a9.71,9.71,0,0,0-.2,1.61,4.84,4.84,0,0,1-2.42-.37l-2.21-.76a.63.63,0,0,0-.85.16c-.36.37-.85,1.07-1.34,1.49l-.24-.05c-.37-.16-.32-.74-.05-1s.67-.47.91-.81c.12-.19.24-.38.38-.56a1.51,1.51,0,0,1,.63-.32,9.84,9.84,0,0,1,4.76-.18c.27.06.58.17.66.43A.78.78,0,0,1,190,36.46Z"/><path class="cls-6" d="M210.28,87.41a1.33,1.33,0,0,1,.93.7l-3.11-.79-1.61-.41c-.28-.07-1.3-.15-1.49-.38s.69-.1.86-.07c.52.07,1,.15,1.56.25C208.39,86.88,209.33,87.17,210.28,87.41Z"/><path class="cls-6" d="M211.48,90.16a5.94,5.94,0,0,0-1.37-.24c-.48-.11-1-.27-1.43-.41-1-.32-1.92-.67-2.91-.9-.18,0-.81-.06-.78-.29s.63-.31.77-.32a7.72,7.72,0,0,1,2.79.64A12,12,0,0,1,211.48,90.16Z"/><path class="cls-6" d="M209.51,85a19.39,19.39,0,0,0-2.89-1,1.14,1.14,0,0,1-.74-.23.88.88,0,0,1-.24-.43,5,5,0,0,1,2.09.53,6,6,0,0,1,1,.52C208.93,84.48,209.27,84.88,209.51,85Z"/><path class="cls-7" d="M228.29,60.93a4.68,4.68,0,0,0,3.29,5.18c-.14.64-.79,1-1.26,1.44-.65.64-1,1.59-1.76,2.08a4,4,0,0,1-2.95.1.42.42,0,0,1-.24-.12.49.49,0,0,1,0-.11,6.88,6.88,0,0,1-.2-3.65,11.74,11.74,0,0,1,1.43-2.77C227.07,62.18,227.12,61.22,228.29,60.93Z"/><path class="cls-7" d="M204.29,45.54a6.82,6.82,0,0,0-2.95.9,3.35,3.35,0,0,1-1.91.72c-.4,0-.8-.27-1.2-.16a2.34,2.34,0,0,0-.61.36.72.72,0,0,1-.68.11l-.27,3.71a13.61,13.61,0,0,0,.14,4.23,11.21,11.21,0,0,1,.6,2.06c.05.71,0,1.45,0,2.17s.2,1.32.24,2a12.92,12.92,0,0,1-.54,3.74,22.06,22.06,0,0,1-1.61,5.29,3.14,3.14,0,0,0-.54,1.43.58.58,0,0,0,0,.19l-.75.43A2.86,2.86,0,0,0,193,74c-.17.47-.09,1-.3,1.45s-.67.77-.77,1.25.07.72,0,1.07a5.12,5.12,0,0,0-.15.56,1.19,1.19,0,0,0,.65.94A5.14,5.14,0,0,0,194,80l1.61-6.36h0a51.61,51.61,0,0,0,3.63-8.44,16.91,16.91,0,0,1,1.05-2.78,13.77,13.77,0,0,0,.8-1.58,11.65,11.65,0,0,0,.39-2.12,14.44,14.44,0,0,1,.63-2.45,10.61,10.61,0,0,0,.68-2.63c.09-1.29-.38-2.66.12-3.85a5.13,5.13,0,0,1,.82-1.24c.69-.84,1.32-1.73,2-2.58A1.86,1.86,0,0,0,204.29,45.54Z"/><g class="cls-9"><path d="M211.85,30.69l-.33,0,0,0A1.5,1.5,0,0,0,211.85,30.69Z"/><path d="M218,36.26a7,7,0,0,1-.34,1.57,7.9,7.9,0,0,0-.27,1c0,.31-.06.62-.1.94a3.12,3.12,0,0,1-1.24,2,.55.55,0,0,1-.33.12c-.21,0-.34-.27-.42-.49-.42-1.23-.32-2.74-1.11-3.72a4,4,0,0,0-1.27-.95,1.71,1.71,0,0,0-.65-.24,1.76,1.76,0,0,0-.94.34,5.69,5.69,0,0,1-1.85.82,2.27,2.27,0,0,1-1.92-.41,8.32,8.32,0,0,0-1.06-1,7.69,7.69,0,0,0-1.24-.39,1.85,1.85,0,0,1-1.05-1.2s0-.07,0-.1a1.83,1.83,0,0,0,1.07,2.1,10.5,10.5,0,0,1,1.24.39,9.06,9.06,0,0,1,1.06,1,2.27,2.27,0,0,0,1.92.41,5.69,5.69,0,0,0,1.85-.82,1.69,1.69,0,0,1,.94-.35,1.72,1.72,0,0,1,.65.25,4,4,0,0,1,1.25.95c.79,1,.69,2.49,1.12,3.72.07.23.2.47.41.49a.49.49,0,0,0,.35-.13,3.06,3.06,0,0,0,1.24-2c.05-.31.05-.62.11-.94a6.24,6.24,0,0,1,.26-.94,6,6,0,0,0,.36-2.26S218,36.3,218,36.26Z"/></g><path class="cls-10" d="M167,101.86a49.68,49.68,0,0,0,26.64-24.09A51.14,51.14,0,0,0,199,60.25l.18-2.45h1.88l-.18,2.45a51.14,51.14,0,0,1-5.36,17.52,49.68,49.68,0,0,1-26.64,24.09c-1.16.46-2.36.89-3.6,1.28l-.18-.57Z"/><path class="cls-11" d="M137.41,98.79,136,103.14c-1.25-.4-2.45-.83-3.6-1.28a49.75,49.75,0,0,1-26.65-24.1,50.7,50.7,0,0,1-5.35-17.51l-.18-2.45h21.91v4.56H105.33a49.68,49.68,0,0,0,4.61,13.5,44.15,44.15,0,0,0,17.48,18.56A50.45,50.45,0,0,0,137.41,98.79Z"/><path class="cls-11" d="M175.58,93.54A44.15,44.15,0,0,0,193.06,75a49.89,49.89,0,0,0,4.6-13.5H180.83V56.92h21.92l-.18,2.45a51.06,51.06,0,0,1-5.36,17.51A49.65,49.65,0,0,1,170.57,101c-1.16.46-2.36.88-3.6,1.28l-1.38-4.35A51,51,0,0,0,175.58,93.54Z"/><path class="cls-10" d="M134.24,101.86a49.7,49.7,0,0,1-26.65-24.09,50.72,50.72,0,0,1-5.35-17.52l-.18-2.45h-1.88l.18,2.45a50.72,50.72,0,0,0,5.35,17.52,49.7,49.7,0,0,0,26.65,24.09c1.15.46,2.35.89,3.6,1.28l.18-.57C135.49,102.34,134.86,102.1,134.24,101.86Z"/><path class="cls-12" d="M176,140.82v24.6H125.31v-24.6l1.61-2.15c16.41-5.82,19.74-21,20.4-27,.1-.83.15-1.67.17-2.5h6.26a23.33,23.33,0,0,0,.17,2.5c.67,6,4,21.2,20.39,27Z"/><rect class="cls-6" x="125.31" y="140.82" width="50.63" height="3.09"/><path class="cls-10" d="M129.61,138.67c16.4-5.82,19.73-21,20.39-27a23.33,23.33,0,0,0,.17-2.5h-2.68c0,.83-.07,1.67-.17,2.5-.67,6-4,21.2-20.4,27l-1.61,2.15v24.6H128v-24.6Z"/><path class="cls-6" d="M117.62,57.8h4.54v4.56H118C117.86,60.86,117.73,59.34,117.62,57.8Z"/><path class="cls-6" d="M137.41,98.79,136,103.14c-1.25-.4-2.45-.83-3.6-1.28a47.74,47.74,0,0,1-5-7.44A50.45,50.45,0,0,0,137.41,98.79Z"/><path class="cls-6" d="M163.85,98.79a51,51,0,0,0,10-4.37,49.18,49.18,0,0,1-5,7.44c-1.16.46-2.36.88-3.6,1.28Z"/><path class="cls-6" d="M183.63,57.8c-.1,1.54-.23,3.06-.4,4.56H179.1V57.8Z"/><path class="cls-6" d="M153.93,111.65a17.44,17.44,0,0,1-6.6,0c.1-.83.15-1.67.17-2.5h6.26A23.33,23.33,0,0,0,153.93,111.65Z"/><path class="cls-12" d="M118.16,50.24c.11,33.83,14.61,61.19,32.47,61.19S183,84.07,183.1,50.24Z"/><path class="cls-10" d="M123.93,50.24h-5.77c.11,33.83,14.61,61.19,32.47,61.19a17.52,17.52,0,0,0,2.89-.24C137,108.43,124,82.23,123.93,50.24Z"/><rect class="cls-13" x="133.41" y="150.23" width="34.44" height="8.86"/><polygon class="cls-10" points="135.02 151.44 167.85 151.44 167.85 150.23 133.41 150.23 133.41 159.09 135.02 159.09 135.02 151.44"/><path class="cls-14" d="M99.79,82.9c-.62-.2-4.27-3.09-4.55-4.4S97.17,65,97.17,65a4.89,4.89,0,0,1-.53,0v-.2l.45-16S99,38.05,95.44,38.68s-1.31,10.11-1.31,10.11-.4,4.81-.68,6.26-1.5,7.06-.66,8.83a1.62,1.62,0,0,0,.1.18h0s.14,6-1.38,6.88-2.05,4.74-2.1,5.1l-.07,0h0a4.09,4.09,0,0,1-1.12-1,.94.94,0,0,1-.09-.12,5.9,5.9,0,0,0-.16-8,5.81,5.81,0,0,0-1.66-1.21A3.75,3.75,0,0,0,86,64.15c-.69-1.5-4.56-3.45-7.3-3.49-1.27,0-2.31.32-2.69,1.31a7.7,7.7,0,0,0-.21,1.59A4,4,0,0,1,74,66.15,10.23,10.23,0,0,0,72.85,65a26,26,0,0,1-2.68-3s-5.58-5.78-6-7.36-6-11.09-7.23-9.44,4.27,8.87,4.27,8.87a16.87,16.87,0,0,0,1.85,3.51c.81.89,7,9.85,7,9.85l.3.61a5.34,5.34,0,0,0-2.92,2.93c-.62,2,.73,4,1.66,5.9,1.82,3.67,2.08,8.34-.26,11.69-2.11,3-5.76,4.37-9.17,5.6a9.06,9.06,0,0,0,5.79,1.92c-.79,2.29-3.58,3-6,3.47a8.56,8.56,0,0,0,4.76,1.9,13.64,13.64,0,0,0,2.55.2h.42a8.08,8.08,0,0,0,.86-.11,4.53,4.53,0,0,0,3.08-2c.54-.93.73-2.21,1.7-2.68a2.28,2.28,0,0,1,.81-.19h.52l4.06,0h.52c1.14,0,2.37-.23,2.95-1.17a3.22,3.22,0,0,0,.37-1.49c.08-1.29,0-2.61,0-3.91.35,2.36.71,6-.15,7.4a12.57,12.57,0,0,1-2.52,2.73,4.72,4.72,0,0,0-.66.68l-.21.14-.09.25a5,5,0,0,0-.65,1.52,1.06,1.06,0,0,0,0,.43c.09.19-.67,1-.45,1.31a11.83,11.83,0,0,0-2.27,5.64l-3.49,5.29c-1.79,4.71-4.48,5.2-4.48,5.2s-6.3-4.23-6.47-4.44A23.55,23.55,0,0,0,58,115.09,2.77,2.77,0,0,0,56.8,114c-.83-.35-.9-1.61-.9-1.61-.1-3-1.86-3.22-1.86-3.22a5.72,5.72,0,0,0-3.33.59l-.25,0-4.3.32c-4.48.29-5.54,3.19-5.54,3.19a.89.89,0,0,0,.17,1.29c.72.67,5.34,0,5.54,0a3.09,3.09,0,0,1-1-.08c.72,0,1.73,0,2.58,0h.21a10.34,10.34,0,0,0-.08,1.36c0,.86,2.37,1.41,2.37,1.41l7.23,6.44a28.77,28.77,0,0,1,7.44,5c2.9,2.92,5.45.4,5.45.4,3.07-.76,11.88-11.41,11.89-11.42h0c0,.31.18,10.67.53,12.75h0a1.77,1.77,0,0,0,.08.31c.41.89-.14,3.33-.38,4.36a12.11,12.11,0,0,0-.17,2.62s-3.31,12.61-3,13.72-1.79,6.26-1.79,6.26v4.29l.36,0a1.59,1.59,0,0,0-.13.22l0,0a15.59,15.59,0,0,0,3.69.35c1.48-.14,4,1.14,4,1.14a11.24,11.24,0,0,0,3.52.58c2.65.17,2.65-1.17,2.65-1.17-.3-1.83-4.49-2.44-4.62-2.46a11.15,11.15,0,0,1-.92-.64l-.05-.05a.56.56,0,0,0,0-.12c.45-1.82-2-2.62-2-2.62v-.44c1.61-.83,1.93-6.5,1.93-6.5s2.42-7,2.76-8.19a7.91,7.91,0,0,0,0-2.92l.24-1.51a7.35,7.35,0,0,0,.52-1.24,2.94,2.94,0,0,1,.58-1.44c.38-.45-.41-1.52-.41-1.52l.69-1.78v-2L92,122.49s1.68-8.29,1.1-11a4.65,4.65,0,0,1,.69-4.09,2.72,2.72,0,0,1-.35.16,9.1,9.1,0,0,0,.41-1.14l3.62.45v0h1.31s-.41-5.1-.41-7.15,1.39-9.44,1.39-9.44S100.41,83.11,99.79,82.9ZM83.71,77c0,.2,0,.41,0,.63l-.08.11-.13-.12-.17.26,0,0c-.36-.18-.54-1.22-.8-1l0,0c-.06-.06-.11-.08-.17,0l-.06.05v-.24a6,6,0,0,0,1.51.19ZM95.76,100.7h.07l-.12.34C95.72,100.92,95.74,100.81,95.76,100.7ZM82.53,161.56l-.49-.13.26,0,.25.16,0,0Zm5-.73c-.16-.08-.33-.18-.49-.28C87.14,160.58,87.35,160.69,87.57,160.83Z"/><polygon class="cls-15" points="97.54 95.63 94.29 104.1 95.08 104.1 92.02 106.53 97.54 107.22 97.54 95.63"/><polygon class="cls-6" points="97.54 95.63 94.29 104.1 93.47 103.88 92.02 106.53 97.54 107.22 97.54 95.63"/><polygon class="cls-15" points="92.44 101.05 97.54 101.05 99.41 85.66 92.44 85.66 92.44 101.05"/><polygon class="cls-6" points="92.44 101.05 97.54 101.05 99.41 85.66 92.44 85.66 92.44 101.05"/><path class="cls-16" d="M82.49,89.3l1.1-.19,2.53-.42s7.59-1.72,9.16-1.86A9.66,9.66,0,0,0,98,86.05c.42-.18.68-.31.68-.31l-2.74-5L91.72,77.6S89,77,87.9,75.47a2.51,2.51,0,0,1-.35-2.39c.69-2.14-4.14,2.06-4.14,2.06s0,1,0,2.28c0,.26,0,.52,0,.79a5.09,5.09,0,0,1,0,.54,8.67,8.67,0,0,1-.84,3.37C81.32,84,82.49,89.3,82.49,89.3Z"/><path class="cls-6" d="M83.41,77.53h.11c.19,0,.35-.41.54-.43a5.51,5.51,0,0,0,3.84-1.53,2.54,2.54,0,0,1-.35-2.38c.7-2.15-4.13,2-4.13,2S83.47,76.25,83.41,77.53Z"/><path class="cls-16" d="M77.53,71.45a5.88,5.88,0,0,0,5.88,5.88h0a3.63,3.63,0,0,0,.57,0,5.88,5.88,0,1,0-6.46-5.85Z"/><path class="cls-4" d="M75.73,62.52a6.91,6.91,0,0,0-.21,1.58c-.29,1.91-2.23,3.05-4,3.85s-3.73,1.75-4.29,3.59c-.61,2,.72,4,1.65,5.87C70.7,81.05,71,85.7,68.62,89c-2.07,3-5.68,4.36-9.09,5.59a9,9,0,0,0,5.76,1.91c-.78,2.28-3.56,3-5.93,3.45a8.51,8.51,0,0,0,4.73,1.89,10.56,10.56,0,0,0,3.76.07,4.5,4.5,0,0,0,3.05-2c.54-.93.72-2.2,1.69-2.67a3.1,3.1,0,0,1,1.38-.2l4,0c1.25,0,2.74-.1,3.39-1.17a3.27,3.27,0,0,0,.36-1.48c.17-2.64-.33-5.43.75-7.84.33-.73-1.77-1.88-1.55-2.65a24.57,24.57,0,0,0,.94-7.49c0-2.13,1.39-4,2.53-5.77s2.11-4.07,1.2-6C84.59,62.54,76.93,59.41,75.73,62.52Z"/><path class="cls-16" d="M81.09,160.78l1,.68.16.11,0,0,1.22.8,2.84.48,2.49-.17s.72-1.51-.41-1.47a2.36,2.36,0,0,1-1-.3l-.15-.08h0a4.76,4.76,0,0,1-.49-.28h0a9.44,9.44,0,0,1-.91-.64c-.38-.29-.63-.51-.63-.51Z"/><path class="cls-6" d="M82.13,161.46l.15.11,0,0,1.22.8,2.84.48,2.5-.17s.71-1.51-.42-1.47a2.36,2.36,0,0,1-1-.3c.2.16.37.33.39.47,0,.38-1.85,1.07-1.85,1.07l-2.67-.7-1.07-.29-.06,0Z"/><path class="cls-4" d="M77.56,162.12a15.54,15.54,0,0,0,3.66.34c1.47-.14,4,1.13,4,1.13a11.22,11.22,0,0,0,3.49.57c2.63.17,2.63-1.16,2.63-1.16-.3-1.82-4.46-2.42-4.59-2.45h0s.27.14.49.29h0c.29.19.61.44.64.65,0,.38-1.85,1.07-1.85,1.07l-2.67-.7-1.07-.29h-.06a22.08,22.08,0,0,0-2.8-.58,1.93,1.93,0,0,0-1.85,1.07Z"/><path class="cls-16" d="M43.09,113.86l1.16.89.84,0h.17c.72,0,1.71,0,2.56,0a8.92,8.92,0,0,1,1.63.09c.58.21,1.61-3.31,1.61-3.31l-1.16-.27-.39-.09-.27-.07-.94-.22-2.88.33-2,1.29Z"/><path class="cls-6" d="M43.09,113.86l1.16.89.84,0a1,1,0,0,1-.53-.48c-.75-2.08,3-3,3-3l1.74-.08h.61l-.39-.09-.27-.07-.95-.22-2.87.33-2,1.29Z"/><path class="cls-4" d="M40.8,114.8c.7.65,5.31,0,5.5,0a2.8,2.8,0,0,1-1-.07,1.13,1.13,0,0,1-.81-.58c-.75-2.09,3-3,3-3l1.73-.08.34,0,4.22-.18.2-1.16s-1.37.13-3.52.3c-1.21.1-2.68.21-4.28.31-4.44.3-5.5,3.19-5.5,3.19A.89.89,0,0,0,40.8,114.8Z"/><path class="cls-16" d="M92.45,64.42a.69.69,0,0,0,.1.19l1,1.5,2.67.27,0-1.06.45-15.91s1.84-10.67-1.64-10-1.3,10-1.3,10-.4,4.79-.68,6.23S91.61,62.68,92.45,64.42Z"/><path class="cls-16" d="M86.46,103.94l.76,1.3,1.7,2.91s3.08,1.12,3.87.26A11,11,0,0,0,94,104.92c.27-1.11.45-2,.45-2Z"/><path class="cls-6" d="M86.46,103.94l.76,1.3a.86.86,0,0,0,.13-.14c.86-1.09,4.64-.23,6.66-.16.27-1.12.45-2.06.45-2.06Z"/><path class="cls-6" d="M47.82,114.66a7.44,7.44,0,0,1,1.63.09c.58.2,1.61-3.32,1.61-3.32l-1.55-.37,4.22-.18.21-1.16s-1.37.13-3.53.3a4.59,4.59,0,0,0-1.17,1l-.06.08A7,7,0,0,0,47.82,114.66Z"/><path class="cls-6" d="M81.09,160.78l1.18.79c1.77-.32,3.38-.82,3.57-1.61v0c-.37-.29-.62-.51-.62-.51Z"/><path class="cls-6" d="M77.59,162.07a40.29,40.29,0,0,0,4.65-.5,24,24,0,0,0-2.8-.58A1.93,1.93,0,0,0,77.59,162.07Z"/><path class="cls-4" d="M48,116c0,.86,2.36,1.4,2.36,1.4l7.18,6.4a28.64,28.64,0,0,1,7.39,4.92c2.87,2.91,5.4.41,5.4.41,3-.75,11.81-11.35,11.81-11.35s.2,12.11.61,13-.13,3.31-.37,4.34a11.93,11.93,0,0,0-.17,2.6s-3.29,12.55-3,13.65-1.78,6.22-1.78,6.22v4.28s8-.31,8.48-2.12-2-2.6-2-2.6v-.45c1.61-.82,1.92-6.46,1.92-6.46s2.39-7,2.73-8.14a7.42,7.42,0,0,0,0-2.91l.24-1.5a7.57,7.57,0,0,0,.52-1.23,2.94,2.94,0,0,1,.58-1.44c.37-.45-.41-1.51-.41-1.51l.68-1.77V129.8l1.61-7.08s1.68-8.25,1.1-11a4.62,4.62,0,0,1,.68-4.07c-2.74,1.44-4.13-1.76-4.58-3.14a5.44,5.44,0,0,1-.17-.59,19.26,19.26,0,0,0-7.29-1.06,8.39,8.39,0,0,0-2.09.45c-3.9,1.4-4.51,7.21-4.51,7.21l-3.45,5.27c-1.78,4.69-4.45,5.17-4.45,5.17s-6.26-4.21-6.44-4.42a26.26,26.26,0,0,0-2.57-1.23,2.75,2.75,0,0,0-1.23-1.13c-.82-.34-.89-1.61-.89-1.61-.1-3-1.84-3.22-1.84-3.22C47.91,108.9,48,115.16,48,116Z"/><rect class="cls-15" x="82.77" y="87.83" width="3.69" height="11.46"/><rect class="cls-6" x="82.77" y="87.83" width="3.69" height="11.46"/><path class="cls-6" d="M92.44,64.4v0c0,.07.07.13.1.19l1,1.5,2.67.27,0-1.06A10.56,10.56,0,0,1,92.44,64.4Z"/><path class="cls-15" d="M92.55,64.61s.13,6-1.37,6.84-2.09,5.09-2.09,5.09,4.56,3,5.58,4.33,3.35,4.46,2.87,5.21,1.16,4.18,1.16,4.18-3,6.15-2.32,8.48.75,8.48.75,8.48h1.3S98,102.16,98,100.1s1.37-9.37,1.37-9.37.61-7.18,0-7.38S95.15,80.27,94.87,79s1.92-13.42,1.92-13.42A12,12,0,0,1,92.55,64.61Z"/><path class="cls-6" d="M82.7,86.77a5.75,5.75,0,0,0,.89,2.34l2.53-.42s7.59-1.72,9.16-1.86A9.66,9.66,0,0,0,98,86.05a12.1,12.1,0,0,0-3.39-5.57l-1-.89a16.26,16.26,0,0,0-4.86-3.11c.11.1,8.08,6.9,6.33,8.23S88.7,82.8,88.7,82.8l-5.34-4.59L83.17,78l-.31.48.46.22a7.88,7.88,0,0,1,3.76,4.67C88.17,87.1,82.7,86.77,82.7,86.77Z"/><path class="cls-17" d="M81.05,103.87s5.06,2.8,6.29,1.23a2.17,2.17,0,0,1,1.54-.54c-.11-.35-.17-.59-.17-.59a19.1,19.1,0,0,0-7.28-1Z"/><path class="cls-18" d="M83.38,78.05l5.54,4.76s4.67,3.26,6.44,1.91S89,76.49,89,76.49h0a16.56,16.56,0,0,1,4.86,3.1l1,.89c2.53,2.35,3.1,2.35,3.19,5.8a4.9,4.9,0,0,1-.49,2.29c-.82.81-1.4,6.66-1.27,7.34s-1.53,6.59-1,8.23-6.71-.82-7.94.76-6.29-1.23-6.29-1.23,2.81-7.19,3.49-7.67,1.51-4.17,0-5.88a6.44,6.44,0,0,1-1.64-3.35s5.48.34,4.38-3.35a7.74,7.74,0,0,0-4.21-4.89Z"/><path class="cls-6" d="M90.77,90.16s-2.12,4-4.87,5l-.27.08C82.77,96.16,91,91.4,90.77,90.16Z"/><path class="cls-16" d="M61.08,54.76a15.9,15.9,0,0,0,1.85,3.48c.82.89,6.91,9.79,6.91,9.79l.51,1.07.44.92,3.9-.42L75,68l-.15-.18a18.05,18.05,0,0,0-2.18-2.28A25.58,25.58,0,0,1,70,62.63s-5.54-5.75-6-7.32-6-11-7.18-9.37S61.08,54.76,61.08,54.76Z"/><g class="cls-9"><path d="M72.4,97.06a3.1,3.1,0,0,0-1.38.2c-1,.47-1.15,1.74-1.69,2.67a4.48,4.48,0,0,1-3,2,6.55,6.55,0,0,1-.74.1,8.43,8.43,0,0,0,2.35-.1,4.48,4.48,0,0,0,3-2c.54-.93.72-2.2,1.69-2.67a2,2,0,0,1,.8-.19Z"/><path d="M81.93,76.47c0-2.13,1.39-4,2.53-5.77s2.1-4.07,1.2-6c-.77-1.65-5.43-3.86-8.12-3.42,2.63.34,5.87,2.07,6.51,3.42.9,1.94-.06,4.21-1.2,6s-2.54,3.64-2.53,5.77A25.25,25.25,0,0,1,79.38,84c-.22.77,1.87,1.92,1.55,2.65-1.09,2.41-.58,5.2-.75,7.84a3.31,3.31,0,0,1-.37,1.48,3.16,3.16,0,0,1-2.71,1.16H78c1.25,0,2.73-.1,3.38-1.17a3.28,3.28,0,0,0,.37-1.48c.17-2.64-.34-5.43.75-7.84.33-.72-1.77-1.88-1.55-2.65A25.1,25.1,0,0,0,81.93,76.47Z"/></g><path class="cls-6" d="M70.35,69.09l.44.92,3.9-.41L75,68l-.15-.19C74.39,68.05,71.28,69.55,70.35,69.09Z"/><path class="cls-6" d="M84.75,79.38s-1-1.5-1.51-1.09-.76-1.24-1.07-1-1.23,1-1.61,0c-.3-.85-3.54-6.21-4.86-8.37-.33-.56-.55-.9-.55-.9s-3.69,1.84-4.58,1.23v1.3l.75.07,4,7.51s1.27,2,1.18,2.72,1.62,3.78,1.9,4,3.22,3.62,3.22,3.62,1.5,7.39.2,9.44a13.92,13.92,0,0,1-3.55,3.56,11.36,11.36,0,0,0-.58,2.19c.1.2-.79,1.09-.38,1.37s1,2.18,1,2.18,1.91-3.07,3-3.55,2.36-6.78,2.36-6.78.38-3.7.41-6.1S83.93,79.38,84.75,79.38Z"/><path class="cls-15" d="M84.54,79.38s-1-1.5-1.5-1.09-.76-1.24-1.07-1-1.23,1-1.61,0c-.31-.85-3.55-6.21-4.86-8.37L75,68s-3.69,1.84-4.58,1.23v1.3l.75.07,4,7.51s1.27,2,1.18,2.72,1.61,3.78,1.89,4,3.22,3.62,3.22,3.62,1.51,7.39.21,9.44a12.2,12.2,0,0,1-2.48,2.74,4.88,4.88,0,0,0-1.61,2.59,1,1,0,0,0,0,.43c.1.2-.79,1.09-.38,1.36a7.21,7.21,0,0,1,1,2.2s1.92-3.08,3-3.56,2.37-6.77,2.37-6.77.37-3.71.41-6.1S83.74,79.38,84.54,79.38Z"/><path class="cls-6" d="M75.17,110.51a13.76,13.76,0,0,1,4,1.36c1.15.83-4.38-1.3-4.38-1.3Z"/><path class="cls-6" d="M82.08,117.79s3,2.5,2.46,4.76-1.92,7.93-1.92,7.93Z"/><path class="cls-6" d="M55.86,113s-4.22.46-4,1,4-.51,4-.51Z"/><path class="cls-6" d="M88.3,133.76s.27.34-1.3,0-.41-1.39-.41-1.39Z"/><path class="cls-6" d="M87.76,138.48a9.73,9.73,0,0,1-3.3,0C83.31,138.14,87.76,138.48,87.76,138.48Z"/><path class="cls-6" d="M83.35,157s-.38-.41-2.26.34-2.63.79-3.18.54S83.35,157,83.35,157Z"/><path class="cls-6" d="M85.43,112.4l-2.66,3.72S84.2,112.87,85.43,112.4Z"/><path class="cls-6" d="M80.25,78.29s-.12,1.23-1.84,1.71a4.72,4.72,0,0,0-2,.87"/><path class="cls-6" d="M75.78,69.36a7.37,7.37,0,0,1-4.64,1.27"/><path class="cls-6" d="M77.51,103.83s.66.42,2.25-1.4"/><path class="cls-6" d="M94,84.54a1.13,1.13,0,0,0-.38-.9l-.45-.54a1.64,1.64,0,0,0-.29-.3c-.27-.2-.61-.27-.89-.45"/><path class="cls-12" d="M148,36.16s22.49-2.54,17.16-17.68a3.86,3.86,0,0,0-2.68-3.66S162.6,16,160.29,16a10.52,10.52,0,0,0-2.44.3A5.14,5.14,0,0,0,155.11,18h0s-5.81,3.68-6.46,14.33c0,0-1.41,2.54-1.24,3.1l3.48-2.26s-1.76-2.48-1.13-4.91c0,0,1,4.84,1.67,4.61.14,0,1.79-1.28,1.79-1.28s-3-4.33-2-8.06c0,0,.39,5.93,2.6,7.6l2.37-2s-3.43-4.42-2.37-8.71c0,0,.61,6.18,2.87,8.24l2.07-2.29s-3.27-4.38-2.37-7.94c0,0,1.44,7.07,2.8,7.39a14.69,14.69,0,0,0,2-3s-2.27-3.2-1.56-5.22c0,0,1.46,4.62,2,4.56,0,0,1.55-3.5,1.39-5.69a11.52,11.52,0,0,1-.83,5.9,6.38,6.38,0,0,0,2.91-2.22s.06,2.27-3.29,3.06A14.79,14.79,0,0,1,160,26.1a14,14,0,0,0,5.3-1.57s-1.43,2.4-5.83,2.19l-2,2.34s4.55-.16,6.31-1.16c0,0-1.84,2.23-6.87,1.71l-2.3,2a23.77,23.77,0,0,0,6.12-.52s-2.15,1.7-6.81,1.07l-1.7,1.15s2.86.07,3.69,0,.91.16.91.16a9.79,9.79,0,0,1-5.31.33S147.85,35.93,148,36.16Z"/><path class="cls-12" d="M174.72,27.4s10.16-1.14,7.75-8a1.74,1.74,0,0,0-1.21-1.65s.08.53-1,.52a5.1,5.1,0,0,0-1.1.14,2.28,2.28,0,0,0-1.24.79h0s-2.63,1.66-2.92,6.47c0,0-.64,1.15-.56,1.4l1.57-1a3.08,3.08,0,0,1-.51-2.22s.44,2.19.75,2.08c.07,0,.81-.58.81-.58s-1.37-2-.89-3.64c0,0,.17,2.68,1.18,3.43l1.07-.9s-1.55-2-1.07-3.94c0,0,.27,2.8,1.29,3.72l.93-1s-1.47-2-1.06-3.59c0,0,.64,3.2,1.26,3.34a6.89,6.89,0,0,0,.89-1.37s-1-1.46-.71-2.36c0,0,.66,2.09.9,2.06a7.19,7.19,0,0,0,.63-2.56,5.27,5.27,0,0,1-.37,2.66,2.81,2.81,0,0,0,1.31-1s0,1-1.49,1.39a7,7,0,0,1-.79,1.31,6.32,6.32,0,0,0,2.4-.71,2.79,2.79,0,0,1-2.63,1L179,24.2a9.35,9.35,0,0,0,2.85-.53s-.83,1-3.1.78l-1,.9a10.46,10.46,0,0,0,2.77-.25,4.25,4.25,0,0,1-3.08.49l-.77.52s1.3,0,1.67,0,.41.08.41.08a4.36,4.36,0,0,1-2.4.14A11.34,11.34,0,0,0,174.72,27.4Z"/><path class="cls-12" d="M132.43,128.34a9.76,9.76,0,0,1-5.3-.33s.08-.22.91-.16,3.69,0,3.69,0L130,126.69c-4.65.62-6.81-1.08-6.81-1.08a24,24,0,0,0,6.13.53l-2.31-2c-5,.51-6.87-1.71-6.87-1.71,1.77,1,6.31,1.16,6.31,1.16l-2-2.34c-4.4.21-5.83-2.2-5.83-2.2a14,14,0,0,0,5.3,1.57,14.85,14.85,0,0,1-1.74-2.9c-3.36-.79-3.3-3.06-3.3-3.06a6.46,6.46,0,0,0,2.91,2.21A11.58,11.58,0,0,1,121,111c-.16,2.19,1.38,5.69,1.38,5.69.52.07,2-4.55,2-4.55.71,2-1.56,5.22-1.56,5.22a15.13,15.13,0,0,0,2,3c1.37-.32,2.8-7.39,2.8-7.39.9,3.56-2.36,7.94-2.36,7.94l2.07,2.29c2.25-2.06,2.87-8.24,2.87-8.24,1.05,4.29-2.38,8.71-2.38,8.71l2.38,2c2.21-1.67,2.59-7.6,2.59-7.6,1.07,3.72-2,8.06-2,8.06s1.64,1.23,1.78,1.28c.71.23,1.68-4.62,1.68-4.62.63,2.44-1.13,4.92-1.13,4.92l3.47,2.26c.18-.56-1.23-3.11-1.23-3.11-.65-10.65-6.46-14.32-6.46-14.32h0a5.14,5.14,0,0,0-2.74-1.74,10.59,10.59,0,0,0-2.44-.31c-2.31,0-2.15-1.16-2.15-1.16a3.86,3.86,0,0,0-2.68,3.67C113.49,128.16,136,130.7,136,130.7,136.1,130.46,132.43,128.34,132.43,128.34Z"/><path class="cls-12" d="M107.6,120.87a4.47,4.47,0,0,1-2.4-.15s0-.1.42-.07,1.67,0,1.67,0l-.77-.52a4.23,4.23,0,0,1-3.08-.49,10.29,10.29,0,0,0,2.77.24l-1-.9c-2.27.23-3.11-.77-3.11-.77a9.35,9.35,0,0,0,2.85.53l-.9-1.06a2.79,2.79,0,0,1-2.63-1,6.1,6.1,0,0,0,2.39.71,7.57,7.57,0,0,1-.79-1.31c-1.51-.35-1.49-1.38-1.49-1.38a2.92,2.92,0,0,0,1.32,1,5.3,5.3,0,0,1-.38-2.67,7.42,7.42,0,0,0,.63,2.56c.25,0,.9-2,.9-2,.33.9-.7,2.36-.7,2.36a6.47,6.47,0,0,0,.89,1.37c.61-.14,1.26-3.34,1.26-3.34.41,1.61-1.07,3.59-1.07,3.59l.94,1c1-.93,1.29-3.72,1.29-3.72.48,1.94-1.07,3.93-1.07,3.93l1.07.91c1-.75,1.17-3.43,1.17-3.43.49,1.68-.88,3.64-.88,3.64s.74.57.8.58c.32.11.76-2.08.76-2.08a3.07,3.07,0,0,1-.52,2.22l1.58,1c.07-.25-.56-1.4-.56-1.4-.3-4.82-2.92-6.48-2.92-6.48h0a2.3,2.3,0,0,0-1.24-.78,4.54,4.54,0,0,0-1.1-.14c-1,0-1-.53-1-.53a1.75,1.75,0,0,0-1.2,1.66c-2.41,6.84,7.74,8,7.74,8A10.55,10.55,0,0,0,107.6,120.87Z"/><ellipse class="cls-12" cx="245.88" cy="163.78" rx="10.79" ry="1.82"/><path class="cls-12" d="M250.35,160.79a3.07,3.07,0,0,0,1-1.55,1.36,1.36,0,0,0-.72-1.58c-.66-.26-1.36.2-1.9.66a2.49,2.49,0,0,1-1.84.9,2.84,2.84,0,0,0,.87-2.64,1.16,1.16,0,0,0-.24-.53c-.37-.4-1-.23-1.47.08-1.4,1-1.79,2.88-1.8,4.58a8.43,8.43,0,0,1,0-1.88,1.94,1.94,0,0,0-.71-1.67,2.93,2.93,0,0,0-2.83.25,1.73,1.73,0,0,0,.07,2.15A6.81,6.81,0,0,0,242.6,161a3.92,3.92,0,0,1,1.29,1.24,1.47,1.47,0,0,1,.1.22h3.93A11,11,0,0,0,250.35,160.79Z"/></g></g></svg>