<svg xmlns="http://www.w3.org/2000/svg" viewBox="0 0 714.74 496.32"><defs><style>.cls-1,.cls-4{fill:#29aae1;}.cls-1{opacity:0.17;}.cls-2{fill:#ffc713;}.cls-3{fill:#403e56;}.cls-5{fill:#f9b7b9;}.cls-6{fill:#302e41;}.cls-7{fill:#fff;}.cls-8{fill:#f3f3f3;}.cls-9{fill:#a7a9ac;}.cls-10{fill:#e6e6e5;}</style></defs><title>satish</title><g id="Layer_2" data-name="Layer 2"><g id="Layer_2-2" data-name="Layer 2"><path class="cls-1" d="M7.72,255.38C19,299.45,43,337.55,80.81,356c78.67,38.38,256,18.58,388.33-4.13,68.47-11.76,128.62-44.17,172.34-89.84Z"/><path class="cls-1" d="M701.78,47.94H629.16a6,6,0,0,1-6.28-5.72,6,6,0,0,1,6.28-5.72h12.56a6,6,0,0,1-6.28-5.73c0-3.14,2.82-5.71,6.28-5.71h-9a6,6,0,0,1-6.28-5.73,6,6,0,0,1,6.28-5.72h37.9A107.13,107.13,0,0,0,641.1,6.19C537.75-5.92,500.84,2.08,487.81,10.32a152.32,152.32,0,0,1-53.12,21.23c-63.77,12-183,26.42-291.11-4.63C89.86,11.5,49.94,37.6,26,81.15H714.39c-.9-12.67-3.59-24.37-8.53-34.6A6.54,6.54,0,0,1,701.78,47.94Z"/><path class="cls-1" d="M1.56,163.4a266,266,0,0,0,2.82,76.88L642,261.54A271.94,271.94,0,0,0,686.26,200Zm252.15,54.85H241.15a5.74,5.74,0,1,1,0,11.44H168.56a5.74,5.74,0,1,1,0-11.44h12.57a5.75,5.75,0,1,1,0-11.45h-9a6,6,0,0,1-6.28-5.72c0-3.14,2.83-5.72,6.28-5.72h72.62c3.45,0,6.28,2.58,6.28,5.72a6,6,0,0,1-6.28,5.72h8.94c3.46,0,6.29,2.58,6.29,5.72A6,6,0,0,1,253.71,218.25Z"/><path class="cls-1" d="M714.42,81.54,18.33,97C9.85,116.82,4.24,139.26,1.65,162.52H702.22a250.9,250.9,0,0,0,10.11-41.78A181,181,0,0,0,714.42,81.54ZM143,132.12H130.42c3.45,0,6.29,2.58,6.29,5.72a6,6,0,0,1-6.29,5.73H57.81a6,6,0,0,1-6.28-5.73c0-3.14,2.83-5.72,6.28-5.72H70.38c-3.45,0-6.29-2.57-6.29-5.72s2.83-5.72,6.29-5.72h-9a5.75,5.75,0,1,1,0-11.45H134a5.75,5.75,0,1,1,0,11.45h9c3.45,0,6.28,2.58,6.28,5.72A6,6,0,0,1,143,132.12Z"/><ellipse class="cls-2" cx="340.32" cy="473.53" rx="291.78" ry="22.8"/><path class="cls-3" d="M158.06,457.41c-.16-.26-3.95-6.6-5.27-19.76-1.21-12.07-.43-32.42,10.12-60.81,20-53.78-4.61-97.17-4.86-97.6l1.22-.7c.06.11,6.41,11.17,10.16,28.78a125.68,125.68,0,0,1-5.2,70c-20,53.68-5.12,79.1-5,79.35Z"/><circle class="cls-2" cx="150.24" cy="266.96" r="9.12"/><circle class="cls-3" cx="179" cy="300.63" r="9.12"/><circle class="cls-2" cx="159.36" cy="323.08" r="9.12"/><circle class="cls-4" cx="183.21" cy="342.01" r="9.12"/><circle class="cls-3" cx="152.35" cy="371.47" r="9.12"/><path class="cls-3" d="M163.57,457.74s-9.12-22.44,18.24-39.27Z"/><path class="cls-3" d="M152.36,457.34s-4.15-23.87-36.27-23.67Z"/><path class="cls-5" d="M308.06,60.75s.7,18.24-3.51,22.45,21,18.94,21,18.94L340.32,79s-5.61-9.82-4.21-18.24Z"/><polygon class="cls-5" points="262.82 431.44 262.82 448.98 284.56 450.38 283.16 431.44 262.82 431.44"/><polygon class="cls-5" points="382.06 431.44 382.06 448.98 360.31 450.38 361.71 431.44 382.06 431.44"/><path class="cls-6" d="M274,237.15s-11.22,40.69-4.21,73c0,0,0,14,2.81,16.83s3.5,2.81,1.4,4.21-6.31,4.91-4.21,7,2.81,4.91,1.4,5.61-2.8,2.1-1.4,4.91-7,77.85-7,77.85-8.42,9.12,0,9.82,22.44,4.21,23.85-1.4,12.62-84.87,12.62-84.87,1.4-2.1,4.21-5.61,1.4-4.91,1.4-5.61,14.73-67.34,14.73-67.34,21.74,75.75,23.85,77.16,2.8,1.4,2.8,3.5-1.4,3.51,0,5.62a35.31,35.31,0,0,1,2.11,3.5s3.51,78.56,10.52,78.56,28.06-1.4,25.95-7.72-4.91-4.91-4.91-4.91,4.91-64.52-7-83.46V328.34c0-1.41.7-2.11,0-3.51S375,240,361.71,235.05,274,237.15,274,237.15Z"/><path class="cls-6" d="M276.14,444.07s-3.5-5.61-8.41-5.61-8.42,5.61-8.42,5.61L246.69,461.6s-18.24,11.22-11.23,17.54,26,2.8,26,2.8S276.85,470.72,279,470a44.65,44.65,0,0,0,8.42-4.91c.7-.7-1.41-25.95-3.51-24.2S280.35,448.28,276.14,444.07Z"/><path class="cls-6" d="M368.73,444.07s3.51-5.61,8.42-5.61,8.41,5.61,8.41,5.61l12.63,17.53s18.23,11.22,11.22,17.54-26,2.8-26,2.8S368,470.72,365.92,470a44.53,44.53,0,0,1-8.41-4.91c-.7-.7,1.4-25.95,3.5-24.2S364.52,448.28,368.73,444.07Z"/><circle class="cls-5" cx="320.33" cy="45.67" r="25.25"/><path class="cls-4" d="M313.67,85.3s-4.72.26-6.92-6.88l-37.27,27.22L284.91,147s2.11,22.44,0,28.75-3.51,11.22-3.51,14-14.72,49.8-9.11,51.9,91.18,10.52,93.28-3.5-7-106.62-7-106.62l14.73-35.77L337.48,72.4S334,86.7,313.67,85.3Z"/><path class="cls-5" d="M267,150.18l-2.81,21.74s-11.22,23.15-8.42,54l-.7,20.34s-7,35.07,7,36.48S267,244.17,267,244.17l7.71-18.94,7.9-42.13,4-29.41Z"/><path class="cls-4" d="M279.65,104.59l-10.17,1s-6.66,49.45-4.56,49.45,25.95,5.61,26.66,4.21S279.65,104.59,279.65,104.59Z"/><path class="cls-6" d="M300.85,19.79l-4.55-1.66s9.52-9.51,22.76-8.69l-3.73-3.72s9.11-3.31,17.38,5.38c4.35,4.57,9.39,9.94,12.52,16h4.88l-2,4.07,7.13,4.06-7.31-.73A20.62,20.62,0,0,1,347.2,45l-1.66,4.55s-6.62-13.24-6.62-14.89v4.13s-4.55-3.72-4.55-6.2l-2.49,2.89L330.64,31l-15.31,4.55,2.49-3.72L308.3,33,312,28.48s-10.76,5.38-11.17,9.93-5.79,10.35-5.79,10.35l-2.49-4.14S288.85,26,300.85,19.79Z"/><path class="cls-5" d="M383.46,142.47v28.75s.7,35.07-11.22,56.82l-6.32,14s-12.62,40.69-20.34,28.06S354,236.45,354,236.45l9.13-53.39-5.62-35.68Z"/><path class="cls-4" d="M359.61,94.07l13.68,1.75s16.48,50.15,12.27,52.26-31.56,3.5-31.56,3.5Z"/><rect class="cls-7" x="442.2" y="23.01" width="254.19" height="284.69"/><rect class="cls-8" x="441.7" y="47.54" width="232.84" height="260.67"/><path class="cls-9" d="M484.4,244.06h-6.1v-1h6.1Zm-12.2,0h-6.1v-1h6.1Zm-12.2,0h-6.1v-1H460Zm-12.2,0h-6.1v-1h6.1Z"/><path class="cls-9" d="M569.81,195.86h-6.1v-1h6.1Zm-12.2,0h-6.1v-1h6.1Zm-12.21,0h-6.1v-1h6.1Zm-12.2,0h-6.1v-1h6.1Zm-12.2,0h-6.1v-1H521Zm-12.2,0h-6.1v-1h6.1Zm-12.2,0h-6.1v-1h6.1Zm-12.2,0h-6.1v-1h6.1Zm-12.2,0h-6.1v-1h6.1Zm-12.2,0h-6.1v-1H460Zm-12.2,0h-6.1v-1h6.1Z"/><path class="cls-9" d="M691.82,165.86h-6.1v-1h6.1Zm-12.2,0h-6.1v-1h6.1Zm-12.2,0h-6.11v-1h6.11Zm-12.21,0h-6.1v-1h6.1Zm-12.2,0h-6.1v-1H643Zm-12.2,0h-6.1v-1h6.1Zm-12.2,0h-6.1v-1h6.1Zm-12.2,0h-6.1v-1h6.1Zm-12.2,0h-6.1v-1h6.1Zm-12.2,0h-6.1v-1H582Zm-12.2,0h-6.1v-1h6.1Zm-12.2,0h-6.1v-1h6.1Zm-12.21,0h-6.1v-1h6.1Zm-12.2,0h-6.1v-1h6.1Zm-12.2,0h-6.1v-1H521Zm-12.2,0h-6.1v-1h6.1Zm-12.2,0h-6.1v-1h6.1Zm-12.2,0h-6.1v-1h6.1Zm-12.2,0h-6.1v-1h6.1Zm-12.2,0h-6.1v-1H460Zm-12.2,0h-6.1v-1h6.1Z"/><rect class="cls-10" x="486.94" y="22.39" width="1.02" height="3.05"/><path class="cls-9" d="M488,253.4h-1v-6h1Zm0-12h-1v-6h1Zm0-12h-1v-6h1Zm0-12h-1v-6h1Zm0-12h-1v-6h1Zm0-12h-1v-6h1Zm0-12h-1v-6h1Zm0-12h-1v-6h1Zm0-12h-1v-6h1Zm0-12h-1v-6h1Zm0-12h-1v-6h1Zm0-12h-1v-6h1Zm0-12h-1v-6h1Zm0-12h-1v-6h1Zm0-12h-1v-6h1Zm0-12h-1v-6h1Zm0-12h-1v-6h1Zm0-12h-1v-6h1Zm0-12h-1v-6h1Z"/><rect class="cls-10" x="486.94" y="259.4" width="1.02" height="3.05"/><rect class="cls-10" x="575.4" y="22.39" width="1.02" height="3.05"/><path class="cls-9" d="M576.42,207.09h-1V201h1Zm0-12.11h-1v-6.06h1Zm0-12.11h-1v-6.06h1Zm0-12.11h-1V164.7h1Zm0-12.11h-1v-6.06h1Zm0-12.11h-1v-6.06h1Zm0-12.11h-1v-6.06h1Zm0-12.11h-1v-6.06h1Zm0-12.11h-1v-6.06h1Zm0-12.11h-1V92h1Zm0-12.11h-1V79.93h1Zm0-12.11h-1V67.82h1Zm0-12.11h-1V55.71h1Zm0-12.11h-1V43.6h1Zm0-12.11h-1V31.49h1Z"/><rect class="cls-10" x="575.4" y="213.14" width="1.02" height="3.05"/><polygon class="cls-2" points="441.7 308.21 487.96 261.95 509.06 283.04 575.91 216.19 619.12 259.4 696.9 181.62 696.9 308.21 441.7 308.21"/><path class="cls-3" d="M697.41,308.72H441.19V22H697.41Zm-255.21-1H696.39V23H442.2Z"/><circle class="cls-4" cx="487.45" cy="242.63" r="6.61"/><circle class="cls-4" cx="575.91" cy="195.35" r="6.61"/><circle class="cls-4" cx="696.9" cy="165.35" r="6.61"/><path class="cls-3" d="M650.64,62.66A30.8,30.8,0,0,1,640.78,64l3.83,2.54L464.27,200l.6.82L645.21,67.31l1.32,4.41A30.74,30.74,0,0,1,650.64,62.66Z"/></g></g></svg>