<svg xmlns="http://www.w3.org/2000/svg" xmlns:xlink="http://www.w3.org/1999/xlink" viewBox="0 0 386.6 293.4"><defs><style>.cls-1,.cls-22{fill:#6466af;}.cls-1,.cls-6{opacity:0.1;}.cls-1,.cls-11,.cls-23,.cls-4,.cls-6{isolation:isolate;}.cls-2{fill:#3b3868;}.cls-3{fill:#d48a9b;}.cls-11,.cls-23,.cls-25,.cls-4,.cls-6{fill:#010101;}.cls-4{opacity:0.05;}.cls-5{fill:#efc7ce;}.cls-7{fill:#fff;}.cls-8{fill:#d3dae1;}.cls-9{fill:url(#linear-gradient);}.cls-10{fill:#595c8b;}.cls-11{opacity:0.2;}.cls-12{fill:#656a92;}.cls-13{fill:#fcd6d6;}.cls-14{fill:#dce5f1;}.cls-15{fill:#565a89;}.cls-16{fill:#515585;}.cls-17{fill:#585a89;}.cls-18{fill:#585a8a;}.cls-19{fill:#363045;}.cls-20{fill:#f1f3f6;}.cls-21{fill:#673e5d;}.cls-23{opacity:0.3;}.cls-24{opacity:0.15;}.cls-26{fill:#ffd139;}.cls-27{fill:#67627d;}.cls-28{fill:#9d9cb5;}.cls-29{fill:#4c4871;}.cls-30{fill:#d5dfec;}</style><linearGradient id="linear-gradient" x1="240.76" y1="8071.27" x2="240.76" y2="8278.58" gradientTransform="matrix(1, 0, 0, -1, -54.11, 8345.99)" gradientUnits="userSpaceOnUse"><stop offset="0" stop-color="#818181" stop-opacity="0.25"/><stop offset="0.54" stop-color="#818181" stop-opacity="0.12"/><stop offset="1" stop-color="#818181" stop-opacity="0.1"/></linearGradient></defs><title>satish_small</title><g id="Layer_2" data-name="Layer 2"><g id="Layer_2-2" data-name="Layer 2"><path class="cls-1" d="M381.68,84.63c-.07.32-.13.63-.21.94a101.29,101.29,0,0,1-11.76,30.52l-.57.94a87.47,87.47,0,0,1-13.26,16.74,40.43,40.43,0,0,1-9.52,7.32c-5.11,2.67-11.09,3.75-17,4.63-6.1.93-12.28,1.7-18.44,2.53q-3.29.44-6.54.93c-5.95.88-11.87,1.9-17.64,3.25a103.17,103.17,0,0,0-20.58,6.93c-.52.23-1,.48-1.55.75l-1.52.77-1.5.8-.76.42-.74.41c-.74.41-1.46.83-2.18,1.26l0,0-1.42.85c-2.67,1.62-5.28,3.32-7.89,5L247,170.72l-2.54,1.65-1.5,1c-.36.23-.71.47-1.1.71-1.85,1.17-3.73,2.31-5.66,3.41l-1.38.78a78.9,78.9,0,0,1-12.19,5.49l-.06,0a56,56,0,0,1-6.47,1.83c-1.27.28-2.53.5-3.81.68a41.14,41.14,0,0,1-10.34.14c-6.76-.78-13.08-3.37-19.83-4.25-13.9-1.77-27.39,3.94-40.46,8.41q-4.81,1.63-9.71,3.08c-2.17.64-4.34,1.25-6.53,1.83a246.45,246.45,0,0,1-41,7.19A116.19,116.19,0,0,1,67,203a60.93,60.93,0,0,1-6.53-.71c-7.33-1.13-14.17-3.51-19.68-7.86a38.41,38.41,0,0,1-10.22-13.1,57.35,57.35,0,0,1-5.28-15.77c-.13-.75-.25-1.5-.35-2.25-.18-1.28-.31-2.57-.4-3.87A55.55,55.55,0,0,1,27,139c2.34-7.4,6.23-14.52,8-22,.07-.32.13-.63.2-.94.23-1.14.4-2.28.52-3.44.87-9.17-2.48-18.11-5.11-27.08-.09-.31-.19-.62-.27-.94-.29-1-.56-2-.82-3C27,72.13,26.35,62,28.52,52.52c.07-.32.15-.63.23-1a42.44,42.44,0,0,1,8-16.4A63.19,63.19,0,0,1,51.86,22.1Q56,19.37,60.48,17c2.12-1.13,4.3-2.21,6.53-3.22A128.6,128.6,0,0,1,125.4,2.54c1.06,0,2.12.1,3.19.18s2.22.17,3.33.27c13,1.26,25.61,4.3,38.16,7.63,4.2,1.11,8.4,2.26,12.59,3.38,1.86.5,3.73,1,5.59,1.47,9.14,2.37,18.42,4.5,27.81,6.1q3.26.57,6.53,1a187.64,187.64,0,0,0,22.83,1.94c3,.05,5.95,0,8.92-.08,1.5-.06,3-.14,4.51-.25,15.53-1.09,30.53-4.75,45.56-8.17q3.27-.75,6.54-1.47c2.86-.63,5.72-1.24,8.59-1.8,17.9-3.52,33.85-1.5,50.48,5.76,3.78,1.65,7.56,3.64,9.88,6.73s2.89,6.88,3.33,10.55c.61,5.22,1,10.51,1.16,15.82,0,.31,0,.63,0,.94A142.28,142.28,0,0,1,381.68,84.63Z"/><path class="cls-1" d="M263,116.09h-1.17V117h1.33Zm-13.25,0v0c0,.26-.07.52-.11.78V117h10.13v0l.71-.89Zm-27.14,0V85.57h11.65l-.39-.24-.17-.11-.22-.13a3.61,3.61,0,0,0-.39-.22l-.33-.18-.07,0H222.6V83l-.28.11-.28.13h0l-.07,0-.18.1-.18.1-.53.31-.17.11-.35.23-1.37.92c-.12.07-.24.15-.36.21s-.51.29-.77.42a1.69,1.69,0,0,1-.36.15l-.19.08-.17.06h0a9.62,9.62,0,0,1-1.28.33v29.83H198.57s0,.06,0,.1c.09.28.19.56.28.85h17.18v32.7h.26l.31,0,.56,0,.88.11.41,0,.44.05H219l.78.1.17,0,.38,0,.54.08h0l1.3-.06h0l.18,0a.93.93,0,0,1,.22,0V117h27v-.14c0-.26.07-.52.1-.78v0Zm40.39,0h-1.17V117h1.33Zm-14,0c0,.31-.08.63-.13.94h11.3l.76-.94Zm-26.41,0V85.57h11.65l-.39-.24-.17-.11-.22-.13a3.61,3.61,0,0,0-.39-.22l-.33-.18-.07,0H222.6V83l-.28.11-.28.13h0l-.07,0-.18.1-.18.1-.53.31-.17.11-.35.23-1.37.92c-.12.07-.24.15-.36.21s-.51.29-.77.42a1.69,1.69,0,0,1-.36.15l-.19.08-.17.06h0a9.62,9.62,0,0,1-1.28.33v29.83H198.57s0,.06,0,.1c.09.28.19.56.29.85h17.17v32.7h.57l.56,0,.88.11.41,0,.44.05H219l.78.1.17,0,.38,0,.54.08h0l1.3-.06h0l.18,0a.93.93,0,0,1,.22,0V117h26.32l.12-.94ZM311,52.55h73.46c0-.32,0-.63,0-.94H311v-37q-3.27.7-6.54,1.47V51.61H224.53l-.21-.18.31-.27h0l29.72-26.71q-4.47.16-8.92.08L222.59,45V22.6q-3.27-.47-6.53-1V44L182.67,14c-4.19-1.12-8.38-2.27-12.59-3.38l45.41,40.81-.2.18H131.93V3q-1.67-.15-3.33-.27c-1.07-.08-2.13-.13-3.19-.18v49H67V13.81c-2.21,1-4.39,2.09-6.53,3.22V51.61H28.75c-.08.31-.16.62-.23.94h32V84.63H30.28c.08.32.18.63.27.94H60.48v30.52H35.14c-.07.31-.13.63-.2.94H60.48v85.31c2.12.33,4.32.56,6.53.71V117H125.4v78.45c2.19-.59,4.37-1.19,6.53-1.84V117h84.14v68.54a56,56,0,0,0,6.47-1.83l.06,0V117h81.82v32.15c2.18-.32,4.35-.63,6.54-.92V117h58.18l.57-.94H311V85.57h70.51c.08-.31.14-.62.21-.94H311ZM67,52.55H125.4V84.63H67Zm0,63.54V85.57H125.4v30.52Zm64.92-63.54h84.14V84.63H131.93Zm0,63.54V85.57h84.14v30.52Zm172.49,0H222.6V85.57h81.82Zm0-31.46H222.6V53.41l1.14-.86h80.68Zm-54.68,31.46v0c0,.26-.07.52-.11.78V117h10.13v0l.71-.89Zm13.25,0h-1.17V117h1.33Zm-40.39,0V85.57h11.65l-.39-.24-.17-.11-.22-.13a3.61,3.61,0,0,0-.39-.22l-.33-.18-.07,0H222.6V83l-.28.11-.28.13h0l-.07,0-.18.1-.18.1-.53.31-.17.11-.35.23-1.37.92c-.12.07-.24.15-.36.21s-.51.29-.77.42a1.69,1.69,0,0,1-.36.15l-.19.08-.17.06h0a9.62,9.62,0,0,1-1.28.33v29.83H198.57s0,.06,0,.1c.09.28.19.56.28.85h17.18v32.7h.26l.31,0,.56,0,.88.11.41,0,.44.05H219l.78.1.17,0,.38,0,.54.08h0l1.3-.06h0l.18,0a.93.93,0,0,1,.22,0V117h27v-.14c0-.26.07-.52.1-.78v0Z"/><path class="cls-1" d="M95.08,30.46h.51a1,1,0,0,1-.62-.83h0c0-.65,1-1.18,2.16-1.18h15.14c1.19,0,2.16.53,2.16,1.18h0c0,.65-1,1.19-2.16,1.19h-.5a1,1,0,0,1,.62.82c0,.55-.71,1-1.66,1.15h4.36c1.19,0,2.16.53,2.16,1.18s-1,1.18-2.16,1.18H100c-1.19,0-2.16-.53-2.16-1.18s.71-1,1.65-1.15H95.08c-1.19,0-2.16-.53-2.16-1.18S93.89,30.46,95.08,30.46Z"/><path class="cls-1" d="M259.18,41.71h.51a1.05,1.05,0,0,1-.62-.83h0c0-.65,1-1.18,2.16-1.18h15.15c1.19,0,2.16.53,2.16,1.18h0c0,.65-1,1.18-2.16,1.18h-.51a1,1,0,0,1,.62.83c0,.55-.71,1-1.65,1.15h4.35c1.19,0,2.16.53,2.16,1.18s-1,1.18-2.16,1.18H264.05c-1.19,0-2.16-.53-2.16-1.18s.71-1,1.65-1.15h-4.36c-1.18,0-2.16-.53-2.16-1.18S258,41.71,259.18,41.71Z"/><path class="cls-1" d="M71.84,89.85h.51a1,1,0,0,1-.62-.82h0c0-.65,1-1.19,2.16-1.19H89c1.19,0,2.16.54,2.16,1.19h0c0,.65-1,1.18-2.16,1.18h-.5a1,1,0,0,1,.61.82c0,.56-.7,1-1.65,1.15h4.36c1.19,0,2.16.53,2.16,1.18s-1,1.18-2.16,1.18H76.72c-1.19,0-2.16-.53-2.16-1.18s.71-1,1.66-1.15H71.84c-1.19,0-2.16-.53-2.16-1.18S70.67,89.85,71.84,89.85Z"/><ellipse class="cls-1" cx="282.78" cy="200.88" rx="23" ry="75.7" transform="translate(29.35 437.71) rotate(-78.45)"/><path class="cls-2" d="M274.23,136.28s4-19.76,19.4-17.93c0,0,10.62.73,12.81,7.69v15.37Z"/><polygon class="cls-3" points="358.41 143.61 221.53 132.26 203.96 135.92 205.06 160.44 206.25 160.59 207.62 197.41 341.94 221.56 356.21 209.48 356.21 169.57 358.04 168.49 358.41 143.61"/><polygon class="cls-4" points="358.59 143.61 358.23 168.49 343.4 175.45 343.22 149.46 358.59 143.61"/><polygon class="cls-4" points="356.21 169.59 356.39 208.75 342.12 220.83 343.04 175.45 356.21 169.59"/><polygon class="cls-4" points="206.44 162.05 343.15 178.73 343.22 175.57 206.34 160.81 206.44 162.05"/><polygon class="cls-4" points="356.21 171.03 356.21 169.59 342.67 175.57 342.67 178.74 356.21 171.03"/><polygon class="cls-5" points="203.78 135.92 221.34 132.26 358.23 143.61 342.85 149.46 203.78 135.92"/><polygon class="cls-6" points="343.64 144.31 350.36 144.75 339.23 148.08 333.56 147.68 343.64 144.31"/><polygon class="cls-7" points="343.64 144.02 350.36 144.46 339.23 147.79 333.56 147.38 343.64 144.02"/><path class="cls-8" d="M342.84,144.77c.27-.11.55.11.83.16s.33,0,.49,0c.33,0,.66.26,1,.15"/><path class="cls-8" d="M342.49,145c.26-.11.55.1.83.16s.33,0,.49,0c.33,0,.66.26,1,.15"/><path class="cls-8" d="M341.69,145.38c.27-.12.55.1.83.15s.33,0,.49,0c.34.05.66.27,1,.15"/><polygon class="cls-6" points="314.61 141 321.32 141.45 310.19 144.78 304.52 144.37 314.61 141"/><polygon class="cls-7" points="314.61 140.71 321.32 141.15 310.19 144.49 304.52 144.08 314.61 140.71"/><path class="cls-8" d="M313.8,141.47c.27-.11.55.1.83.15s.33,0,.49,0c.33,0,.66.27,1,.16"/><path class="cls-8" d="M313.46,141.67c.26-.11.54.1.83.15s.32,0,.49,0c.33.05.65.27,1,.16"/><path class="cls-8" d="M312.66,142.07c.26-.11.55.1.83.16s.33,0,.49,0c.33,0,.66.26,1,.15"/><polygon class="cls-6" points="328.53 142.66 335.25 143.1 324.12 146.43 318.45 146.02 328.53 142.66"/><polygon class="cls-7" points="328.53 142.37 335.25 142.81 324.12 146.14 318.45 145.73 328.53 142.37"/><path class="cls-8" d="M327.73,143.12c.27-.11.55.1.83.15s.33,0,.49,0c.33,0,.66.26,1,.15"/><path class="cls-8" d="M327.38,143.32c.27-.11.55.1.84.16s.32,0,.48,0c.33,0,.66.26,1,.15"/><path class="cls-8" d="M326.59,143.72c.26-.11.54.1.83.16s.32,0,.49,0c.33,0,.65.26,1,.15"/><ellipse class="cls-1" cx="176.45" cy="265.47" rx="71.7" ry="14.76"/><path class="cls-9" d="M255,144.61a48.21,48.21,0,0,0-3.8-13.14l.24-2.26s0-1.14,0-2.84a13.32,13.32,0,0,1,.41-3.14c.62-2-.77-4.38-.93-4.6s.08-4.54-1.31-6.65-10.69-6-10.69-6-.5-1-1.2-2.27l.06-.13a13.47,13.47,0,0,0-2.13-2.86c-.57-.61-1.11-1-1.56-.79a13.29,13.29,0,0,1-.41-1.79l.28.07a2.88,2.88,0,0,0,1.17,0,3.46,3.46,0,0,0,1.92-1.7c2.4-3.64,4.47-7.64,4.89-12a7.8,7.8,0,0,0-.12-2.64,8.92,8.92,0,0,0-.83-1.93,15.54,15.54,0,0,0-2.34-3.45,13.38,13.38,0,0,0-6.28-3.44,21.74,21.74,0,0,0-8.11-.6c-.7.08-1.41.2-2.12.24a22.12,22.12,0,0,1-2.7,0l-4.63-.27,0-.07-.77,0a2,2,0,0,0,.37,1.89,3.26,3.26,0,0,1,.79,1.83,3.7,3.7,0,0,1-.9,1.77,1.72,1.72,0,0,0-.29,1.85,1.29,1.29,0,0,0,.19.21,2.35,2.35,0,0,0,1.71.45h.1a11.58,11.58,0,0,0-2.35,7A11.76,11.76,0,0,0,220,97.67c.07.23.13.46.2.71a21.68,21.68,0,0,1,.74,7.65l-.08.18,0-.19s-5.46,3.7-7.08,4.68-3.25,4.31-3.33,5.22-2.63,14.58-2.63,14.58a33.74,33.74,0,0,0-1.29,4.22l-3.26,2.86s-6.73.61-8.67.15l.05.38a29.53,29.53,0,0,0-5.22-.71,5.64,5.64,0,0,0-2.84.38l-.06,0-.06,0a11.42,11.42,0,0,0-3,.83l-.32.14,0-.46-7.28-.38-3.72-.75s-1.32-1.07-2.1-.91-2.4-.91-2.4-.91a6.38,6.38,0,0,0-1.19-.74c-.13-.86-.2-1.38-.2-1.38s-2.9-11.48-5.06-18.23c-1.46-4.5-3.55-6.72-4.78-7.69-.55-1-.91-1.57-.91-1.57a7,7,0,0,0-1.87-2.74c0-.09-.09-.13-.11-.13a.36.36,0,0,0-.21,0,22.52,22.52,0,0,1,0-10.14,11.19,11.19,0,0,0,4.09-8.63v-.3a11.14,11.14,0,0,0-2.63-7.19l-.12-.13.09-.08a1.89,1.89,0,0,0,.67-1.82,12.6,12.6,0,0,0-1-1.86,11.33,11.33,0,0,1-.4-1.52,4.6,4.6,0,0,0-1.11-1.94l.05.14a6.72,6.72,0,0,0-5.92-2c-1.6.26-3.09,1-4.69,1.23-1.15.16-2.32.06-3.48.17a9.08,9.08,0,0,0-3.09.9,1.63,1.63,0,0,0-.65.48,2.49,2.49,0,0,0-.33.91c-.39,1.43-1.64,2.45-2.54,3.65a8.6,8.6,0,0,0-1.72,4.72,3.79,3.79,0,0,0,.13,1.3,7.16,7.16,0,0,1,.25.74,5.17,5.17,0,0,1-.42,2.33,4.47,4.47,0,0,0,.25,3c1.4,3.13,6,4.18,6.94,7.46A9,9,0,0,0,140,95c.07.33.12.65.17,1l-.06,0a7.06,7.06,0,0,0-1.55,3.54l-.15.12c-.5.42-2.24,1.82-3.8,2.9-1.86,1.29-5,5.6-7.13,6.88s-4,9.21-3.48,12.09,2.4,10.95,1.63,13.89,1.16,16.4,1.16,16.4a19.19,19.19,0,0,1,3.79,1.12l0,.59-.11,1.77s-3.51,12.69-2.17,22.46-.62,10.78-.62,10.78.41,4.33-.62,5.84-1.24,4.83-1.24,4.83-.1,7.46.1,9.56.31,5.95-.41,6.85-2.06,6.85-2,8.66-2.58,5.95-1.14,11.28-4.25,5.44-4.25,5.44.73,8.15,2.28,10.48l.22.33c0,.13-.08.28-.12.43-.58,2.12-1.38,5.48-.83,6.29.83,1.21,1.24,1,1.24,1l.31,5.44s6.2,5.24,11,5,3.82-5,3.82-5l-4-10.49-.14-.36,4.5-8.5s1.24-3.72,1.55-5,2-6,2-6,4.25-10.08,4.34-11.29.41-7.75,1.24-9.06,3.09-8.85,3.09-8.85l.06.05a3,3,0,0,1,.77,3,23.79,23.79,0,0,0-.21,5.84,38.51,38.51,0,0,1-.62,5c-.41,1.72-.51,15.72.21,19a53.46,53.46,0,0,1,.53,9.52c-.48,2-.91,4.49-.12,4.78,1.35.51,8.17.4,8.17.4s2.89-1,6.81,2.52,16-1,16-1,3.72-1-3.62-3.93c-5.11-2-8.42-3.39-10.58-4.85l.15-.29s-3-2.83-.52-7.85a21.9,21.9,0,0,0,2.38-9.27l.41-16.92-1.24-22.47-1-23.57.17-.06c.16,4.34,1,14.65,5.43,12.65,5.58-2.51.83-9.06.83-9.06l-2.5-4.88.74-.26-2.8-9a20.24,20.24,0,0,1-.1-5.33,21.68,21.68,0,0,0-.07-3.12c3.67-.64,7.18-1.32,7.81-1.16s4.91.21,6.54.22c-.53.42-1,.83-1,.83l6.66,4.48s2.26-1.23,2.73-2.54a3,3,0,0,0,1.25-.67c.07,1.55.48,3.22,1.91,3.26a2.47,2.47,0,0,0,1-.2l10.89-2.16-.93,5.84.65,1.16c-.33,4.92-.71,10.15-1,14.75l-.15,1,.07,0c-.51,7.08-.93,12.44-.93,12.44a6.57,6.57,0,0,1,2.72-2.73l.07,10.51s.54,16.62.54,18.89.08,7.32.08,7.32,1.16,6.2,1.86,8.24,1.24,11.33,1.24,11.33,1.63,2.56.93,3.54,2.71,3.09,2.71,3.09-2.17,2.95-2.33,4.91c0,.23.21.47.61.71a3.25,3.25,0,0,1-.4.31,7.11,7.11,0,0,1-4.7,1c-6-.54-10.3,5.06-6.58,6.19S215,258.29,215,258.29s3.38-2.11,6-1.16c0,2.22.07,4.25.09,4.52l0,0a24.47,24.47,0,0,1-7.56,4.85c-4.25,1.44-5.19,7.25.31,8s13.55-.91,13.55-.91,4.19-3.09,7.36-3.77,5.89-2.2,5.35-4c-.36-1.16-1.27-4.19-1.88-6.23,0-.12-.07-.24-.11-.35s.19-.44.28-.66c0,0-1.62-8.46-.31-10.58s.62-23.26.62-23.26-2.25-5.37-1.08-8.61-1.86-7.86-1.86-7.86A142.73,142.73,0,0,1,237,193.9c0-.22.07-.43.11-.63a29,29,0,0,0,4.32-1.67s.78-11.64,1.24-14.28c.05-.25.11-.65.19-1.17l.35-1.86h0l.42-2.13h0l1.42-7.24,2.55-3.31,6.59-6.72S255.74,151.33,255,144.61ZM153.4,103.06l-.05,0s0-.06,0-.08Zm65.07,8.25-.25.55.93-.93-1.27,1.42.43-.89Zm-6.29,13c-.24.65-.5,1.35-.78,2.08l.5-1.49Z"/><path class="cls-10" d="M191.86,145.49s-.87,5.77,1.74,5.85,4.34-4.46,4.34-4.46l-1.07-3.62Z"/><path class="cls-11" d="M191.86,145.49s-.87,5.77,1.74,5.85,4.34-4.46,4.34-4.46l-1.07-3.62Z"/><path class="cls-12" d="M133.57,270.5c-4.64.2-10.68-5-10.68-5l-.3-5.44s-.4.2-1.21-1c-.54-.82.24-4.18.81-6.29.28-1,.5-1.77.5-1.77l10.17,2.72.48,1.28,3.95,10.49S138.19,270.3,133.57,270.5Z"/><path class="cls-12" d="M180.26,255.1s-11.77,4.53-15.58,1-6.64-2.52-6.64-2.52-6.65.1-8-.4c-.77-.3-.35-2.82.13-4.82.33-1.38.68-2.53.68-2.53s11.57-3.92,13.39-1.51a8.44,8.44,0,0,0,1.93,1.84c2.09,1.52,5.37,2.89,10.55,5C183.88,254.09,180.26,255.1,180.26,255.1Z"/><path class="cls-13" d="M169.69,163.11l3.22,6.44s4.63,6.55-.8,9.06-5.33-14.49-5.33-14.49Z"/><path class="cls-14" d="M156.21,107.26s3.52,1.61,5.63,8.35,4.94,18.22,4.94,18.22,1.91,13,1.6,16.2a20.67,20.67,0,0,0,.11,5.33l2.71,9.06-5.43,1.91-8.36-32Z"/><path class="cls-4" d="M156.21,107.26s3.52,1.61,5.63,8.35,4.94,18.22,4.94,18.22,1.91,13,1.6,16.2a20.67,20.67,0,0,0,.11,5.33l2.71,9.06-5.43,1.91-8.36-32Z"/><path class="cls-6" d="M132.86,253.69l.48,1.29-.59,1.13c-2.32,1-8,.21-8,.21s-1.07-1.35-2.52-3.57c.28-1,.5-1.77.5-1.77Z"/><path class="cls-6" d="M166.57,246.65c-2.93,6.65-12.91,4.18-15.68,3.35l-.71-.23s0-.55,0-1.4c.33-1.38.68-2.53.68-2.53s11.58-3.92,13.39-1.51a8.44,8.44,0,0,0,1.93,1.84A4.37,4.37,0,0,0,166.57,246.65Z"/><path class="cls-15" d="M166.07,238.19c-2.42,5,.5,7.85.5,7.85-2.93,6.65-12.91,4.19-15.68,3.35-.46-.13-.71-.23-.71-.23s.2-6.94-.5-10.27-.61-17.3-.21-19a39.83,39.83,0,0,0,.61-5,24.61,24.61,0,0,1,.2-5.83,3,3,0,0,0-.75-3l-.06,0s-2.21,7.54-3,8.85-1.1,7.85-1.2,9.06S141,235.17,141,235.17s-1.61,4.63-1.91,5.93-1.51,5-1.51,5l-4.85,9.36c-2.32,1-8,.2-8,.2s-1.11-1.41-2.62-3.72-2.21-10.46-2.21-10.46,5.53-.11,4.12-5.44,1.21-9.46,1.11-11.27,1.21-7.75,1.91-8.66.6-4.73.4-6.84-.1-9.56-.1-9.56.2-3.33,1.21-4.83.6-5.84.6-5.84,1.91-1,.61-10.77,2.12-22.44,2.12-22.44l.12-1.77.18-2.87s28.79-1.82,31.1.4a7.5,7.5,0,0,1,1.47,2.1,21.52,21.52,0,0,1,1.67,5.36l1.2,30.5L168.8,212l-.4,16.91A22.42,22.42,0,0,1,166.07,238.19Z"/><path class="cls-6" d="M157.53,178l-3,65.41-3.62,6-.71-.23s.2-6.95-.5-10.27-.61-17.31-.21-19a39.74,39.74,0,0,0,.61-5,24.7,24.7,0,0,1,.2-5.84,3,3,0,0,0-.75-3l.05-.35Z"/><path class="cls-6" d="M125,248.26s7.85-3.12,9-2.13-9.25,2.52-9.25,2.52Z"/><path class="cls-6" d="M163.76,240c-.31.11-7.95,2.84-7.25,5.74S163.76,240,163.76,240Z"/><path class="cls-13" d="M139.85,91.11s2.57,6.19,1.21,9.36,14.64,8.6,14.64,8.6S151,97,155.55,90.2,139.85,91.11,139.85,91.11Z"/><path class="cls-16" d="M233.53,270.3c-3.1.68-7.17,3.77-7.17,3.77s-7.85,1.66-13.22.91-4.45-6.57-.3-8a23.92,23.92,0,0,0,7.37-4.84c.68-.62,1.09-1.06,1.09-1.06l15-3s.24.84.58,2c.61,2,1.5,5.07,1.84,6.23C239.26,268.11,236.62,269.62,233.53,270.3Z"/><path class="cls-16" d="M229.68,258.67s-6.34.68-9-.83-6.41.91-6.41.91-10.87-.23-14.5-1.36.53-6.73,6.42-6.19a6.8,6.8,0,0,0,4.58-.95,4.8,4.8,0,0,0,2-3l12.75.76,1.77,4.51Z"/><path class="cls-6" d="M227.49,254.6s-14.82-2.43-16.71-4.35a4.8,4.8,0,0,0,2-3l12.75.76,1.77,4.51Z"/><path class="cls-17" d="M205.52,169.83l.15,22.12s.53,16.6.53,18.87.08,7.32.08,7.32,1.13,6.19,1.81,8.23,1.21,11.33,1.21,11.33,1.58,2.57.9,3.54,2.64,3.09,2.64,3.09-2.12,2.95-2.26,4.91S227.49,254,227.49,254l-6.64-68.08-5.29-17.06Z"/><path class="cls-6" d="M205.52,169.83l.15,22.12s.53,16.6.53,18.87.08,7.32.08,7.32,1.13,6.19,1.81,8.23,1.21,11.33,1.21,11.33,1.58,2.57.9,3.54,2.64,3.09,2.64,3.09-2.12,2.95-2.26,4.91S227.49,254,227.49,254l-6.64-68.08-5.29-17.06Z"/><path class="cls-6" d="M236.9,260.07c-4.93,11.76-16.66,2.68-16.66,2.68s0-.23,0-.62c.68-.62,1.09-1.06,1.09-1.06l15-3S236.56,258.91,236.9,260.07Z"/><path class="cls-17" d="M237.07,259.05c-4.83,12.39-16.83,3.09-16.83,3.09s-.38-6.41.38-9.35-.83-11.78-.83-11.78-.91-7.85-1.74-9.66-.75-5.44-.75-5.74a11,11,0,0,0-.38-4.38,29.37,29.37,0,0,1-1.06-5.73,60.63,60.63,0,0,0-.68-9.14l-2.34-11.68-4.23-23.93,1.32-.23,23.66-4.15s4.46,22.66,2.95,25a9.4,9.4,0,0,0-.85,3.06c-.87,5.14-1.19,14.37-1.19,14.37s2.94,4.61,1.81,7.85,1.07,8.61,1.07,8.61.68,21.13-.61,23.25S237.07,259.05,237.07,259.05Z"/><path class="cls-13" d="M234.81,104.54s-21.44,15.1-16.61,7.55c2.6-4.07,2.13-9.25,1.11-13.16a31.12,31.12,0,0,0-2.13-5.76s18.22-7.75,15.8-.81a13.09,13.09,0,0,0-.71,5A13.51,13.51,0,0,0,234.81,104.54Z"/><path class="cls-13" d="M196.21,139.11s-9.06-2.62-10.56-.05.45,8.2,3.18,9.11,9-3.07,9-3.07Z"/><path class="cls-10" d="M206.58,134.66l-3.77,3.47s-6.57.61-8.46.15c0,0,1.74,11.63-.75,13.06l15.24-3.09Z"/><path class="cls-6" d="M206.58,134.66l-3.77,3.47s-6.57.61-8.46.15c0,0,1.74,11.63-.75,13.06l15.24-3.09Z"/><path class="cls-6" d="M158.12,84.76a11.33,11.33,0,0,1-11.33,11.33C141,93.3,135.46,91,135.46,84.76a11.33,11.33,0,1,1,22.64-.89c0,.3,0,.6,0,.89Z"/><path class="cls-13" d="M158.12,84.46a11.32,11.32,0,1,1-2.57-7.16A11.32,11.32,0,0,1,158.12,84.46Z"/><path class="cls-6" d="M164.72,153.75a26.49,26.49,0,0,1-3.51,1.82s-5.73-.84-6.56.14-8.15,1.36-8.15,1.36-11.17-.52-12.83-2a6.85,6.85,0,0,0-1.69-1l.18-2.87s28.78-1.81,31.1.4A7.52,7.52,0,0,1,164.72,153.75Z"/><path class="cls-14" d="M166.12,151.72c-.23,1.28-4.91,3.24-4.91,3.24s-5.73-.83-6.56.15-8.15,1.36-8.15,1.36-11.17-.53-12.83-2-5.36-2.13-5.36-2.13S126.42,139,127.18,136s-1.13-11-1.59-13.89,1.29-10.79,3.4-12.07,5.13-5.59,6.94-6.87c1.53-1.08,3.22-2.48,3.71-2.9l.14-.12a7.16,7.16,0,0,1,1.52-3.54c1.2-1.2,12.3,7.62,12.3,7.62s.07.68.83-.6c.17-.29,1.63,1.82,1.89,2.72,0,0,6,10.57,6.41,12.74s2,9.29,2.26,11c.08.45.21,2,.36,4.11,0,.41.05.85.08,1.3.23,3.48.47,7.92.61,11.27,0,.39,0,.75.05,1.11C166.16,149.17,166.17,150.44,166.12,151.72Z"/><path class="cls-6" d="M127.79,124.46s4.15,5.06,5.51,5.06S127.79,124.46,127.79,124.46Z"/><path class="cls-6" d="M136.53,135.34s-6.79,7.39-5.89,8.75S136.53,135.34,136.53,135.34Z"/><path class="cls-6" d="M131.55,150.06s7.79-8.53,8.14-11.48Z"/><path class="cls-6" d="M141.36,150.66s9-4.76,9.74-8.53S141.36,150.66,141.36,150.66Z"/><path class="cls-6" d="M152.76,104.77l-1.25,3,2.08,1,2,5.71s5.62,11.24,5.4,17.09a103,103,0,0,0,1,14.64l3.24-.6-1.53-17.2a24.88,24.88,0,0,0-2-7.73c-2.59-5.93-7.41-16.89-7.72-16.89s-.12.15-.12.15Z"/><path class="cls-18" d="M153.06,104.46l-1.24,3,2.07,1,2,5.7s5.62,11.25,5.4,17.1a103,103,0,0,0,1,14.64l3.24-.6-1.53-17.21a24.88,24.88,0,0,0-2-7.72c-2.59-5.94-7.42-16.89-7.72-16.89s-.13.15-.13.15Z"/><path class="cls-13" d="M189.82,148.82c-1.58-.12-5.37-2-6.87-2.83l-.64-.35.08-5.85a10.32,10.32,0,0,1,1.15-.58c2-.88,6.14-2.08,8.21,1.77C194.54,146.13,191.82,149,189.82,148.82Z"/><path class="cls-6" d="M155.55,77.3a1.67,1.67,0,0,1-.52.21c-1.32.29-2.81-.84-3.94-.12a2.93,2.93,0,0,0-.94,2.19c-.16,1.42-.32,2.82-.48,4.22a5.21,5.21,0,0,1-.31,1.46,3.62,3.62,0,0,1-3.47,1.84,2.08,2.08,0,0,1-1.5-.49c-.24-.25-.38-.6-.64-.82C142,84.3,141.44,87.94,141.9,89c.75,1.69,3.42,3.32,2.3,5.47a2,2,0,0,1-.82.82,11.33,11.33,0,1,1,12.17-18Z"/><path class="cls-19" d="M143.44,85.77c.27.23.4.57.65.82a2.09,2.09,0,0,0,1.5.5,3.65,3.65,0,0,0,3.47-1.86,5.07,5.07,0,0,0,.31-1.45l.48-4.22a2.86,2.86,0,0,1,.94-2.18c1.13-.71,2.62.4,3.94.11a1.91,1.91,0,0,0,1.41-2.21,12.91,12.91,0,0,0-.93-1.86,12.86,12.86,0,0,1-.39-1.51c-.73-2.75-4-4.29-6.76-3.83-1.56.26-3,1-4.57,1.23-1.12.16-2.26,0-3.39.17a8.58,8.58,0,0,0-3,.89,1.8,1.8,0,0,0-.64.48,2.75,2.75,0,0,0-.32.91c-.38,1.42-1.59,2.46-2.48,3.66A8.7,8.7,0,0,0,132,80.13a3.52,3.52,0,0,0,.12,1.29c.07.25.19.49.24.74a5.16,5.16,0,0,1-.41,2.33,4.6,4.6,0,0,0,.24,3c1.36,3.13,5.84,4.17,6.77,7.45a7.35,7.35,0,0,0,2.64.71,2.53,2.53,0,0,0,2.32-1.18c1.12-2.13-1.55-3.78-2.3-5.46C141.13,87.92,141.66,84.29,143.44,85.77Z"/><path class="cls-6" d="M233,92.36a12.9,12.9,0,0,0-.71,5c-.54.47-1.14-.92-1.77-.56-1.73,1-3.72,3.37-5.86,3.37a11.64,11.64,0,0,1-5.34-1.28,31.82,31.82,0,0,0-2.12-5.76S235.41,85.42,233,92.36Z"/><path class="cls-13" d="M236.42,87.83a11.78,11.78,0,1,1-11.78-11.77,11.77,11.77,0,0,1,11.78,11.77Z"/><path class="cls-20" d="M235.92,107.16s-2.22,2.41-2.52,2.61-6.73,27.27-6.84,27.58-7.65,24.76-7.65,24.76L206.83,168l1-29.89,8.85-24.65s2.92-3.32,3.82-4.53,12.18-8.46,12.18-8.46l1.93,4Z"/><path class="cls-6" d="M234.32,105.09,220.43,115l-.22-5.46c.91-1.21,12.18-8.45,12.18-8.45Z"/><path class="cls-20" d="M234.62,104.48l-13.89,10-.21-5.46c.9-1.21,12.17-8.46,12.17-8.46Z"/><path class="cls-10" d="M220.05,106.54l.47,2.43-3.11,3.15,2.48-5.54s-5.31,3.7-6.9,4.68-3.19,4.3-3.25,5.21S207.17,131,207.17,131s-1.89,5.06-1.35,6.49S203,184.17,203,184.17a6.72,6.72,0,0,1,4.54-3.48L206.28,154s1.47-17.77,1.54-18,3.44-10.53,3.44-10.53Z"/><path class="cls-6" d="M220.82,109.27l-.24,5s-3.36,10.6-4.49,12.34-4.57,12.08-4.57,12.08l-1.93,18-3.33,1.52-1.63-3,2.72-17.35s5.13-14.64,5.89-16.15l3.78-8Z"/><path class="cls-21" d="M220.52,109l-.24,5s-3.36,10.6-4.49,12.34-4.57,12.08-4.57,12.08l-1.92,18L206,157.82l-1.66-3L207,137.45s5.13-14.65,5.89-16.15l3.81-8Z"/><path class="cls-13" d="M181.37,146.81l6.49,4.49s4.58-2.57,1.91-4.23a11.83,11.83,0,0,0-5.89-1.91C183,145.16,181.37,146.81,181.37,146.81Z"/><path class="cls-13" d="M186.22,138.5a1,1,0,0,0-.48.85c0,1.38.16,5,1.32,3.38,1.41-2,1.15-3.82,3.32-2.51a12.67,12.67,0,0,1,3.47,3.18l-.61-4.32S188.8,136.88,186.22,138.5Z"/><path class="cls-6" d="M236.54,191.34a10,10,0,0,0-.85,3.07A25.58,25.58,0,0,1,212.77,190a116.3,116.3,0,0,1-2.87-12.07,40.06,40.06,0,0,1,0-7.4l23.66-4.15S238.06,189,236.54,191.34Z"/><path class="cls-10" d="M250.13,123.79a23.61,23.61,0,0,0-.38,6l-5.43,25.66s-2.64,19.78-3.1,22.42S240,192.1,240,192.1a25.57,25.57,0,0,1-27.27-2.72,115.88,115.88,0,0,1-2.87-12.08c-.75-4.48,1.48-22.44,2.53-30.42.32-2.36.53-3.85.53-3.85l4-14.72s4.87-12.41,6.68-16,9.1-11.76,9.1-11.76c.9-.57,2.34,1.46,3.42,3.3.81,1.4,1.41,2.69,1.41,2.69s9.06,3.93,10.42,6,1.13,6.42,1.28,6.64S250.74,121.82,250.13,123.79Z"/><path class="cls-6" d="M228.77,114.65s.68,4-1.06,5.21-14.2,25.79-15,27.33c.31-2.37.52-3.86.52-3.86l4-14.71s4.87-12.42,6.68-16.05,9.1-11.76,9.1-11.76c.9-.57,2.34,1.46,3.41,3.3C234.79,107.47,231.42,113.82,228.77,114.65Z"/><path class="cls-10" d="M228.47,114.35s.68,4-1.06,5.21-14.2,25.79-15,27.32c.31-2.36.53-3.85.53-3.85l4-14.72s4.87-12.41,6.68-16,9.09-11.76,9.09-11.76c.91-.57,2.35,1.46,3.42,3.3C234.49,107.17,231.12,113.52,228.47,114.35Z"/><polygon class="cls-22" points="246.43 150.51 242.17 172.67 242.17 172.68 241.77 174.8 241.77 174.8 240.85 179.57 236.94 178.74 235.11 178.35 209.88 173.01 208.02 172.62 203.79 171.72 204.62 166.22 204.96 163.93 208.01 143.64 246.43 150.51"/><path class="cls-13" d="M222.88,168.62s-10,3.63-7.85,7.93,16.23-3.32,16.23-3.32Z"/><path class="cls-6" d="M230.05,199.49c0,.31.38,4.16,1.89,5.51S230.05,199.49,230.05,199.49Z"/><path class="cls-6" d="M219.94,213.16s1.81,5,9,7S219.94,213.16,219.94,213.16Z"/><path class="cls-6" d="M236.42,87.83A11.77,11.77,0,0,1,230.52,98a6.29,6.29,0,0,1-1.77-1.47,2.28,2.28,0,0,1-.61-2.22c.25-.6.9-1,1.06-1.6a2.32,2.32,0,0,0,0-1.14l-.39-1.75c-.11-.49-.3-1.08-.79-1.2s-.91.29-1.29.6a4.08,4.08,0,0,1-3.9.64c-1.13-.61-.81-2.66-1-3.77a.62.62,0,0,0-.25-.5,1,1,0,0,0-.51,0,1.48,1.48,0,0,1-1.28-1.13,9.42,9.42,0,0,1-.21-1.83,2,2,0,0,0-.81-1.57,2.48,2.48,0,0,0-1.34-.22l-2.22,0a11.78,11.78,0,0,1,21.24,7Z"/><path class="cls-21" d="M227,89.26c.39-.31.81-.71,1.29-.59s.69.7.8,1.19l.38,1.75a2.44,2.44,0,0,1,.06,1.14c-.18.63-.83,1-1.09,1.6a2.31,2.31,0,0,0,.61,2.21,6.41,6.41,0,0,0,3.64,2.18,2.58,2.58,0,0,0,1.14,0,3.36,3.36,0,0,0,1.87-1.69c2.34-3.65,4.36-7.65,4.77-12a7.81,7.81,0,0,0-.12-2.64,9.62,9.62,0,0,0-.81-1.93,15.46,15.46,0,0,0-2.28-3.44,12.86,12.86,0,0,0-6.12-3.43,20.45,20.45,0,0,0-7.9-.62c-.71.08-1.38.19-2.08.24a21,21,0,0,1-2.63,0l-5.21-.31a2,2,0,0,0,.35,1.89,3.31,3.31,0,0,1,.77,1.82,3.78,3.78,0,0,1-.88,1.78,1.73,1.73,0,0,0-.28,1.85,2,2,0,0,0,1.77.58l2.63,0a2.48,2.48,0,0,1,1.34.23,2.06,2.06,0,0,1,.81,1.58,9.32,9.32,0,0,0,.21,1.82,1.47,1.47,0,0,0,1.28,1.14,1,1,0,0,1,.51,0,.69.69,0,0,1,.25.5c.18,1.11-.16,3.16,1,3.77A4.08,4.08,0,0,0,227,89.26Z"/><path class="cls-6" d="M242,112.52a5.76,5.76,0,0,0-6.07,3.88c-1.42,4-3.78,11.3-3.19,14.18.83,4.08,1.81,10.87,1.81,10.87s4.31,2.48,2.13,5a14,14,0,0,0-2.79,6s-2.8,1.21-3.4,3.78-4.68,6.11-4.68,6.11l-6.11,6.11s10.11,10.27,12.15,10.79l6.26-7.32,7.4-9.81,6.42-6.73s1.51-3.54.75-10.27a49,49,0,0,0-3.7-13.13l.23-2.27S249.86,113.5,242,112.52Z"/><path class="cls-10" d="M242.56,112.52a5.77,5.77,0,0,0-6.06,3.88c-1.42,4-3.78,11.3-3.19,14.18.83,4.08,1.81,10.87,1.81,10.87s4.3,2.48,2.12,5a14.18,14.18,0,0,0-2.79,6s-2.79,1.21-3.39,3.78-4.68,6.11-4.68,6.11l-6.12,6.11s10.12,10.27,12.15,10.79l6.27-7.32,7.38-9.81,6.41-6.73s1.52-3.54.76-10.27a49.46,49.46,0,0,0-3.7-13.13l.23-2.27S250.46,113.5,242.56,112.52Z"/><path class="cls-6" d="M236.24,135.49s6.42,7.84,9.14,6.11S236.24,135.49,236.24,135.49Z"/><path class="cls-6" d="M238.66,129.45c.68.22,6.27,8,9.13,7.08S238.66,129.45,238.66,129.45Z"/><path class="cls-6" d="M240.24,142.8a4.21,4.21,0,0,0,5,3.85C249.83,146.05,240.24,142.8,240.24,142.8Z"/><polygon class="cls-6" points="219.9 106.88 217.41 112.43 220.52 109.27 219.9 106.88"/><polygon class="cls-20" points="219.9 106.58 217.41 112.13 220.52 108.97 219.9 106.58"/><polygon class="cls-23" points="209.88 173.01 208.02 172.62 204.62 166.22 204.96 163.93 209.88 173.01"/><polygon class="cls-23" points="242.17 172.68 241.77 174.8 241.77 174.8 236.94 178.74 235.11 178.35 242.17 172.68"/><path class="cls-6" d="M166.07,147.91c-.93.16-1.84.3-2.67.41-4.6.6-15.55-4.83-15.55-4.83s-13.36-11.17-17.21-21.74,4.61-12.15,4.61-12.15c3.18-1.82,10.11,3.24,11.09,4.07a6.25,6.25,0,0,1,1.74,4.3c-.08,1.36,2.27,3.1,2.27,3.1s4,6.94,5,7.7a3.92,3.92,0,0,1,1.51,2.72c.3,1.28,2.94,2.34,4.07,2.26s2.48.38,2.48,1,1.11.73,2,.8C165.68,139.4,165.94,144.47,166.07,147.91Z"/><path class="cls-6" d="M166,146.81l-2,.3c-4.61.6-15.55-4.83-15.55-4.83s-13.36-11.17-17.21-21.74,4.6-12.15,4.6-12.15c3.19-1.81,10.12,3.24,11.1,4.07a6.38,6.38,0,0,1,1.74,4.31c-.08,1.36,2.26,3.09,2.26,3.09s4,7,5,7.7a3.92,3.92,0,0,1,1.51,2.72c.31,1.28,2.94,2.34,4.08,2.26s2.48.38,2.48,1c0,.36.63.59,1.33.71,0,.41,0,.85.08,1.3C165.65,139,165.89,143.45,166,146.81Z"/><path class="cls-6" d="M183.54,139.21l-.28,6.78H183l-.64-.35.08-5.85A10.32,10.32,0,0,1,183.54,139.21Z"/><path class="cls-14" d="M135.25,109s-8.46,1.59-4.61,12.15,17.21,21.75,17.21,21.75,11,5.43,15.55,4.82,11.63-2.18,12.53-2,7,.23,7,.23l.31-7.08-7.09-.38-3.62-.76s-1.28-1.06-2-.9-2.34-.91-2.34-.91a4.51,4.51,0,0,0-2.12-1c-.91,0-2.64-.23-2.64-.83s-1.36-1.06-2.48-1-3.79-1-4.1-2.28a4,4,0,0,0-1.51-2.71c-1-.76-5-7.71-5-7.71s-2.35-1.73-2.27-3.09a6.36,6.36,0,0,0-1.74-4.3C145.35,112.23,138.41,107.18,135.25,109Z"/><path class="cls-6" d="M157,133.3s-3.25,3.24-2.42,3.85Z"/><path class="cls-6" d="M160.46,135.86s-4.23,3.25-3.1,3.48S160.46,135.86,160.46,135.86Z"/><path class="cls-6" d="M153.28,140.68c.61.3,9.59,5.66,13,5.59Z"/><path class="cls-6" d="M153.89,104.84s-1.58,5.21-2.19,5.21-8.44-6.45-11.76-9.16l.14-.12a7.13,7.13,0,0,1,1.51-3.55C142.8,96,153.89,104.84,153.89,104.84Z"/><path class="cls-14" d="M153.59,104.24s-1.58,5.2-2.19,5.2S143,103,139.63,100.28l.15-.12a7.11,7.11,0,0,1,1.51-3.54C142.5,95.42,153.59,104.24,153.59,104.24Z"/><g class="cls-24"><path class="cls-25" d="M132.21,87.4h0c1.06,2.43,4,3.6,5.69,5.54C136.89,90.56,133.94,89.4,132.21,87.4Z"/><path class="cls-25" d="M143,93a2.57,2.57,0,0,1-2.33,1.19,6.8,6.8,0,0,1-2.33-.6,4.71,4.71,0,0,1,.61,1.28,7.3,7.3,0,0,0,2.63.71,2.51,2.51,0,0,0,2.32-1.19c.68-1.29,0-2.39-.85-3.44A2.28,2.28,0,0,1,143,93Z"/><path class="cls-25" d="M156.18,75.24a11.5,11.5,0,0,0-.94-1.85,11.65,11.65,0,0,1-.38-1.52,4.74,4.74,0,0,0-1.09-1.94,4.72,4.72,0,0,1,.18.53,11,11,0,0,0,.4,1.52,12.91,12.91,0,0,1,.93,1.86,1.92,1.92,0,0,1-1.41,2.22c-1.31.28-2.81-.85-3.93-.12a2.83,2.83,0,0,0-.95,2.18c-.15,1.42-.32,2.83-.48,4.23a5.22,5.22,0,0,1-.31,1.45,3.66,3.66,0,0,1-3.47,1.85,2.06,2.06,0,0,1-1.5-.5,10.16,10.16,0,0,0-.65-.82c-1.77-1.49-2.3,2.15-1.84,3.19a6.71,6.71,0,0,0,.87,1.3c-.39-1.17.15-4.53,1.88-3.09a8.67,8.67,0,0,1,.65.82,2.07,2.07,0,0,0,1.49.49,3.64,3.64,0,0,0,3.48-1.85,5.22,5.22,0,0,0,.31-1.45c.16-1.42.32-2.83.48-4.22a2.84,2.84,0,0,1,.94-2.19c1.13-.72,2.62.41,3.93.12A1.92,1.92,0,0,0,156.18,75.24Z"/></g><path class="cls-6" d="M234.57,97.86a2.69,2.69,0,0,1-1.13,0,6.31,6.31,0,0,1-3.64-2.17,2.27,2.27,0,0,1-.61-2.22c.25-.6.9-1,1.06-1.59a2.24,2.24,0,0,0-.06-1.15L229.81,89c-.11-.5-.3-1.08-.79-1.2s-.9.29-1.29.59a4,4,0,0,1-3.89.64c-1.14-.61-.82-2.66-1-3.77a.67.67,0,0,0-.24-.5,1,1,0,0,0-.52,0,1.48,1.48,0,0,1-1.28-1.14,10.15,10.15,0,0,1-.21-1.82,2.06,2.06,0,0,0-.81-1.58,2.48,2.48,0,0,0-1.34-.23l-2.63,0c-.64,0-1.41,0-1.77-.58a1.77,1.77,0,0,1,.28-1.85,3.61,3.61,0,0,0,.88-1.78,3.31,3.31,0,0,0-.77-1.82,3.32,3.32,0,0,1-.44-1l-.76,0a2,2,0,0,0,.36,1.89,3.4,3.4,0,0,1,.76,1.82,3.73,3.73,0,0,1-.87,1.77,1.75,1.75,0,0,0-.28,1.86,2,2,0,0,0,1.77.58l2.63,0a2.43,2.43,0,0,1,1.33.23,2.05,2.05,0,0,1,.82,1.58,9.32,9.32,0,0,0,.21,1.82,1.45,1.45,0,0,0,1.28,1.13,1.1,1.1,0,0,1,.51,0,.71.71,0,0,1,.25.5c.18,1.11-.16,3.16,1,3.77a4,4,0,0,0,3.9-.64c.38-.3.81-.71,1.29-.59s.68.71.79,1.19l.39,1.75a2.36,2.36,0,0,1,0,1.15c-.17.62-.83,1-1.08,1.59a2.28,2.28,0,0,0,.61,2.22,6.36,6.36,0,0,0,3.66,2.17,2.74,2.74,0,0,0,1.14,0,2.66,2.66,0,0,0,1.47-1.12A1.86,1.86,0,0,1,234.57,97.86Z"/><ellipse class="cls-1" cx="72.13" cy="252.93" rx="8.56" ry="1.31"/><ellipse class="cls-1" cx="370.96" cy="218.78" rx="8.56" ry="1.31"/><ellipse class="cls-1" cx="283.7" cy="271.71" rx="24.79" ry="3.8"/><ellipse class="cls-1" cx="354.16" cy="255.6" rx="19.33" ry="2.97"/><ellipse class="cls-1" cx="350.98" cy="285.17" rx="32.79" ry="5.03"/><ellipse class="cls-1" cx="35.49" cy="289.59" rx="24.79" ry="3.8"/><path class="cls-22" d="M72.52,211.09s1,1.27-.45,3.19-2.59,3.54-2.13,4.72c0,0,2.13-3.54,3.9-3.6S74.43,213.23,72.52,211.09Z"/><path class="cls-6" d="M72.52,211.09a1.47,1.47,0,0,1,.19.4c1.7,2,2.61,3.85,1,3.89s-3.34,2.76-3.77,3.45a1,1,0,0,0,0,.16s2.12-3.54,3.89-3.61S74.43,213.23,72.52,211.09Z"/><path class="cls-26" d="M74.32,212.71c0,.44,0,.8-.11.8s-.12-.35-.12-.8.07-.24.13-.24S74.32,212.26,74.32,212.71Z"/><path class="cls-26" d="M74.94,213.24c-.39.21-.74.35-.76.29s.26-.27.65-.49.24,0,.27,0S75.33,213,74.94,213.24Z"/><path class="cls-22" d="M67.4,211.09s-1,1.27.44,3.19S70.43,217.82,70,219c0,0-2.13-3.54-3.88-3.6S65.47,213.23,67.4,211.09Z"/><path class="cls-6" d="M67.4,211.09a1.25,1.25,0,0,0-.2.4c-1.7,2-2.61,3.85-1,3.89s3.34,2.76,3.78,3.45c0,0,0,.11-.05.16s-2.13-3.54-3.88-3.61S65.47,213.23,67.4,211.09Z"/><path class="cls-26" d="M65.59,212.71c0,.44,0,.8.11.8s.12-.35.12-.8-.07-.24-.13-.24S65.59,212.26,65.59,212.71Z"/><path class="cls-26" d="M65,213.24c.4.21.74.35.77.29s-.27-.27-.66-.49-.24,0-.27,0S64.58,213,65,213.24Z"/><ellipse class="cls-1" cx="69.96" cy="227.14" rx="10.14" ry="1.55"/><path class="cls-27" d="M75.17,217.29l0,.39-.07.56,0,.24L75,219l0,.23-.07.56-.77,6.37c-.07.57-1,1-2.13,1H68c-1.12,0-2-.44-2.13-1l-.77-6.37-.07-.56,0-.23-.07-.56,0-.24-.06-.56-.05-.39c0-.32.46-.59,1.09-.59h8.25C74.71,216.7,75.21,217,75.17,217.29Z"/><polygon class="cls-28" points="75.13 217.68 75.06 218.24 64.85 218.24 64.79 217.68 75.13 217.68"/><polygon class="cls-28" points="75.03 218.48 74.96 219.04 64.95 219.04 64.88 218.48 75.03 218.48"/><polygon class="cls-28" points="74.93 219.27 74.86 219.83 65.05 219.83 64.98 219.27 74.93 219.27"/><path class="cls-22" d="M364.21,206.19s-1.21,5.63,4.17,6.3l.34-.63S364.54,207.94,364.21,206.19Z"/><path class="cls-22" d="M370.43,211.82l-1.25.26-.13,0s-3.34-2.71-3.3-8.77a15.43,15.43,0,0,0,1.6,2.53C368.67,207.62,370.18,210,370.43,211.82Z"/><path class="cls-22" d="M370.85,212.4a.79.79,0,0,1-.67.09c-3.22-.75-2.12-11.23-2.12-11.23.17.08.35,1.41,1.11,3.14C370.46,207.42,371.89,211.64,370.85,212.4Z"/><path class="cls-22" d="M378,206.19s.21,5.63-5.17,6.3l-.34-.64S377.65,207.94,378,206.19Z"/><path class="cls-22" d="M376.44,203.35a10.43,10.43,0,0,1-4.3,8.77l-.13,0-1.25-.26c.25-1.86,1.77-4.2,3.08-6A14.16,14.16,0,0,1,376.44,203.35Z"/><path class="cls-22" d="M372,211.85a1.9,1.9,0,0,1-.71.55h0l-.27.09c-.79.18-1.06-.39-1-1.36a25.19,25.19,0,0,1,2.13-6.95,8.56,8.56,0,0,1,2-2.92S374.1,209.42,372,211.85Z"/><path class="cls-22" d="M371.1,197.58s-3.59,12.75-.5,14.65S371.89,198.71,371.1,197.58Z"/><path class="cls-6" d="M364.21,206.19s-1.21,5.63,4.17,6.3l.34-.63S364.54,207.94,364.21,206.19Z"/><path class="cls-6" d="M370.43,211.82l-1.25.26-.13,0s-3.34-2.71-3.3-8.77a15.43,15.43,0,0,0,1.6,2.53C368.67,207.62,370.18,210,370.43,211.82Z"/><path class="cls-6" d="M370.85,212.4a.79.79,0,0,1-.67.09c-3.22-.75-2.12-11.23-2.12-11.23.17.08.35,1.41,1.11,3.14C370.46,207.42,371.89,211.64,370.85,212.4Z"/><path class="cls-6" d="M378,206.19s.21,5.63-5.17,6.3l-.34-.64S377.65,207.94,378,206.19Z"/><path class="cls-6" d="M376.44,203.35a10.43,10.43,0,0,1-4.3,8.77l-.13,0-1.25-.26c.25-1.86,1.77-4.2,3.08-6A14.16,14.16,0,0,1,376.44,203.35Z"/><path class="cls-6" d="M372,211.85a1.9,1.9,0,0,1-.71.55h0l-.27.09c-.79.18-1.06-.39-1-1.36a25.19,25.19,0,0,1,2.13-6.95,8.56,8.56,0,0,1,2-2.92S374.1,209.42,372,211.85Z"/><path class="cls-6" d="M371.1,197.58s-3.59,12.75-.5,14.65S371.89,198.71,371.1,197.58Z"/><path class="cls-22" d="M364.21,206.19s-.71,5.63,4.67,6.3l.34-.63S364.54,207.94,364.21,206.19Z"/><path class="cls-22" d="M370.93,211.82l-1.25.26-.13,0s-3.84-2.71-3.81-8.76c0,0,1,1.07,2.1,2.53C369.17,207.62,370.68,210,370.93,211.82Z"/><path class="cls-6" d="M370.93,211.82l-1.25.26c-1.19-1-1.66-3.76-1.83-6.21C369.17,207.62,370.68,210,370.93,211.82Z"/><path class="cls-22" d="M371.36,212.4a.82.82,0,0,1-.68.09c-3.22-.75-2.63-11.23-2.63-11.23a14.18,14.18,0,0,1,1.61,3.14C371,207.42,372.39,211.64,371.36,212.4Z"/><path class="cls-22" d="M378,206.19s.71,5.63-4.67,6.3l-.33-.63S377.65,207.94,378,206.19Z"/><path class="cls-22" d="M376.44,203.35c0,6.06-3.8,8.77-3.8,8.77l-.12,0-1.26-.26c.25-1.86,1.77-4.2,3.08-6C375.46,204.42,376.44,203.35,376.44,203.35Z"/><path class="cls-6" d="M374.34,205.87c-.16,2.29-.58,4.8-1.59,6a2.5,2.5,0,0,1-.23.23l-1.26-.26C371.51,210,373,207.62,374.34,205.87Z"/><path class="cls-22" d="M372.5,211.85a1.9,1.9,0,0,1-.71.55h0a1.34,1.34,0,0,1-.26.09c-.8.18-1.07-.39-1-1.36a25.19,25.19,0,0,1,2.13-6.95,13,13,0,0,1,1.52-2.92S374.6,209.42,372.5,211.85Z"/><path class="cls-6" d="M371.36,212.4a.82.82,0,0,1-.51-.17c-1.52-.94-1.55-4.47-1.19-7.83C371,207.42,372.39,211.64,371.36,212.4Z"/><path class="cls-6" d="M372.5,211.85c-.18.38-.41.58-.71.55h0a.94.94,0,0,1-.43-.16,2.31,2.31,0,0,1-.86-1.11,25.19,25.19,0,0,1,2.13-6.95C373,207.28,373.09,210.57,372.5,211.85Z"/><path class="cls-22" d="M371.1,197.58s-3.09,12.75,0,14.65S371.89,198.71,371.1,197.58Z"/><polygon class="cls-29" points="377.02 211.61 364.17 211.61 364.17 213.74 366.13 213.74 366.18 213.99 366.96 218.12 374.44 218.12 375.23 213.99 375.27 213.74 377.02 213.74 377.02 211.61"/><polygon class="cls-6" points="377.02 211.61 364.17 211.61 364.17 213.74 366.13 213.74 366.18 213.99 366.96 218.12 374.44 218.12 375.23 213.99 375.27 213.74 377.02 213.74 377.02 211.61"/><polygon class="cls-29" points="375.94 212.86 375.73 213.99 374.94 218.12 367.46 218.12 366.68 213.99 366.46 212.86 375.94 212.86"/><polygon class="cls-6" points="375.94 212.86 375.73 213.99 366.68 213.99 366.46 212.86 375.94 212.86"/><rect class="cls-29" x="364.67" y="211.61" width="12.86" height="2.13"/><path class="cls-22" d="M49.36,248a6.17,6.17,0,0,0-.81,1.52c0,.13-.1.28-.15.43a1.33,1.33,0,0,0-.28-.1,3.83,3.83,0,0,0-1.26-.11c0-.16,0-.35,0-.52.06-1.86-.16-4.46-2-3.36s-.48,2.83.62,4a3.7,3.7,0,0,0,.28.28c-1,.71-1.2,2.39-1.36,4.13s-1.65,3.64-2.63,4.72l-.27.3a3.61,3.61,0,0,0-2.85-.74c0-.15-.09-.31-.13-.47-.8-2.87-2.44-7.83-4.54-8.92l.27-.35c.89-1.17,1.9-2.9.42-3.34s-1.62,1.5-1.54,3c0,.18,0,.35,0,.52a2.16,2.16,0,0,0-1.55.75l-.23-.27c-1.2-1.41-3.41-3.67-4.08-2s1.32,3.65,2.69,4.84l.08.08c-.91,3.72,3.09,6.75,5.25,8.08l.28.17c-3,3.51-4.81,10.08-4.81,10.08l8.32,1.49S44.72,267.42,44,263h.06c5.52-1.11,6.77-7,5.91-10.49l.1,0a6.27,6.27,0,0,0,2.56-1.93C54.18,248.35,51,245.92,49.36,248Z"/><path class="cls-6" d="M49.36,248a6.17,6.17,0,0,0-.81,1.52c0,.13-.1.28-.15.43a1.33,1.33,0,0,0-.28-.1,3.83,3.83,0,0,0-1.26-.11c0-.16,0-.35,0-.52.06-1.86-.16-4.46-2-3.36s-.48,2.83.62,4a3.7,3.7,0,0,0,.28.28c-1,.71-1.2,2.39-1.36,4.13s-1.65,3.64-2.63,4.72l-.27.3a3.61,3.61,0,0,0-2.85-.74c0-.15-.09-.31-.13-.47-.8-2.87-2.44-7.83-4.54-8.92l.27-.35c.89-1.17,1.9-2.9.42-3.34s-1.62,1.5-1.54,3c0,.18,0,.35,0,.52a2.16,2.16,0,0,0-1.55.75l-.23-.27c-1.2-1.41-3.41-3.67-4.08-2s1.32,3.65,2.69,4.84l.08.08c-.91,3.72,3.09,6.75,5.25,8.08l.28.17c-3,3.51-4.81,10.08-4.81,10.08l8.32,1.49S44.72,267.42,44,263h.06c5.52-1.11,6.77-7,5.91-10.49l.1,0a6.27,6.27,0,0,0,2.56-1.93C54.18,248.35,51,245.92,49.36,248Z"/><path class="cls-22" d="M32.78,250.45l-1,2.83s-.54-.38-1.22-1c-1.37-1.2-3.31-3.26-2.69-4.84s2.88.54,4.08,2C32.46,250,32.78,250.45,32.78,250.45Z"/><path class="cls-22" d="M34.83,248.8a11.24,11.24,0,0,1-.95,1.12c-.08-.5-.14-1-.17-1.5-.08-1.46.07-3.4,1.54-3S35.72,247.64,34.83,248.8Z"/><path class="cls-22" d="M47.41,249.25c0,.94-.12,1.69-.12,1.69a11.34,11.34,0,0,1-1.21-1.09c-1.11-1.14-2.32-2.9-.62-4S47.45,247.39,47.41,249.25Z"/><path class="cls-22" d="M53.15,250.48a6.18,6.18,0,0,1-2.56,1.93,6.86,6.86,0,0,1-.86.32l-1.14-1.62a10.76,10.76,0,0,1,.47-1.56,6.17,6.17,0,0,1,.81-1.52C51.45,245.92,54.69,248.35,53.15,250.48Z"/><path class="cls-6" d="M32,249.43c.49.56.81,1,.81,1l-1,2.83s-.54-.38-1.22-1a5.53,5.53,0,0,1,1.1-2.5C31.77,249.66,31.88,249.54,32,249.43Z"/><path class="cls-6" d="M34.83,248.8a11.24,11.24,0,0,1-.95,1.12c-.08-.5-.14-1-.17-1.5A2,2,0,0,1,34.83,248.8Z"/><path class="cls-22" d="M39.62,260.12l-2.42,1.06a13.39,13.39,0,0,1-1.29-.73c-2.55-1.56-7.66-5.5-4.25-10.15S38,254,39.1,258.06C39.44,259.3,39.62,260.12,39.62,260.12Z"/><path class="cls-6" d="M46.06,249.85a2,2,0,0,1,1.33-.6c0,.94-.12,1.69-.12,1.69A11.34,11.34,0,0,1,46.06,249.85Z"/><path class="cls-6" d="M50.6,252.41a6.86,6.86,0,0,1-.86.32l-1.15-1.62a10.8,10.8,0,0,1,.48-1.56A4.18,4.18,0,0,1,50.6,252.41Z"/><path class="cls-22" d="M44.58,262.94l-.41.07c-8.12,1.23-2.68-3.15-2.68-3.15s.36-.35.86-.88c1-1.08,2.46-3,2.63-4.72.25-2.64.55-5.1,3.65-4.38S52.26,261.4,44.58,262.94Z"/><rect class="cls-30" x="28.91" y="283.15" width="15.51" height="4.08"/><rect class="cls-30" x="26.45" y="269.9" width="20.27" height="14.23"/><rect class="cls-6" x="28.91" y="283.15" width="15.51" height="4.08"/><rect class="cls-6" x="26.45" y="269.9" width="20.27" height="14.23"/><rect class="cls-30" x="29.93" y="283.15" width="15.51" height="4.08"/><path class="cls-6" d="M39.1,258.07c.35,1.21.52,2.05.52,2.05l-2.42,1.06a13.39,13.39,0,0,1-1.29-.73A6.21,6.21,0,0,1,39.1,258.07Z"/><path class="cls-6" d="M44.58,262.94l-.41.07c-8.12,1.23-2.68-3.15-2.68-3.15s.36-.35.86-.88A5.36,5.36,0,0,1,44.58,262.94Z"/><path class="cls-22" d="M31.38,270.7s4.54-16.29,10.92-11.26-2.6,12.75-2.6,12.75Z"/><circle class="cls-6" cx="33.67" cy="252.85" r="0.51"/><circle class="cls-6" cx="33.63" cy="255.23" r="0.51"/><circle class="cls-6" cx="48.42" cy="253.32" r="0.51"/><circle class="cls-6" cx="36.52" cy="265.52" r="0.51"/><circle class="cls-6" cx="47.36" cy="257.27" r="0.51"/><circle class="cls-6" cx="42.09" cy="262.54" r="0.51"/><circle class="cls-6" cx="35.41" cy="253.87" r="0.51"/><circle class="cls-6" cx="47.02" cy="254.85" r="0.51"/><circle class="cls-6" cx="45.27" cy="258.8" r="0.51"/><circle class="cls-6" cx="39.92" cy="265.14" r="0.51"/><circle class="cls-6" cx="38.82" cy="262.63" r="0.51"/><circle class="cls-6" cx="36.18" cy="256.97" r="0.51"/><rect class="cls-6" x="29.93" y="283.15" width="15.51" height="1.49"/><rect class="cls-30" x="27.47" y="269.9" width="20.27" height="14.23"/><circle class="cls-6" cx="40.6" cy="267.43" r="0.51"/><circle class="cls-6" cx="37.54" cy="268.07" r="0.51"/><circle class="cls-1" cx="17.7" cy="18.41" r="3.7"/><circle class="cls-1" cx="373.42" cy="134.94" r="4.96"/><circle class="cls-1" cx="382.98" cy="124.32" r="3.62"/><circle class="cls-1" cx="24.08" cy="4.96" r="4.96"/><circle class="cls-1" cx="4.96" cy="27.62" r="4.96"/></g></g></svg>