<svg xmlns="http://www.w3.org/2000/svg" viewBox="0 0 107.16 99.6"><defs><style>.cls-1{fill:#ffbc00;}</style></defs><title>satis metod</title><g id="Layer_2" data-name="Layer 2"><g id="Layer_1-2" data-name="Layer 1"><path class="cls-1" d="M48.22,66.22a2.1,2.1,0,1,0-3,0A2.12,2.12,0,0,0,48.22,66.22Z"/><path class="cls-1" d="M49,17v4.19a12.56,12.56,0,1,0,25.11,0V17a2.09,2.09,0,1,0,0-4.18H69.91a2.09,2.09,0,0,0,0,4.18v4.19a8.38,8.38,0,0,1-16.75,0V17a2.09,2.09,0,1,0,0-4.18H49A2.09,2.09,0,1,0,49,17Z"/><path class="cls-1" d="M24.32,99a2.13,2.13,0,0,0,1.48.61A2.08,2.08,0,0,0,27.28,99l6.43-6.42a9.71,9.71,0,0,0,2.81-7.86l2.31-2.22a9.7,9.7,0,0,1,6.77-2.73H73.15a18.75,18.75,0,0,0,13.14-5.34l.15-.16,18.75-22.52A8.37,8.37,0,0,0,92.45,40.87l-2,2.09V2.09A2.1,2.1,0,0,0,88.33,0H34.53a2.1,2.1,0,0,0-2.09,2.09V49a25.17,25.17,0,0,0-18,14.08,9.68,9.68,0,0,0-7.37,2.84L.62,72.34A2.09,2.09,0,0,0,0,73.82a2.13,2.13,0,0,0,.61,1.49ZM86.23,4.19v43.1l-6,6.26a8.44,8.44,0,0,0-6.5-3.11H49.41a1.14,1.14,0,0,1-.43-.09,27,27,0,0,0-10.26-2c-.7,0-1.4,0-2.09.07V4.19ZM34.84,52.81a23.83,23.83,0,0,1,12.57,1.42,5.21,5.21,0,0,0,2,.4H73.68a4.19,4.19,0,0,1,0,8.37H55.47a2.1,2.1,0,1,0,0,4.19H73.68a8.39,8.39,0,0,0,8.37-8.37,8,8,0,0,0-.08-1.1l13.53-14,.09-.1A4.19,4.19,0,1,1,102,49L83.29,71.48a14.56,14.56,0,0,1-10.14,4.08H45.6a13.87,13.87,0,0,0-9.68,3.91l-.92.89a9.76,9.76,0,0,0-1.29-1.59L20.86,65.92a9.81,9.81,0,0,0-2.31-1.71A20.93,20.93,0,0,1,34.84,52.81ZM10,68.88a5.55,5.55,0,0,1,7.86,0L30.75,81.73a5.55,5.55,0,0,1,0,7.87l-4.95,5L5.06,73.83Z"/></g></g></svg>