<svg xmlns="http://www.w3.org/2000/svg" viewBox="0 0 92.94 91.48"><defs><style>.cls-1{fill:#ffbc00;}</style></defs><title>satis bacariq</title><g id="Layer_2" data-name="Layer 2"><g id="Layer_1-2" data-name="Layer 1"><path class="cls-1" d="M24.69,91.48A1.45,1.45,0,0,1,23.23,90,10.18,10.18,0,0,1,33.4,79.87a1.45,1.45,0,0,1,0,2.9A7.27,7.27,0,0,0,26.14,90,1.45,1.45,0,0,1,24.69,91.48Z"/><path class="cls-1" d="M39.21,82.77H33.4a1.45,1.45,0,1,1,0-2.9h5.81a1.45,1.45,0,1,1,0,2.9Z"/><path class="cls-1" d="M68.25,91.48A1.45,1.45,0,0,1,66.8,90a7.27,7.27,0,0,0-7.26-7.26,1.45,1.45,0,1,1,0-2.9A10.17,10.17,0,0,1,69.7,90,1.45,1.45,0,0,1,68.25,91.48Z"/><path class="cls-1" d="M53.73,82.77a1.45,1.45,0,1,1,0-2.9h5.81a1.45,1.45,0,1,1,0,2.9Z"/><path class="cls-1" d="M39.21,82.77a1.44,1.44,0,0,1-1.45-1.45V76.67a1.45,1.45,0,1,1,2.9,0v4.65A1.45,1.45,0,0,1,39.21,82.77Z"/><path class="cls-1" d="M53.73,82.77a1.45,1.45,0,0,1-1.45-1.45V76.67a1.45,1.45,0,0,1,2.9,0v4.65A1.45,1.45,0,0,1,53.73,82.77Z"/><path class="cls-1" d="M46.47,79.87A17.45,17.45,0,0,1,29,62.44a1.46,1.46,0,0,1,2.91,0,14.52,14.52,0,0,0,29,0,1.45,1.45,0,0,1,2.9,0A17.44,17.44,0,0,1,46.47,79.87Z"/><path class="cls-1" d="M62.44,55.18A1.45,1.45,0,0,1,61,53.73a14.52,14.52,0,0,0-29,0,1.46,1.46,0,0,1-2.91,0,17.43,17.43,0,1,1,34.85,0A1.45,1.45,0,0,1,62.44,55.18Z"/><path class="cls-1" d="M30.49,63.9A1.45,1.45,0,0,1,29,62.44V53.73a1.46,1.46,0,0,1,2.91,0v8.71A1.46,1.46,0,0,1,30.49,63.9Z"/><path class="cls-1" d="M62.44,63.9A1.45,1.45,0,0,1,61,62.44V53.73a1.45,1.45,0,0,1,2.9,0v8.71A1.45,1.45,0,0,1,62.44,63.9Z"/><path class="cls-1" d="M62.44,58.08a1.48,1.48,0,0,1-1-.42L57.06,53.3a1.45,1.45,0,0,1,2-2l4.36,4.36a1.44,1.44,0,0,1,0,2A1.48,1.48,0,0,1,62.44,58.08Z"/><path class="cls-1" d="M46.47,56.63a29,29,0,0,1-12.31-3.07A1.45,1.45,0,0,1,35.54,51a26.4,26.4,0,0,0,10.93,2.73A26.06,26.06,0,0,0,57.4,51a1.45,1.45,0,0,1,1.37,2.55A28.68,28.68,0,0,1,46.47,56.63Z"/><path class="cls-1" d="M30.49,58.08a1.45,1.45,0,0,1-1-2.47l4.35-4.36a1.45,1.45,0,0,1,2.06,2l-4.36,4.36A1.44,1.44,0,0,1,30.49,58.08Z"/><path class="cls-1" d="M42.11,85.68a1.49,1.49,0,0,1-1-.43l-2.9-2.9a1.45,1.45,0,1,1,2-2.06l2.91,2.91a1.44,1.44,0,0,1,0,2A1.47,1.47,0,0,1,42.11,85.68Z"/><path class="cls-1" d="M42.11,85.68a1.46,1.46,0,0,1-.46-2.84L46,81.39a1.45,1.45,0,0,1,.92,2.76L42.57,85.6A1.48,1.48,0,0,1,42.11,85.68Z"/><path class="cls-1" d="M50.82,85.68a1.46,1.46,0,0,1-1-2.48l2.9-2.91a1.46,1.46,0,1,1,2.06,2.06l-2.91,2.9A1.45,1.45,0,0,1,50.82,85.68Z"/><path class="cls-1" d="M50.82,85.68a1.42,1.42,0,0,1-.45-.08L46,84.15a1.45,1.45,0,1,1,.92-2.76l4.35,1.45a1.46,1.46,0,0,1-.46,2.84Z"/><path class="cls-1" d="M46.47,32a16,16,0,1,1,16-16A16,16,0,0,1,46.47,32Zm0-29A13.07,13.07,0,1,0,59.54,16,13.09,13.09,0,0,0,46.47,2.9Z"/><path class="cls-1" d="M16,49.37a16,16,0,1,1,11.3-4.68A16,16,0,0,1,16,49.37Zm0-29a13.08,13.08,0,1,0,9.24,3.83A13.09,13.09,0,0,0,16,20.33Z"/><path class="cls-1" d="M77,49.38a16,16,0,1,1,16-16A16,16,0,0,1,77,49.38Zm0-29.05A13.07,13.07,0,1,0,90,33.4,13.09,13.09,0,0,0,77,20.33Z"/><path class="cls-1" d="M23.23,42.11H8.71a1.45,1.45,0,0,1-1.45-1.45V30.49A1.45,1.45,0,0,1,8.71,29H23.23a1.45,1.45,0,0,1,1.46,1.45V40.66A1.45,1.45,0,0,1,23.23,42.11Zm-13.07-2.9H21.78V32H10.16Z"/><path class="cls-1" d="M23.23,32H8.71a1.45,1.45,0,0,1-1.45-1.46V26.14a1.44,1.44,0,0,1,1.45-1.45H23.23a1.45,1.45,0,0,1,1.46,1.45v4.35A1.46,1.46,0,0,1,23.23,32ZM10.16,29H21.78V27.59H10.16Z"/><path class="cls-1" d="M42.11,24.69a4.36,4.36,0,0,1,0-8.72,1.46,1.46,0,0,1,0,2.91,1.45,1.45,0,1,0,0,2.9,1.46,1.46,0,0,1,0,2.91Z"/><path class="cls-1" d="M52.28,24.69H42.11a1.46,1.46,0,0,1,0-2.91H52.28a1.46,1.46,0,0,1,0,2.91Z"/><path class="cls-1" d="M52.28,18.88H42.11a1.46,1.46,0,0,1,0-2.91H52.28a1.46,1.46,0,0,1,0,2.91Z"/><path class="cls-1" d="M50.82,24.69a1.45,1.45,0,0,1-1.45-1.46v-5.8a1.46,1.46,0,1,1,2.91,0v5.8A1.46,1.46,0,0,1,50.82,24.69Z"/><path class="cls-1" d="M39.21,13.07a1.44,1.44,0,0,1-1.45-1.45,4.36,4.36,0,0,1,4.35-4.36,1.45,1.45,0,1,1,0,2.9,1.46,1.46,0,0,0-1.45,1.46A1.45,1.45,0,0,1,39.21,13.07Z"/><path class="cls-1" d="M52.28,10.16H42.11a1.45,1.45,0,0,1,0-2.9H52.28a1.45,1.45,0,1,1,0,2.9Z"/><path class="cls-1" d="M52.28,18.88a1.45,1.45,0,0,1-1.46-1.45V8.71a1.46,1.46,0,0,1,2.91,0v8.72A1.45,1.45,0,0,1,52.28,18.88Z"/><path class="cls-1" d="M39.21,21.78a1.44,1.44,0,0,1-1.45-1.45V11.62a1.45,1.45,0,1,1,2.9,0v8.71A1.45,1.45,0,0,1,39.21,21.78Z"/><path class="cls-1" d="M82.77,40.66H71.15a2.9,2.9,0,0,1-2.9-2.9V30.49a2.9,2.9,0,0,1,2.9-2.9H82.77a2.91,2.91,0,0,1,2.91,2.9v7.27A2.91,2.91,0,0,1,82.77,40.66Zm0-2.9v0ZM71.15,30.49v7.27H82.77V30.49Z"/><path class="cls-1" d="M74.06,30.49A1.44,1.44,0,0,1,72.61,29V24.69a1.45,1.45,0,1,1,2.9,0V29A1.44,1.44,0,0,1,74.06,30.49Z"/><path class="cls-1" d="M79.87,26.14H74.06a1.46,1.46,0,0,1,0-2.91h5.81a1.46,1.46,0,0,1,0,2.91Z"/><path class="cls-1" d="M79.87,30.49A1.45,1.45,0,0,1,78.41,29V24.69a1.46,1.46,0,1,1,2.91,0V29A1.44,1.44,0,0,1,79.87,30.49Z"/></g></g></svg>