<svg xmlns="http://www.w3.org/2000/svg" viewBox="0 0 100.56 100.96"><defs><style>.cls-1{fill:#ffbc00;}</style></defs><title>Asset 6</title><g id="Layer_2" data-name="Layer 2"><g id="Layer_1-2" data-name="Layer 1"><path class="cls-1" d="M89.72,0H10.84A10.85,10.85,0,0,0,0,10.84V72.36A10.86,10.86,0,0,0,10.84,83.21H35.49V95H26.62a3,3,0,0,0,0,5.92H73.94a3,3,0,1,0,0-5.92H65.07V83.21H89.72a10.86,10.86,0,0,0,10.84-10.85V10.84A10.85,10.85,0,0,0,89.72,0ZM5.92,10.84a4.93,4.93,0,0,1,4.92-4.92H89.72a4.94,4.94,0,0,1,4.93,4.92V59.55H5.92ZM59.15,95H41.41V83.21H59.15Zm35.5-22.68a4.94,4.94,0,0,1-4.93,4.93H10.84a4.93,4.93,0,0,1-4.92-4.93v-6.9H94.65Z"/><path class="cls-1" d="M79.86,12a8.88,8.88,0,0,0-8,12.71l-5.81,6a8.87,8.87,0,0,0-10.24,1.7L47.2,28.26a8.87,8.87,0,1,0-17,1.87l-5.88,6.34a8.87,8.87,0,1,0,4.28,4.08l5.54-6a8.86,8.86,0,0,0,10.18-1.13l8.94,4.3A8.87,8.87,0,1,0,70.17,35l5.88-6A8.87,8.87,0,1,0,79.86,12ZM20.7,47.52a3,3,0,1,1,3-3A3,3,0,0,1,20.7,47.52ZM38.45,29.77a3,3,0,1,1,3-2.95A3,3,0,0,1,38.45,29.77ZM62.11,41.6a3,3,0,1,1,3-3A3,3,0,0,1,62.11,41.6ZM79.86,23.86a3,3,0,1,1,3-3A3,3,0,0,1,79.86,23.86Z"/></g></g></svg>