<svg xmlns="http://www.w3.org/2000/svg" viewBox="0 0 103.23 92.34"><defs><style>.cls-1{fill:#ffbc00;}</style></defs><title>Asset 8</title><g id="Layer_2" data-name="Layer 2"><g id="Layer_1-2" data-name="Layer 1"><path class="cls-1" d="M62.51,33.87A17.75,17.75,0,1,0,80.25,51.62,17.77,17.77,0,0,0,62.51,33.87Zm0,31.46A13.71,13.71,0,1,1,76.22,51.62,13.73,13.73,0,0,1,62.51,65.33Z"/><path class="cls-1" d="M62.51,42.54a2,2,0,0,0,0,4,5.05,5.05,0,0,1,5,5,2,2,0,0,0,4,0A9.08,9.08,0,0,0,62.51,42.54Z"/><path class="cls-1" d="M12.43,15.2a2,2,0,0,0-3.58,1.86l5.43,10.48a2,2,0,0,0,3.6-.05l3.29-6.84,3.57,6.89a2,2,0,0,0,1.79,1.09h0a2,2,0,0,0,1.79-1.14l5-10.49a2,2,0,1,0-3.63-1.74L26.46,22.1l-3.57-6.9a2,2,0,0,0-3.61.06L16,22.1Z"/><path class="cls-1" d="M25.4,4a2,2,0,0,0,2-2A2.07,2.07,0,0,0,26.83.59,2.07,2.07,0,0,0,25.4,0a2,2,0,0,0-2,2,2,2,0,0,0,2,2Z"/><path class="cls-1" d="M103.23,34.68V8.07A8.07,8.07,0,0,0,95.17,0H33.87a2,2,0,1,0,0,4h61.3a4,4,0,0,1,4,4V34.68a4,4,0,0,1-4,4H85.32A26.35,26.35,0,0,0,71.15,26.87l3-6.22,3.57,6.89a2,2,0,0,0,1.79,1.09h0a2,2,0,0,0,1.78-1.14l5-10.49a2,2,0,0,0-3.64-1.74L79.43,22.1l-3.57-6.9a2,2,0,0,0-3.61.06L69,22.1,65.4,15.2a2,2,0,0,0-3.59,1.86l4.47,8.62a26.41,26.41,0,0,0-10.93.72L59.87,17a2,2,0,1,0-3.64-1.74L52.94,22.1l-3.56-6.9a2.05,2.05,0,0,0-1.83-1.09,2,2,0,0,0-1.78,1.15L42.48,22.1l-3.57-6.9a2,2,0,0,0-3.58,1.86l5.43,10.48a2,2,0,0,0,3.61-.05l3.28-6.84,3.57,6.89a1.77,1.77,0,0,0,.21.32A26.44,26.44,0,0,0,39.7,38.71H8.07a4,4,0,0,1-4-4V8.07a4,4,0,0,1,4-4h8.26a2,2,0,1,0,0-4H8.07A8.08,8.08,0,0,0,0,8.07V34.68a8.08,8.08,0,0,0,8.07,8.07H37.84A26.2,26.2,0,0,0,75.56,74.34l16,16a6.84,6.84,0,0,0,9.67-9.67l-6.29-6.28a2,2,0,0,0-2.85,2.85l6.29,6.29a2.8,2.8,0,0,1-4,4L78.94,72a26.16,26.16,0,0,0,8.23-29.27h8A8.07,8.07,0,0,0,103.23,34.68ZM62.51,73.8A22.18,22.18,0,1,1,84.68,51.62,22.21,22.21,0,0,1,62.51,73.8Z"/><path class="cls-1" d="M87.31,69.6a2,2,0,0,0,1.42,3.45,2.05,2.05,0,0,0,1.43-.59,2,2,0,1,0-2.85-2.86Z"/></g></g></svg>