<svg width="22" height="22" viewBox="0 0 22 22" fill="none" xmlns="http://www.w3.org/2000/svg">
<g clip-path="url(#clip0)">
<path d="M9.9 0C10.4 0 10.8 0 11.3 0C11.4 0 11.5 0 11.6 0C13 0.1 14.2 0.5 15.5 1.1C17.3 2 18.8 3.4 19.8 5.2C21 7.2 21.4 9.4 21.2 11.8C20.9 14.3 19.8 16.4 18 18.2C16.9 19.3 15.5 20.1 14 20.6C12.2 21.2 10.4 21.3 8.5 20.9C6.4 20.5 4.5 19.5 3 17.9C1.5 16.4 0.6 14.5 0.2 12.4C0.1 12.1 0 11.7 0 11.2C0 10.8 0 10.3 0 9.9C0 9.8 0 9.7 0 9.6C0.1 8.6 0.3 7.7 0.7 6.8C1.5 4.7 2.8 3.1 4.7 1.9C6 1 7.3 0.5 8.8 0.2C9.2 0.1 9.5 0 9.9 0ZM1.7 10.6C1.7 15.5 5.7 19.5 10.6 19.5C15.5 19.5 19.5 15.5 19.5 10.6C19.5 5.7 15.5 1.7 10.6 1.7C5.7 1.7 1.7 5.7 1.7 10.6Z" fill="#808285"/>
<path d="M14.2 5.29999C14.9 5.29999 15.6 5.79999 15.8 6.49999C16 7.19999 15.8 7.99999 15.1 8.39999C14.5 8.79999 13.7 8.79999 13.1 8.29999C13 8.19999 12.9 8.19999 12.7 8.29999C11.7 8.79999 10.8 9.29999 9.8 9.79999C9.4 9.99999 9.1 10.2 8.8 10.3C8.7 10.3 8.7 10.4 8.7 10.5C8.7 10.6 8.7 10.7 8.7 10.7C8.7 10.8 8.7 10.9 8.8 10.9C9.7 11.4 10.7 11.8 11.6 12.3C12 12.5 12.4 12.7 12.8 12.9C12.9 12.9 12.9 12.9 13 12.9C13.5 12.5 14.1 12.3 14.7 12.6C15.3 12.8 15.7 13.3 15.8 14C16 15 15.2 15.9 14.1 15.9C13.1 15.9 12.3 15.1 12.4 14.1C12.4 14 12.4 13.9 12.3 13.9C11 13.2 9.6 12.6 8.3 11.9C8.2 11.8 8.1 11.8 8 11.9C7.5 12.3 6.9 12.4 6.2 12.2C5.6 11.9 5.2 11.4 5.2 10.7C5.2 9.99999 5.5 9.39999 6.1 9.09999C6.8 8.79999 7.4 8.79999 8 9.29999C8.1 9.39999 8.2 9.39999 8.3 9.29999C9.6 8.59999 10.9 7.99999 12.3 7.29999C12.4 7.19999 12.5 7.19999 12.5 6.99999C12.4 6.09999 13.2 5.29999 14.2 5.29999Z" fill="#808285"/>
</g>
<defs>
<clipPath id="clip0">
<rect width="21.2" height="21.2" fill="white"/>
</clipPath>
</defs>
</svg>
