<svg xmlns="http://www.w3.org/2000/svg" viewBox="0 0 92.51 111.02"><defs><style>.cls-1{fill:#ffbc00;}</style></defs><title>Asset 7</title><g id="Layer_2" data-name="Layer 2"><g id="Layer_1-2" data-name="Layer 1"><path class="cls-1" d="M56.35,0H6.56A6.56,6.56,0,0,0,0,6.56V16.65A1.85,1.85,0,0,0,1.85,18.5H61.06a1.85,1.85,0,0,0,1.85-1.85V6.56A6.56,6.56,0,0,0,56.35,0Zm2.86,14.8H3.7V6.56A2.86,2.86,0,0,1,6.56,3.7H56.35a2.87,2.87,0,0,1,2.86,2.86Z"/><path class="cls-1" d="M61.06,92.51H1.85A1.85,1.85,0,0,0,0,94.36v10.09A6.57,6.57,0,0,0,6.56,111H56.35a6.57,6.57,0,0,0,6.56-6.57V94.36A1.85,1.85,0,0,0,61.06,92.51Zm-1.85,11.94a2.87,2.87,0,0,1-2.86,2.87H6.56a2.87,2.87,0,0,1-2.86-2.87V96.21H59.21Z"/><path class="cls-1" d="M31.45,92.51a9.26,9.26,0,1,0,9.26,9.26A9.26,9.26,0,0,0,31.45,92.51Zm0,14.81A5.56,5.56,0,1,1,37,101.77,5.56,5.56,0,0,1,31.45,107.32Z"/><path class="cls-1" d="M37,7.4H25.9a1.85,1.85,0,0,0,0,3.7H37a1.85,1.85,0,1,0,0-3.7Z"/><path class="cls-1" d="M42.5,85.11H9.25a1.85,1.85,0,1,0,0,3.7H42.5a1.85,1.85,0,1,0,0-3.7Z"/><path class="cls-1" d="M53.66,85.11H50a1.85,1.85,0,1,0,0,3.7h3.7a1.85,1.85,0,1,0,0-3.7Z"/><path class="cls-1" d="M53.66,77.71h-7.4a1.85,1.85,0,0,0,0,3.7h7.4a1.85,1.85,0,0,0,0-3.7Z"/><path class="cls-1" d="M13,77.71H9.25a1.85,1.85,0,0,0,0,3.7H13a1.85,1.85,0,0,0,0-3.7Z"/><path class="cls-1" d="M38.86,77.71H20.35a1.85,1.85,0,0,0,0,3.7H38.86a1.85,1.85,0,0,0,0-3.7Z"/><path class="cls-1" d="M40.71,40.71H35.16V35.16h5.55a1.86,1.86,0,0,0,0-3.71h-7.4a1.86,1.86,0,0,0-1.86,1.86v9.25a1.85,1.85,0,0,0,1.86,1.85h5.55V50H33.31a1.85,1.85,0,1,0,0,3.7h7.4a1.85,1.85,0,0,0,1.85-1.85V42.56A1.85,1.85,0,0,0,40.71,40.71Z"/><path class="cls-1" d="M46.92,31.45a1.85,1.85,0,0,0-1.85,1.86v18.5a1.85,1.85,0,1,0,3.7,0V33.31A1.85,1.85,0,0,0,46.92,31.45Z"/><path class="cls-1" d="M55.77,41.4l-7.4-9.25a1.85,1.85,0,0,0-2.89,2.31l7.4,9.25a1.83,1.83,0,0,0,1.44.7A1.87,1.87,0,0,0,55.48,44,1.85,1.85,0,0,0,55.77,41.4Z"/><path class="cls-1" d="M61.72,31.45a1.85,1.85,0,0,0-1.85,1.86v18.5a1.85,1.85,0,1,0,3.7,0V33.31A1.85,1.85,0,0,0,61.72,31.45Z"/><path class="cls-1" d="M62.88,31.86a1.85,1.85,0,0,0-2.6.29l-7.4,9.25a1.85,1.85,0,1,0,2.89,2.31l7.4-9.25A1.85,1.85,0,0,0,62.88,31.86Z"/><path class="cls-1" d="M67.52,31.45a1.85,1.85,0,0,0-1.85,1.86v18.5a1.85,1.85,0,0,0,3.7,0V33.31A1.85,1.85,0,0,0,67.52,31.45Z"/><path class="cls-1" d="M76.37,41.4,69,32.15a1.85,1.85,0,0,0-2.89,2.31l7.4,9.25a1.83,1.83,0,0,0,1.44.7A1.87,1.87,0,0,0,76.08,44,1.85,1.85,0,0,0,76.37,41.4Z"/><path class="cls-1" d="M82.32,31.45a1.85,1.85,0,0,0-1.85,1.86v18.5a1.85,1.85,0,0,0,3.7,0V33.31A1.85,1.85,0,0,0,82.32,31.45Z"/><path class="cls-1" d="M83.48,31.86a1.85,1.85,0,0,0-2.6.29l-7.4,9.25a1.85,1.85,0,1,0,2.89,2.31l7.4-9.25A1.85,1.85,0,0,0,83.48,31.86Z"/><path class="cls-1" d="M90.66,24.05H24.05A1.85,1.85,0,0,0,22.2,25.9V70.31A1.85,1.85,0,0,0,23.35,72a1.9,1.9,0,0,0,.7.14,1.86,1.86,0,0,0,1.31-.54L35.92,61.06H90.66a1.85,1.85,0,0,0,1.85-1.85V25.9A1.85,1.85,0,0,0,90.66,24.05ZM88.81,57.36H35.16a1.83,1.83,0,0,0-1.31.54l-8,7.94V27.75H88.81V57.36Z"/><path class="cls-1" d="M61.06,27.75a1.85,1.85,0,0,0,1.85-1.85V6.56A6.56,6.56,0,0,0,56.35,0H6.56A6.56,6.56,0,0,0,0,6.56v97.89A6.57,6.57,0,0,0,6.56,111H56.35a6.57,6.57,0,0,0,6.56-6.57V59.21a1.85,1.85,0,0,0-1.85-1.85H35.16a1.83,1.83,0,0,0-1.31.54l-8,7.94V27.75ZM23.34,72a1.84,1.84,0,0,0,2-.4L35.92,61.06H59.21v43.39a2.87,2.87,0,0,1-2.86,2.87H6.56a2.87,2.87,0,0,1-2.86-2.87V6.56A2.86,2.86,0,0,1,6.56,3.7H56.35a2.87,2.87,0,0,1,2.86,2.86V24.05H24.05A1.85,1.85,0,0,0,22.2,25.9V70.31A1.85,1.85,0,0,0,23.34,72Z"/></g></g></svg>