<svg xmlns="http://www.w3.org/2000/svg" viewBox="0 0 1044.17 902.11"><defs><style>.cls-1{fill:#ffc709;}.cls-2,.cls-3{fill:#fff;}.cls-2,.cls-3,.cls-4,.cls-5{stroke:#000;}.cls-2,.cls-3,.cls-4{stroke-miterlimit:10;}.cls-2,.cls-4{stroke-width:3px;}.cls-4{fill:none;}</style></defs><title>Smm2</title><g id="Layer_2" data-name="Layer 2"><g id="Layer_2-2" data-name="Layer 2"><circle class="cls-1" cx="413.54" cy="437.76" r="284.3"/><ellipse class="cls-1" cx="458.32" cy="546.06" rx="348.31" ry="356.05"/><circle class="cls-1" cx="615.29" cy="185.4" r="105.38"/><circle class="cls-1" cx="418.46" cy="51.49" r="51.49"/><circle class="cls-1" cx="860.83" cy="218.04" r="51.49"/><circle class="cls-1" cx="122.67" cy="536.95" r="52.69"/><circle class="cls-1" cx="184.47" cy="235.95" r="69.9"/><circle class="cls-1" cx="887.95" cy="503.84" r="95.69"/><circle class="cls-1" cx="948.49" cy="675.55" r="95.69"/><circle class="cls-1" cx="719.22" cy="437.15" r="196.21"/><circle class="cls-1" cx="742.77" cy="676.22" r="169.94"/><circle class="cls-1" cx="248.58" cy="478.71" r="169.94"/><circle class="cls-1" cx="169.94" cy="620.22" r="169.94"/><circle class="cls-1" cx="558.85" cy="654.8" r="169.94"/><path class="cls-2" d="M605.82,293.74c13.31-10.09,25.41-11.33,36.64-6.88,15.58,6.16,25.46,21.63,25.46,38.38V497.46l-31-46.3V327.45a17.14,17.14,0,0,0-10.79-16.14c-4.41-1.68-8.51-1.09-10.46,5.31C615.62,316.62,595.47,314.44,605.82,293.74Z"/><polygon class="cls-2" points="506.14 719.16 512.67 757.29 506.14 772.54 495.24 797.67 653.21 795.78 653.21 749.66 622.89 719.16 506.14 719.16"/><path class="cls-2" d="M700.06,599c-2.39,41.83-6.63,82.26-14.17,120.2,4.07,16.48.64,47.05-3.27,78.51H640.5l4.72-192.17Z"/><path class="cls-2" d="M577.79,434.93c40.17-13.5,50.75-54.61,42.49-113.3l-11.19-30.07c-74.89-16-130.34-.91-126.4,44.74Z"/><path class="cls-2" d="M711,611l-63.19,16.62-37-76.26L663,511.08S711,505.09,711,611Z"/><rect class="cls-2" x="176.45" y="797.67" width="744.08" height="18.51"/><path class="cls-2" d="M295.7,635.27c-2.18,0-92.42,25.61-92.42,25.61-5.29-8.29,13.9-15.16,34.13-22-24.31,8-47.81,15.38-63.55,16,0-4.17,1.79-7,6.17-8l-4.35-1.08c-2.44-5.29,7.84-9.85,16.16-14.53l-12.53-2c-8.21-6.36,28.7-14.59,55.47-22.51-7.61-.58-13.5-2.21-13.17-7.63l41.95-3.45,20.33,6.9,18.43,10.15Z"/><path class="cls-2" d="M427.7,580.8,390.66,681c-34.35-32.56-69.78-59.52-106.77-78.44l4.36,35.95c27.48,9,60.3,81.72,100.47,115.65a17,17,0,0,0,25.18-3.8c18-27.91,39.73-80.22,61.35-132Z"/><path class="cls-2" d="M489.8,611l-14.55,23.34L413.54,591.7s27.23-81.71,53.38-82.8l45.75,42.49Z"/><path class="cls-3" d="M276.63,603.32s5.08-2,15.62,7.71,0,25.05,0,25.05-15.26-.65-18.16,0S276.63,603.32,276.63,603.32Z"/><path class="cls-2" d="M488.71,734.41H647.76V579.71S634.69,536.14,663,511.08l-57.19-23.42-93.69,7.62L466.92,508.9c15,17.58,21,42.76,15.77,77.47L472.46,611a47.56,47.56,0,0,0-2.74,27.49Z"/><path class="cls-2" d="M482.69,336.3a182.2,182.2,0,0,0-11.05,76.13l13.8-.49L488,429.6a.71.71,0,0,0,1.13.45c27.16-20.58,31.69,11.31,4.22,18.8a1,1,0,0,0-.68,1.2l5.88,16L535,451.16c0,33.77-4.37,36.32-22.88,44.12,10.17,30.17,81.71,31.6,93.69-7.62-21.14-1.83-22.33-5.45-22.33-59.38-9.72-2.78-14.63-12.84-15.26-29.41l18-10.35-7-31-18.58,6-7.08,25.06.2-9.1L539.21,345Z"/><path class="cls-2" d="M486.08,373s17.76-.62,32.23,7.8"/><path class="cls-2" d="M494.4,376.06l2.68,7.92,3.69-.75-1.86-7.68-2.61-.35C495.23,375.05,494.22,375.51,494.4,376.06Z"/><line class="cls-2" x1="495.37" y1="375.43" x2="496.5" y2="383.16"/><path d="M496.09,376c-.39,1.39.44,2.61,1.13,3.73l1,1.62c.34.55.72,1.08,1,1.65l-.14-.5v.08l.29-.71a.48.48,0,0,1,.36-.17c.07,0,.08,0,0,0s.15.09,0,0c.06,0,.17.14.08,0l-.12-.14a7.67,7.67,0,0,1-.64-.88,9.15,9.15,0,0,1-.55-1,5.38,5.38,0,0,1-.37-.89,1,1,0,1,0-1.93.53,10.59,10.59,0,0,0,1.62,3,2.8,2.8,0,0,0,1.38,1.21,1.44,1.44,0,0,0,1.82-.78c.2-.73-.44-1.44-.8-2l-.93-1.51c-.33-.54-.68-1.06-1-1.61a2.44,2.44,0,0,1-.29-.62.9.9,0,0,1-.06-.22c0,.09,0,.07,0-.06a1.7,1.7,0,0,1,0-.22q0,.14,0-.06a1,1,0,1,0-1.93-.53Z"/><line class="cls-2" x1="568.97" y1="369.02" x2="561.71" y2="390.94"/><polyline class="cls-2" points="565.34 411.69 565.34 429.17 551.2 437.76"/><polygon class="cls-2" points="506.14 772.54 640.5 772.54 640.5 797.67 495.24 795.24 506.14 772.54"/><line class="cls-2" x1="515.49" y1="776.94" x2="512.67" y2="785.11"/><line class="cls-2" x1="536.23" y1="776.94" x2="532.68" y2="785.11"/><line class="cls-2" x1="605.82" y1="776.94" x2="610.72" y2="788.13"/><line class="cls-2" x1="622.75" y1="776.94" x2="627.49" y2="785.11"/><path class="cls-4" d="M615.29,491.54s-11.5,32.29-40.84,36.44-65.86-6.8-72-29.77"/><line class="cls-4" x1="649.12" y1="617.46" x2="710.78" y2="600.57"/><line class="cls-4" x1="471.12" y1="614.64" x2="418.46" y2="578.25"/><line class="cls-4" x1="486.08" y1="721.14" x2="647.76" y2="723.83"/><path class="cls-4" d="M289.22,605.38s.23,1.31.5,3.46c.84,6.68,2.14,21.43-1.47,29.7l8.68,4.72s10.88-17.16,5.39-30.52Z"/><path class="cls-2" d="M523.19,647.69s39.25,12.44,51,36.74"/><path class="cls-2" d="M552.79,643.26s18,10.66,21.44,17.62"/><rect class="cls-2" x="138.93" y="249.64" width="111.94" height="111.94" transform="translate(-68.72 56.84) rotate(-14.13)"/><rect class="cls-2" x="149.52" y="259.46" width="92" height="92" transform="translate(-68.67 56.99) rotate(-14.13)"/><rect class="cls-2" x="182.12" y="422.74" width="111.94" height="111.94" transform="translate(-147.91 108.77) rotate(-19.77)"/><rect class="cls-2" x="192.68" y="432.49" width="92" height="92" transform="translate(-147.8 108.96) rotate(-19.77)"/><path class="cls-5" d="M204.68,468.47l5.48-2,14,39-5.47,2Zm9.53,17.66,12.48-4.49a6.1,6.1,0,0,0,2.81-1.95,5.92,5.92,0,0,0,1.23-3.1,9.4,9.4,0,0,0-2.54-7.06,5.84,5.84,0,0,0-6.35-1.35l-12.47,4.48-1.87-5.2L219.79,463a13.23,13.23,0,0,1,6.67-.72,11,11,0,0,1,5.63,2.72,15.06,15.06,0,0,1,4.51,12.54,10.9,10.9,0,0,1-2.62,5.65,13.31,13.31,0,0,1-5.61,3.69l-12.29,4.41Z"/><path class="cls-5" d="M258.55,493.6l-2.33.3a18.31,18.31,0,0,1-4.56,0,16.55,16.55,0,0,1-4.33-1.17l1.81-5.16a19.68,19.68,0,0,0,5.41,1,12.85,12.85,0,0,0,4.7-.72,10,10,0,0,0,4.51-2.76,3.53,3.53,0,0,0,.54-3.6,2.51,2.51,0,0,0-1.61-1.69,5.27,5.27,0,0,0-2.52-.11c-.93.16-2.22.47-3.85.91a3.53,3.53,0,0,1-.46.15l-.47.13-.22.06L255,481a23,23,0,0,1-4.88.85,6.62,6.62,0,0,1-3.9-1,7.61,7.61,0,0,1-2.87-4.09,9.7,9.7,0,0,1-.56-5.34,7.79,7.79,0,0,1,2.54-4.23,16.8,16.8,0,0,1,5.63-3.13,22.52,22.52,0,0,1,4.29-1.09,20.36,20.36,0,0,1,4.19-.16,19.78,19.78,0,0,1,4.18.76l-1.86,5.18a19.58,19.58,0,0,0-4.84-.53,13.5,13.5,0,0,0-4.2.75,7.92,7.92,0,0,0-3.84,2.46,3.44,3.44,0,0,0-.37,3.35,2.06,2.06,0,0,0,1.4,1.41,4.79,4.79,0,0,0,2.27,0c.85-.16,2-.47,3.55-.91a2.14,2.14,0,0,0,.34-.09,2.11,2.11,0,0,1,.38-.11l.16-.05.17,0a25.6,25.6,0,0,1,5.25-1,7.13,7.13,0,0,1,4.29,1.1,8.4,8.4,0,0,1,3.21,4.54A9.54,9.54,0,0,1,270,485a8.32,8.32,0,0,1-2.81,4.36,19.6,19.6,0,0,1-6.15,3.33Z"/><rect class="cls-2" x="303.28" y="280.33" width="111.94" height="111.94" transform="translate(196.28 -128.03) rotate(27.55)"/><rect class="cls-2" x="313.81" y="290.6" width="92" height="92" transform="translate(196.48 -128.25) rotate(27.55)"/><path class="cls-5" d="M361.63,313.93l4.4,2.29L360.41,360l-5.56-2.9,5.28-35-25.65,24.33-5.56-2.9Zm-19.71,20L361.26,344l-2.56,4.9-19.34-10.08Z"/><path class="cls-5" d="M384.63,325.93l5.16,2.69-2.69,5.15-5.16-2.69Zm-5.48,10.51,5.15,2.69-13.68,26.24-5.16-2.69Z"/><path d="M185.7,326.45l-5.64,1.42-10.12-40.19,5.64-1.42Z"/><path class="cls-5" d="M198.59,322.28a9,9,0,0,1-4.39-3.14,16.14,16.14,0,0,1-2.75-6l-1.59-6.33a16.33,16.33,0,0,1-.46-6.61,8.83,8.83,0,0,1,2.3-4.83,9.89,9.89,0,0,1,4.86-2.68,8.91,8.91,0,0,1,5,.16,10,10,0,0,1,4.36,2.87l.89,6a6.91,6.91,0,0,0-1.45-3,4.6,4.6,0,0,0-2.42-1.49,6.57,6.57,0,0,0-3.22.09,5.64,5.64,0,0,0-3.89,2.83,7.38,7.38,0,0,0-.3,5.28l1.57,6.24a7.16,7.16,0,0,0,2.75,4.44,5.69,5.69,0,0,0,4.76.61,6.36,6.36,0,0,0,2.87-1.47,4.8,4.8,0,0,0,1.41-2.52,7.11,7.11,0,0,0-.14-3.34l1.92,5.95a8.47,8.47,0,0,1-1.91,4.28,8.16,8.16,0,0,1-4.44,2.64A10.36,10.36,0,0,1,198.59,322.28Zm2.69-42.5,5.64-1.42L217,318.56,211.4,320Z"/><rect class="cls-2" x="775.05" y="420.78" width="111.94" height="111.94" transform="translate(79.68 -117.7) rotate(8.51)"/><rect class="cls-2" x="785.65" y="430.84" width="92" height="92" transform="translate(79.7 -117.79) rotate(8.51)"/><path class="cls-5" d="M807,449.41l5.76.86-6.14,41-5.75-.86Zm-2.43,35.95,23.45,3.51-.82,5.47-23.45-3.51Z"/><path class="cls-5" d="M837.81,466l5.76.86-4.38,29.27-5.75-.86Zm13.36,7.65a7.05,7.05,0,0,0-2.61-.88,5.84,5.84,0,0,0-4.47.87,5.77,5.77,0,0,0-2.13,4l.25-5.72a10.7,10.7,0,0,1,4.11-3.55,8.29,8.29,0,0,1,4.95-.75,11.14,11.14,0,0,1,3.54,1.12,8.21,8.21,0,0,1,2.57,2.13l-4.51,4.52A4.86,4.86,0,0,0,851.17,473.65Z"/><rect class="cls-2" x="705.61" y="277.2" width="111.94" height="111.94" transform="translate(-52.18 163.45) rotate(-11.85)"/><rect class="cls-2" x="716.2" y="287.04" width="92" height="92" transform="translate(-52.14 163.57) rotate(-11.85)"/><path class="cls-5" d="M739.86,312.36l4.85-1,23.47,37.43L762,350.05l-18.11-30.36-4.38,35.08-6.14,1.29ZM737.3,340.3l21.35-4.48,1.13,5.42-21.34,4.47Z"/><path class="cls-5" d="M781.68,346.37l-3.16-.91a10.3,10.3,0,0,1-5.26-3.51,15.5,15.5,0,0,1-3-6.73L769.6,332a17.49,17.49,0,0,1-.1-7.64,10.49,10.49,0,0,1,3.2-5.5,13.09,13.09,0,0,1,6.25-3,10.65,10.65,0,0,1,6.57.51,11.46,11.46,0,0,1,5,4.42,23,23,0,0,1,3.08,8l.4,1.9-19.53,4.09-1-4.57,14.12-3a10,10,0,0,0-3-5.13A5.24,5.24,0,0,0,780,321a6.31,6.31,0,0,0-4.57,3.17,9.35,9.35,0,0,0-.51,6.37l.77,3.68a7.69,7.69,0,0,0,3.06,5.13,7.36,7.36,0,0,0,5.79.79,9.2,9.2,0,0,0,3.28-1.41,10.28,10.28,0,0,0,2.63-2.59l4.52,2.95a16,16,0,0,1-4.15,4.21,14.1,14.1,0,0,1-5.15,2.26Z"/><path class="cls-2" d="M388.57,200.62l.39-.27,4.83,6.91c-3.32,3.22-4.11,8.14-1.62,11.7l6.52,9.35c2.8,4,8.65,4.74,13.07,1.65s5.75-8.84,2.95-12.84l-6.52-9.34c-2.37-3.39-6.92-4.41-10.95-2.77l-4.9-7A19.67,19.67,0,0,1,419.61,203l18.75,26.86a19.67,19.67,0,0,1-4.86,27.39l-3.65,2.55a19.67,19.67,0,0,1-27.39-4.87L383.7,228A19.66,19.66,0,0,1,388.57,200.62ZM397.8,210a6,6,0,0,0-1.48,8.32l4.42,6.33a6,6,0,0,0,9.8-6.84l-4.42-6.33A6,6,0,0,0,397.8,210Z"/><path class="cls-2" d="M830.61,679.67l.3.38-6.59,5.25c-3.43-3.11-8.39-3.59-11.79-.89l-8.92,7.1c-3.81,3-4.19,8.92-.83,13.15s9.18,5.18,13,2.14l8.92-7.1c3.23-2.57,4-7.18,2.07-11.1l6.7-5.32a19.67,19.67,0,0,1-3.24,27.52l-25.64,20.4A19.68,19.68,0,0,1,777,728.05l-2.77-3.48a19.67,19.67,0,0,1,3.15-27.64L803,676.53A19.66,19.66,0,0,1,830.61,679.67Zm-8.76,9.81a6,6,0,0,0-8.4-1l-6,4.8a6,6,0,0,0,7.44,9.36l6-4.81A6,6,0,0,0,821.85,689.48Z"/><path class="cls-2" d="M236,754.46l-13.64,9.91,5.21,16a2.13,2.13,0,0,1-.76,2.36,2.11,2.11,0,0,1-1.24.4,2.08,2.08,0,0,1-1.24-.4l-13.64-9.91L197,782.77a2.11,2.11,0,0,1-3.25-2.36l5.21-16-13.64-9.91a2.1,2.1,0,0,1-.77-2.35,2.13,2.13,0,0,1,2-1.46h16.86l5.21-16a2.11,2.11,0,0,1,4,0l5.21,16h16.86a2.1,2.1,0,0,1,1.24,3.81Z"/><path class="cls-2" d="M725.37,165.88l-13.64,9.91,5.21,16a2.13,2.13,0,0,1-.76,2.36,2.18,2.18,0,0,1-1.24.4,2.15,2.15,0,0,1-1.24-.4l-13.64-9.92-13.65,9.91a2.11,2.11,0,0,1-3.24-2.35l5.21-16-13.64-9.91a2.1,2.1,0,0,1,1.24-3.81h16.86l5.21-16a2.11,2.11,0,0,1,4,0l5.21,16h16.86a2.1,2.1,0,0,1,1.24,3.81Z"/><path class="cls-2" d="M394.89,525.14l-13.64,9.92,5.21,16a2.12,2.12,0,0,1-.77,2.36,2.08,2.08,0,0,1-1.24.4,2.05,2.05,0,0,1-1.23-.4l-13.65-9.91-13.64,9.91a2.1,2.1,0,0,1-2.48,0,2.13,2.13,0,0,1-.76-2.36l5.21-16-13.64-9.91a2.1,2.1,0,0,1,1.24-3.81h16.86l5.21-16a2.11,2.11,0,0,1,4,0l5.21,16h16.86a2.13,2.13,0,0,1,2,1.46A2.1,2.1,0,0,1,394.89,525.14Z"/><path class="cls-2" d="M766.13,740.28l-13.64,9.91,5.21,16a2.13,2.13,0,0,1-.76,2.36,2.18,2.18,0,0,1-1.24.4,2.15,2.15,0,0,1-1.24-.4l-13.64-9.91-13.64,9.91a2.11,2.11,0,0,1-3.25-2.36l5.21-16-13.64-9.91a2.1,2.1,0,0,1,1.24-3.81H733.6l5.21-16a2.11,2.11,0,0,1,4,0l5.21,16h16.86a2.1,2.1,0,0,1,1.24,3.81Z"/><polygon class="cls-2" points="727.67 451.11 736.42 459.6 752.17 455.05 731.73 435.23 727.67 451.11"/><path class="cls-2" d="M716.87,450.56l-22.29,23a3.56,3.56,0,0,0,.07,5L710,493.44a3.57,3.57,0,0,0,5-.07l22.29-23a3.56,3.56,0,0,0-.08-5l-2.55-2.47-2.19-2.13-5.84-5.66L724.46,453l-2.56-2.48A3.55,3.55,0,0,0,716.87,450.56Z"/></g></g></svg>