<svg xmlns="http://www.w3.org/2000/svg" viewBox="0 0 1098.85 983.36"><defs><style>.cls-1{fill:#42a2db;}.cls-2{fill:#fff;stroke:#000;stroke-miterlimit:10;stroke-width:3px;}</style></defs><title>smm1</title><g id="Layer_2" data-name="Layer 2"><g id="Layer_2-2" data-name="Layer 2"><circle class="cls-1" cx="358.74" cy="663.16" r="320.2"/><circle class="cls-1" cx="807.09" cy="705.22" r="240.23"/><circle class="cls-1" cx="546.54" cy="484.49" r="240.23"/><circle class="cls-1" cx="649.74" cy="194.84" r="169.56"/><circle class="cls-1" cx="784.15" cy="425.16" r="169.56"/><circle class="cls-1" cx="448.6" cy="78.55" r="78.55"/><circle class="cls-1" cx="895.89" cy="202.41" r="62.28"/><circle class="cls-1" cx="62.28" cy="365.9" r="62.28"/><circle class="cls-1" cx="998.13" cy="793.95" r="100.72"/><circle class="cls-1" cx="320.03" cy="267.82" r="169.56"/><path class="cls-2" d="M822.85,382.18l-13.63,55.55,4.3,8.45,27.7-5.71s4.3-49.41,14.52-58.29Z"/><path class="cls-2" d="M809.22,437.73c7.61,4.86,20.15,3.36,32,2.74-28.57,73.39-57.19,147-75.85,176.22-22.88,5.34-56.2-21.06-91.85-54.51l11.85-141.45h14.81l37.93,111c7.45-2.63,8.6.83,5.93,8,3.11-2.86,5-2.44,5.33,2.37l4.74-10.34Z"/><path class="cls-2" d="M404.18,776.4c50.23-16.82,98.34-40.52,144.89-69.34L607.51,716c32.49,21,75.08,33.34,121.12,42.67V904.4L383.74,908C376.93,870.91,384.23,826.82,404.18,776.4Z"/><polygon class="cls-2" points="661.07 848.4 607.51 826.17 559.74 875.06 580.07 907.95 650.42 905.2 661.07 848.4"/><polygon class="cls-2" points="710.79 732.47 888.63 739.95 825.52 907.95 630.84 905.97 710.79 732.47"/><polygon class="cls-2" points="585.52 886.62 639.76 886.62 630.84 905.97 580.07 907.95 585.52 886.62"/><polygon class="cls-2" points="911.74 903.51 120.63 911.51 120.63 930.17 911.74 916.84 911.74 903.51"/><path class="cls-2" d="M294.26,373.14c1.34,30.08,7.46,57.22,17.78,81.78l14.22-8.3L336.92,465c6.17-8.59,12.23-15.64,17.78-16,3.58,9.25.22,19.18-8.29,29.63l13,16.59,24.89-27.85q18.33,4.56,22.52,33.48c31.27.15,48.55-19.43,59.26-48.29a171.12,171.12,0,0,1-40.89-72.89l-3.55-55.11S297.22,294.32,294.26,373.14Z"/><path class="cls-2" d="M352.92,287.81c-76.36.54-107.28,62.57-80,85.92,4.53,15.58,9.67,21.89,15.41,15.41,5.77,6.53,11.73,8.09,17.78,7.11,4.85-4.12,6.35-10.08,6.81-16.59,13.08,5.72,25.69,12.9,44.15,1.77,11.4,3.64,21.41,3,29.63-3l5.93,10.67c.76-12.32,3.64-21.88,10.66-26.08l12.45,5.34c-1.8,8-3.58,15.93-5.33,23.7,2.63,4.73,7.1,5.87,13,4.15,4.3-5.38,3.52-13,1.48-21.2l8.6,5.2c3.86-1.3,5.21-7.18,5.92-14.22l4.15,8.29c4.16-4.14,4.6-11.65,0-23.7,6.17-9.78,4.5-21.73-12.44-37.93-2.67-12.19-8.33-23.33-32.6-27.85-11.79-4.77-23-5.5-33.18,0,3.19-12.61,11.52-14.65,21.33-13.63C374.88,266.78,363.06,262.42,352.92,287.81Z"/><path class="cls-2" d="M320.38,609.42l-18.85,27.8c.19-8.67-23.26-13.38-47-19.93-2.87-12.9-7-24.35-13-33.78-10.29-20.8-5.17-23.68-3.56-29.63l41.22,45.45a2.62,2.62,0,0,0,4.56-1.92l-2.82-47.09c0-5.48,5.32-5.21,8,3.56C295.29,586.54,319.74,599.06,320.38,609.42Z"/><path class="cls-2" d="M222.36,536.63l9.6-7.34,51.15,57.55.74,12.5a1.93,1.93,0,0,1-3.37,1.41Z"/><path class="cls-2" d="M387.32,708.14,401,568c13.35-30.31,11.45-53,3.31-72.7,29.21,1,49.08-14.25,58.51-47.78,65.49,54.29,80.68,162,101.14,264.18L403,799.4Z"/><path class="cls-2" d="M656.92,223.81c64.73-27.9,97.78,1.18,108.45,31.4L638,353c-11.42-10.34-22-20.95-24.89-34.14-3.08-27.9,13.22-57,30.22-86.16-17.2-4.05-30.22-26.36-43.25,121.49l-47.41,66.55,27.44-183.3c16.65-44,41.69-30.24,65.6-24.29Z"/><path class="cls-2" d="M542.55,409.85l70.52-16,58.67,16,28.44,10.88c-7.66,4.31-12.26,12.06-9.29,28.26,13.46,31.35,22.34,60.48,17,82.7l-29,45.89c-42.46-12.07-93.15-19.36-106.67-48.29l-5.92-28.45C566,490.83,600.55,448.74,542.55,409.85Z"/><path class="cls-2" d="M819.29,420.73c2.33-13.17,12.07-20.82,24-26.85C859,401.56,862.93,415.1,854,435.06,837.53,448.06,827.45,437.89,819.29,420.73Z"/><path class="cls-2" d="M813.52,411.51c17.33,0,16.59-17.78,3.11-13.33C805.39,396.81,803.74,414.62,813.52,411.51Z"/><rect class="cls-2" x="788.63" y="362.62" width="13.78" height="15.56"/><path class="cls-2" d="M802.41,354.18v32.88h50.66c7.41-12.46,7.55-23.45,0-32.88Z"/><path class="cls-2" d="M915.74,322.62l-62.67,31.56c7.56,9.56,7.42,20.55,0,32.88l62.67,20C949.07,390.62,942.85,338.62,915.74,322.62Z"/><path class="cls-2" d="M813.07,354.18q12.45,16.44,0,32.88h6.22q14.72-16.44,0-32.88Z"/><path class="cls-2" d="M841.22,354.18c6.38,10.86,6.26,21.82,0,32.88h11.85c8-12.66,6.95-23.39,0-32.88Z"/><path class="cls-2" d="M911.66,324.68c21.69,12.46,32.08,57.5,0,81.08l4.08,1.3c33.78-20,27.53-63.67,0-84.44Z"/><path class="cls-2" d="M817,242.69l66.54-66.32A6.92,6.92,0,0,1,895.34,182L888.11,247a6.91,6.91,0,0,1-6.71,6.15l-59.31,1.41A6.92,6.92,0,0,1,817,242.69Z"/><rect class="cls-2" x="309.07" y="93.43" width="373.33" height="98.37" rx="43.56"/><path class="cls-2" d="M364.18,145c-9.66-39.7,44.45-27.85,25.49,0,9.66,2.22,12.12,12.32,11.25,26.07H355C352,160.57,354.13,151.61,364.18,145Z"/><polygon class="cls-2" points="423.44 121.88 423.44 148.55 453.07 148.55 462.55 161.58 466.11 147.95 505.81 147.95 505.81 121.88 423.44 121.88"/><path class="cls-2" d="M539.59,161.58c.56-15.82,7.55-26.87,20.15-33.77V108.25h9.48V129c11.91,2,16.65,16.25,20.15,32.59H569.81L568,166a7.38,7.38,0,0,1-2.13,2.87c-3.32,2.73-4.49,2.62-7.77-1.58L555,161.58Z"/><polygon class="cls-2" points="164.3 382.6 164.3 426.47 222.36 426.47 230.26 435.06 230.26 382.6 164.3 382.6"/><polygon class="cls-2" points="114.11 457.88 197.28 457.88 197.28 493.44 197.28 513.58 185.92 502.22 114.11 502.22 114.11 457.88"/><polygon class="cls-2" points="144.33 541.43 197.28 541.43 197.28 557.29 214.26 557.29 197.28 591.94 144.33 591.94 144.33 541.43"/><polygon class="cls-2" points="852.78 642.77 852.78 700.84 928.92 700.84 928.92 680.4 947.89 699.36 947.89 653.14 930.11 670.92 930.11 642.77 852.78 642.77"/><polygon class="cls-2" points="881.37 656.55 881.37 687.06 895.89 672.55 881.37 656.55"/><rect class="cls-2" x="910.55" y="760.99" width="74.96" height="65.78"/><circle class="cls-2" cx="929.81" cy="778.77" r="9.48"/><polygon class="cls-2" points="917.07 821.67 980.48 820.21 980.48 791.51 970.55 801.43 952.92 783.8 932.48 804.25 925.52 797.29 917.81 804.99 917.07 821.67"/><ellipse class="cls-2" cx="880.63" cy="875.95" rx="26.67" ry="27.56"/><path class="cls-2" d="M881,869.39c7.46-14.56,26.32-2.66-.35,19.9C857.86,866.27,867.17,854.83,881,869.39Z"/><path class="cls-2" d="M171,560.43c7.46-14.56,26.32-2.66-.36,19.89C147.94,557.31,157.24,545.87,171,560.43Z"/><path class="cls-2" d="M855.19,229c-27.47-8.61-20.6,24.6,0,15.26,6.69-13.21,14-29.16,17.73-29.83l6.82,7.9-4.15-26.07L858,229.88Z"/><path class="cls-2" d="M740.63,350.18l-25.48-9.12,12.74-12.59Q745.52,328.88,740.63,350.18Z"/><path class="cls-2" d="M542.55,409.85l-43.26,96.87,21.63,56.34L588.18,468S590.26,401.52,542.55,409.85Z"/><path class="cls-2" d="M404.18,776.4Q474.56,764.55,470.85,908H383.74S368.33,857.29,404.18,776.4Z"/><path class="cls-2" d="M681.52,564.84c-11.61,55-25.89,106.77-48,149.34h-16l-6.23,23.11c-18.66,24-61.33,21.34-74.66-7.11l8.89-73.78c-13.34,2.66-17.78-48-1.78-48l18.67,5.33,4.44-66.67S654,502.62,681.52,564.84Z"/><path class="cls-2" d="M630.84,563.06a23.05,23.05,0,0,1,17.79-12.44v12.44c6.28-6.39,13.19-7.72,20.44-6.22l-8,13.34c7-2.09,11.47-1.87,14.22,0v22.56c6.67-18.84,8.29-34.36,6.23-47.45-3-3.69-2.53-8.36,0-13.6h-9.78l-3.56-19.29c-3.38,4.71-12.35,6.39-23.11,7.11a87.64,87.64,0,0,0-30.22-18.67V512.4l-34.78-11.56,5.45,12.45-42.67,13.33c8.85,5,12.7,11.74,12.09,20.17L533.51,556c7.7,4.34,12.2,9.54,12,16l-12,8c7,7.13,10.73,16.38,10.23,28.45l18.67,5.33,7.11-47.11c3.61-3.78,7.15-5.59,10.55-3.56l-4.33-10.66c10.14-.89,18.47-.11,22.22,4.89l3.56-12.89C614.78,548.52,626.23,553.73,630.84,563.06Z"/><path class="cls-2" d="M407.29,786.18c-26.55-20.23-68-85-108-145.34l25.34-36,69.78,90.67c.37-9,5.06-16.72,7.55-8.89,2.46-8.38,7.08-11.39,9.78-4.44,10-76.94,20.07-154,41.78-168.45,32.84-20.88,49,6.94,57.77,56.45v28C475.65,687.54,439.7,785.21,407.29,786.18Z"/><path class="cls-2" d="M765.37,255.21c6.85,27.87,2.64,56-7.7,84.15L743.44,337l-3,11.26c-14.72-23.73-41.48-7.11-15.41,22.52l-13,19-19.56-16.59-20.74,36.71c6.76,46.12-13.39,39.63-58.67-16,11.79-10.09,22.81-21,24.89-40.89l23.71-31.41-10.08-8.89L655.74,286l17.78,4.15,8,20.14,7.7-27.26C711.81,252.44,738.05,249.76,765.37,255.21Z"/><path class="cls-2" d="M603.62,828.5,470.85,908l115.57-2.09c-15.54-17.75-6.16-44.27,18.3-76.11A.85.85,0,0,0,603.62,828.5Z"/><polyline class="cls-2" points="751.47 286.4 744.54 303.51 743.09 302.03 747.86 287.87"/><line class="cls-2" x1="667.29" y1="296.84" x2="671.74" y2="313.52"/><path class="cls-2" d="M313.39,405.33s13.18-4.89,27.55-4"/><polyline class="cls-2" points="317.7 403.27 318.13 403.5 319.81 404.4 332.63 411.21 334.52 409.06 323.52 403.27 321.52 404.4"/><line class="cls-2" x1="402.85" y1="372.18" x2="401.74" y2="391.29"/><polyline class="cls-2" points="407.52 398.84 413.74 412.84 402.85 437.95"/><polyline class="cls-2" points="664.07 324.44 662.74 338.66 680.74 354.21"/><path class="cls-2" d="M727.29,290.51l6.49,4.12s17.58-11,25.11-7.55"/><polyline class="cls-2" points="630.84 604.4 630.84 654.44 611.96 658.62"/><path class="cls-2" d="M642.24,609.36s18.5-3.81,26.61-2.05"/><path class="cls-2" d="M585.23,605.25s19.53-7.35,29.44-5.88"/><path class="cls-2" d="M601.72,675.29s19.56,4.89,29.12.89"/><polyline class="cls-2" points="554.94 656.4 557.25 677.75 601.72 709.73"/><polygon class="cls-2" points="658.37 607.06 655.55 615.95 656.96 615.95 661.29 606.84 658.37 607.06"/><polygon class="cls-2" points="604.55 600.91 601.72 609.81 603.14 609.81 607.47 600.7 604.55 600.91"/><rect class="cls-2" x="176.41" y="392.62" width="42.89" height="24.89"/><path class="cls-2" d="M199.74,403.27l17.86-9.72a.5.5,0,0,0-.24-.93H178.8a.52.52,0,0,0-.21,1Z"/><line class="cls-2" x1="122.41" y1="466.18" x2="161.52" y2="466.18"/><line class="cls-2" x1="167.44" y1="466.18" x2="185.81" y2="466.18"/><line class="cls-2" x1="122.41" y1="475.36" x2="134.85" y2="475.36"/><line class="cls-2" x1="144.33" y1="475.36" x2="183.44" y2="475.36"/><line class="cls-2" x1="122.41" y1="487.21" x2="147.29" y2="487.21"/><line class="cls-2" x1="157.96" y1="487.21" x2="183.44" y2="487.21"/><line class="cls-2" x1="432.33" y1="128.4" x2="475.59" y2="128.4"/><line class="cls-2" x1="481.81" y1="128.4" x2="494.55" y2="128.4"/><line class="cls-2" x1="432.33" y1="136.4" x2="455.74" y2="136.4"/><line class="cls-2" x1="464.63" y1="136.4" x2="495.74" y2="136.4"/><path class="cls-2" d="M729.77,705.65l18.63-17.4a34.67,34.67,0,0,1-10-10.76l-18.63,17.39a7.37,7.37,0,0,0,10,10.77Z"/><path class="cls-2" d="M766.88,689.43A29.46,29.46,0,1,0,738.45,659,29.47,29.47,0,0,0,766.88,689.43Zm-21.07-30.2a22.1,22.1,0,1,1,21.32,22.84A22.13,22.13,0,0,1,745.81,659.23Z"/><path class="cls-2" d="M272.74,227.65l-35,10.71c-4.24,1.22-7.68,5.64-7.68,9.88v36.93s-2.54-1.71-8.19-.91c-8.3,1.18-15,7.55-15,14.23s6.73,10.77,15,9.6,14.39-7.35,14.39-14V262.52c0-3,3.56-4.23,3.56-4.23l31-9.7s3.42-1.15,3.42,2v25.33s-3.15-1.82-8.8-1.13c-8.3,1-15,7.24-15,13.92s6.73,10.91,15,9.91,15-7.24,15-13.93V233.15C280.42,228.9,277,226.45,272.74,227.65Z"/><path class="cls-2" d="M954.75,492.15l.29-.33a17.6,17.6,0,0,0,21.73-21.56l-10,10L957,477.61l-2.62-9.76,10-10a17.62,17.62,0,0,0-21.34,22.48l0,0-41,41a8.31,8.31,0,0,0,11.75,11.75ZM903.38,528a3.18,3.18,0,1,1,3.17,3.17A3.17,3.17,0,0,1,903.38,528Z"/><path class="cls-2" d="M193.43,705.62l-.29.33A17.19,17.19,0,0,0,171.91,727l9.75-9.74,9.54,2.56,2.55,9.54L184,739.11a17.21,17.21,0,0,0,20.84-22l0,0L245,677a8.12,8.12,0,0,0-11.48-11.48Zm50.2-35a3.11,3.11,0,1,1-3.11-3.11A3.1,3.1,0,0,1,243.63,670.59Z"/></g></g></svg>