<svg xmlns="http://www.w3.org/2000/svg" viewBox="0 0 781.77 562.92"><defs><style>.cls-1{fill:#ffc713;}.cls-2{font-size:13.31px;fill:#f2f2f2;font-family:Montserrat-SemiBold, Montserrat;font-weight:600;}.cls-3{letter-spacing:0em;}.cls-4{letter-spacing:-0.01em;}.cls-5{fill:#7154a2;}.cls-6{fill:#403e56;}.cls-7{fill:none;stroke:#403e56;stroke-miterlimit:10;}.cls-8{fill:#302e41;}.cls-9{fill:#010101;opacity:0.1;isolation:isolate;}.cls-10{fill:#f9b7b9;}</style></defs><title>smm</title><g id="Layer_2" data-name="Layer 2"><g id="Layer_2-2" data-name="Layer 2"><ellipse class="cls-1" cx="476.02" cy="553.17" rx="186.58" ry="9.75"/><text class="cls-2" transform="translate(192.28 365.84)"><tspan class="cls-3">Ə</tspan><tspan x="10.94" y="0">t</tspan><tspan class="cls-4" x="16.58" y="0">r</tspan><tspan x="22.06" y="0">aflı...</tspan></text><path class="cls-5" d="M64.25,236.54c0,11-6.09,19.21-15,19.21-3,0-5.85-1.64-6.82-3.49,0,0-1.62,6.45-2,7.71a23.09,23.09,0,0,1-2.76,5.91c-.53-.27-1.95-.86-3.32-1.43a24.3,24.3,0,0,1,.49-6.13L38.41,243a10.65,10.65,0,0,1-.89-4.42c0-4.15,2.39-7.26,5.37-7.26,2.54,0,3.76,1.91,3.76,4.2,0,2.57-1.63,6.4-2.46,9.95a4.32,4.32,0,0,0,3.13,5.26,4.26,4.26,0,0,0,1.28.13c5.27,0,8.83-6.81,8.83-14.89,0-6.15-4.11-10.74-11.6-10.74A13.24,13.24,0,0,0,32.1,238.69a8.1,8.1,0,0,0,1.84,5.49,1.38,1.38,0,0,1,.4,1.57c-.13.51-.43,1.75-.57,2.25a1,1,0,0,1-1.1.8.77.77,0,0,1-.29-.1c-3.9-1.6-5.72-5.88-5.72-10.71,0-8,6.69-17.5,19.93-17.5C57.24,220.49,64.25,228.23,64.25,236.54Z"/><path class="cls-5" d="M759.16,76.38H740.8A12.77,12.77,0,0,0,728,89v18a12.77,12.77,0,0,0,12.84,12.62h18.36A12.77,12.77,0,0,0,772,107.05V89A12.77,12.77,0,0,0,759.16,76.38ZM750,105.25A7.22,7.22,0,1,1,757.33,98a7.31,7.31,0,0,1-7.35,7.23ZM761.92,89a2.71,2.71,0,1,1,2.75-2.71A2.7,2.7,0,0,1,761.92,89Z"/><path class="cls-6" d="M413.5,526.11H207a24.35,24.35,0,0,1-13.14-3.78,22,22,0,0,1-10.4-18.52V22.32C183.47,10,194,0,207,0h48.53V4.43c0,9.45,8.13,17.14,18.14,17.14h68.41a18.68,18.68,0,0,0,10.77-3.35,17.09,17.09,0,0,0,7.37-13.79V0H413.5C426.48,0,437,10,437,22.32V503.81a21.79,21.79,0,0,1-8.29,17A24.23,24.23,0,0,1,413.5,526.11ZM207,1.36c-12.23,0-22.18,9.4-22.18,21V503.81a20.72,20.72,0,0,0,9.77,17.38A23.18,23.18,0,0,0,207,524.76H413.5a22.92,22.92,0,0,0,14.4-5,20.45,20.45,0,0,0,7.78-15.93V22.32c0-11.56-9.95-21-22.18-21H361.58V4.43a18.4,18.4,0,0,1-7.95,14.9,20,20,0,0,1-11.54,3.6H273.68c-10.75,0-19.5-8.3-19.5-18.5V1.36Z"/><path class="cls-7" d="M420.28,40.93V480.4a19.75,19.75,0,0,1-19.75,19.73H222.12a19.71,19.71,0,0,1-19.75-19.68V40.93a19.74,19.74,0,0,1,19.74-19.75h26.71V24.6a16.26,16.26,0,0,0,16.26,16.27h90.74a16.16,16.16,0,0,0,9.64-3.17,14.65,14.65,0,0,0,1.6-1.35,16.18,16.18,0,0,0,5-11.75V21.18h28.46a19.74,19.74,0,0,1,19.75,19.74Z"/><path class="cls-6" d="M371.25,374.1H252V245.72H371.25Zm-117.71-1.53H369.72V247.25H253.54Z"/><rect class="cls-6" x="267.65" y="114.17" width="78.28" height="1.53"/><rect class="cls-6" x="267.65" y="134.98" width="78.28" height="1.53"/><rect class="cls-6" x="267.65" y="155.79" width="78.28" height="1.53"/><path class="cls-1" d="M195.48,526.29l-.73-.27c-.16-.06-16.08-6.16-23.53-20s-3.81-30.47-3.77-30.64l.17-.76.73.28c.16.06,16.08,6.15,23.53,20s3.81,30.47,3.77,30.64Z"/><path class="cls-1" d="M195,526.29l-.32-.7c-.07-.16-7-15.72-2.5-30.77s18.85-24.24,19-24.33l.65-.41.33.7c.07.16,7,15.72,2.5,30.77s-18.85,24.24-19,24.33Z"/><path class="cls-1" d="M193.51,525.2l.28-.73c.06-.16,6.15-16.08,20-23.53s30.47-3.8,30.64-3.77l.76.17-.28.73c-.06.16-6.15,16.08-20,23.53s-30.47,3.81-30.64,3.77Z"/><polygon class="cls-8" points="562.12 457.3 514.66 411.2 487.55 432.21 433.99 496.62 440.09 506.11 505.17 462.04 549.24 519.67 591.28 498.65 562.12 457.3"/><polygon class="cls-9" points="562.12 457.3 514.66 411.2 487.55 432.21 433.99 496.62 440.09 506.11 505.17 462.04 549.24 519.67 591.28 498.65 562.12 457.3"/><path class="cls-10" d="M566.19,487.81l-6.1,4.74L510.6,475.6l-11.53-4.74L476,475.6s0-19,21.7-18.3l22.37,5.42,26.44,2Z"/><polygon class="cls-8" points="610.26 537.98 595.35 547.47 577.72 547.47 495.68 516.96 375.68 538.66 372.29 512.89 482.12 464.76 578.39 496.62 610.26 537.98"/><path class="cls-10" d="M514,417.3l-10.17,2-2.22-2.58a13.7,13.7,0,0,1-1.85-15.05h0l28.47-37.29s8.14-18.3,21-10.84-10.85,19.66-10.85,19.66L524.16,395.6l1.35,11.53Z"/><circle class="cls-10" cx="578.4" cy="346.79" r="26.44"/><path class="cls-10" d="M566.53,366.11l12.2,29.15,29.16-12.2S598.4,360,598.4,359.33,566.53,366.11,566.53,366.11Z"/><path class="cls-5" d="M646.81,452.36a151.85,151.85,0,0,1-7.45,47l-2,6.09-9.49,43.39-10.17,2.71-7.46-9.49L595.34,531.2,584.5,513.57l-9.3-15.5-2.91-4.84-10.17-50.85-38.64-21.69-12.88-2,2.71-7.45,11.52-15.6,11.53-1.35,3.39-2.72,2.71,1.36,10.85-6.1,3.39,1.35L576.52,390l12-2.52,17.32-9.3,7.09,1.16,24.41,20.34A151.79,151.79,0,0,1,646.81,452.36Z"/><polygon class="cls-9" points="639.41 446.45 613.65 463.4 575.2 498.07 572.29 493.23 564.16 452.55 566.19 452.55 587.21 413.91 639.41 446.45"/><polygon class="cls-5" points="587.21 409.84 566.19 448.49 558.73 448.49 553.99 462.04 543.14 464.76 572.29 496.62 613.65 459.33 639.41 442.38 587.21 409.84"/><path class="cls-8" d="M557.83,327.13l-2.87,1.1a4,4,0,0,1-1.07-5.55l.05-.07-5.29-.25a40,40,0,0,1,59.68-4.81c.24-.83,2.87.78,3.94,2.42.36-1.35,2.82,5.18,3.7,9.8.4-1.54,1.95.94.59,3.32.86-.12,1.25,2.08.58,3.31,1-.45.79,2.18-.23,3.94,1.34-.12-10.6,18.42-15.44,29.25-1.41-6.45-3-13.24-7.51-18a33.46,33.46,0,0,0-2.46-2.3l-4.55-4c-5.29-4.67-10.1-10.44-17.15-12.18-4.85-1.2-7.91-1.47-5.27-6.93-2.39,1-4.62,2.47-7,3.4C557.54,328.74,557.88,327.89,557.83,327.13Z"/><circle class="cls-10" cx="591.62" cy="349.84" r="4.75"/><path class="cls-5" d="M330.48,296c0,.53,0,1.06,0,1.59,0,16.27-12.39,35-35,35A34.35,34.35,0,0,1,276.67,327a23.88,23.88,0,0,0,2.93.18A24.69,24.69,0,0,0,294.88,322a12.33,12.33,0,0,1-11.5-8.55,12.34,12.34,0,0,0,5.55-.21,12.3,12.3,0,0,1-9.86-12.07V301a12.17,12.17,0,0,0,5.59,1.54,12.34,12.34,0,0,1-3.83-16.44,34.88,34.88,0,0,0,25.35,12.86,12.6,12.6,0,0,1-.31-2.81,12.29,12.29,0,0,1,21.27-8.41,24.38,24.38,0,0,0,7.82-3,12.38,12.38,0,0,1-5.41,6.82,25.1,25.1,0,0,0,7.06-1.94A25.09,25.09,0,0,1,330.48,296Z"/><path class="cls-6" d="M311.71,361.56a48.92,48.92,0,1,1,48.91-48.91h0A49,49,0,0,1,311.71,361.56Zm0-96.47a47.56,47.56,0,1,0,47.56,47.56h0A47.61,47.61,0,0,0,311.71,265.09Zm-11.15,72.62A35.05,35.05,0,0,1,281.37,332l-2.43-1.58,2.88.34a24.77,24.77,0,0,0,2.85.17,23.78,23.78,0,0,0,13.43-4.08A13,13,0,0,1,287.81,318l-.35-1.1,1.13.23a10.77,10.77,0,0,0,2.47.22,13.05,13.05,0,0,1-7.6-11.82v-1.31l1,.56a11.18,11.18,0,0,0,3,1.16,13,13,0,0,1-2.15-15.81l.49-.85.62.77a34.31,34.31,0,0,0,24,12.56,12.07,12.07,0,0,1-.16-2.08,13,13,0,0,1,22.18-9.14,23.89,23.89,0,0,0,7.24-2.83l1.53-.91-.54,1.7a12.9,12.9,0,0,1-3.41,5.43,24.27,24.27,0,0,0,4.14-1.39l2.13-.95-1.29,1.94a25.65,25.65,0,0,1-6,6.33c0,.42,0,.84,0,1.26C336.26,319.55,322.91,337.71,300.56,337.71Zm-16.05-5.38a33.79,33.79,0,0,0,16.05,4c21.5,0,34.35-17.47,34.35-34.36,0-.52,0-1,0-1.55l0-.37.3-.22a24.06,24.06,0,0,0,4.61-4.35,25.74,25.74,0,0,1-5.06,1.14l-3.16.39,2.73-1.64a11.71,11.71,0,0,0,4.42-4.73,25,25,0,0,1-6.34,2.15l-.37.07-.25-.27a11.63,11.63,0,0,0-19.81,10.59l.21.88-.9,0A35.61,35.61,0,0,1,286,291.71a11.64,11.64,0,0,0,4.07,14.67l1.94,1.3-2.34-.06a12.71,12.71,0,0,1-4.85-1.1A11.66,11.66,0,0,0,294.14,317l2.82.57-2.77.75a13,13,0,0,1-4.69.39,11.61,11.61,0,0,0,10.47,7l1.9,0-1.5,1.17a25.18,25.18,0,0,1-15.7,5.42Z"/><path class="cls-6" d="M738,105.24a7.9,7.9,0,1,1,8-7.89A7.89,7.89,0,0,1,738,105.24Zm0-14.43a6.54,6.54,0,1,0,6.67,6.54A6.61,6.61,0,0,0,738,90.81Z"/><path class="cls-6" d="M747.18,116.06H728.83a9.91,9.91,0,0,1-7-2.84,9.52,9.52,0,0,1-2.9-6.85v-18a9.64,9.64,0,0,1,2.9-6.86,9.83,9.83,0,0,1,7-2.84h18.35a10,10,0,0,1,7,2.84,9.53,9.53,0,0,1,2.9,6.86v18a9.6,9.6,0,0,1-2.9,6.85A9.83,9.83,0,0,1,747.18,116.06ZM728.83,80a8.51,8.51,0,0,0-6,2.46,8.22,8.22,0,0,0-2.49,5.89v18a8.12,8.12,0,0,0,2.49,5.88,8.55,8.55,0,0,0,6,2.46h18.35a8.46,8.46,0,0,0,6-2.46,8.2,8.2,0,0,0,2.49-5.88v-18a8.13,8.13,0,0,0-2.49-5.89,8.59,8.59,0,0,0-6-2.46ZM738,108.85a11.51,11.51,0,1,1,11.7-11.5A11.51,11.51,0,0,1,738,108.85Zm0-21.65a10.15,10.15,0,1,0,10.34,10.15A10.26,10.26,0,0,0,738,87.2ZM749.94,89a3.38,3.38,0,1,1,3.43-3.38A3.38,3.38,0,0,1,749.94,89Zm0-5.41a2,2,0,1,0,2.07,2A2.05,2.05,0,0,0,749.94,83.59Z"/><path class="cls-6" d="M737.53,141.21c-24.39,0-44.23-19.51-44.23-43.48s19.84-43.49,44.23-43.49,44.24,19.51,44.24,43.49S761.93,141.21,737.53,141.21Zm0-85.62c-23.64,0-42.88,18.9-42.88,42.14s19.24,42.13,42.88,42.13,42.89-18.9,42.89-42.13S761.18,55.59,737.53,55.59Zm9.65,64.08H728.83a13.43,13.43,0,0,1-13.53-13.3v-18A13.44,13.44,0,0,1,728.83,75h18.35a13.44,13.44,0,0,1,13.53,13.31v18a13.43,13.43,0,0,1-13.53,13.3ZM728.83,76.38a12.07,12.07,0,0,0-12.17,12v18a12.08,12.08,0,0,0,12.17,11.95h18.35a12.08,12.08,0,0,0,12.17-11.95v-18a12.07,12.07,0,0,0-12.17-12Z"/><path class="cls-6" d="M48,289.59a48.19,48.19,0,1,1,48-48.18A48.12,48.12,0,0,1,48,289.59Zm0-95a46.83,46.83,0,1,0,46.6,46.83A46.76,46.76,0,0,0,48,194.58Zm.28,75.25a28.38,28.38,0,0,1-8.09-1.18l-.86-.25.47-.76a22.08,22.08,0,0,0,2.72-5.82c.35-1.23,2-7.63,2-7.7l.43-1.72L45.7,254c.8,1.54,3.35,3.13,6.21,3.13,8.46,0,14.37-7.62,14.37-18.53,0-7.55-6.35-15.37-17-15.37C36,223.2,30.05,233,30.05,240c0,5,1.93,8.7,5.29,10.08a.44.44,0,0,0,.32,0,.46.46,0,0,0,.17-.28c.07-.27.19-.74.3-1.21s.2-.8.27-1c.12-.46.13-.49-.27-1a8.79,8.79,0,0,1-2-5.92,14,14,0,0,1,14.41-14.11c7.47,0,12.29,4.48,12.29,11.42,0,8.88-4.1,15.58-9.52,15.58a5.25,5.25,0,0,1-4.17-1.94,5,5,0,0,1-.9-4.29c.31-1.32.73-2.66,1.13-4a23.16,23.16,0,0,0,1.32-5.83c0-.83-.22-3.53-3.08-3.53-2.64,0-4.7,2.89-4.7,6.58a10.12,10.12,0,0,0,.82,4.13l.11.22-.06.23L38.2,260.51a23.88,23.88,0,0,0-.47,6.25l0,1.09-1-.44a28.67,28.67,0,1,1,40-26.31v0A28.67,28.67,0,0,1,48.23,269.83Zm-6.86-2.24a27.37,27.37,0,1,0-5-1.88,23.73,23.73,0,0,1,.53-5.51c.49-2.1,3.13-13.32,3.53-15a11.77,11.77,0,0,1-.86-4.5c0-4.45,2.66-7.93,6.06-7.93,2.69,0,4.43,1.91,4.43,4.88a23.78,23.78,0,0,1-1.38,6.22c-.39,1.28-.8,2.61-1.1,3.88a3.61,3.61,0,0,0,.64,3.14,3.92,3.92,0,0,0,3.11,1.42c4.65,0,8.16-6.12,8.16-14.22,0-6.21-4.19-10.06-10.93-10.06a12.63,12.63,0,0,0-13,12.75,7.47,7.47,0,0,0,1.68,5.05,2,2,0,0,1,.54,2.18l-.26,1c-.12.48-.24,1-.32,1.23a1.61,1.61,0,0,1-1.91,1.28,1.28,1.28,0,0,1-.39-.13c-3.84-1.58-6.14-5.81-6.14-11.33,0-8.94,7.71-18.19,20.61-18.19,11.48,0,18.34,8.51,18.34,16.73,0,11.53-6.62,19.89-15.73,19.89a9.42,9.42,0,0,1-6.5-2.62c-.5,2-1.38,5.44-1.63,6.34A22.41,22.41,0,0,1,41.37,267.59Z"/><path class="cls-6" d="M679.21,239.85a62.43,62.43,0,0,1-24-4.7c-21.26-8.86-35.34-27.94-49-46.4-7.35-10-15-20.26-23.63-28.93-13.91-13.9-30.05-22.88-46.67-26-18.68-3.47-37.72,1-50.92,12a47.64,47.64,0,0,0-4.71,4.5q2.9.34,5.77.75c20.15,2.79,45.44,10.54,51.4,31.59,2.29,8.08.66,17.23-4.47,25.09-5.5,8.43-14.25,14.23-23.4,15.51a32.45,32.45,0,0,1-4.51.31c-16.49,0-32.74-12.26-37.55-29.11-4.07-14.27,0-30.9,10.06-43.09a356.15,356.15,0,0,0-36.5-2.27v-1.36a359.8,359.8,0,0,1,37.55,2.38,48.49,48.49,0,0,1,5.48-5.34c13.51-11.25,33-15.85,52-12.3,16.9,3.14,33.28,12.24,47.39,26.34C592.32,167.6,600,178,607.33,188c14.12,19.15,27.47,37.23,48.38,46s46.82,4.77,64.22-9.92,25.64-39.47,20.52-61.66l1.32-.3c5.23,22.67-3.19,48-21,63A64.86,64.86,0,0,1,679.21,239.85Zm-200-88.25c-10.16,11.9-14.4,28.41-10.37,42.53,5.07,17.76,23.27,30.24,40.57,27.83,8.77-1.23,17.17-6.8,22.46-14.91,4.91-7.54,6.48-16.28,4.3-24-5.77-20.34-30.53-27.88-50.29-30.62C483.67,152.15,481.45,151.86,479.22,151.6Z"/><path class="cls-6" d="M153.74,231.19a82.16,82.16,0,0,1-18.09-1.95A67.32,67.32,0,0,1,98,206.36c-3.18-3.81-6.07-8.08-8.88-12.22-4.25-6.27-8.65-12.77-14-17.6s-12.45-7.33-18.46-6.6a15.06,15.06,0,0,0-10.85,6.67l-1.12-.76a16.37,16.37,0,0,1,11.81-7.26c6.48-.78,13.78,1.81,19.53,6.94,5.52,4.95,10,11.51,14.27,17.85,2.78,4.11,5.66,8.36,8.79,12.11,18.3,21.91,47.35,29.56,79.72,21l.35,1.31A98.9,98.9,0,0,1,153.74,231.19Z"/><polygon class="cls-10" points="372.29 512.89 364.19 515.06 356.54 527.24 367.31 540.66 370.51 539.09 375.68 538.66 372.29 512.89"/><path class="cls-8" d="M361.58,524.75s6.08-10.29,3.51-11.5-13.46-6-13.46-6l-16-5.29s-23.05-34.26-23.56-4.47,16.79,37,16.79,37,15.42,33.19,24.15,27.89,17.47-23.25,17.47-23.25S354.76,530.62,361.58,524.75Z"/></g></g></svg>