<svg xmlns="http://www.w3.org/2000/svg" viewBox="0 0 406.71 306.2"><defs><style>.cls-1{fill:#302e41;}.cls-2{fill:#f3f3f3;}.cls-3{fill:#403e56;}.cls-4{fill:#a7a9ac;}.cls-5{fill:#f16584;}.cls-6{fill:#6466af;}.cls-7{fill:#010101;opacity:0.1;isolation:isolate;}.cls-8{fill:#f9bebf;}.cls-9{fill:#f2f2f2;}.cls-10{fill:#506db4;}</style></defs><title>smm_small</title><g id="Layer_2" data-name="Layer 2"><g id="Layer_2-2" data-name="Layer 2"><path class="cls-1" d="M76.84,13.58c9.72-.05,17.89,5.09,17.21,17.21C93.51,40.28,86.34,48,76.84,48S62.68,39.79,59.63,30.79C56,20.11,65.36,13.64,76.84,13.58Z"/><rect class="cls-1" x="60.09" y="29.43" width="33.96" height="43.01"/><polygon class="cls-2" points="119.06 306.01 301.35 306.01 270.49 160.76 149.92 160.76 119.06 306.01"/><path class="cls-3" d="M186,138.56c36.95,0,66.91,2.83,66.91,6.32s-30,6.32-66.91,6.32l-4.38,0c-7.57,0-14.8-.21-21.48-.47-24.11-1-41.05-3.21-41.05-5.83C119.06,141.38,149,138.56,186,138.56Z"/><rect class="cls-4" x="269.47" y="143.08" width="1.05" height="164.81" transform="translate(-41 61.1) rotate(-12.01)"/><rect class="cls-4" x="19.54" y="224.96" width="164.81" height="1.05" transform="translate(-139.8 278.35) rotate(-78.01)"/><rect class="cls-4" y="305.03" width="406.71" height="1.05"/><path class="cls-5" d="M196.51,143.26c-3.26-7.47-5.43-12.35-3.62-16.42,0-.06.05-.12.07-.17a6.33,6.33,0,0,1,8.4-3.13,6.88,6.88,0,0,1,3.8,4.38,6.89,6.89,0,0,1,5.79-.13l.17.08a6.34,6.34,0,0,1,3.08,8.42c-1.81,4.07-6.88,5.74-14.6,8.34l-2.17.71Z"/><path class="cls-5" d="M160.75,147.91l.07-.16a6.35,6.35,0,0,1,8.41-3.14A7,7,0,0,1,173,149a6.86,6.86,0,0,1,5.79-.12,6.42,6.42,0,0,1,2.77,2.31c-7.57,0-14.8-.21-21.48-.47A7.57,7.57,0,0,1,160.75,147.91Z"/><path class="cls-5" d="M195.11,77.6c-2.7-2.95-4.48-4.86-4.29-7,0,0,0-.06,0-.09a3.11,3.11,0,0,1,3.4-2.78,3.38,3.38,0,0,1,2.45,1.42,3.39,3.39,0,0,1,2.67-1h.09a3.11,3.11,0,0,1,2.76,3.42c-.19,2.17-2.28,3.75-5.44,6.18l-.89.68Z"/><path class="cls-5" d="M181.41,41.78c-2.69-3-4.48-4.87-4.29-7a.28.28,0,0,0,0-.09,3.12,3.12,0,0,1,3.4-2.79A3.41,3.41,0,0,1,183,33.29a3.41,3.41,0,0,1,2.67-1h.09a3.1,3.1,0,0,1,2.76,3.41c-.19,2.18-2.27,3.76-5.44,6.19l-.89.67Z"/><path class="cls-5" d="M177.07,108c-6.79-.55-11.25-.87-13.54-3.81l-.09-.12a5.29,5.29,0,0,1,1-7.43,5.76,5.76,0,0,1,4.73-1.07,5.73,5.73,0,0,1,2.19-4.32l.12-.1a5.31,5.31,0,0,1,7.43,1.05c2.29,2.94,1.52,7.34.39,14.06l-.33,1.88Z"/><path class="cls-1" d="M341.74,229.46a232.17,232.17,0,0,1,19.75-41.66l.89.56a231.12,231.12,0,0,0-19.64,41.45c-7.6,21.47-14.1,52-1.94,75.51l-.94.48C327.53,282,334.08,251.12,341.74,229.46Z"/><rect class="cls-1" x="333.22" y="187.77" width="1.05" height="38.03" transform="translate(-31.73 63.36) rotate(-10.36)"/><rect class="cls-1" x="333.13" y="238.65" width="51.81" height="1.05" transform="translate(-60.65 339.08) rotate(-47.06)"/><rect class="cls-1" x="320.84" y="258.93" width="1.05" height="30.56" transform="translate(-99.72 240.26) rotate(-35.86)"/><circle class="cls-6" cx="327.69" cy="172.8" r="5.27"/><circle class="cls-3" cx="385.11" cy="213.37" r="5.27"/><circle class="cls-3" cx="361.93" cy="218.63" r="5.27"/><circle class="cls-6" cx="372.47" cy="239.18" r="5.27"/><circle class="cls-3" cx="306.61" cy="252.35" r="5.27"/><circle class="cls-3" cx="324" cy="258.15" r="5.27"/><circle class="cls-3" cx="311.88" cy="275" r="5.27"/><circle class="cls-3" cx="367.2" cy="179.12" r="5.27"/><path class="cls-6" d="M61.66,97.1l-4.5,42.37-8,16s8.66-5.41,4.17-25.3S53,97.1,53,97.1s2.57-2.25-.64-14.44A25.7,25.7,0,0,1,56.2,61.48h2.89Z"/><path class="cls-7" d="M61.66,97.12l-4.5,42.36-8,16.05s8.66-5.41,4.17-25.31S53,97.12,53,97.12s2.57-2.25-.64-14.44A25.73,25.73,0,0,1,56.2,61.49h2.89Z"/><path class="cls-8" d="M85.89,48.48c-2.25,3.21,1,7.06,1,7.06l-2.57,9.31L81.4,67.74,71.77,78.33l-7.71,1.6-2.24-7.7,2.89-10.59s4.49-5.46,5.77-5.46S69.2,45.91,69.2,45.91,88.14,45.27,85.89,48.48Z"/><path class="cls-7" d="M85.89,48.48c-2.25,3.21,1,7.06,1,7.06l-2.57,9.31L81.4,67.74,71.77,78.33l-7.71,1.6-2.24-7.7,2.89-10.59s4.49-5.46,5.77-5.46S69.2,45.91,69.2,45.91,88.14,45.27,85.89,48.48Z"/><path class="cls-8" d="M151.68,79.93l7.06-9.31S172.46,58.25,167,52.16s-13.07,10.76-13.07,10.76l-7.06,11.56Z"/><path class="cls-8" d="M77.54,166.91l-1.28,46.21C86.85,219.54,93,250,93,250l-5.14,9.63S70.48,236.55,64.06,226s-5.77-13.48-5.77-13.48L53.15,154Z"/><path class="cls-7" d="M77.54,148.85l-1.28,64.27C86.85,219.54,93,250,93,250l-5.14,9.63S70.48,236.55,64.06,226s-5.77-13.48-5.77-13.48l-5.14-55.61Z"/><path class="cls-1" d="M96.48,250.67c3.85,1.6,4.81,4.17,4.81,4.17l8,13.48-1.61,1-4.81-8a15.36,15.36,0,0,0-3.21,4.17c-1.93,3.21,1.6,16.69,1.6,17.65s-4.81,7.39-10.91,9-3.21-12.84-1-14.44-3.53-18-3.53-18L93,246.18Z"/><path class="cls-7" d="M96.48,250.67c3.85,1.6,4.81,4.17,4.81,4.17l8,13.48-1.61,1-4.81-8a15.36,15.36,0,0,0-3.21,4.17c-1.93,3.21,1.6,16.69,1.6,17.65s-4.81,7.39-10.91,9-3.21-12.84-1-14.44-3.53-18-3.53-18L93,246.18Z"/><path class="cls-8" d="M102.9,148.63s-10.11,38.55-8,63.85c2,24.6-7.06,49.1-7.06,49.1l-7.38-1V214.4c-5.45-9.3-3-63.08-3-63.08Z"/><circle class="cls-8" cx="79.31" cy="40.3" r="13.48"/><path class="cls-6" d="M67.6,62.92c1-.32,2.88-6.74,2.88-6.74s-11.87,3.21-14.12,5.14c-.63.54-1.1,2-1.47,3.72a80.91,80.91,0,0,0-1.1,11.36c-8.66,12.2-2.24,20.54-2.24,20.54l5.78,19.26S84.6,114.27,93,111.38s11.23-17.65,11.23-17.65,5.78,7.7,21.5,10,16.69-5.13,19.26-7.7,7.38-7.38,9.63-11.23-7.06-13.8-7.06-12.52-10.59,6.1-10.59,6.1l-9,1.6s-10.91-4.17-17-11.23-11.87-8.35-11.87-8.35l-9-2.56-3.21-4.18-7.7,5.14-13.48,17C64.39,74.15,66.63,63.24,67.6,62.92Z"/><path class="cls-1" d="M105.14,153.1c-4.12-13.24-1.72-37.35-8.53-40.81a5.38,5.38,0,0,1-2.2-2c-.32-.55-1-1-2.26-.72-2.89.56-7.38-.57-10.92,1.13s-13.47,3.12-15.4,2.55-9,.77-9,.77,1.9,11.4-1.63,14.52S45.13,169,53.15,170.65s23.27-.73,23.27-1.58c0-.11.15-.29.46-.51a10.47,10.47,0,0,1,2.19-1.18c4.19-1.78,3.65-1.51,19.81-.52C98.88,166.86,108.55,168.56,105.14,153.1Z"/><path class="cls-1" d="M89,258.89l-.89,12.32c3.53,8,1,12.84,1,12.84l1.05,21.29L86.94,305l-1-18.41S82,302.34,81.4,304s-5.78,1-11.24,1.28-10.27-6.42-4.49-9.31,7.38-13.48,7.38-13.48c-1.92-8,4.82-17.65,4.82-17.65l1.28-7.06C80.11,260.94,89,258.89,89,258.89Z"/><path class="cls-7" d="M76.9,155.35c-1.18-.29-.19,18.05,0,21.08a10.58,10.58,0,0,1,2.19-1.33Z"/><path class="cls-1" d="M61.45,21.73C54.88,24.65,51,40.34,56.06,47.64s1.46,9.49,1.46,9.49c-10.94,9.49-5.11,19.7-5.11,19.7l1.46-1.46c2.92,7.3,12.41,7.3,12.41,7.3l-2.92-5.84,4.38,4.38L67,77.56h0c-.73-3.65,0,0,5.84-9.48S69.93,52,66.28,44.72s.73-9.49,5.84-11.67a64.68,64.68,0,0,0,10.94-6.57c10.22,10.21,11.64,9,8.72,19.25-.34,1.21-.65,2.39-.91,3.54a40.13,40.13,0,0,0,.72,20.55,16.68,16.68,0,0,1-2.32,14l3.65-2.19.73-.32c8.54-3.72,10.85-14.59,5-21.83-1.56-1.92-2.52-4.68-1.34-8.5,2.91-9.49-.58-25.65-6.42-27.84s-6-1.36-6-1.36S68,18.81,61.45,21.73Z"/><circle class="cls-1" cx="76.84" cy="10.41" r="6.79"/><path class="cls-1" d="M78.88,13.55c.22,0,.45,0,.68,0A6.79,6.79,0,0,0,79.56,0c-.23,0-.46,0-.68,0a6.79,6.79,0,0,1,0,13.52Z"/><path class="cls-5" d="M164,56.53c-2.7-3-4.48-4.86-4.29-7a.28.28,0,0,1,0-.09,3.1,3.1,0,0,1,3.39-2.78A3.38,3.38,0,0,1,165.6,48a3.39,3.39,0,0,1,2.66-1h.09a3.11,3.11,0,0,1,2.77,3.42c-.19,2.17-2.28,3.75-5.44,6.18l-.89.67Z"/><circle class="cls-9" cx="17.85" cy="213.04" r="7.77"/><circle class="cls-9" cx="233.85" cy="46.03" r="7.77"/><circle class="cls-9" cx="309.19" cy="134.01" r="7.77"/><path class="cls-10" d="M146.33,140.33c.75.52.93.49,1.47-.28,1.21-1.73,2.38-3.5,3.64-5.2a9.69,9.69,0,0,0,1.78-7,6.55,6.55,0,0,0-.17-1.41,2.93,2.93,0,0,1,.7-3,1.16,1.16,0,0,0,.18-1.64,1.48,1.48,0,0,0-1.9-.35,5,5,0,0,0-2.43,2.79,13.78,13.78,0,0,0-.66,2.62c-.1.58-.35.58-.77.29l-3.6-2.51c-.79-.54-1.39-.61-1.94-.22a2,2,0,0,0-.8,2.13c.1.37-.05.4-.34.45a1.54,1.54,0,0,0-1.33,2.29c.12.32,0,.35-.26.43a1.44,1.44,0,0,0-1.15,2c.09.27.09.38-.22.46a1.41,1.41,0,0,0-1,1.22,1.27,1.27,0,0,0,.73,1.27c1.36.93,2.7,1.88,4.05,2.82Z"/><path class="cls-10" d="M158.75,136.81c.43-.62.39-.86-.21-1.29-1-.71-2-1.39-3-2.09a.73.73,0,0,0-1.19.22c-1.7,2.47-3.42,4.92-5.11,7.39-.56.82-.52,1,.27,1.52l2.55,1.78c.91.63,1,.61,1.66-.32l2.43-3.49Z"/><path class="cls-10" d="M215.82,91c-.68,0-.77.07-.8.76-.06,1.57-.07,3.14-.18,4.7a7.18,7.18,0,0,0,1.72,5.08,4.81,4.81,0,0,0,.67.81,2.13,2.13,0,0,1,.76,2.13c-.06.47,0,.92.55,1.1a1.11,1.11,0,0,0,1.33-.55,3.71,3.71,0,0,0,.39-2.71,10.83,10.83,0,0,0-.65-1.89c-.17-.4,0-.51.37-.49l3.24.11c.71,0,1.11-.18,1.29-.64a1.49,1.49,0,0,0-.35-1.64c-.22-.2-.13-.27,0-.42a1.14,1.14,0,0,0-.09-2c-.2-.15-.16-.21,0-.37a1.07,1.07,0,0,0-.1-1.72c-.17-.14-.21-.2-.05-.38a1,1,0,0,0,.14-1.17c-.18-.41-.55-.48-1-.49l-3.65-.13Z"/><path class="cls-10" d="M209.51,98.21c0,.55.1.69.65.71.9,0,1.8.06,2.7.11.45,0,.64-.18.65-.62.07-2.22.15-4.43.21-6.65,0-.73-.07-.81-.78-.83l-2.3-.09c-.82,0-.87,0-.9.86,0,1.06-.07,2.11-.11,3.16Z"/><path class="cls-10" d="M200.18,52c.42.45.54.45,1,0,1-1,2.05-2,3.13-2.91a6.52,6.52,0,0,0,2.16-4.36,5.17,5.17,0,0,0,.09-.95,1.94,1.94,0,0,1,.88-1.86.8.8,0,0,0,.35-1.06,1,1,0,0,0-1.21-.49,3.28,3.28,0,0,0-2,1.48,8.49,8.49,0,0,0-.8,1.63c-.16.37-.32.34-.56.08q-1-1.08-2-2.16c-.44-.46-.83-.59-1.24-.41a1.34,1.34,0,0,0-.82,1.28c0,.26-.09.26-.29.25-.88,0-1.33.45-1.2,1.32,0,.22,0,.23-.23.24a1,1,0,0,0-1,1.17c0,.2,0,.27-.22.28a.93.93,0,0,0-.84.66c-.15.38,0,.66.3.93.76.8,1.51,1.61,2.26,2.42Z"/><path class="cls-10" d="M208.84,51.4c.37-.34.38-.5,0-.87-.55-.61-1.12-1.2-1.67-1.8a.49.49,0,0,0-.81,0c-1.47,1.38-2.95,2.75-4.41,4.13-.48.46-.47.56,0,1l1.42,1.53c.51.54.57.54,1.13,0l2.1-2Z"/></g></g></svg>