<svg width="154" height="161" viewBox="0 0 154 161" fill="none" xmlns="http://www.w3.org/2000/svg">
<g clip-path="url(#clip0)">
<path d="M77.4898 160.007C108.865 160.007 134.3 155.508 134.3 149.957C134.3 144.407 108.865 139.907 77.4898 139.907C46.1145 139.907 20.6798 144.407 20.6798 149.957C20.6798 155.508 46.1145 160.007 77.4898 160.007Z" fill="#FFC709"/>
<path d="M77.4898 160.007C108.865 160.007 134.3 155.508 134.3 149.957C134.3 144.407 108.865 139.907 77.4898 139.907C46.1145 139.907 20.6798 144.407 20.6798 149.957C20.6798 155.508 46.1145 160.007 77.4898 160.007Z" stroke="#EA9423" stroke-width="0.7035" stroke-miterlimit="10"/>
<path d="M30.1498 55.3173C30.1498 40.6773 51.6198 28.8073 78.0898 28.8073C104.56 28.8073 126.03 40.6773 126.03 55.3173" stroke="#77C043" stroke-width="1.4071" stroke-miterlimit="10" stroke-linecap="round" stroke-linejoin="round"/>
<path d="M93.1698 39.0073H54.1698C46.4598 26.0073 46.4598 13.0073 54.1698 0.00732422H93.1698C82.3798 13.0073 82.3798 26.0073 93.1698 39.0073Z" fill="#E6E7E8"/>
<path d="M81.7098 4.64734H59.7298V7.43734H81.7098V4.64734Z" fill="#6466AF"/>
<path d="M81.7098 13.7873H52.6098V14.7173H81.7098V13.7873Z" fill="white"/>
<path d="M81.7098 18.5773H52.6098V19.5073H81.7098V18.5773Z" fill="white"/>
<path d="M81.7098 23.3773H52.6098V24.3073H81.7098V23.3773Z" fill="white"/>
<path d="M108.74 125.347C108.74 137.717 116.5 147.727 126.09 147.727L108.74 125.347Z" fill="#29ABE2"/>
<path d="M126.09 147.727C126.09 135.217 134.75 125.097 145.45 125.097L126.09 147.727Z" fill="#6466AF"/>
<path d="M115.03 126.477C115.03 138.227 119.98 147.737 126.09 147.737L115.03 126.477Z" fill="#6466AF"/>
<path d="M126.09 147.727C126.09 131.747 136.1 118.807 148.47 118.807L126.09 147.727Z" fill="#29ABE2"/>
<path d="M122.44 147.887C122.44 147.887 124.9 147.807 125.64 147.287C126.38 146.757 129.43 146.127 129.61 146.977C129.79 147.827 133.31 151.187 130.53 151.207C127.75 151.227 124.08 150.777 123.33 150.327C122.6 149.877 122.44 147.887 122.44 147.887Z" fill="#A9A8A8"/>
<path opacity="0.2" d="M130.58 150.917C127.8 150.937 124.13 150.487 123.38 150.037C122.82 149.697 122.59 148.457 122.52 147.897C122.47 147.897 122.44 147.897 122.44 147.897C122.44 147.897 122.6 149.877 123.34 150.337C124.08 150.787 127.76 151.247 130.54 151.217C131.34 151.207 131.62 150.927 131.6 150.507C131.48 150.747 131.18 150.907 130.58 150.917Z" fill="#010101"/>
<path d="M69.1598 30.4773C69.3898 30.5773 69.6598 30.4273 69.7898 30.2173C70.2998 29.4173 69.3598 28.3873 69.5698 27.4673C69.7298 26.7273 70.5698 26.2873 70.7498 25.5473C70.9198 24.8273 70.3998 24.0173 70.7498 23.3673C71.0198 22.8573 71.6998 22.7273 72.2698 22.8173C72.8398 22.9073 73.3798 23.1573 73.9598 23.1873C74.7298 23.2373 75.4598 22.8973 76.2098 22.7273C76.9598 22.5573 77.8798 22.6273 78.3198 23.2573C78.8898 24.0673 78.3098 25.1873 78.5098 26.1573C78.6698 26.9273 79.3098 27.5573 79.3198 28.3473C79.3198 28.6273 78.5898 28.3973 78.6298 28.6773C78.6698 28.9573 78.3198 28.7073 78.5998 28.6773C78.8298 28.6173 78.9998 28.4173 79.0198 28.1773C79.0498 27.9473 79.4798 27.8673 79.4798 27.6373C79.4698 27.0973 80.4498 27.4573 80.6098 26.9373C80.9798 25.7273 80.9098 24.4173 80.3898 23.2673C80.1698 22.7773 79.8698 22.3073 79.7598 21.7773C79.6198 21.0573 79.8398 20.2773 79.5998 19.5873C79.2798 18.6473 78.2198 18.1673 77.2298 18.0773C76.2398 17.9773 75.2398 18.1573 74.2598 18.0073C73.3798 17.8773 72.5298 17.4973 71.6398 17.5573C70.5798 17.6273 69.6498 18.3073 68.9098 19.0773C68.1698 19.8473 67.5498 20.7273 66.7098 21.3873C66.4498 21.5673 66.2198 21.7673 65.9998 21.9973C65.5698 22.5173 65.5298 23.2573 65.6498 23.9173C65.7698 24.5773 66.0298 25.2073 66.1398 25.8773C66.2398 26.4973 66.2098 27.1373 66.2498 27.7673C66.2898 28.3973 66.4198 29.0473 66.7998 29.5473C67.1098 29.9673 67.5898 30.2173 68.1098 30.2273C68.2898 30.2273 68.4398 30.0673 68.6198 30.1173C68.8598 30.1773 68.9598 30.3873 69.1598 30.4773Z" fill="#302E41"/>
<path d="M61.5598 76.2773L62.2198 80.3173L63.5398 78.5373L62.7898 75.8073L61.5598 76.2773Z" fill="#A0626B"/>
<path d="M62.4098 45.7373L61.3698 48.4673C61.3698 48.4673 60.3398 62.3673 60.3398 63.4073C60.3398 64.4473 61.0898 77.6873 61.3698 78.2573C61.3698 78.2573 62.5898 76.4673 64.1898 76.7573C65.7898 77.0473 65.1298 72.0573 65.1298 72.0573L66.6298 59.7473L66.3498 53.5473L62.4098 45.7373Z" fill="#585B8A"/>
<path d="M62.4098 45.7373L61.3698 48.4673C61.3698 48.4673 60.3398 62.3673 60.3398 63.4073C60.3398 64.4473 61.0898 77.6873 61.3698 78.2573C61.3698 78.2573 62.5898 76.4673 64.1898 76.7573C65.7898 77.0473 65.1298 72.0573 65.1298 72.0573L66.6298 59.7473L66.3498 53.5473L62.4098 45.7373Z" fill="#9964AA"/>
<path d="M68.7998 30.6973C68.7998 30.6973 71.8998 38.5873 70.1198 40.0973C68.3298 41.5973 80.0798 37.5573 80.0798 37.5573L79.7998 36.5273C79.7998 36.5273 75.9498 35.0273 77.8298 30.6973C79.6998 26.3773 68.7998 30.6973 68.7998 30.6973Z" fill="#E2A6AA"/>
<path d="M63.9098 136.137C63.9098 136.137 62.5898 135.757 61.8398 136.697C61.0898 137.637 58.2698 139.987 58.2698 139.987C58.2698 139.987 52.8198 139.427 52.0698 142.147C51.3198 144.867 60.6198 144.877 62.8798 144.217C65.1398 143.557 65.6098 144.217 65.6098 144.217C65.6098 144.217 72.5598 144.777 72.5598 143.657C72.5598 142.537 71.8998 138.677 71.8998 138.677L63.9098 136.137Z" fill="#29ABE2"/>
<path d="M85.9998 142.437L84.7798 146.197C84.7798 146.197 81.1098 151.267 83.1798 152.307C85.2498 153.337 92.5798 154.377 92.5798 151.647V146.477C92.5798 146.477 91.8298 142.807 91.0798 142.437C90.3198 142.067 85.9998 142.437 85.9998 142.437Z" fill="#29ABE2"/>
<path d="M65.2498 74.9073C65.2498 74.9073 61.2898 78.3473 61.3798 78.8173C61.4698 79.2873 63.3498 109.457 63.3498 109.457L64.3798 129.007C64.3798 129.007 63.0598 133.607 63.7198 134.647C64.3798 135.677 62.7798 135.967 62.7798 135.967C62.7798 135.967 69.5498 142.077 72.3698 139.447L74.9998 105.337L82.2398 130.147C82.2398 130.147 83.4598 143.307 84.8698 143.307C86.2798 143.307 92.0098 143.587 91.9198 142.837C91.8298 142.087 92.1998 136.357 91.5398 132.967C90.8798 129.587 86.4698 102.797 86.4698 102.797C86.4698 102.797 86.0898 79.8373 87.0798 77.6873C88.0698 75.5373 86.5698 73.2873 86.5698 73.2873L79.9898 70.7473L72.0998 71.6873L65.2498 74.9073Z" fill="#302E41"/>
<path d="M73.2198 33.8973C76.8538 33.8973 79.7998 30.9514 79.7998 27.3173C79.7998 23.6833 76.8538 20.7373 73.2198 20.7373C69.5857 20.7373 66.6398 23.6833 66.6398 27.3173C66.6398 30.9514 69.5857 33.8973 73.2198 33.8973Z" fill="#F9B7B9"/>
<path d="M89.1898 41.5073C88.5298 39.6373 86.9798 38.2273 85.0598 37.7473C83.1598 37.2673 81.3098 36.6373 79.5198 35.8673C79.5198 35.8673 72.8498 39.0673 71.5298 39.0673C70.2098 39.0673 70.2098 38.2173 70.2098 38.2173C70.2098 38.2173 66.8298 41.7873 65.0398 42.1673C63.2498 42.5473 60.6198 46.9573 61.5598 49.4073C62.1998 50.9773 63.1198 52.4073 64.2898 53.6373C64.2898 53.6373 63.9098 66.7973 65.1398 69.2373C65.1398 69.2373 62.1298 74.9673 64.9498 75.3473C67.7698 75.7273 78.5798 74.4073 80.4598 75.7273C82.3398 77.0473 85.8198 75.4473 86.2898 77.2273C86.7598 79.0173 87.7898 79.3873 87.7898 79.3873C87.7898 79.3873 89.3898 76.8473 88.4498 75.3473C87.4998 73.8373 89.1898 41.5073 89.1898 41.5073Z" fill="#9964AA"/>
<path d="M82.2398 76.8473L80.7398 77.7873C80.7398 77.7873 82.3398 83.3273 82.9998 83.5173C83.6598 83.7073 85.2098 78.7773 85.2098 78.7773L82.2398 76.8473Z" fill="#E2A6AA"/>
<path d="M68.0298 29.8173C68.2598 29.9173 68.5298 29.7673 68.6598 29.5573C69.1698 28.7573 68.2298 27.7273 68.4398 26.8073C68.5998 26.0673 69.4398 25.6273 69.6198 24.8873C69.7898 24.1673 69.2698 23.3573 69.6198 22.7073C69.8898 22.1973 70.5698 22.0673 71.1398 22.1573C71.7098 22.2473 72.2498 22.4973 72.8298 22.5273C73.5998 22.5773 74.3298 22.2373 75.0798 22.0673C75.8298 21.8973 76.7498 21.9673 77.1898 22.5973C77.7598 23.4073 77.1798 24.5273 77.3798 25.4973C77.5398 26.2673 79.3198 26.8073 79.4798 26.2873C79.8498 25.0773 79.7798 23.7673 79.2598 22.6173C79.0398 22.1273 78.7398 21.6573 78.6298 21.1273C78.4898 20.4073 78.7098 19.6273 78.4698 18.9373C78.1498 17.9973 77.0898 17.5173 76.0998 17.4273C75.1098 17.3273 74.1098 17.5073 73.1298 17.3573C72.2498 17.2273 71.3998 16.8473 70.5098 16.9073C69.4498 16.9773 68.5198 17.6573 67.7798 18.4273C67.0398 19.1973 66.4198 20.0773 65.5798 20.7373C65.3198 20.9173 65.0898 21.1173 64.8698 21.3473C64.4398 21.8673 64.3998 22.6073 64.5198 23.2673C64.6398 23.9273 64.8998 24.5573 65.0098 25.2273C65.1098 25.8473 65.0798 26.4873 65.1198 27.1173C65.1598 27.7473 65.2898 28.3973 65.6698 28.8973C65.9798 29.3173 66.4598 29.5673 66.9798 29.5773C67.1598 29.5773 67.3098 29.4173 67.4898 29.4673C67.7298 29.5173 67.8298 29.7273 68.0298 29.8173Z" fill="#302E41"/>
<path opacity="0.1" d="M85.4798 43.1573L88.5298 41.5173C88.5298 41.5173 95.9498 59.1873 94.1698 64.0673C92.3898 68.9473 85.5298 79.0073 85.5298 79.0073C85.5298 79.0073 80.0798 77.8773 80.6398 76.7473C81.1998 75.6173 84.8698 68.3873 85.1498 67.4473C85.4298 66.5073 87.3098 60.3973 86.4698 59.7373C85.6198 59.0773 83.9798 43.8073 83.9798 43.8073L85.4798 43.1573Z" fill="#010101"/>
<path d="M85.4298 40.4773L89.1898 41.5073C89.1898 41.5073 96.6098 59.1773 94.8298 64.0573C93.0498 68.9473 86.1898 79.0073 86.1898 79.0073C86.1898 79.0073 80.7398 77.8773 81.2998 76.7473C81.8598 75.6173 85.5298 68.3873 85.8098 67.4473C86.0898 66.5073 87.9698 60.3973 87.1298 59.7373C86.2798 59.0773 82.2398 42.8173 82.2398 42.8173L85.4298 40.4773Z" fill="#9964AA"/>
<path d="M126.04 55.3173C126.04 70.6673 104.57 83.1073 78.0998 83.1073C51.6298 83.1073 30.1498 70.6573 30.1498 55.3173" stroke="#77C043" stroke-width="1.4071" stroke-miterlimit="10" stroke-linecap="round" stroke-linejoin="round"/>
<path d="M117.32 83.4973C106.6 89.2773 92.6198 92.7773 77.3198 92.7773C62.6498 92.7773 49.1898 89.5573 38.6598 84.2073" stroke="#77C043" stroke-width="1.4071" stroke-miterlimit="10" stroke-linecap="round" stroke-linejoin="round"/>
<path d="M102.03 21.6273C122.43 26.9873 136.95 38.7773 138.3 52.6673" stroke="#77C043" stroke-width="1.4071" stroke-miterlimit="10" stroke-linecap="round" stroke-linejoin="round"/>
<path d="M19.1698 43.6473C22.6098 37.3273 28.8798 31.7773 37.1098 27.5073" stroke="#77C043" stroke-width="1.4071" stroke-miterlimit="10" stroke-linecap="round" stroke-linejoin="round"/>
<path d="M44.7998 84.7773H5.79977C-1.91023 71.7773 -1.91023 58.7773 5.79977 45.7773H44.7998C34.0098 58.7773 34.0098 71.7773 44.7998 84.7773Z" fill="#E6E7E8"/>
<path d="M32.1098 50.4173H10.1298V53.2073H32.1098V50.4173Z" fill="#6466AF"/>
<path d="M34.4298 58.1573H5.32977V59.0873H34.4298V58.1573Z" fill="white"/>
<path d="M34.4298 62.9573H5.32977V63.8873H34.4298V62.9573Z" fill="white"/>
<path d="M34.4298 67.7573H5.32977V68.6873H34.4298V67.7573Z" fill="white"/>
<path d="M34.4298 72.5573H5.32977V73.4873H34.4298V72.5573Z" fill="white"/>
<path d="M108.57 66.8173H147.57C155.28 53.8173 155.28 40.8173 147.57 27.8173H108.57C119.35 40.8073 119.35 53.8073 108.57 66.8173Z" fill="#E6E7E8"/>
<path d="M142.99 31.6773H121.01V34.4673H142.99V31.6773Z" fill="#6466AF"/>
<path d="M148.93 39.4173H119.83V40.3473H148.93V39.4173Z" fill="white"/>
<path d="M150.07 43.8673H120.97V44.7973H150.07V43.8673Z" fill="white"/>
<path d="M148.93 48.3173H119.83V49.2473H148.93V48.3173Z" fill="white"/>
<path d="M147.79 52.7773H118.69V53.7073H147.79V52.7773Z" fill="white"/>
<path d="M146.65 57.2273H117.55V58.1573H146.65V57.2273Z" fill="white"/>
<path d="M145.51 61.6773H116.41V62.6073H145.51V61.6773Z" fill="white"/>
<g opacity="0.1">
<path opacity="0.1" d="M66.1798 59.7373L65.8998 53.5373L61.9498 45.7373L61.7698 46.2073L65.4798 53.5473L65.7598 59.7473L64.2598 72.0573C64.2598 72.0573 64.8298 76.3973 63.6098 76.7473C63.6498 76.7473 63.6898 76.7573 63.7398 76.7573C65.3398 77.0373 64.6798 72.0573 64.6798 72.0573L66.1798 59.7373Z" fill="#010101"/>
</g>
</g>
<defs>
<clipPath id="clip0">
<rect width="153.35" height="160.35" fill="white" transform="translate(0.00976562 0.00732422)"/>
</clipPath>
</defs>
</svg>
