<svg xmlns="http://www.w3.org/2000/svg" viewBox="0 0 83.72 94.56"><defs><style>.cls-1{fill:#ffbc00;}</style></defs><title>strategya</title><g id="Layer_2" data-name="Layer 2"><g id="Layer_1-2" data-name="Layer 1"><path class="cls-1" d="M72.5,45.71V80.38H63A1.57,1.57,0,0,0,61.47,82v9.46H3.15V3.15H72.5V23.64h3.15V1.58A1.58,1.58,0,0,0,74.07,0H1.58A1.58,1.58,0,0,0,0,1.58V93a1.57,1.57,0,0,0,1.58,1.57H63a1.57,1.57,0,0,0,1.12-.46l11-11a1.44,1.44,0,0,0,.31-.46.94.94,0,0,0,.06-.15,1.86,1.86,0,0,0,.08-.41s0-.06,0-.1V45.71ZM64.62,89.18V83.53h5.65Z"/><path class="cls-1" d="M82.28,26.47a5,5,0,0,0-7,0L47.74,54.05a1.57,1.57,0,0,0-.46,1.11v4.73a1.58,1.58,0,0,0,1.58,1.58h4.73A1.58,1.58,0,0,0,54.7,61L82.28,33.42A4.91,4.91,0,0,0,82.28,26.47ZM52.93,58.31h-2.5v-2.5l19.7-19.7,2.5,2.5ZM74.86,36.38l-2.5-2.49,1.71-1.72,2.5,2.5Zm5.19-5.19L78.8,32.44l-2.5-2.5,1.25-1.24a1.81,1.81,0,0,1,2.5,0A1.76,1.76,0,0,1,80.05,31.19Z"/><path class="cls-1" d="M14.18,20.49a6.31,6.31,0,1,0,6.31,6.3A6.3,6.3,0,0,0,14.18,20.49Zm0,9.45a3.15,3.15,0,1,1,3.16-3.15A3.15,3.15,0,0,1,14.18,29.94Z"/><polygon class="cls-1" points="43.67 7.42 41.44 5.19 37.83 8.8 34.21 5.19 31.98 7.42 35.6 11.03 31.98 14.65 34.21 16.88 37.83 13.26 41.44 16.88 43.67 14.65 40.05 11.03 43.67 7.42"/><path class="cls-1" d="M58.31,18.91a6.31,6.31,0,1,0,6.31,6.31A6.31,6.31,0,0,0,58.31,18.91Zm0,9.46a3.16,3.16,0,1,1,3.16-3.15A3.15,3.15,0,0,1,58.31,28.37Z"/><path class="cls-1" d="M18.91,64.62a6.31,6.31,0,1,0,6.31,6.3A6.3,6.3,0,0,0,18.91,64.62Zm0,9.45a3.15,3.15,0,1,1,3.15-3.15A3.15,3.15,0,0,1,18.91,74.07Z"/><polygon class="cls-1" points="26.33 43.67 24.1 41.44 20.49 45.05 16.88 41.44 14.65 43.67 18.26 47.28 14.65 50.9 16.88 53.12 20.49 49.51 24.1 53.12 26.33 50.9 22.72 47.28 26.33 43.67"/><polygon class="cls-1" points="65.73 65.73 63.5 63.5 59.89 67.12 56.28 63.5 54.05 65.73 57.66 69.35 54.05 72.96 56.28 75.19 59.89 71.58 63.5 75.19 65.73 72.96 62.12 69.35 65.73 65.73"/><path class="cls-1" d="M28.76,31.52h2.68V28.37H25.13a1.57,1.57,0,0,0-1.57,1.57v6.31h3.15V34a23,23,0,0,1-1.17,29.52l2.34,2.12A26.12,26.12,0,0,0,28.76,31.52Z"/><path class="cls-1" d="M37.83,72.5a6.31,6.31,0,1,0,6.3,6.3A6.3,6.3,0,0,0,37.83,72.5Zm0,9.45A3.15,3.15,0,1,1,41,78.8,3.15,3.15,0,0,1,37.83,82Z"/><path class="cls-1" d="M48.4,22.53,43.67,17.8,41.44,20l2,2H23.64v3.16H43.48l-2,2,2.23,2.23,4.73-4.72A1.59,1.59,0,0,0,48.4,22.53Z"/><path class="cls-1" d="M52,31.52h-6.3v3.15h2.55a44.29,44.29,0,0,0-12,30.44v4.24H39.4V65.11A41.21,41.21,0,0,1,50.43,37V39.4h3.16V33.1A1.58,1.58,0,0,0,52,31.52Z"/></g></g></svg>