<?xml version="1.0" encoding="iso-8859-1"?>
<!-- Generator: Adobe Illustrator 19.0.0, SVG Export Plug-In . SVG Version: 6.00 Build 0)  -->
<svg version="1.1" id="Layer_1" xmlns="http://www.w3.org/2000/svg" xmlns:xlink="http://www.w3.org/1999/xlink" x="0px" y="0px"
	 viewBox="0 0 752.386 561.071" style="enable-background:new 0 0 752.386 561.071;" xml:space="preserve">
<g>
	<path style="opacity:0.17;fill:#29AAE1;" d="M17.915,265.299c11.747,45.782,36.619,85.358,75.927,104.538
		c81.722,39.869,265.915,19.305,403.404-4.294c71.137-12.211,133.62-45.88,179.036-93.326L17.915,265.299z"/>
	<path style="opacity:0.17;fill:#29AAE1;" d="M738.923,49.806h-75.438c-3.589,0-6.526-2.676-6.526-5.945s2.93-5.945,6.526-5.945
		h13.053c-3.589,0-6.526-2.676-6.526-5.945s2.93-5.939,6.526-5.939h-9.313c-3.589,0-6.526-2.676-6.526-5.945s2.93-5.945,6.526-5.945
		h39.373c-8.739-3.707-18.926-6.337-30.713-7.714C568.521-6.15,530.185,2.164,516.643,10.72
		c-16.833,10.774-35.557,18.258-55.18,22.052c-66.242,12.459-190.124,27.45-302.41-4.803
		C103.247,11.947,61.772,39.064,36.907,84.298h715.114c-0.933-13.157-3.727-25.309-8.856-35.94
		C741.954,49.303,740.459,49.814,738.923,49.806z"/>
	<path style="opacity:0.17;fill:#29AAE1;" d="M11.513,169.74c-2.895,26.627-1.907,53.533,2.93,79.876l662.342,22.085
		c18.249-19.067,33.739-40.595,46.017-63.958L11.513,169.74z M273.46,226.722h-13.053c3.583,0,6.526,2.676,6.526,5.945
		s-2.937,5.939-6.526,5.939h-75.405c-3.583,0-6.526-2.669-6.526-5.939c0-3.27,2.937-5.945,6.526-5.945h13.053
		c-3.583,0-6.526-2.676-6.526-5.945s2.937-5.945,6.526-5.945h-9.326c-3.583,0-6.526-2.669-6.526-5.939
		c0-3.27,2.937-5.945,6.526-5.945h75.438c3.589,0,6.526,2.676,6.526,5.945c0,3.27-2.93,5.939-6.526,5.939h9.293
		c3.589,0,6.526,2.676,6.526,5.945S277.069,226.722,273.46,226.722z"/>
	<path style="opacity:0.17;fill:#29AAE1;" d="M752.054,84.709L28.938,100.744c-8.81,20.617-14.638,43.922-17.327,68.082H739.38
		c4.738-14.137,8.254-28.655,10.507-43.393C752.054,111.232,752.922,97.501,752.054,84.709z M158.433,137.252h-13.053
		c3.583,0,6.526,2.676,6.526,5.945c0,3.27-2.937,5.945-6.526,5.945H69.95c-3.583,0-6.526-2.676-6.526-5.945
		c0-3.27,2.937-5.945,6.526-5.945h13.053c-3.583,0-6.526-2.669-6.526-5.939s2.937-5.945,6.526-5.945h-9.326
		c-3.583,0-6.526-2.676-6.526-5.945s2.937-5.945,6.526-5.945h75.438c3.589,0,6.526,2.676,6.526,5.945s-2.93,5.945-6.526,5.945h9.32
		c3.583,0,6.526,2.676,6.526,5.945C164.96,134.583,162.016,137.252,158.433,137.252z"/>
	<ellipse style="opacity:0.25;fill:#FFC713;" cx="443.47" cy="489.432" rx="49.097" ry="11.023"/>
	<ellipse style="opacity:0.25;fill:#FFC713;" cx="557.556" cy="524.439" rx="88.575" ry="7.27"/>
	<ellipse style="opacity:0.25;fill:#FFC713;" cx="201.918" cy="513.416" rx="88.575" ry="11.023"/>
	<ellipse style="opacity:0.25;fill:#FFC713;" cx="336.967" cy="458.236" rx="66.647" ry="11.023"/>
	<ellipse style="opacity:0.25;fill:#FFC713;" cx="355.574" cy="550.048" rx="53.353" ry="11.023"/>
	
		<linearGradient id="SVGID_1_" gradientUnits="userSpaceOnUse" x1="355.3861" y1="71.3111" x2="355.3861" y2="457.1044" gradientTransform="matrix(1 0 0 -1 -31.16 534.8791)">
		<stop  offset="0" style="stop-color:#818181;stop-opacity:0.25"/>
		<stop  offset="0.54" style="stop-color:#818181;stop-opacity:0.12"/>
		<stop  offset="1" style="stop-color:#818181;stop-opacity:0.1"/>
	</linearGradient>
	<path style="fill:url(#SVGID_1_);" d="M386.769,196.002c-1.41-9.489-10.031-31.633-10.031-31.633l0,0
		c-0.15-0.653-0.32-1.305-0.509-1.958c-6.115-21.015-14.58-22.842-14.58-22.842l-30.321-6.526c0.254,0.159,0.476,0.365,0.653,0.607
		c-0.16,0.015-0.319,0.039-0.476,0.072c-1.388-1.639-2.306-3.624-2.656-5.743c-0.059-0.313-0.111-0.653-0.15-0.972
		c8.435-8.222,8.608-21.725,0.386-30.16c-0.664-0.681-1.373-1.317-2.122-1.904c-0.32-0.248-0.653-0.489-0.972-0.718
		c1.429-1.521,1.475-3.635,0.405-5.75c-2.389-4.96-7.584-8.099-12.922-9.633c-4.079-1.168-8.484-1.547-12.544-0.268
		c-2.304,0.731-4.405,1.958-6.565,3.048c-4.027,2.01-8.484,3.603-11.493,6.911c-0.705,0.77-1.357,1.756-1.149,2.774
		c0.157,0.757,0.757,1.344,1.142,2.017c0.868,1.508,0.653,3.407,0.059,5.051c-0.594,1.645-1.462,3.172-1.873,4.856
		c-0.411,1.684-0.255,3.668,1.012,4.875c0.607,0.469,1.239,0.904,1.893,1.305c0.693,0.59,1.301,1.273,1.808,2.03
		c1.201,1.61,2.397,3.226,3.589,4.849c1.683,2.151,3.187,4.436,4.497,6.833c0.894,1.762,1.586,3.642,2.78,5.221
		c0.35,0.461,0.751,0.881,1.194,1.253l-0.352-0.137c1.049,1.067,2.491,1.655,3.988,1.625l0,0c0.065,0,0.124,0,0.183,0
		c0.272-0.006,0.533-0.113,0.731-0.3c0,0.222,0,0.444,0,0.653c0.072,2.33,0.059,4.81-0.104,7.14l-0.281-0.144
		c-0.85-0.422-1.867-0.316-2.611,0.274l-27.913,22.398c0,0-6.069,8.301-5.221,22.633l-4.895,21.491c0,0-6.115,18.235-1.41,31.255
		c4.705,13.02,7.433,20.467,7.433,20.467s1.88,14.795,4.705,16.003c2.826,1.207,4.046,1.86,4.046,1.86l0.561,3.537l0,0
		c0,0,0.189,0.346,0.522,0.927c2.056,3.576,9.672,16.198,14.097,14.847c0.557,3.427,0.797,6.899,0.718,10.37l4.379,29.401
		c0,0,3.054,7.995,2.865,12.185s3.563,10.161,3.563,10.161c-2.28,4.174-2.949,9.039-1.88,13.673
		c1.788,7.832,4.046,43.909,4.046,43.909l3.263,8.745l-0.091,10.253c-0.268,1.672-0.965,3.246-2.023,4.568
		c-2.115,2.297-1.958,4.953-7.055,8.093c-5.097,3.139-8.328,4.327-8.328,8.484c-0.006,0.58-0.059,1.158-0.157,1.729
		c-0.47,3.054-1.384,4.712,7.988,5.6c11.01,1.044,18.352-6.135,18.352-6.135s1.619-2.937,9.241-4.125c0,0,2.611-0.137,2.748-2.441
		c0.052-0.796,0.039-2.317,0-3.994c-0.124-3.191-0.431-6.918-0.835-7.101c-0.509-0.228-1.397-3.439-1.703-4.601h2.121
		c0,0,1.958-14.795,0-24.376s-0.189-16.375-0.189-16.375l-0.379-25.303c0,0-2.611-2.793-0.561-7.727c2.049-4.934,0-29.303,0-29.303
		s0.757-8.745,2.917-10.795c2.16-2.049,0.104-12.811,0-13.372l3.851,12.916c0,0,1.69,25.674,5.273,30.321l1.031,11.63
		c0,0,7.336,10.703,5.926,16.466c-1.41,5.763,1.508,26.608,1.508,26.608V424.9c0,0-3.296,8.556,1.305,11.63l1.958-0.078
		c-0.653,0.607-1.155,1.521-1.919,2.31c-0.881,0.907-1.384,4.36-1.664,7.329c-0.235,2.513-0.313,4.673-0.313,4.673
		s1.958,3.133,5.645,3.348c3.687,0.215,15.839,9.457,15.839,9.457s12.002,0,15.108-0.653l0.183-0.046
		c0.997-0.314,1.836-0.998,2.343-1.912c0.622-1.06,0.823-2.316,0.561-3.518c-0.385-1.834-1.84-3.844-5.064-5.554
		c-8.021-4.229-9.215-8.19-9.215-8.19l-5.267-7.903h0.751c0,0-0.463-8.373,5.267-17.771l-0.372-41.396c0,0,2.349-14.234-1.69-21.961
		c0,0-0.333-8.184,2.369-10.697c2.702-2.513-3.596-27.907-3.596-27.907s-1.305-13.633-2.839-26.073l0,0
		c6.35,6.024,12.935-15.663,14.045-19.52h0.163l-0.072-0.281c0.046-0.183,0.072-0.274,0.072-0.274l0,0c0,0-1.41-5.012-0.379-3.994
		s3.576-2.793,3.576-2.793s-0.379-20.747,4.046-31.202C393.159,221.468,386.769,196.002,386.769,196.002z M367.843,209.205
		l0.033-0.059c0.653,12.668-0.124,39.7-0.124,39.7s-0.875,3.465-1.808,7.544l-0.653-25.681l0,0l-0.653-24.193L367.843,209.205z
		 M286.845,200.473c0,0,3.198,40,0,45.769c-0.907,1.645-1.671,4.568-2.304,7.903c-1.057-2.774-3.296-9.287-2.493-12.739
		c1.038-4.464-2.069-16.192-2.069-16.466c0-0.274-0.281-6.526,1.958-11.304c2.239-4.777,0.77-6.846,0.77-6.846
		S284.587,198.959,286.845,200.473z"/>
	<path style="fill:#D38885;" d="M294.637,290.562c-2.787,12.25-13.868-6.272-16.394-10.716c-0.326-0.581-0.509-0.92-0.509-0.92
		l1.201-5.632l6.35-2.611c1.006,0.525,1.958,1.146,2.845,1.853C291.609,275.271,296.785,281.073,294.637,290.562z"/>
	<path style="fill:#D38885;" d="M380.609,270.52c0,0,0,0.091-0.072,0.274c0,0.078-0.052,0.183-0.085,0.294
		c-1.09,3.824-7.551,25.355-13.79,19.377c-6.827-6.526-3.511-21.615-3.511-21.615h0.046l14.358-1.468l2.845,2.924l0,0
		L380.609,270.52z"/>
	<path style="fill:#454154;" d="M372.301,376.474l0.365,41.116c-5.632,9.333-5.169,17.621-5.169,17.621l-18.561,0.731
		c-4.529-3.048-1.305-11.539-1.305-11.539v-21.171c0,0-2.865-20.682-1.481-26.412s-5.815-16.316-5.815-16.316l-1.018-11.545
		c-3.511-4.614-5.175-30.099-5.175-30.099l-3.766-12.87c0.104,0.555,2.062,11.297,0,13.275c-2.062,1.977-2.865,10.71-2.865,10.71
		s2.03,24.2,0,29.088c-2.03,4.888,0.548,7.668,0.548,7.668l0.372,25.12c0,0-1.756,6.742,0.183,16.251c1.938,9.509,0,24.2,0,24.2
		h-19.912l0.091-10.253l-3.224-8.68c0,0-2.219-35.829-3.975-43.589c-1.051-4.598-0.397-9.422,1.84-13.575
		c0,0-3.687-5.906-3.505-10.064c0.183-4.157-2.845-12.087-2.845-12.087l-4.294-29.179c0.118-5.616-0.599-11.218-2.128-16.622
		c-2.493-8.315-6.187-19.213-6.187-19.213l4.17,0.372l21.041,1.873c0,0,51.16-3.439,53.451-0.581
		c0.483,0.935,0.81,1.942,0.966,2.983c2.297,10.318,5.332,42.643,5.332,42.643s6.187,25.211,3.531,27.704
		c-2.656,2.493-2.33,10.612-2.33,10.612C374.617,362.312,372.301,376.474,372.301,376.474z"/>
	<path style="fill:#B07574;" d="M329.051,447.892c-0.144,2.291-2.695,2.428-2.695,2.428c-7.479,1.175-9.072,4.085-9.072,4.085
		s-7.179,7.133-18.006,6.096c-9.202-0.888-8.308-2.526-7.832-5.56c0.093-0.565,0.143-1.137,0.15-1.71
		c0-4.157,3.185-5.339,8.171-8.484c4.986-3.146,4.849-5.75,6.924-8.034c2.075-2.284,2.291-6.716,2.291-6.716
		c2.349-4.092,8.308,0.653,8.308,0.653c0.281,1.449,9.137,1.246,9.137,1.246s1.175,4.712,1.782,4.986
		c0.398,0.183,0.698,3.877,0.816,7.048C329.09,445.595,329.103,447.102,329.051,447.892z"/>
	<path style="opacity:0.1;fill:#010101;enable-background:new    ;" d="M329.051,447.892c-0.144,2.291-2.695,2.428-2.695,2.428
		c-7.479,1.175-9.072,4.085-9.072,4.085s-7.179,7.133-18.006,6.096c-9.202-0.888-8.308-2.526-7.832-5.56
		c4.112,1.018,11.969,2.441,16.557-0.052c6.376-3.459,10.951-5.874,10.951-5.874l10.077-5.071
		C329.09,445.595,329.103,447.102,329.051,447.892z"/>
	<path style="fill:#B07574;" d="M385.418,460.22c-0.491,0.907-1.314,1.587-2.297,1.899l-0.176,0.046
		c-3.048,0.653-14.828,0.653-14.828,0.653s-11.911-9.209-15.513-9.417c-3.603-0.209-5.541-3.328-5.541-3.328s0.072-2.141,0.3-4.634
		c0.281-2.95,0.77-6.376,1.638-7.277c1.592-1.664,1.958-3.916,5.541-2.493c0,0,5.117-9.019,11.147-2.049l6.239,9.463
		c0,0,1.175,3.916,9.078,8.164c3.159,1.697,4.568,3.694,4.966,5.515C386.224,457.943,386.027,459.176,385.418,460.22z"/>
	<path style="opacity:0.1;fill:#010101;enable-background:new    ;" d="M385.418,460.22c-0.705,0.594-1.481,1.233-2.297,1.899
		l-0.176,0.046c-3.048,0.653-14.828,0.653-14.828,0.653s-11.911-9.209-15.513-9.417c-3.603-0.209-5.541-3.328-5.541-3.328
		s0.072-2.141,0.3-4.634c3.668,1.096,9.222,3.035,10.71,5.123c2.284,3.178,9.222,7.616,9.222,7.616s12.935-1.246,18.678-1.416
		C386.224,457.943,386.027,459.176,385.418,460.22z"/>
	<path style="fill:#F9BEBF;" d="M335.081,137.957l-17.034,18.006c0,0-20.643-1.521-17.04-7.616
		c1.834-3.107,2.121-9.607,1.958-15.259c-0.15-5.449-0.711-10.09-0.711-10.09s28.951-14.41,26.758-0.972
		c-0.472,2.532-0.499,5.127-0.078,7.668C330.167,136.482,335.081,137.957,335.081,137.957z"/>
	<path style="opacity:0.1;fill:#010101;enable-background:new    ;" d="M328.985,122.027c-0.472,2.532-0.499,5.127-0.078,7.668
		c-4,4.053-9.459,6.332-15.154,6.324c-3.916,0-8.151-3.217-11.317-5.077c-0.15-5.456-0.183-7.943-0.183-7.943
		S331.204,108.589,328.985,122.027z"/>
	<path style="fill:#F9BEBF;" d="M335.081,113.575c0.004,11.783-9.544,21.338-21.327,21.342
		c-11.783,0.004-21.338-9.544-21.342-21.327c-0.004-11.783,9.544-21.338,21.327-21.342c4.838-0.002,9.533,1.641,13.315,4.659
		C332.125,100.953,335.079,107.087,335.081,113.575z"/>
	<path style="opacity:0.1;fill:#010101;enable-background:new    ;" d="M364.104,273.685c-5.312,12.641-39.484,12.903-39.484,12.903
		v-13.784l-2.069-0.137c0.894,3.948-1.253,13.575-1.253,13.575c-27.006,3.811-33.591-11.578-33.591-11.578l0.94-5.267l21.041,1.873
		c0,0,51.16-3.439,53.451-0.581C363.622,271.628,363.949,272.64,364.104,273.685z"/>
	<path style="fill:#43A1DA;stroke:#030303;stroke-width:0.2113;stroke-miterlimit:10;" d="M324.619,284.923V271.14l-2.069-0.131
		c0.894,3.916-1.253,13.575-1.253,13.575c-20.323,2.865-29.081-5.136-32.168-9.274c-0.555-0.713-1.032-1.483-1.423-2.297
		l8.249-46.402l1.958-68.291l2.956-11.982l0.685-5.75v-0.065h0.072l2.101,0.901l12.576,5.436l14.286-10.788l0.209-0.15l0.711-0.542
		l1.181,0.946l2.937,2.356l9.417,60.819c0,0,16.316,46.826,19.37,65.726c0.124,0.757,0.222,1.462,0.3,2.121
		C366.734,284.603,324.619,284.923,324.619,284.923z"/>
	<circle style="fill:#69657F;" cx="317.832" cy="148.204" r="1.214"/>
	<circle style="fill:#69657F;" cx="318.393" cy="159.285" r="1.214"/>
	<circle style="fill:#69657F;" cx="319.607" cy="177.226" r="1.214"/>
	<circle style="fill:#69657F;" cx="321.611" cy="196.551" r="1.214"/>
	<circle style="fill:#69657F;" cx="322.825" cy="214.694" r="1.214"/>
	<circle style="fill:#69657F;" cx="324.039" cy="234.018" r="1.214"/>
	<circle style="fill:#69657F;" cx="323.556" cy="253.134" r="1.214"/>
	<path style="opacity:0.1;fill:#010101;enable-background:new    ;" d="M302.365,233.359c0,0-1.357,17.771-3.851,22.94
		c-2.493,5.169-3.603,19.67-3.603,19.67l-5.789-0.653c-0.555-0.713-1.032-1.483-1.423-2.297l8.249-46.402l1.958-68.291l2.963-11.989
		l0.685-5.75l0.078-0.033c0.655-0.31,1.417-0.298,2.062,0.033l0.274,0.144c-0.083,0.235-0.161,0.476-0.235,0.724
		c-2.258,7.068-3.1,20.095-3.1,20.095s3.263,23.828,3.603,34.909S302.365,233.359,302.365,233.359z"/>
	<path style="opacity:0.1;fill:#010101;enable-background:new    ;" d="M288.131,272.556c-0.063,0.149-0.138,0.293-0.222,0.431
		c-2.245,3.792-7.936,6.2-9.665,6.859c-0.326-0.581-0.509-0.92-0.509-0.92l1.201-5.632l6.35-2.611
		C286.292,271.214,287.245,271.842,288.131,272.556z"/>
	<path style="fill:#7154A2;stroke:#030303;stroke-width:0.2113;stroke-miterlimit:10;" d="M272.748,181.866l-5.267,3.139
		l-4.797,21.335c0,0-6.004,18.097-1.39,31.026s7.296,20.329,7.296,20.329s1.847,14.684,4.621,15.885s3.968,1.847,3.968,1.847
		l0.555,3.511c0,0,7.518-2.552,10.174-7.048s-1.958-15.663-1.958-15.663s-3.968-9.515-2.95-13.947s-2.036-16.068-2.036-16.316
		s-0.274-6.468,1.958-11.225c2.232-4.758,0.744-6.787,0.744-6.787l-1.39-13.575L272.748,181.866z"/>
	<path style="opacity:0.1;fill:#010101;enable-background:new    ;" d="M364.541,269.691c0,0-13.947,5.26-18.378,0.653
		c-4.431-4.608-3.975-26.229-3.975-26.229s-4.242-39.895-6.924-46.448c-2.682-6.552-1.305-53.842-1.305-53.842
		s-1.801-6.115-3.374-7.714c-0.099-0.103-0.211-0.193-0.333-0.268l0.542,0.117l1.893,0.405l2.937,2.356l9.417,60.819
		c0,0,16.316,46.826,19.37,65.726L364.541,269.691z"/>
	<path style="opacity:0.1;fill:#010101;enable-background:new    ;" d="M380.609,271.074h-0.157
		c-1.756,0.228-17.249,2.102-17.314-1.122c-0.002-0.373,0.017-0.745,0.059-1.116l14.358-1.468l2.845,2.924l0,0
		c0.052,0.189,0.091,0.352,0.131,0.483L380.609,271.074z"/>
	<path style="fill:#7154A2;stroke:#030303;stroke-width:0.2113;stroke-miterlimit:10;" d="M365.742,160.499l10.181,5.312
		c0,0,8.484,21.968,9.842,31.385c0,0,6.285,25.231,1.958,35.608c-4.327,10.377-3.968,30.974-3.968,30.974s-2.493,3.785-3.511,2.774
		s0.372,3.968,0.372,3.968s-17.406,2.31-17.477-1.109c-0.072-3.42,3.994-19.762,3.994-19.762s1.109-38.877-0.463-44.973
		C365.095,198.58,365.742,160.499,365.742,160.499z"/>
	<path style="opacity:0.1;fill:#010101;enable-background:new    ;" d="M335.362,201.909c0,0-5.73,14.032-7.577,14.958
		s0.372,4.614,0.372,4.614S338.592,206.895,335.362,201.909z"/>
	<path style="opacity:0.1;fill:#010101;enable-background:new    ;" d="M331.942,152.687c0.065-0.268-6.833,6.768-8.68,7.832
		C321.415,161.583,330.004,160.453,331.942,152.687z"/>
	<path style="opacity:0.1;fill:#010101;enable-background:new    ;" d="M312.735,200.799c0,0-10.527,6.807-9.137,9.502
		C304.988,212.997,312.735,200.799,312.735,200.799z"/>
	<path style="opacity:0.1;fill:#010101;enable-background:new    ;" d="M331.85,300.162c0,0,8.961,5.763,22.901,7.179
		L331.85,300.162z"/>
	<path style="opacity:0.1;fill:#010101;enable-background:new    ;" d="M310.333,314.018c0,0,8.308,10.442,12.1,10.71
		C326.225,324.995,310.333,314.018,310.333,314.018z"/>
	<path style="opacity:0.1;fill:#010101;enable-background:new    ;" d="M321.97,354.938c-0.372,0.183-4.712,9.417-9.137,9.698
		C308.408,364.916,321.97,354.938,321.97,354.938z"/>
	<path style="opacity:0.1;fill:#010101;enable-background:new    ;" d="M360.475,375.169c0,0,8.236-1.847,10.07,4.059
		C370.545,379.209,369.99,377.362,360.475,375.169z"/>
	<path style="opacity:0.1;fill:#010101;enable-background:new    ;" d="M354.934,408.949c0,0,9.979-2.036,12.1,0.737
		C369.155,412.46,354.934,408.949,354.934,408.949z"/>
	<path style="opacity:0.1;fill:#010101;enable-background:new    ;" d="M326.708,413.674c0,0.091-10.155,2.036-9.789,3.328
		c0.365,1.292,10.834,1.109,11.206-0.927c0.278-1.045-0.345-2.117-1.39-2.395C326.725,413.679,326.717,413.677,326.708,413.674z"/>
	<path style="opacity:0.1;fill:#010101;enable-background:new    ;" d="M351.612,422.433c0,0,16.688-2.036,15.663,1.475
		C366.251,427.419,351.612,422.433,351.612,422.433z"/>
	<path style="opacity:0.1;fill:#010101;enable-background:new    ;" d="M264.251,216.867c0.091,0.274,10.99,1.756,12.465,5.267
		c0,0-10.71-4.993-12.4-4.993"/>
	<path style="opacity:0.1;fill:#010101;enable-background:new    ;" d="M279.581,245.4c0,0-9.052,2.865-8.406,7.179
		C271.822,256.893,270.255,250.582,279.581,245.4z"/>
	<path style="opacity:0.1;fill:#010101;enable-background:new    ;" d="M275.365,267.381c0,0,3.296-4.523,6.435-3.694
		C284.939,264.516,275.365,267.381,275.365,267.381z"/>
	<path style="opacity:0.1;fill:#010101;enable-background:new    ;" d="M327.054,96.907c-0.317,0.308-0.672,0.573-1.057,0.79
		c-2.611,1.521-3.328,3.864-4.568,6.565c-1.155,2.473-2.428,5.091-4.758,6.494c-3.009,1.814-6.97,1.149-10.096,2.728
		c-2.839,1.478-4.493,4.535-4.177,7.721c0.199,1.201,0.495,2.384,0.888,3.537c0.711,2.496,1.032,5.087,0.953,7.681
		c0.007,0.076,0.007,0.152,0,0.228c-10.537-5.265-14.811-18.074-9.547-28.612c5.265-10.537,18.074-14.811,28.612-9.547
		c1.34,0.67,2.606,1.479,3.777,2.414H327.054z"/>
	<path style="fill:#5A5369;" d="M326.499,90.485c-2.343-4.921-7.44-8.04-12.681-9.561c-4.001-1.155-8.347-1.534-12.315-0.261
		c-2.265,0.718-4.32,1.958-6.441,3.022c-3.955,1.997-8.301,3.576-11.277,6.859c-0.698,0.764-1.305,1.743-1.129,2.754
		c0.15,0.751,0.737,1.305,1.116,1.997c0.855,1.501,0.653,3.387,0.059,5.019s-1.436,3.146-1.84,4.823
		c-0.405,1.677-0.248,3.642,0.992,4.836c0.555,0.529,1.266,0.861,1.867,1.305c0.678,0.586,1.274,1.262,1.769,2.01l3.524,4.816
		c1.656,2.134,3.131,4.402,4.412,6.781c0.875,1.749,1.553,3.616,2.728,5.175c1.175,1.56,3.002,2.813,4.947,2.643
		c0.305,0.008,0.596-0.13,0.783-0.372c0.072-0.153,0.106-0.321,0.098-0.489c0.086-2.585-0.229-5.167-0.933-7.655
		c-0.393-1.153-0.69-2.336-0.888-3.537c-0.307-3.183,1.344-6.236,4.177-7.721c3.133-1.579,7.094-0.914,10.096-2.721
		c2.336-1.41,3.609-4.027,4.758-6.526c1.26-2.702,1.958-5.045,4.568-6.565S327.798,93.076,326.499,90.485z"/>
	<path style="opacity:0.1;fill:#010101;enable-background:new    ;" d="M316.944,439.166c0,0,3.263,4.157,2.415,6.526
		S316.944,439.166,316.944,439.166z"/>
	<path style="opacity:0.1;fill:#010101;enable-background:new    ;" d="M361.095,449.569c0,0,0.724-5.573,3.629-5.626
		c2.904-0.052,3.048-0.3,5.267,0.555c2.219,0.855,4.301,2.18,3.635,2.376c-0.666,0.196-3.818-3.185-7.055-1.455
		C364.55,446.524,362.705,447.923,361.095,449.569z"/>
	<path style="opacity:0.1;fill:#010101;enable-background:new    ;" d="M307.207,153.849l9.137-6.402c0,0-13.366-7.897-14.958-6.787
		c-1.592,1.109-2.689,11.095-2.689,11.095L307.207,153.849z"/>
	<path style="fill:#E1E6EE;" d="M307.168,153.438l9.137-6.526c0,0-13.366-7.897-14.958-6.787
		c-1.592,1.109-2.689,11.643-2.689,11.643L307.168,153.438z"/>
	<path style="fill:#43A1DA;stroke:#030303;stroke-width:0.2113;stroke-miterlimit:10;" d="M307.168,153.438l9.137-6.526
		c0,0-13.366-7.897-14.958-6.787c-1.592,1.109-2.689,11.643-2.689,11.643L307.168,153.438z"/>
	<path style="fill:#7154A2;stroke:#030303;stroke-width:0.2113;stroke-miterlimit:10;" d="M302.861,140.176l-0.274-0.137
		c-0.833-0.425-1.838-0.32-2.565,0.268l-27.41,22.235c0,0-5.959,8.243-5.13,22.464l16.166,22.901c0,0,1.847-7.753,4.059-6.278
		c0,0,3.139,39.713,0,45.436c-3.139,5.724-4.523,27.149-4.523,27.149l10.618,1.201c0,0,1.109-14.501,3.603-19.67
		c2.493-5.169,3.851-22.94,3.851-22.94s2.245-25.818,1.873-36.9c-0.372-11.082-3.603-34.909-3.603-34.909
		S300.433,147.029,302.861,140.176z"/>
	<path style="opacity:0.1;fill:#010101;enable-background:new    ;" d="M330.167,149.803l-11.388-4.216
		c0,0,14.501-15.885,16.316-7.075L330.167,149.803z"/>
	<path style="fill:#E1E6EE;" d="M330.167,149.248l-11.388-4.216c0,0,14.501-15.885,16.316-7.075L330.167,149.248z"/>
	<path style="fill:#43A1DA;stroke:#030303;stroke-width:0.2113;stroke-miterlimit:10;" d="M330.167,149.248l-11.388-4.216
		c0,0,14.501-15.885,16.316-7.075L330.167,149.248z"/>
	<path style="opacity:0.1;fill:#010101;enable-background:new    ;" d="M329.795,135.732c0.164-0.026,0.332,0.011,0.47,0.104
		L329.795,135.732z"/>
	<path style="fill:#7154A2;stroke:#030303;stroke-width:0.2113;stroke-miterlimit:10;" d="M330.891,134.629l30.217,6.526
		c0,0,8.315,1.847,14.319,22.718c6.004,20.871-8.223,46.441-8.223,46.441l-3.139-2.669l1.573,60.949c0,0-13.947,5.26-18.378,0.653
		c-4.431-4.608-3.968-26.249-3.968-26.249s-4.249-39.889-6.931-46.448c-2.682-6.559-1.305-53.836-1.305-53.836
		S332.588,134.263,330.891,134.629z"/>
	<path style="opacity:0.1;fill:#010101;enable-background:new    ;" d="M358.537,173.467c-0.424,0.392-0.92,18.835,0.927,32.873
		c1.129,8.549,2.874,17.005,5.221,25.303l-2.741-56.237C361.943,175.405,359.829,172.266,358.537,173.467z"/>
	<path style="opacity:0.1;fill:#010101;enable-background:new    ;" d="M354.843,157.582c0.737,0.463,3.975,8.125,2.493,11.264
		C355.854,171.985,354.843,157.582,354.843,157.582z"/>
	<path style="opacity:0.1;fill:#010101;enable-background:new    ;" d="M326.323,90.485c-1.483-2.921-3.794-5.341-6.644-6.957
		c2.119,1.517,3.83,3.535,4.98,5.874c1.305,2.611,0.92,5.221-1.619,6.65c-2.539,1.429-3.328,3.864-4.568,6.565
		c-1.155,2.473-2.428,5.091-4.764,6.526c-3.002,1.814-6.964,1.142-10.096,2.721c-2.831,1.49-4.481,4.543-4.177,7.727
		c0.201,1.199,0.5,2.38,0.894,3.531c0.711,2.496,1.032,5.087,0.953,7.681c0.006,0.169-0.03,0.337-0.104,0.489
		c-0.183,0.243-0.473,0.382-0.777,0.372c-0.783,0.06-1.569-0.086-2.278-0.424c1.038,1.029,2.455,1.584,3.916,1.534
		c0.421,0.061,0.812-0.23,0.873-0.651c0.01-0.07,0.011-0.14,0.002-0.21c0.085-2.594-0.235-5.186-0.946-7.681
		c-0.398-1.152-0.697-2.335-0.894-3.537c-0.307-3.183,1.344-6.236,4.177-7.721c3.133-1.579,7.094-0.914,10.096-2.721
		c2.336-1.41,3.609-4.027,4.758-6.526c1.26-2.702,1.958-5.045,4.568-6.565C327.282,95.641,327.628,93.076,326.323,90.485z"/>
	
		<linearGradient id="SVGID_2_" gradientUnits="userSpaceOnUse" x1="479.8119" y1="37.7179" x2="479.8119" y2="436.3478" gradientTransform="matrix(1 0 0 -1 -31.16 534.8791)">
		<stop  offset="0" style="stop-color:#818181;stop-opacity:0.25"/>
		<stop  offset="0.54" style="stop-color:#818181;stop-opacity:0.12"/>
		<stop  offset="1" style="stop-color:#818181;stop-opacity:0.1"/>
	</linearGradient>
	<path style="fill:url(#SVGID_2_);" d="M512.238,172.442c-8.993-0.176-16.929-6.526-21.426-14.286
		c-1.179-1.846-1.921-3.938-2.167-6.115c0.031-0.495,0.114-0.985,0.248-1.462c0.275-0.728,0.493-1.477,0.653-2.239
		c0.036-0.304,0.036-0.61,0-0.914c0,0,0,0,0-0.052c0.215-1.651-0.757-3.263-1.958-4.392c-1.201-1.129-2.708-1.958-3.961-3.08
		c-3.864-3.394-5.038-8.837-5.11-14.019v-0.274c0.046-2.219,0.222-4.444,0.202-6.663c0.031-1.26-0.024-2.52-0.163-3.772
		c-0.372-3.139-1.566-6.337-4.033-8.341c-6.435-5.221-17.256,0.215-23.919-4.719c-1.618-1.207-2.93-2.989-4.895-3.459
		c-1.482-0.359-3.022,0.124-4.471,0.607c-4.908,1.619-10.383,3.746-12.302,8.484c-1.096,2.721-0.79,5.828-1.795,8.582
		c-0.653,1.847-1.899,3.433-2.806,5.182c-0.745,1.317-1.106,2.815-1.044,4.327c-0.081,0.782,0.029,1.573,0.32,2.304
		c0.341,0.881,0.889,1.667,1.599,2.291c-0.256,0.545-0.576,1.058-0.953,1.527c-1.253,1.534-3.178,2.611-4.484,4.138
		c-2.415,2.8-2.323,6.605-1.136,9.894c1.188,3.289,3.335,6.285,4.816,9.489c0.653,1.39,1.149,2.943,0.489,4.327
		c-0.463,0.959-1.423,1.69-2.167,2.519c-1.089,1.22-1.773,2.748-1.958,4.373c-14.691,3.355-14.704,15.161-14.704,15.161l0,0
		l-7.936,19.957c0,0-1.273,3.361-2.767,7.799l-9.391-1.684l6.526,10.925c-1.233,4.451-2.108,8.576-1.821,10.651
		c0,0-2.917,13.705,2.271,16.1l11.447,5.149c0.496,0.304,1.029,0.543,1.586,0.711l0.463,0.209c0.338,0.164,0.732,0.164,1.07,0h0.033
		h0.124c0.222,0.015,0.445-0.018,0.653-0.098c0.255-0.137,0.457-0.355,0.574-0.62c-0.004-0.022-0.004-0.044,0-0.065l3.426-0.992
		l2.904,3.439c1.305,0.92,2.611,1.716,3.844,2.434l-4.497,44.653c0,0-0.724,59.389-2.917,72.925
		c-0.809,5.012-0.816,8.432-0.509,10.755l-0.085,0.144c0.542,3.818,1.958,4.568,1.958,4.568v-0.052
		c0.026,0.021,0.055,0.038,0.085,0.052c0.661-1.734,1.446-3.418,2.349-5.038c0,0.32,0,0.653,0,0.979
		c-0.046,5.038-0.202,12.093-0.724,16.681c-0.888,7.832,2.271,33.643,2.271,33.643l1.09,23.495c0.177,3.989-0.749,7.95-2.676,11.447
		c-2.611,4.692-5.945,11.297-6.187,14.227c-0.013,0.159-0.013,0.318,0,0.476l0,0l-5.6,6.735c0,0-2.186,3.381,2.754,4.745
		c2.656,0.737,7.238,0,10.918-0.868c3.308-0.762,5.654-3.706,5.658-7.101c0.93-3.236,2.502-6.252,4.621-8.869l0.92,5.41l6.161,1.527
		l0.79-14.828c0.318-0.832,0.462-1.721,0.424-2.611l0,0c1.214-10.546-2.859-9.6-2.859-9.6c0.109,0.093,0.179,0.223,0.196,0.365
		l-0.196-0.359l0,0c-2.5-4.934-1.305-13.053-1.305-13.053s3.263-23.495,4.379-29.701c0.803-4.386,0.47-18.744,0.202-26.758
		c0-0.333,0-0.653-0.033-0.972c9.555-0.124,21.263-0.444,29.479-1.24v0.966l-1.514,55.506c-0.104,3.539-0.824,7.033-2.128,10.325
		c0,0.065-0.046,0.124-0.072,0.189c-1.801,4.649-2.818,9.565-3.009,14.547l-0.705,17.621v0.489l0,0
		c-1.227,0.47-3.165,1.834-3.217,5.789c-0.085,5.795,10.129,3.864,10.129,3.864c10.207,0,10.292-10.625,10.292-10.625
		s0.32-9.744,0.809-16.264s-1.54-5.084-1.54-5.084l-0.157,18.548c0,0.046,0,0.091,0,0.144v-16.257l0.157-2.356v-0.065l0,0v-0.503
		l1.286-19.129c0,0,9.404-31.875,10.86-37.99c1.038-4.346,0.607-17.438,0.268-24.676c0-0.333,0-0.653-0.052-0.959
		c2.917-0.261,5.495-0.287,6.526-0.287h0.476c0,0-0.483-51.192-1.703-70.484c-1.22-19.292-3.159-36.945-8.021-42.258
		c-2.937-3.211-7.029-13.124-9.789-20.466c5.803,2.509,11.827,4.476,17.993,5.874c15.396,3.224,13.288-10.142,13.288-10.142
		l-1.56-25.276h0.104c-0.057-6.621-0.624-13.228-1.697-19.762c-0.816-5.012-2.062-10.194-3.968-14.358
		c1.671-0.653,3.322-1.351,4.94-2.069c4.183-1.847,8.895-4.464,9.496-8.974h-0.202C512.162,173.109,512.214,172.777,512.238,172.442
		z M416.803,208.99L416.803,208.99c0.033,2.611-0.065,7.14-0.222,12.145l-4.888-6.526l4.901-7.949L416.803,208.99z M484.338,232.119
		l-8.145-2.611c1.444-2.253,3.132-4.341,5.032-6.226l0.705-0.653l-0.255,0.052l0.392-0.359l0.235-0.052l-0.372,0.359l0.444-0.091
		c0.49,2.046,1.439,3.954,2.774,5.58c2.924,3.191-0.803,4.001-0.803,4.001H484.338z"/>
	<polygon style="fill:#A27772;" points="434.862,467.06 433.909,485.124 427.833,483.604 426.554,476.092 	"/>
	<polygon style="opacity:0.1;fill:#010101;enable-background:new    ;" points="434.862,467.06 433.909,485.124 427.833,483.604 
		426.554,476.092 	"/>
	<path style="fill:#F9BEBF;" d="M457.162,487.52l9.267,1.919l6.872-6.069v-17.105l0.157-2.336v-0.072l0,0v-0.496l1.279-19.011
		c0,0,9.274-31.646,10.716-37.722c1.018-4.307,0.594-17.308,0.255-24.493c-0.137-2.943-0.255-4.914-0.255-4.914l-20.46-4.953
		l-0.431,15.728l-1.495,55.108c-0.103,3.513-0.812,6.981-2.095,10.253l-0.072,0.189c-1.779,4.615-2.783,9.493-2.969,14.436
		l-0.692,17.523v0.483L457.162,487.52z"/>
	<path style="opacity:0.1;fill:#010101;enable-background:new    ;" d="M473.458,463.372v0.483l0,0v-0.496V463.372z"/>
	<path style="opacity:0.1;fill:#010101;enable-background:new    ;" d="M457.162,487.52l9.267,1.919l6.872-6.069v-1.455
		c-0.045,0.654-0.415,1.242-0.985,1.566l-0.098,0.059c-3.192,1.687-6.809,2.402-10.403,2.056l-3.616-0.307
		c-0.33,0.031-0.653,0.11-0.959,0.235v0.483L457.162,487.52z"/>
	<path style="fill:#B07574;" d="M472.218,484.015l0.098-0.052c0.614-0.345,0.995-0.993,0.999-1.697l0.15-18.411
		c0,0,1.997-1.429,1.514,5.045s-0.796,16.146-0.796,16.146s-0.078,10.547-10.148,10.547c0,0-10.07,1.919-9.992-3.837
		c0.078-5.756,4.157-5.991,4.157-5.991l3.616,0.313C465.41,486.424,469.028,485.707,472.218,484.015z"/>
	<path style="fill:#F9BEBF;" d="M408.894,483.604c0.235,4.157,12.465,1.756,12.465,1.756l8.23-15.976c0,0,6.872-5.28,3.433-9.913
		c-0.184-0.252-0.352-0.516-0.503-0.79c0,0,0,0-0.033-0.039l0,0c-0.072-0.117-0.137-0.241-0.202-0.372l0,0
		c-2.467-4.895-1.253-12.922-1.253-12.922s3.191-23.338,4.314-29.492c0.79-4.347,0.463-18.607,0.202-26.582
		c-0.104-3.315-0.202-5.541-0.202-5.541l-20.303-5.436c0,0,0,2.532,0,6.056c-0.046,5.006-0.202,12.008-0.718,16.564
		c-0.875,7.747,2.239,33.402,2.239,33.402l1.077,23.345c0.187,3.955-0.716,7.885-2.611,11.362
		c-2.545,4.66-5.874,11.225-6.102,14.129C408.904,483.302,408.893,483.453,408.894,483.604z"/>
	<path style="opacity:0.1;fill:#010101;enable-background:new    ;" d="M408.894,483.604c0.235,4.157,12.465,1.756,12.465,1.756
		l8.23-15.976c0,0,6.872-5.28,3.433-9.913c-0.184-0.252-0.352-0.516-0.503-0.79c-0.111,2.421-2.767,8.484-2.767,8.484
		s-6.794,13.594-8.954,16.707c-2.16,3.113-11.545-0.581-11.897-0.711C408.887,483.307,408.884,483.456,408.894,483.604z"/>
	<path style="fill:#B07574;" d="M432.284,458.249c0,0,4.02-0.933,2.819,9.535l0,0c0.093,2.421-1.12,4.706-3.178,5.985
		c-2.878,1.808-7.316,5.697-9.561,13.261l0,0c0.004,3.361-2.308,6.281-5.58,7.048c-3.629,0.848-8.151,1.592-10.768,0.861
		c-4.875-1.357-2.715-4.712-2.715-4.712l5.593-6.637c0,0,9.75,3.837,11.904,0.718s8.954-16.701,8.954-16.701
		S433.478,459.13,432.284,458.249z"/>
	<path style="opacity:0.1;fill:#010101;enable-background:new    ;" d="M464.994,374.203l-0.431,15.728
		c5.449-0.529,9.352-1.266,10.018-2.304c1.442-2.232,6.676-3.172,11.127-3.557c-0.137-2.943-0.255-4.914-0.255-4.914
		L464.994,374.203z"/>
	<path style="opacity:0.1;fill:#010101;enable-background:new    ;" d="M415.041,386.264c0.521-1.066,1.288-1.992,2.238-2.702
		c2.154-1.194,1.919,7.675,1.919,7.675s7.179,0.065,16.348-0.052c-0.104-3.315-0.202-5.547-0.202-5.547l-20.303-5.43
		C415.041,380.207,415.081,382.727,415.041,386.264z"/>
	<path style="fill:#454154;" d="M412.725,388.365c0,0,2.402-6.526,4.568-7.688c2.167-1.162,1.919,7.668,1.919,7.668
		s52.746,0.483,55.382-3.596c2.637-4.079,17.98-3.837,17.98-3.837s-0.476-50.827-1.677-70.001
		c-1.201-19.174-3.113-36.684-7.91-41.958c-3.1-3.413-7.512-14.456-10.24-21.817c-1.482-4.02-2.467-6.951-2.467-6.951l-50.344,2.872
		l-0.411,4.079l-5.345,53.464c0,0-0.718,58.978-2.878,72.403C409.142,386.427,412.725,388.365,412.725,388.365z"/>
	<g style="opacity:0.1;">
		<path style="fill:#010101;" d="M470.495,384.75c2.611-4.072,17.98-3.837,17.98-3.837s-0.476-50.827-1.677-70.001
			c-1.201-19.174-3.113-36.684-7.91-41.958c-3.113-3.426-7.512-14.456-10.24-21.817c-1.247-3.381-2.141-5.985-2.389-6.729
			l3.916-0.222c0,0,0.985,2.93,2.473,6.951c2.728,7.362,7.133,18.404,10.233,21.817c4.797,5.273,6.716,22.777,7.91,41.958
			c1.194,19.181,1.684,70.001,1.684,70.001s-15.343-0.235-17.987,3.837c-2.252,3.479-41.064,3.642-52.328,3.609
			C436.617,388.326,468.459,387.895,470.495,384.75z"/>
		<path style="fill:#010101;" d="M413.194,380.677c0.972-0.542,1.455,0.959,1.697,2.78c-0.871,1.58-1.628,3.22-2.265,4.908
			c0,0-1.39-0.751-1.958-4.568C411.465,382.433,412.346,381.147,413.194,380.677z"/>
	</g>
	<path style="fill:#5A5369;" d="M428.283,117.21c-3.485,4.751,0.039,11.506-3.7,16.127c-1.233,1.527-3.133,2.611-4.418,4.112
		c-2.382,2.78-2.291,6.559-1.123,9.822s3.263,6.239,4.751,9.424c0.653,1.377,1.136,2.924,0.483,4.294
		c-0.457,0.953-1.403,1.677-2.141,2.5c-2.402,2.682-2.467,6.409-1.175,9.568c1.292,3.159,3.759,5.874,6.193,8.549
		c0.959,1.051,2.173,2.212,3.772,2.18c0.841-0.064,1.654-0.33,2.369-0.777c11.503-5.875,16.345-19.762,10.99-31.516
		c-2.023-4.849-5.397-9.496-5.43-14.619c0-4.066,2.088-7.949,2.46-11.995c0.45-4.921-2.46-12.733-8.399-14.88
		C433.309,113.157,430.052,114.769,428.283,117.21z"/>
	<path style="opacity:0.1;fill:#010101;enable-background:new    ;" d="M428.283,117.21c-3.485,4.751,0.039,11.506-3.7,16.127
		c-1.233,1.527-3.133,2.611-4.418,4.112c-2.382,2.78-2.291,6.559-1.123,9.822s3.263,6.239,4.751,9.424
		c0.653,1.377,1.136,2.924,0.483,4.294c-0.457,0.953-1.403,1.677-2.141,2.5c-2.402,2.682-2.467,6.409-1.175,9.568
		c1.292,3.159,3.759,5.874,6.193,8.549c0.959,1.051,2.173,2.212,3.772,2.18c0.841-0.064,1.654-0.33,2.369-0.777
		c11.503-5.875,16.345-19.762,10.99-31.516c-2.023-4.849-5.397-9.496-5.43-14.619c0-4.066,2.088-7.949,2.46-11.995
		c0.45-4.921-2.46-12.733-8.399-14.88C433.309,113.157,430.052,114.769,428.283,117.21z"/>
	<path style="opacity:0.1;fill:#010101;enable-background:new    ;" d="M466.932,290.033c-6.977,0.365-13.542,3.368-19.651,6.761
		c-6.109,3.394-12.022,7.238-18.594,9.646"/>
	<path style="opacity:0.1;fill:#010101;enable-background:new    ;" d="M462.599,306.473c-6.901,0.658-13.333,3.787-18.111,8.811
		c-1.697,1.795-3.159,3.805-4.927,5.528c-2.707,2.642-6.053,4.538-9.711,5.502"/>
	<path style="opacity:0.1;fill:#010101;enable-background:new    ;" d="M464.028,318.984c-5.566,1.545-10.603,4.582-14.567,8.784
		c-1.07,1.155-2.043,2.389-3.113,3.544c-5.776,6.2-13.934,9.489-21.811,12.602"/>
	<path style="fill:#F9BEBF;" d="M463.434,145.482c0.154,5.575,0.633,11.136,1.436,16.655c0.653,3.916,1.566,7.44,2.878,9
		c3.837,4.568-18.698,10.671-18.698,10.671l-13.307-10.312c0,0,10.547-9.711,5.632-19.181
		C436.461,142.846,463.434,145.482,463.434,145.482z"/>
	<path style="opacity:0.1;fill:#010101;enable-background:new    ;" d="M419.512,247.136h53.222
		c-1.481-4.02-2.467-6.951-2.467-6.951l-50.344,2.872L419.512,247.136z"/>
	<path style="fill:#43A1DA;stroke:#030303;stroke-width:0.2113;stroke-miterlimit:10;" d="M416.086,246.177h56.903
		c-1.599-5.724,0-11.016,2.278-15.089c1.597-2.854,3.604-5.458,5.959-7.727l0.392-0.359l19.866-4.399l1.07-0.235
		c0,0,0.163-36.123-12.628-41.083c-12.792-4.96-20.46-11.663-20.46-11.663l-17.575,5.43l-12.948-6.526
		c-4.157,4.471-15.187,2.715-15.187,2.715c-18.058,2.075-18.058,15.663-18.058,15.663s10.547,24.611,11.349,24.611
		S416.086,246.177,416.086,246.177z"/>
	<path style="opacity:0.1;fill:#010101;enable-background:new    ;" d="M435.73,223.21c0,0-11.604-2.571-15.552-7.068"/>
	<path style="opacity:0.1;fill:#010101;enable-background:new    ;" d="M494.238,209.734l-13.457,11.029
		c0.098,0.878,0.246,1.75,0.444,2.611l0.392-0.359l19.866-4.399L494.238,209.734z"/>
	<path style="opacity:0.1;fill:#010101;enable-background:new    ;" d="M457.802,242.339c0,0,2.943,1.658,7.453,3.837h7.734
		c-1.599-5.724,0-11.016,2.278-15.089l-13.633-4.412C466.273,230.99,457.802,242.339,457.802,242.339z"/>
	<path style="fill:#43A1DA;stroke:#030303;stroke-width:0.2113;stroke-miterlimit:10;" d="M413.684,178.571l-7.988,4.314
		l-7.832,19.82c0,0-8.151,21.733-7.355,27.489c0,0-2.872,13.588,2.239,15.983l13.314,6.03c0.627,0.276,1.359-0.007,1.635-0.634
		c0.152-0.345,0.139-0.741-0.036-1.076c-1.899-3.596-3.988-9.222-0.653-12.315l-3.837-7.988l13.868-22.699l4.634-7.832
		L413.684,178.571z"/>
	<path style="opacity:0.1;fill:#010101;enable-background:new    ;" d="M431.455,218.675c0.692,2.819,3.028,7.179,10.762,8.804
		l8.484,6.951l9.026,4.092l3.681,1.664l1.56-11.271l-3.544-1.958l-4.131-2.258c0,0-9.32-16.884-24.076-9.789
		C431.803,215.579,431.063,217.159,431.455,218.675z"/>
	<path style="fill:#CD828D;" d="M431.938,217.715c0.692,2.826,3.022,7.179,10.755,8.804l8.484,6.951l9.032,4.092l3.674,1.664
		l1.56-11.271l-3.544-1.958l-4.099-2.238c0,0-9.326-16.884-24.082-9.757C432.321,214.661,431.577,216.212,431.938,217.715z"/>
	<circle style="opacity:0.1;fill:#010101;enable-background:new    ;" cx="448.567" cy="139.484" r="20.617"/>
	<circle style="fill:#F9BEBF;" cx="448.567" cy="139.008" r="20.617"/>
	<path style="opacity:0.1;fill:#010101;enable-background:new    ;" d="M461.339,183.061l-6.2-12.048c0,0,9.072-3.668,9.731-7.916
		c0.659-4.249,8.693,4.98,6.957,8.04C470.091,174.198,461.339,183.061,461.339,183.061z"/>
	<path style="fill:#43A1DA;stroke:#030303;stroke-width:0.2113;stroke-miterlimit:10;" d="M461.339,182.101l-6.2-12.048
		c0,0,9.072-3.668,9.731-7.916c0.659-4.249,8.693,4.986,6.957,8.04C470.091,173.232,461.339,182.101,461.339,182.101z"/>
	<path style="fill:#F6F7FA;" d="M410.597,213.225l34.257,46.056c0,0-12.628,6.872-30.021-5.43l-7.512-8.954l-21.445-36.149
		L410.597,213.225z"/>
	<path style="fill:#CD828D;" d="M403.855,238.267l3.12-0.085c0,0,19.057-18.496,23.736-9.137
		c4.679,9.359-11.871,18.104-11.871,18.104l-5.032,2.715l-6.559,1.958l-4.196-5.632L403.855,238.267z"/>
	<path style="opacity:0.1;fill:#010101;enable-background:new    ;" d="M408.456,248.258c0.287,1.064,0.561,2.239,0.078,3.224
		c-0.116,0.264-0.315,0.482-0.568,0.62c-0.208,0.08-0.431,0.111-0.653,0.091c-1.651-0.141-3.187-0.901-4.301-2.128
		c-1.094-1.223-2.03-2.578-2.787-4.033c-0.848-1.481-1.729-3.12-1.429-4.803c0.339-1.834,1.958-3.107,3.544-4.138
		c3.159-2.088,3.263,0.346,3.955,3.035C406.988,242.816,407.732,245.544,408.456,248.258z"/>
	<path style="fill:#6466AF;" d="M407.98,248.258c0.281,1.064,0.561,2.239,0.078,3.224c-0.116,0.264-0.315,0.482-0.568,0.62
		c-0.208,0.079-0.431,0.111-0.653,0.091c-1.652-0.137-3.189-0.898-4.301-2.128c-1.098-1.221-2.036-2.576-2.793-4.033
		c-0.848-1.481-1.729-3.12-1.423-4.803c0.333-1.834,1.958-3.107,3.537-4.138c3.165-2.088,3.263,0.346,3.961,3.035
		C406.518,242.816,407.249,245.544,407.98,248.258z"/>
	<polygon style="opacity:0.1;fill:#010101;enable-background:new    ;" points="417.045,207.495 418.637,204.8 417.247,209.805 	"/>
	<path style="opacity:0.1;fill:#010101;enable-background:new    ;" d="M460.236,237.562l3.674,1.664l1.56-11.271l-3.544-1.958
		C464.374,228.804,462.233,233.992,460.236,237.562z"/>
	<path style="opacity:0.1;fill:#010101;enable-background:new    ;" d="M474.986,224.477c0,0-11.865,0.724-16.903-2.513"/>
	<g style="opacity:0.1;">
		<path style="fill:#010101;" d="M473.511,232.047c1.597-2.856,3.604-5.462,5.959-7.734c0.565-0.354,1.151-0.672,1.756-0.953
			l18.496-3.798l1.07-0.235c0,0,0.163-36.123-12.622-41.083c-7.172-2.727-13.894-6.513-19.944-11.232l1.403-0.431
			c0,0,7.668,6.709,20.46,11.663c12.792,4.953,12.622,41.083,12.622,41.083h-1.919l-18.926,3.622c0,0-0.816,0.79-1.064,1.018
			c-2.374,2.377-4.409,5.07-6.05,8.001c-2.504,4.65-3.074,10.1-1.586,15.167h-1.958C469.627,241.412,471.259,236.12,473.511,232.047
			z"/>
		<path style="fill:#010101;" d="M422.997,168.285c0.307-0.046,0.6-0.091,0.92-0.124c1.298,0.184,2.605,0.291,3.916,0.32
			C426.218,168.525,424.603,168.46,422.997,168.285z"/>
		<path style="fill:#010101;" d="M450.127,172.012l-11.708-5.926c0.232-0.191,0.45-0.398,0.653-0.62l12.217,6.18L450.127,172.012z"
			/>
	</g>
	<path style="fill:#43A1DA;stroke:#030303;stroke-width:0.2113;stroke-miterlimit:10;" d="M494.702,208.748l7.832,9.594
		l1.599,26.053c0,0,2.075,13.261-13.105,10.064c-15.18-3.198-32.749-13.079-32.749-13.079s8.484-11.349,3.837-15.663l21.739,7.035
		c0,0,3.674-0.803,0.796-3.994c-2.878-3.191-3.387-8.954-3.387-8.954L494.702,208.748z"/>
	<path style="opacity:0.1;fill:#010101;enable-background:new    ;" d="M498.239,236.27l4.314,4.953
		C500.289,240.528,498.616,238.607,498.239,236.27z"/>
	<polygon style="opacity:0.1;fill:#010101;enable-background:new    ;" points="490.884,235.467 497.599,244.095 494.245,244.897 	
		"/>
	<path style="opacity:0.1;fill:#010101;enable-background:new    ;" d="M423.943,129.545c-0.737-1.808-0.17-3.916,0.718-5.619
		c0.888-1.703,2.108-3.315,2.774-5.149c0.986-2.728,0.685-5.815,1.762-8.484c1.899-4.732,7.296-6.846,12.132-8.484
		c1.429-0.476,2.95-0.953,4.412-0.6c1.958,0.463,3.231,2.239,4.829,3.433c6.565,4.895,17.242-0.496,23.593,4.686
		c2.428,1.958,3.609,5.162,3.975,8.275c0.365,3.113,0,6.272-0.039,9.411c-0.104,5.495,0.927,11.506,5.038,15.148
		c1.24,1.096,2.702,1.919,3.916,3.054c1.214,1.136,2.167,2.721,1.958,4.366c-0.161,0.755-0.379,1.497-0.653,2.219
		c-0.816,2.865,0.405,5.874,1.893,8.484c4.438,7.681,12.263,14.012,21.132,14.188c-0.594,4.477-5.221,7.075-9.365,8.908
		c-5.221,2.343-10.781,4.64-16.531,4.347c-5.75-0.294-11.747-3.975-12.752-9.639c-0.346-1.958-0.3-4.314-1.958-5.332
		c-1.018-0.62-2.336-0.463-3.433-0.927c-1.586-0.653-2.369-2.434-2.891-4.072c-1.07-3.38-1.644-6.897-1.703-10.442
		c-0.072-4.203,0.483-8.791-1.899-12.25c-2.206-3.204-6.122-4.829-8.667-7.773c-2.349-2.728-4.901-6.017-8.752-6.526
		C438.105,130.015,427.089,137.252,423.943,129.545z"/>
	<path style="fill:#5A5369;" d="M423.943,128.585c-0.737-1.808-0.17-3.916,0.718-5.619s2.108-3.315,2.774-5.149
		c0.986-2.728,0.685-5.815,1.762-8.484c1.899-4.738,7.296-6.853,12.132-8.484c1.429-0.476,2.95-0.953,4.412-0.6
		c1.958,0.463,3.231,2.239,4.829,3.433c6.565,4.895,17.242-0.496,23.593,4.686c2.428,1.958,3.609,5.162,3.975,8.282
		s0,6.265-0.039,9.404c-0.104,5.495,0.927,11.506,5.038,15.148c1.24,1.096,2.702,1.919,3.916,3.054
		c1.214,1.136,2.167,2.721,1.958,4.366c-0.161,0.755-0.379,1.497-0.653,2.219c-0.816,2.865,0.405,5.874,1.893,8.484
		c4.451,7.655,12.243,14.005,21.113,14.182c-0.594,4.477-5.221,7.075-9.365,8.915c-5.221,2.336-10.781,4.634-16.531,4.34
		c-5.75-0.294-11.747-3.975-12.752-9.639c-0.346-1.958-0.3-4.314-1.958-5.332c-1.018-0.62-2.336-0.463-3.433-0.927
		c-1.586-0.653-2.369-2.434-2.891-4.072c-1.07-3.38-1.644-6.897-1.703-10.442c-0.072-4.203,0.483-8.791-1.899-12.25
		c-2.206-3.204-6.122-4.829-8.667-7.773c-2.349-2.728-4.901-6.017-8.752-6.526C438.105,129.055,427.089,136.306,423.943,128.585z"/>
	<path style="opacity:0.1;fill:#010101;enable-background:new    ;" d="M438.575,181.566l11.819-9.594c0,0-8.093-4.386-9.059-8.125
		c-0.966-3.74-7.44,1.775-6.781,5.13C435.214,172.331,438.575,181.566,438.575,181.566z"/>
	<path style="fill:#43A1DA;stroke:#030303;stroke-width:0.2113;stroke-miterlimit:10;" d="M439.039,180.124l11.819-9.587
		c0,0-8.093-4.386-9.019-8.125c-0.927-3.74-7.44,1.775-6.781,5.13C435.717,170.896,439.039,180.124,439.039,180.124z"/>
	<circle style="opacity:0.1;fill:#010101;enable-background:new    ;" cx="451.321" cy="178.564" r="0.94"/>
	<circle style="opacity:0.1;fill:#010101;enable-background:new    ;" cx="451.321" cy="183.785" r="0.94"/>
	<circle style="opacity:0.1;fill:#010101;enable-background:new    ;" cx="451.321" cy="189" r="0.94"/>
	<g style="opacity:0.1;">
		<path style="fill:#010101;" d="M428.714,115.259c0.933-2.565,0.731-5.443,1.605-8.027c-0.405,0.571-0.74,1.189-0.999,1.84
			c-1.083,2.695-0.777,5.782-1.769,8.484l-0.065,0.157C427.971,116.934,428.381,116.113,428.714,115.259z"/>
		<path style="fill:#010101;" d="M503.277,179.863c-5.221,2.336-10.781,4.634-16.531,4.34s-11.747-3.975-12.752-9.633
			c-0.346-1.958-0.3-4.32-1.958-5.339c-1.018-0.62-2.336-0.463-3.433-0.927c-1.586-0.653-2.369-2.434-2.891-4.072
			c-1.07-3.38-1.644-6.897-1.703-10.442c-0.072-4.196,0.489-8.784-1.893-12.25c-2.212-3.204-6.128-4.823-8.673-7.773
			c-2.349-2.721-4.901-6.017-8.752-6.526c-5.28-0.718-16.316,6.526-19.435-1.188c-0.501-1.458-0.429-3.051,0.202-4.457
			c-0.228,0.385-0.45,0.77-0.653,1.162c-0.888,1.736-1.449,3.818-0.711,5.626c3.139,7.701,14.156,0.463,19.435,1.188
			c3.851,0.522,6.402,3.818,8.752,6.526c2.545,2.95,6.461,4.568,8.667,7.779c2.389,3.459,1.827,8.047,1.899,12.243
			c0.059,3.545,0.633,7.062,1.703,10.442c0.522,1.645,1.305,3.407,2.891,4.072c1.096,0.463,2.415,0.313,3.433,0.927
			c1.684,1.018,1.638,3.4,1.958,5.339c1.018,5.658,7.009,9.339,12.752,9.633c5.743,0.294,11.277-1.997,16.531-4.34
			c3.785-1.684,8.001-4.014,9.137-7.832C509.438,176.841,506.227,178.551,503.277,179.863z"/>
	</g>
	
		<linearGradient id="SVGID_3_" gradientUnits="userSpaceOnUse" x1="592.4335" y1="8.0013" x2="592.4335" y2="391.4997" gradientTransform="matrix(1 0 0 -1 -31.16 534.8791)">
		<stop  offset="0" style="stop-color:#818181;stop-opacity:0.25"/>
		<stop  offset="0.54" style="stop-color:#818181;stop-opacity:0.12"/>
		<stop  offset="1" style="stop-color:#818181;stop-opacity:0.1"/>
	</linearGradient>
	<path style="fill:url(#SVGID_3_);" d="M618.617,216.697c-13.816-7.949-19.037-9.907-19.063-9.907l-0.287-0.202
		c-1.505-1.157-2.7-2.668-3.479-4.399c-0.016-0.315-0.016-0.631,0-0.946c-0.003,0.03-0.003,0.061,0,0.091
		c0.215-4.209,3.211-8.04,6.05-11.382l7.264-8.543c0.825-0.845,1.464-1.855,1.873-2.963c0.147-0.595,0.212-1.208,0.196-1.821
		c0-0.248,0-0.496,0-0.744c-0.039-2.121-0.098-4.249-0.176-6.37c-0.065-1.853-0.542-4.19-2.395-4.568
		c-0.966-0.196-2.245,0.15-2.754-0.653c-0.173-0.341-0.217-0.732-0.124-1.103c-0.004,0.03-0.004,0.061,0,0.091v-0.104
		c0.359-1.432,0.588-2.893,0.685-4.366c0.04-0.75-0.062-1.5-0.3-2.212c-1.07-3.074-4.771-4.34-8.04-4.921
		c-3.27-0.581-6.938-1.077-8.987-3.635c-0.549-0.854-1.146-1.675-1.788-2.46c-0.946-0.84-2.1-1.41-3.341-1.651
		c-4.058-1-8.334-0.628-12.159,1.057c-1.579,0.705-3.165,1.658-4.901,1.553c-1.736-0.104-3.341-1.357-5.117-1.658
		c-2.872-0.489-5.619,1.619-7.035,4.118c-0.839,1.482-1.288,3.153-1.305,4.856v0.287l0,0c-0.041,1.832,0.628,3.61,1.867,4.96
		c1.24,1.305,3.08,2.167,3.596,3.857c0.209,0.685,0.157,1.429,0.346,2.128c0.02,0.087,0.046,0.172,0.078,0.255l-0.091,0.124
		c-2.963,3.79-4.571,8.464-4.568,13.275c0.066,9.588,6.326,18.033,15.48,20.884c0,0.215,0,0.431,0,0.653
		c0,2.611-0.751,5.332-3.002,7.309l-19.572,7.819c0,0-11.8-1.403-16.055,15.839c-0.68,2.862-0.926,5.81-0.731,8.745
		c0.157,2.611-0.202,7.179-3.263,13.098c-4.836,9.476-3.733,31.228,6.161,33.382c9.339,2.036,12.994,1.188,13.379,1.09v0.379
		c-0.157,4.085-1.638,39.288-7.022,43.544c-1.488,1.181-1.214,1.958,0,2.513c0,0,0,0.228-0.033,0.653
		c-0.163,2.611-0.992,12.4-4.568,17.96c-4.183,6.461-3.746,43.726-3.746,43.726l-2.852,21.968c0,0,1.756,13.568,0,15.937
		c-1.573,2.108-3.661,52.302-4.099,63.188h-0.183c-1.756,0.114-3.34,1.092-4.229,2.611c-2.31,3.753-10.403,10.69-10.403,10.69
		c-1.756,2.493-8.249,4.882-11.682,6.004c-0.453,0.148-0.89,0.34-1.305,0.574c-1.285,0.7-2.317,1.787-2.95,3.107
		c-0.457,0.791-0.571,1.734-0.313,2.61c0.875,2.147,19.129,3.661,23.749,1.501c3.629-1.69,18.013-3.916,23.984-4.79
		c2.231-0.281,3.988-2.037,4.268-4.268c0.115-0.756-0.083-1.527-0.548-2.134l0,0c-1.142-1.416-1.723-5.286-1.958-7.832
		c0.485-0.197,0.938-0.466,1.344-0.796c-0.499-7.824,0.611-15.667,3.263-23.044c4.399-11.63,5.717-33.167,4.621-47.166
		c0,0,13.412-57.719,23.971-63.103l0,0c0.163,0.209,5.286,6.781,5.939,27.136c0.653,20.675,8.132,34.244,8.132,34.244
		s-3.302,35.105,0,48.242l-4.314,20.721c-0.32-0.268-0.522-0.476-0.522-0.476s0.131,0.574,0.307,1.495l-0.091,0.444l0.189,0.039
		c0.489,2.611,1.214,7.107,0.914,9.789c-0.17,1.508-0.594,3.576-0.881,5.606c-0.457,3.191-0.581,6.285,1.096,6.964
		c2.754,1.109,18.926,2.61,21.667-0.94c1.258-1.476,1.567-3.539,0.796-5.319c-0.198-0.489-0.466-0.946-0.796-1.357
		c0,0-4.294-7.016-3.08-11.963c0.226-0.977,0.04-2.004-0.516-2.839c0.189-2.428,1.168-13.666,3.7-23.208
		c2.754-10.364,8.556-33.088,4.288-48.027l0,0c-0.161-0.587-0.344-1.162-0.548-1.723c-2.463-8.157-3.286-16.721-2.421-25.198
		c-1.584-7.237-1.584-14.731,0-21.968c2.643-12.061,4.49-23.906,4.49-23.906s1.455-15.937,0.183-25.707
		c0-0.209-0.059-0.418-0.085-0.653l0.692-0.157c0,0-3.74-16.583-5.058-27.136c-0.313-2.493-0.718-5.645-1.162-9.013
		c1.216-0.202,2.414-0.501,3.583-0.894c11.871-4.092,15.611-41.116,15.611-41.116v-11.747
		C628.478,242.724,632.472,224.666,618.617,216.697z M530.146,502.706c-0.365-0.183-0.581-0.307-0.581-0.307l0,0L530.146,502.706z"
		/>
	<path style="fill:#67627D;" d="M611.451,430.453c5.149,14.808-0.862,38.845-3.655,49.6c-2.793,10.755-3.648,23.612-3.648,23.612
		c-10.945,1.716-18.887-0.431-18.887-0.431l4.51-22.105c-3.224-13.092,0-48.079,0-48.079s-7.296-13.522-7.943-34.126
		c-0.653-20.277-5.632-26.836-5.789-27.038l0,0c-10.299,5.365-23.39,62.888-23.39,62.888c1.07,13.947-0.222,35.412-4.51,46.989
		c-2.604,7.359-3.699,15.168-3.217,22.96c-1.501,1.305-3.589,1.488-5.874,1.123c-6.128-0.992-13.477-6.272-13.477-6.272
		s2.356-62.653,4.079-65.028c1.723-2.376,0-15.885,0-15.885l2.787-21.889c0,0-0.431-37.135,3.648-43.57
		c3.524-5.56,4.333-15.337,4.49-17.902c0-0.405,0-0.653,0-0.653l6.213-7.44c0,0,60.094-4.51,64.61,0
		c1.103,1.103,1.788,3.622,2.193,6.787c1.24,9.737-0.183,25.616-0.183,25.616s-1.801,11.806-4.379,23.821
		c-1.545,7.217-1.545,14.679,0,21.896C608.201,413.78,609.023,422.314,611.451,430.453z"/>
	<path style="fill:#A27772;" d="M607.692,524.563c-2.682,3.544-18.456,2.043-21.145,0.94c-1.638-0.653-1.514-3.766-1.07-6.944
		c0.281-2.017,0.692-4.079,0.862-5.58c0.424-3.864-1.305-11.702-1.305-11.702s3.537,3.759,4.392,0
		c0.379-1.645,1.697-2.487,3.067-2.911c1.839-0.557,3.817-0.434,5.573,0.346c2.787,1.214,7.433,3.792,6.605,7.277
		c-1.181,4.927,3.002,11.924,3.002,11.924c0.324,0.408,0.588,0.861,0.783,1.344C609.214,521.029,608.919,523.077,607.692,524.563z"
		/>
	<path style="opacity:0.1;fill:#010101;enable-background:new    ;" d="M607.692,524.563c-2.682,3.544-18.456,2.043-21.145,0.94
		c-1.638-0.653-1.514-3.766-1.07-6.944c1.697,0.796,4.568,1.455,9.378,1.012c1.121-0.107,2.248-0.141,3.374-0.104
		c3.416,0.154,6.839,0.084,10.246-0.209C609.228,521.033,608.926,523.081,607.692,524.563z"/>
	<path style="opacity:0.1;fill:#010101;enable-background:new    ;" d="M552.642,434.748c1.07,13.947-0.222,35.412-4.51,46.989
		c-2.604,7.359-3.699,15.168-3.217,22.96c-1.501,1.305-3.589,1.488-5.874,1.122c1.305-9.052,6.813-48.053,10.344-78.87
		c4.027-35.092,22.842-59.233,22.842-59.233l3.753,4.131C565.734,377.225,552.642,434.748,552.642,434.748z"/>
	<path style="fill:#F9BEBF;" d="M601.25,209.172l-2.611,12.876l-12.837,21.569l-15.826-6.761c0,0-21.537-22.535-7.995-25.753
		c1.619-0.348,3.147-1.028,4.49-1.997c2.656-2.004,3.492-4.914,3.505-7.766c-0.1-3.191-0.842-6.329-2.18-9.228l27.685-8.693
		c-1.131,3.638-1.789,7.406-1.958,11.212c-0.215,7.544,2.611,11.258,4.888,13.053C599.252,208.36,600.216,208.865,601.25,209.172z"
		/>
	<path style="opacity:0.1;fill:#010101;enable-background:new    ;" d="M595.455,183.42c-1.131,3.638-1.789,7.406-1.958,11.212
		c-0.505,0.602-1.043,1.175-1.612,1.716c-5.824,5.562-14.23,7.479-21.889,4.993c-0.107-3.192-0.855-6.331-2.199-9.228
		L595.455,183.42z"/>
	<path style="fill:#F9BEBF;" d="M598.633,179.876c0.004,12.093-9.797,21.899-21.889,21.902
		c-12.093,0.004-21.899-9.797-21.902-21.889c-0.004-12.093,9.797-21.899,21.889-21.902c0.002,0,0.004,0,0.007,0
		c12.035-0.058,21.838,9.652,21.896,21.686C598.633,179.741,598.633,179.808,598.633,179.876z"/>
	<path style="opacity:0.1;fill:#010101;enable-background:new    ;" d="M601.25,209.172l-2.611,12.876l-12.837,21.569l-15.826-6.761
		c0,0-21.537-22.535-7.995-25.753c1.619-0.348,3.147-1.028,4.49-1.997c-2.441,6.709,7.636,20.669,7.636,20.669
		c1.175,1.729,3.864,0.653,3.864,0.653c6.494-0.985,18.443-19.657,20.395-22.764C599.218,208.352,600.199,208.865,601.25,209.172z"
		/>
	<path style="opacity:0.1;fill:#010101;enable-background:new    ;" d="M613.644,334.008c-3.811,0.868-24.898,5.534-32.893,4.366
		c-8.797-1.305-25.903-2.141-25.903-2.141s-10.892,0.587-14.247-0.946c0-0.405,0-0.653,0-0.653l6.213-7.44c0,0,60.094-4.51,64.61,0
		C612.554,328.323,613.239,330.842,613.644,334.008z"/>
	<path style="fill:#43A1DA;stroke:#030303;stroke-width:0.2113;stroke-miterlimit:10;" d="M574.101,230.422
		c0,0-11.323-15.663-7.055-21.798l-19.129,7.832c0,0-11.512-1.397-15.663,15.787c-0.663,2.856-0.903,5.794-0.711,8.719
		c0.157,2.611-0.196,7.179-3.152,13.053c-4.719,9.444-3.648,31.124,6.011,33.284c9.659,2.16,13.085,1.07,13.085,1.07
		s-1.305,39.275-6.866,43.785c-5.56,4.51,14.227,3.433,14.227,3.433s17.105,0.861,25.909,2.147c8.804,1.286,33.48-4.51,33.48-4.51
		s-3.648-16.525-4.94-27.038c-1.292-10.514-4.301-32.912-4.301-32.912l21.889-29.656c0,0,3.864-17.921-9.659-25.864
		c-13.523-7.943-18.607-9.887-18.607-9.887s-13.588,22.124-20.669,23.195C577.964,231.062,575.275,232.145,574.101,230.422z"/>
	<path style="opacity:0.1;fill:#010101;enable-background:new    ;" d="M548.987,236.642c0,0-0.209,7.088,1.077,9.874
		c1.286,2.787,6.011,18.274,6.011,18.274h-10.736c0,0,5.795-6.226,5.371-9.235C550.286,252.546,548.987,236.642,548.987,236.642z"/>
	<path style="fill:#F9BEBF;" d="M580.757,290.086c0,0-23.704-5.795-25.909-10.729c-2.206-4.934-8.295-15.983-8.295-15.983l2.5-3.368
		l11.525,9.045c0,0,13.705,10.945,20.179,12.021C587.232,282.15,580.757,290.086,580.757,290.086z"/>
	<path style="opacity:0.05;fill:#010101;enable-background:new    ;" d="M580.757,290.086c0,0-23.704-5.795-25.909-10.729
		c-2.206-4.934-8.295-15.983-8.295-15.983l2.5-3.368l11.525,9.045c0,0,13.705,10.945,20.179,12.021
		C587.232,282.15,580.757,290.086,580.757,290.086z"/>
	<path style="fill:#F9BEBF;" d="M601.25,262.186v12.857h-2.062c-10.213-0.002-20.257,2.599-29.186,7.557l-3.877,2.147l-1.038,0.581
		l-6.657-15.01l6.226-5.58h0.32c1.521,0.15,8.106,0.698,10.899-0.241c2.65-0.901,5.939-3.753,13.744-1.762
		c3.844,0.985,7.133,5.293,10.86,3.948L601.25,262.186z"/>
	<path style="opacity:0.1;fill:#010101;enable-background:new    ;" d="M621.965,238.769l4.288,4.829V255.3
		c0,0-3.648,36.913-15.232,40.992c-11.584,4.079-32.279-2.363-32.279-2.363s-5.345-14.162-2.845-15.01
		c2.5-0.848,22.091-6.03,22.091-6.03s-0.274-21.654,4.014-28.096c0,0-2.787-20.173,6.872-20.604
		C618.532,223.759,621.965,238.769,621.965,238.769z"/>
	<path style="fill:#43A1DA;stroke:#030303;stroke-width:0.2113;stroke-miterlimit:10;" d="M622.617,238.769l4.294,4.829V255.3
		c0,0-3.648,36.913-15.239,40.992c-11.591,4.079-32.279-2.363-32.279-2.363s-5.345-14.162-2.839-15.01s22.092-6.03,22.092-6.03
		s-0.281-21.654,4.014-28.096c0,0-2.793-20.173,6.866-20.604C619.184,223.759,622.617,238.769,622.617,238.769z"/>
	<path style="opacity:0.1;fill:#010101;enable-background:new    ;" d="M592.629,189.169c0.185-1.413,0.017-2.851-0.49-4.183
		c-0.607-1.305-2.023-2.291-3.407-1.958c-1.834,0.431-2.611,2.819-4.425,3.394c-1.521,0.483-3.178-0.594-3.916-2.01
		c-0.737-1.416-0.744-3.08-0.744-4.673c0-1.788,0-3.583,0-5.378c0-1.958-0.065-4.059-1.266-5.593
		c-1.495-1.906-5.012-2.741-7.362-2.663c-1.563,0.018-3.063,0.621-4.203,1.69c-1.253,1.07-2.708,1.853-4.418,1.573
		c-1.455-0.217-2.655-1.254-3.08-2.663v-0.065c7.267-9.661,20.99-11.602,30.651-4.336c9.661,7.267,11.602,20.99,4.336,30.651
		c-0.737,0.98-1.556,1.897-2.446,2.74C592.236,193.536,592.494,191.357,592.629,189.169z"/>
	<path style="fill:#7D5D5D;" d="M562.399,168.735c-1.456-0.224-2.656-1.261-3.087-2.669c-0.176-0.692-0.13-1.429-0.333-2.115
		c-0.503-1.69-2.304-2.565-3.511-3.851c-2.415-2.565-2.258-6.781-0.548-9.868c1.384-2.487,4.059-4.568,6.866-4.099
		c1.736,0.3,3.263,1.534,4.999,1.651c1.736,0.117,3.263-0.842,4.784-1.547c3.729-1.693,7.922-2.066,11.891-1.057
		c1.217,0.245,2.345,0.815,3.263,1.651c0.623,0.785,1.205,1.602,1.742,2.447c1.997,2.545,5.58,3.048,8.771,3.622
		c3.191,0.574,6.8,1.84,7.832,4.908c0.698,2.036,0,4.242-0.379,6.357c-0.125,0.432-0.095,0.894,0.085,1.305
		c0.503,0.822,1.749,0.476,2.689,0.653c1.808,0.385,2.271,2.715,2.343,4.568c0.074,2.115,0.131,4.231,0.17,6.35
		c0.052,0.788-0.012,1.58-0.189,2.349c-0.392,1.103-1.012,2.11-1.821,2.956l-7.088,8.517c-3.146,3.772-6.481,8.171-5.874,13.053
		c-1.488,0.653-3.263-0.62-3.746-2.18c-0.483-1.56-0.098-3.263,0.235-4.836c0.578-2.765,0.957-5.567,1.136-8.386
		c0.185-1.411,0.017-2.846-0.49-4.177c-0.607-1.305-2.023-2.291-3.407-1.958c-1.84,0.431-2.611,2.819-4.425,3.394
		c-1.521,0.483-3.178-0.594-3.916-2.01c-0.737-1.416-0.744-3.074-0.744-4.666v-5.384c0-1.958-0.065-4.059-1.266-5.593
		c-1.495-1.906-5.012-2.741-7.362-2.663c-1.561,0.019-3.058,0.622-4.196,1.69C565.564,168.226,564.109,169.016,562.399,168.735z"/>
	<path style="opacity:0.1;fill:#010101;enable-background:new    ;" d="M567.339,236.106l6.722,27.613
		C574.061,263.719,579.361,263.687,567.339,236.106z"/>
	<path style="opacity:0.1;fill:#010101;enable-background:new    ;" d="M590.305,231.492c0,0-8.797,14.41-5.365,29.316l1.638,0.117
		C586.579,260.926,583.655,254.028,590.305,231.492z"/>
	<path style="opacity:0.1;fill:#010101;enable-background:new    ;" d="M595.859,313.052c0,0,10.808-3.576,11.591,4.719
		C607.476,317.77,605.44,312.086,595.859,313.052z"/>
	<path style="opacity:0.1;fill:#010101;enable-background:new    ;" d="M564.657,265.403c0,0-2.147,15.011,1.716,21.034
		c0,0-7.832,3.217-18.887,2.578l-1.305-23.612L564.657,265.403z"/>
	<path style="opacity:0.1;fill:#010101;enable-background:new    ;" d="M566.125,284.747l-1.038,0.581l-6.657-15.01l6.226-5.58h0.32
		l0,0C564.879,265.481,563.143,278.384,566.125,284.747z"/>
	<path style="fill:#43A1DA;stroke:#030303;stroke-width:0.2113;stroke-miterlimit:10;" d="M564.657,264.763
		c0,0-2.147,15.011,1.716,21.028c0,0-7.832,3.224-18.887,2.578l-7.512-23.606L564.657,264.763z"/>
	<path style="fill:#A27772;" d="M546.096,515.426c-0.256,2.204-1.972,3.954-4.17,4.255c-5.828,0.868-19.866,3.087-23.41,4.777
		c-4.51,2.147-22.32,0.653-23.181-1.501c-0.251-0.876-0.141-1.816,0.307-2.61c0.611-1.308,1.618-2.39,2.878-3.094
		c0.416-0.232,0.853-0.424,1.305-0.574c3.355-1.116,9.692-3.492,11.401-5.985c0,0,7.903-6.911,10.155-10.644
		c0.859-1.492,2.407-2.457,4.125-2.571c1.88-0.085,3.975,0.861,4.836,4.98c0,0,10.292,5.874,13.053,0.724
		c0,0,0.431,7.91,2.141,10.077l0,0C546.007,513.876,546.21,514.658,546.096,515.426z"/>
	<path style="opacity:0.1;fill:#010101;enable-background:new    ;" d="M546.096,515.426c-0.256,2.204-1.972,3.954-4.17,4.255
		c-5.828,0.868-19.866,3.087-23.41,4.777c-4.51,2.147-22.32,0.653-23.181-1.501c-0.251-0.876-0.141-1.816,0.307-2.61
		c0.611-1.308,1.618-2.39,2.878-3.094c2.904,1.958,9.352,3.811,23.534,1.599c13.529-2.115,20.232-4.183,23.495-5.593l0,0
		C546.016,513.878,546.214,514.659,546.096,515.426z"/>
	<g style="opacity:0.1;">
		<path style="fill:#010101;" d="M604.657,164.467v-0.104c0.307-1.605,0.77-3.263,0.653-4.875c-0.137,1.317-0.355,2.625-0.653,3.916
			C604.576,163.753,604.576,164.117,604.657,164.467z"/>
		<path style="fill:#010101;" d="M592.133,184.555c0.341,0.773,0.521,1.608,0.529,2.454c0.097-1.166-0.085-2.338-0.529-3.42
			c-0.6-1.305-2.017-2.291-3.4-1.958c-1.84,0.431-2.611,2.819-4.431,3.394c-1.514,0.483-3.172-0.594-3.916-2.01
			c-0.744-1.416-0.744-3.08-0.744-4.673c0-1.795,0-3.583,0-5.378c0-1.958-0.065-4.059-1.266-5.593
			c-1.501-1.912-5.012-2.741-7.362-2.669c-1.564,0.02-3.064,0.625-4.203,1.697c-1.26,1.07-2.708,1.853-4.425,1.573
			c-1.453-0.222-2.651-1.257-3.08-2.663c-0.176-0.692-0.13-1.436-0.333-2.121c-0.503-1.684-2.304-2.565-3.511-3.844
			c-1.133-1.256-1.774-2.878-1.808-4.568c-0.18,2.004,0.474,3.994,1.808,5.502c1.207,1.305,3.009,2.16,3.511,3.844
			c0.202,0.653,0.157,1.429,0.333,2.121c0.43,1.406,1.627,2.441,3.08,2.663c1.716,0.281,3.165-0.503,4.425-1.573
			c1.139-1.071,2.639-1.677,4.203-1.697c2.349-0.072,5.874,0.757,7.362,2.669c1.201,1.534,1.26,3.642,1.266,5.593
			c0,1.795,0,3.583,0,5.378c0,1.592,0,3.263,0.744,4.666c0.744,1.403,2.382,2.5,3.916,2.017c1.801-0.574,2.611-2.963,4.431-3.394
			C590.116,182.264,591.532,183.296,592.133,184.555z"/>
		<path style="fill:#010101;" d="M609.773,178.649c-0.393,1.102-1.016,2.107-1.827,2.95l-7.088,8.517
			c-2.982,3.583-6.135,7.734-5.874,12.309c0.215-4.196,3.139-8.014,5.874-11.343l7.088-8.517c0.811-0.843,1.434-1.848,1.827-2.95
			c0.177-0.772,0.241-1.566,0.189-2.356C609.952,177.728,609.889,178.194,609.773,178.649z"/>
		<path style="fill:#010101;" d="M591.291,200.988c-0.116-0.373-0.189-0.759-0.215-1.149c-0.059,0.712,0.014,1.429,0.215,2.115
			c0.483,1.553,2.252,2.839,3.746,2.173c-0.042-0.312-0.068-0.625-0.078-0.94C593.471,203.782,591.748,202.516,591.291,200.988z"/>
	</g>
	<path style="opacity:0.1;fill:#010101;enable-background:new    ;" d="M519.952,502.014c0,0,2.245,3.916,10.377,0.47"/>
	<path style="opacity:0.1;fill:#010101;enable-background:new    ;" d="M588.68,502.967c0,0,7.009,8.256,15.846,2.708"/>
	<path style="opacity:0.1;fill:#010101;enable-background:new    ;" d="M609.082,405.34c0,0-4.953,3.093-5.11,4.862
		s2.558-1.305,2.558-1.305L609.082,405.34z"/>
	<path style="opacity:0.1;fill:#010101;enable-background:new    ;" d="M611.04,429.07c-1.723,1.433-3.864,2.269-6.102,2.382
		c-3.707,0.163-3.394,4.993-0.972,3.544S611.04,429.07,611.04,429.07z"/>
	<path style="opacity:0.1;fill:#010101;enable-background:new    ;" d="M611.979,432.17c0,0-2.376,11.676-4.307,9.424"/>
	
		<linearGradient id="SVGID_4_" gradientUnits="userSpaceOnUse" x1="-107.1924" y1="13.7285" x2="-107.1924" y2="397.9888" gradientTransform="matrix(-1 0 0 -1 110.2019 534.8791)">
		<stop  offset="0" style="stop-color:#818181;stop-opacity:0.25"/>
		<stop  offset="0.54" style="stop-color:#818181;stop-opacity:0.12"/>
		<stop  offset="1" style="stop-color:#818181;stop-opacity:0.1"/>
	</linearGradient>
	<path style="fill:url(#SVGID_4_);" d="M153.036,519.675c0,0,14.913,4.092,22.092-1.351c7.179-5.443,10.292-3.694,10.292-3.694
		s17.119-0.946,18.528-4.993c1.41-4.046-6.565-18.744-6.565-18.744c-0.568-1.305-1.397-2.963-1.769-2.963l0.078-6.2l0,0l2.48-25.942
		c5.724-14.678,0.104-33.643,0.104-33.643l-1.025-4.705c-0.576-2.645-0.233-5.408,0.972-7.832l10.396-20.884
		c0.556-1.381,1.211-2.72,1.958-4.007c0.653-1.194,1.521-2.669,2.611-4.438c0.32-0.509,0.653-1.038,1.018-1.592
		c1.26-1.958,2.787-4.177,4.634-6.735c4.601-6.376,7.022-14.358,8.275-20.232l0.555,1.84h0.033h0.091l0,0l0.15,0.033l0,0h0.209
		h0.039l0.268,0.046h0.098l3.198,40.698c0.196,15.872,6.024,24.656,6.024,24.656l-0.803,35.04c1.096,8.439-1.305,19.69-2.408,24.18
		l-2.519,5.684c-2.014,1.006-3.403,2.939-3.713,5.169c-0.496,4.196-4.914,13.242-4.914,13.242c-1.71,2.167-5.423,8.021-5.423,8.021
		s-1.749,5.652-0.666,7.766c1.083,2.115,10.142,1.899,10.142,1.899c10.344,2.291,18.274-3.263,17.771-7.088
		c-0.503-3.824,1.612-4.797,1.612-4.797c4.112-1.305,3.713-4.092,3.713-4.092c0.885-5.748-0.213-11.627-3.113-16.668l-0.653,1.508
		c-0.176-3.018,0.245-6.041,1.24-8.895l-0.379,0.261l-0.117,0.072h-0.039c0.653-5.724,6.663-16.316,6.663-16.316
		c11.043-19.37,7.029-45.619,7.029-45.619l-1.71-8.184l-0.098-3.087c-0.234-7.37,0.324-14.743,1.664-21.994
		c0.594-3.211,1.207-7.088,1.677-11.362c0.992-9.032,4.19-18.352,5.665-22.3l0.437-0.078h0.052c0.6-0.104,1.207-0.209,1.821-0.326
		h0.117c0,0,0.352-1.906,0.653-5.149c0.176-2.069,0.32-4.692,0.32-7.708c0.044-9.104-1.345-18.158-4.118-26.83l0.333-0.476
		c0,0,0.79-1.07,2.232-2.924l0,0c2.65-3.368,6.774-8.484,11.858-14.253c9.104-10.383,6.428-20.884,6.428-20.884
		s-6.592-24.154-9.528-38.655c-1.677-8.262-4.823-13.881-7.231-17.197c0.543-2.286,0.849-4.622,0.914-6.97
		c0.196-4.294,0.046-8.771-1.886-12.628c-1.932-3.857-6.043-6.905-10.338-6.389c-0.609,0.147-1.244,0.147-1.853,0
		c-0.502-0.228-0.926-0.597-1.22-1.064c-2.513-3.465-2.676-8.125-1.893-12.328c0.783-4.203,2.389-8.223,3.107-12.439
		s0.392-8.895-2.291-12.237c-3.152-3.916-8.647-5.019-12.746-7.962c-2.878-2.069-5.038-5.038-8.073-6.872
		c-3.035-1.834-5.874-1.136-9.169-0.444c-5.541,1.168-10.808,1.703-16.048,4.085c-5.307,2.403-10.066,5.865-13.986,10.175
		c-1.391,1.389-2.457,3.07-3.12,4.921c-1.305,4.314,1.247,8.908,0.711,13.372c-0.379,3.165-2.245,5.919-3.727,8.745
		s-2.611,6.18-1.449,9.137c1.827,4.621,7.786,5.6,12.119,8.06c0.579,0.283,1.074,0.713,1.436,1.247
		c1.07,1.867-1.116,3.805-2.493,5.463c-0.788,0.967-1.346,2.101-1.632,3.315c-3.643,1.495-6.302,4.705-7.094,8.563
		c-1.468,6.572,0.79,14.867,2.78,20.349c-2.173,12.211,0.653,17.027,2.735,18.874c2.108,1.805,3.413,4.373,3.629,7.14v0.228
		c0.137,2.219,0.372,4.431,0.685,6.637l0,0c-0.072-0.516-0.144-1.064-0.183-1.305c-1.703,3.152-4.947,11.206-6.774,24.754
		c-0.38,2.904-0.932,5.783-1.651,8.621c-1.307,5.027-1.775,10.236-1.384,15.415l0.326,4.392c-0.321,0.008-0.635-0.096-0.888-0.294
		l2.291,4.196v7.081c-0.003,3.193-0.591,6.358-1.736,9.339c-0.163,0.431-0.339,0.861-0.529,1.305
		c-0.589,1.192-0.854,2.517-0.77,3.844c-4.927,7.551-16.224,49.868-16.224,49.868c-6.128,13.875,0.503,22.842,0.503,22.842
		s3.211,38.629,3.811,40.626c0.6,1.997,1.932,25.544,1.932,25.544l0,0c0,0.62,0,1.266,0,1.873c-0.356-0.156-0.731-0.263-1.116-0.32
		c-5.371-0.3-6.827,8.184-6.827,8.184l-10.99,10.494c0,0-5.019-0.848-12.4,4.692C140.884,514.623,153.036,519.675,153.036,519.675z
		 M262.776,296.416l-0.033-0.117l-0.3,0.176l0,0l-0.124,0.072l-0.059,0.039l0,0l-5.064-17.876
		c-1.356-4.792-1.484-9.849-0.372-14.704l3.916-17.151l0,0v-4.125l12.446,33.167C273.982,280.368,266.587,291.195,262.776,296.416z"
		/>
	<path style="fill:#F9C2CC;" d="M268.239,350.369c0,0-5.025,12.224-6.304,23.952c-0.463,4.229-1.064,8.053-1.651,11.225
		c-1.304,7.16-1.842,14.439-1.605,21.713l0.098,3.048l1.632,8.073c0,0,3.916,25.929-6.898,45.032c0,0-6.409,11.441-6.605,16.857
		l-4.34,1.677l-8.771-2.46c0,0,4.236-15.187,2.859-25.831l0.79-34.589c0,0-5.697-8.654-5.893-24.317l-3.348-42.982L268.239,350.369z
		"/>
	<path style="fill:#F9C2CC;" d="M228.2,344.247c0,0-1.077,16.76-9.365,28.311c-8.288,11.552-10.051,16.564-10.051,16.564
		l-10.207,20.636c-1.182,2.392-1.52,5.113-0.959,7.721l1.005,4.647c0,0,5.521,18.731-0.098,33.225l-2.663,27.998H180.29
		c0,0-1.305-23.266-1.873-25.237c-0.568-1.971-3.746-40.124-3.746-40.124s-6.526-8.876-0.496-22.575
		c0,0,13.607-51.264,17.249-50.377S228.2,344.247,228.2,344.247z"/>
	<g style="opacity:0.1;">
		<path style="fill:#010101;" d="M197.043,422.159l-0.999-4.647c-0.576-2.617-0.24-5.353,0.953-7.753l10.207-20.656
			c0,0,1.769-5.025,10.051-16.564c7.956-11.095,9.267-26.993,9.359-28.213l1.586-0.078c0,0-1.077,16.76-9.365,28.311
			c-8.288,11.552-10.051,16.564-10.051,16.564l-10.207,20.636c-1.182,2.392-1.52,5.113-0.959,7.721l1.005,4.647
			c0,0,5.521,18.731-0.098,33.225l-2.663,27.998h-1.579l2.663-27.998C202.564,440.856,197.043,422.159,197.043,422.159z"/>
	</g>
	<path style="opacity:0.1;fill:#010101;enable-background:new    ;" d="M245.351,480.288c0.196-5.417,6.605-16.857,6.605-16.857
		c10.847-19.122,6.898-45.032,6.898-45.032l-1.671-8.08l-0.098-3.048c-0.237-7.274,0.302-14.553,1.605-21.713
		c0.581-3.172,1.181-6.996,1.645-11.225c1.233-11.29,5.939-23.038,6.285-23.899l1.619-0.065c0,0-5.025,12.224-6.304,23.952
		c-0.463,4.229-1.064,8.053-1.651,11.225c-1.304,7.16-1.842,14.439-1.605,21.713l0.098,3.048l1.632,8.073
		c0,0,3.916,25.929-6.898,45.032c0,0-6.409,11.441-6.605,16.857l-4.34,1.677l-0.914-0.255L245.351,480.288z"/>
	<path style="fill:#D49A9A;" d="M240.326,480.093c2.388,0.945,5.093,0.611,7.179-0.888c-1.436,4.192-1.64,8.709-0.587,13.013
		c1.775,7.101-16.564-5.717-16.564-5.717l3.916-8.948C234.269,477.554,235.79,480.386,240.326,480.093z"/>
	<path style="opacity:0.1;fill:#010101;enable-background:new    ;" d="M241.69,480.491c2.04,0.412,4.159-0.063,5.828-1.305
		c-1.436,4.192-1.64,8.709-0.587,13.013c1.775,7.101-16.564-5.717-16.564-5.717l3.916-8.948c0,0,1.136,2.18,4.471,2.519
		C239.764,480.171,240.73,480.308,241.69,480.491z"/>
	<polygon style="fill:#F9C2CC;" points="198.72,314.239 206.382,314.239 206.382,270.768 200.633,269.737 	"/>
	<polygon style="opacity:0.05;fill:#010101;enable-background:new    ;" points="198.72,314.239 206.382,314.239 206.382,270.768 
		200.633,269.737 	"/>
	<path style="fill:#7F575A;" d="M235.986,483.447c0,0,4.829-0.3,6.996,4.04l2.663,2.069l1.305-3.054
		c2.833,4.992,3.895,10.794,3.015,16.466c0,0,0.392,2.754-3.648,4.04c0,0-2.069,0.985-1.579,4.732
		c0.489,3.746-7.29,9.267-17.445,6.996c0,0-8.876,0.202-9.959-1.873s0.692-7.59,0.692-7.59s3.648-5.782,5.319-7.916
		c0,0,4.34-8.941,4.836-13.053C228.676,484.191,233.421,481.176,235.986,483.447z"/>
	<path style="fill:#D49A9A;" d="M196.012,487.095l0.078-6.128c0,0-8.817,2.539-15.957-0.333c0,0,0.6,6.161-0.392,7.003
		c-0.992,0.842,3.302,8.771,3.302,8.771l4.797,5.025l8.249-3.002l2.239-7.048C198.329,491.383,196.599,487.095,196.012,487.095z"/>
	<path style="opacity:0.1;fill:#010101;enable-background:new    ;" d="M196.012,487.095l0.078-6.128c0,0-8.817,2.539-15.957-0.333
		c0,0,0.6,6.161-0.392,7.003c-0.992,0.842,3.302,8.771,3.302,8.771l4.797,5.025l8.249-3.002l2.239-7.048
		C198.329,491.383,196.599,487.095,196.012,487.095z"/>
	<path style="fill:#7F575A;" d="M179.2,484.876c0,0,4.686,0.542,4.092,6.526c-0.594,5.985,0.248,0,0.248,0s4.98,2.017,6.755,4.829
		c1.775,2.813,4.98-2.513,5.221-4.04c0.241-1.527,2.239-2.16,2.239-2.16s7.832,14.521,6.448,18.515
		c-1.384,3.994-18.195,4.914-18.195,4.914s-3.061-1.723-10.109,3.648c-7.048,5.371-21.687,1.305-21.687,1.305
		s-11.93-4.98-4.679-10.442c7.251-5.462,12.172-4.634,12.172-4.634l10.795-10.403C172.498,492.936,173.927,484.576,179.2,484.876z"
		/>
	<path style="fill:#875B62;" d="M235.163,141.586c2.983,1.808,5.104,4.745,7.929,6.787c4.02,2.904,9.417,3.988,12.511,7.864
		c2.611,3.302,2.95,7.916,2.245,12.08s-2.284,8.138-3.048,12.289c-0.764,4.151-0.607,8.752,1.86,12.172
		c0.286,0.46,0.702,0.825,1.194,1.051c0.599,0.143,1.222,0.143,1.821,0c4.216-0.509,8.262,2.506,10.155,6.311
		c1.893,3.805,2.043,8.23,1.847,12.472c-0.163,3.479-0.555,7.029-2.082,10.161c-2.611,5.325-8.04,8.615-13.399,11.134
		c-3.483,1.637-7.054,3.08-10.697,4.32c-2.506,0.848-5.149,1.612-7.753,1.168c-4.457-0.77-7.616-4.823-11.845-6.409
		c-3.465-1.305-7.309-0.835-10.997-0.509c-3.146,0.274-6.742,0.268-8.908-2.03c-2.78-2.95-1.527-7.708-0.104-11.506
		c-4.514-0.286-7.942-4.178-7.656-8.692c0.109-1.724,0.76-3.369,1.861-4.7c1.344-1.638,3.492-3.55,2.441-5.397
		c-0.353-0.527-0.839-0.95-1.41-1.227c-4.249-2.428-10.103-3.4-11.891-7.956c-1.149-2.93-0.039-6.246,1.416-9.032
		c1.455-2.787,3.263-5.515,3.661-8.634c0.522-4.412-1.958-8.948-0.698-13.203c0.651-1.828,1.696-3.49,3.061-4.869
		c3.836-4.247,8.5-7.665,13.705-10.044c5.149-2.356,10.312-2.885,15.755-4.033C229.4,140.463,232.102,139.732,235.163,141.586z"/>
	<path style="fill:#F9C2CC;" d="M206.376,207.286c0,0-12.485-0.653-14.847,9.992c-2.363,10.644,5.123,25.89,5.123,25.89
		L206.376,207.286z"/>
	<path style="opacity:0.05;fill:#010101;enable-background:new    ;" d="M206.376,207.286c0,0-12.485-0.653-14.847,9.992
		c-2.363,10.644,5.123,25.89,5.123,25.89L206.376,207.286z"/>
	<path style="fill:#F9C2CC;" d="M198.407,238.965l4.732,3.746l22.079,0.985l13.784-9.463l14.019-24.056
		c-8.569-2.186-12.035-8.106-13.327-13.64c-0.822-3.745-0.915-7.614-0.274-11.395c0,0-22.477-11.636-19.716,6.526
		c0.379,2.229,0.449,4.5,0.209,6.748c-1.305,10.638-11.63,8.634-11.63,8.634l-3.961,6.109l-4.536,15.011L198.407,238.965z"/>
	<path style="opacity:0.1;fill:#010101;enable-background:new    ;" d="M219.722,191.643c0.379,2.229,0.449,4.5,0.209,6.748
		c6.453,2.948,13.988,2.242,19.781-1.853c-0.822-3.745-0.915-7.614-0.274-11.395C239.438,185.143,216.961,173.506,219.722,191.643z"
		/>
	<circle style="fill:#F9C2CC;" cx="228.213" cy="179.491" r="19.912"/>
	<path style="fill:#43A1DA;stroke:#030303;stroke-width:0.2113;stroke-miterlimit:10;" d="M214.129,235.167
		c0.483,0,0.959,0.072,1.436,0.117c2.611,0.261,13.516,0.848,19.729-6.572c6.951-8.301,16.205-18.554,16.583-18.972l0,0l9.417,2.845
		c0,0-7.453-2.65-12.4,11.212c-2.23,5.972-0.255,12.699,4.849,16.518c1.829,1.325,3.936,2.218,6.161,2.611
		c0.006,0.01,0.006,0.023,0,0.033v6.083l0,0l-3.851,16.968c-1.094,4.795-0.968,9.787,0.365,14.521l5.874,20.76l0,0
		c-0.888,0.613-37.33,25.4-61.674,8.282l0,0c0.091-0.744,3.1-25.107,1.012-37.03c-0.536-3.049-0.9-6.125-1.09-9.215
		c0-0.078,0-0.15,0-0.228c-0.215-2.728-1.498-5.261-3.57-7.048c-2.193-1.958-5.162-7.179-2.225-20.976
		c0.742-3.417,1.836-6.748,3.263-9.94l8.164-18.45l0,0l7.525,0.15 M213.698,206.888c-0.653,0.809-9.378,11.708-10.325,18.731
		c-0.927,6.676-2.069,8.726,10.755,9.548L213.698,206.888z"/>
	<path style="fill:#F9C2CC;" d="M267.632,215.829c0,0,7.362,6.311,10.253,20.636c2.891,14.325,9.333,38.12,9.333,38.12
		s2.611,10.383-6.311,20.636c-8.921,10.253-14.854,18.274-14.854,18.274l-5.874,8.654c-1.002,1.475-2.504,2.537-4.229,2.989
		c-2.676,0.705-6.787,1.214-10.351-0.737c-2.686-1.501-3.811-4.783-2.611-7.616l1.305-3.022c0,0-12.093,7.623-13.144,3.413
		c-1.051-4.209,14.064-8.412,14.064-8.412s12.485-2.101,15.011-8.014c0,0,13.405-17.223,12.354-23.136l-12.948-34.7
		c0,0-16.192-2.141-10.671-20.329C254.481,204.395,267.632,215.829,267.632,215.829z"/>
	<path style="fill:#67627D;" d="M190.21,346.747c0,0,29.577,5.913,36.547,5.123l0.751,2.5c0,0,11.225,2.513,36.606-1.514
		c1.658-0.261,3.378-0.555,5.162-0.881l0.594-0.104c0,0,0.346-1.88,0.62-5.084c0.607-7.277,0.822-21.367-4.301-35.79l-4.268-13.144
		c0,0-26.379,15.813-43.844,14.358c-1.56-0.131-3.107-0.255-4.666-0.307c-3.583-0.137-9.137,0-12.746-2.891l-7.571,1.305v21.537
		c-0.003,3.15-0.582,6.274-1.71,9.215c-0.163,0.431-0.333,0.855-0.522,1.305C190.168,343.72,189.938,345.257,190.21,346.747z"/>
	<path style="opacity:0.1;fill:#010101;enable-background:new    ;" d="M227.501,347.667v6.703c0,0,12.922,2.891,42.362-2.5
		c0,0,0.346-1.88,0.62-5.084C261.451,348.235,236.54,351.72,227.501,347.667z"/>
	<path style="opacity:0.1;fill:#010101;enable-background:new    ;" d="M190.21,346.747c0,0,29.577,5.913,36.547,5.123l0.751,2.5
		v-6.703c-3.368,1.397-27.411-4.399-36.123-6.572c-0.163,0.431-0.333,0.855-0.522,1.305
		C190.174,343.738,189.944,345.266,190.21,346.747z"/>
	<path style="fill:#67627D;" d="M261.915,339.274l2.193,13.601c1.658-0.261,3.378-0.555,5.162-0.881
		c-0.685-3.975-2.18-13.053-1.769-14.56l-2.761-2.363L261.915,339.274z"/>
	<path style="opacity:0.1;fill:#010101;enable-background:new    ;" d="M262.221,338.981l2.193,13.607
		c1.658-0.265,3.378-0.559,5.162-0.881c-0.685-3.975-2.18-13.053-1.769-14.56l-2.761-2.369L262.221,338.981z"/>
	<g style="opacity:0.05;">
		<path style="fill:#010101;" d="M216.491,312.203c-1.553-0.131-3.107-0.255-4.666-0.307c-3.485-0.131-8.804,0-12.433-2.669
			l1.266-0.222c3.629,2.878,9.137,2.754,12.746,2.891c1.56,0.052,3.107,0.176,4.666,0.307c0.509,0.046,1.031,0.072,1.56,0.085
			C218.583,312.316,217.536,312.288,216.491,312.203z"/>
		<path style="fill:#010101;" d="M262.528,352.856c1.658-0.261,3.378-0.553,5.162-0.875l0.6-0.111c0,0,0.346-1.88,0.613-5.084
			c0.613-7.277,0.829-21.367-4.301-35.79l-4.02-12.4c0.855-0.483,1.305-0.764,1.305-0.764l4.268,13.144
			c5.123,14.423,4.908,28.513,4.301,35.79c-0.274,3.204-0.62,5.084-0.62,5.084l-0.594,0.111c-1.78,0.322-3.5,0.613-5.162,0.875
			c-11.858,1.88-20.617,2.336-26.595,2.284C245.879,354.993,254.249,354.236,262.528,352.856z"/>
		<path style="fill:#010101;" d="M225.165,351.87v0.072h-0.848C224.638,351.92,224.921,351.896,225.165,351.87z"/>
	</g>
	<ellipse style="fill:#D49A9A;" cx="265.589" cy="339.516" rx="1.116" ry="2.297"/>
	<path style="fill:#F9C2CC;" d="M194.361,292.996c1.801-13.379,4.98-21.328,6.657-24.441c0.065,0.424,0.235,1.801,0.313,2.225
		c0.339,1.958,0.039,4.425,0.144,6.911l-1.671,30.256l2.239,9.463c2.101,7.492-5.684,1.573-5.684,1.573
		c-1.612,3.55-4.568,3.159-4.568,3.159l-0.405-5.43c-0.383-5.115,0.075-10.259,1.357-15.226
		C193.45,298.691,193.99,295.856,194.361,292.996z"/>
	<path style="opacity:0.05;fill:#010101;enable-background:new    ;" d="M194.361,292.996c1.801-13.379,4.98-21.328,6.657-24.441
		c0.065,0.424,0.235,1.801,0.313,2.225c0.339,1.958,0.039,4.425,0.144,6.911l-1.671,30.256l2.239,9.463
		c2.101,7.492-5.684,1.573-5.684,1.573c-1.612,3.55-4.568,3.159-4.568,3.159l-0.405-5.43c-0.383-5.115,0.075-10.259,1.357-15.226
		C193.45,298.691,193.99,295.856,194.361,292.996z"/>
	<path style="fill:#F9C2CC;" d="M269.27,309.319c-1.416,1.834-2.193,2.885-2.193,2.885l-5.874,8.647
		c-0.999,1.477-2.503,2.54-4.229,2.989c-2.676,0.705-6.787,1.22-10.351-0.737c-2.687-1.497-3.813-4.779-2.611-7.61l1.305-3.028
		c0,0-12.093,7.623-13.144,3.42s14.064-8.412,14.064-8.412s12.485-2.101,15.011-8.021c0,0,1.09-1.397,2.611-3.537"/>
	<path style="fill:#67627D;" d="M261.915,323.814c0,0-14.299-1.39-18.828-9.568l-2.075,6.755c0,0,15.011,10.364,18.437,9.019
		L261.915,323.814z"/>
	<path style="opacity:0.1;fill:#010101;enable-background:new    ;" d="M261.406,323.748c0,0-14.293-1.39-18.828-9.574l-2.069,6.735
		c0,0,15.011,10.364,18.43,9.019L261.406,323.748z"/>
	<path style="fill:#67627D;" d="M196.828,319.996c0,0-5.006,1.775-5.991,0.79l2.252,4.144l4.255-3.263L196.828,319.996z"/>
	<path style="opacity:0.1;fill:#010101;enable-background:new    ;" d="M196.828,319.996c0,0-5.006,1.775-5.991,0.79l2.252,4.144
		l4.255-3.263L196.828,319.996z"/>
	<polygon style="opacity:0.1;fill:#010101;enable-background:new    ;" points="227.501,347.667 227.501,339.02 225.446,347.876 	
		"/>
	<path style="opacity:0.1;fill:#010101;enable-background:new    ;" d="M247.779,168.977c-1.207,1.697-3.302,2.558-5.365,2.826
		s-4.151,0.039-6.233,0c-3.263-0.052-6.735,0.45-9.404,2.369c-1.703,1.22-2.983,2.937-4.314,4.568
		c-4.033,4.927-9.633,9.541-15.989,9.026c-1.118,0-2.189-0.452-2.969-1.253c-0.518-0.804-0.782-1.746-0.757-2.702
		c-0.273-4.062-0.144-8.141,0.385-12.178c0.255-2.498,0.875-4.946,1.84-7.264c1.136-2.324,2.629-4.455,4.425-6.317
		c2.172-2.519,4.789-4.617,7.721-6.187c2.963-1.571,6.395-2.014,9.659-1.247c3.805,1.038,6.768,4.014,10.396,5.547
		C241.318,157.908,252.321,162.561,247.779,168.977z"/>
	<path style="fill:#875B62;" d="M247.779,168.187c-1.207,1.697-3.302,2.558-5.365,2.826s-4.151,0.039-6.233,0
		c-3.263-0.059-6.735,0.444-9.404,2.363c-1.703,1.22-2.983,2.937-4.314,4.568c-4.033,4.927-9.633,9.541-15.989,9.026
		c-1.119,0.003-2.191-0.449-2.969-1.253c-0.519-0.804-0.783-1.746-0.757-2.702c-0.273-4.062-0.144-8.141,0.385-12.178
		c0.255-2.498,0.875-4.946,1.84-7.264c1.135-2.323,2.628-4.453,4.425-6.311c2.169-2.523,4.787-4.623,7.721-6.193
		c2.963-1.571,6.395-2.014,9.659-1.247c3.805,1.038,6.768,4.014,10.396,5.547C241.318,157.119,252.321,161.759,247.779,168.187z"/>
	<polygon style="fill:#F9C2CC;" points="200.665,308.999 200.613,311.381 200.078,309.103 	"/>
	<polygon style="opacity:0.05;fill:#010101;enable-background:new    ;" points="200.665,308.999 200.613,311.381 200.078,309.103 	
		"/>
	<g style="opacity:0.05;">
		<path style="fill:#010101;" d="M250.996,221.337c-5.528,18.189,10.586,20.323,10.586,20.323l12.948,34.7
			c1.051,5.913-12.361,23.136-12.361,23.136c-0.933,2.206-3.263,3.883-5.808,5.123c1.487-0.906,2.683-2.22,3.446-3.785
			c0,0,13.405-17.216,12.354-23.129l-12.948-34.707c0,0-16.107-2.134-10.586-20.323c1.847-6.076,4.568-8.843,7.323-9.835
			C254.05,214.367,252.308,217.01,250.996,221.337z"/>
	</g>
	<g style="opacity:0.1;">
		<path style="fill:#010101;" d="M251.27,237.862c0.757,0.936,1.635,1.768,2.611,2.473c1.828,1.328,3.935,2.221,6.161,2.611
			c0,0,0,0,0,0.033v0.653c-2.014-0.427-3.917-1.269-5.587-2.473C253.214,240.248,252.137,239.134,251.27,237.862z"/>
		<path style="fill:#010101;" d="M201.2,263.882c0,0.072,0,0.15,0,0.228c0.203,3.101,0.578,6.188,1.123,9.248
			c1.958,11.251-0.607,33.591-0.972,36.678c-0.209-0.137-0.418-0.268-0.653-0.418l0,0c0.098-0.744,3.107-25.107,1.018-37.024
			c-0.535-3.049-0.899-6.125-1.09-9.215c0-0.078,0-0.157,0-0.228c-0.13-1.791-0.736-3.515-1.756-4.993
			C200.223,259.778,201.038,261.779,201.2,263.882z"/>
		<path style="fill:#010101;" d="M213.215,207.573l-6.383-0.124c-0.01-0.006-0.023-0.006-0.033,0l-8.158,18.443
			c-1.427,3.192-2.52,6.523-3.263,9.94c-2.376,11.16-0.881,16.72,0.933,19.468c-2.043-2.408-4.151-7.897-1.521-20.232
			c0.728-3.419,1.811-6.752,3.231-9.946l8.217-18.443l0,0l7.525,0.15 M213.763,206.875c-0.059,0.078-0.261,0.326-0.548,0.698
			L213.763,206.875z"/>
		<path style="fill:#010101;" d="M261.314,212.579l0.111,0.033L261.314,212.579z"/>
		<path style="fill:#010101;" d="M258.971,212.475l-6.396-1.925 M252.543,210.549c-0.379,0.418-9.626,10.671-16.577,18.972
			c-6.213,7.42-17.105,6.84-19.729,6.579c-0.476-0.052-0.959-0.091-1.436-0.124c-7.133-0.457-9.94-1.305-10.879-3.107
			c1.338,1.305,4.281,1.958,10.285,2.323c0.483,0,0.959,0.072,1.436,0.117c2.611,0.261,13.516,0.842,19.729-6.572
			c6.951-8.308,16.205-18.561,16.583-18.979l0,0l9.307,2.819c-0.749-0.187-1.528-0.222-2.291-0.104L252.543,210.549z"/>
	</g>
	<path style="opacity:0.1;fill:#010101;enable-background:new    ;" d="M183.246,494.359c0,0-9.006,2.46-10.749-1.403"/>
	<path style="opacity:0.1;fill:#010101;enable-background:new    ;" d="M240.423,492.512c0,0-10.442,2.695-12.857-1.475"/>
	
		<linearGradient id="SVGID_5_" gradientUnits="userSpaceOnUse" x1="387.3343" y1="-23.346" x2="387.3343" y2="66.52" gradientTransform="matrix(1 0 0 -1 -31.16 534.8791)">
		<stop  offset="0" style="stop-color:#818181;stop-opacity:0.25"/>
		<stop  offset="0.54" style="stop-color:#818181;stop-opacity:0.12"/>
		<stop  offset="1" style="stop-color:#818181;stop-opacity:0.1"/>
	</linearGradient>
	<path style="fill:url(#SVGID_5_);" d="M390.998,486.671c0.15-1.305,0.365-2.611,0.6-3.916c1.031-5.639-0.542-11.016-1.305-13.235
		l0,0c-0.241-0.685-0.418-1.07-0.418-1.07c-4.157-1.136-20.545,11.578-26.516,16.368c-2.069,0-4.314,0.091-6.768,0.255
		c-1.07,0.078-2.141,0.104-3.211,0.085c-0.959,0-2.323,0-3.916,0c-5.541-4.464-22.692-17.889-26.96-16.727
		c0,0-0.176,0.385-0.418,1.07l0,0c-0.796,2.219-2.369,7.597-1.338,13.235c0.235,1.305,0.45,2.611,0.6,3.916
		c0.32,2.865,1.521,8.367,5.874,12.08c0.933,6.787,4.425,15.709,7.114,21.126c0.201,1.023,0.507,2.023,0.914,2.983
		c-1.109,4.281-2.389,9.868-2.023,11.747c0,0-5.795-1.403-6.383,5.573c0,0.065,0,0.144,0,0.215
		c-2.095,0.959-4.712,3.159-1.769,7.766c0.354,0.567,0.887,1.001,1.514,1.234c0.522,0.183,1.031,0.183,0.979-0.548l3.622,4.079
		c0,0,6.565,0.757,6.644-3.054l0.385,0.059c0.881,0.13,1.801,0.241,2.748,0.339l0.457,1.508c0,0-4.927-0.104-3.583,2.93
		c0,0,1.24,1.149,1.664,0.731c0,0-0.653,1.991,1.919,1.991c0,0,2.761,1.462,3.837,0.418c1.077-1.044,3.309-2.611,3.518-3.263
		c0.059-0.176,0.085-1.723,0.098-3.864h0.424c5.502,0.131,11.343-0.046,16.655-0.333h0.431c0,2.317,0.033,4.027,0.091,4.209
		c0.215,0.653,2.454,2.199,3.524,3.263c1.07,1.064,3.831-0.418,3.831-0.418c2.558,0,1.919-1.991,1.919-1.991
		c0.431,0.418,1.671-0.731,1.671-0.731c1.344-3.035-3.589-2.93-3.589-2.93l0.587-1.958l2.721-0.228l0.431-0.039
		c-0.261,4.144,6.637,3.348,6.637,3.348l3.629-4.079c-0.059,0.731,0.45,0.731,0.972,0.548c0.613-0.243,1.129-0.681,1.468-1.247
		c4.444-6.951-3.766-8.425-3.766-8.425c-0.254-0.067-0.514-0.108-0.777-0.124c0-0.117,0-0.241,0.033-0.359l0,0
		c0.106-0.914,0.123-1.837,0.052-2.754c-0.307-1.26-2.33-3.263-4.888-3.557c-1.671-0.209-1.703-7.884-1.534-13.203
		c0.188-0.998,0.276-2.013,0.261-3.028c0.033-1.64-0.187-3.276-0.653-4.849c3.263-5.534,5.874-11.336,6.167-13.053
		C389.478,495.018,390.679,489.536,390.998,486.671z"/>
	<path style="fill:#6466AF;" d="M384.681,539.567L384.681,539.567c-0.261,3.616-0.959,9.417-0.959,9.417s-2.904,0.352-7.394,0.757
		l-3.048,0.261c-2.336,0.189-4.96,0.372-7.734,0.529c-5.123,0.281-10.749,0.457-16.055,0.326c-2.65-0.059-5.221-0.196-7.603-0.431
		c-1.064-0.104-2.095-0.228-3.074-0.372c-6.083-0.907-10.442-2.643-10.814-5.691c-0.191-1.296-0.237-2.609-0.137-3.916
		c0.568-6.853,6.148-5.469,6.148-5.469c-0.359-1.893,0.992-7.773,2.088-12.028c0.692-2.682,1.305-4.719,1.305-4.719l39.236-2.611
		h0.131c1.06-0.001,1.92,0.857,1.921,1.916c0,0.033-0.001,0.067-0.003,0.1c-0.235,4.705-0.568,15.48,1.357,15.722
		c2.467,0.307,4.418,2.258,4.719,3.492C384.822,537.758,384.793,538.667,384.681,539.567z"/>
	<path style="fill:#6466AF;" d="M351.358,487.918c0,0-14.795,17.81-21.922,12.876c-0.17-0.117-0.333-0.235-0.489-0.359
		c-4.79-3.629-6.05-9.476-6.383-12.446c-0.144-1.305-0.352-2.565-0.581-3.837c-0.985-5.541,0.522-10.814,1.305-12.994l0,0
		c0.235-0.653,0.398-1.051,0.398-1.051C328.613,468.737,351.358,487.918,351.358,487.918z"/>
	<path style="fill:#6466AF;" d="M343.409,489.562c0,0-4.66,3.263-11.232,8.628c-1.023,0.838-2.115,1.589-3.263,2.245
		c-4.79-3.629-6.05-9.476-6.383-12.446c-0.144-1.305-0.352-2.565-0.581-3.837c-0.985-5.541,0.522-10.814,1.305-12.994l0,0
		C332.47,471.798,343.409,489.562,343.409,489.562z"/>
	<path style="opacity:0.5;fill:#FFFFFF;enable-background:new    ;" d="M343.409,489.562c0,0-4.66,3.263-11.232,8.628
		c-1.023,0.838-2.115,1.589-3.263,2.245c-4.79-3.629-6.05-9.476-6.383-12.446c-0.144-1.305-0.352-2.565-0.581-3.837
		c-0.985-5.541,0.522-10.814,1.305-12.994l0,0C332.47,471.798,343.409,489.562,343.409,489.562z"/>
	<path style="opacity:0.1;fill:#010101;enable-background:new    ;" d="M338.338,487.807c0,0-2.487,1.756-5.998,4.608
		c-0.54,0.445-1.117,0.845-1.723,1.194c-2.552-1.958-3.263-5.058-3.407-6.637c-0.072-0.692-0.183-1.371-0.307-2.056
		c-0.335-2.335-0.086-4.716,0.724-6.931l0,0C332.503,478.324,338.338,487.807,338.338,487.807z"/>
	<path style="fill:#6466AF;" d="M360.945,487.918c0,0,14.795,17.81,21.922,12.876c0.163-0.117,0.333-0.235,0.489-0.359
		c4.79-3.629,6.05-9.476,6.383-12.446c0.144-1.305,0.352-2.565,0.574-3.837c0.992-5.541-0.522-10.814-1.305-12.994l0,0
		c-0.235-0.653-0.405-1.051-0.405-1.051C383.689,468.737,360.945,487.918,360.945,487.918z"/>
	<path style="fill:#6466AF;" d="M368.887,489.562c0,0,4.666,3.263,11.238,8.628c1.013,0.836,2.093,1.587,3.231,2.245
		c4.79-3.629,6.05-9.476,6.383-12.446c0.144-1.305,0.352-2.565,0.574-3.837c0.992-5.541-0.522-10.814-1.305-12.994l0,0
		C379.838,471.798,368.887,489.562,368.887,489.562z"/>
	<path style="opacity:0.5;fill:#FFFFFF;enable-background:new    ;" d="M368.887,489.562c0,0,4.666,3.263,11.238,8.628
		c1.013,0.836,2.093,1.587,3.231,2.245c4.79-3.629,6.05-9.476,6.383-12.446c0.144-1.305,0.352-2.565,0.574-3.837
		c0.992-5.541-0.522-10.814-1.305-12.994l0,0C379.838,471.798,368.887,489.562,368.887,489.562z"/>
	<path style="opacity:0.1;fill:#010101;enable-background:new    ;" d="M373.997,487.794c0,0,2.473,1.749,5.959,4.568
		c0.536,0.445,1.111,0.843,1.716,1.188c2.539-1.925,3.211-5.025,3.387-6.598c0.072-0.653,0.183-1.364,0.307-2.043
		c0.34-2.319,0.105-4.685-0.685-6.892l0,0C379.799,478.37,373.997,487.794,373.997,487.794z"/>
	<path style="opacity:0.1;fill:#010101;enable-background:new    ;" d="M376.614,515.635c-1.867,2.95-3.851,5.613-5.665,7.218
		c-5.874,5.221-31.235,3.146-32.88,2.878c-0.346-0.059-1.064-1.083-1.958-2.748c0.692-2.682,1.305-4.719,1.305-4.719
		L376.614,515.635z"/>
	<path style="fill:#6466AF;" d="M356.54,486.423c-1.031,0.072-2.062,0.098-3.1,0.078c-5.293-0.091-23.123,0.144-25.1,7.342
		c-2.33,8.484,8.086,31.202,9.724,31.476c1.638,0.274,26.993,2.33,32.886-2.878c5.893-5.208,13.562-21.537,13.151-23.018
		C384.1,499.424,391.41,484.008,356.54,486.423z"/>
	<path style="opacity:0.1;fill:#010101;enable-background:new    ;" d="M355.978,500.181c0,0-13.053-2.01-19.174,10.834
		c-2.498,5.084-2.056,11.121,1.155,15.787c2.036,2.865,5.025,4.999,9.183,3.263C356.383,526.26,355.978,500.181,355.978,500.181z"/>
	<path style="opacity:0.1;fill:#010101;enable-background:new    ;" d="M355.567,499.358c0,0-13.053-2.01-19.174,10.834
		c-2.498,5.084-2.056,11.121,1.155,15.787c2.036,2.865,5.025,4.999,9.182,3.263C355.972,525.437,355.567,499.358,355.567,499.358z"
		/>
	<path style="fill:#6466AF;" d="M355.567,499.769c0,0-13.053-2.01-19.174,10.834c-2.498,5.084-2.056,11.121,1.155,15.787
		c2.036,2.865,5.025,4.999,9.182,3.263C355.972,525.849,355.567,499.769,355.567,499.769z"/>
	<path style="opacity:0.5;fill:#FFFFFF;enable-background:new    ;" d="M355.567,499.769c0,0-13.053-2.01-19.174,10.834
		c-2.498,5.084-2.056,11.121,1.155,15.787c2.036,2.865,5.025,4.999,9.182,3.263C355.972,525.849,355.567,499.769,355.567,499.769z"
		/>
	<path style="fill:#3F2B3C;" d="M341.49,511.001c0,0-1.782,1.645-1.096,2.056C341.079,513.468,341.49,511.001,341.49,511.001z"/>
	<path style="fill:#3F2B3C;" d="M343.409,513.103c0,0-0.972,2.147-0.281,2.382c0.692,0.235,1.103-1.54,1.103-1.54L343.409,513.103z"
		/>
	<path style="fill:#3F2B3C;" d="M339.108,516.346c0,0-0.953,2.532,0,2.532S339.108,516.346,339.108,516.346z"/>
	<path style="fill:none;stroke:#3F2B3C;stroke-miterlimit:10;" d="M337.927,523.127c0,0,1.906,4.869,6.866,4.523"/>
	<path style="fill:none;stroke:#3F2B3C;stroke-miterlimit:10;" d="M342.384,524.563c0,0,1.958,1.919,4.105,0.548"/>
	<path style="opacity:0.1;fill:#010101;enable-background:new    ;" d="M357.649,500.181c0,0,13.053-2.01,19.174,10.834
		c2.498,5.084,2.056,11.121-1.155,15.787c-2.03,2.865-5.025,4.999-9.183,3.263C357.218,526.26,357.649,500.181,357.649,500.181z"/>
	<path style="opacity:0.1;fill:#010101;enable-background:new    ;" d="M358.034,499.358c0,0,13.053-2.01,19.174,10.834
		c2.498,5.084,2.056,11.121-1.155,15.787c-2.03,2.865-5.025,4.999-9.183,3.263C357.649,525.437,358.034,499.358,358.034,499.358z"/>
	<path style="fill:#6466AF;" d="M358.034,499.769c0,0,13.053-2.01,19.174,10.834c2.498,5.084,2.056,11.121-1.155,15.787
		c-2.03,2.865-5.025,4.999-9.183,3.263C357.649,525.849,358.034,499.769,358.034,499.769z"/>
	<path style="opacity:0.5;fill:#FFFFFF;enable-background:new    ;" d="M358.034,499.769c0,0,13.053-2.01,19.174,10.834
		c2.498,5.084,2.056,11.121-1.155,15.787c-2.03,2.865-5.025,4.999-9.183,3.263C357.649,525.849,358.034,499.769,358.034,499.769z"/>
	<path style="fill:#3F2B3C;" d="M372.111,511.001c0,0,1.782,1.645,1.096,2.056C372.522,513.468,372.111,511.001,372.111,511.001z"/>
	<path style="fill:#3F2B3C;" d="M370.193,513.103c0,0,0.972,2.147,0.281,2.382c-0.692,0.235-1.103-1.54-1.103-1.54L370.193,513.103z
		"/>
	<path style="fill:#3F2B3C;" d="M374.5,516.346c0,0,0.946,2.532,0,2.532S374.5,516.346,374.5,516.346z"/>
	<path style="fill:none;stroke:#3F2B3C;stroke-miterlimit:10;" d="M375.675,523.127c0,0-1.906,4.869-6.866,4.523"/>
	<path style="fill:none;stroke:#3F2B3C;stroke-miterlimit:10;" d="M371.224,524.563c0,0-1.958,1.919-4.112,0.548"/>
	<path style="fill:#3F2B3C;" d="M350.601,536.963c0.346-0.065,6.853-2.878,13.562,0H350.601z"/>
	<path style="opacity:0.1;fill:#010101;enable-background:new    ;" d="M338.814,550.074c-6.083-0.907-10.442-2.643-10.814-5.691
		c-0.191-1.296-0.237-2.609-0.137-3.916c0.731-0.391,1.513-0.677,2.323-0.848c1.103-0.307,2.467-0.098,5.345,0.724
		s2.669,4.209,3.263,8.628C338.857,549.336,338.863,549.708,338.814,550.074z"/>
	<path style="fill:#6466AF;" d="M329.775,540.043c0,0-7.91,1.449-3.629,8.275c0.339,0.554,0.854,0.979,1.462,1.207
		c0.503,0.176,0.985,0.176,0.933-0.542l3.498,4.007c0,0,6.983,0.822,6.37-3.596c-0.613-4.418-0.411-7.832-3.263-8.628
		S330.891,539.737,329.775,540.043z"/>
	<path style="fill:none;stroke:#3F2B3C;stroke-miterlimit:10;" d="M331.661,544.638c0,0,1.677,3.831,4.007,0.613"/>
	<path style="fill:none;stroke:#3F2B3C;stroke-miterlimit:10;" d="M327.811,546.158c0,0,0.868,3.629,4.157,0.927"/>
	<path style="opacity:0.1;fill:#010101;enable-background:new    ;" d="M384.681,539.567L384.681,539.567
		c-0.261,3.616-0.959,9.417-0.959,9.417s-2.904,0.352-7.394,0.757c-0.025-0.252-0.025-0.505,0-0.757
		c0.613-4.418,0.411-7.832,3.263-8.628C382.266,539.632,383.63,539.365,384.681,539.567z"/>
	<path style="fill:#6466AF;" d="M385.399,540.043c0,0,7.916,1.449,3.635,8.275c-0.341,0.553-0.855,0.977-1.462,1.207
		c-0.503,0.176-0.992,0.176-0.94-0.542l-3.492,4.007c0,0-6.99,0.822-6.37-3.596c0.62-4.418,0.411-7.832,3.263-8.628
		S384.302,539.737,385.399,540.043z"/>
	<path style="fill:none;stroke:#3F2B3C;stroke-miterlimit:10;" d="M383.519,544.638c0,0-1.684,3.831-4.007,0.613"/>
	<path style="fill:none;stroke:#3F2B3C;stroke-miterlimit:10;" d="M387.37,546.158c0,0-0.875,3.629-4.164,0.927"/>
	<path style="opacity:0.1;fill:#010101;enable-background:new    ;" d="M349.491,550.857c-2.65-0.059-5.221-0.196-7.603-0.431
		l-2.369-7.975c-0.141-0.472-0.213-0.962-0.215-1.455c0.091-2.803,2.437-5.001,5.24-4.91c2.662,0.087,4.805,2.216,4.909,4.877
		C349.478,544.07,349.504,548.005,349.491,550.857z"/>
	<path style="fill:#6466AF;" d="M339.108,542.451l2.793,9.411c0,0-4.751-0.104-3.452,2.878c0,0,1.194,1.129,1.605,0.718
		c0,0-0.62,1.958,1.847,1.958c0,0,2.663,1.442,3.694,0.411s3.191-2.571,3.4-3.185c0.131-0.405,0.091-8.275,0.046-13.705
		c-0.022-2.784-2.287-5.029-5.071-5.025l0,0c-2.801-0.005-5.075,2.262-5.079,5.062C338.89,541.475,338.963,541.973,339.108,542.451z
		"/>
	<path style="fill:none;stroke:#3F2B3C;stroke-miterlimit:10;" d="M342.88,554.297c0,0-2.075,1.958-0.979,3.113"/>
	<path style="fill:none;stroke:#3F2B3C;stroke-miterlimit:10;" d="M341.986,553.05c0,0-1.919,0.653-1.919,2.408"/>
	<path style="opacity:0.1;fill:#010101;enable-background:new    ;" d="M375.733,540.996c0,0.493-0.07,0.983-0.209,1.455
		l-2.212,7.551c-2.336,0.189-4.96,0.372-7.734,0.529c0-2.819,0-6.572,0.046-9.568c0.009-2.801,2.287-5.064,5.087-5.055
		c2.801,0.009,5.064,2.287,5.055,5.087l0,0H375.733z"/>
	<path style="fill:#6466AF;" d="M375.923,542.451l-2.793,9.411c0,0,4.758-0.104,3.459,2.878c0,0-1.194,1.129-1.605,0.718
		c0,0,0.613,1.958-1.853,1.958c0,0-2.663,1.442-3.694,0.411s-3.185-2.571-3.394-3.185c-0.131-0.405-0.091-8.275-0.046-13.705
		c0.022-2.784,2.287-5.029,5.071-5.025l0,0c2.801-0.001,5.072,2.268,5.073,5.069C376.14,541.479,376.067,541.975,375.923,542.451z"
		/>
	<path style="fill:none;stroke:#3F2B3C;stroke-miterlimit:10;" d="M372.157,554.297c0,0,2.075,1.958,0.979,3.113"/>
	<path style="fill:none;stroke:#3F2B3C;stroke-miterlimit:10;" d="M373.071,553.05c0,0,1.919,0.653,1.919,2.408"/>
	<path style="opacity:0.1;fill:#010101;enable-background:new    ;" d="M355.574,497.714c0,0-9.665-0.307-9.972,7.179
		c-0.307,7.486,15.102,4.314,15.102,4.314s6.474-0.868,5.345-5.417C364.919,499.241,362.563,498.125,355.574,497.714z"/>
	<path style="opacity:0.1;fill:#010101;enable-background:new    ;" d="M355.574,496.891c0,0-9.665-0.307-9.972,7.179
		s15.102,4.314,15.102,4.314s6.474-0.868,5.345-5.417C364.919,498.419,362.563,497.302,355.574,496.891z"/>
	<path style="fill:#3F2B3C;" d="M355.574,497.302c0,0-9.665-0.307-9.972,7.179s15.102,4.314,15.102,4.314s6.474-0.868,5.345-5.417
		C364.919,498.83,362.563,497.714,355.574,497.302z"/>
	<path style="opacity:0.1;fill:#010101;enable-background:new    ;" d="M334.011,535.011c0,0,3.263,1.162,3.916,3.387"/>
	<path style="opacity:0.1;fill:#010101;enable-background:new    ;" d="M380.021,533.367c0,0-2.317,0.972-2.154,5.032"/>
	
		<ellipse transform="matrix(-0.4983 -0.867 0.867 -0.4983 23.9277 1117.8013)" style="fill:#6466AF;" cx="335.384" cy="551.977" rx="2.508" ry="1.513"/>
	
		<ellipse transform="matrix(-0.866 -0.5 0.5 -0.866 436.6638 1216.4777)" style="fill:#6466AF;" cx="381.309" cy="549.737" rx="1.508" ry="2.5"/>
	
		<ellipse transform="matrix(-0.4983 -0.867 0.867 -0.4983 23.9277 1117.8013)" style="opacity:0.5;fill:#FFFFFF;enable-background:new    ;" cx="335.384" cy="551.977" rx="2.508" ry="1.513"/>
	
		<ellipse transform="matrix(-0.866 -0.5 0.5 -0.866 436.6638 1216.4777)" style="opacity:0.5;fill:#FFFFFF;enable-background:new    ;" cx="381.309" cy="549.737" rx="1.508" ry="2.5"/>
	<ellipse style="opacity:0.25;fill:#FFC713;" cx="135.598" cy="467.321" rx="17.575" ry="2.969"/>
	<ellipse style="opacity:0.25;fill:#FFC713;" cx="66.36" cy="509.435" rx="17.575" ry="2.969"/>
	
		<ellipse style="fill:#7154A2;stroke:#030303;stroke-width:0.2113;stroke-miterlimit:10;" cx="37.204" cy="479.764" rx="37.099" ry="6.274"/>
	<path style="fill:#7154A2;stroke:#030303;stroke-width:0.2113;stroke-miterlimit:10;" d="M21.861,469.504
		c-1.696-1.376-2.932-3.236-3.543-5.333c-0.452-2.122,0.452-4.659,2.473-5.434c2.27-0.867,4.696,0.701,6.532,2.288
		c1.836,1.587,3.949,3.404,6.357,3.072c-2.519-2.285-3.654-5.725-2.989-9.06c0.099-0.68,0.387-1.319,0.83-1.845
		c1.255-1.347,3.543-0.766,5.056,0.295c4.788,3.377,6.135,9.89,6.154,15.758c0.489-2.122,0.083-4.318,0.092-6.458
		c0.009-2.14,0.609-4.613,2.436-5.739c1.128-0.625,2.401-0.943,3.69-0.923c2.159-0.074,4.558,0.138,6.034,1.716
		c1.845,1.956,1.356,5.25-0.24,7.381c-1.596,2.131-4.013,3.506-6.237,5.001c-1.791,1.062-3.318,2.516-4.465,4.253
		c-0.134,0.241-0.246,0.494-0.332,0.757H30.229C27.192,473.714,24.377,471.786,21.861,469.504z"/>
	
		<ellipse style="fill:#7154A2;stroke:#030303;stroke-width:0.2113;stroke-miterlimit:10;" cx="680.484" cy="527.114" rx="35.001" ry="5.919"/>
	<path style="fill:#7154A2;stroke:#030303;stroke-width:0.2113;stroke-miterlimit:10;" d="M666.009,517.434
		c-1.6-1.298-2.766-3.053-3.343-5.031c-0.427-2.002,0.427-4.396,2.333-5.127c2.141-0.818,4.431,0.662,6.163,2.159
		c1.732,1.497,3.726,3.212,5.997,2.899c-2.377-2.156-3.447-5.401-2.82-8.548c0.094-0.642,0.365-1.245,0.783-1.741
		c1.184-1.271,3.343-0.722,4.77,0.279c4.518,3.186,5.788,9.331,5.806,14.867c0.461-2.002,0.078-4.074,0.087-6.093
		c0.009-2.019,0.574-4.352,2.298-5.414c1.065-0.589,2.265-0.89,3.482-0.87c2.037-0.07,4.3,0.131,5.693,1.619
		c1.741,1.845,1.28,4.953-0.226,6.964c-1.506,2.011-3.786,3.308-5.884,4.718c-1.69,1.002-3.13,2.374-4.213,4.013
		c-0.127,0.227-0.232,0.466-0.313,0.714h-12.717C671.039,521.406,668.382,519.587,666.009,517.434z"/>
	
		<ellipse style="fill:#7154A2;stroke:#030303;stroke-width:0.2113;stroke-miterlimit:10;" cx="706.372" cy="446.753" rx="25.887" ry="4.378"/>
	<path style="fill:#7154A2;stroke:#030303;stroke-width:0.2113;stroke-miterlimit:10;" d="M695.665,439.594
		c-1.184-0.96-2.046-2.258-2.472-3.721c-0.315-1.481,0.315-3.251,1.725-3.792c1.584-0.605,3.277,0.489,4.558,1.597
		c1.281,1.107,2.755,2.376,4.436,2.144c-1.758-1.594-2.55-3.995-2.086-6.322c0.069-0.475,0.27-0.921,0.579-1.288
		c0.876-0.94,2.472-0.534,3.528,0.206c3.341,2.356,4.281,6.901,4.294,10.996c0.341-1.481,0.058-3.013,0.064-4.507
		c0.006-1.494,0.425-3.219,1.7-4.004c0.787-0.436,1.675-0.658,2.575-0.644c1.506-0.052,3.18,0.097,4.21,1.197
		c1.288,1.365,0.946,3.663-0.167,5.15c-1.114,1.487-2.8,2.446-4.352,3.489c-1.25,0.741-2.315,1.756-3.116,2.968
		c-0.094,0.168-0.171,0.345-0.232,0.528h-9.406C699.385,442.531,697.421,441.186,695.665,439.594z"/>
	
		<ellipse style="fill:#7154A2;stroke:#030303;stroke-width:0.2113;stroke-miterlimit:10;" cx="71.953" cy="408.977" rx="26.446" ry="4.472"/>
	<path style="fill:#7154A2;stroke:#030303;stroke-width:0.2113;stroke-miterlimit:10;" d="M61.015,401.664
		c-1.209-0.981-2.09-2.307-2.526-3.802c-0.322-1.513,0.322-3.321,1.763-3.874c1.618-0.618,3.348,0.5,4.657,1.631
		s2.815,2.427,4.532,2.19c-1.796-1.629-2.605-4.081-2.131-6.459c0.071-0.485,0.276-0.941,0.592-1.315
		c0.894-0.96,2.526-0.546,3.604,0.21c3.413,2.407,4.374,7.051,4.387,11.234c0.349-1.513,0.059-3.078,0.066-4.604
		c0.007-1.526,0.434-3.288,1.736-4.091c0.804-0.445,1.711-0.672,2.631-0.658c1.539-0.053,3.249,0.099,4.301,1.223
		c1.315,1.394,0.967,3.742-0.171,5.262c-1.138,1.519-2.861,2.499-4.446,3.565c-1.277,0.757-2.365,1.794-3.183,3.032
		c-0.096,0.172-0.175,0.352-0.237,0.539h-9.609C64.816,404.664,62.809,403.29,61.015,401.664z"/>
</g>
</svg>
