<svg xmlns="http://www.w3.org/2000/svg" viewBox="0 0 724.14 578.79"><defs><style>.cls-1,.cls-7{fill:#6466af;}.cls-1,.cls-5{opacity:0.1;}.cls-1,.cls-16,.cls-5{isolation:isolate;}.cls-2{fill:#ffc709;}.cls-3{fill:#29abe2;}.cls-4{fill:#403e56;}.cls-16,.cls-5{fill:#010101;}.cls-6{fill:#77c043;}.cls-8{fill:#333544;}.cls-9{fill:#f8b2b2;}.cls-10{fill:#5c5684;}.cls-11{fill:#1ca0ce;}.cls-12{fill:#1b144e;}.cls-13{fill:#3d364d;}.cls-14{fill:#cccfda;}.cls-15{fill:#a9a8a8;}.cls-16{opacity:0.2;}</style></defs><title>telimciler</title><g id="Layer_2" data-name="Layer 2"><g id="Layer_2-2" data-name="Layer 2"><rect class="cls-1" x="148.03" y="99.26" width="65.67" height="19.85" rx="5.67"/><rect class="cls-1" x="216.76" y="119.12" width="65.67" height="19.85" rx="5.67"/><rect class="cls-1" x="285.48" y="138.97" width="65.67" height="19.85" rx="5.67"/><rect class="cls-1" x="148.03" y="69.49" width="65.67" height="19.85" rx="5.67"/><rect class="cls-1" x="216.76" y="89.34" width="65.67" height="19.85" rx="5.67"/><rect class="cls-1" x="285.48" y="109.19" width="65.67" height="19.85" rx="5.67"/><rect class="cls-1" x="361.83" y="99.26" width="65.67" height="19.85" rx="5.67"/><rect class="cls-1" x="430.56" y="119.12" width="65.67" height="19.85" rx="5.67"/><rect class="cls-1" x="499.28" y="138.97" width="65.67" height="19.85" rx="5.67"/><rect class="cls-1" x="361.83" y="69.49" width="65.67" height="19.85" rx="5.67"/><rect class="cls-1" x="430.56" y="89.34" width="65.67" height="19.85" rx="5.67"/><rect class="cls-1" x="499.28" y="109.19" width="65.67" height="19.85" rx="5.67"/><rect class="cls-1" x="148.03" y="29.78" width="65.67" height="19.85" rx="5.67"/><rect class="cls-1" x="216.76" y="49.63" width="65.67" height="19.85" rx="5.67"/><rect class="cls-1" x="285.48" y="69.49" width="65.67" height="19.85" rx="5.67"/><rect class="cls-1" x="148.03" width="65.67" height="19.85" rx="5.67"/><rect class="cls-1" x="216.76" y="19.85" width="65.67" height="19.85" rx="5.67"/><rect class="cls-1" x="285.48" y="39.71" width="65.67" height="19.85" rx="5.67"/><rect class="cls-1" x="361.83" y="29.78" width="65.67" height="19.85" rx="5.67"/><rect class="cls-1" x="430.56" y="49.63" width="65.67" height="19.85" rx="5.67"/><rect class="cls-1" x="499.28" y="69.49" width="65.67" height="19.85" rx="5.67"/><rect class="cls-1" x="361.83" width="65.67" height="19.85" rx="5.67"/><rect class="cls-1" x="430.56" y="19.85" width="65.67" height="19.85" rx="5.67"/><rect class="cls-1" x="499.28" y="39.71" width="65.67" height="19.85" rx="5.67"/><rect class="cls-1" x="148.03" y="452.8" width="65.67" height="19.85" rx="5.67"/><rect class="cls-1" x="216.76" y="472.65" width="65.67" height="19.85" rx="5.67"/><rect class="cls-1" x="285.48" y="492.5" width="65.67" height="19.85" rx="5.67"/><rect class="cls-1" x="148.03" y="423.02" width="65.67" height="19.85" rx="5.67"/><rect class="cls-1" x="216.76" y="442.87" width="65.67" height="19.85" rx="5.67"/><rect class="cls-1" x="285.48" y="462.73" width="65.67" height="19.85" rx="5.67"/><rect class="cls-1" x="361.83" y="452.8" width="65.67" height="19.85" rx="5.67"/><rect class="cls-1" x="430.56" y="472.65" width="65.67" height="19.85" rx="5.67"/><rect class="cls-1" x="499.28" y="492.5" width="65.67" height="19.85" rx="5.67"/><rect class="cls-1" x="361.83" y="423.02" width="65.67" height="19.85" rx="5.67"/><rect class="cls-1" x="430.56" y="442.87" width="65.67" height="19.85" rx="5.67"/><rect class="cls-1" x="499.28" y="462.73" width="65.67" height="19.85" rx="5.67"/><rect class="cls-1" x="148.03" y="383.31" width="65.67" height="19.85" rx="5.67"/><rect class="cls-1" x="216.76" y="403.17" width="65.67" height="19.85" rx="5.67"/><rect class="cls-1" x="285.48" y="423.02" width="65.67" height="19.85" rx="5.67"/><rect class="cls-1" x="148.03" y="353.53" width="65.67" height="19.85" rx="5.67"/><rect class="cls-1" x="216.76" y="373.39" width="65.67" height="19.85" rx="5.67"/><rect class="cls-1" x="285.48" y="393.24" width="65.67" height="19.85" rx="5.67"/><rect class="cls-1" x="361.83" y="383.31" width="65.67" height="19.85" rx="5.67"/><rect class="cls-1" x="430.56" y="403.17" width="65.67" height="19.85" rx="5.67"/><rect class="cls-1" x="499.28" y="423.02" width="65.67" height="19.85" rx="5.67"/><rect class="cls-1" x="361.83" y="353.53" width="65.67" height="19.85" rx="5.67"/><rect class="cls-1" x="430.56" y="373.39" width="65.67" height="19.85" rx="5.67"/><rect class="cls-1" x="499.28" y="393.24" width="65.67" height="19.85" rx="5.67"/><ellipse class="cls-1" cx="368.32" cy="551.3" rx="334.83" ry="27.49"/><path class="cls-2" d="M64.64,142.64c31.57,13.68,49.71,42,49.71,42s-33,6.11-64.63-7.57S0,135.07,0,135.07,33.06,129,64.64,142.64Z"/><path class="cls-2" d="M161.53,90.1c9.77-16,26.4-23.67,26.4-23.67s.76,18.28-9,34.27-26.41,23.62-26.41,23.62S151.76,106.05,161.53,90.1Z"/><path class="cls-3" d="M89.74,107.26c7,24.94,26.25,41.35,26.25,41.35s7.93-24,.94-49S90.68,58.28,90.68,58.28,82.75,82.31,89.74,107.26Z"/><rect class="cls-4" x="90.77" y="106.14" width="556.64" height="278.7" rx="5.51"/><path class="cls-5" d="M90.77,368H647.41v11.3a5.5,5.5,0,0,1-5.5,5.5H96.27a5.5,5.5,0,0,1-5.5-5.5V368Z"/><rect class="cls-6" x="144.98" y="347.43" width="41.23" height="20.62" rx="1.91"/><path class="cls-7" d="M199.19,365h25.2a1.53,1.53,0,0,1,1.53,1.53h0a1.53,1.53,0,0,1-1.53,1.52h-25.2a1.52,1.52,0,0,1-1.52-1.52h0A1.52,1.52,0,0,1,199.19,365Z"/><path class="cls-7" d="M172.58,160.64c20.15,3.72,40.71,0,60.78-2.52l61-7.63c2.47-.32,6.06-1.79,7.51,1.22.82,1.69.27,5.35.33,7.29.16,5.34.14,10.69,0,16-.28,10.22-1,20.41-2,30.58-1.86,19.91-4.48,39.71-5.8,59.69-.67,10.17-1,20.38-.71,30.55.07,2.42.17,4.85.32,7.27.16,2.71,1.37,6.74-1.58,8.55-1.69,1-5,1-6.95,1.29-3.05.48-6.1.86-9.22,1.17-20.53,2.06-41.33,1.2-61.94,1.08l-62.23-.32-15.18-.08c-1.38,0-6.33.82-7.18-.81-.36-.7.6-3.95.76-4.82.24-1.44.49-2.87.77-4.3,1.77-10,3.86-20,6-30,4.53-21.38,9.16-42.87,11-64.71.92-11,.31-22,1.44-33,.53-5.07,1.15-16.41,7.91-16.86,5.73-.38,11.62,0,17.36,0a1.15,1.15,0,1,0,0-2.29c-5.42,0-10.85-.14-16.27,0-3.6.07-6.11.93-7.83,4.24-4.39,8.51-3.94,19.86-4.07,29.14-.33,22.23-3.74,44-8.19,65.72-2.24,10.94-4.65,21.85-6.87,32.8-1.05,5.23-2.05,10.47-3,15.73-.43,2.51-2.59,8-.69,10.33s7.75,1.06,10.37,1.07l18.22.11,34.91.2c22.55.13,45.19.76,67.73.1,10.77-.32,22.15-.77,32.63-3.34,3.13-.76,4.63-2.2,4.75-5.53.18-5.16-.66-10.48-.76-15.67-.77-44.36,9.66-88.1,8.59-132.48-.07-3,1.07-10.62-2.23-12.45-1.48-.82-3.41-.37-5-.19-3,.34-5.95.76-8.93,1.12l-38.68,4.82c-12.36,1.53-24.71,3.18-37.1,4.58-13.11,1.53-26.35,2.44-39.41,0-1.45-.26-2.07,1.94-.61,2.21Z"/><path class="cls-7" d="M148.27,187.63l152.58-7.48c1.47-.08,1.48-2.37,0-2.29l-152.58,7.48C146.8,185.41,146.8,187.7,148.27,187.63Z"/><path class="cls-7" d="M195.28,168.75a3.82,3.82,0,0,0,.15,5.4,4.07,4.07,0,0,0,1.2.76c2.05.94,4.46.15,6.5-.36,3.06-.76,6.11-1.44,9.25-2a125.88,125.88,0,0,1,20.69-1.92c3.16,0,6.29.1,9.46.24,2.29.09,4.75.28,6.69-1.14,2.22-1.62,2.93-4.78.77-6.75-3.06-2.79-9.64-1.17-13.17-.88a294.5,294.5,0,0,0-38.07,5.68c-1.44.31-.83,2.52.61,2.21q12.42-2.69,25-4.31,6.19-.77,12.42-1.29c2-.16,3.91-.31,5.87-.42.76-.05,1.57-.13,2.35-.11,2.42.06,2.7-.38,1.25,2.55-1.29,2.58-.88,2.29-3.11,2.2-1,0-1.9-.1-2.85-.15-1.93-.08-3.87-.13-5.81-.13q-6.2,0-12.36.6-5.22.49-10.4,1.42-3.22.57-6.42,1.31c-.94.22-1.89.45-2.83.69l-1.35.34c-1.67.58-3.1-.18-4.27-2.29,1-1.06-.59-2.69-1.62-1.62Z"/><path class="cls-7" d="M222.93,201.34c-11.05-.43-23,2.56-30.26,11.45-5.69,7-8.94,18.89-2.91,26.73,6.49,8.4,20.7,6.92,29.28,3.33,9.07-3.81,19-11.69,21.72-21.54,3.4-12.3-7.63-21.6-19.13-21.73a1.15,1.15,0,0,0,0,2.29c6.56.07,13,2.88,16,9,3.2,6.43.44,13.18-3.82,18.33-6.82,8.19-17.5,14.37-28.37,14.19-6.53-.1-13.75-2.33-15.77-9.22-1.66-5.58-.4-11.68,2.5-16.63,6.28-10.69,19.06-14.31,30.77-13.85,1.47.05,1.47-2.24,0-2.29Z"/><path class="cls-7" d="M212,218.31a3,3,0,0,0-3.83,1.75,3,3,0,0,0-.17,1.3c.23,3,3.51,3.82,6,3.64,2.13-.18,4.62-1,3.87-3.63a3.45,3.45,0,0,0-1.86-2.16,4.31,4.31,0,0,0-2.16-.26c-.28,0-2.87.94-1.77-.19l-1.8-.24a1.89,1.89,0,0,1,.55,1.53,1.16,1.16,0,0,0,1.17,1.13,1.08,1.08,0,0,0,.55-.15,1.53,1.53,0,0,1,2,.82,1.61,1.61,0,0,1,.07,1,1.14,1.14,0,0,0,.86,1.38,1.16,1.16,0,0,0,1.23-.5c.76-1.37,1.69-4.1.54-5.54-.76-1-2.24-.68-3.15-.11a10.73,10.73,0,0,0-1.58,1.35c-.92.81-1.52,1.2-1.18-.37.57-2.85,3.29-5.12,5.77-6.25l-1.68-1.29a24.1,24.1,0,0,1-4.62,9l2,.8a5.1,5.1,0,0,1,3.11-5H214.7l.6,1c-.22,1.44,2,2.06,2.2.6.29-1.88-.9-4.33-3.1-3.41-2.64,1.1-4,4.12-4,6.8,0,.92,1.3,1.63,2,.82a26.89,26.89,0,0,0,5.2-10.07,1.16,1.16,0,0,0-1.69-1.29,12.85,12.85,0,0,0-5.56,4.84c-.93,1.53-2.1,3.91-1.15,5.67a2.43,2.43,0,0,0,3.3.95h0a9.17,9.17,0,0,0,1.92-1.53c.28-.25.6-.69,1-.77s.32-.09,0,.41a4.22,4.22,0,0,1-.67,2.23l2.09.88a3.82,3.82,0,0,0-5.43-4.38l1.73,1a4.15,4.15,0,0,0-.86-2.69,1.17,1.17,0,0,0-1.6-.39,1,1,0,0,0-.2.15,3,3,0,0,0,.08,4.44c1.09.83,1.63,0,2.82-.19,4.07-.53,1.7,1.3.26,1.36a5.34,5.34,0,0,1-1.91-.13c-1.6-.54-1.69-1.24-.3-2.09,1.37.56,2-1.65.61-2.2Z"/><path class="cls-7" d="M210.12,222.49c.94,3-2.94,4.06-4.78,5.12A10.67,10.67,0,0,0,202,230.5c-1.92,2.58-2.64,5.86-3.27,9-.29,1.44,1.91,2,2.21.61a26.12,26.12,0,0,1,1.93-6.59c1.38-2.74,3.35-3.65,5.91-5.06s4.43-3.58,3.52-6.54c-.43-1.41-2.65-.8-2.21.61Z"/><path class="cls-7" d="M213.94,221a2.21,2.21,0,0,0-1.91,2.29c0,.9.6,1.48,1,2.21a17.44,17.44,0,0,1,2.22,4.82c.37,1.64.72,4.58-.13,6.11-1.58,2.83-4.44,2.29-6.87,2.29s-4.07.76-4-2.43c0-1.79,1.3-3.61,2.29-5l-2.09-.28a40,40,0,0,1,.69,7.07c0,1.06,1.63,1.65,2.13.57a43.39,43.39,0,0,0,2.91-8l-2.25-.31.4,5.8a1.15,1.15,0,0,0,2.13.58,2.49,2.49,0,0,0,.57-1c.08-.36-.62-2.78-.91-1.91l2.25.3.16-5.51-2.29.3a11.53,11.53,0,0,1,.43,4.81c-.15,1.28,2,1.57,2.29.31l1.43-7.41-2.09.27a5.08,5.08,0,0,1,.39,3.3c-.17,1.47,2.12,1.45,2.29,0a8.1,8.1,0,0,0-.7-4.45,1.15,1.15,0,0,0-1.59-.39,1.24,1.24,0,0,0-.51.66l-1.44,7.41,2.25.3a12.41,12.41,0,0,0-.51-5.41,1.14,1.14,0,0,0-2.24.3L210.1,234a1.15,1.15,0,0,0,2.25.31l.12-.38a1.14,1.14,0,0,0-.29-1.11c-2.37-2.58-2.85,1.53-3.68,2.66l2.14.58-.4-5.8a1.15,1.15,0,0,0-2.25-.31,41.41,41.41,0,0,1-2.67,7.51l2.14.58a44,44,0,0,0-.77-7.68c-.2-1.05-1.58-1-2.09-.28-1.53,2.2-4.17,7-2.13,9.64,1.78,2.29,7.38,1.41,9.77,1.26,3.77-.21,5.13-2.6,5.55-6.16a15.07,15.07,0,0,0-.29-5.1c-.2-.9-2.29-6.61-2.91-6.5,1.45-.27.83-2.48-.61-2.21Z"/><path class="cls-7" d="M209.5,226.1l-6.25,8.26,2,1.15,4.58-6.63-2.1-.88-2.28,8.71a1.15,1.15,0,0,0,2.09.88,41.18,41.18,0,0,1,3.49-4.91l-1.91-1.11a12.5,12.5,0,0,1-2.87,5.29l1.91,1.12a10.44,10.44,0,0,1,.83-3.06c.59-1.32-1.27-2.49-2-1.16a27.9,27.9,0,0,1-2.21,3.47l2.09.27.47-2.17-2.09-.28.33,1.91a1.16,1.16,0,0,0,1.43.79,1.12,1.12,0,0,0,.49-.29,22.58,22.58,0,0,0,4.58-6.91h-2a10.44,10.44,0,0,1,1.08,3.06c.27,1.37,2.1.86,2.24-.31a62.13,62.13,0,0,0,.51-7.71h-2.3v4.8c0,1.25,2,1.61,2.26.31a8.64,8.64,0,0,1,1.12-3.28h-2a5.05,5.05,0,0,1,.77,2.59,1.15,1.15,0,1,0,2.29,0l.29-1.53h-2.21c.22,1.36,1.06,9-1.92,8.07-.51-.12-.65-.09-.44.09l.68-1.45,1.6-3.38-2.14-.58c.13,1.57.28,3.81-.67,5.16a4,4,0,0,1-4.31.88,7.48,7.48,0,0,1-2-2.09l-1.57,1.53c1.27.92,3.32,3.19,5,3.32,1.24.1,2.29-.93,3.1-1.76a13.25,13.25,0,0,0,3.74-9.79,1.15,1.15,0,1,0-2.29,0v2.61a1.15,1.15,0,0,0,2.29,0v-6.41a1.15,1.15,0,0,0-2.29,0,28,28,0,0,1-.4,4.58l2.25.31a53.08,53.08,0,0,1-.25-5.49,1.15,1.15,0,0,0-1.16-1.13,1.13,1.13,0,0,0-1.08.82c-.35,1.46-.77,2.9-1.17,4.32l2.09-.27-.16-.61c-.11-1.46-2.4-1.47-2.29,0a4.2,4.2,0,0,0,.47,1.77,1.16,1.16,0,0,0,2.09-.27c.44-1.44.83-2.88,1.17-4.33l-2.25-.3a53.08,53.08,0,0,0,.25,5.49c.12,1.17,2,1.68,2.25.3a32.58,32.58,0,0,0,.48-5.22h-2.29v6.41h2.29v-2.61h-2.29a11.06,11.06,0,0,1-2.79,7.85,10.65,10.65,0,0,1-1,.94c-.54.52-1,.45-1.48-.23a20,20,0,0,1-3.15-2.3c-.95-.67-2.24.67-1.57,1.57,1.75,2.34,4.37,4.94,7.63,3.82,3.43-1.22,3.9-5.86,3.64-8.91-.09-1-1.61-1.71-2.13-.58-.77,1.62-1.53,3.22-2.29,4.84a4.17,4.17,0,0,0-.69,2c.25,1.72,2.34,1.44,3.62,1.34,5-.37,4.18-7.42,3.61-11-.19-1.17-1.9-1-2.21,0a7,7,0,0,0-.37,2.17h2.29a9,9,0,0,0-1.08-3.75,1.15,1.15,0,0,0-1.58-.39,1.12,1.12,0,0,0-.39.39,10.93,10.93,0,0,0-1.36,3.82l2.29.31v-4.81a1.15,1.15,0,0,0-2.29,0,62.29,62.29,0,0,1-.51,7.72l2.26-.31a13,13,0,0,0-1.31-3.57,1.15,1.15,0,0,0-1.58-.4,1.27,1.27,0,0,0-.4.4,20.89,20.89,0,0,1-4.22,6.44l1.92.51-.34-1.91c-.18-1-1.61-1-2.09-.28a5,5,0,0,0-.7,3.94c.19,1.09,1.57,1,2.1.28a26.61,26.61,0,0,0,2.2-3.46l-2-1.16a13.25,13.25,0,0,0-1.06,3.59c-.14,1,1.06,2.07,1.91,1.12a15.36,15.36,0,0,0,3.47-6.31c.28-1-1.15-2-1.92-1.11a44.68,44.68,0,0,0-3.82,5.34l2.1.89,2.33-8.68a1.16,1.16,0,0,0-2.1-.89l-4.58,6.64c-.85,1.23,1.11,2.29,2,1.15l6.23-8.25c.89-1.17-1.1-2.29-2-1.16Z"/><path class="cls-7" d="M306.92,253.66c9.16-5.61,16.45-14,24.54-21,8.78-7.58,18-14.65,27.49-21.34,18.43-13,37.79-24.59,57.13-36.17a1.15,1.15,0,0,0-1.15-2c-19.35,11.58-38.71,23.17-57.14,36.18-8.7,6.11-17.19,12.58-25.33,19.45-8.86,7.49-16.75,16.8-26.73,22.84-1.26.76-.1,2.75,1.16,2Z"/><path class="cls-7" d="M445.65,139.62c-9.92,1-20.61,3.53-26.72,12.22-5.28,7.46-5.16,20.49-.21,28.16,5.63,8.71,17.13,9,26.06,6.2s18.18-7.75,18.1-18.43c-.05-5.72-2.12-11.69-4.4-16.88-2-4.48-5.46-8.4-10.74-7.9-1.46.13-1.48,2.42,0,2.29,7.07-.66,9.35,7.75,11,13.05,1.53,5,2.94,10.82.54,15.75s-8.18,7.44-13.12,9.24c-5.34,1.94-11.21,3.12-16.79,1.53-11.06-3.1-14.12-17.11-10.93-27,3.66-11.45,16.64-14.82,27.22-15.89,1.45-.14,1.47-2.44,0-2.29Z"/><path class="cls-7" d="M460.92,228.19c-9.92,1-20.61,3.54-26.72,12.22-5.28,7.47-5.16,20.5-.21,28.16,5.63,8.71,17.13,9,26.06,6.21s18.18-7.76,18.1-18.43c0-5.73-2.12-11.69-4.4-16.89-2-4.48-5.46-8.4-10.74-7.9-1.46.14-1.48,2.43,0,2.29,7.08-.65,9.35,7.75,11,13.06,1.53,5,2.94,10.82.54,15.74s-8.17,7.44-13.11,9.24c-5.35,1.94-11.22,3.13-16.8,1.53-11.06-3.09-14.11-17.1-10.93-27.05,3.67-11.45,16.65-14.82,27.22-15.89,1.45-.14,1.47-2.43,0-2.29Z"/><path class="cls-7" d="M430.68,161.92l7.23,8.25a1.15,1.15,0,0,0,1.63,0,1.11,1.11,0,0,0,.28-.48c1.53-4,1.24-8.18,1.59-12.4a41,41,0,0,1,3.25-12.65A42.68,42.68,0,0,1,461.75,125c1.26-.76.1-2.75-1.16-2a44.85,44.85,0,0,0-17.27,19,43.87,43.87,0,0,0-3.82,12.12c-.77,5-.07,10.15-1.9,14.91l1.91-.51-7.19-8.24c-1-1.1-2.59.52-1.62,1.62Z"/><path class="cls-7" d="M310.61,262.59q59.07-1.81,118.18-.77a1.15,1.15,0,0,0,0-2.29q-59.09-1-118.18.76A1.15,1.15,0,0,0,310.61,262.59Z"/><path class="cls-7" d="M437,240a235.75,235.75,0,0,1,38.69,19.44,1.15,1.15,0,0,0,1.16-2,239.16,239.16,0,0,0-39.21-19.67c-1.36-.54-2,1.67-.6,2.21Z"/><path class="cls-7" d="M461.47,229.62A93.53,93.53,0,0,0,439,286.53c-.06,1.47,2.23,1.47,2.29,0a91,91,0,0,1,21.78-55.29c1-1.11-.65-2.74-1.62-1.62Z"/><path class="cls-7" d="M156.08,254.27l85.35-1.11,9.81-.13c1.76,0,3.53-.07,5.29-.07a4.21,4.21,0,0,1,4.11,4.58c-.12,5.34-3.48,5.15-7.87,5.34l-10.61.48L199,265.27c-7.73.34-15.48.76-23.21,1-7,.21-20.25-2.07-17.15-12.22.43-1.41-1.78-2-2.21-.61-1.53,5,1.17,10.06,5.52,12.68,6.18,3.71,14.32,2.45,21.14,2.15l53-2.41,12.88-.57c3.29-.15,7.88.52,10.91-1,3.56-1.79,4.19-8.92,1.94-11.92-1.15-1.52-2.77-1.66-4.58-1.73-4.75-.18-9.58.13-14.34.19l-26.43.35-60.41.77a1.15,1.15,0,0,0,0,2.29Z"/><path class="cls-8" d="M500.9,534.88c-1.93,1.21-4.13,1.89-6.11,3s-3.92,2.66-4.48,4.86a3,3,0,0,0,.09,2.07,4,4,0,0,0,2.14,1.7,32.48,32.48,0,0,0,25.67.29,33.21,33.21,0,0,1,4.43-1.76,29.09,29.09,0,0,1,5.67-.58,42.79,42.79,0,0,0,6-.76,5.3,5.3,0,0,0,2.71-1.12,5.08,5.08,0,0,0,1.21-2.92,24,24,0,0,0-3.82-17,5.84,5.84,0,0,0-1.66-1.77,6.62,6.62,0,0,0-2.65-.71c-3.82-.46-7.82-1.32-11.68-1.41-2.76-.06-4.15,1.25-6.11,3.15C508.23,525.9,505.87,531.78,500.9,534.88Z"/><path class="cls-8" d="M557.16,534.32c0,3.74.45,7.7,2.72,10.69a14.18,14.18,0,0,0,3.71,3.24c4.8,3.06,11.15,4.18,16.21,1.59a4.85,4.85,0,0,0,2-1.69c.77-1.33.36-3-.07-4.46l-7.31-25.35c-4.73.73-11.68,1.24-15.88,3.64C555.51,523.71,557.16,531,557.16,534.32Z"/><path class="cls-9" d="M496.61,378.22c-.45,1.4-2.05,2-2.93,3.22-1,1.39-.92,3.3-.55,5a13.22,13.22,0,0,0,3.35,6.61,7.94,7.94,0,0,0,6.88,2.33,5.72,5.72,0,0,0,4.66-5.14,9.63,9.63,0,0,0-.72-3.3l-5.2-15.06a.78.78,0,0,0-.37-.51.72.72,0,0,0-.57.1c-1.23.58-3.7,1.19-4.42,2.46S497.12,376.84,496.61,378.22Z"/><path class="cls-8" d="M494.17,377.46c1.9-.29,3.57-1.41,5.34-2.14s4-1,5.51.21c.43.35.84.83,1.4.82A55.12,55.12,0,0,0,503,365.48a.86.86,0,0,0-.3-.42.82.82,0,0,0-.65,0l-5.14,1.34c-1.9.5-2.12.34-2,2.22C495,369.45,495.4,377.46,494.17,377.46Z"/><path class="cls-10" d="M493.6,268.73a7.28,7.28,0,0,0-.76,4A136.88,136.88,0,0,0,493.91,293c.24,1.6.53,3.21.69,4.82a54.79,54.79,0,0,1,.1,6.78L493.94,334c-.09,3.6-.27,7.46-2.5,10.29a4.92,4.92,0,0,0-.89,3.26c.58,7.38,1.8,14.69,3,22a13.6,13.6,0,0,1,12.32.59,135.86,135.86,0,0,0,6.33-37.41c.18-6.26-.09-12.55.87-18.73,1.61-10.4,1-21.06-.23-31.52-.37-3.32-1.17-6.73-3.29-9.3a14.18,14.18,0,0,0-7.64-4.4C499.11,268,496.58,268.78,493.6,268.73Z"/><path class="cls-11" d="M493.6,268.73a7.28,7.28,0,0,0-.76,4A136.88,136.88,0,0,0,493.91,293c.24,1.6.53,3.21.69,4.82a54.79,54.79,0,0,1,.1,6.78L493.94,334c-.09,3.6-.27,7.46-2.5,10.29a4.92,4.92,0,0,0-.89,3.26c.58,7.38,1.8,14.69,3,22a13.6,13.6,0,0,1,12.32.59,135.86,135.86,0,0,0,6.33-37.41c.18-6.26-.09-12.55.87-18.73,1.61-10.4,1-21.06-.23-31.52-.37-3.32-1.17-6.73-3.29-9.3a14.18,14.18,0,0,0-7.64-4.4C499.11,268,496.58,268.78,493.6,268.73Z"/><path class="cls-12" d="M502.94,354a134.76,134.76,0,0,0,8,78.07,21.34,21.34,0,0,1,1.86,5.78c.42,3.74-1.3,7.33-2.29,10.95-2.29,8.23-1,17,.5,25.42q.91,5.26,1.88,10.53c.64,3.42,1.25,7.14-.34,10.24,1.37,5.7,2.18,11.34,3.54,17a3.12,3.12,0,0,1,.13,1.39,4,4,0,0,1-1.4,1.87,8.38,8.38,0,0,0-2.13,8c3.49-2.51,8.36-1.63,12.34,0s7.91,3.82,12.22,3.82c-.63-5.06-1.23-10.36.63-15.11,1.09-2.75,3-5.34,2.94-8.28-.05-2.64-1.66-5-2.05-7.59a19.78,19.78,0,0,1,.18-4.86c1-9.34-.13-18.78-1.29-28.11a17,17,0,0,0-1.29-5.35c-.54-1.1-1.35-2.15-1.33-3.38,0-1.43,1.15-2.59,1.58-4,.76-2.5-.64-5.91,1.47-7.46,5.57-4.09,3.44-13.86,3.31-20.77q-.13-9-.76-17.87a76.08,76.08,0,0,1,4.22,30.8c-.25,3.42-.7,7,.64,10.18,1,2.43,3.05,4.43,3.6,7a30.14,30.14,0,0,1,.18,4.85c.07,1.62.62,3.38,2,4.2.11,7.36.76,15.23.88,22.59a55.59,55.59,0,0,0,.91,11.23,13.82,13.82,0,0,1,.57,3.62,15,15,0,0,1-1.21,4.45,25.52,25.52,0,0,0,3.82,23.55c1.8-3.19,5.56-4.89,9.23-5.16s7.28.66,10.83,1.59a21.23,21.23,0,0,1,2.54-12.9,11,11,0,0,0,1.33-2.87c.41-1.94-.55-3.88-1.07-5.79-.84-3.06-.55-6.35-.35-9.54a151,151,0,0,0-1.41-32,27.47,27.47,0,0,0-1.46-6.11c-.27-.7-.61-1.37-.84-2.08a16.18,16.18,0,0,1-.61-3.91l-.88-12.22c-.62-8.56,2.19-17,4.16-25.36.87-3.75,1.83-7.48,2.42-11.28.8-5.18.93-10.47,2.1-15.58,1.06-4.58,3-9.05,3.36-13.74.61-7.28-2.42-14.31-5.35-21-1.22-2.74-5.84-2.47-8.81-3-21.07-3.46-43.26-3.48-63.13,4.32A15.64,15.64,0,0,0,502.94,354Z"/><path class="cls-9" d="M518.12,218.46l2.34,9.08a24.63,24.63,0,0,1,1,6.43,4.81,4.81,0,0,1-.52,2.29,5.37,5.37,0,0,1-1.45,1.48c-1.59,1.21-2.7,4-4.53,4.89.94,1.63,2.24.57,3.94,1.39,3,1.45,5.72,3.53,8.95,4.25,3.06.67,6.27,0,9.3-.77,4.3-1.16,8.57-2.77,12-5.59s5.43-5.31,5.41-9.76c-3.81.45-7.21-3.41-8.9-6.87a19.11,19.11,0,0,1-1.28-4.12l-2.05-9c-2.23.49-4,2.08-6.18,2.92a22.57,22.57,0,0,1-7,1,75.05,75.05,0,0,0-12.49,1.62c-.57.11-1.28.47-1.14,1"/><path class="cls-5" d="M518.12,218.46l2.34,9.08a24.63,24.63,0,0,1,1,6.43,4.81,4.81,0,0,1-.52,2.29,5.37,5.37,0,0,1-1.45,1.48c-1.59,1.21-2.7,4-4.53,4.89.94,1.63,2.24.57,3.94,1.39,3,1.45,5.72,3.53,8.95,4.25,3.06.67,6.27,0,9.3-.77,4.3-1.16,8.57-2.77,12-5.59s5.43-5.31,5.41-9.76c-3.81.45-7.21-3.41-8.9-6.87a19.11,19.11,0,0,1-1.28-4.12l-2.05-9c-2.23.49-4,2.08-6.18,2.92a22.57,22.57,0,0,1-7,1,75.05,75.05,0,0,0-12.49,1.62c-.57.11-1.28.47-1.14,1"/><circle class="cls-9" cx="528.16" cy="203.25" r="20.22"/><path class="cls-8" d="M533.72,236.58a18.23,18.23,0,0,1,4.58-6.11c2.85-2.5,6.75-4.52,7.42-8.25l6.17,7.19a3.38,3.38,0,0,1,.76,1.17,3,3,0,0,1-.58,2.38c-1.53,2.43-3.93,4.18-6.21,5.94a189.07,189.07,0,0,0-15,13.19,1.43,1.43,0,0,1-.8.49,1.45,1.45,0,0,1-.83-.23,35,35,0,0,1-10.67-8.68c-.22-.27-.49-.57-.85-.55a1.09,1.09,0,0,0-.57.3c-2.06,1.68-4.3,3.69-6.94,3.43,3.42-2.45,5.35-6.55,6.07-10.69a19.92,19.92,0,0,1,.87-4.18,4.33,4.33,0,0,1,3-2.82c-1.66,2.54-.52,6.14,1.71,8.2a16.89,16.89,0,0,0,7.58,3.67C532,241.52,532.8,238.58,533.72,236.58Z"/><path class="cls-8" d="M507.42,356.06c2.88.71,5.6,1.92,8.4,2.81a40,40,0,0,0,15.76,1.66,8.55,8.55,0,0,0,4.59-1.46c.35-.29.68-.63,1.06-.9a7.73,7.73,0,0,1,2.06-.85c7-2.19,12.86-6.92,18.55-11.54.19-.16.39-.35.38-.59a.82.82,0,0,0-.23-.44l-3-3.43c-7.85,1.33-15.89.83-23.86.63a34.88,34.88,0,0,0-4.9.13,47,47,0,0,0-4.67.92c-5.89,1.28-11.91,1.77-17.87,2.61a2,2,0,0,0-1.82,1.07l-2.09,2.94A9.34,9.34,0,0,0,498,353c-.49,2.3.54,3.06,2.48,2.76A18.07,18.07,0,0,1,507.42,356.06Z"/><path class="cls-3" d="M530.82,248.6a37.19,37.19,0,0,0-7.87-6.15,11.23,11.23,0,0,0-3.82-1.53,4.79,4.79,0,0,0-3.91,1c-.68.61-1.11,1.45-1.76,2.08a8.73,8.73,0,0,1-2.8,1.58,50.22,50.22,0,0,0-9.82,5.6,22.25,22.25,0,0,0-4.45,4.11c-3.46,4.43-4,10.45-3.89,16.07.07,3.91,3.82,6.81,6.4,9.74a71.27,71.27,0,0,1,6.55,9.16c1.39,2.2,2.85,4.58,2.67,7.2-.15,2.15-1.4,4.16-1.2,6.3.07.76.31,1.46.38,2.21.14,1.52-.46,3.05-.62,4.58-.2,2.16.5,4.3.54,6.48a20.59,20.59,0,0,1-.57,4.42c-1.46,7-3.3,14-2.93,21.12l-4.23.76a3.58,3.58,0,0,1,.05,5.06,3.3,3.3,0,0,1-.87.65c6.61,2.21,13.75,1.09,20.75,1.08,5.8,0,11.57.77,17.36.66s11.76-1.15,16.53-4.43c1.3-.88,2.49-1.92,3.85-2.69a18.87,18.87,0,0,1,5.85-1.91,57.87,57.87,0,0,1,11.45-1c1.88,0,3.92.08,5.42-1.05s2.07-3.52,2.29-5.57.36-4.35.4-6.53a28.69,28.69,0,0,0-.27-5.07,34.93,34.93,0,0,0-.89-3.63l-2.88-10.14c-1.19-4.18.46-8.77.82-13.11.08-1,.1-2.22-.69-2.87-.28-.24-.67-.4-.76-.77a1.27,1.27,0,0,1,.18-1c1.53-3.05,3.82-5.75,5.91-8.5a176.29,176.29,0,0,0,9.77-15,48.33,48.33,0,0,0-12.93-28.93,14,14,0,0,0-5.42-4,16,16,0,0,0-4.3-.7c-6-.4-12.22-.76-17.44-3.77a3.26,3.26,0,0,0-1.24-.53c-1.15-.13-2,1-2.74,1.91-1.93,2.29-4.76,3.61-7.25,5.29C537.8,239.84,534.17,244.18,530.82,248.6Z"/><path class="cls-11" d="M594.28,270.52c1.19,3.77,1.08,7.8,1.47,11.73a45.31,45.31,0,0,0,1.24,7,11.29,11.29,0,0,0,1.45,3.58,15.39,15.39,0,0,1,2.11,3,7.12,7.12,0,0,1,.31,2.38l.09,5.27a18.82,18.82,0,0,1-1.24,8.2l-3.29,10c-1.78,5.42-3.6,10.93-6.81,15.65a4.52,4.52,0,0,1-2,1.84,9.48,9.48,0,0,1-2,.3,5.09,5.09,0,0,0-4.19,4.94,11.65,11.65,0,0,0-2.82-2.87L572,336.2a28.5,28.5,0,0,0-7.46-4.83,20.25,20.25,0,0,0,14.07-17,7.56,7.56,0,0,1,.76-3.34c.56-.9,1.59-1.59,1.67-2.65.09-1.34-1.43-2.35-1.43-3.68,0-.89.66-1.62.95-2.45a6.19,6.19,0,0,0,0-3.14L579.6,294a4,4,0,0,0-.46-1.47A9.4,9.4,0,0,0,578,291.3c-1.58-1.78-.88-4.58,0-6.77a65.12,65.12,0,0,1,7.81-13.69,47.11,47.11,0,0,0,3.11-4.44c.81-1.41,1-3.36,1.84-4.59C591.85,264.7,593.34,267.55,594.28,270.52Z"/><path class="cls-8" d="M564.27,331.68a3.5,3.5,0,0,0-.88.92,7.61,7.61,0,0,1-3.45,2.46c.76.55,1.45,1.1,2.17,1.65a94.8,94.8,0,0,1,14.51,13.88c.48-1.72,3.36-1.6,4.06-3.24a3.06,3.06,0,0,0,.15-1.47,44.68,44.68,0,0,0-1.09-7.63,8.85,8.85,0,0,0-1.53-3.58,9.25,9.25,0,0,0-4.32-2.44C571.48,331.39,566.71,330.21,564.27,331.68Z"/><path class="cls-9" d="M554.72,337.68c-2.29,1.7-4.3,3.82-6.87,5-1.82.83-3.89,1.18-5.48,2.41a5.43,5.43,0,0,0,5.2,2.81,12.25,12.25,0,0,0,5.81-2.13c1.36-.84,3-1.81,4.46-1.23.23,1.16-.77,2.26-.77,3.43A3.46,3.46,0,0,0,559,350.6c4.58,3,10.48,2.71,15.94,2.37a1.47,1.47,0,0,0,.88-.26,1.41,1.41,0,0,0,.32-1c.07-1.2.1-2.4.11-3.61a5.18,5.18,0,0,0-2.21-5.1,62.45,62.45,0,0,0-9.55-6.76C561.14,334.28,557.74,335.44,554.72,337.68Z"/><path class="cls-13" d="M535.26,194.8c-3.39.4-5.86,3-5.52,5.93s3.37,4.86,6.76,4.45,5.86-3.05,5.51-5.93S538.65,194.39,535.26,194.8Zm1.15,9.59c-2.87.34-5.43-1.35-5.73-3.78s1.81-4.67,4.67-5,5.43,1.34,5.73,3.77-1.81,4.67-4.67,5Z"/><path class="cls-13" d="M518.73,196.78c-3.39.41-5.85,3.05-5.51,5.93s3.37,4.86,6.76,4.46,5.85-3.06,5.51-5.94S522.12,196.38,518.73,196.78Zm1.16,9.58c-2.87.35-5.43-1.34-5.72-3.76s1.79-4.67,4.66-5,5.43,1.35,5.72,3.78-1.8,4.67-4.66,5Z"/><polygon class="cls-13" points="506.46 198.25 513.83 199.83 513.11 201.77 506.16 199.73 506.46 198.25"/><polygon class="cls-13" points="547.53 193.32 540.74 196.6 541.91 198.31 548.18 194.68 547.53 193.32"/><polygon class="cls-13" points="524.81 199.34 529.98 198.72 529.71 200 525.28 200.3 524.81 199.34"/><path class="cls-14" d="M514.79,197.61a8.4,8.4,0,0,0,.76-3.34,7.33,7.33,0,0,1,.35-2,5.63,5.63,0,0,1,1.67-2.13,15.32,15.32,0,0,1,9.16-3.2,21.19,21.19,0,0,1,10.6,2.29,8.28,8.28,0,0,1,2.63,2c1.07,1.31,1.3,3,2.38,4.29a6.24,6.24,0,0,0,5.84,1.83c.38-1.33-.11-2.73.08-4.09a20.1,20.1,0,0,1,1.21-3.39c1.19-3.49-.54-7.54-4.1-9.62-1.24-.77-2.71-1.26-3.65-2.3a17.25,17.25,0,0,1-1.79-3.13c-1.7-2.72-6.11-4-9.46-2.74-1.05.4-2,1-3.05,1.43a25.35,25.35,0,0,1-6.43,1.24,19.71,19.71,0,0,0-6.23,1.63,7,7,0,0,0-3.91,4.22c-.2.82-.16,1.68-.36,2.49-1.06,4.15-7.86,6.17-8.24,10.4a6,6,0,0,0,1.73,4.23c.72.85,2.44,3.12,3.65,3.45s2.14-.83,3.3-1.22C512.76,199.29,513.87,199.17,514.79,197.61Z"/><path class="cls-2" d="M600.92,466.54c0,38.37,24.07,69.41,53.81,69.41"/><path class="cls-3" d="M654.73,536c0-38.8,26.87-70.19,60.06-70.19"/><path class="cls-3" d="M620.43,470c0,36.44,15.34,65.93,34.3,65.93"/><path class="cls-2" d="M654.73,536c0-49.57,31-89.69,69.41-89.69"/><ellipse class="cls-1" cx="652.4" cy="546.96" rx="13.38" ry="2.26"/><path class="cls-15" d="M643.42,536.45s7.63-.24,9.92-1.87,11.74-3.6,12.31-1,11.46,13.06,2.85,13.13-20-1.34-22.31-2.74S643.42,536.45,643.42,536.45Z"/><path class="cls-16" d="M668.66,545.83c-8.61.06-20-1.35-22.31-2.75-1.75-1.06-2.44-4.88-2.68-6.64h-.25s.48,6.16,2.78,7.55,13.7,2.81,22.31,2.74c2.49,0,3.34-.9,3.3-2.21C671.46,545.31,670.55,545.81,668.66,545.83Z"/><path class="cls-2" d="M17.17,489c0,30.54,19.15,55.22,42.81,55.22"/><path class="cls-3" d="M60,544.18c0-30.86,21.38-55.84,47.78-55.84"/><path class="cls-3" d="M32.68,491.74c0,29,12.22,52.46,27.3,52.46"/><path class="cls-2" d="M60,544.18c0-39.44,24.7-71.35,55.22-71.35"/><ellipse class="cls-1" cx="58.12" cy="552.93" rx="10.64" ry="1.8"/><path class="cls-15" d="M51,544.57s6.07-.19,7.89-1.52,9.35-2.87,9.8-.77,9.12,10.39,2.29,10.45S55,551.66,53.21,550.55,51,544.57,51,544.57Z"/><path class="cls-16" d="M71.06,552.06c-6.87.06-15.93-1.07-17.75-2.18-1.39-.84-1.94-3.89-2.14-5.28H51s.38,4.89,2.2,6,10.91,2.23,17.76,2.18c2,0,2.66-.72,2.62-1.76C73.29,551.63,72.53,552,71.06,552.06Z"/></g></g></svg>