<svg xmlns="http://www.w3.org/2000/svg" viewBox="0 0 113.63 113.63"><defs><style>.cls-1{fill:#ffbc00;}</style></defs><title>Asset 1</title><g id="Layer_2" data-name="Layer 2"><g id="Layer_1-2" data-name="Layer 1"><path class="cls-1" d="M72.67,74.14a1.41,1.41,0,0,0-.37-1.28l-10.06-10A10.22,10.22,0,0,0,48,48.53L37.91,38.48a1.36,1.36,0,0,0-1.28-.37,1.38,1.38,0,0,0-1,.87L27.35,61.74A54.77,54.77,0,0,1,14.69,81.62a5.82,5.82,0,0,0,0,8.21l6.25,6.25a5.81,5.81,0,0,0,8.22,0l.11-.11L42.2,108.9a1.39,1.39,0,0,0,2,0,10.24,10.24,0,0,0,0-14.47L38.4,88.67A54.53,54.53,0,0,1,49,83.42l22.75-8.27A1.43,1.43,0,0,0,72.67,74.14ZM54,49.35a7.46,7.46,0,0,1,6.28,11.47L50,50.52A7.51,7.51,0,0,1,54,49.35ZM25.05,95a3,3,0,0,1-2.15-.89l-6.25-6.25a3,3,0,0,1,0-4.29Q18.27,82,19.76,80.2L30.57,91c-1.17,1-2.29,2-3.38,3.11A3,3,0,0,1,25.05,95ZM42.2,96.39a7.47,7.47,0,0,1,.89,9.48l-11.8-11.8a54.64,54.64,0,0,1,4.77-3.82Zm5.89-15.57a57.32,57.32,0,0,0-15.35,8.44L21.51,78A57.63,57.63,0,0,0,30,62.68L37.49,42,68.8,73.28Z"/><path class="cls-1" d="M69.05,44.69a15,15,0,0,0-16.27-3.32,1.38,1.38,0,0,0,1,2.57,12.29,12.29,0,0,1,16,16,1.39,1.39,0,0,0,2.57,1A15,15,0,0,0,69.05,44.69Z"/><path class="cls-1" d="M77.31,64.31a1.39,1.39,0,0,0,1.8-.77A22.21,22.21,0,0,0,50.2,34.63a1.39,1.39,0,1,0,1,2.57,19.44,19.44,0,0,1,25.3,25.31A1.39,1.39,0,0,0,77.31,64.31Z"/><path class="cls-1" d="M92.76,0a20.88,20.88,0,1,0,20.87,20.87A20.87,20.87,0,0,0,92.76,0Zm0,39a18.11,18.11,0,1,1,18.1-18.11A18.1,18.1,0,0,1,92.76,39Z"/><path class="cls-1" d="M100.26,18.45a5.19,5.19,0,1,0-5.18-5.2L88.65,17a5.18,5.18,0,1,0-.13,7.94L95.11,29a5.17,5.17,0,1,0,.54-2.93l-5.52-3.46a5.12,5.12,0,0,0,.06-3.37L95.86,16A5.18,5.18,0,0,0,100.26,18.45Zm0-7.59a2.41,2.41,0,1,1-2.41,2.41A2.41,2.41,0,0,1,100.26,10.86Zm-15,12.42a2.41,2.41,0,1,1,2.41-2.41A2.41,2.41,0,0,1,85.26,23.28Zm15,2.79a2.41,2.41,0,1,1-2.41,2.41A2.41,2.41,0,0,1,100.26,26.07Z"/><path class="cls-1" d="M92.76,71.89a20.87,20.87,0,1,0,20.87,20.87A20.87,20.87,0,0,0,92.76,71.89Zm0,39a18.1,18.1,0,1,1,18.1-18.1A18.1,18.1,0,0,1,92.76,110.86Z"/><path class="cls-1" d="M101.33,91.58,90,84.56a1.39,1.39,0,0,0-2.12,1.18v14A1.39,1.39,0,0,0,90,101l11.35-7a1.38,1.38,0,0,0,0-2.36ZM90.64,97.29V88.23L98,92.76Z"/><path class="cls-1" d="M20.87,41.75A20.88,20.88,0,1,0,0,20.87,20.88,20.88,0,0,0,20.87,41.75Zm0-39a18.11,18.11,0,1,1-18.1,18.1A18.11,18.11,0,0,1,20.87,2.77Z"/><path class="cls-1" d="M12.36,29.16h9.91A3.7,3.7,0,0,0,26,25.47v-.22L31,28a1.39,1.39,0,0,0,2.06-1.21V14.94a1.37,1.37,0,0,0-.68-1.19,1.41,1.41,0,0,0-1.38,0L26,16.5v-.22a3.7,3.7,0,0,0-3.7-3.69H12.36a3.7,3.7,0,0,0-3.7,3.69v9.19A3.7,3.7,0,0,0,12.36,29.16Zm18-11.88v7.19L26,22.08V19.66Zm-18.88-1a.93.93,0,0,1,.93-.92h9.91a.93.93,0,0,1,.93.92v9.19a.93.93,0,0,1-.93.92H12.36a.93.93,0,0,1-.93-.92Z"/></g></g></svg>