<svg width="264" height="161" viewBox="0 0 264 161" fill="none" xmlns="http://www.w3.org/2000/svg">
<g clip-path="url(#clip0)">
<path d="M167.39 159.677C220.304 159.677 263.2 155.818 263.2 151.057C263.2 146.297 220.304 142.437 167.39 142.437C114.475 142.437 71.5798 146.297 71.5798 151.057C71.5798 155.818 114.475 159.677 167.39 159.677Z" fill="#FFC709"/>
<path d="M167.39 160.007C120.13 160.007 71.2498 156.657 71.2498 151.057C71.2498 145.457 120.13 142.107 167.39 142.107C214.65 142.107 263.53 145.457 263.53 151.057C263.52 156.657 214.64 160.007 167.39 160.007ZM167.39 142.767C141.81 142.767 117.76 143.667 99.6698 145.287C79.1998 147.127 71.9098 149.477 71.9098 151.057C71.9098 152.637 79.1998 154.987 99.6698 156.827C117.76 158.457 141.8 159.347 167.39 159.347C192.98 159.347 217.02 158.447 235.11 156.827C255.58 154.987 262.87 152.637 262.87 151.057C262.87 149.477 255.58 147.127 235.11 145.287C217.02 143.667 192.97 142.767 167.39 142.767Z" fill="#EA9423"/>
<path opacity="0.3" d="M222.43 70.4373H122.67C121.5 70.4373 120.55 69.4873 120.55 68.3173V2.12732C120.55 0.957324 121.5 0.00732422 122.67 0.00732422H222.43C223.6 0.00732422 224.55 0.957324 224.55 2.12732V68.3273C224.55 69.4973 223.6 70.4373 222.43 70.4373Z" fill="#403E56"/>
<path d="M217.91 6.45734H187.12V40.0173H217.91V6.45734Z" fill="#F3F3F3"/>
<path d="M168.13 6.45734H138.44V8.48734H168.13V6.45734Z" fill="#F3F3F3"/>
<path d="M197.63 45.1773H187.12V47.2073H197.63V45.1773Z" fill="#F3F3F3"/>
<path d="M217.54 48.8673H187.49V50.8973H217.54V48.8673Z" fill="#F3F3F3"/>
<path d="M175.14 13.8373H132.36V15.8673H175.14V13.8373Z" fill="#F3F3F3"/>
<path d="M175.14 19.5473H132.36V21.5773H175.14V19.5473Z" fill="#F3F3F3"/>
<path d="M175.14 25.2673H132.36V27.2973H175.14V25.2673Z" fill="#F3F3F3"/>
<path d="M175.14 30.9873H132.36V33.0173H175.14V30.9873Z" fill="#F3F3F3"/>
<path d="M175.14 36.6973H132.36V38.7273H175.14V36.6973Z" fill="#F3F3F3"/>
<path d="M175.14 42.4173H132.36V44.4473H175.14V42.4173Z" fill="#F3F3F3"/>
<path d="M175.14 48.1273H132.36V50.1573H175.14V48.1273Z" fill="#F3F3F3"/>
<path d="M191.74 25.6273C192.2 25.3073 192.7 25.0473 193.23 24.8773C196.61 23.6173 200.14 22.8473 203.74 22.5873C206.86 22.3673 210.25 22.6273 212.69 24.5873C213.07 24.8673 213.38 25.2273 213.6 25.6473C213.91 26.3073 213.81 27.0773 213.71 27.8073C213.69 28.0873 213.62 28.3673 213.5 28.6173C213.17 29.2473 212.36 29.4573 211.66 29.3873C210.96 29.3173 210.3 29.0173 209.61 28.8773C209.18 28.8073 208.75 28.7573 208.31 28.7473L203.97 28.5073C201.27 28.3573 198.53 28.2173 195.88 28.7673C195.06 28.9173 194.28 29.1873 193.54 29.5773C192.93 29.9173 192.53 30.4073 191.97 29.7773C190.99 28.6673 190.44 26.6373 191.74 25.6273Z" fill="#203E75"/>
<path d="M198.47 27.5473C198.47 27.5473 204.31 24.9273 206.53 27.9473C208.75 30.9673 205.32 29.7573 205.32 29.7573L201.49 30.9673L197.26 30.1573L198.47 27.5473Z" fill="#F3F3F3"/>
<path d="M198.78 25.6273C198.78 25.6273 199.59 29.4573 198.98 30.4573C198.37 31.4573 202.4 32.8773 202.4 32.8773L206.23 31.2673C206.23 31.2673 205.22 25.0273 206.23 23.8173L198.78 25.6273Z" fill="#F9B7B9"/>
<path opacity="0.1" d="M198.78 25.6273C198.78 25.6273 199.59 29.4573 198.98 30.4573C198.37 31.4573 202.4 32.8773 202.4 32.8773L206.23 31.2673C206.23 31.2673 205.22 25.0273 206.23 23.8173L198.78 25.6273Z" fill="#010101"/>
<path d="M208.04 21.8073C208.04 25.1473 205.33 27.8473 202 27.8473C201.64 27.8473 201.28 27.8173 200.93 27.7473C197.65 27.1573 195.46 24.0073 196.06 20.7273C196.66 17.4473 199.8 15.2573 203.08 15.8573C205.95 16.3773 208.04 18.8773 208.04 21.8073Z" fill="#F9B7B9"/>
<path d="M211.69 40.2073H192.42L192.86 38.3073L194.75 30.0673L196.94 28.5873L197.97 27.8873L198.48 27.5473C198.48 27.5473 198.78 27.6873 199.13 27.8773C199.23 27.9373 199.33 27.9973 199.44 28.0573C199.61 28.1573 199.77 28.2673 199.92 28.3873C199.95 28.4173 199.97 28.4373 200 28.4573C200.38 28.8373 201.5 30.8773 203.35 29.8373C203.44 29.7873 203.53 29.7273 203.62 29.6673C204.1 29.3373 204.56 28.9673 205 28.5773C205.39 28.2173 205.64 27.9473 205.85 27.7573C205.94 27.6673 206.05 27.5873 206.16 27.5273C206.25 27.4773 206.34 27.4573 206.44 27.4573C207.04 27.4573 207.85 28.6673 207.85 28.6673L207.87 28.7373V28.7473L210.41 36.3773L211.69 40.2073Z" fill="#F3F3F3"/>
<path d="M192.42 40.2073H198.26C198.27 39.5273 198.24 38.8573 198.15 38.1873C197.97 36.8373 197.53 35.5373 197.26 34.2073C197.02 33.0373 196.9 31.8473 196.91 30.6573C196.91 30.4973 196.92 30.3273 196.93 30.1573C196.94 29.7773 197.05 29.4073 197.25 29.0773C197.39 28.8673 197.58 28.6873 197.73 28.4773C197.78 28.4073 197.83 28.3373 197.86 28.2673C197.88 28.2273 197.9 28.1973 197.91 28.1573C197.94 28.0673 197.96 27.9773 197.97 27.8873C198 27.2773 197.45 26.6973 196.86 26.4373C196.02 26.1273 195.11 26.0873 194.25 26.3273C193.4 26.5773 192.58 26.9073 191.8 27.3273C191.54 27.4573 191.27 27.5873 191.02 27.7373C190.72 27.9073 190.44 28.1173 190.2 28.3673C189.57 29.0173 189.3 29.9173 189.08 30.7873C188.87 31.4573 188.8 32.1573 188.87 32.8573C188.87 32.8773 188.88 32.9073 188.88 32.9273C189.1 34.0773 190.04 34.9373 190.54 35.9973C191.12 37.2273 191.08 38.6573 190.85 39.9973C190.84 40.0673 190.83 40.1373 190.81 40.1973L192.42 40.2073Z" fill="#203E75"/>
<path d="M216.2 32.8273C215.47 35.2373 214.93 37.7073 214.61 40.2073H206.28C206.06 39.6173 205.85 39.0173 205.63 38.4273C205.46 37.9773 205.31 37.5173 205.19 37.0573C205.06 36.5173 205 35.9573 205 35.4073C205 35.2773 205.01 35.1373 205.02 35.0073V34.9973C205.07 34.2973 205.23 33.6073 205.5 32.9573C205.62 32.6573 205.76 32.3773 205.92 32.0973C206.31 31.3973 206.78 30.7373 207.19 30.0473C207.45 29.6273 207.68 29.1873 207.87 28.7373C207.87 28.7373 207.87 28.7373 207.87 28.7273C208.12 28.1473 208.25 27.5273 208.25 26.8973C208.24 26.0873 206.86 24.6673 208.36 24.8073C210.4 24.9873 212.15 26.1673 213.75 27.5073C214.18 27.8673 214.59 28.2373 215 28.5973C215.63 29.1673 216.3 29.7873 216.49 30.6173C216.52 30.7473 216.54 30.8873 216.54 31.0173C216.53 31.6273 216.41 32.2373 216.2 32.8273Z" fill="#203E75"/>
<path d="M203.72 30.5973C203.51 30.0273 203.19 29.5173 202.77 29.0773C202.35 28.7273 201.86 28.4773 201.33 28.3473C200.64 28.1473 199.93 28.0473 199.21 28.0473C198.36 28.0373 197.37 28.2673 197.01 29.0473C196.72 29.6573 196.95 30.3873 197.24 30.9973C197.36 31.3173 197.57 31.5973 197.84 31.8073C198.21 32.0573 198.68 32.0473 199.12 32.1273C199.8 32.2973 200.44 32.5873 201.01 32.9873L202.5 33.8873L205.07 35.4373C205 35.3973 205.03 33.6373 204.95 33.3473C204.68 32.4173 204.11 31.4773 203.72 30.5973Z" fill="#F9B7B9"/>
<path d="M207.89 18.6573C207.78 18.2973 207.55 17.9873 207.22 17.7873C207.24 17.3973 207.19 17.0173 207.08 16.6373C206.71 15.5573 205.85 15.6173 205.03 15.1373C204.68 14.9273 204.7 14.7473 204.51 14.4073C204.27 13.9573 203.91 13.5873 203.46 13.3373C202.94 13.0073 202.38 12.6573 201.76 12.6173C200.46 12.5273 199.45 13.7573 198.21 14.1473C197.66 14.3173 197.07 14.3273 196.52 14.4873C195.97 14.6473 195.42 15.0473 195.33 15.6173C195.29 15.8773 195.36 16.1473 195.32 16.4173C195.24 16.9373 194.78 17.3073 194.48 17.7373C193.8 18.6873 193.88 20.0373 194.42 21.0673C194.53 21.2773 194.67 21.4873 194.81 21.6773C194.86 22.1673 195 22.6473 195.22 23.0773C195.76 24.1173 196.7 24.8873 197.68 25.5273C197.6 25.1873 197.55 24.8373 197.54 24.4773C197.53 24.3573 197.54 24.2373 197.58 24.1273C197.69 23.8973 197.98 23.8373 198.2 23.7173C198.65 23.4573 198.83 22.8873 198.85 22.3673C198.86 21.8473 198.75 21.3173 198.81 20.8073C198.81 20.5673 198.92 20.3373 199.1 20.1773C199.27 20.0773 199.46 20.0373 199.65 20.0473C200.58 20.0073 201.55 19.9873 202.37 19.5473C202.63 19.3673 202.92 19.2273 203.22 19.1173C203.92 18.9373 204.63 19.4273 205.03 20.0273C205.43 20.6273 205.63 21.3373 206 21.9573C206.37 22.5773 207.01 23.1273 207.73 23.0573C207.81 23.0573 207.89 23.0273 207.94 22.9573C207.97 22.8973 207.98 22.8373 207.98 22.7773L208.02 20.0373C208.06 19.5773 208.02 19.1073 207.89 18.6573Z" fill="#302E41"/>
<path d="M191.95 36.9573C192.08 38.0373 192.16 39.1173 192.19 40.2073H187.12V35.9473C187.15 35.8473 187.17 35.7473 187.21 35.6373C187.53 34.6573 188.19 33.8373 188.77 32.9873C188.8 32.9473 188.83 32.9073 188.85 32.8573C189.1 32.4973 189.31 32.1173 189.48 31.7173C189.56 31.5173 189.7 30.5773 189.84 30.4973C190.44 30.1473 190.93 31.6373 191.01 31.9673C191.31 33.1473 191.56 34.3373 191.75 35.5473C191.83 36.0173 191.9 36.4873 191.95 36.9573Z" fill="#203E75"/>
<path d="M217.58 40.2073H205.94C205.84 39.9773 205.74 39.7373 205.64 39.5073C204.91 37.8673 203.98 36.3273 202.85 34.9273C202.66 34.7473 202.54 34.5073 202.51 34.2473C202.51 34.1373 202.53 34.0373 202.59 33.9373C202.77 33.6073 203.24 33.4173 203.62 33.2573C204.01 33.0973 204.37 32.8673 204.69 32.5873C204.97 32.3373 205.18 32.0273 205.31 31.6773C205.34 31.5773 205.37 31.4673 205.39 31.3673C205.44 31.4373 205.5 31.5073 205.55 31.5773C205.68 31.7473 205.81 31.9173 205.95 32.0973C207.24 33.7573 208.66 35.3873 210.44 36.3673C210.91 36.6273 211.4 36.8373 211.91 36.9973C212.01 37.0373 212.12 37.0373 212.22 36.9973C212.3 36.9373 212.34 36.8473 212.35 36.7473C212.51 36.0873 212.56 35.3973 212.68 34.7273C212.89 33.5073 213.3 32.3173 213.9 31.2273C214.23 30.6173 215.3 28.3673 215.98 29.7873C216.18 30.1973 216.37 30.6073 216.57 31.0173C216.69 31.2773 216.82 31.5373 216.94 31.7973C217.4 32.6173 217.61 33.5673 217.55 34.5073C217.54 36.3973 217.56 38.2973 217.58 40.2073Z" fill="#203E75"/>
<path opacity="0.1" d="M192.42 40.2073H193.43L192.86 38.3073L192.04 35.5773C192.05 36.0373 192.02 36.5073 191.96 36.9573C191.84 37.9073 191.56 38.8273 191.16 39.6973C191.08 39.8673 191 40.0373 190.93 40.2073H192.42Z" fill="#010101"/>
<path opacity="0.1" d="M212.96 34.3673C212.82 34.7473 212.95 35.1673 213.06 35.5673C213.38 36.7073 213.53 37.8873 213.5 39.0673C213.52 39.1373 213.47 39.2073 213.4 39.2173C213.38 39.2173 213.36 39.2173 213.35 39.2173C212.89 39.2473 212.35 39.2473 212.04 38.9073L212.96 34.3673Z" fill="#010101"/>
<path opacity="0.3" d="M1.60977 0.727325H102.39C103.28 0.727325 103.99 1.44733 103.99 2.32733V69.5573C103.99 70.4473 103.27 71.1573 102.39 71.1573H1.60977C0.719766 71.1573 0.00976562 70.4373 0.00976562 69.5573V2.33733C0.00976562 1.44733 0.729766 0.727325 1.60977 0.727325Z" fill="#403E56"/>
<path d="M37.4398 7.18732H6.64978V40.7473H37.4398V7.18732Z" fill="#F3F3F3"/>
<path d="M86.1198 7.18732H56.4297V9.21732H86.1198V7.18732Z" fill="#F3F3F3"/>
<path d="M17.5298 45.9073H7.01978V47.9373H17.5298V45.9073Z" fill="#F3F3F3"/>
<path d="M37.0698 49.5973H7.01978V51.6273H37.0698V49.5973Z" fill="#F3F3F3"/>
<path d="M92.1998 14.5573H49.4198V16.5873H92.1998V14.5573Z" fill="#F3F3F3"/>
<path d="M92.1998 20.2773H49.4198V22.3073H92.1998V20.2773Z" fill="#F3F3F3"/>
<path d="M92.1998 25.9973H49.4198V28.0273H92.1998V25.9973Z" fill="#F3F3F3"/>
<path d="M92.1998 31.7073H49.4198V33.7373H92.1998V31.7073Z" fill="#F3F3F3"/>
<path d="M92.1998 37.4273H49.4198V39.4573H92.1998V37.4273Z" fill="#F3F3F3"/>
<path d="M92.1998 43.1373H49.4198V45.1673H92.1998V43.1373Z" fill="#F3F3F3"/>
<path d="M92.1998 48.8573H49.4198V50.8873H92.1998V48.8573Z" fill="#F3F3F3"/>
<path d="M36.5998 40.9273H32.5998C32.2898 40.0973 32.0198 39.2573 31.7798 38.4173C31.6198 37.4173 31.1698 36.4873 30.4698 35.7573C30.2598 35.5173 30.0698 35.2673 29.9098 34.9973C29.5698 34.3273 29.4398 33.5673 29.5598 32.8273C29.5798 32.6173 29.6198 32.4173 29.6598 32.2073C29.8398 31.4173 30.1298 30.6673 30.3698 29.8973C30.4798 29.5773 30.7498 29.3473 31.0898 29.3073C31.3498 29.2673 31.6198 29.2973 31.8698 29.3973C31.9198 29.4173 31.9798 29.4473 32.0298 29.4773C32.4698 29.7373 32.6898 30.2773 32.8798 30.7673C33.7198 33.0073 34.5498 35.2473 35.3798 37.4973C35.5398 37.9373 35.6998 38.3673 35.8698 38.8073C36.1098 39.4473 36.3498 40.0873 36.5498 40.7473C36.5698 40.7973 36.5798 40.8673 36.5998 40.9273Z" fill="#D1CDE2"/>
<path d="M19.9398 11.4173C18.9398 11.7573 18.0398 12.5373 17.8398 13.5673C17.7498 14.0473 17.7998 14.5373 17.7198 15.0173C17.5398 16.1273 16.6598 16.9873 15.8498 17.7773C15.0398 18.5673 14.2098 19.4873 14.1498 20.6173C14.0898 21.8473 14.9798 23.0073 14.8298 24.2373C14.6498 25.6673 13.1398 26.5873 12.7698 27.9773C12.5198 28.9073 12.8298 29.8973 13.3298 30.7173C14.2798 32.2773 15.9198 33.3373 17.6498 33.8973C19.3798 34.4573 21.2398 34.5873 23.0698 34.6073C25.2998 34.6273 27.7098 34.4373 29.3898 32.9673C30.3498 32.1173 30.9498 30.9473 31.0698 29.6773C31.2298 27.9773 30.5198 26.2173 31.0098 24.5773C31.3198 23.5473 32.0898 22.6073 31.9798 21.5373C31.8698 20.4873 30.9498 19.7473 30.3298 18.9073C29.7498 18.1173 29.3898 17.1873 29.0398 16.2673L27.8498 13.1273C27.6198 12.5073 27.3598 11.8573 26.8398 11.4573C25.8598 10.6973 24.2898 10.8473 23.1498 11.0073C22.0798 11.1473 20.9598 11.0773 19.9398 11.4173Z" fill="#302E41"/>
<path d="M20.8598 21.7673C20.8598 21.7673 20.9798 25.2673 20.6298 25.6073C20.2798 25.9573 22.0298 28.2873 22.0298 28.2873L25.1798 28.1673L26.8098 26.8873L25.4098 25.0273C25.4098 25.0273 24.8298 21.9973 25.2898 21.2973C25.7498 20.6073 20.8598 21.7673 20.8598 21.7673Z" fill="#A0626B"/>
<path opacity="0.1" d="M20.8598 21.7673C20.8598 21.7673 20.9798 25.2673 20.6298 25.6073C20.2798 25.9573 22.0298 28.2873 22.0298 28.2873L25.1798 28.1673L26.8098 26.8873L25.4098 25.0273C25.4098 25.0273 24.8298 21.9973 25.2898 21.2973C25.7498 20.6073 20.8598 21.7673 20.8598 21.7673Z" fill="#010101"/>
<path d="M22.7798 23.1073C25.0938 23.1073 26.9698 21.2314 26.9698 18.9173C26.9698 16.6033 25.0938 14.7273 22.7798 14.7273C20.4657 14.7273 18.5898 16.6033 18.5898 18.9173C18.5898 21.2314 20.4657 23.1073 22.7798 23.1073Z" fill="#A0626B"/>
<path d="M24.9298 40.9273H28.3298C28.4598 40.6973 28.5798 40.4573 28.7198 40.2373C28.8698 39.9773 29.0798 39.7473 29.3398 39.5873C29.4998 39.5173 29.6598 39.4173 29.7998 39.3173C29.9398 39.1673 30.0298 38.9873 30.0798 38.7973C30.3098 38.0673 30.4398 37.3073 30.4598 36.5373C30.4698 36.2773 30.4598 36.0173 30.4698 35.7573C30.4798 35.5573 30.4998 35.3573 30.5498 35.1573C30.6698 34.7573 30.8398 34.3773 31.0498 34.0173C31.5098 33.1773 31.9698 32.3373 32.4398 31.4973C32.5198 31.2573 32.5598 31.0073 32.5298 30.7573C32.5198 30.4173 32.4198 30.0973 32.2298 29.8073C32.1698 29.6873 32.0998 29.5773 32.0198 29.4673C31.7397 29.0173 31.3998 28.5873 31.0298 28.2073C30.2398 27.3773 29.2798 26.7273 28.2198 26.3073C28.0898 26.2673 27.9598 26.1973 27.8398 26.1273C27.6998 26.0073 27.5798 25.8673 27.4898 25.7173C27.1198 25.1673 26.6698 24.5373 26.0098 24.5673C25.7898 24.4573 25.5398 24.4373 25.3098 24.5173C25.2698 24.5273 25.2398 24.5373 25.2098 24.5473C24.9598 24.6573 24.7098 24.7873 24.4698 24.9373C23.8598 25.2573 23.1598 25.3773 22.4798 25.2973C22.3998 25.2873 22.3198 25.2673 22.2498 25.2373C22.1698 25.1873 22.0998 25.1273 22.0398 25.0673C21.6998 24.7873 21.2298 24.7073 20.8198 24.8673C20.6298 24.9373 20.4598 25.0573 20.3298 25.2073C20.2098 25.3573 20.1198 25.5473 19.9898 25.6873C19.6398 26.0573 19.0698 26.0773 18.5598 26.0773C17.4998 26.0473 16.4498 26.1473 15.4098 26.3673C14.4998 26.5673 13.6498 26.9773 12.9298 27.5673C12.8298 27.6473 12.7398 27.7373 12.6498 27.8273C12.4398 28.0273 12.2698 28.2673 12.1598 28.5273C12.0198 28.8873 12.0398 29.2973 11.9098 29.6673C11.7698 30.0773 11.4598 30.4173 11.3298 30.8273C11.2298 31.1373 11.2498 31.4873 11.0898 31.7673C11.0998 31.7773 11.0998 31.7773 11.1098 31.7873C11.7798 32.3773 12.3498 33.1473 13.0298 33.7373C13.4198 34.0373 13.7498 34.4073 13.9998 34.8273C14.0498 34.9173 14.0898 35.0173 14.1198 35.1273C14.1998 35.4773 14.2298 35.8373 14.2198 36.1973C14.2998 37.9173 15.2398 39.4873 16.2898 40.8573C16.3098 40.8873 16.3298 40.9173 16.3498 40.9373L24.9298 40.9273Z" fill="#D1CDE2"/>
<path d="M13.9898 34.8173C13.8298 35.9173 13.6698 37.0173 13.5098 38.1173C13.4398 38.7073 13.3298 39.2873 13.1798 39.8673C13.0798 40.2273 12.9598 40.5673 12.8698 40.9273H8.06976C8.06976 40.7273 8.08976 40.5273 8.11976 40.3273C8.23976 39.6173 8.43976 38.9273 8.71976 38.2573C9.27976 36.7473 9.83976 35.2373 10.3898 33.7273C10.6298 33.0873 10.8298 32.4073 11.0898 31.7773C11.1398 31.6573 11.1898 31.5373 11.2398 31.4273C11.5198 30.8173 12.2898 31.0673 12.8598 31.1573C13.0198 31.1773 13.1698 31.2173 13.3098 31.2873C13.4798 31.3873 13.6298 31.5173 13.7398 31.6873C14.2798 32.4873 14.1598 33.5473 14.0198 34.5073C14.0198 34.6173 14.0098 34.7173 13.9898 34.8173Z" fill="#D1CDE2"/>
<path d="M28.7198 40.2373C28.7298 40.2673 28.8098 40.5373 28.9398 40.9273H24.9398C26.9198 40.5873 28.7198 40.2373 28.7198 40.2373Z" fill="#302E41"/>
<path d="M23.1298 18.9173C25.6371 18.9173 27.6698 17.8204 27.6698 16.4673C27.6698 15.1142 25.6371 14.0173 23.1298 14.0173C20.6224 14.0173 18.5898 15.1142 18.5898 16.4673C18.5898 17.8204 20.6224 18.9173 23.1298 18.9173Z" fill="#302E41"/>
<path d="M69.3598 26.6573H167.89C169.4 26.6573 170.62 27.8773 170.62 29.3873V94.3573C170.62 95.8673 169.4 97.0873 167.89 97.0873H69.3598C67.8498 97.0873 66.6298 95.8673 66.6298 94.3573V29.3973C66.6298 27.8873 67.8498 26.6573 69.3598 26.6573Z" fill="#29ABE2"/>
<path d="M104.06 33.1173H73.2698V66.6773H104.06V33.1173Z" fill="#F3F3F3"/>
<path d="M83.1798 48.5273C83.3898 48.5873 83.6098 48.4973 83.7098 48.3073C84.1398 47.6373 83.3498 46.7673 83.5198 45.9973C83.6598 45.3773 84.3598 45.0073 84.5098 44.3873C84.6498 43.7873 84.2198 43.1073 84.5098 42.5573C84.7398 42.1273 85.3098 42.0173 85.7898 42.0973C86.2698 42.1773 86.7198 42.3873 87.2098 42.4073C87.8498 42.4473 88.4698 42.1673 89.0998 42.0173C89.7298 41.8773 90.4998 41.9273 90.8698 42.4573C91.3498 43.1373 90.8598 44.0773 91.0298 44.8973C91.1598 45.5473 91.6998 46.0773 91.7098 46.7373C91.7098 46.9673 91.0998 46.7873 91.1298 47.0173C91.1598 47.2473 90.8698 47.0473 91.0998 47.0173C91.2898 46.9673 91.4398 46.7973 91.4498 46.5973C91.4798 46.4073 91.8398 46.3373 91.8398 46.1473C91.8298 45.6873 92.6598 45.9973 92.7898 45.5573C93.0998 44.5373 93.0398 43.4473 92.6098 42.4673C92.3898 42.0673 92.2098 41.6473 92.0798 41.2073C91.9598 40.5973 92.1498 39.9473 91.9498 39.3673C91.6798 38.5773 90.7898 38.1773 89.9598 38.0973C89.1298 38.0173 88.2898 38.1573 87.4698 38.0373C86.7298 37.9273 86.0198 37.6073 85.2698 37.6573C84.3798 37.7173 83.5998 38.2873 82.9798 38.9373C82.3598 39.5873 81.8398 40.3273 81.1298 40.8773C80.9098 41.0273 80.7198 41.1973 80.5398 41.3873C80.1798 41.8273 80.1498 42.4473 80.2498 42.9973C80.3498 43.5573 80.5698 44.0873 80.6598 44.6373C80.7498 45.1573 80.7198 45.6973 80.7598 46.2273C80.7698 46.7573 80.9298 47.2773 81.2298 47.7273C81.4898 48.0773 81.8898 48.2873 82.3298 48.3073C82.4798 48.3073 82.5998 48.1773 82.7598 48.2073C82.9298 48.2673 83.0198 48.4473 83.1798 48.5273Z" fill="#302E41"/>
<path d="M76.4098 66.8573C76.5398 65.0073 76.6498 63.6373 76.6498 63.6373L77.5198 61.3473L80.3098 66.8673L76.4098 66.8573Z" fill="#585B8A"/>
<path opacity="0.1" d="M76.4098 66.8573C76.5398 65.0073 76.6498 63.6373 76.6498 63.6373L77.5198 61.3473L80.3098 66.8673L76.4098 66.8573Z" fill="#010101"/>
<path d="M82.8798 48.7073C82.8798 48.7073 85.4798 55.3373 83.9898 56.5973C82.4898 57.8573 92.3598 54.4673 92.3598 54.4673L92.1198 53.5973C92.1198 53.5973 88.8798 52.3373 90.4598 48.7073C92.0398 45.0773 82.8798 48.7073 82.8798 48.7073Z" fill="#A0626B"/>
<path opacity="0.1" d="M82.8798 48.7073C82.8798 48.7073 85.4798 55.3373 83.9898 56.5973C82.4898 57.8573 92.3598 54.4673 92.3598 54.4673L92.1198 53.5973C92.1198 53.5973 88.8798 52.3373 90.4598 48.7073C92.0398 45.0773 82.8798 48.7073 82.8798 48.7073Z" fill="#010101"/>
<path d="M86.5898 51.3973C89.6439 51.3973 92.1198 48.9215 92.1198 45.8673C92.1198 42.8132 89.6439 40.3373 86.5898 40.3373C83.5356 40.3373 81.0598 42.8132 81.0598 45.8673C81.0598 48.9215 83.5356 51.3973 86.5898 51.3973Z" fill="#A0626B"/>
<path d="M100.01 57.7873C100.01 57.7873 99.9898 58.2273 99.9498 58.9973C99.8698 60.5573 99.7298 63.4873 99.5898 66.8573H78.1698C77.6098 66.1073 77.1498 65.2873 76.8098 64.4173C76.7198 64.1673 76.6598 63.8973 76.6498 63.6273C76.5298 61.5373 78.4098 58.6173 79.7298 58.3373C81.2298 58.0173 84.0698 55.0173 84.0698 55.0173C84.0898 55.2473 84.2298 55.4573 84.4298 55.5673C84.6598 55.6873 84.9198 55.7373 85.1698 55.7273C86.0998 55.7273 90.1698 53.8473 91.4698 53.2373C91.7298 53.1173 91.8798 53.0473 91.8798 53.0473C93.3898 53.6973 94.9498 54.2273 96.5398 54.6273C98.1498 55.0373 99.4598 56.2173 100.01 57.7873Z" fill="#585B8A"/>
<path d="M82.2398 47.9673C82.4498 48.0273 82.6698 47.9373 82.7698 47.7473C83.1998 47.0773 82.4098 46.2073 82.5798 45.4373C82.7198 44.8173 83.4198 44.4473 83.5698 43.8273C83.7098 43.2273 83.2798 42.5473 83.5698 41.9973C83.7998 41.5673 84.3698 41.4573 84.8498 41.5373C85.3298 41.6073 85.7798 41.8273 86.2698 41.8473C86.9098 41.8873 87.5298 41.6073 88.1598 41.4573C88.7898 41.3173 89.5598 41.3673 89.9298 41.8973C90.4098 42.5773 89.9198 43.5173 90.0898 44.3373C90.2198 44.9873 91.7198 45.4373 91.8598 44.9973C92.1698 43.9773 92.1098 42.8873 91.6798 41.9073C91.4598 41.5073 91.2798 41.0873 91.1498 40.6473C91.0298 40.0373 91.2198 39.3873 91.0198 38.8073C90.7498 38.0173 89.8598 37.6173 89.0298 37.5373C88.1998 37.4573 87.3598 37.5973 86.5398 37.4773C85.7998 37.3673 85.0898 37.0473 84.3398 37.0973C83.4498 37.1573 82.6698 37.7273 82.0498 38.3773C81.4298 39.0273 80.9098 39.7673 80.1998 40.3173C79.9798 40.4673 79.7898 40.6373 79.6098 40.8273C79.2498 41.2673 79.2198 41.8873 79.3198 42.4373C79.4198 42.9973 79.6398 43.5273 79.7298 44.0773C79.8198 44.5973 79.7898 45.1373 79.8298 45.6673C79.8398 46.1973 79.9998 46.7173 80.2998 47.1673C80.5598 47.5173 80.9598 47.7273 81.3998 47.7473C81.5498 47.7473 81.6698 47.6173 81.8298 47.6473C81.9898 47.7173 82.0698 47.8973 82.2398 47.9673Z" fill="#302E41"/>
<path opacity="0.1" d="M102.75 66.8573H96.4998C96.0198 63.3673 95.6298 59.7173 95.6298 59.7173L96.8898 59.1673L99.4598 57.7873C99.4598 57.7873 99.6498 58.2373 99.9498 58.9973C100.6 60.6173 101.77 63.6773 102.75 66.8573Z" fill="#010101"/>
<path d="M103.3 66.8573H96.2498C95.1998 63.0373 94.1698 58.8873 94.1698 58.8873L96.8498 56.9173L100.01 57.7873C100.01 57.7873 101.86 62.1873 103.3 66.8573Z" fill="#585B8A"/>
<path d="M152.74 33.1173H123.05V35.1473H152.74V33.1173Z" fill="#6466AF"/>
<path d="M84.1498 71.8373H73.6398V73.8673H84.1498V71.8373Z" fill="#6466AF"/>
<path d="M103.69 75.5273H73.6398V77.5573H103.69V75.5273Z" fill="#6466AF"/>
<path d="M158.82 40.4873H116.04V42.5173H158.82V40.4873Z" fill="#F3F3F3"/>
<path d="M158.82 46.2073H116.04V48.2373H158.82V46.2073Z" fill="#F3F3F3"/>
<path d="M158.82 51.9173H116.04V53.9473H158.82V51.9173Z" fill="#F3F3F3"/>
<path d="M158.82 57.6373H116.04V59.6673H158.82V57.6373Z" fill="#F3F3F3"/>
<path d="M158.82 63.3573H116.04V65.3873H158.82V63.3573Z" fill="#F3F3F3"/>
<path d="M158.82 69.0673H116.04V71.0973H158.82V69.0673Z" fill="#F3F3F3"/>
<path d="M158.82 74.7873H116.04V76.8173H158.82V74.7873Z" fill="#F3F3F3"/>
<path d="M164.68 76.4973L154.42 86.7573L150.11 82.4473C149.53 81.8673 148.6 81.8673 148.03 82.4473C147.45 83.0273 147.45 83.9573 148.03 84.5273L153.62 90.1173C154.06 90.5573 154.77 90.5573 155.21 90.1173L166.76 78.5773C167.34 77.9973 167.34 77.0673 166.76 76.4973C166.18 75.9173 165.25 75.9173 164.68 76.4973Z" fill="#77C043"/>
<path opacity="0.1" d="M253.1 142.267C253.1 155.447 234.72 151.377 212.22 151.377C189.72 151.377 171.61 155.457 171.61 142.267C171.61 129.087 189.99 126.217 212.49 126.217C234.99 126.217 253.1 129.087 253.1 142.267Z" fill="#010101"/>
<path d="M253.1 139.807C253.1 152.987 234.72 148.917 212.22 148.917C189.72 148.917 171.61 152.997 171.61 139.807C171.61 126.617 189.99 123.757 212.49 123.757C234.99 123.757 253.1 126.627 253.1 139.807Z" fill="#FFC709"/>
<path d="M235.42 149.837C232.33 149.837 228.94 149.707 225.32 149.567C221.13 149.407 216.79 149.237 212.21 149.237C207.62 149.237 203.3 149.407 199.11 149.567C187.27 150.027 177.93 150.387 173.7 146.317C172.07 144.747 171.28 142.617 171.28 139.807C171.28 125.287 193.3 123.427 212.49 123.427C225.61 123.427 234.78 124.407 241.33 126.527C249.47 129.147 253.43 133.497 253.43 139.807C253.43 142.597 252.64 144.717 251.01 146.287C248.03 149.147 242.53 149.837 235.42 149.837ZM212.22 148.587C216.81 148.587 221.15 148.757 225.35 148.917C237.16 149.367 246.48 149.727 250.55 145.817C252.04 144.377 252.77 142.417 252.77 139.817C252.77 128.947 240.35 124.097 212.49 124.097C193.61 124.097 171.94 125.887 171.94 139.817C171.94 142.437 172.67 144.417 174.16 145.857C178.19 149.727 187.41 149.377 199.09 148.927C203.28 148.747 207.62 148.587 212.22 148.587Z" fill="#EA9423"/>
<path d="M176.27 98.4973L175.44 99.4673C175.44 99.4673 165.31 100.417 165.73 102.057C166.14 103.697 177.92 99.8673 177.92 99.8673L176.27 98.4973Z" fill="#F9C1C7"/>
<path d="M194.63 97.6773C194.63 97.6773 183.81 101.517 177.92 99.8673L180.66 105.347C180.66 105.347 194.63 104.937 197.1 102.467C199.56 100.007 194.63 97.6773 194.63 97.6773Z" fill="#6466AF"/>
<path d="M194.63 97.6773C194.63 97.6773 183.81 101.517 177.92 99.8673L180.66 105.347C180.66 105.347 194.63 104.937 197.1 102.467C199.56 100.007 194.63 97.6773 194.63 97.6773Z" fill="#87539A"/>
<path d="M187.3 68.2973C191.309 68.2973 194.56 65.0469 194.56 61.0373C194.56 57.0277 191.309 53.7773 187.3 53.7773C183.29 53.7773 180.04 57.0277 180.04 61.0373C180.04 65.0469 183.29 68.2973 187.3 68.2973Z" fill="#F9C1C7"/>
<path d="M193.49 67.8573C193.74 68.3373 194.06 68.7773 194.43 69.1573C195.42 70.2373 196.61 71.1273 197.93 71.7773C193.81 72.6173 189.65 73.2373 185.46 73.6273C185.9 72.0673 185.32 70.4073 184.54 68.9873C183.76 67.5673 182.76 66.2473 182.27 64.7073L187.18 64.8373C188.07 64.8573 188.96 64.8873 189.85 64.8473C190.52 64.8173 191.62 64.4173 192.24 64.5673C193.56 64.8773 192.91 66.6873 193.49 67.8573Z" fill="#F9C1C7"/>
<path d="M209.97 101.927L214.08 106.857C214.08 106.857 220.93 122.887 206 124.527C191.07 126.167 179.97 123.297 179.97 123.297C179.97 123.297 173.94 120.417 173.81 122.617C173.68 124.817 173.13 130.977 169.84 136.997L166.96 143.567C166.96 143.567 165.45 145.077 165.86 147.127C166.27 149.177 156.68 149.867 156.82 147.127C156.82 147.127 158.19 144.797 158.19 143.427C158.19 142.057 160.38 138.767 160.38 138.767L164.35 119.047C164.35 119.047 164.08 108.907 173.39 110.827C182.7 112.747 195.99 110.417 195.99 110.417L199.01 99.8673L209.97 101.927Z" fill="#203E75"/>
<path d="M165.45 146.857C165.45 146.857 168.05 153.427 165.86 154.257C163.67 155.087 159.01 154.527 159.01 154.527C159.01 154.527 153.53 153.847 152.16 153.977C150.79 154.107 145.17 153.017 146 150.827C146.82 148.637 151.07 149.187 151.07 149.187L154.91 147.407C154.91 147.407 155.32 146.037 156.28 146.587C157.23 147.127 159.97 149.187 165.45 146.857Z" fill="#CCCFDA"/>
<path d="M151.2 127.407C151.2 127.407 154.08 133.847 149.42 133.297C144.76 132.747 141.2 131.787 139.83 131.657C138.51 131.527 134.79 130.257 135.36 127.717C135.39 127.557 135.4 127.387 135.4 127.217C135.4 126.877 135.86 126.207 139.56 126.307C139.56 126.307 142.3 126.307 143.4 124.387C143.4 124.387 147.51 129.597 151.2 127.407Z" fill="#CCCFDA"/>
<path d="M182.3 72.6173C182.3 72.6173 192.16 66.4573 200.38 72.6173C208.6 78.7773 214.08 106.857 214.08 106.857L195.04 102.607C195.04 102.607 194.22 99.3173 193.12 98.7673C192.02 98.2173 191.89 95.8873 191.89 95.8873C191.89 95.8873 186 94.1073 186.41 87.2573C186.82 80.4173 182.3 72.6173 182.3 72.6173Z" fill="#9964AA"/>
<path d="M187.37 72.8873H182.3C182.3 72.8873 179.29 76.3073 178.88 84.9373L177.24 91.7873C177.24 91.7873 173.82 100.007 175.87 101.377C177.92 102.747 181.9 102.607 182.72 99.8673C183.54 97.1273 189.16 81.2373 189.16 81.2373L187.37 72.8873Z" fill="#9964AA"/>
<path d="M185.91 51.5873C188.47 50.5373 191.41 51.0173 193.5 52.8273C196.13 55.1773 196.66 59.0073 197.33 62.4673C198 65.9273 199.33 69.7873 202.6 71.1173C201.13 71.3173 199.64 71.2673 198.18 70.9873L203.11 75.4073L194.8 72.6973C192.19 71.8473 189.45 70.9873 186.75 71.4673C182.28 72.2673 179.16 76.4673 174.87 77.9473L175.35 75.6173L172.47 75.5973C173.16 75.0873 173.73 74.4273 174.12 73.6673C173.85 73.3373 173.45 73.1273 173.02 73.0873C171.82 65.5973 176.27 58.1873 182.07 53.2873C183.21 52.3273 184.47 51.3973 185.95 51.1573C187.42 50.9173 189.14 51.5773 189.66 52.9773" fill="#302E41"/>
<path d="M60.2298 120.277C60.2298 136.047 70.1198 148.797 82.3398 148.797L60.2298 120.277Z" fill="#FFC709"/>
<path d="M82.3398 149.127C69.9598 149.127 59.8998 136.187 59.8998 120.277H60.5598C60.5598 135.827 70.3298 148.477 82.3398 148.477V149.127Z" fill="#EA9423"/>
<path d="M82.3398 148.797C82.3398 132.857 93.3798 119.947 107.02 119.947L82.3398 148.797Z" fill="#29ABE2"/>
<path d="M68.2398 121.707C68.2398 136.687 74.5498 148.807 82.3398 148.807L68.2398 121.707Z" fill="#29ABE2"/>
<path d="M82.3398 148.797C82.3398 128.427 95.0998 111.937 110.86 111.937L82.3398 148.797Z" fill="#FFC709"/>
<path d="M82.6698 148.797H82.0098C82.0098 128.287 94.9498 111.607 110.86 111.607V112.267C95.3198 112.267 82.6698 128.657 82.6698 148.797Z" fill="#EA9423"/>
<path d="M77.6898 148.997C77.6898 148.997 80.8298 148.897 81.7698 148.227C82.7098 147.557 86.5898 146.747 86.8298 147.827C87.0598 148.907 91.5398 153.197 87.9998 153.227C84.4598 153.257 79.7698 152.677 78.8298 152.097C77.8898 151.527 77.6898 148.997 77.6898 148.997Z" fill="#A9A8A8"/>
<path opacity="0.2" d="M88.0598 152.857C84.5198 152.887 79.8298 152.307 78.8898 151.727C78.1698 151.287 77.8898 149.717 77.7898 148.997C77.7198 148.997 77.6898 148.997 77.6898 148.997C77.6898 148.997 77.8898 151.527 78.8298 152.097C79.7698 152.667 84.4598 153.247 87.9998 153.227C89.0198 153.217 89.3798 152.857 89.3598 152.317C89.2098 152.647 88.8198 152.847 88.0598 152.857Z" fill="#010101"/>
<path opacity="0.1" d="M182.83 111.587C179.65 111.617 176.32 111.437 173.39 110.837C164.08 108.917 164.35 119.057 164.35 119.057L163.5 123.277C163.46 123.537 163.41 124.007 163.28 124.447L164.77 119.477C164.77 119.477 164.5 109.337 173.81 111.257C176.07 111.727 178.56 111.937 181.05 111.997C181.68 111.887 182.27 111.757 182.83 111.587Z" fill="white"/>
<path d="M214.08 106.857C207.09 96.8573 194.56 101.567 194.56 101.567L193.94 105.217C188.44 104.167 183 102.837 177.64 101.247C169.56 98.7773 166.41 103.437 166.41 103.437L155.31 114.257L144.21 124.397C143.53 129.467 150.24 127.957 151.33 127.957C152.42 127.957 154.34 125.217 154.34 125.217C157.21 124.257 164.32 119.067 164.34 119.057C164.34 118.967 164.11 108.937 173.38 110.847C176.31 111.447 179.64 111.637 182.82 111.597C182.26 111.757 181.67 111.897 181.03 111.997C178.55 111.937 176.05 111.727 173.79 111.257C166.44 109.747 165.06 115.727 164.81 118.327C165.58 117.207 167.34 115.027 170.27 113.317C171.59 112.547 174.06 112.347 174.06 112.347C174.06 112.347 187.89 118.927 190.09 121.247C192.28 123.577 201.6 123.717 208.72 123.027C215.86 122.337 214.08 106.857 214.08 106.857Z" fill="#203E75"/>
</g>
<defs>
<clipPath id="clip0">
<rect width="263.51" height="160" fill="white" transform="translate(0.00976562 0.00732422)"/>
</clipPath>
</defs>
</svg>
